<svg xmlns="http://www.w3.org/2000/svg" width="400" height="326.682" viewBox="0 0 400 326.682">
  <g id="Grupo_1066172" data-name="Grupo 1066172" transform="translate(-1020 -2621.333)">
    <g id="Grupo_1066171" data-name="Grupo 1066171">
      <g id="Grupo_1066170" data-name="Grupo 1066170">
        <g id="Grupo_1065950" data-name="Grupo 1065950">
          <rect id="Image_Place_Holder" data-name="Image Place Holder" width="400" height="270.77" rx="10" transform="translate(1020 2677.245)" fill="#baefe4" opacity="0.5"/>
          <g id="Grupo_1065947" data-name="Grupo 1065947" transform="translate(942.644 2477.858)">
            <path id="Trazado_776389" data-name="Trazado 776389" d="M288.617,331.632,235.827,300.8c-7.282-3.328-13.583-2.474-21,1.388C208.064,305.7,197.033,313.1,192,315.713c-8.065,4.192-13.838,11.971-5.753,16.368,23.788,12.934,26.317,14.709,50.471,27.849,4.568,2.485,11.251,3.383,18.267,2.8a48.348,48.348,0,0,0,19.783-5.892q6.022-3.5,11.845-6.894c5.239-3.051,8.018-6.659,8.294-9.993C295.18,336.692,293.086,333.672,288.617,331.632Z" transform="translate(0 52.499)" fill="#73d8c0" fill-rule="evenodd"/>
            <path id="Trazado_776390" data-name="Trazado 776390" d="M196.134,350.533,277.493,304.2c8.869-4.052,21.564-7.278,30.6-2.575,8.235,4.285,21.8,13.054,27.795,16.474,4.555,2.6,20.369,12.073,10.519,17.428C317.434,351.278,288.761,369,259.341,385c-5.565,3.027-13.705,4.121-22.249,3.411a58.9,58.9,0,0,1-24.1-7.176q-7.334-4.265-14.428-8.4c-6.382-3.716-9.766-8.11-10.1-12.172C188.14,356.7,190.689,353.019,196.134,350.533Z" transform="translate(2.057 52.689)" fill="#73d8c0" fill-rule="evenodd"/>
            <g id="Grupo_1065946" data-name="Grupo 1065946" transform="translate(187.105 143.474)">
              <g id="Grupo_1065921" data-name="Grupo 1065921" transform="translate(19.455 108.662)">
                <g id="Grupo_1065918" data-name="Grupo 1065918" transform="translate(0 108.498)">
                  <path id="Trazado_776391" data-name="Trazado 776391" d="M202.771,315.847l-2.3.826-.031,7.032c0,7.692,10.828,13.926,24.186,13.926s24.186-6.234,24.186-13.926l-.02-7.071a14.858,14.858,0,0,0-1.983-2.454l-2.263,6.246c-1.444,5.259-9.223,5.92-19.629,5.92s-20.358-.886-20.467-6.882l-1.634-.471Z" transform="translate(-200.444 -302.911)" fill-rule="evenodd"/>
                  <path id="Trazado_776392" data-name="Trazado 776392" d="M224.63,305.759c-13.357,0-24.186,6.234-24.186,13.926s10.828,13.925,24.186,13.925,24.186-6.234,24.186-13.925S237.987,305.759,224.63,305.759Z" transform="translate(-200.444 -305.759)" fill="#001c2b" fill-rule="evenodd"/>
                </g>
                <g id="Grupo_1065919" data-name="Grupo 1065919" transform="translate(20.231)">
                  <path id="Trazado_776393" data-name="Trazado 776393" d="M215.943,226.328l-.376.135,0,121c0,1.258,1.77,2.278,3.954,2.278s3.956-1.02,3.956-2.278l0-121.01a2.42,2.42,0,0,0-.325-.4l-.369,1.021c-.237.86-1.508,1.511-3.21,1.511s-3.329-.688-3.348-1.667l-.266-.078Z" transform="translate(-215.563 -224.212)" fill="#001c2b" fill-rule="evenodd"/>
                  <path id="Trazado_776394" data-name="Trazado 776394" d="M219.517,224.678c-2.184,0-3.954,1.02-3.954,2.277s1.77,2.278,3.954,2.278,3.956-1.02,3.956-2.278S221.7,224.678,219.517,224.678Z" transform="translate(-215.563 -224.678)" fill="#00d0ff" fill-rule="evenodd"/>
                </g>
                <g id="Grupo_1065920" data-name="Grupo 1065920" transform="translate(20.231)">
                  <path id="Trazado_776395" data-name="Trazado 776395" d="M215.943,226.329l-.376.134,0,121c0,1.258,1.77,2.278,3.954,2.278s3.956-1.02,3.956-2.278l.009-1.78a4.871,4.871,0,0,1-5.646-.1l.439-110.057c1.978-.231,4.179-2.1,5.195-3.673v-5.4a2.42,2.42,0,0,0-.325-.4l-.369,1.021c-.237.86-1.508,1.511-3.21,1.511s-3.329-.688-3.348-1.667l-.266-.078Z" transform="translate(-215.563 -224.212)" fill-rule="evenodd"/>
                  <path id="Trazado_776396" data-name="Trazado 776396" d="M219.517,224.678c-2.184,0-3.954,1.02-3.954,2.277s1.77,2.278,3.954,2.278,3.956-1.02,3.956-2.278S221.7,224.678,219.517,224.678Z" transform="translate(-215.563 -224.678)" fill="#bdccd4" fill-rule="evenodd"/>
                </g>
                <path id="Trazado_776397" data-name="Trazado 776397" d="M222.37,233.094a6.689,6.689,0,0,1-3.3,1.641l-.534,106.912a4.594,4.594,0,0,0,3.956-.375Z" transform="translate(-194.327 -221.832)" fill="#002a40" fill-rule="evenodd"/>
              </g>
              <g id="Grupo_1065922" data-name="Grupo 1065922" transform="translate(0.814 8.736)">
                <path id="Trazado_776398" data-name="Trazado 776398" d="M242.87,227.461c3.863,8.29,5.156,17.659,5.642,26.889-2.413,3.534-8.836,7.7-16.059,8.761-.088.946-.206,1.9-.348,2.865-5.718,5.169-19.106,8.379-28.987,2.88a61.7,61.7,0,0,1-1.426-17.765c.289-7.124,2.862-12.724,3.767-17.213-.363-7.878,1.777-16.863-2.046-23.132-7.617-12.492-16.98-27.58-16.9-36.313.44-4.7,2.43-6.752,7.163-7.933,3.38-1.876,17.68-9.676,24.911-13.158,13.523-8.375,21.77-.229,25.252,15.915,4.067,6.6,3.466,16.562-.253,23.084.058,3.679,1.013,6.807-.963,12.575-1.151,3.361-.771,10.361-.436,15.7A24.435,24.435,0,0,1,242.87,227.461Z" transform="translate(-186.514 -150.003)" fill="#001c2b" fill-rule="evenodd"/>
                <path id="Trazado_776399" data-name="Trazado 776399" d="M235.324,214.8c3.863,8.29,5.156,17.659,5.642,26.889a13.777,13.777,0,0,1-2.221,2.457c-.052.048-.106.1-.161.142l-.067.058-.131.114-.072.062-.11.091-.08.066c-.051.043-.1.084-.155.127l-.064.051-.138.11-.062.048-.145.112-.054.041c-.138.1-.277.209-.419.312l-.042.031-.167.119-.058.041-.153.107-.1.066-.173.118-.066.044-.167.112-.071.047-.147.1-.122.078-.111.071-.142.088-.114.071-.146.09-.116.071-.147.087-.1.058c-.054.032-.108.064-.163.1l-.083.048c-.063.036-.126.072-.19.107l-.08.045-.21.116-.055.031-.194.1-.078.042-.2.107-.07.036-.227.116-.056.028c-.072.036-.144.072-.218.107l-.058.029c-.082.04-.165.08-.248.119l-.011.007c-.3.142-.6.281-.913.415-.207-1.689-.4-3.377-.559-5.064,4.03-6.3,2.366-18.353,2.5-21.983-.858,4.377-1.242,6.028-2.184,12.459-.517,3.517-2.678,5.157-6.936,7.939a33.23,33.23,0,0,1,.189,8.671l-.013.147-.005.047-.011.112v.009c-.011.114-.023.227-.035.341l-.007.051-.013.127-.008.066c-.011.11-.024.219-.037.329l-.012.1-.009.075-.013.112,0,.035-.017.13-.007.055v.007l-.007.048-.04.305,0,.016-.023.174,0,.023c-.025.183-.051.368-.078.553l-.132.116-.033.029c-.09.079-.182.158-.276.236l-.028.024-.142.115-.012.009-.126.1-.048.037-.134.1-.04.031-.1.078-.058.043-.142.1-.015.011-.139.1-.039.027c-.049.036-.1.071-.15.106l-.047.032-.108.074-.058.039-.143.1-.056.036-.115.075-.052.032-.143.091-.07.043-.1.064-.072.044-.139.084-.07.04-.116.068-.051.031c-.054.029-.107.06-.159.091l-.074.04-.1.056-.075.041-.157.086-.066.035-.115.062-.079.04-.154.08-.078.039-.108.055-.071.036-.159.078-.094.046-.1.048-.079.037-.17.08-.067.031-.127.058-.1.044-.143.063-.094.042-.1.041-.17.072-.091.039-.1.042-.092.037-.159.066-.112.044-.086.035-.134.052-.092.035-.151.059-.091.033-.149.055-.055.02-.2.07-.08.029-.124.043-.114.039-.169.058-.056.019c-.146.049-.293.1-.44.143l-.047.015c-.154.048-.308.1-.463.142l-.025.007a30.735,30.735,0,0,1-5.818,1.119c-3.5-15.631,1.147-27.848,1.59-34.021,1.329-8.1.027-13.941.027-25.3,9.217-1.317,11.786-4.2,14.741-8.786,1.111-.017,7-.9,9.715-3.365a22.474,22.474,0,0,1-1.119,4.8c-1.151,3.361-.771,10.361-.436,15.7A24.435,24.435,0,0,1,235.324,214.8Z" transform="translate(-178.968 -137.339)" fill="#002a40" fill-rule="evenodd"/>
                <path id="Trazado_776400" data-name="Trazado 776400" d="M243.619,192.282l-.032.059c.007.458.028.906.055,1.353.036.966.107,1.895.2,2.918l0,.083c-3.974,2.968-4.809,2.728-10.907,3.925-6.657,6.449-8.036,7.18-17.253,8.5,0,11.361,1.817,17.459.488,25.56a13.87,13.87,0,0,1-2.136,7,37.141,37.141,0,0,0-3.522,12.9c-.395,5,1.167,10.368,2.365,17.073a23.456,23.456,0,0,1-9.759-2.8,61.7,61.7,0,0,1-1.426-17.765c.27-6.66,2.611-11.318,3.776-19,.98-6.452,1.207-15.989-2.055-21.341-7.617-12.492-16.98-27.58-16.9-36.313.29-5.722,3.716-5.294,6.812-8.033a45.929,45.929,0,0,1,12.69-7.982c3.882-1.558,8.418-3.076,12.572-5.076,6.386-3.954,11.6-4.226,15.682-1.71,1.2.772,2.3,1.425,2.476,2.065-.993,1.872-6.613,4.079-7.425,4.261-7.742,1.725-10.937-1.841-14.9.546-4.425,2.668-10.037,4.425-14.7,9.971a5.61,5.61,0,0,0-2.823.025c1.513,6.914-2.708,11.412.947,18.731,4.21,6.434,5.931,11.81,9.118,14.708,7.618,6.925,19.485,2.611,25.2-5.246,4.621.123,7.89-.492,11.458-4.441Z" transform="translate(-186.514 -150.003)" fill-rule="evenodd"/>
                <path id="Trazado_776401" data-name="Trazado 776401" d="M234.159,154.274c2.37,3.319,4.147,7.949,5.353,13.538,3.648,5.92,3.539,14.547.794,20.969-1.278.992-5.415,4.745-9.885,4.843-4.589.1-3.1-1.717-6.224,2.735-2.761,3.931-13.281,6.5-17.9,3.233-3.889-2.747-6.232-7.577-5.972-16.869-.31-.86.739-10.749-1.008-13.562a19.144,19.144,0,0,1,6.011-3.732c5.029,7.288,24.116,9.743,22.02-7.807A21.962,21.962,0,0,1,234.159,154.274Z" transform="translate(-182.185 -148.559)" fill="#002a40" fill-rule="evenodd"/>
              </g>
              <g id="Grupo_1065923" data-name="Grupo 1065923" transform="translate(0.372 8.323)">
                <path id="Trazado_776402" data-name="Trazado 776402" d="M197.706,162.976c1.79-.993,5.529-2.975,9.87-5.112l.033.582a94,94,0,0,0,10.5,14.71c8.424,10.222,17.336,19.981,19.553,34.29.019-17.5,1.093-33.614-4.382-44.3-2.443-4.768-5.969-8.322-12.526-11.2,3.885-1.507,7.174-2.46,8.83-2.215,14.028,2.077,17.692,13.513,17.217,32.735a42.992,42.992,0,0,1-1.7,9.313c-.961,3.745.083,6.113-.989,11.179a44.947,44.947,0,0,0-1.22,6.036,79.291,79.291,0,0,0,.3,13.236c.5,5.365,3.008,10.384,3.329,15.2-2.648,5.771-4.113,6.719-8.553,10.393-.6-5.775-.966-10.032-1.521-16.836a117.056,117.056,0,0,1-1.9,18.743c-7.714,5.406-26.311,13.719-33.389,4.924-.234-9.2,2.269-14.369,3.411-21.212,1.175-7.047,1.633-14.99-1.433-21.6-1.548-3.339-3.728-6.23-6.066-10.47-5.278-9.569-10.929-19.455-10.884-26.056C186.235,167.383,193.6,165.252,197.706,162.976Z" transform="translate(-186.183 -149.694)" fill="#4b707a" fill-rule="evenodd"/>
                <path id="Trazado_776403" data-name="Trazado 776403" d="M224.546,154.684l2.09-1.611c1.827.864,3.943,5.252,4.19,5.8,2.484,5.494,3.245,13.042,3.012,22.455a42.911,42.911,0,0,1-1.7,9.313c-.961,3.745.083,6.113-.989,11.179a44.95,44.95,0,0,0-1.22,6.036,79.291,79.291,0,0,0,.3,13.236c.5,5.363,2.6,8.84,2.918,13.658a23.057,23.057,0,0,1-7.32,9.98c-1.244-11.892-1.919-14.816-.63-27.514,1.907-18.779,3.138-36.506,2.735-55.407-.9-.76-1.481-.814-3.424-1.081a7.853,7.853,0,0,1,3.477-1.184A31.4,31.4,0,0,0,224.546,154.684Z" transform="translate(-173.224 -148.552)" fill="#618f9c" fill-rule="evenodd"/>
                <path id="Trazado_776404" data-name="Trazado 776404" d="M197.706,162.976c1.79-.993,5.529-2.975,9.87-5.112l.033.582q.652,1.156,1.3,2.217c-4.673,2.67-8.227,5.367-8.972,7.316,5.9,8.776,13.288,28.294,14.269,41.785,1.772,24.377-4.46,27.989-4.526,44.824-.111,1.271-.185,2.568-.223,3.881-3.352-.2-6.289-1.314-8.3-3.81-.234-9.2,2.269-14.369,3.411-21.212,1.175-7.047,1.633-14.99-1.433-21.6-1.548-3.339-3.728-6.23-6.066-10.47-5.278-9.569-10.929-19.455-10.884-26.056.052-7.941,7.421-10.071,11.523-12.347Zm26.467-9.311a35.151,35.151,0,0,0-3.423-1.718c3.885-1.507,7.174-2.46,8.83-2.215a22.511,22.511,0,0,1,5.062,1.325A42.39,42.39,0,0,0,224.173,153.665Z" transform="translate(-186.183 -149.694)" fill="#325159" fill-rule="evenodd"/>
                <path id="Trazado_776405" data-name="Trazado 776405" d="M204.151,173.518c3.51,10.337,8.319,23.353,8.768,31.426.638,11.524-1.123,26.008-4.044,43.875,6.755-.989,13.678-4.222,19-7.672,1.337-8.784,2.8-19.9,2.856-29.451C230.816,195.941,217.718,181.911,204.151,173.518Z" transform="translate(-180.107 -141.639)" fill="#618f9c" fill-rule="evenodd"/>
              </g>
              <g id="Grupo_1065924" data-name="Grupo 1065924" transform="translate(0 26.287)">
                <path id="Trazado_776406" data-name="Trazado 776406" d="M205.386,186.625c.339,10.859-.646,18.808-.769,25.807-.183,10.558.282,18.96-.23,31.939-.526,5.52-11.359,3.43-12.609-2.41-1.521-16.886-3.522-25.767-4.293-35.077-.69-8.351-.6-16.5-1.23-25.652-.325-4.76-2.078-19.817,7-17.955C200.215,164.7,205.194,180.459,205.386,186.625Z" transform="translate(-185.905 -163.119)" fill="#4b707a" fill-rule="evenodd"/>
                <path id="Trazado_776407" data-name="Trazado 776407" d="M202.981,186.351c.339,10.859-.646,18.808-.769,25.807-.183,10.558.282,18.96-.23,31.939-.237,2.489-2.571,3.431-5.176,3.179.151-15.687-1.024-32.241-1.22-42.519-.124-6.482-.549-26.4-2.569-40.829C198.824,167.7,202.81,180.846,202.981,186.351Z" transform="translate(-183.5 -162.845)" fill="#618f9c" fill-rule="evenodd"/>
                <path id="Trazado_776408" data-name="Trazado 776408" d="M195.9,246.618a7.09,7.09,0,0,1-4.123-4.657c-1.521-16.886-3.522-25.767-4.293-35.077-.69-8.351-.6-16.5-1.23-25.652-.325-4.76-2.078-19.817,7-17.955,1.979,6.68.7,32.945,1.293,43.069C195.292,219.083,195.932,232.686,195.9,246.618Z" transform="translate(-185.905 -163.119)" fill="#325159" fill-rule="evenodd"/>
              </g>
              <g id="Grupo_1065925" data-name="Grupo 1065925" transform="translate(31.178 40.941)">
                <path id="Trazado_776409" data-name="Trazado 776409" d="M218.741,197.617c-2-3.622-4.512-5.8-6.779-7.987-1.319-1.27-2.022-1.7-2.264-2.648a26.6,26.6,0,0,1,.508-3.9,12.311,12.311,0,0,1,1.59-3.828c1.113-1.883,3.278-4.449,3.321-3.373.082,2.091,1.655,6.72,1.769,7.364,1.849,1.622,4.36,1.828,5.072,4.081,1.178,3.733,1.253,5.7,2.132,8.524Z" transform="translate(-209.044 -173.546)" fill="#f1b287" fill-rule="evenodd"/>
                <path id="Trazado_776410" data-name="Trazado 776410" d="M217.43,187.309c-2.315-1.331-3.489-1.2-4.946-4.065a19.987,19.987,0,0,0-1.052-3.672c.494-.756-1.293-4.567-1.606-5.292A15.549,15.549,0,0,1,214,174.3c.985.668,1.76,2.494,1.857,5.022a10.811,10.811,0,0,1,1.519,4.372c1.849,1.623,4.978,1.9,5.9,4.077,1.58,3.729.314,3.823.483,5.2a27.715,27.715,0,0,0,.7,3.964l-1.81-1.629Z" transform="translate(-208.994 -174.044)" fill="#e8a476" fill-rule="evenodd"/>
                <path id="Trazado_776411" data-name="Trazado 776411" d="M210.086,174.07c1.724.488,2.2,2.647,1.9,6.272a14.244,14.244,0,0,1,1.513,4.321l-3.616,2.844c-.108-.725-.292-4.827-.442-5.618a6.468,6.468,0,0,1-.213-2.145C209.21,179.376,209.909,175.491,210.086,174.07Z" transform="translate(-209.205 -174.07)" fill="#f1b287" fill-rule="evenodd"/>
              </g>
              <g id="Grupo_1065928" data-name="Grupo 1065928" transform="translate(18.848)">
                <path id="Trazado_776412" data-name="Trazado 776412" d="M218.718,152.366c4.394,1.236,6.267,2.351,9.106,6.735l-2.481,2.41,3.539.613c1.242,12.663-1,31.68-1.709,44.517-1.073-12.89-1-31.232-5.229-42.483-1.089-2.892-2.3-4.408-4.364-6.98C217.091,156.567,217.9,152.137,218.718,152.366Z" transform="translate(-194.092 -140.47)" fill="#618f9c" fill-rule="evenodd"/>
                <g id="Grupo_1065927" data-name="Grupo 1065927" transform="translate(4.579)">
                  <g id="Grupo_1065926" data-name="Grupo 1065926" transform="translate(0 1.144)">
                    <path id="Trazado_776413" data-name="Trazado 776413" d="M224.688,152.976l-16.39-7.144c-.356-.316-3.6-2.517-3.337-.937a34.644,34.644,0,0,1-1.547,16.96c-.116,3.879,3.98,8.548,9.066,10.658,4.484,1.861,9.715.337,10.07-3.151C222.688,164.843,221.652,157.129,224.688,152.976Z" transform="translate(-203.412 -144.329)" fill="#001c2b" fill-rule="evenodd"/>
                    <path id="Trazado_776414" data-name="Trazado 776414" d="M207.886,166.8a22.331,22.331,0,0,0,3.082,1.55c4.484,1.86,9.265.466,9.619-3.023.059-1.912-.543-6.518-.058-9.64a9.853,9.853,0,0,1-7.047.7C211.673,158.764,209.105,164.34,207.886,166.8Z" transform="translate(-201.899 -140.489)" fill="#002a40" fill-rule="evenodd"/>
                    <path id="Trazado_776415" data-name="Trazado 776415" d="M224.688,152.957l-16.39-7.144c-.215-.138-3.578-2.347-3.345-.986a34.645,34.645,0,0,1-1.539,17.009,7.3,7.3,0,0,0,.854,3.435c1.326-3.752,2.885-9.946,5.453-11.013C217.92,158.281,222.654,157.507,224.688,152.957Z" transform="translate(-203.412 -144.311)" fill-rule="evenodd"/>
                  </g>
                  <path id="Trazado_776416" data-name="Trazado 776416" d="M216.026,145.294c-5.473-2.358-11.034-2.269-11.449-.621s2.894,5.944,8.367,8.3,10.452,2.462,11.127.234S221.5,147.65,216.026,145.294Z" transform="translate(-203.03 -143.474)" fill="#001c2b" fill-rule="evenodd"/>
                </g>
                <path id="Trazado_776417" data-name="Trazado 776417" d="M206.113,152.85c-1.686,1.381-3.816,2.51-5.043,4.208-1.525,2.11-1.25,4.235-.313,6.56,1.453,3.6,4.551,8.037,6.3,12.615l5.3-2.1-1.964,5.276c13.406,12.316,21.429,23.855,22.885,31.086C230.735,171.919,204.993,169.549,206.113,152.85Z" transform="translate(-199.99 -140.304)" fill="#618f9c" fill-rule="evenodd"/>
              </g>
              <path id="Trazado_776418" data-name="Trazado 776418" d="M221.681,191.344c.344-2.866-.249-4.682-2.236-6.018a25.117,25.117,0,0,0-2.274-3.305c-.033-2.425-.3-4.658-2.763-4.86a26.277,26.277,0,0,1-.136,5.053,24.989,24.989,0,0,0,1.3,4.726,28.828,28.828,0,0,0,3.9,7.324c.138.21,2.28-.8,2.726-1.208Z" transform="translate(-176.313 -132.083)" fill="#f1b287" fill-rule="evenodd"/>
              <g id="Grupo_1065942" data-name="Grupo 1065942" transform="translate(67.593 6.388)">
                <g id="Grupo_1065940" data-name="Grupo 1065940">
                  <g id="Grupo_1065929" data-name="Grupo 1065929" transform="translate(0.477 34.117)">
                    <path id="Trazado_776419" data-name="Trazado 776419" d="M280.4,174.19c9.989,2.567,10.516,14.689,8.677,24.988-1.8,10.094-5.192,18.49-6.015,27.329-.574,6.159.839,12.429,1.784,20.083.051.409-.4,5.034-7.448,9.516-10.277,6.537-30.74,5.717-29.823-4.618.563-6.339-1.369-12.9-2.6-18.216-2.516-10.389-11.127-27.13-7.068-37.551.844-2.166,2.46-3.06,4-4.56,6.934-6.772,29.548-16.754,34-17.33A11.537,11.537,0,0,1,280.4,174.19Z" transform="translate(-236.755 -173.744)" fill="#729ec1" fill-rule="evenodd"/>
                    <path id="Trazado_776420" data-name="Trazado 776420" d="M283.024,179.424c2.352,5.073,2.121,12.14.982,18.511-1.852,10.365-5.4,18.826-6.182,27.942-.511,5.945,1.042,12.112,1.951,19.47.051.409-.4,5.034-7.448,9.516a30.1,30.1,0,0,1-20.506,3.745c.426-5.2.939-10.235,1.492-14.488,2.247-17.3,6.328-38.247-.876-50.113,9.131-1.125,18.311-5.176,23.066-11.174C276.467,181.613,280.429,173.829,283.024,179.424Z" transform="translate(-231.687 -172.5)" fill="#8fbce0" fill-rule="evenodd"/>
                    <path id="Trazado_776421" data-name="Trazado 776421" d="M280.4,174.19a12.881,12.881,0,0,1,1.572.514,95.539,95.539,0,0,0-10.292,3.625c-8.749,3.641-15.913,7.789-22.451,14.7,11.018,10.456,4.879,39.245,3.331,51.1a96.339,96.339,0,0,0-.371,14.141c-2.741-1.434-4.736-3.618-4.563-6.672.357-6.339-1.73-12.9-2.654-18.422-.7-2.905-2.039-6.4-3.285-10.013-3.21-9.3-6.705-19.928-3.783-27.435.844-2.165,2.46-3.06,4-4.56,6.934-6.772,29.548-16.754,34-17.33A11.537,11.537,0,0,1,280.4,174.19Z" transform="translate(-236.762 -173.744)" fill="#6087a8" fill-rule="evenodd"/>
                    <path id="Trazado_776422" data-name="Trazado 776422" d="M242.513,219.243c-4.883-14.734-8.472-27.3-2.959-29.763,4.94-2.2,8.907-.808,10.838,2.769C255.358,201.451,249.158,218.5,242.513,219.243Z" transform="translate(-236.775 -168.78)" fill="#4d708c" fill-rule="evenodd"/>
                  </g>
                  <g id="Grupo_1065934" data-name="Grupo 1065934" transform="translate(0 105.417)">
                    <g id="Grupo_1065932" data-name="Grupo 1065932" transform="translate(0 8.769)">
                      <g id="Grupo_1065930" data-name="Grupo 1065930" transform="translate(34.543 112.391)">
                        <path id="Trazado_776423" data-name="Trazado 776423" d="M267.4,330.579c.967.921,2.094,1.372,4.334,2.71v1.974c2.319,4.061,4.556,5.908,7.492,5.041,4.093-1.208,5.334-2.215,5.382-5.142.467-4.989.571-5.923-.772-9.6a29.417,29.417,0,0,0-8.87-4.15c-2.378-.759-5.96-2.834-9.414-3.745a2.642,2.642,0,0,0-3.307,2.466C262.057,323.257,264.806,327.835,267.4,330.579Z" transform="translate(-262.232 -317.57)" fill="#001e30" fill-rule="evenodd"/>
                        <path id="Trazado_776424" data-name="Trazado 776424" d="M267.4,330.453c.967.921,2.094,1.372,4.334,2.71v1.974c2.319,4.061,4.556,5.908,7.492,5.041,4.093-1.208,5.334-2.215,5.382-5.142a30.586,30.586,0,0,0,.258-5.7c-5.444,2.782-10.068,2.528-15.145-2.714-1.523-1.574-5.994-5.642-6.378-8.672a2.933,2.933,0,0,0-1.1,2.065C262.057,323.13,264.806,327.708,267.4,330.453Z" transform="translate(-262.232 -317.443)" fill-rule="evenodd"/>
                      </g>
                      <g id="Grupo_1065931" data-name="Grupo 1065931" transform="translate(0 128.132)">
                        <path id="Trazado_776425" data-name="Trazado 776425" d="M263.933,335.122c-1.143-.306-4.093-4.8-8.228-3.919-4.966,1.061-10.733-1.752-15.212-1.805-.8-.009-1.808-.21-2.292.153-2.132,1.59-2.394,3.238-.557,5.33a32.125,32.125,0,0,0,5.912,4.884,38.082,38.082,0,0,0,6.683,3.787c2.013.835,3.367.72,5.188,1.368l.115,1.583a8.665,8.665,0,0,0,4.087,2.091c2.563.225,5.567-1.416,7.725-3.717.249-2.619,1.182-5.224-.165-9.073Z" transform="translate(-236.418 -329.333)" fill="#001e30" fill-rule="evenodd"/>
                        <path id="Trazado_776426" data-name="Trazado 776426" d="M236.912,330.445c-.836,1.215-.622,2.517.732,4.059a32.127,32.127,0,0,0,5.912,4.884,38.166,38.166,0,0,0,6.683,3.787c2.013.835,3.367.72,5.188,1.368l.115,1.583a8.665,8.665,0,0,0,4.087,2.092c2.563.225,5.567-1.416,7.725-3.717.19-2,.779-3.99.448-6.531-5.525,4.229-8.927,1.368-11.052,1.259-3.15-.161-7.705.114-14.717-4.923C240.41,333.139,238.657,331.85,236.912,330.445Z" transform="translate(-236.418 -328.957)" fill-rule="evenodd"/>
                        <path id="Trazado_776427" data-name="Trazado 776427" d="M252.158,336.424c-1.283-2.237-1.286-3.707-.858-4.592l-8.826-1.742c-4.325-.9-5.2-.084-4.057.937C242.272,334.457,247.346,335.314,252.158,336.424Z" transform="translate(-235.897 -329.208)" fill="#00314f" fill-rule="evenodd"/>
                      </g>
                      <path id="Trazado_776428" data-name="Trazado 776428" d="M256,247.823c1.347,10.5,3.972,49.19,7.459,57.909,5.243,13.108,6.729,33.131,9.913,47.546a8.623,8.623,0,0,0,4.338,5.037c3.708,1.86,8.836,2.03,9.842-.66-.866-13.3-.558-30.072-.993-37.472-.486-8.286-2.52-16.374-5.782-21.2-.423-5.932-.867-27.869.214-38.862.389-3.966,5.389-17.78-2.3-26.542Z" transform="translate(-229.795 -233.58)" fill="#00314f" fill-rule="evenodd"/>
                      <path id="Trazado_776429" data-name="Trazado 776429" d="M278.368,358.282c2.35.179,4.409-.408,5.009-2.01-.866-13.3-.558-30.072-.993-37.472-.486-8.286-2.52-16.374-5.782-21.2-.423-5.932-.867-27.869.213-38.862.316-3.209,3.646-12.861.836-21.07-3.229,9.412-6.651,12.338-9.283,16.593-.126,9.367,1.717,36.487,1.967,45.851,3.265,4.542,4.6,9.439,5.56,14.844,2.078,11.753,2.063,30.388,2.7,42.252A3.963,3.963,0,0,1,278.368,358.282Z" transform="translate(-225.616 -232.197)" fill="#003f66" fill-rule="evenodd"/>
                      <path id="Trazado_776430" data-name="Trazado 776430" d="M255.571,243.2c1.348,10.5,6.366,53.336,8.038,62.513,2.765,15.169,6.73,33.131,9.913,47.546a8.624,8.624,0,0,0,4.338,5.037,13.388,13.388,0,0,0,2.251.875c-1.293-10.428-2.624-35.765-5.551-47.5-1.325-5.312-1.107-6.45-4.142-9.934-.277-13.978-3.261-31.343-2.493-33.771,1.946-4.587,3.407-17.077,2.743-22.193a62.527,62.527,0,0,0,8.362-12.114Z" transform="translate(-229.941 -233.556)" fill="#001e30" fill-rule="evenodd"/>
                      <path id="Trazado_776431" data-name="Trazado 776431" d="M246.574,312.369c2.718,15.6,2.373,37.5,3.772,53.036.9,4.463,11.986,8.683,16.209,4.246.792-13.276,2.4-33.048,1.756-40.34-.535-6.07-.7-9.582-3.048-14.931.2-5.761-.107-33.448.784-44.323,3.074-6.5,9.081-17.693,2.55-29.96-5.179,1.954-17.809.86-23.08-4.035-2.442,8.136-3.807,20.245-3.482,33.395A318.52,318.52,0,0,0,246.574,312.369Z" transform="translate(-234.535 -232.74)" fill="#00314f" fill-rule="evenodd"/>
                      <path id="Trazado_776432" data-name="Trazado 776432" d="M257.906,368.549a6.8,6.8,0,0,0,4.816-1.876c.792-13.276,2.4-33.048,1.756-40.34-.535-6.07-.7-9.582-3.048-14.931.2-5.761-.107-33.448.784-44.323,2.411-5.1,6.625-13.086,5.18-22.21-3.72,4.918-9.958,8.666-13.5,12.062-.537,1.86-.684,7.089-.476,10.375.122,12.244,1.1,32.962,2.4,45.98,3.262,8.313,2.771,43.668,2.146,54.707A4.138,4.138,0,0,1,257.906,368.549Z" transform="translate(-230.702 -229.763)" fill="#003f66" fill-rule="evenodd"/>
                      <path id="Trazado_776433" data-name="Trazado 776433" d="M245.058,237.33a129.677,129.677,0,0,0-2.993,26.292c.028,18.62,2.941,39.471,4.483,48.319,2.719,15.6,2.373,37.5,3.772,53.036.447,2.216,3.407,4.373,6.791,5.438.333-13.47.381-32.445-.032-42.693-.444-11.025-1.505-7.539-2.568-12.372-.567-14.028-1.453-47.048-1.429-66.405,5.347-5.955,13.618-4.416,16.5-7.779l-16.42-.407Z" transform="translate(-234.508 -232.312)" fill="#001e30" fill-rule="evenodd"/>
                    </g>
                    <g id="Grupo_1065933" data-name="Grupo 1065933" transform="translate(10.327)">
                      <path id="Trazado_776434" data-name="Trazado 776434" d="M244.628,233.3c3.634,4.729,8.021,6.592,18.1,5.761.761-.063,3.023-.393,5.266-.86,6.226-1.8,12.137-5.488,14.15-11.171a82.422,82.422,0,0,1,.855,8.924c-2.136,6.949-25.732,15.857-38.635,5.588C244.126,240.972,244.011,235,244.628,233.3Z" transform="translate(-244.123 -227.027)" fill="#20363b" fill-rule="evenodd"/>
                      <path id="Trazado_776435" data-name="Trazado 776435" d="M244.609,231.617c3.636,4.729,8.053,6.72,18.133,5.889.761-.063,3.023-.393,5.266-.86a29.669,29.669,0,0,0,6.035-2.458l-.008.078c-5.56,4.186-13.91,5.654-21.509,4.207-2.7-.515-3.062,3.027-.737,3.915,3.4,1.3,7.848,1.509,12.156,1.186v-.009c13.139-2.061,16.586-6.912,19.039-9.7.009.178.019.359.028.538-1.746,5.68-13.054,9.339-19.15,10.193h0c-7.309,1.024-14.087.514-19.578-4.7A33.783,33.783,0,0,1,244.609,231.617Z" transform="translate(-244.135 -225.475)" fill="#0e181a" fill-rule="evenodd"/>
                      <path id="Trazado_776436" data-name="Trazado 776436" d="M280.277,227.849c-3.673,8-12.047,11.749-20.507,12.695a40.855,40.855,0,0,1-7.54.135c-2.86-.214-2.778,2.529.193,3.058a29.62,29.62,0,0,0,10.7.209c6.355-1.174,14.908-4.9,17.781-9.791C280.765,231.97,280.573,230.019,280.277,227.849Z" transform="translate(-242.106 -226.749)" fill="#325159" fill-rule="evenodd"/>
                    </g>
                  </g>
                  <g id="Grupo_1065935" data-name="Grupo 1065935" transform="translate(1.609 34.117)">
                    <path id="Trazado_776437" data-name="Trazado 776437" d="M280.131,174.19c9.989,2.567,10.516,14.689,8.676,24.988-2.038,11.4-4.978,18.422-5.555,28.647-.04.712-.074,1.43-.1,2.154-.147,4.5,2.445,19.731,3.106,25.094.051.409-1.678,5.717-8.722,10.2-10.277,6.537-30.249,5.777-31.573-4.515.795-4.666,1.345-15.085.755-18.54a168.2,168.2,0,0,0-5.137-19.074c4.593,3.593,9.6-.775,10.823-6.588,2.132-13.863-1.18-24.71-9.845-23.686a7.912,7.912,0,0,0-4.943,2.9l.016-.047c.844-2.166,2.46-3.06,4-4.56a30.164,30.164,0,0,1,3.846-3.07c3.9.036,7.924,2.331,13.359,2.637,5.973.337,17.372-3.165,17.51-10.056.043-2.2-1.374-4.274-4.675-5.692a22.684,22.684,0,0,1,3.965-1.149A11.537,11.537,0,0,1,280.131,174.19Z" transform="translate(-237.62 -173.744)" fill="#003f66" fill-rule="evenodd"/>
                    <path id="Trazado_776438" data-name="Trazado 776438" d="M282.92,179.424c2.352,5.073,2.121,12.14.982,18.511-2.455,13.743-5.69,19.426-5.481,32.554.051,3.232,2.482,18.424,3.76,23.238.106.4-2.5,5.82-9.546,10.3a30.1,30.1,0,0,1-20.506,3.745c.426-5.2.527-19.4,1.08-23.654,2.247-17.3,6.328-38.247-.876-50.113,9.131-1.125,18.311-5.176,23.066-11.174C276.363,181.613,280.325,173.829,282.92,179.424Z" transform="translate(-232.714 -172.5)" fill="#005082" fill-rule="evenodd"/>
                    <path id="Trazado_776439" data-name="Trazado 776439" d="M280.131,174.19a12.88,12.88,0,0,1,1.572.514c-2.074.589-4.435,1.362-6.915,2.291a9.736,9.736,0,0,0-3.117-2.015,22.684,22.684,0,0,1,3.965-1.149,11.537,11.537,0,0,1,4.495.36Zm-27.6,15.385q-1.821,1.606-3.572,3.451c11.018,10.456,3.333,38.937,3.331,51.1,0,3.76.3,18.434.454,23.9-1.144-.276-7.508-2.959-7.421-5.668,1.235-7.12,2.326-15.892-.127-25.017-1.322-4.915-2.708-10.285-4.23-15.069,4.592,3.593,10.222.1,11.441-5.713,2.132-13.863-1.18-24.71-9.845-23.686a7.912,7.912,0,0,0-4.943,2.9l.016-.047c.844-2.166,2.46-3.06,4-4.56a30.164,30.164,0,0,1,3.846-3.07A28.78,28.78,0,0,1,252.532,189.574Z" transform="translate(-237.62 -173.744)" fill="#00314f" fill-rule="evenodd"/>
                  </g>
                  <g id="Grupo_1065939" data-name="Grupo 1065939" transform="translate(10.099)">
                    <g id="Grupo_1065936" data-name="Grupo 1065936" transform="translate(0 16.408)">
                      <path id="Trazado_776440" data-name="Trazado 776440" d="M246.111,160.711l-2.028,1.148.236,6.094,2.725-1.33Z" transform="translate(-243.925 -160.442)" fill="#e6e6e6" fill-rule="evenodd"/>
                      <path id="Trazado_776441" data-name="Trazado 776441" d="M246.022,161.047l-1.5.85c-.215.138-.228.217-.207.562l.183,4.87c.016.341.066.426.317.281l2.084-1.017-.875-5.545Zm-1.8.628,2.057-1.164q.5,3.139.992,6.279l-2.612,1.274c-.209.126-.446.1-.476-.284-.154-1.876-.2-3.664-.218-5.547A.517.517,0,0,1,244.223,161.674Z" transform="translate(-243.965 -160.51)" fill-rule="evenodd"/>
                    </g>
                    <g id="Grupo_1065937" data-name="Grupo 1065937" transform="translate(1.189)">
                      <path id="Trazado_776442" data-name="Trazado 776442" d="M246.262,183.626c1.243.617,7.552-.278,7.368.286-.088,2.758-.893,4.456-1.183,8.136-.29,1.04,16.621,1.352,16.653-3.766-.276-3.2-.767-7.658.21-9.237,1.469-2.375,4.488-5.021,5.557-8.623,1.709-5.755,1.088-12.149-4.279-16.411-9.8-7.783-22.332-2.244-25.508,9.138-.62,2.223,1.133,3.426,1.072,5.327-.012.371-.5.759-.9,1.584C244.7,171.2,244.739,182.873,246.262,183.626Z" transform="translate(-244.829 -147.525)" fill="#e8a476" fill-rule="evenodd"/>
                      <path id="Trazado_776443" data-name="Trazado 776443" d="M246.321,183.562c1.243.616,7.488-.214,7.3.351-.091,2.826-.933,4.54-1.2,8.414-.1,1.405,1.135,1.357,1.463.876,3.416-4.99,5.94-8.062,14.847-11.147a6.516,6.516,0,0,1,.575-3.011c1.469-2.375,4.488-5.021,5.557-8.623,1.709-5.755,1.088-12.149-4.279-16.411-9.8-7.783-22.332-2.244-25.508,9.138-.62,2.223,1.133,3.426,1.072,5.327-.012.371-.5.759-.9,1.584C244.692,171.2,244.8,182.807,246.321,183.562Z" transform="translate(-244.824 -147.525)" fill="#db9669" fill-rule="evenodd"/>
                      <path id="Trazado_776444" data-name="Trazado 776444" d="M246.514,183.626c.66.355,3.384.122,5.413-.657a9.462,9.462,0,0,0,2.4-1.669c.84-.339,2.706-2.989-.186-7.207-2.819-4.113,14.255,6.414,15.16,4.952,1.469-2.374,4.488-5.021,5.557-8.623,1.709-5.755,1.088-12.149-4.279-16.411-9.8-7.783-22.332-2.244-25.508,9.138-.62,2.223,1.133,3.426,1.072,5.327-.012.371-.5.759-.9,1.584C244.691,171.2,245.017,182.823,246.514,183.626Z" transform="translate(-244.823 -147.525)" fill="#e8a476" fill-rule="evenodd"/>
                      <path id="Trazado_776445" data-name="Trazado 776445" d="M246.228,181.5a5.655,5.655,0,0,0,2.56-.157,7.285,7.285,0,0,0,1.73-3.873c-.118-3.749-2.01-6.79-2-8.307.02-3.208,1.087-1.61-.138-5.077-.939-2.66.294-3.064.835-5.347a3.619,3.619,0,0,1-2.207-2.219,18.977,18.977,0,0,0-1.93,4.551c-.62,2.223,1.133,3.426,1.072,5.327-.012.371-.5.759-.9,1.584C244.695,169.128,244.77,180.631,246.228,181.5Z" transform="translate(-244.827 -145.45)" fill="#f1b287" fill-rule="evenodd"/>
                      <path id="Trazado_776446" data-name="Trazado 776446" d="M251.365,168.356c3.511-3.273,6.9,7.139,1.25,7.029C254.82,173.051,253.145,169.356,251.365,168.356Z" transform="translate(-242.651 -141.664)" fill="#db9669" fill-rule="evenodd"/>
                      <path id="Trazado_776447" data-name="Trazado 776447" d="M251.437,169.8c-.527-1.455-.083-1.984.558-1.828a4.147,4.147,0,0,1,2.223,2.692c.839,2.433-.364,5.508-2.714,4.306,2.022.118,1.832-2.319,1.226-3.822C252.319,170.127,251.682,169.4,251.437,169.8Z" transform="translate(-242.706 -141.588)" fill="#f1b287" fill-rule="evenodd"/>
                      <path id="Trazado_776448" data-name="Trazado 776448" d="M252.235,169.824c-.565,1.052-.761,1.678-.579,2.039.127.252.516.538,1.153-.079A3.626,3.626,0,0,0,252.235,169.824Z" transform="translate(-242.575 -140.952)" fill="#db9669" fill-rule="evenodd"/>
                      <path id="Trazado_776449" data-name="Trazado 776449" d="M268.158,180.474c1.631-3.422,4.523-5.533,5.864-10.051,1.709-5.755,1.088-12.149-4.279-16.411-7.7-6.117-17.089-4.005-22.3,2.7-.28.432,2.671,1.819,1.694,3.981-1.4,3.665-1.368,5.307-.8,6.113,2.184,3.115,2.223,3.558,2.1,8.3l1.234,1c.51-3.723,2.165-3.43,3.774-2.187,2.807,2.169,3.887,7.1,8.561,8.066A4.1,4.1,0,0,0,268.158,180.474Z" transform="translate(-243.983 -147.525)" fill="#361d07" fill-rule="evenodd"/>
                      <path id="Trazado_776450" data-name="Trazado 776450" d="M251.356,168.069c-.373,2.324-.533,3.795-1.542,4.96a4.86,4.86,0,0,1-2.394.785,14.2,14.2,0,0,0-.519-2.563,4.763,4.763,0,0,0-2-2.819,2.975,2.975,0,0,0,.092,1.513,3.69,3.69,0,0,1,.769,1.754,7.553,7.553,0,0,1,.28,2.339c-.248.024-.456.067-.629.092-.09.013-.1-.662-.274-.648-.08,1.926-.108,4.5.328,4.675.559.219,3.827-.447,5.505-1.127,1.75-.709,1.235-1.093,1.4-3.159.135-1.7.13-3.632.365-5.45Z" transform="translate(-244.853 -141.546)" fill="#361d07" fill-rule="evenodd"/>
                      <path id="Trazado_776451" data-name="Trazado 776451" d="M250.413,172.03a4.126,4.126,0,0,1-.6.907,4.86,4.86,0,0,1-2.394.785,14.2,14.2,0,0,0-.519-2.563,4.763,4.763,0,0,0-2-2.819,2.975,2.975,0,0,0,.092,1.513,3.69,3.69,0,0,1,.769,1.754,7.553,7.553,0,0,1,.28,2.339c-.248.024-.456.067-.629.092-.09.013-.1-.662-.274-.648-.08,1.926-.108,4.5.328,4.675a12.3,12.3,0,0,0,4.055-.644,12.6,12.6,0,0,0,1.018-3.946A12.356,12.356,0,0,0,250.413,172.03Z" transform="translate(-244.853 -141.454)" fill="#4f2b0c" fill-rule="evenodd"/>
                      <path id="Trazado_776452" data-name="Trazado 776452" d="M266.506,164.8a15.735,15.735,0,0,1-1.247,6.533c-.256-1.651-.482-3.327-.8-4.965-.106-.55-.228-1.092-.363-1.63-.387,2.445-.668,4.918-.973,7.374-.554-2.612-1.163-5.244-1.608-7.874-.978,1.5-1.257,4.631-1.627,6.56a53.512,53.512,0,0,1-1.184-7.243c-1.05,1.064-1.345,3.891-1.637,5.444a56.251,56.251,0,0,1-1.038-6.043c-.658.965-.862,3.254-1.053,4.449a20.889,20.889,0,0,1-1.012-4.713c-1.06,1.844-1.091,3.974-1.293,6.035a26.325,26.325,0,0,1-.848-6.747,22.235,22.235,0,0,0-1.262,3.8c-.11-1.645-.258-3.312-.242-4.959a8.56,8.56,0,0,0-1.912,4.2c-.776-1.647-.407-4.895.586-7.1l.116-.258.282.019q2.5.161,4.993.316,1.644.1,3.289.2c.534.031,1.131.09,1.657.09.219-.008.492-.055.712-.084.534-.068,1.068-.142,1.6-.215q2.314-.319,4.625-.65c2.332-.333,4.546-.906,6.877-1.243,3.253,5.719.823,11.291-.474,14.081a26.623,26.623,0,0,0,.119-5.514,23.665,23.665,0,0,1-1.578,5.134,21.117,21.117,0,0,0-.365-5.179,10.211,10.211,0,0,1-1.594,6.213,18.531,18.531,0,0,0-.278-6.481,22.938,22.938,0,0,1-1.48,7.294A31.022,31.022,0,0,0,266.506,164.8Z" transform="translate(-243.792 -145.592)" fill="#54321e" fill-rule="evenodd"/>
                      <path id="Trazado_776453" data-name="Trazado 776453" d="M274.6,167.178c-1.741-1.27-5.706-2.542-13.162-3.07a28.27,28.27,0,0,1-11.881-3.224c-4.717-2.516-3.976-7.72-1.982-9.487,3.848-3.416,13.8-3.06,20.42.351C272.832,154.24,275.506,159.179,274.6,167.178Z" transform="translate(-244.456 -147.992)" fill="#361d07" fill-rule="evenodd"/>
                      <path id="Trazado_776454" data-name="Trazado 776454" d="M274.6,166.793c-1.741-1.27-5.706-2.542-13.162-3.07a28.27,28.27,0,0,1-11.881-3.224c-4.717-2.516-3.976-7.72-1.982-9.487a6.8,6.8,0,0,1,1.246-.868c1.2,8.972,5.664,6.558,14.508,9.665-1.291-1.242-.67-1.006-1.835-1.738,2.815,1.014,4.963.836,8.143,2.9-1-.925-1.26-1.481-1.9-1.963a9.971,9.971,0,0,1,6.218,4.294l.257-4.231A42.532,42.532,0,0,1,274.6,166.793Z" transform="translate(-244.456 -147.607)" fill="#241304" fill-rule="evenodd"/>
                      <path id="Trazado_776455" data-name="Trazado 776455" d="M247.111,158.94c1.453,1.823,7.7-2.39,16.442-.783-1.872-5.774-2.955-7-5.58-8.689-3.423-2.2-9.185-1.3-10.994,1.732A7.266,7.266,0,0,0,247.111,158.94Z" transform="translate(-244.487 -148.248)" fill="#4f2b0c" fill-rule="evenodd"/>
                      <path id="Trazado_776456" data-name="Trazado 776456" d="M259.367,157.226c-2.675-2.641-6.715-2.168-10.333-1.19,2.092-1.983,6.4-1.236,8.481-.162-2.809-2.609-4.673-2.509-8.207-2.059a7.672,7.672,0,0,1,7.805.531c-2.532-2.989-3.6-2.763-7.306-2.542,2.58-1.382,6.451-.9,8.03.587-1.9-2.228-3.382-2.714-6.9-2.712,3.027-.921,5.369-.828,7.87,1.754-1.958-3.455-6.113-3.471-8.841-2.394a6.645,6.645,0,0,0-4.013,5.742c-.059,2.082.8,3.388,1.4,3.521C250.177,158.937,251.6,156.624,259.367,157.226Z" transform="translate(-244.483 -148.193)" fill="#361d07" fill-rule="evenodd"/>
                    </g>
                    <g id="Grupo_1065938" data-name="Grupo 1065938" transform="translate(4.584 37.191)">
                      <path id="Trazado_776457" data-name="Trazado 776457" d="M268.015,176.041c-.257,3.589-9.36,6.574-15.961,4.15l.118-.7c-1.772.5-4.7,3.036-4.781,5.006,4.936,5.185,23.177,1.742,22.619-5.027C269.9,178.143,269.249,176.409,268.015,176.041Z" transform="translate(-247.39 -176.041)" fill="#729ec1" fill-rule="evenodd"/>
                      <path id="Trazado_776458" data-name="Trazado 776458" d="M266.077,176.041c-.219,3.067-6.9,5.694-12.957,4.879a20.527,20.527,0,0,0,7,.795c2.667-.314,3.349,2.211,1.437,3.171A24.2,24.2,0,0,1,254.09,187c6.72-.118,14.345-3.117,13.981-7.53C267.961,178.143,267.311,176.409,266.077,176.041Z" transform="translate(-245.452 -176.041)" fill="#6087a8" fill-rule="evenodd"/>
                      <path id="Trazado_776459" data-name="Trazado 776459" d="M256.934,181.115a16,16,0,0,1-5.873-1.829,7.064,7.064,0,0,0-3.382,3.869c1.659,1.744,6.388,2.232,9.87,1.619,1.766-.31,4.033-1.236,3.759-2.458C261.047,181.149,258.575,181.182,256.934,181.115Z" transform="translate(-247.292 -174.944)" fill="#8fbce0" fill-rule="evenodd"/>
                    </g>
                    <path id="Trazado_776460" data-name="Trazado 776460" d="M244.253,162.707l10.528,6.772.6.848c-.632-.542-.7-.569-1.263-.653L243.967,163.1Z" transform="translate(-243.964 -143.359)" fill-rule="evenodd"/>
                  </g>
                </g>
                <g id="Grupo_1065941" data-name="Grupo 1065941" transform="translate(9.074 34.656)">
                  <path id="Trazado_776461" data-name="Trazado 776461" d="M269.373,174.955c1.382.565,4.878,2.358,5.387,4.776,1.289,6.117-5.28,8.4-10.08,8.992a27,27,0,0,1-13.715-1.442c-1.978-.759-3.356-1.323-5.076-1.195a2.794,2.794,0,0,0-2.691,2.05c1.547-.594,4.887.114,7.075.954a28.968,28.968,0,0,0,14.642,1.564c6.083-.751,13.3-3.937,11.745-11.318-.578-2.74-2.559-4.337-5.014-5.188A4.226,4.226,0,0,0,269.373,174.955Z" transform="translate(-243.199 -174.147)" fill="#8a2b36" fill-rule="evenodd"/>
                  <path id="Trazado_776462" data-name="Trazado 776462" d="M269.373,174.955c1.382.565,4.878,2.358,5.387,4.776a5.764,5.764,0,0,1-1.283,5.294,5.7,5.7,0,0,0,.463-7.748,7.819,7.819,0,0,0-1.111-1.133c-.633-.617-.331-1.077.526-.642a4.359,4.359,0,0,1,.7.47c2.089,1.638,2.583,3.538,2.755,6.368a8.827,8.827,0,0,0-.146-3c-.578-2.74-2.559-4.337-5.014-5.188a4.226,4.226,0,0,0-2.274.807Zm-12.554,13.834a25.478,25.478,0,0,1-5.853-1.508c-1.978-.759-3.356-1.323-5.076-1.195a2.794,2.794,0,0,0-2.691,2.05c1.547-.594,4.887.114,7.075.954a27.4,27.4,0,0,0,6.463,1.643,43.043,43.043,0,0,1-6.964-2.319c-.66-.234-1.271-.459-1.907-.628-.885-.233-.909-1.159.539-.739.5.146.935.167,1.158.234C252.013,188.014,254.207,188.814,256.819,188.789Z" transform="translate(-243.199 -174.147)" fill="#541c22" fill-rule="evenodd"/>
                  <path id="Trazado_776463" data-name="Trazado 776463" d="M273.7,177.634a.485.485,0,0,0-.917.316,7.475,7.475,0,0,1-.264,4.965,6.471,6.471,0,0,1-1.58,2.166,10.255,10.255,0,0,1-2.658,1.764,21.786,21.786,0,0,1-8.16,1.534,30.79,30.79,0,0,1-9.51-1.054.486.486,0,1,0-.316.919,31.8,31.8,0,0,0,9.853,1.1,22.689,22.689,0,0,0,8.544-1.624,11.2,11.2,0,0,0,2.908-1.93,7.434,7.434,0,0,0,1.816-2.506A8.524,8.524,0,0,0,273.7,177.634Z" transform="translate(-240.91 -173.078)" fill="#a63341" fill-rule="evenodd"/>
                </g>
              </g>
              <g id="Grupo_1065945" data-name="Grupo 1065945" transform="translate(39.31 59.135)">
                <g id="Grupo_1065943" data-name="Grupo 1065943">
                  <path id="Trazado_776464" data-name="Trazado 776464" d="M238.513,212.968l-14.71-24.46c-2.939-2.532-8.549,1.157-8.327,4.356l9.418,22.723c1.389,3.273,3.377,9.324,5.7,11.8,2.035,2.169,4.229,3.125,6.106,2.984C245.762,229.7,240.866,217.628,238.513,212.968Z" transform="translate(-215.218 -187.666)" fill="#729ec1" fill-rule="evenodd"/>
                  <path id="Trazado_776465" data-name="Trazado 776465" d="M217.042,189.2a6.6,6.6,0,0,0-1.756,3.939l9.123,22.132a88.892,88.892,0,0,0,3.434,8.595c1.956,3.938,3.893,6.214,5.979,6.655a9.237,9.237,0,0,0,5.469-.624,6.982,6.982,0,0,1-5.861-4.131C228.111,214.944,219.025,193.636,217.042,189.2Z" transform="translate(-215.282 -187.149)" fill="#6087a8" fill-rule="evenodd"/>
                  <path id="Trazado_776466" data-name="Trazado 776466" d="M239.979,226.5c1.166-5.749-.624-9.411-2.5-13.4L222.76,188.489a4.2,4.2,0,0,0-4.206-.408l13.376,28.865C232.5,218.271,239.291,229.929,239.979,226.5Z" transform="translate(-214.175 -187.648)" fill="#8fbce0" fill-rule="evenodd"/>
                </g>
                <g id="Grupo_1065944" data-name="Grupo 1065944" transform="translate(14.393 0.304)">
                  <path id="Trazado_776467" data-name="Trazado 776467" d="M244.589,189.65c-6.052,5.062-11.092,16-16.327,26.816-3.811,7.874-2.176,12.16.8,14.286,3.147,2.247,7.069,1.39,12.572-6.494a72.54,72.54,0,0,0,6.256-10.357c3.03-6.115,8.979-18.019,4.617-23.768C250.309,187.234,247.07,187.576,244.589,189.65Z" transform="translate(-226.038 -187.849)" fill="#729ec1" fill-rule="evenodd"/>
                  <path id="Trazado_776468" data-name="Trazado 776468" d="M242.116,189.5c-6.052,5.061-8.62,16.2-13.854,27.014-3.811,7.874-2.176,12.16.8,14.286.66-13.128,16.667-38.16,23.444-40.773C250.308,187.123,244.6,187.422,242.116,189.5Z" transform="translate(-226.038 -187.894)" fill="#6087a8" fill-rule="evenodd"/>
                  <path id="Trazado_776469" data-name="Trazado 776469" d="M250.871,190.678c-8.978,11.888-18.092,21.359-21.342,36.146-.872,3.974,2.433,3.7,4.36,1.942C242.71,220.7,253.469,197.476,250.871,190.678Z" transform="translate(-224.906 -186.952)" fill="#8fbce0" fill-rule="evenodd"/>
                </g>
              </g>
            </g>
          </g>
        </g>
      </g>
    </g>
  </g>
</svg>
