<svg xmlns="http://www.w3.org/2000/svg" xmlns:xlink="http://www.w3.org/1999/xlink" width="444" height="333" viewBox="0 0 444 333">
  <defs>
    <clipPath id="clip-path">
      <rect id="Rectángulo_374146" data-name="Rectángulo 374146" width="412.807" height="180.394" fill="none"/>
    </clipPath>
  </defs>
  <g id="Grupo_1066303" data-name="Grupo 1066303" transform="translate(7265 10155)">
    <g id="Grupo_1066290" data-name="Grupo 1066290">
      <path id="Figura_11_Puntada_punto_posterior_maquina" data-name="Figura 11_Puntada_punto_posterior_maquina" d="M20,0H424a20,20,0,0,1,20,20V333a0,0,0,0,1,0,0H0a0,0,0,0,1,0,0V20A20,20,0,0,1,20,0Z" transform="translate(-7265 -10155)" fill="#fff"/>
      <g id="Grupo_1066190" data-name="Grupo 1066190" transform="translate(-7250.403 -10086.197)">
        <g id="Grupo_1066172" data-name="Grupo 1066172" clip-path="url(#clip-path)">
          <path id="Trazado_777232" data-name="Trazado 777232" d="M384.792,48.17c-2.434,18.081,1.228,36.346,2.649,54.534s.192,37.76-10.514,52.534c-5.785,7.983-13.9,13.931-22.081,19.44-9.847,6.635-20.081,12.884-31.272,16.85-11.866,4.205-24.522,5.738-37.1,6.254-27.706,1.138-55.378-2.512-82.754-6.926-59.355-9.569-118.391-22.8-178.468-25.1-8.311-.319-18.077-1.22-22.369-8.345C.84,154.017.554,149.883.429,145.926a220.729,220.729,0,0,1,19.86-98.518" transform="translate(-0.119 -17.599)" fill="#ffdacf"/>
          <path id="Trazado_777233" data-name="Trazado 777233" d="M258.087,113.758a49.287,49.287,0,0,1-14.2-2.394c-5.534-1.718-19.879-2.44-34.339-2.708-15.977.2-32.413.113-37.955.076l-.031-3.784c1.348-.031,19.409-.426,37.6-.091,17.347-.209,32.42-.685,34.556-1.574,4.874-2.031,17.989-1.818,22.869,1.059a4.285,4.285,0,0,1,2.377,3.194,4.353,4.353,0,0,1-1.7,3.9c-1.876,1.549-5.135,2.323-9.187,2.323m-15-6.5c.716.156,1.359.321,1.922.5,10.419,3.234,17.881,2.4,19.852.767.3-.246.346-.4.349-.5-.387-.558-2.877-1.765-8.488-2.182-4.637-.345-9.385.043-11.545.943a9.946,9.946,0,0,1-2.089.479" transform="translate(-63.69 -37.843)"/>
          <path id="Trazado_777234" data-name="Trazado 777234" d="M461.86,101.915H449.484a1.387,1.387,0,1,1,0-2.774H461.86a1.387,1.387,0,1,1,0,2.774m-33.187,0H414.8a1.387,1.387,0,1,1,0-2.774h13.874a1.387,1.387,0,1,1,0,2.774m-34.685,0H380.114a1.387,1.387,0,1,1,0-2.774h13.874a1.387,1.387,0,1,1,0,2.774m-34.686,0H345.428a1.387,1.387,0,1,1,0-2.774H359.3a1.387,1.387,0,1,1,0,2.774m-34.685,0H310.743a1.387,1.387,0,1,1,0-2.774h13.874a1.387,1.387,0,1,1,0,2.774m-34.686,0H276.057a1.387,1.387,0,0,1,0-2.774h13.874a1.387,1.387,0,1,1,0,2.774m-34.685,0H241.372a1.387,1.387,0,0,1,0-2.774h13.874a1.387,1.387,0,1,1,0,2.774" transform="translate(-89.088 -36.804)" fill="#45d3ff"/>
          <line id="Línea_387" data-name="Línea 387" x2="23.874" transform="translate(19.139 67.15)"/>
          <path id="Trazado_777235" data-name="Trazado 777235" d="M30.438,105.009c2.866-.569,6.051-1.023,8.952-1.421,1.777-.186,4.237-.473,5.969-.817a12.9,12.9,0,0,1,8.952,2.238v.5a13.755,13.755,0,0,1-5.968,2.263c-2.006.363-3.991-.289-5.969-.5l-2.984-.34c-2.9-.4-6.082-.851-8.952-1.42v-.5" transform="translate(-11.299 -38.11)"/>
          <line id="Línea_388" data-name="Línea 388" x2="25.366" transform="translate(63.902 68.642)"/>
          <rect id="Rectángulo_374145" data-name="Rectángulo 374145" width="25.366" height="5.03" transform="translate(63.902 66.126)"/>
          <path id="Trazado_777236" data-name="Trazado 777236" d="M303.96,102.5a12.112,12.112,0,0,0,4.806,6.364,11.936,11.936,0,0,0,7.03,1.891c5.73-.436,10.362-5.042,13.712-9.334,3.146-4.032,5.664-8.49,8.52-12.721,2.712-4.019,5.841-7.956,10.125-10.382,5.937-3.363,13.365-2.5,19.087-6.356,1-.675.058-2.309-.953-1.629-5.045,3.4-11.532,2.992-17.013,5.332-4.356,1.861-7.764,5.2-10.606,8.91-3,3.923-5.429,8.242-8.2,12.323-2.79,4.113-6.1,8.357-10.59,10.7a9.791,9.791,0,0,1-14.1-5.6c-.4-1.136-2.225-.646-1.819.5" transform="translate(-112.816 -26.051)" fill="#45d3ff"/>
          <path id="Trazado_777237" data-name="Trazado 777237" d="M2.725,48.774q39.47-2.13,79-2.958c25.969-.577,51.945-.8,77.921-.812,26.148-.011,52.3.191,78.442.452,26.477.264,52.954.587,79.432.821q41,.361,82.014.3,5.272-.016,10.545-.043c3.641-.018,3.648-5.677,0-5.659q-41.212.21-82.424-.174c-26.563-.209-53.126-.526-79.689-.8-26.182-.274-52.364-.509-78.547-.548-25.958-.04-51.918.114-77.872.6q-39.413.744-78.794,2.64-5.012.249-10.023.52c-3.622.2-3.645,5.856,0,5.659" transform="translate(0 -14.606)"/>
          <path id="Trazado_777238" data-name="Trazado 777238" d="M203.011,61.883c-.718-12.412-1.3-25.484,5.077-36.658,5.06-8.864,13.466-15.582,22.847-19.432A51.818,51.818,0,0,1,245.786,2.1c5.631-.52,12.033-.494,16.986,2.592,4.642,2.893,7.264,8.1,8.625,13.233a44.1,44.1,0,0,1,.773,18.222,46.841,46.841,0,0,1-2.459,9.16c-1.007,2.641-2.381,5.116-3.437,7.737-1.94,4.813-3.5,10.391-2.5,15.6a11.733,11.733,0,0,0,1.179,3.33c.572,1.071,2.2.119,1.629-.952A13.214,13.214,0,0,1,265.45,63.6a33.378,33.378,0,0,1,1.933-8.184c.947-2.664,2.274-5.131,3.383-7.724a47.759,47.759,0,0,0,2.94-28.176c-1.1-5.384-3.379-10.895-7.553-14.624C261.5.729,255.191-.132,249.16.015a52.8,52.8,0,0,0-15.546,2.772A50.193,50.193,0,0,0,208.472,21.1a41.275,41.275,0,0,0-6.54,15.209c-1.412,6.718-1.4,13.63-1.082,20.456.079,1.706.176,3.412.275,5.118.07,1.207,1.957,1.215,1.886,0" transform="translate(-74.496 0)" fill="#45d3ff"/>
          <path id="Trazado_777239" data-name="Trazado 777239" d="M525.677,142.893a1.258,1.258,0,0,1-1.258-1.258V61a1.258,1.258,0,1,1,2.515,0v80.635a1.258,1.258,0,0,1-1.258,1.258" transform="translate(-194.677 -22.178)"/>
          <path id="Trazado_777240" data-name="Trazado 777240" d="M528.474,58.948l-5.016-8.687-5.016,8.687Z" transform="translate(-192.459 -18.658)"/>
          <path id="Trazado_777241" data-name="Trazado 777241" d="M424.924,142.893a1.258,1.258,0,0,1-1.258-1.258V61a1.258,1.258,0,1,1,2.515,0v80.635a1.258,1.258,0,0,1-1.258,1.258" transform="translate(-157.275 -22.178)"/>
          <path id="Trazado_777242" data-name="Trazado 777242" d="M427.722,58.948l-5.016-8.687-5.016,8.687Z" transform="translate(-155.057 -18.658)"/>
          <path id="Trazado_777243" data-name="Trazado 777243" d="M220.569,142.893a1.258,1.258,0,0,1-1.258-1.258V61a1.258,1.258,0,1,1,2.515,0v80.635a1.258,1.258,0,0,1-1.258,1.258" transform="translate(-81.414 -22.178)"/>
          <path id="Trazado_777244" data-name="Trazado 777244" d="M223.366,58.948l-5.016-8.687-5.016,8.687Z" transform="translate(-79.195 -18.658)"/>
          <path id="Trazado_777245" data-name="Trazado 777245" d="M119.816,142.893a1.258,1.258,0,0,1-1.258-1.258V61a1.258,1.258,0,1,1,2.515,0v80.635a1.258,1.258,0,0,1-1.258,1.258" transform="translate(-44.012 -22.178)"/>
          <path id="Trazado_777246" data-name="Trazado 777246" d="M122.614,58.948,117.6,50.261l-5.016,8.687Z" transform="translate(-41.793 -18.658)"/>
        </g>
      </g>
    </g>
  </g>
</svg>
