<svg xmlns="http://www.w3.org/2000/svg" xmlns:xlink="http://www.w3.org/1999/xlink" width="444" height="343" viewBox="0 0 444 343">
  <defs>
    <clipPath id="clip-path">
      <rect id="Rect치ngulo_374167" data-name="Rect치ngulo 374167" width="360.625" height="241.084" fill="none"/>
    </clipPath>
  </defs>
  <g id="Grupo_1066283" data-name="Grupo 1066283" transform="translate(7265 8647)">
    <path id="Rect치ngulo_373926" data-name="Rect치ngulo 373926" d="M20,0H424a20,20,0,0,1,20,20V343a0,0,0,0,1,0,0H0a0,0,0,0,1,0,0V20A20,20,0,0,1,20,0Z" transform="translate(-7265 -8647)" fill="#fff"/>
    <g id="Grupo_1066225" data-name="Grupo 1066225" transform="translate(-7243.236 -8549.757) rotate(-14)">
      <g id="Grupo_1066220" data-name="Grupo 1066220" clip-path="url(#clip-path)">
        <path id="Trazado_777392" data-name="Trazado 777392" d="M315.689,150.028c-2.081-15.984-7.794-31.939-18.84-43.678-13.369-14.21-32.9-20.739-51.926-25.043s-38.741-7.016-56.215-15.693c-11.3-5.612-21.3-13.554-32.483-19.4C140.22,37.848,122.252,34.008,104.381,31.4a325.706,325.706,0,0,0-56.6-3.655c-10.513.311-21.72,1.618-31.056,6.008a189.015,189.015,0,0,1-3.812,35.3C6.134,103.555-3.108,171.327,15.375,178.1s31.1-41.077,32.038-41.279c12.418-2.67,41.228,10.744,41.228,10.744s64.7,25.562,89.96,27.41,86.446,26,106.125,18.976c25.475-9.1,22.984-10.728,31.719-13.121a170.259,170.259,0,0,0-.757-30.806" transform="translate(-2.255 -13.819)" fill="#f7d6cd"/>
        <path id="Trazado_777393" data-name="Trazado 777393" d="M324.446,359.46c.1-.164-.1-.452,0-.616,12.265-20.149,10.11-46.3,7.907-69.784-11.056,1.579-6.564,1.74-36.752,12.761C256.787,315.991,76.323,247,58.288,246.1c-.553-.028-13.554,48.057-32.038,41.279,0,0,38.815,16.019,102.89,23.413,51.293,5.918,157.98,37.253,195.306,48.672" transform="translate(-13.129 -123.09)" fill="#da8666"/>
        <path id="Trazado_777394" data-name="Trazado 777394" d="M494.7,356.162a2.249,2.249,0,0,1-.346-4.471l69.008-10.845a2.241,2.241,0,0,1,1.081-1.351,154.422,154.422,0,0,1,15.28-7.135c11.516-4.579,19.2-5.639,23.493-3.241a7.265,7.265,0,0,1,3.706,6.373A8.9,8.9,0,0,1,603.746,343c-8.481,7.2-32.011,2.66-36.305,1.757L495.05,356.134a2.222,2.222,0,0,1-.352.028m76.737-15.222c8.66,1.5,24.166,3.072,29.4-1.371a4.383,4.383,0,0,0,1.592-3.848,2.824,2.824,0,0,0-1.407-2.676c-4.765-2.665-19.073,2.73-29.585,7.894" transform="translate(-246.31 -163.993)"/>
        <path id="Trazado_777395" data-name="Trazado 777395" d="M370.089,382.869,267.725,399.31l101.554-20.866a2.249,2.249,0,1,1,.81,4.425" transform="translate(-133.908 -189.266)"/>
        <path id="Trazado_777396" data-name="Trazado 777396" d="M328.972,403.23a2.25,2.25,0,0,1-.68-.105c-1.378-.437-138.535-43.763-201.662-51.047-63.65-7.344-103.1-23.406-103.491-23.567a2.25,2.25,0,0,1,1.716-4.159c.386.159,39.314,15.991,102.29,23.257,63.555,7.333,201.123,50.789,202.5,51.227a2.25,2.25,0,0,1-.679,4.394" transform="translate(-10.878 -162.146)"/>
        <path id="Trazado_777397" data-name="Trazado 777397" d="M319.782,304.117c-24.506,0-68.57-9.382-125.142-26.7-59.655-18.262-106.675-31.274-107.143-31.4a2.249,2.249,0,0,1,1.2-4.337c.468.13,47.545,13.158,107.262,31.439,59.648,18.26,105.1,27.635,127.986,26.4a2.249,2.249,0,1,1,.243,4.491q-2.083.113-4.4.113" transform="translate(-42.938 -120.839)"/>
        <path id="Trazado_777398" data-name="Trazado 777398" d="M16.818,167.212a12.894,12.894,0,0,1-4.472-.815C3.086,163-.9,147.848.168,120.07,1.162,94.153,6.29,65.791,8.449,54.8c6.583-33.513,2.523-51.863,2.481-52.044a2.249,2.249,0,0,1,4.381-1.02c.181.774,4.345,19.351-2.447,53.93-2.139,10.887-7.219,38.975-8.2,64.575-.94,24.512,2.339,39.4,9.231,41.931,2.951,1.082,5.926.533,9.093-1.68,10.758-7.515,18.716-30.515,19.848-36.123-2.073-.872-6.442-2.105-9.679,1.13-6.785,6.786-9.789,14.493-9.185,23.561a2.249,2.249,0,1,1-4.489.3c-.7-10.439,2.737-19.284,10.493-27.041a11.835,11.835,0,0,1,10.886-3.186,17.752,17.752,0,0,1,5.441,1.936l.4.237.274.376c.464.639,1.551,2.137-3.091,14.252-1.828,4.77-5.7,13.834-11.067,20.943-3.775,5-9.363,10.332-16,10.332" transform="translate(0 0)"/>
        <path id="Trazado_777399" data-name="Trazado 777399" d="M317.62,309.233q.809-1.346,1.708-2.634.415-.594.846-1.176.247-.334.5-.664c.04-.053.281-.364.108-.141s.188-.239.228-.289c1.429-1.807,2.952-3.539,4.528-5.22,3.57-3.808,7.4-7.364,11.3-10.833,2.421-2.155,4.873-4.275,7.333-6.384a2.261,2.261,0,0,0,0-3.181,2.307,2.307,0,0,0-3.181,0C333,285.558,324.8,292.476,318.181,300.7a56.193,56.193,0,0,0-4.445,6.259,2.249,2.249,0,0,0,3.884,2.27" transform="translate(-156.773 -139.085)" fill="#45d3ff"/>
        <path id="Trazado_777400" data-name="Trazado 777400" d="M402.866,331.459q.781-1.3,1.681-2.517c.081-.11.5-.667.219-.3.135-.174.273-.347.411-.519q.505-.628,1.032-1.236c1.309-1.514,2.709-2.948,4.128-4.359a110.085,110.085,0,0,0,8.355-8.728,34.021,34.021,0,0,0,3.958-5.953,2.25,2.25,0,0,0-3.884-2.271,28.03,28.03,0,0,1-1.5,2.614q-.383.591-.793,1.164-.219.306-.444.607l-.169.225c-.378.5.283-.35-.109.139-1.246,1.552-2.582,3.021-3.973,4.444-2.824,2.89-5.827,5.61-8.5,8.65a40.476,40.476,0,0,0-4.3,5.768,2.249,2.249,0,0,0,3.884,2.27" transform="translate(-199.41 -152.297)" fill="#45d3ff"/>
        <path id="Trazado_777401" data-name="Trazado 777401" d="M273.822,259.026c-3.372,3.966-7.079,7.654-10.723,11.367-4.215,4.293-8.464,8.556-12.544,12.978-1.812,1.964-3.605,3.958-5.242,6.073a2.312,2.312,0,0,0,0,3.181,2.272,2.272,0,0,0,3.181,0,141.293,141.293,0,0,1,10.465-11.575c4.189-4.323,8.453-8.572,12.616-12.919,1.852-1.934,3.693-3.883,5.428-5.923a2.249,2.249,0,0,0-3.181-3.181" transform="translate(-122.379 -129.233)" fill="#45d3ff"/>
        <path id="Trazado_777402" data-name="Trazado 777402" d="M206.052,245.914c-7.184,7.885-14.639,15.526-22.025,23.221q-2.7,2.812-5.393,5.629a2.249,2.249,0,0,0,3.181,3.181c7.365-7.719,14.8-15.374,22.111-23.141,1.781-1.891,3.557-3.788,5.307-5.709a2.249,2.249,0,0,0-3.181-3.181" transform="translate(-89.024 -122.676)" fill="#45d3ff"/>
        <path id="Trazado_777403" data-name="Trazado 777403" d="M145.784,234.442c-3.452,3.458-6.667,7.155-9.833,10.873-3.294,3.869-6.515,7.8-9.711,11.75q-2.114,2.614-4.219,5.236a2.305,2.305,0,0,0,0,3.181,2.274,2.274,0,0,0,3.181,0c6.035-7.5,12.053-15.018,18.464-22.2,1.721-1.928,3.472-3.831,5.3-5.661a2.249,2.249,0,0,0-3.181-3.181" transform="translate(-60.712 -116.939)" fill="#45d3ff"/>
        <path id="Trazado_777404" data-name="Trazado 777404" d="M555.6,277.548a1.748,1.748,0,0,1-1.742-1.615c-2.511-32.64-12.535-54-30.645-65.3-15.659-9.768-34.626-10.339-51.165-10.112-27.064.376-43.761,5.686-49.628,15.783-4,6.882-2.927,15.992,3.188,27.074a1.749,1.749,0,0,1-3.063,1.689c-6.655-12.061-7.744-22.616-3.15-30.522,6.527-11.234,24.226-17.13,52.6-17.524,17.045-.234,36.6.371,53.065,10.641,19.12,11.928,29.68,34.17,32.281,68a1.749,1.749,0,0,1-1.61,1.878c-.045,0-.091.006-.136.006" transform="translate(-208.372 -98.528)" fill="#45d3ff"/>
        <path id="Trazado_777405" data-name="Trazado 777405" d="M126.939,233.73q2.419,1.592,4.775,3.277,1.2.858,2.379,1.741.549.409,1.093.825l.251.191.189.145.106.081.332.259q4.606,3.6,8.915,7.555a146.431,146.431,0,0,1,15.755,16.954q.262.331.521.662l.194.248c-.01-.012.355.46.211.272s.072.094.081.106l.32.418q.223.293.445.587.982,1.3,1.935,2.629,1.936,2.695,3.747,5.475a2.25,2.25,0,1,0,3.884-2.271,149.635,149.635,0,0,0-14.63-18.935,146.435,146.435,0,0,0-17.2-16.1q-5.338-4.243-11.03-8.006a2.266,2.266,0,0,0-3.077.807,2.3,2.3,0,0,0,.807,3.077" transform="translate(-62.943 -114.808)" fill="#45d3ff"/>
        <path id="Trazado_777406" data-name="Trazado 777406" d="M213.467,249.309q6.543,5.835,12.665,12.125c2.628,2.691,5.2,5.44,7.676,8.267q1.928,2.2,3.777,4.461.868,1.066,1.714,2.15l.223.287c-.263-.338-.062-.081-.01-.012l.438.574q.433.571.858,1.148a66.583,66.583,0,0,1,6.141,9.792,2.2,2.2,0,0,0,2.99.784,2.24,2.24,0,0,0,.784-2.99c-3.255-6.556-7.915-12.425-12.665-17.951s-9.841-10.764-15.1-15.8q-3.148-3.014-6.4-5.922a2.186,2.186,0,0,0-3.091,3.091" transform="translate(-106.456 -122.838)" fill="#45d3ff"/>
        <path id="Trazado_777407" data-name="Trazado 777407" d="M273.3,259.276q1.119.692,2.2,1.447.553.388,1.1.791.275.2.547.411l.234.179c-.253-.2-.044-.033.091.073,1.5,1.178,2.938,2.424,4.339,3.711,2.958,2.715,5.743,5.613,8.449,8.576,2.633,2.882,5.188,5.834,7.748,8.78,1.231,1.417,2.492,2.81,3.69,4.254q.447.539.881,1.089c.06.076.454.589.243.31.173.229.347.458.518.689q.9,1.212,1.734,2.469a59.5,59.5,0,0,1,3.479,5.949q.758,1.488,1.432,3.017.086.2.172.395c.016.035.179.422.1.227-.1-.233.073.179.093.229l.162.4q.341.85.656,1.71a2.25,2.25,0,0,0,4.338-1.2,62.636,62.636,0,0,0-5.613-11.553,77.9,77.9,0,0,0-7.559-9.852c-5.284-6.061-10.492-12.219-16.347-17.746a65.878,65.878,0,0,0-10.411-8.245,2.271,2.271,0,0,0-3.077.807,2.3,2.3,0,0,0,.807,3.077" transform="translate(-136.148 -127.589)" fill="#45d3ff"/>
      </g>
    </g>
  </g>
</svg>
