<svg xmlns="http://www.w3.org/2000/svg" xmlns:xlink="http://www.w3.org/1999/xlink" width="444" height="333" viewBox="0 0 444 333">
  <defs>
    <clipPath id="clip-path">
      <rect id="Rectángulo_374143" data-name="Rectángulo 374143" width="397" height="175" transform="translate(-0.175 0.353)" fill="none"/>
    </clipPath>
  </defs>
  <g id="Grupo_1066302" data-name="Grupo 1066302" transform="translate(-316 -1597)">
    <path id="Figura_10_Puntada_pespunte_continua" data-name="Figura 10_Puntada_pespunte_continua" d="M20,0H424a20,20,0,0,1,20,20V333a0,0,0,0,1,0,0H0a0,0,0,0,1,0,0V20A20,20,0,0,1,20,0Z" transform="translate(316 1597)" fill="#fff"/>
    <g id="Grupo_1066168" data-name="Grupo 1066168" transform="translate(340.281 1688.792)">
      <g id="Grupo_1066167" data-name="Grupo 1066167" transform="translate(-0.106 -0.145)" clip-path="url(#clip-path)">
        <path id="Trazado_777211" data-name="Trazado 777211" d="M233.648,66.517C290.482,59.15,330.476,33.891,368.892,28.1c5.74-.865,10.806-1.635,15.279-2.321.317-4.525.511-9.044.435-13.223-4.578.7-9.788,1.495-15.715,2.388-38.416,5.789-78.41,31.048-135.244,38.415S153.659,48.625,96.3,34.943c-22.029-5.255-37.92-8.179-49.147-9.79a113.911,113.911,0,0,1,3.17,13.627c10.99,1.689,25.946,4.54,45.977,9.318,57.36,13.682,80.515,25.786,137.349,18.419" transform="translate(-21.114 -5.5)" fill="#ff8569"/>
        <path id="Trazado_777212" data-name="Trazado 777212" d="M386.767,36.607c-4.473.686-9.538,1.456-15.279,2.321-38.415,5.789-78.41,31.049-135.244,38.416S156.255,72.607,98.895,58.925C78.863,54.147,63.907,51.3,52.918,49.607c4.735,27.444,1.769,59.663,2.3,85.1.526,25.26,20.542,35.832,27.891,38.942,48.979,20.727,111.149,17.193,163.3,6.762,20.5-4.1,40.637-10.627,61.5-11.964,14.077-.9,28.305.577,42.26-1.486s28.291-8.529,35.036-20.918c4.076-7.488,4.941-16.31,4.735-24.833-.5-20.562-6.73-40.868-5.241-61.382.455-6.266,1.473-14.748,2.067-23.219" transform="translate(-23.71 -16.327)" fill="#ffdacf"/>
        <path id="Trazado_777213" data-name="Trazado 777213" d="M180.519,75.793c-26.812,0-46.962-5.359-73.819-12.5-9.422-2.506-20.1-5.346-32.075-8.2C18.263,41.645,2.332,43.526,2.18,43.548a1.925,1.925,0,1,1-.509-3.815c.659-.089,16.8-2,73.848,11.613,12.021,2.867,22.726,5.714,32.171,8.226,36.077,9.594,59.911,15.933,104.484,10.155,31.63-4.1,58.358-13.907,81.94-22.56,18.606-6.827,36.18-13.276,53.266-15.85,37.886-5.709,46.684-7.34,46.768-7.356a1.924,1.924,0,0,1,.709,3.783c-.084.016-8.893,1.652-46.9,7.379-16.7,2.516-34.1,8.9-52.513,15.657-23.771,8.722-50.714,18.608-82.77,22.763a249,249,0,0,1-32.15,2.249" transform="translate(0.113 -10.619)"/>
        <path id="Trazado_777214" data-name="Trazado 777214" d="M180.523,51.865c-26.812,0-46.962-5.359-73.819-12.5-9.422-2.506-20.1-5.346-32.075-8.2C18.633,17.8,2.333,19.6,2.174,19.621a1.924,1.924,0,0,1-.5-3.816c.661-.088,16.8-2,73.848,11.613,12.021,2.867,22.726,5.714,32.171,8.226C143.77,45.239,167.6,51.578,212.177,45.8c31.63-4.1,58.358-13.907,81.94-22.56,18.606-6.827,36.18-13.276,53.266-15.85C385.268,1.681,394.066.049,394.15.034a1.924,1.924,0,0,1,.709,3.783c-.085.016-8.893,1.652-46.9,7.379-16.7,2.516-34.1,8.9-52.513,15.657-23.771,8.722-50.714,18.608-82.77,22.763a249,249,0,0,1-32.15,2.249" transform="translate(0.109 0.153)"/>
        <path id="Trazado_777215" data-name="Trazado 777215" d="M670.417,75.6a2.2,2.2,0,0,1-.358-4.369c3.507-.583,5.453-.881,5.453-.881a2.2,2.2,0,1,1,.667,4.347c-.008,0-1.934.3-5.4.873a2.217,2.217,0,0,1-.363.03" transform="translate(-300.702 -31.506)" fill="#45d3ff"/>
        <path id="Trazado_777216" data-name="Trazado 777216" d="M423.007,111.258a2.2,2.2,0,0,1-.758-4.264c3.522-1.292,7.254-2.6,11.093-3.876a2.2,2.2,0,0,1,1.391,4.173c-3.8,1.266-7.487,2.555-10.969,3.832a2.194,2.194,0,0,1-.758.135m22.16-7.412a2.2,2.2,0,0,1-.644-4.3c3.616-1.11,7.4-2.227,11.249-3.324a2.2,2.2,0,0,1,1.2,4.231c-3.82,1.088-7.576,2.2-11.163,3.3a2.2,2.2,0,0,1-.646.1m22.475-6.415a2.2,2.2,0,0,1-.564-4.325c3.683-.98,7.5-1.966,11.344-2.927a2.2,2.2,0,0,1,1.067,4.267c-3.822.957-7.617,1.936-11.279,2.911a2.2,2.2,0,0,1-.568.074m22.667-5.679a2.2,2.2,0,0,1-.5-4.34c3.727-.88,7.568-1.762,11.415-2.62a2.2,2.2,0,1,1,.959,4.292c-3.83.856-7.653,1.733-11.363,2.609a2.2,2.2,0,0,1-.507.059m22.808-5.1a2.2,2.2,0,0,1-.453-4.352c3.771-.8,7.629-1.592,11.47-2.362A2.2,2.2,0,1,1,525,84.255c-3.825.767-7.669,1.559-11.424,2.353a2.171,2.171,0,0,1-.457.048m22.918-4.6a2.2,2.2,0,0,1-.407-4.36c3.854-.732,7.729-1.447,11.519-2.125a2.2,2.2,0,1,1,.775,4.33c-3.775.675-7.635,1.387-11.474,2.116a2.205,2.205,0,0,1-.413.039" transform="translate(-189.323 -33.853)" fill="#45d3ff"/>
        <path id="Trazado_777217" data-name="Trazado 777217" d="M394.114,146.67a2.2,2.2,0,0,1-.881-4.216c1.647-.719,3.364-1.445,5.1-2.159a2.2,2.2,0,0,1,1.67,4.07c-1.711.7-3.4,1.415-5.013,2.121a2.191,2.191,0,0,1-.879.184" transform="translate(-176.316 -62.93)" fill="#45d3ff"/>
        <path id="Trazado_777218" data-name="Trazado 777218" d="M199.964,151.33l-97.881-2.4,97.881-2.4a2.4,2.4,0,1,1,0,4.792" transform="translate(-45.842 -65.815)"/>
        <path id="Trazado_777219" data-name="Trazado 777219" d="M521.823,229.076a2.2,2.2,0,0,1-2.192-2.044c-1.516-21.4-9.106-78.512-25.8-85.747-3.675-1.591-7.662-.579-12.19,3.1a2.2,2.2,0,1,1-2.774-3.414c5.839-4.745,11.462-6,16.713-3.721,9.655,4.184,17.372,20.638,22.938,48.9a377.922,377.922,0,0,1,5.5,40.567,2.2,2.2,0,0,1-2.039,2.349c-.053,0-.105.006-.157.006" transform="translate(-215.094 -61.137)" fill="#45d3ff"/>
        <path id="Trazado_777220" data-name="Trazado 777220" d="M426.249,155.231a57.274,57.274,0,0,1-16.5-2.783,82.236,82.236,0,0,0-19.178-3.11c-7.132.178-13.563.076-14.943.051L375.491,145a122.014,122.014,0,0,1,15.316-.069c8.267-.219,16.111-.776,18.748-1.874,5.667-2.361,20.911-2.112,26.581,1.232A4.981,4.981,0,0,1,438.9,148a5.057,5.057,0,0,1-1.972,4.531c-2.181,1.8-5.968,2.7-10.678,2.7m-16.982-7.506q.9.247,1.785.522c12.109,3.758,20.783,2.784,23.074.891.346-.285.4-.47.4-.582-.449-.648-3.343-2.052-9.867-2.537-5.389-.4-10.908.05-13.418,1.1a13.086,13.086,0,0,1-1.979.609" transform="translate(-168.923 -63.545)"/>
        <path id="Trazado_777221" data-name="Trazado 777221" d="M362.142,243.241a27.841,27.841,0,0,1-7.841-1.112c-11.362-3.317-20.7-14.115-27.755-32.1-16.582-42.259-4.923-57.828-4.418-58.47a2.2,2.2,0,1,1,3.459,2.717c-.092.124-10.46,14.61,5.054,54.146,6.532,16.647,14.907,26.565,24.893,29.48,8.852,2.585,19.006-.226,30.179-8.353,13.491-9.811,16.076-58.631,15.935-76.613a2.2,2.2,0,0,1,2.181-2.217h.019a2.2,2.2,0,0,1,2.2,2.182c.022,2.732.327,67.062-17.746,80.206-9.268,6.741-18.033,10.13-26.157,10.13" transform="translate(-142.897 -67.699)" fill="#45d3ff"/>
      </g>
    </g>
  </g>
</svg>
