<svg xmlns="http://www.w3.org/2000/svg" xmlns:xlink="http://www.w3.org/1999/xlink" width="444" height="333" viewBox="0 0 444 333">
  <defs>
    <clipPath id="clip-path">
      <rect id="Rectángulo_374144" data-name="Rectángulo 374144" width="390.278" height="190.471" fill="none"/>
    </clipPath>
  </defs>
  <g id="Grupo_1066303" data-name="Grupo 1066303" transform="translate(-841 -1597)">
    <path id="Figura_11_Puntada_punto_posterior_maquina" data-name="Figura 11_Puntada_punto_posterior_maquina" d="M20,0H424a20,20,0,0,1,20,20V333a0,0,0,0,1,0,0H0a0,0,0,0,1,0,0V20A20,20,0,0,1,20,0Z" transform="translate(841 1597)" fill="#fff"/>
    <g id="Grupo_1066171" data-name="Grupo 1066171" transform="translate(867.723 1668.265)">
      <path id="Trazado_777222" data-name="Trazado 777222" d="M0,39.225l92.1,2.6.025-4.083Z" transform="translate(0 -15.728)"/>
      <g id="Grupo_1066170" data-name="Grupo 1066170">
        <g id="Grupo_1066169" data-name="Grupo 1066169" clip-path="url(#clip-path)">
          <path id="Trazado_777223" data-name="Trazado 777223" d="M256.5,100.662a113.367,113.367,0,0,1-38.723-7.407c-16.325-6.064-28.392-19.976-34.9-40.233a104.445,104.445,0,0,1-4.94-28.967,1.167,1.167,0,0,1,2.333,0,104.151,104.151,0,0,0,4.848,28.314c4.381,13.611,13.744,31.373,33.469,38.7,27.341,10.155,55.187,9.678,67.719-1.162,5.926-5.126,7.977-12.173,6.1-20.946-3.007-14.032-10.864-20.8-17.8-26.769-8.036-6.919-14.975-12.9-8.937-27.513C270.846,2.145,276,4.132,283.121,6.883c8.7,3.355,21.835,8.425,46.66-6.713a1.167,1.167,0,0,1,1.214,1.992C305.187,17.9,291.4,12.578,282.281,9.059c-7.178-2.769-10.149-3.918-14.456,6.509-5.394,13.059.351,18.007,8.3,24.855,6.854,5.9,15.384,13.248,18.556,28.048,2.043,9.532-.327,17.555-6.853,23.2-6.909,5.977-18.15,8.992-31.335,8.993" transform="translate(-74.152 0)" fill="#45d3ff"/>
          <path id="Trazado_777224" data-name="Trazado 777224" d="M277.378,45.267a60.758,60.758,0,0,1-17.5-2.952c-6.743-2.093-17.5-2.986-27.576-3.325-11.885.223-23.291.109-25.666.08l-.076-4.664c.869-.038,12.707-.543,25.85-.1,12.859-.249,24.568-.836,27.262-1.959,6.009-2.5,22.182-2.239,28.2,1.307A5.284,5.284,0,0,1,290.8,37.6a5.365,5.365,0,0,1-2.092,4.807c-2.314,1.911-6.332,2.865-11.328,2.865M259.2,37.28c.717.183,1.406.376,2.061.579,12.846,3.987,22.047,2.952,24.477.945.367-.3.426-.5.429-.617-.477-.688-3.547-2.177-10.467-2.692-5.717-.426-11.571.052-14.234,1.162a12.462,12.462,0,0,1-2.267.622" transform="translate(-86.079 -12.792)"/>
          <path id="Trazado_777225" data-name="Trazado 777225" d="M521.119,41.658a1.48,1.48,0,0,1-1.484-1.458,1.436,1.436,0,0,1,1.432-1.458h.052a1.458,1.458,0,1,1,0,2.916m-3.551,0h-5.833a1.458,1.458,0,0,1,0-2.916h5.833a1.458,1.458,0,0,1,0,2.916m-9.332,0H502.4a1.458,1.458,0,1,1,0-2.916h5.833a1.458,1.458,0,0,1,0,2.916m-9.332,0H493.07a1.458,1.458,0,0,1,0-2.916H498.9a1.458,1.458,0,1,1,0,2.916m-9.332,0h-5.833a1.458,1.458,0,0,1,0-2.916h5.833a1.458,1.458,0,0,1,0,2.916m-9.332,0h-5.833a1.458,1.458,0,1,1,0-2.916h5.833a1.458,1.458,0,0,1,0,2.916m-9.332,0h-5.833a1.458,1.458,0,0,1,0-2.916h5.833a1.458,1.458,0,1,1,0,2.916m-9.332,0h-5.833a1.458,1.458,0,0,1,0-2.916h5.833a1.458,1.458,0,0,1,0,2.916m-9.332,0h-5.833a1.458,1.458,0,1,1,0-2.916h5.833a1.458,1.458,0,0,1,0,2.916m-9.332,0h-5.833a1.458,1.458,0,0,1,0-2.916h5.833a1.458,1.458,0,1,1,0,2.916m-9.332,0h-5.833a1.458,1.458,0,0,1,0-2.916h5.833a1.458,1.458,0,0,1,0,2.916m-9.332,0h-5.833a1.458,1.458,0,1,1,0-2.916h5.833a1.458,1.458,0,0,1,0,2.916m-9.332,0H409.08a1.458,1.458,0,0,1,0-2.916h5.833a1.458,1.458,0,1,1,0,2.916m-9.332,0h-5.833a1.458,1.458,0,0,1,0-2.916h5.833a1.458,1.458,0,0,1,0,2.916m-9.332,0h-5.833a1.458,1.458,0,1,1,0-2.916h5.833a1.458,1.458,0,0,1,0,2.916m-9.332,0h-5.833a1.458,1.458,0,0,1,0-2.916h5.833a1.458,1.458,0,1,1,0,2.916m-9.332,0h-5.833a1.458,1.458,0,1,1,0-2.916h5.833a1.458,1.458,0,0,1,0,2.916m-9.332,0h-5.833a1.458,1.458,0,0,1,0-2.916h5.833a1.458,1.458,0,0,1,0,2.916m-9.332,0h-5.833a1.458,1.458,0,0,1,0-2.916h5.833a1.458,1.458,0,0,1,0,2.916" transform="translate(-146.535 -16.145)" fill="#45d3ff"/>
          <path id="Trazado_777226" data-name="Trazado 777226" d="M651.7,37.788a1.458,1.458,0,0,1-.156-2.908c.218-.027,4.719-.657,6.869-7.107a1.458,1.458,0,0,1,2.767.922c-2.779,8.337-9.067,9.058-9.333,9.085q-.074.007-.147.007" transform="translate(-270.979 -11.159)" fill="#45d3ff"/>
          <path id="Trazado_777227" data-name="Trazado 777227" d="M0,220.118l104.4-1.483-.022,4.083Z" transform="translate(0 -91.112)"/>
          <path id="Trazado_777228" data-name="Trazado 777228" d="M188.377,269.22a27.226,27.226,0,0,1-10.58-1.95c-11.235-4.732-14.155-16.713-7.809-32.049a86.407,86.407,0,0,1,18.138-27.2,1.167,1.167,0,0,1,1.607,1.691,85.747,85.747,0,0,0-17.59,26.4c-5.791,13.994-3.339,24.838,6.559,29.007a25.288,25.288,0,0,0,9.822,1.813c20.353,0,50.818-18.993,68-59.08,5.282-12.324,15.313-19.71,25.555-18.812,13.01,1.138,23.424,14.373,28.57,36.311a1.167,1.167,0,1,1-2.272.533c-6.96-29.672-20.851-34.025-26.5-34.519-9.215-.8-18.33,6.026-23.208,17.407-9.5,22.166-24.052,40.221-40.974,50.838-10.007,6.278-20.447,9.609-29.315,9.609" transform="translate(-69.465 -78.749)" fill="#45d3ff"/>
          <path id="Trazado_777229" data-name="Trazado 777229" d="M277.378,226.159a60.757,60.757,0,0,1-17.5-2.953c-6.743-2.093-17.5-2.986-27.575-3.325-11.886.223-23.292.108-25.667.08l-.076-4.664c.869-.038,12.707-.543,25.85-.1,12.859-.249,24.568-.836,27.262-1.959,6.011-2.5,22.181-2.24,28.2,1.307a5.285,5.285,0,0,1,2.932,3.939,5.365,5.365,0,0,1-2.092,4.807c-2.314,1.911-6.332,2.865-11.328,2.865M259.2,218.171c.717.183,1.406.376,2.061.579,12.847,3.987,22.048,2.952,24.477.945.367-.3.426-.5.429-.617-.477-.688-3.547-2.177-10.467-2.692-5.717-.426-11.571.052-14.234,1.162a12.463,12.463,0,0,1-2.267.622" transform="translate(-86.079 -88.176)"/>
          <path id="Trazado_777230" data-name="Trazado 777230" d="M510.777,222.468H499.111a1.167,1.167,0,0,1,0-2.333h11.665a1.167,1.167,0,0,1,0,2.333m-29.163,0H469.948a1.167,1.167,0,0,1,0-2.333h11.665a1.167,1.167,0,1,1,0,2.333m-29.163,0H440.785a1.167,1.167,0,1,1,0-2.333H452.45a1.167,1.167,0,0,1,0,2.333m-29.163,0H411.621a1.167,1.167,0,0,1,0-2.333h11.665a1.167,1.167,0,1,1,0,2.333m-29.163,0H382.458a1.167,1.167,0,1,1,0-2.333h11.665a1.167,1.167,0,0,1,0,2.333m-29.163,0H353.294a1.167,1.167,0,0,1,0-2.333H364.96a1.167,1.167,0,1,1,0,2.333" transform="translate(-146.743 -91.738)" fill="#45d3ff"/>
          <path id="Trazado_777231" data-name="Trazado 777231" d="M651.7,218.681a1.458,1.458,0,0,1-.156-2.908c.218-.027,4.719-.657,6.869-7.106a1.458,1.458,0,1,1,2.767.922c-2.779,8.336-9.067,9.058-9.333,9.084q-.074.007-.147.007" transform="translate(-270.979 -86.543)" fill="#45d3ff"/>
        </g>
      </g>
    </g>
  </g>
</svg>
