<svg xmlns="http://www.w3.org/2000/svg" xmlns:xlink="http://www.w3.org/1999/xlink" width="444" height="343" viewBox="0 0 444 343">
  <defs>
    <clipPath id="clip-path">
      <rect id="Rectángulo_374163" data-name="Rectángulo 374163" width="325.166" height="305.334" fill="none"/>
    </clipPath>
  </defs>
  <g id="Grupo_1066308" data-name="Grupo 1066308" transform="translate(6740 8647)">
    <path id="Figura_22_Puntada_filete_feston" data-name="Figura 22_Puntada_filete_feston" d="M20,0H424a20,20,0,0,1,20,20V343a0,0,0,0,1,0,0H0a0,0,0,0,1,0,0V20A20,20,0,0,1,20,0Z" transform="translate(-6740 -8647)" fill="#fff"/>
    <g id="Grupo_1066224" data-name="Grupo 1066224" transform="translate(-6683.771 -8628.667)">
      <g id="Grupo_1066212" data-name="Grupo 1066212" clip-path="url(#clip-path)">
        <path id="Trazado_777322" data-name="Trazado 777322" d="M279.756,276.661s1.911-13.377,26.755-40.77,38.221-64.977,21.659-124.858S268.926,37.775,208.408,33.952s-64.978-37.585-117.85-22.3S31.314,61.982,31.314,61.982Z" transform="translate(-10.327 -2.542)" fill="#dd6143"/>
        <path id="Trazado_777323" data-name="Trazado 777323" d="M60.779,389.5,168.033,256.34a3.016,3.016,0,1,1,4.7,3.785c-.015.029-111.916,129.329-111.953,129.377" transform="translate(-20.044 -84.167)"/>
        <path id="Trazado_777324" data-name="Trazado 777324" d="M282.671,309.491a3,3,0,0,1-1.98-.743L1.033,64.765A3.016,3.016,0,0,1,5,60.219L284.654,304.2a3.016,3.016,0,0,1-1.984,5.289" transform="translate(0 -19.615)"/>
        <path id="Trazado_777325" data-name="Trazado 777325" d="M243.637,206.662a3.016,3.016,0,0,1-2.329-4.929l15.854-19.322c3.139-8.462,14.147-35.927,26.015-39.573a9.311,9.311,0,0,1,8.56,1.514,8.836,8.836,0,0,1,3.828,7.7c-.246,5.985-6.041,13.439-17.717,22.789a191.442,191.442,0,0,1-15.568,11.144c-.065.182-.129.363-.192.543a3.011,3.011,0,0,1-2.072,1.917l-14.044,17.116a3.01,3.01,0,0,1-2.334,1.1m42.422-58.239a3.755,3.755,0,0,0-1.111.182c-5.976,1.834-13.449,15.241-18.732,27.432,2.422-1.718,5.167-3.747,7.9-5.939,13.688-10.971,15.342-16.449,15.418-18.295a2.832,2.832,0,0,0-1.391-2.6,3.425,3.425,0,0,0-2.086-.776" transform="translate(-79.355 -46.96)"/>
        <path id="Trazado_777326" data-name="Trazado 777326" d="M11.584,69.333S22.656,94.5,29.2,96.51l6.543,2.013-3.02-12.079Z" transform="translate(-3.82 -22.865)" fill="#275daf"/>
        <path id="Trazado_777327" data-name="Trazado 777327" d="M35.081,99.2a1.322,1.322,0,0,1-.393-.06l-6.543-2.013C21.216,95,10.856,71.847,9.7,69.214a1.341,1.341,0,0,1,2.071-1.582L32.905,84.743a1.34,1.34,0,0,1,.457.716l3.02,12.079a1.341,1.341,0,0,1-1.3,1.665M14.569,73.349C19,82.484,25.324,93.459,28.933,94.57l4.272,1.314L30.87,86.545Z" transform="translate(-3.16 -22.206)"/>
        <path id="Trazado_777328" data-name="Trazado 777328" d="M75.837,128.606S48.157,73.749,43.124,92.873c0,0,15.6,38.753,32.713,35.733" transform="translate(-14.222 -29.294)" fill="#275daf"/>
        <path id="Trazado_777329" data-name="Trazado 777329" d="M73.269,129.453c-17.054,0-31.421-35.181-32.049-36.74a1.347,1.347,0,0,1-.053-.842c.819-3.11,2.306-4.8,4.421-5.023C51.311,86.23,59.377,98.062,64.932,107c6.208,9.993,11.39,20.236,11.44,20.338a1.34,1.34,0,0,1-.963,1.924,12.293,12.293,0,0,1-2.141.187M43.879,92.13a126.383,126.383,0,0,0,9.668,18.383c4.875,7.509,12.064,16.092,19.514,16.257-1.749-3.352-5.8-10.93-10.414-18.364-10.873-17.5-15.355-19.039-16.779-18.891-1,.1-1.619,1.4-1.989,2.615" transform="translate(-13.562 -28.634)"/>
        <path id="Trazado_777330" data-name="Trazado 777330" d="M117.138,168.405s-27.68-54.857-32.713-35.733c0,0,15.6,38.753,32.713,35.733" transform="translate(-27.842 -42.419)" fill="#275daf"/>
        <path id="Trazado_777331" data-name="Trazado 777331" d="M114.571,169.253c-17.055,0-31.421-35.181-32.049-36.739a1.347,1.347,0,0,1-.053-.842c.819-3.11,2.306-4.8,4.421-5.023,5.714-.6,13.79,11.213,19.345,20.155,6.208,9.994,11.39,20.236,11.441,20.338a1.341,1.341,0,0,1-.963,1.924,12.294,12.294,0,0,1-2.141.187M85.181,131.93a126.387,126.387,0,0,0,9.668,18.383c4.875,7.51,12.063,16.094,19.514,16.257-1.749-3.352-5.8-10.93-10.415-18.364-10.873-17.5-15.361-19.05-16.778-18.891-1,.1-1.619,1.4-1.989,2.615" transform="translate(-27.183 -41.76)"/>
        <path id="Trazado_777332" data-name="Trazado 777332" d="M153.933,205.2s-27.68-54.857-32.713-35.733c0,0,15.6,38.753,32.713,35.733" transform="translate(-39.977 -54.554)" fill="#275daf"/>
        <path id="Trazado_777333" data-name="Trazado 777333" d="M151.366,206.048c-17.054,0-31.421-35.181-32.049-36.74a1.346,1.346,0,0,1-.053-.842c.819-3.11,2.306-4.8,4.421-5.023,5.733-.61,13.79,11.213,19.345,20.156,6.208,9.993,11.39,20.236,11.44,20.338a1.34,1.34,0,0,1-.963,1.924,12.293,12.293,0,0,1-2.141.187m-29.389-37.323a126.385,126.385,0,0,0,9.668,18.383c4.875,7.509,12.064,16.092,19.514,16.257-1.749-3.352-5.8-10.93-10.414-18.364-10.873-17.5-15.362-19.05-16.779-18.891-1,.1-1.619,1.4-1.989,2.615" transform="translate(-39.317 -53.895)"/>
        <path id="Trazado_777334" data-name="Trazado 777334" d="M59.644,86.351s10.066-19.628,16.105-15.1S63.167,90.88,63.167,90.88Z" transform="translate(-19.67 -23.274)" fill="#275daf"/>
        <path id="Trazado_777335" data-name="Trazado 777335" d="M62.507,91.562a1.288,1.288,0,0,1-.152-.009,1.341,1.341,0,0,1-.906-.509l-3.523-4.53a1.337,1.337,0,0,1-.133-1.434c.779-1.521,7.8-14.908,14.134-16.368a4.677,4.677,0,0,1,3.968.809,4.229,4.229,0,0,1,1.741,3.418c.121,6.453-12.808,17.127-14.283,18.323a1.344,1.344,0,0,1-.844.3m-1.934-6.01,2.143,2.756c5.161-4.37,12.307-11.69,12.237-15.318a1.557,1.557,0,0,0-.669-1.323,1.987,1.987,0,0,0-1.755-.341c-4.08.942-9.67,9.969-11.957,14.227" transform="translate(-19.01 -22.616)"/>
        <path id="Trazado_777336" data-name="Trazado 777336" d="M98.692,126.15s10.066-19.628,16.105-15.1-12.582,19.628-12.582,19.628Z" transform="translate(-32.548 -36.4)" fill="#275daf"/>
        <path id="Trazado_777337" data-name="Trazado 777337" d="M101.555,131.361a1.291,1.291,0,0,1-.153-.009,1.339,1.339,0,0,1-.905-.509l-3.523-4.529a1.339,1.339,0,0,1-.134-1.434c.78-1.521,7.806-14.907,14.134-16.368a4.674,4.674,0,0,1,3.967.809,4.23,4.23,0,0,1,1.741,3.418c.123,6.455-12.808,17.127-14.282,18.323a1.341,1.341,0,0,1-.844.3m-1.934-6.01,2.143,2.755c5.162-4.37,12.307-11.69,12.238-15.317a1.56,1.56,0,0,0-.669-1.324,1.988,1.988,0,0,0-1.755-.341c-4.081.942-9.67,9.969-11.957,14.227" transform="translate(-31.888 -35.741)"/>
        <path id="Trazado_777338" data-name="Trazado 777338" d="M137.74,164.448s10.066-19.628,16.105-15.1-12.582,19.628-12.582,19.628Z" transform="translate(-45.425 -49.03)" fill="#275daf"/>
        <path id="Trazado_777339" data-name="Trazado 777339" d="M140.6,169.659a1.3,1.3,0,0,1-.153-.009,1.339,1.339,0,0,1-.905-.509l-3.523-4.53a1.339,1.339,0,0,1-.134-1.434c.78-1.521,7.805-14.907,14.135-16.367a4.677,4.677,0,0,1,3.967.809,4.231,4.231,0,0,1,1.741,3.417c.122,6.454-12.808,17.128-14.283,18.324a1.337,1.337,0,0,1-.844.3m-1.935-6.011,2.143,2.756c5.162-4.371,12.307-11.69,12.238-15.318a1.559,1.559,0,0,0-.669-1.324,1.99,1.99,0,0,0-1.755-.341c-4.082.942-9.67,9.968-11.957,14.227" transform="translate(-44.766 -48.371)"/>
        <path id="Trazado_777340" data-name="Trazado 777340" d="M166.276,203.745s12-23.35,19.2-17.962-15,23.35-15,23.35Z" transform="translate(-54.836 -61.003)" fill="#275daf"/>
        <path id="Trazado_777341" data-name="Trazado 777341" d="M169.69,209.946a1.517,1.517,0,0,1-.182-.011,1.594,1.594,0,0,1-1.077-.6l-4.2-5.388a1.6,1.6,0,0,1-.16-1.711c.93-1.81,9.3-17.73,16.845-19.47a5.571,5.571,0,0,1,4.728.961,5.032,5.032,0,0,1,2.076,4.068c.145,7.681-15.267,20.379-17.025,21.8a1.6,1.6,0,0,1-1,.355m-2.3-7.148,2.553,3.275c6.152-5.2,14.671-13.908,14.589-18.222a1.85,1.85,0,0,0-.8-1.572,2.379,2.379,0,0,0-2.1-.407c-2.442.564-5.836,3.85-9.557,9.254a89.816,89.816,0,0,0-4.691,7.672" transform="translate(-54.05 -60.219)"/>
        <path id="Trazado_777342" data-name="Trazado 777342" d="M205.77,277.035c-.454,0-.9,0-1.357-.01-15.375-.22-25.558-3.727-31.131-10.722-6.882-8.639-5.323-21.139-3.2-31.063,4.294-20.043-2.19-29.8-2.255-29.9a1.675,1.675,0,0,1,2.749-1.915c.3.435,7.412,10.912,2.783,32.515-2.93,13.67-2.146,22.39,2.541,28.273,4.909,6.161,14.249,9.256,28.558,9.459,23.353.34,46.535-8.245,59.014-21.858,7.955-8.678,11.406-18.822,10.257-30.148-3.478-34.291-10.14-42.319-23.675-55.855a1.675,1.675,0,0,1,2.369-2.369c13.725,13.724,21.053,22.532,24.64,57.886,1.233,12.145-2.614,23.469-11.121,32.75-12.852,14.019-36.354,22.955-60.176,22.955" transform="translate(-55.252 -53.74)" fill="#275daf"/>
        <path id="Trazado_777343" data-name="Trazado 777343" d="M281.784,108.537a1.671,1.671,0,0,1-1.328-.653c-13.6-17.642-12.786-41.873,2.367-70.073A189.865,189.865,0,0,1,309.77.51a1.676,1.676,0,0,1,2.407,2.332,186.192,186.192,0,0,0-26.433,36.614c-6.459,12.034-10.269,23.323-11.325,33.553-1.3,12.615,1.622,23.662,8.691,32.83a1.676,1.676,0,0,1-1.326,2.7" transform="translate(-89.315 0)" fill="#275daf"/>
      </g>
    </g>
  </g>
</svg>
