<svg xmlns="http://www.w3.org/2000/svg" xmlns:xlink="http://www.w3.org/1999/xlink" width="444" height="343" viewBox="0 0 444 343">
  <defs>
    <clipPath id="clip-path">
      <rect id="Rect치ngulo_374174" data-name="Rect치ngulo 374174" width="382.27" height="251.725" fill="none"/>
    </clipPath>
  </defs>
  <g id="Grupo_1066279" data-name="Grupo 1066279" transform="translate(7265 8143)">
    <path id="Rect치ngulo_373931" data-name="Rect치ngulo 373931" d="M20,0H424a20,20,0,0,1,20,20V343a0,0,0,0,1,0,0H0a0,0,0,0,1,0,0V20A20,20,0,0,1,20,0Z" transform="translate(-7265 -8143)" fill="#fff"/>
    <g id="Grupo_1066228" data-name="Grupo 1066228" transform="translate(-7230.569 -8098.392)">
      <g id="Grupo_1066227" data-name="Grupo 1066227" transform="translate(0 0)" clip-path="url(#clip-path)">
        <path id="Trazado_777427" data-name="Trazado 777427" d="M382.128,110.564c-.762-8.346-4.417-15.843-8.916-22.794a179.615,179.615,0,0,0-15.05-20.456c-10.68-12.245-26.5-18.37-36.207-31.479-4.509-6.087-8.411-12.675-13.638-18.2A43.548,43.548,0,0,0,289.206,5.942c-15.314-4.651-31.777-2.08-47.416-1.064a403.919,403.919,0,0,1-57.66.017C177.068,4.343,160.981.441,159.21.4,140.142-.037,121.024-.47,102,1.156,86.568,2.473,70.105,4.682,56.82,13.272,29.1,31.2,34.626,66.752,25.832,94.4,20.7,110.537,12.788,125.6,7.077,141.528,1.332,157.537-1.4,174.341.7,191.312a100.172,100.172,0,0,0,6.351,25.141c2.869,7.141,6.311,14.02,13.81,17.11,8.346,3.438,18.519,3.9,27.427,4.664,9.2.793,18.441,1.06,27.671,1.257,19.044.4,38.26.383,57.026,4.048,17.577,3.438,34.964,9.454,53.121,7.96,16.513-1.358,32.265-7.6,46.146-16.5,15.182-9.725,27.634-22.8,41.526-34.151,13.773-11.263,29.528-19.863,45.624-27.309,15.1-6.985,30.988-12.7,43.927-23.485,11.324-9.444,20.179-24.3,18.793-39.483" transform="translate(0 -0.002)" fill="#fe8e6d"/>
        <path id="Trazado_777428" data-name="Trazado 777428" d="M15.776,48.655,37.984,41.88,53.789,36.61l10.914-1.5s13.549-3.011,38.392,2.259l40.272-1.131s25.591-3.387,44.788,3.011c0,0,65.864,2.554,82.425,4.854,0,0,8.282,8.319-53.446,19.609H181a131.968,131.968,0,0,1-25.971-2.256l-30.11-.752s-35-3.767-37.261-3.767-33.5-2.632-33.5-2.632Z" transform="translate(37.663 81.764)" fill="#fff"/>
        <path id="Trazado_777429" data-name="Trazado 777429" d="M179.914,64.006a134.853,134.853,0,0,1-24.372-2.28l-30.08-.749c-.362-.037-35.035-3.763-37.258-3.763S55.97,54.691,54.7,54.579L15.549,48.824l.722-.22,22.2-6.775L54.28,36.559l10.945-1.511c.125-.027,13.854-2.957,38.45,2.263l40.232-1.135c.234-.034,25.818-3.313,44.822,3.011,1.568.064,66.155,2.595,82.418,4.851l.058.01.037.041a1.894,1.894,0,0,1,.3,1.91c-1.009,3.225-9.349,9.847-53.835,17.987l-36.163,0c-.027,0-.606.017-1.633.017M17.09,48.706l37.64,5.538c.3.027,31.252,2.632,33.474,2.632,2.242,0,35.848,3.614,37.278,3.763l30.1.752a133.7,133.7,0,0,0,25.961,2.259h36.14c44.229-8.1,52.531-14.589,53.537-17.736a1.634,1.634,0,0,0-.18-1.548c-16.469-2.27-81.686-4.813-82.347-4.841l-.044-.007c-18.939-6.314-44.459-3.035-44.717-3.008l-40.289,1.131c-24.548-5.2-38.22-2.293-38.355-2.263L54.355,36.89,38.58,42.151Z" transform="translate(37.121 81.656)"/>
        <path id="Trazado_777430" data-name="Trazado 777430" d="M37.673,161.136c11.361.952,22.77,1.5,34.182,1.48,10.884-.352,23.041.461,33.338-2.561,9.925-3.431,16.588-14.169,21.838-22.871,5.623-15.6,2.324-33.951,4.454-50.448,2.117-16.076,8.6-34.006-1.091-48.663-6.233-9.275-18.864-10.823-28.725-14.1-21.225-6.128-46.9.6-55.136,22.729-3.669,10.382-3.655,22.221-3,33.03,1.1,11.168,7.842,20.941,12.95,30.645,5.515,9.5,13.939,17.53,24.3,20.568,10.24,2.761,22.306,3.089,32.525.186,20.609-7.784,35.445-27.895,42.433-48.287a83.253,83.253,0,0,0,4.346-28.684,5.44,5.44,0,0,1,1.138-4.356,2.186,2.186,0,0,1,3.289-.152,5.817,5.817,0,0,1,1.433,4.363,86.986,86.986,0,0,1-.728,13.343A92.6,92.6,0,0,1,143.7,115.4c-8,8.892-17.086,17.123-28.8,20.91-11.825,3.208-23.861,2.73-35.625-.44-11.89-3.621-21.14-12.77-26.99-23.061-5.464-10.5-12.154-20.477-13.278-32.583C37.087,55.274,41.294,30.1,67.482,20.249c17.276-6.429,35.567-1.761,52,4.305,5.843,1.87,11.558,5.515,14.942,10.768,13.79,21.327-.518,45.9,1.338,68.929-.552,11.934.539,23.471-3.967,35.164-4.4,8.042-9.488,15.314-16.419,21.388-7.157,6.016-17.536,6.924-26.12,7.293a451.251,451.251,0,0,1-52.081-.234c-4.431-.4-4-7,.5-6.727" transform="translate(81.322 40.963)" fill="#2b89ad"/>
        <path id="Trazado_777431" data-name="Trazado 777431" d="M65.3,169.033c-9.39,0-18.756-.291-28.02-.874A3.541,3.541,0,0,1,37.8,161.1h0c11.9,1,22.831,1.48,33.372,1.48h.8c2.541-.085,5.213-.1,7.8-.119,8.661-.064,17.624-.129,25.49-2.432,10.091-3.486,16.825-14.647,21.74-22.8a49.846,49.846,0,0,0,2.093-7.862,51.376,51.376,0,0,1-14.017,7.232c-11.283,3.059-23.3,2.91-35.723-.44-10.877-3.313-20.5-11.527-27.1-23.142-1-1.927-2.063-3.868-3.086-5.738-4.566-8.353-9.288-16.988-10.21-26.909-1.128-14.61.081-26.3,3.7-35.73,4.485-11.68,12.855-19.9,24.873-24.419,17.757-6.6,36.306-1.534,52.115,4.305,6.439,2.056,11.917,6.009,15.026,10.836,8.78,13.577,6.172,28.728,3.652,43.379-1.457,8.465-2.964,17.221-2.286,25.629-.125,2.723-.166,5.443-.207,8.069-.017,1.206-.034,2.405-.061,3.594A88.532,88.532,0,0,0,155.705,82.92,82.713,82.713,0,0,0,160.038,54.3a5.611,5.611,0,0,1,1.179-4.468,2.321,2.321,0,0,1,1.728-.884l.115,0a2.322,2.322,0,0,1,1.7.728,5.921,5.921,0,0,1,1.477,4.475,86.669,86.669,0,0,1-.732,13.367,93.179,93.179,0,0,1-21.554,48.124,113.166,113.166,0,0,1-8.563,8.665,54.677,54.677,0,0,1-3.32,15.3c-5.027,9.2-10.257,16.012-16.466,21.456-6.836,5.748-16.642,6.92-26.225,7.337-8.015.423-16.056.637-24.077.637m-27.773-7.6a3.2,3.2,0,0,0-.22,6.4,451.334,451.334,0,0,0,52.054.234c9.522-.41,19.264-1.575,26.018-7.252,6.179-5.416,11.385-12.2,16.381-21.344a53.68,53.68,0,0,0,3.255-14.833c-1.731,1.538-3.574,3.042-5.525,4.454a51.346,51.346,0,0,1-2.181,8.289c-4.959,8.225-11.73,19.447-21.943,22.976-7.92,2.324-16.9,2.388-25.591,2.446-2.585.02-5.254.037-7.794.119h-.8c-10.558,0-21.489-.481-33.4-1.477-.085,0-.169-.007-.251-.007M85.54,17.442a50.846,50.846,0,0,0-17.878,3.1C46.1,28.648,36.823,48.21,39.3,80.339c.918,9.85,5.623,18.454,10.169,26.777,1.026,1.873,2.087,3.814,3.089,5.738,6.555,11.531,16.1,19.694,26.892,22.98,12.354,3.337,24.311,3.479,35.533.44a51.212,51.212,0,0,0,14.207-7.388c.42-2.361.711-4.766.911-7.195a59.712,59.712,0,0,1-16.612,9.728c-9.888,2.815-21.781,2.747-32.63-.18-9.647-2.828-18.312-10.159-24.4-20.646-1.02-1.931-2.12-3.9-3.184-5.806-4.376-7.828-8.9-15.921-9.786-24.907-.633-10.386-.772-22.428,3.008-33.1,8.468-22.77,34.842-28.755,55.336-22.838,2.06.684,4.19,1.28,6.446,1.907,8.556,2.395,17.408,4.868,22.373,12.259,7.737,11.7,5.227,25.419,2.8,38.68-.61,3.343-1.243,6.8-1.677,10.1a157.743,157.743,0,0,0-.864,19.257c-.02,4.9-.044,9.881-.413,14.779q2.546-2.124,4.932-4.542c.03-1.308.051-2.622.071-3.95.041-2.632.081-5.352.207-8.059-.681-8.431.833-17.208,2.29-25.7,2.51-14.586,5.1-29.67-3.6-43.131-3.069-4.763-8.479-8.665-14.854-10.7-10.477-3.872-22.16-7.4-34-7.4m1.04,4.7c-16.615,0-33.359,7.533-39.768,24.751C43.059,57.5,43.2,69.509,43.824,79.854c.881,8.909,5.386,16.974,9.745,24.768,1.067,1.907,2.168,3.879,3.184,5.806,6.043,10.406,14.637,17.685,24.193,20.487,10.636,2.866,22.76,2.93,32.437.186a59.6,59.6,0,0,0,16.754-9.874c.39-4.993.41-10.081.434-15.081a158.609,158.609,0,0,1,.867-19.3c.437-3.306,1.067-6.771,1.683-10.115,2.415-13.2,4.912-26.845-2.751-38.433-4.895-7.286-13.685-9.742-22.187-12.117-2.259-.63-4.39-1.226-6.45-1.91a54.889,54.889,0,0,0-15.155-2.124m43.883,99.25c-.193,2.429-.474,4.837-.884,7.208,1.934-1.419,3.76-2.927,5.481-4.465.2-2.4.3-4.82.359-7.263q-2.4,2.4-4.956,4.519m5.3-4.868c-.058,2.452-.149,4.871-.342,7.279a114.5,114.5,0,0,0,8.272-8.39A92.884,92.884,0,0,0,165.17,67.47a86.885,86.885,0,0,0,.732-13.316,5.651,5.651,0,0,0-1.389-4.255,1.989,1.989,0,0,0-1.453-.62h-.1a2,2,0,0,0-1.484.759,5.314,5.314,0,0,0-1.1,4.241,83.008,83.008,0,0,1-4.353,28.749,88.7,88.7,0,0,1-20.256,33.5" transform="translate(81.203 40.833)"/>
        <path id="Trazado_777432" data-name="Trazado 777432" d="M101.7,30.871c-1.267,11.151-3.082,22.634-8.926,32.42-2.459,4.126-6.111,9.491-11.022,10.782-4.688,1.23-12.726.976-11.4-5.877a12.947,12.947,0,0,1,4-6.639c2.517-2.27,5.555-1.711,8.36-.288,4.773,2.422,8.841,5.637,14.03,7.273,8.475,2.666,18.614,1.4,24.65-5.654,3.807-4.448,4.465-10.508,6.253-15.893,1.921-5.765,3.933-11.5,3.614-17.662-.166-3.255-5.25-3.276-5.081,0,.339,6.626-2.347,12.648-4.255,18.861-1.839,5.982-2.659,11.588-8.709,14.735-5.349,2.781-11.595,2.165-17.055.03-5.525-2.154-10.057-6.927-16.019-7.886-10-1.609-19.552,12.7-12.8,21,3.4,4.17,9.424,3.939,14.251,3.177,5.457-.86,9.254-4.685,12.5-8.9,8.712-11.321,11.111-25.649,12.686-39.476.366-3.245-4.719-3.218-5.081,0" transform="translate(155.37 64.181)" fill="#2b89ad"/>
        <path id="Trazado_777433" data-name="Trazado 777433" d="M76.721,79.978c-3.448,0-7.032-.789-9.39-3.682-2.971-3.648-3.069-8.943-.257-13.817,2.273-3.943,6.622-7.584,11.595-7.584a10.524,10.524,0,0,1,1.616.129c3.57.572,6.67,2.524,9.668,4.41,1.216.769,2.456,1.548,3.729,2.236,5.21-9.62,6.849-20.842,7.967-30.7a2.8,2.8,0,0,1,1.7-2.307,2.99,2.99,0,0,1,2.879.22,2.2,2.2,0,0,1,.833,2.124c-1.206,10.619-2.971,22.455-8.36,32.725,5.359,1.568,10.453,1.291,14.545-.837,5.186-2.7,6.46-7.134,7.933-12.272.227-.779.451-1.565.694-2.364.4-1.287.83-2.588,1.253-3.848,1.6-4.783,3.259-9.732,2.994-14.952a2.351,2.351,0,0,1,1.047-2.195,3.02,3.02,0,0,1,2.93-.1,2.593,2.593,0,0,1,1.443,2.273c.3,5.938-1.568,11.564-3.377,17l-.241.732c-.481,1.44-.887,2.957-1.277,4.427-1.084,4.051-2.2,8.238-5.013,11.52-5.538,6.466-15.291,8.709-24.826,5.7-.325-.105-.644-.213-.962-.325-.481.7-.979,1.392-1.5,2.07-3.018,3.926-6.876,8.065-12.608,8.973a32.722,32.722,0,0,1-5.017.44m1.948-24.741c-4.837,0-9.078,3.56-11.3,7.412-2.151,3.723-3.221,9.207.227,13.434s9.7,3.814,14.088,3.116c5.613-.887,9.413-4.966,12.391-8.838.5-.654.982-1.314,1.446-1.988a33.661,33.661,0,0,1-4.3-2c-2.4,3.55-5.467,6.975-9.305,7.984-3.418.891-8.126.908-10.369-1.2a4.976,4.976,0,0,1-1.236-4.881,13.07,13.07,0,0,1,4.048-6.731c2.192-1.978,5.067-2.08,8.546-.315,1.68.854,3.289,1.812,4.847,2.744,1.1.657,2.212,1.321,3.357,1.951.586-.877,1.131-1.758,1.639-2.608q.4-.666.772-1.352c-1.284-.694-2.527-1.477-3.746-2.246-2.971-1.87-6.04-3.8-9.542-4.36a9.45,9.45,0,0,0-1.562-.125m-.285,5.071a5.5,5.5,0,0,0-3.8,1.49,12.747,12.747,0,0,0-3.943,6.548,4.659,4.659,0,0,0,1.138,4.566c2.151,2.019,6.721,1.992,10.05,1.114,3.733-.979,6.727-4.332,9.1-7.818-1.142-.63-2.249-1.287-3.343-1.941-1.555-.928-3.157-1.887-4.824-2.73a9.821,9.821,0,0,0-4.37-1.23m17.658,7.9c.288.1.576.2.867.291,9.413,2.964,19.02.759,24.47-5.6,2.761-3.225,3.868-7.374,4.942-11.388.393-1.474.8-3,1.28-4.444l.244-.732c1.8-5.41,3.658-11,3.36-16.872a2.273,2.273,0,0,0-1.26-2,2.669,2.669,0,0,0-2.588.085,1.982,1.982,0,0,0-.894,1.89c.268,5.288-1.4,10.267-3.011,15.084-.42,1.253-.857,2.554-1.25,3.834-.244.8-.471,1.582-.694,2.361-1.433,4.993-2.788,9.715-8.1,12.476-4.187,2.178-9.393,2.466-14.867.84a47.626,47.626,0,0,1-2.5,4.17M91.409,66.09a33.505,33.505,0,0,0,4.309,2q1.357-2.022,2.493-4.15c-.661-.2-1.331-.437-2-.7a24.991,24.991,0,0,1-2.391-1.108q-.381.686-.782,1.362c-.508.847-1.05,1.724-1.629,2.6m2.574-4.258a23.015,23.015,0,0,0,2.354,1.087c.681.268,1.362.5,2.036.711,5.389-10.23,7.151-22.052,8.357-32.661a1.851,1.851,0,0,0-.694-1.812,2.628,2.628,0,0,0-2.547-.183,2.44,2.44,0,0,0-1.5,2.032c-1.125,9.888-2.764,21.154-8,30.825" transform="translate(155.255 64.062)"/>
        <path id="Trazado_777434" data-name="Trazado 777434" d="M121.4,29.044l-1.7,13.993c-.491,4.048-.681,8.289-1.765,12.232a21.736,21.736,0,0,1-5.054,8.756c-2.662,2.72-6.057,1.6-9.207.335-4.949-1.985-9.007-5.342-13.864-7.513-5.972-2.673-13.163-2.967-18.3,1.457a6.2,6.2,0,0,1,.972.393c.135.054.278.1.41.166a6.923,6.923,0,0,1,.688.406,7.55,7.55,0,0,1,.955.691l0,0c.085.061.156.135.237.2.163.156.369.274.518.444a6.058,6.058,0,0,1,.864.572c5.338-3.167,12.486.186,17.235,3.37s10.975,6.839,16.9,6.233c6.524-.667,11.2-8.841,12.642-14.576,1.033-4.105,1.277-8.479,1.785-12.669q.879-7.251,1.758-14.495c.393-3.238-4.691-3.211-5.081,0" transform="translate(170.737 63.562)" fill="#2b89ad"/>
        <path id="Trazado_777435" data-name="Trazado 777435" d="M109.2,71.142c-5.416,0-10.917-3.167-15.646-6.331-3.987-2.676-11.493-6.67-17.055-3.367l-.1.058-.095-.071a6.1,6.1,0,0,0-.84-.556l-.044-.037a1.894,1.894,0,0,0-.274-.237,2.7,2.7,0,0,1-.237-.2l-.081-.068a1.209,1.209,0,0,0-.1-.088h0l-.1-.088a6.645,6.645,0,0,0-.881-.627,6.514,6.514,0,0,0-.677-.406c-.068-.034-.152-.061-.234-.095-.054-.02-.108-.041-.163-.064-.081-.034-.163-.071-.241-.108a4.287,4.287,0,0,0-.7-.271l-.318-.078.247-.217c4.651-4.014,11.554-4.573,18.471-1.484A59.092,59.092,0,0,1,96.6,60.37a50.215,50.215,0,0,0,7.395,3.95c3.306,1.331,6.477,2.3,9.017-.3a21.511,21.511,0,0,0,5.017-8.678,55.413,55.413,0,0,0,1.423-9.068c.1-1.033.21-2.1.335-3.14l1.7-13.993a2.821,2.821,0,0,1,1.738-2.307,2.98,2.98,0,0,1,2.879.234,2.2,2.2,0,0,1,.8,2.11l-.61,5.017q-.574,4.736-1.148,9.481c-.132,1.081-.247,2.192-.359,3.269a67.575,67.575,0,0,1-1.429,9.42c-1.335,5.315-5.989,14.007-12.791,14.708-.451.044-.9.068-1.358.068M81.3,59.859c4.634,0,9.5,2.69,12.452,4.668,4.685,3.14,10.128,6.273,15.457,6.273a12.382,12.382,0,0,0,1.324-.064c6.632-.677,11.185-9.224,12.493-14.45a66.522,66.522,0,0,0,1.423-9.373c.112-1.081.23-2.195.362-3.276q.569-4.746,1.148-9.485l.606-5.01a1.832,1.832,0,0,0-.671-1.8,2.63,2.63,0,0,0-2.541-.193,2.479,2.479,0,0,0-1.531,2.032l-1.7,14c-.125,1.037-.234,2.1-.339,3.133a55.319,55.319,0,0,1-1.436,9.126,21.9,21.9,0,0,1-5.091,8.827c-2.693,2.747-6.114,1.694-9.39.376a51.187,51.187,0,0,1-7.445-3.977,58.8,58.8,0,0,0-6.429-3.543c-6.666-2.977-13.326-2.513-17.878,1.236.163.058.315.129.464.2.075.037.152.075.23.108.044.017.095.037.146.054.091.037.186.071.268.112a7.367,7.367,0,0,1,.711.42,7.5,7.5,0,0,1,.925.667h.105l0,.088.095.081.081.071c.071.064.146.122.213.18a2.13,2.13,0,0,1,.3.257,7.137,7.137,0,0,1,.772.5A9.606,9.606,0,0,1,81.3,59.859" transform="translate(170.486 63.443)"/>
        <path id="Trazado_777436" data-name="Trazado 777436" d="M124.284,44.542c-3.75-.623-6.585-3.675-9.993-5.2a55.474,55.474,0,0,0-12-3.713c-3.946-.755-7.859-.694-11.48,1.219-1.873.989-3.536,2.33-5.4,3.333a26.208,26.208,0,0,1-5.386,2.1c.2.125.406.241.589.383.18.088.342.193.518.285a7.394,7.394,0,0,1,.915.451,6.371,6.371,0,0,1,.793.254,7.688,7.688,0,0,1,1.711.613,7.131,7.131,0,0,1,2.171.843,46.494,46.494,0,0,0,4.739-2.71c3.587-2.324,6.853-2.527,10.992-1.545a44.921,44.921,0,0,1,11,3.706c3.16,1.721,5.816,4.261,9.485,4.871,3.2.532,4.576-4.363,1.352-4.9" transform="translate(191.039 83.993)" fill="#2b89ad"/>
        <path id="Trazado_777437" data-name="Trazado 777437" d="M123.694,49.764a3.117,3.117,0,0,1-.5-.041,17.7,17.7,0,0,1-6.731-3.157c-.9-.593-1.839-1.206-2.8-1.731A44.739,44.739,0,0,0,102.7,41.143c-4.42-1.047-7.564-.613-10.86,1.521a47.422,47.422,0,0,1-4.756,2.723L87,45.428l-.085-.051a6.588,6.588,0,0,0-2.117-.823,8.09,8.09,0,0,0-1.707-.613,5.308,5.308,0,0,0-.715-.23l-.088-.027a7.082,7.082,0,0,0-.928-.454c-.1-.051-.18-.095-.264-.146s-.173-.1-.268-.146c-.156-.115-.295-.2-.44-.291l-.488-.3.366-.1a25.6,25.6,0,0,0,5.352-2.087c.911-.491,1.789-1.074,2.635-1.633.888-.589,1.805-1.2,2.767-1.7,3.235-1.7,7.022-2.11,11.595-1.233A55.587,55.587,0,0,1,114.653,39.3a28.033,28.033,0,0,1,3.8,2.232,16.3,16.3,0,0,0,6.148,2.95,2.231,2.231,0,0,1,1.829,1.4,2.994,2.994,0,0,1-.572,2.845,2.764,2.764,0,0,1-2.165,1.037M98.523,40.256a18.618,18.618,0,0,1,4.258.556,45.2,45.2,0,0,1,11.039,3.726c.979.532,1.921,1.152,2.832,1.744,2.107,1.385,4.1,2.69,6.6,3.1a2.367,2.367,0,0,0,2.347-.871A2.66,2.66,0,0,0,126.116,46a1.851,1.851,0,0,0-1.565-1.175,16.738,16.738,0,0,1-6.287-3,26.373,26.373,0,0,0-3.75-2.205,55.192,55.192,0,0,0-11.968-3.7c-4.5-.864-8.208-.467-11.368,1.2-.945.5-1.86,1.1-2.74,1.687-.854.566-1.738,1.152-2.662,1.65a25.693,25.693,0,0,1-5.047,2.005c.091.064.19.125.278.2a1.834,1.834,0,0,1,.261.139c.075.044.149.085.23.125a7.1,7.1,0,0,1,.918.454l.051.01a5.72,5.72,0,0,1,.728.237,7.81,7.81,0,0,1,1.717.617,7.024,7.024,0,0,1,2.107.8,46.145,46.145,0,0,0,4.637-2.659,12.11,12.11,0,0,1,6.866-2.124" transform="translate(190.748 83.88)"/>
        <path id="Trazado_777438" data-name="Trazado 777438" d="M92.346,40.94a5.613,5.613,0,0,1,.786-.549,7.731,7.731,0,0,1,.843-1.067c.119-.142.2-.3.332-.44a7.167,7.167,0,0,1,1.186-2.178c-.03-.014-.064-.01-.1-.027A13.834,13.834,0,0,0,91.513,35.5a12.965,12.965,0,0,0-6.781.932,24.537,24.537,0,0,0-5.328,3.16A29.179,29.179,0,0,1,75.5,42.373a1.249,1.249,0,0,0-.22.166,8.735,8.735,0,0,1-.39.871l.166.02a11.454,11.454,0,0,1,1.277.183c.064.017.129.041.19.061.213.078.467.183.718.288.095.02.183.047.274.071.325.041.644.085.955.139.2-.017.406-.058.606-.061a6.973,6.973,0,0,1,2.222.362c.156-.115.318-.227.474-.346.752-.569,1.518-1.128,2.314-1.639.413-.264.833-.518,1.267-.755.2-.108.4-.213.6-.312-.01,0,.376-.18.451-.22a11.671,11.671,0,0,1,1.226-.43c.264-.075.532-.142.8-.2-.007,0,.413-.064.5-.081a7.085,7.085,0,0,1,2.781.207c.22.058.42.166.633.244" transform="translate(178.785 84.476)" fill="#2b89ad"/>
        <path id="Trazado_777439" data-name="Trazado 777439" d="M81.516,44.778l-.085-.024a7.024,7.024,0,0,0-2.056-.356,3.552,3.552,0,0,0-.451.031c-.085.014-.173.024-.254.03-.356-.051-.667-.1-.986-.139l-.122-.03a1.627,1.627,0,0,0-.163-.041c-.285-.115-.535-.22-.745-.295a1.585,1.585,0,0,0-.18-.058,7.22,7.22,0,0,0-.945-.142l-.315-.037-.407-.047.115-.224a6.479,6.479,0,0,0,.339-.749l.064-.146.081-.071a1.364,1.364,0,0,1,.207-.139,19.406,19.406,0,0,0,2.917-2.022c.318-.251.633-.5.955-.745a24.739,24.739,0,0,1,5.366-3.181,13.087,13.087,0,0,1,6.87-.942,14.021,14.021,0,0,1,3.933,1.192.325.325,0,0,1,.1.03l.193.1-.139.163a7.1,7.1,0,0,0-1.158,2.127l-.03.058a1.656,1.656,0,0,0-.183.23c-.044.071-.095.135-.142.2a7.851,7.851,0,0,0-.837,1.05l-.047.051-.159.1a4.084,4.084,0,0,0-.6.43l-.078.071-.1-.037c-.081-.03-.159-.064-.244-.1a2.63,2.63,0,0,0-.373-.142,6.977,6.977,0,0,0-2.723-.2c-.037.007-.22.037-.346.061l-.135.02c-.268.054-.528.122-.793.193-.43.129-.837.271-1.209.423a2.967,2.967,0,0,1-.454.227c-.2.095-.39.193-.576.3-.4.213-.813.461-1.253.749-.694.44-1.419.955-2.3,1.633-.091.068-.19.135-.281.2Zm-2.144-.722a7.353,7.353,0,0,1,2.083.352l.129-.1c.095-.064.183-.132.271-.2.891-.681,1.629-1.2,2.327-1.646.451-.295.871-.542,1.277-.762.2-.112.4-.213.606-.318l.142-.075,0,0c.108-.051.251-.119.291-.146.406-.163.826-.312,1.263-.44.274-.078.549-.146.82-.2v0c.037-.01.091-.02.149-.03.125-.02.3-.044.349-.054a7.173,7.173,0,0,1,2.862.207,3.5,3.5,0,0,1,.423.156l.135.058a5.192,5.192,0,0,1,.569-.4l.122-.078a7.944,7.944,0,0,1,.843-1.06c.037-.047.078-.108.122-.166a2.588,2.588,0,0,1,.183-.247A8.114,8.114,0,0,1,95.4,36.906a13.171,13.171,0,0,0-3.719-1.114,12.618,12.618,0,0,0-6.693.915,24.352,24.352,0,0,0-5.291,3.14c-.318.24-.637.488-.959.742a19.047,19.047,0,0,1-2.967,2.056,1.166,1.166,0,0,0-.142.1l-.017.017-.03.064c-.078.186-.149.379-.241.569.068.01.149.017.234.027a7.832,7.832,0,0,1,.989.146,2.122,2.122,0,0,1,.207.071c.217.075.471.183.728.291a.66.66,0,0,1,.156.037l.091.02c.3.037.627.085.942.142.041-.01.119-.02.2-.03.169-.02.332-.037.491-.041" transform="translate(178.596 84.353)"/>
        <path id="Trazado_777440" data-name="Trazado 777440" d="M57.806,81.384C57.474,57.1,57.4,32.809,57.2,8.525L55.51,8.5C54.534,32.667,53.677,56.842,52.566,81c.62.379,4.3.007,5.24.379" transform="translate(125.494 20.287)" fill="#6c6e6d"/>
        <path id="Trazado_777441" data-name="Trazado 777441" d="M62.087,34.794c-2.656.329-5.044.346-6.348.4-1.006,19.528-2.188,38.3-3.845,57.788-.7,12.208-1.382,24.619-.766,36.834a23.378,23.378,0,0,0,5.213,12.367l1.694.027c6.666-7.439,5.9-15.66,6.2-24.464.193-8.187.115-16.374-.166-24.569-1.03-19.637-1.612-38.734-1.985-58.388M57.616,137.543c-1.368,0-2.48-6.351-2.48-14.183s1.111-14.186,2.48-14.186,2.48,6.351,2.48,14.186-1.111,14.183-2.48,14.183" transform="translate(121.487 83.065)" fill="#6c6e6d"/>
      </g>
    </g>
  </g>
</svg>
