<svg xmlns="http://www.w3.org/2000/svg" xmlns:xlink="http://www.w3.org/1999/xlink" width="444" height="343" viewBox="0 0 444 343">
  <defs>
    <clipPath id="clip-path">
      <rect id="Rectángulo_374165" data-name="Rectángulo 374165" width="399.639" height="173" fill="none"/>
    </clipPath>
  </defs>
  <g id="Grupo_1066306" data-name="Grupo 1066306" transform="translate(6215 9660)">
    <g id="Grupo_1066287" data-name="Grupo 1066287">
      <path id="Figura_17_Puntada_doble_sobrehilado" data-name="Figura 17_Puntada_doble_sobrehilado" d="M20,0H424a20,20,0,0,1,20,20V343a0,0,0,0,1,0,0H0a0,0,0,0,1,0,0V20A20,20,0,0,1,20,0Z" transform="translate(-6215 -9660)" fill="#fff"/>
      <g id="Grupo_1066204" data-name="Grupo 1066204" transform="translate(-6193.319 -9578.285)">
        <g id="Grupo_1066216" data-name="Grupo 1066216" clip-path="url(#clip-path)">
          <path id="Trazado_777357" data-name="Trazado 777357" d="M41.017,168.076S2,103.546,2,21.008L361.664,2s8.5,97.044,37.517,145.066Z" transform="translate(-0.771 -0.771)" fill="#969b93"/>
          <path id="Trazado_777358" data-name="Trazado 777358" d="M40.246,168.534a1.231,1.231,0,0,1-1.052-.593c-.1-.163-9.926-16.537-19.61-42.793C10.65,100.922,0,63.055,0,20.238A1.229,1.229,0,0,1,1.165,19.01L360.828,0a1.233,1.233,0,0,1,1.289,1.12c.085.968,8.813,97.313,37.345,144.538a1.228,1.228,0,0,1-.98,1.862L40.318,168.532l-.072,0M2.461,21.4c.191,41.952,10.634,79.029,19.408,102.834a282.123,282.123,0,0,0,19.057,41.8l355.4-20.847C370.022,99.833,360.867,13.629,359.78,2.519Z" transform="translate(0 0)"/>
          <path id="Trazado_777359" data-name="Trazado 777359" d="M28.862,137l14.506-1.5L37.866,152Z" transform="translate(-11.126 -52.231)" fill="#969b93"/>
          <path id="Trazado_777360" data-name="Trazado 777360" d="M37.094,152.462a1.23,1.23,0,0,1-1.053-.6l-9-15.007A1.229,1.229,0,0,1,27.964,135l14.506-1.5a1.229,1.229,0,0,1,1.293,1.611l-5.5,16.508a1.23,1.23,0,0,1-1.167.84M30.139,137.25l6.635,11.059,4.055-12.165Z" transform="translate(-10.355 -51.46)"/>
          <path id="Trazado_777361" data-name="Trazado 777361" d="M27.511,100.544S21.008,41.517,2,21.007L361.664,2s22.51,53.024,21.51,81.537Z" transform="translate(-0.771 -0.771)" fill="#dd6143"/>
          <path id="Trazado_777362" data-name="Trazado 777362" d="M26.74,101a1.229,1.229,0,0,1-1.221-1.1,312.423,312.423,0,0,0-5.609-31.96C14.722,45.507,7.952,29.3.328,21.072a1.228,1.228,0,0,1,.836-2.062L360.828,0a1.238,1.238,0,0,1,1.2.747c.924,2.175,22.606,53.6,21.607,82.06a1.23,1.23,0,0,1-1.17,1.185L26.8,101h-.06M3.8,21.332C20.383,41.85,26.827,90.178,27.829,98.491L381.2,81.593c.341-26.254-18.371-72.474-21.109-79.092Z" transform="translate(0 0)"/>
          <path id="Trazado_777363" data-name="Trazado 777363" d="M133.837,48.059l34.947,51.295a2.152,2.152,0,1,1-3.637,2.3l-31.31-53.592" transform="translate(-51.591 -18.526)"/>
          <path id="Trazado_777364" data-name="Trazado 777364" d="M249.155,231.844a7.579,7.579,0,0,1-2.425-.408c-10.637-3.573-19.294-31.813-21.016-37.784-.377-.277-.589-.429-.6-.437a2.149,2.149,0,0,1-.89-1.963L199.8,156.029a2.151,2.151,0,0,1,3.535-2.451l25.855,37.283c6.492,4.807,27.849,21.461,28.016,32.62a7.94,7.94,0,0,1-3.283,6.65,7.809,7.809,0,0,1-4.766,1.713m-17.518-33.619c4.059,12.2,10.715,27.2,16.463,29.134a3.223,3.223,0,0,0,3.217-.651,3.649,3.649,0,0,0,1.585-3.161c-.034-2.377-1.86-7.984-13.682-18.825-2.644-2.424-5.3-4.656-7.583-6.5" transform="translate(-76.87 -58.844)"/>
          <path id="Trazado_777365" data-name="Trazado 777365" d="M52.745,135.526a2.151,2.151,0,0,1-.1-4.3l6.138-.28a2.151,2.151,0,0,1,.2,4.3l-6.139.279c-.033,0-.066,0-.1,0m15.348-.7a2.151,2.151,0,0,1-.1-4.3l6.138-.279a2.151,2.151,0,0,1,.2,4.3l-6.138.279c-.034,0-.066,0-.1,0m15.347-.7a2.151,2.151,0,0,1-.1-4.3l6.14-.279a2.151,2.151,0,0,1,.2,4.3l-6.139.279c-.034,0-.067,0-.1,0m15.347-.7a2.151,2.151,0,0,1-.1-4.3l6.138-.279a2.151,2.151,0,1,1,.2,4.3l-6.139.279c-.033,0-.066,0-.1,0m15.347-.7a2.151,2.151,0,0,1-.1-4.3l6.139-.28a2.151,2.151,0,0,1,.2,4.3l-6.139.279-.1,0m15.347-.7a2.151,2.151,0,0,1-.1-4.3l6.138-.279a2.151,2.151,0,1,1,.2,4.3l-6.138.279c-.034,0-.067,0-.1,0m15.348-.7a2.151,2.151,0,0,1-.1-4.3l6.138-.279a2.151,2.151,0,0,1,.2,4.3l-6.138.279c-.033,0-.066,0-.1,0m15.347-.7a2.151,2.151,0,0,1-.1-4.3l6.14-.279a2.151,2.151,0,0,1,.2,4.3l-6.139.279c-.034,0-.067,0-.1,0m15.347-.7a2.151,2.151,0,0,1-.1-4.3l6.138-.278a2.151,2.151,0,1,1,.195,4.3l-6.139.278c-.033,0-.066,0-.1,0m15.347-.7a2.151,2.151,0,0,1-.1-4.3l6.139-.279a2.151,2.151,0,0,1,.2,4.3l-6.139.279c-.034,0-.066,0-.1,0m15.348-.7a2.151,2.151,0,0,1-.1-4.3l6.139-.279a2.151,2.151,0,0,1,.2,4.3l-6.138.279c-.034,0-.067,0-.1,0m15.347-.7a2.151,2.151,0,0,1-.1-4.3l6.138-.279a2.151,2.151,0,0,1,.2,4.3l-6.139.279c-.033,0-.066,0-.1,0m15.347-.7a2.151,2.151,0,0,1-.1-4.3l6.139-.279a2.151,2.151,0,0,1,.2,4.3l-6.139.279c-.034,0-.066,0-.1,0m15.347-.7a2.151,2.151,0,0,1-.1-4.3l6.138-.279a2.151,2.151,0,1,1,.2,4.3l-6.139.279c-.034,0-.067,0-.1,0m15.347-.7a2.151,2.151,0,0,1-.1-4.3l6.139-.279a2.151,2.151,0,0,1,.2,4.3l-6.139.279c-.034,0-.066,0-.1,0m15.348-.7a2.151,2.151,0,0,1-.1-4.3l6.139-.279a2.151,2.151,0,1,1,.2,4.3l-6.138.279c-.034,0-.067,0-.1,0m15.347-.7a2.151,2.151,0,0,1-.1-4.3l6.138-.279a2.151,2.151,0,0,1,.2,4.3l-6.139.279c-.033,0-.066,0-.1,0m15.347-.7a2.151,2.151,0,0,1-.1-4.3l6.139-.279a2.151,2.151,0,1,1,.2,4.3l-6.139.279c-.034,0-.066,0-.1,0m15.348-.7a2.151,2.151,0,0,1-.1-4.3l6.139-.279a2.151,2.151,0,0,1,.2,4.3l-6.138.279-.1,0m15.346-.7a2.151,2.151,0,0,1-.1-4.3l6.139-.279a2.151,2.151,0,0,1,.2,4.3l-6.139.279c-.033,0-.066,0-.1,0m15.348-.7a2.151,2.151,0,0,1-.1-4.3l6.138-.279a2.151,2.151,0,0,1,.2,4.3l-6.138.28c-.034,0-.067,0-.1,0m15.346-.7a2.151,2.151,0,0,1-.1-4.3l6.139-.279a2.151,2.151,0,1,1,.2,4.3l-6.139.279c-.034,0-.067,0-.1,0m15.348-.7a2.151,2.151,0,0,1-.1-4.3l3.516-.16a2.151,2.151,0,1,1,.2,4.3l-3.516.16c-.034,0-.066,0-.1,0" transform="translate(-19.504 -44.606)" fill="#275daf"/>
          <path id="Trazado_777366" data-name="Trazado 777366" d="M260.764,217.785a2.151,2.151,0,0,1-1.626-3.557c6.91-8,2.751-17.571-3.542-32.058-1.415-3.258-2.878-6.625-4.331-10.257-6.92-17.3,3.229-27.677,9.563-30.748a2.151,2.151,0,0,1,1.883,3.868c-.608.3-14.583,7.451-7.451,25.282,1.429,3.573,2.88,6.912,4.283,10.141,6.441,14.826,11.528,26.537,2.851,36.584a2.145,2.145,0,0,1-1.629.745" transform="translate(-95.962 -54.333)" fill="#275daf"/>
        </g>
      </g>
    </g>
  </g>
</svg>
