<svg xmlns="http://www.w3.org/2000/svg" xmlns:xlink="http://www.w3.org/1999/xlink" width="444" height="331" viewBox="0 0 444 331">
  <defs>
    <clipPath id="clip-path">
      <rect id="Rectángulo_374158" data-name="Rectángulo 374158" width="389.965" height="210.504" fill="none"/>
    </clipPath>
    <clipPath id="clip-path-3">
      <rect id="Rectángulo_374147" data-name="Rectángulo 374147" width="9.427" height="122.222" fill="none"/>
    </clipPath>
    <clipPath id="clip-path-4">
      <rect id="Rectángulo_374148" data-name="Rectángulo 374148" width="7.691" height="69.169" fill="none"/>
    </clipPath>
    <clipPath id="clip-path-5">
      <rect id="Rectángulo_374149" data-name="Rectángulo 374149" width="7.354" height="72.502" fill="none"/>
    </clipPath>
    <clipPath id="clip-path-6">
      <rect id="Rectángulo_374150" data-name="Rectángulo 374150" width="5.494" height="91.448" fill="none"/>
    </clipPath>
    <clipPath id="clip-path-7">
      <rect id="Rectángulo_374151" data-name="Rectángulo 374151" width="6.467" height="87.182" fill="none"/>
    </clipPath>
    <clipPath id="clip-path-8">
      <rect id="Rectángulo_374152" data-name="Rectángulo 374152" width="5.672" height="105.183" fill="none"/>
    </clipPath>
    <clipPath id="clip-path-9">
      <rect id="Rectángulo_374153" data-name="Rectángulo 374153" width="7.341" height="93.456" fill="none"/>
    </clipPath>
    <clipPath id="clip-path-10">
      <rect id="Rectángulo_374154" data-name="Rectángulo 374154" width="7.225" height="113.373" fill="none"/>
    </clipPath>
    <clipPath id="clip-path-11">
      <rect id="Rectángulo_374155" data-name="Rectángulo 374155" width="9.311" height="147.143" fill="none"/>
    </clipPath>
  </defs>
  <g id="Grupo_1066304" data-name="Grupo 1066304" transform="translate(6198 10099)">
    <g id="Grupo_1066291" data-name="Grupo 1066291" transform="translate(17 54)">
      <path id="Figura_14_Puntada_bastilla_frunce" data-name="Figura 14_Puntada_bastilla_frunce" d="M20,0H424a20,20,0,0,1,20,20V331a0,0,0,0,1,0,0H0a0,0,0,0,1,0,0V20A20,20,0,0,1,20,0Z" transform="translate(-6215 -10153)" fill="#fff"/>
      <g id="Grupo_1066191" data-name="Grupo 1066191" transform="translate(-6188 -10086.197)">
        <g id="Grupo_1066203" data-name="Grupo 1066203" clip-path="url(#clip-path)">
          <g id="Grupo_1066202" data-name="Grupo 1066202">
            <g id="Grupo_1066201" data-name="Grupo 1066201" clip-path="url(#clip-path)">
              <path id="Trazado_777247" data-name="Trazado 777247" d="M1.485,27.483a239.555,239.555,0,0,0,68.857-1.5c9.039-3.162,7.293,6.485,12.548,5.655s9.962-3.411,15.248-4.082c1.881-.239,4.076-.13,5.294,1.095.911.915,1.026,2.214,1.731,3.248,1.494,2.186,5.258,2.551,8.023,1.565s4.837-2.938,7.039-4.653a45.712,45.712,0,0,1,13.91-7.3c4.32-1.406,11.358-.584,10.8,3.273-.21,1.444-1.609,2.627-1.775,4.074-.293,2.571,3.575,4.275,6.572,3.682s5.272-2.564,7.656-4.2,5.485-3.061,8.424-2.29c-.907,2.027-1.774,4.43-.345,6.234,2.386,3.014,8.1,1.193,11.142-1.374s6.468-5.939,10.69-5.189a7.836,7.836,0,0,1,.061,6.109,33.43,33.43,0,0,0,19.627-7.623,9.4,9.4,0,0,1,2.045,7.5L225.08,26.3q.482,2.451.965,4.9a35.87,35.87,0,0,0,18.327-4.057,14.89,14.89,0,0,0,3.445,8.159l15.666-8.233c1.971-1.036,4.413-2.1,6.495-1.23,2.013.842,2.525,3.018,3.872,4.528,2.608,2.925,7.751,2.9,12.091,2.6l103.7-7.292s-18.629-.483-12.977,23.68,31.649,72.963-13.563,97.126-75.168,23.69-103.427,48.8-91.557,36.008-152.03,11.371-83.646-3.79-90.992-29.375S30.212,137,21.734,95.311,1.485,27.483,1.485,27.483" transform="translate(-0.565 -10.023)" fill="#fedbd0"/>
              <path id="Trazado_777248" data-name="Trazado 777248" d="M.674,27.463A242.649,242.649,0,0,0,49.54,28.5q5.866-.474,11.693-1.231,2.942-.383,5.87-.837c1.711-.266,3.364-.8,5.065-1.026,3.862-.511,4.583,2.941,6.483,4.91a4.223,4.223,0,0,0,3.4,1.359c3.315-.193,6.634-1.7,9.69-2.676,2.685-.861,8.575-3.009,10.665-.317.8,1.036.877,2.336,1.8,3.339a6.106,6.106,0,0,0,2.956,1.668c6.582,1.736,11.208-3.945,15.653-6.909a45.15,45.15,0,0,1,9.886-4.916,13.815,13.815,0,0,1,8.047-.67c1.331.346,2.627,1.028,2.712,2.305.1,1.466-1.4,2.72-1.718,4.135-.464,2.1,1.248,3.822,3.48,4.579,8.116,2.75,12.065-7.832,19.773-6.19l-.649-.959c-.988,2.255-1.942,5.053.026,7.15,1.477,1.573,3.873,1.866,6.1,1.446a14.789,14.789,0,0,0,6.828-3.489c2.4-2.048,5.366-5,9.185-4.477l-.65-.545a7.689,7.689,0,0,1,.06,5.695.825.825,0,0,0,.9.987,35.071,35.071,0,0,0,20.284-7.851l-1.46-.157a9.18,9.18,0,0,1,1.919,7.1c-.068.472.655.928,1.176.752Q218,28.559,227.286,25.45l-.9-.2c3,2.258,1.2,5.7,1.609,8.56a.889.889,0,0,0,.93.779c5.326.117,8.713-2.99,12.454-5.691.979-.707,2.178-2.09,3.428-1.184a2.965,2.965,0,0,1,.91,2.727c-.04,1.549-.273,3.1.738,4.482a1.051,1.051,0,0,0,1.273.28l13.054-6.861c1.968-1.034,4.429-2.8,6.87-2.816,2.495-.016,3.228,2.255,4.265,3.725,4.054,5.747,14.33,3.659,20.762,3.207l61.834-4.348,34.566-2.43c1.184-.083,1.194-1.643,0-1.559l-62.987,4.429-31.493,2.215c-4.458.313-9.041.921-13.522.767a12.517,12.517,0,0,1-5.476-1.187c-1.871-1.02-2.43-2.734-3.591-4.222-2.663-3.412-6.841-1.916-10.21-.156q-7.517,3.929-15.012,7.89l1.272.28c-1.152-1.579-.211-3.635-.6-5.372-.289-1.278-1.993-3.487-3.89-3.145-1.036.187-2.28,1.311-3.086,1.878-1.1.773-2.137,1.6-3.211,2.394-2.442,1.8-4.977,3.212-8.344,3.138l.93.779c-.476-3.354,1.366-7.016-2.153-9.663a1.051,1.051,0,0,0-.9-.2q-9.281,3.125-18.571,6.234l1.177.751a10.355,10.355,0,0,0-2.173-7.892,1.054,1.054,0,0,0-1.46-.158A32.862,32.862,0,0,1,186.8,30.277l.9.987a8.922,8.922,0,0,0-.06-6.523.863.863,0,0,0-.65-.545c-5.411-.742-8.544,3.166-12.128,5.808-1.768,1.3-4.527,2.618-6.98,2.238-4.017-.623-2.693-4.559-1.729-6.758.17-.39-.194-.862-.65-.959-3.183-.678-6.138.443-8.655,2.045-2.61,1.66-5.286,4.455-8.828,4.53a5.324,5.324,0,0,1-3.944-1.457c-1.293-1.457.154-2.91.814-4.31a3.448,3.448,0,0,0-1.02-4.468c-3.78-2.9-9.828-1.29-13.792.3a46.617,46.617,0,0,0-8.822,4.694c-2.825,1.915-5.206,4.585-8.514,5.937a8.084,8.084,0,0,1-4.839.459c-2.315-.564-2.662-2.062-3.514-3.717-1.065-2.07-3.469-2.77-6.024-2.6-3.466.225-6.721,1.445-9.915,2.5a47.773,47.773,0,0,1-5.062,1.443,3.665,3.665,0,0,1-2.7-.03c-1.119-.643-1.67-2.028-2.333-2.972a6.9,6.9,0,0,0-3.125-2.69c-1.84-.7-3.629-.259-5.455.2a95.317,95.317,0,0,1-11.971,1.751A239.5,239.5,0,0,1,1.169,25.96C0,25.817-.507,27.319.674,27.463" transform="translate(0 -9.252)"/>
              <path id="Trazado_777249" data-name="Trazado 777249" d="M439.69,40.346q-.093,23.929-1.062,47.849-.965,23.787-2.8,47.541-1.037,13.424-2.351,26.832c-.1,1,1.762.995,1.86,0q2.336-23.85,3.8-47.751,1.452-23.769,2.034-47.568.329-13.449.381-26.9c0-1-1.856-1-1.86,0" transform="translate(-164.782 -19.019)"/>
              <g id="Grupo_1066176" data-name="Grupo 1066176" transform="translate(266.411 21.327)" style="mix-blend-mode: multiply;isolation: isolate">
                <g id="Grupo_1066175" data-name="Grupo 1066175">
                  <g id="Grupo_1066174" data-name="Grupo 1066174" clip-path="url(#clip-path-3)">
                    <path id="Trazado_777250" data-name="Trazado 777250" d="M439.221,41.042q-.232,61.182-6.213,122.222s-10.4-107.533,6.213-122.222" transform="translate(-429.794 -41.042)" fill="#fedbd0"/>
                  </g>
                </g>
              </g>
              <path id="Trazado_777251" data-name="Trazado 777251" d="M396.23,47.644l-1.372,26.942-1.372,26.942-.779,15.285c-.051,1,1.808,1,1.86,0l1.372-26.942,1.372-26.942q.39-7.643.779-15.285c.051-1-1.809-1-1.86,0" transform="translate(-149.284 -22.526)"/>
              <g id="Grupo_1066179" data-name="Grupo 1066179" transform="translate(240.185 25.119)" style="mix-blend-mode: multiply;isolation: isolate">
                <g id="Grupo_1066178" data-name="Grupo 1066178">
                  <g id="Grupo_1066177" data-name="Grupo 1066177" clip-path="url(#clip-path-4)">
                    <path id="Trazado_777252" data-name="Trazado 777252" d="M391.652,117.508q1.762-34.584,3.523-69.169s-14.638,49.355-3.523,69.169" transform="translate(-387.484 -48.339)" fill="#fedbd0"/>
                  </g>
                </g>
              </g>
              <path id="Trazado_777253" data-name="Trazado 777253" d="M368.244,45.815q-.067,14.114.095,28.228.164,14.178.559,28.354.221,7.961.517,15.921c.037,1,1.9,1.005,1.86,0q-.522-14.107-.816-28.219-.295-14.177-.358-28.356-.035-7.964,0-15.927c0-1-1.855-1-1.86,0" transform="translate(-139.978 -21.646)"/>
              <g id="Grupo_1066182" data-name="Grupo 1066182" transform="translate(223.013 24.169)" style="mix-blend-mode: multiply;isolation: isolate">
                <g id="Grupo_1066181" data-name="Grupo 1066181">
                  <g id="Grupo_1066180" data-name="Grupo 1066180" clip-path="url(#clip-path-5)">
                    <path id="Trazado_777254" data-name="Trazado 777254" d="M365.964,46.511q-.174,36.256,1.171,72.5s-15.736-61.5-1.171-72.5" transform="translate(-359.782 -46.511)" fill="#fedbd0"/>
                  </g>
                </g>
              </g>
              <path id="Trazado_777255" data-name="Trazado 777255" d="M334.394,40.346q.32,17.877.18,35.757-.139,17.814-.739,35.623-.337,10.037-.821,20.069c-.048,1,1.812,1,1.86,0q.859-17.864,1.259-35.741.4-17.811.335-35.627-.034-10.04-.215-20.08c-.018-1-1.878-1-1.86,0" transform="translate(-126.593 -19.019)"/>
              <g id="Grupo_1066185" data-name="Grupo 1066185" transform="translate(203.46 21.327)" style="mix-blend-mode: multiply;isolation: isolate">
                <g id="Grupo_1066184" data-name="Grupo 1066184">
                  <g id="Grupo_1066183" data-name="Grupo 1066183" clip-path="url(#clip-path-6)">
                    <path id="Trazado_777256" data-name="Trazado 777256" d="M333.508,41.042q.822,45.729-1.379,91.448s-9.613-81.713,1.379-91.448" transform="translate(-328.237 -41.042)" fill="#fedbd0"/>
                  </g>
                </g>
              </g>
              <path id="Trazado_777257" data-name="Trazado 777257" d="M300.589,43.988l-.467,33.991q-.233,17-.467,33.99l-.263,19.2c-.014,1,1.846,1,1.86,0q.233-17,.467-33.991l.466-33.99.264-19.2c.014-1-1.846-1-1.86,0" transform="translate(-113.811 -20.769)"/>
              <g id="Grupo_1066188" data-name="Grupo 1066188" transform="translate(181.24 23.219)" style="mix-blend-mode: multiply;isolation: isolate">
                <g id="Grupo_1066187" data-name="Grupo 1066187">
                  <g id="Grupo_1066186" data-name="Grupo 1066186" clip-path="url(#clip-path-7)">
                    <path id="Trazado_777258" data-name="Trazado 777258" d="M297.659,131.866l1.2-87.182s-13.717,65.784-1.2,87.182" transform="translate(-292.39 -44.684)" fill="#fedbd0"/>
                  </g>
                </g>
              </g>
              <path id="Trazado_777259" data-name="Trazado 777259" d="M265.568,42.167q-.139,20.518-.278,41.035t-.278,41.034q-.078,11.557-.156,23.114c-.007,1,1.853,1,1.86,0q.139-20.517.278-41.035t.278-41.035l.156-23.114c.007-1-1.853-1-1.86,0" transform="translate(-100.683 -19.894)"/>
              <g id="Grupo_1066191-2" data-name="Grupo 1066191" transform="translate(160.142 22.273)" style="mix-blend-mode: multiply;isolation: isolate">
                <g id="Grupo_1066190" data-name="Grupo 1066190">
                  <g id="Grupo_1066189" data-name="Grupo 1066189" clip-path="url(#clip-path-8)">
                    <path id="Trazado_777260" data-name="Trazado 777260" d="M263.313,148.046q.356-52.592.712-105.183s-12.273,46.695-.712,105.183" transform="translate(-258.354 -42.863)" fill="#fedbd0"/>
                  </g>
                </g>
              </g>
              <path id="Trazado_777261" data-name="Trazado 777261" d="M225.6,36.449q-.475,18.222-1.154,36.439-.679,18.359-1.539,36.713-.476,10.153-1.007,20.3c-.053,1,1.807,1,1.86,0q.953-18.209,1.727-36.424.781-18.356,1.379-36.717.329-10.157.594-20.316c.026-1-1.834-1-1.86,0" transform="translate(-84.352 -17.147)"/>
              <g id="Grupo_1066194" data-name="Grupo 1066194" transform="translate(134.833 19.302)" style="mix-blend-mode: multiply;isolation: isolate">
                <g id="Grupo_1066193" data-name="Grupo 1066193">
                  <g id="Grupo_1066192" data-name="Grupo 1066192" clip-path="url(#clip-path-9)">
                    <path id="Trazado_777262" data-name="Trazado 777262" d="M221.163,130.6c1.6-30.462,2.907-62.972,3.7-93.456,0,0-13.671,68.282-3.7,93.456" transform="translate(-217.523 -37.145)" fill="#fedbd0"/>
                  </g>
                </g>
              </g>
              <path id="Trazado_777263" data-name="Trazado 777263" d="M173.427,45.554q.362,22.179.438,44.361.073,22.036-.142,44.071-.122,12.471-.334,24.942c-.017,1,1.842,1,1.86,0q.376-22.179.467-44.361Q175.8,92.531,175.6,70.5q-.113-12.471-.317-24.942c-.016-1-1.876-1-1.86,0" transform="translate(-65.913 -21.521)"/>
              <g id="Grupo_1066197" data-name="Grupo 1066197" transform="translate(101.676 24.033)" style="mix-blend-mode: multiply;isolation: isolate">
                <g id="Grupo_1066196" data-name="Grupo 1066196">
                  <g id="Grupo_1066195" data-name="Grupo 1066195" clip-path="url(#clip-path-10)">
                    <path id="Trazado_777264" data-name="Trazado 777264" d="M170.762,159.623c.647-38.06.659-75.313.038-113.374,0,0-15.2,84.111-.038,113.374" transform="translate(-164.031 -46.25)" fill="#fedbd0"/>
                  </g>
                </g>
              </g>
              <path id="Trazado_777265" data-name="Trazado 777265" d="M127.757,40.012c1.715,8.677,3.013,17.409,4.049,26.16,1.111,9.384,1.923,18.793,2.536,28.209.643,9.866,1.065,19.741,1.336,29.619q.408,14.931.4,29.867.013,14.739-.256,29.477-.031,1.8-.064,3.6c-.019,1,1.841,1,1.86,0q.273-14.673.319-29.348.027-15.061-.308-30.119c-.236-9.907-.618-19.813-1.212-29.71-.574-9.562-1.344-19.118-2.409-28.651-.987-8.831-2.225-17.645-3.856-26.408q-.29-1.558-.6-3.114c-.2-.987-1.987-.568-1.793.415" transform="translate(-48.56 -18.75)"/>
              <g id="Grupo_1066200" data-name="Grupo 1066200" transform="translate(79.136 21.054)" style="mix-blend-mode: multiply;isolation: isolate">
                <g id="Grupo_1066199" data-name="Grupo 1066199">
                  <g id="Grupo_1066198" data-name="Grupo 1066198" clip-path="url(#clip-path-11)">
                    <path id="Trazado_777266" data-name="Trazado 777266" d="M136.658,187.66c.918-49.075.329-104.912-8.033-147.142,0,0-5.046,138.155,8.033,147.142" transform="translate(-127.668 -40.517)" fill="#fedbd0"/>
                  </g>
                </g>
              </g>
              <path id="Trazado_777267" data-name="Trazado 777267" d="M477.828,129.365a173.527,173.527,0,0,0-17.517-.509.787.787,0,1,0,0,1.559,173.536,173.536,0,0,1,17.517.509c1.191.1,1.183-1.464,0-1.559" transform="translate(-174.643 -61.879)"/>
              <path id="Trazado_777268" data-name="Trazado 777268" d="M429.983,129.806h-15.26a.787.787,0,1,0,0,1.559h15.26a.787.787,0,1,0,0-1.559" transform="translate(-157.313 -62.354)"/>
              <path id="Trazado_777269" data-name="Trazado 777269" d="M390.473,128.9a14.866,14.866,0,0,1-7.422.017c-1.147-.294-1.638,1.21-.494,1.5a17,17,0,0,0,8.41-.017c1.139-.3.653-1.8-.495-1.5" transform="translate(-145.179 -61.903)"/>
              <path id="Trazado_777270" data-name="Trazado 777270" d="M361.162,128.894h-13a.787.787,0,1,0,0,1.559h13a.787.787,0,1,0,0-1.559" transform="translate(-132.011 -61.916)"/>
              <path id="Trazado_777271" data-name="Trazado 777271" d="M326.862,129.806H314.428a.787.787,0,1,0,0,1.559h12.434a.787.787,0,1,0,0-1.559" transform="translate(-119.186 -62.354)"/>
              <path id="Trazado_777272" data-name="Trazado 777272" d="M294.512,129.806H284.339a.787.787,0,1,0,0,1.559h10.173a.787.787,0,1,0,0-1.559" transform="translate(-107.748 -62.354)"/>
              <path id="Trazado_777273" data-name="Trazado 777273" d="M257.444,131.57q-7.059.323-14.125-.06c-1.194-.064-1.19,1.494,0,1.559q7.055.383,14.125.06c1.19-.055,1.2-1.613,0-1.559" transform="translate(-92.156 -63.172)"/>
              <path id="Trazado_777274" data-name="Trazado 777274" d="M217.411,129.028a163.165,163.165,0,0,1-16.969-.878c-1.185-.124-1.174,1.436,0,1.559a163.165,163.165,0,0,0,16.969.878.787.787,0,1,0,0-1.559" transform="translate(-75.861 -61.555)"/>
              <path id="Trazado_777275" data-name="Trazado 777275" d="M166.579,128.485a86.015,86.015,0,0,1-13.572-.367.871.871,0,0,0-.93.779c-.006.465.433.727.93.779a86.013,86.013,0,0,0,13.572.367c1.189-.062,1.2-1.621,0-1.559" transform="translate(-57.811 -61.541)"/>
              <path id="Trazado_777276" data-name="Trazado 777276" d="M120.117,128.188l-25.433-.932c-1.2-.044-1.194,1.515,0,1.559l25.433.932c1.2.044,1.194-1.515,0-1.559" transform="translate(-35.653 -61.129)"/>
              <path id="Trazado_777277" data-name="Trazado 777277" d="M478.974,61.575a159.987,159.987,0,0,1-18.658.36c-1.2-.047-1.194,1.512,0,1.559a159.986,159.986,0,0,0,18.658-.36c1.182-.092,1.193-1.652,0-1.559" transform="translate(-174.645 -29.577)"/>
              <path id="Trazado_777278" data-name="Trazado 777278" d="M436.633,62.584,424.765,62.1c-1.2-.048-1.193,1.511,0,1.559l11.868.479c1.2.048,1.193-1.511,0-1.559" transform="translate(-161.131 -29.833)"/>
              <path id="Trazado_777279" data-name="Trazado 777279" d="M391.6,61.8l-12.428-.557c-1.2-.054-1.193,1.505,0,1.559l12.428.557c1.2.054,1.193-1.505,0-1.559" transform="translate(-143.801 -29.42)"/>
              <path id="Trazado_777280" data-name="Trazado 777280" d="M361.041,61.5l-14.69.557c-1.192.045-1.2,1.6,0,1.559l14.69-.557c1.192-.045,1.2-1.6,0-1.559" transform="translate(-131.323 -29.541)"/>
              <path id="Trazado_777281" data-name="Trazado 777281" d="M332.023,61.423h-8.478a.787.787,0,1,0,0,1.559h8.478a.787.787,0,1,0,0-1.559" transform="translate(-122.652 -29.506)"/>
              <path id="Trazado_777282" data-name="Trazado 777282" d="M297.157,61.423H289.81a.787.787,0,1,0,0,1.559h7.347a.787.787,0,1,0,0-1.559" transform="translate(-109.828 -29.506)"/>
              <path id="Trazado_777283" data-name="Trazado 777283" d="M256.489,62.831l-18.646-.579a.787.787,0,1,0,0,1.559l18.646.579a.787.787,0,1,0,0-1.559" transform="translate(-90.073 -29.904)"/>
              <path id="Trazado_777284" data-name="Trazado 777284" d="M219.273,64.158H206.839a.787.787,0,1,0,0,1.559h12.434a.787.787,0,1,0,0-1.559" transform="translate(-78.287 -30.819)"/>
              <path id="Trazado_777285" data-name="Trazado 777285" d="M163.745,62.335h-15.26a.787.787,0,1,0,0,1.559h15.26a.787.787,0,1,0,0-1.559" transform="translate(-56.104 -29.944)"/>
              <path id="Trazado_777286" data-name="Trazado 777286" d="M123.277,64.714l-15.822-.539c-1.2-.041-1.194,1.518,0,1.559l15.822.539c1.2.041,1.194-1.518,0-1.559" transform="translate(-40.508 -30.827)"/>
              <path id="Trazado_777287" data-name="Trazado 777287" d="M106.864,148.3,105,117.026a1.7,1.7,0,0,1,1.767-1.637,1.733,1.733,0,0,1,1.953,1.637l-1.86,31.27" transform="translate(-39.916 -55.428)"/>
              <path id="Trazado_777288" data-name="Trazado 777288" d="M103.867,30.4c-.294-5.535-1.181-20.321-1.752-22.243-.672-2.257-1.246-5.07.288-6.787A4.631,4.631,0,0,1,105.85,0a3.222,3.222,0,0,1,2.7.941c1.41,1.6.131,4.634-.9,7.072-.143.34-.279.661-.395.954-1.9,4.767-1.123,21.184-1.115,21.35Zm2.194-28.493-.116,0c-1.217.043-1.595.466-1.719.6-.718.8-.684,2.547.1,5.182a15.3,15.3,0,0,1,.343,2.065,10.549,10.549,0,0,1,.43-1.4c.121-.3.26-.633.408-.984.618-1.466,1.9-4.517,1.213-5.3a.9.9,0,0,0-.658-.17" transform="translate(-38.557 0)"/>
              <line id="Línea_389" data-name="Línea 389" y1="12.703" transform="translate(66.097 36.103)"/>
              <rect id="Rectángulo_374156" data-name="Rectángulo 374156" width="3.027" height="12.703" transform="translate(64.583 36.103)"/>
            </g>
          </g>
        </g>
      </g>
    </g>
  </g>
</svg>
