<svg xmlns="http://www.w3.org/2000/svg" xmlns:xlink="http://www.w3.org/1999/xlink" width="444" height="343" viewBox="0 0 444 343">
  <defs>
    <clipPath id="clip-path">
      <rect id="Rectángulo_374748" data-name="Rectángulo 374748" width="240" height="131.022" fill="none"/>
    </clipPath>
    <clipPath id="clip-path-2">
      <rect id="Rectángulo_374750" data-name="Rectángulo 374750" width="236" height="152.932" fill="none"/>
    </clipPath>
  </defs>
  <g id="Grupo_1066278" data-name="Grupo 1066278" transform="translate(6740 8143)">
    <path id="Figura_25_Hilvan_flojo" data-name="Figura 25_Hilvan_flojo" d="M20,0H424a20,20,0,0,1,20,20V343a0,0,0,0,1,0,0H0a0,0,0,0,1,0,0V20A20,20,0,0,1,20,0Z" transform="translate(-6740 -8143)" fill="#fff"/>
    <g id="Grupo_1066277" data-name="Grupo 1066277" transform="translate(-14 -1.91)">
      <g id="Grupo_1066273" data-name="Grupo 1066273" transform="translate(-6624 -8121.09)">
        <g id="Grupo_1066272" data-name="Grupo 1066272" transform="translate(0 0)" clip-path="url(#clip-path)">
          <path id="Trazado_777628" data-name="Trazado 777628" d="M234.985,43.169c-1.111-9.106-5.506-27.951-9.475-36.362-1.443-3.054-44.908,5.822-63.037,15.4-4.573,2.416-10.756,2.685-15.687,4.358-5.077,1.723-10.39,5.03-15.687,5.809-11.242,1.655-22.68-1.569-34.079-1.741-20.931-.314-40.733-4.217-61.2-7.263-4.952-.737-9.352-6.23-14.366-6.089-4.779.136-8.51,1.3-8.97,6.554A63.4,63.4,0,0,1,9.44,39.613C7.837,44.2,5.756,48.6,4.151,53.182.81,62.717,1.09,71.9,5.451,81.07A56.441,56.441,0,0,0,22.6,101.437c16.081,12.157,36.709,16.063,56.637,15.791,11.331-.157,22.617-1.326,33.959-1,10.9.314,21.734,1.582,32.565,2.729,20.688,2.2,42.461,4.123,62.579-2.455,8.246-2.7,16.241-6.981,21.629-13.823,6.052-7.684,6.973-17.289,6.991-26.683a266.513,266.513,0,0,0-1.977-32.827" transform="translate(3.039 10.002)" fill="#fedcd3"/>
          <path id="Trazado_777629" data-name="Trazado 777629" d="M116.8,38.731c-2.578,0-5.093-.044-7.527-.11A376.472,376.472,0,0,1,.632,19.586L3.1,12.14A368.633,368.633,0,0,0,109.479,30.784c11.608.3,25.206.149,37.99-3.365,8.322-2.288,16.463-6.052,24.34-9.689C180.754,13.6,190,9.327,199.9,6.95c10.928-2.622,22.108-2.831,32.921-3.035l.149,7.843c-10.395.193-21.14.395-31.237,2.821-9.148,2.2-17.642,6.118-26.633,10.27-8.162,3.773-16.607,7.673-25.551,10.131-11.025,3.033-22.4,3.752-32.751,3.752" transform="translate(1.02 6.321)" fill="#ff8e6c"/>
          <path id="Trazado_777630" data-name="Trazado 777630" d="M231.107,6.155c.193-.005.382.034.573.047a13.917,13.917,0,0,1,1.9-.058l.144.008L233.7,4.712l-.05-1.307-1.307.026c-10.873.2-22.121.416-33.177,3.069-10.019,2.408-19.323,6.7-28.369,10.881-7.815,3.611-15.9,7.344-24.1,9.6-12.581,3.456-26.071,3.616-37.606,3.318a367.342,367.342,0,0,1-106-18.578l-1.242-.41L.9,14.14c.7.107,1.4.264,2.107.363l-.282-.039a1.324,1.324,0,0,1,.659.178l.084.065.031-.094a370,370,0,0,0,105.513,18.3c11.726.3,25.454.133,38.372-3.412,8.411-2.314,16.591-6.092,24.557-9.77,8.879-4.1,18.061-8.343,27.828-10.688,10.345-2.484,20.983-2.777,31.334-2.975Z" transform="translate(1.455 5.498)" fill="#1d1d1b"/>
          <path id="Trazado_777631" data-name="Trazado 777631" d="M234.983,6.53c-.939-.068-1.88-.1-2.821-.1-9.9.191-20.061.5-29.71,2.821-9.286,2.23-17.833,6.175-26.887,10.361-8.113,3.746-16.5,7.624-25.342,10.053-9.195,2.528-19.491,3.7-32.4,3.7-2.567,0-5.072-.044-7.493-.11A375.2,375.2,0,0,1,3.307,14.7l.05-.149a8.245,8.245,0,0,1-2.515-.729L0,16.355l1.242.413a377.841,377.841,0,0,0,109.014,19.1c2.447.065,4.97.11,7.564.11,13.153,0,23.671-1.208,33.1-3.8,9.043-2.486,17.535-6.408,25.75-10.2,8.926-4.123,17.36-8.018,26.393-10.186C213.022,9.4,223.694,9.2,234.016,9.006l1.307-.024-.047-2.426-.293-.026" transform="translate(0 10.378)" fill="#1d1d1b"/>
          <path id="Trazado_777632" data-name="Trazado 777632" d="M50.168,91.435l-1.563-2.1c4.732-3.529,7.347-7.221,7.773-10.978.366-3.231-.86-6.536-3.65-9.822a49.95,49.95,0,0,1-9.318-15.862c-1.543-4.465-2.512-7.156-2.515-7.161-4.56-14.876-4.437-25.525.34-31.708A13.356,13.356,0,0,1,51.768,8.615l.35.063c5.49,1.8,9.211,4.8,11.054,8.92,2.933,6.557-.026,13.472-.154,13.762-3.1,6.931-3.028,20.821-3.028,20.963l-2.614.018c-.005-.591-.078-14.6,3.252-22.04.021-.05,2.614-6.167.149-11.655-1.514-3.365-4.638-5.862-9.281-7.422a10.791,10.791,0,0,0-8.22,4.217c-2.889,3.77-5.216,11.906.1,29.245,0,0,.973,2.7,2.507,7.137a47.388,47.388,0,0,0,8.839,15.023c3.231,3.8,4.7,7.888,4.254,11.809-.51,4.5-3.472,8.8-8.805,12.779" transform="translate(60.64 13.902)" fill="#66cff5"/>
          <path id="Trazado_777633" data-name="Trazado 777633" d="M59.57,41.211l-2.609-.12c.9-19.543-2.471-25.423-4.562-27.185a2.669,2.669,0,0,0-1.888-.8l-.191.042-.193-.016a6.681,6.681,0,0,0-5.76,2.021c-5.365,5.676-3.326,20.774-3.3,20.926l-2.588.363c-.094-.672-2.235-16.492,3.99-23.083a9.239,9.239,0,0,1,7.731-2.845,5.215,5.215,0,0,1,3.89,1.391c4.366,3.686,6.212,13.545,5.485,29.3" transform="translate(61.418 16.93)" fill="#66cff5"/>
          <path id="Trazado_777634" data-name="Trazado 777634" d="M52.47,30.526l-2.4-1.041c.133-.3,3.281-7.441,8.724-8.309,2.889-.458,5.773.9,8.557,4.042L65.4,26.952c-2.152-2.429-4.243-3.5-6.183-3.195-4.029.638-6.716,6.709-6.743,6.769" transform="translate(80.835 34.049)" fill="#66cff5"/>
          <path id="Trazado_777635" data-name="Trazado 777635" d="M66.8,43.793a1.31,1.31,0,0,1-1.161-.706c-7.409-14.317-9.383-24.8-5.862-31.146a10.419,10.419,0,0,1,7.788-5.326,1.308,1.308,0,0,1,.46.044,16.539,16.539,0,0,1,10.7,8.306c4.941,9.443.541,22.461.35,23.01a1.274,1.274,0,0,1-1.438.863,1.3,1.3,0,0,1-1.1-1.265c-.316-16.393-3.595-20.448-5.522-21.407a3.519,3.519,0,0,0-3.433.358c-3.712,2.784-1.673,17.2.489,25.637A1.3,1.3,0,0,1,66.8,43.793m.769-34.545a7.836,7.836,0,0,0-5.53,4.005c-1.616,2.957-2.379,8.463,1.4,18.594-.881-6.829-.988-14.748,2.58-17.423a6.186,6.186,0,0,1,6.118-.62c3.119,1.522,5.216,6,6.262,13.349A21.7,21.7,0,0,0,76.4,16.172a13.945,13.945,0,0,0-8.832-6.923" transform="translate(93.773 10.674)" fill="#66cff5"/>
          <path id="Trazado_777636" data-name="Trazado 777636" d="M87.538,37.182a1.3,1.3,0,0,1-1.169-.722c-7.234-14.463-9.1-25-5.556-31.313A10.076,10.076,0,0,1,88.27.005a1.3,1.3,0,0,1,.476.047,16.119,16.119,0,0,1,10.246,8.1c4.949,9.443.638,22.644.452,23.2a1.307,1.307,0,0,1-2.546-.387C96.586,14.4,93.376,10.408,91.488,9.506a3.287,3.287,0,0,0-3.15.387c-3.6,2.792-1.624,17.227.468,25.669a1.3,1.3,0,0,1-1.268,1.621m.737-34.542a7.517,7.517,0,0,0-5.208,3.838c-1.613,2.915-2.418,8.361,1.132,18.4-.808-6.74-.85-14.424,2.536-17.051a5.918,5.918,0,0,1,5.882-.68c3.012,1.441,5.054,5.77,6.1,12.913A21.821,21.821,0,0,0,96.67,9.354a13.537,13.537,0,0,0-8.395-6.714" transform="translate(127.651 0.001)" fill="#66cff5"/>
          <path id="Trazado_777637" data-name="Trazado 777637" d="M72.226,23.954a1.232,1.232,0,0,1-.387-.06,1.3,1.3,0,0,1-.863-1.631c.078-.251,1.945-6.113,6.779-7.425,3.234-.873,6.839.492,10.748,4.055a1.307,1.307,0,0,1-1.762,1.932c-3.2-2.92-6-4.084-8.29-3.467-3.448.928-4.962,5.631-4.975,5.679a1.313,1.313,0,0,1-1.25.918" transform="translate(114.492 23.541)" fill="#66cff5"/>
          <path id="Trazado_777638" data-name="Trazado 777638" d="M2.444,16.844l9.13.549L85.188,35.846c1.608,0,10.557.05,15.8,1.537,3.825,1.088,7.919,3.854,7.867,6.439-.042,2.042-2.28,2.9-6.651,2.549-8.8-.709-15.859-6.235-17.579-7.689ZM104.7,42.235a14.057,14.057,0,0,0-4.118-1.977,53.006,53.006,0,0,0-10.813-1.312,27.475,27.475,0,0,0,12.149,4.421c3.218.259,3.78-.293,3.786-.3a5.431,5.431,0,0,0-1-.837" transform="translate(3.946 27.194)"/>
          <path id="Trazado_777639" data-name="Trazado 777639" d="M45.654,62.5l-1.563-2.1c4.732-3.529,7.347-7.221,7.773-10.978.366-3.231-.86-6.536-3.65-9.822l-1.42-1.658c-3-3.469-4.646-5.383-6.437-10.565l2.471-.855c1.629,4.711,3.072,6.382,5.945,9.713l1.433,1.673c3.231,3.8,4.7,7.888,4.254,11.809-.51,4.5-3.472,8.8-8.805,12.779" transform="translate(65.154 42.832)" fill="#66cff5"/>
        </g>
      </g>
      <g id="Grupo_1066276" data-name="Grupo 1066276" transform="translate(-12)">
        <g id="Grupo_1066275" data-name="Grupo 1066275" transform="translate(-6610 -7971.5)">
          <g id="Grupo_1066274" data-name="Grupo 1066274" transform="translate(0 0)" clip-path="url(#clip-path-2)">
            <path id="Trazado_777640" data-name="Trazado 777640" d="M5.314,22.9S26.571-22.81,83.445,14.93c0,0,27.11,34.549,75.481,41.194,0,0,33.222.4,25.781,46.048l-18.88,11.108L4.063,116.189Z" transform="translate(5.656 0.001)" fill="#fedcd3"/>
            <path id="Trazado_777641" data-name="Trazado 777641" d="M191.85,85.68c-9.733.153-19.038-1.072-28.67-2.705-8.886-1.5-17.234-5.757-25.7-8.728a99.311,99.311,0,0,0-25.589-4.925A85.812,85.812,0,0,0,85.064,71.3c-9.051,2.189-16.2,5.224-25.572,5.308-9.75.089-24.833-1.33-34.492-1.976-3.763-.254-6.332.292-6.482,2.332-.249,3.365-1.557,6.965-2.184,10.812-.277,1.715-3.373,6.035-5.966,3.88-2.935-2.44-.545-7.36.05-10.563.954-5.126,1.055-10.273,1.957-15.414.923-5.255.684-9.616.691-14.945.007-9.963-1.686-36.532-1.873-38.259C10.7,7.932.494,20.832.494,22.788c0,3.889.2,7.91,0,12.4-.486,11.008-.627,98.211,0,101.127,14.773-3.3,166.741,2.091,167.057-.665.39-3.389.751-9.1,2.1-12.326,5.686-13.6,20.028-21.2,25.955-34.762,1.038-2.375-.785-2.923-3.755-2.878" transform="translate(0.104 16.024)" fill="#ff9071"/>
            <path id="Trazado_777642" data-name="Trazado 777642" d="M.25,13.464V133.593H191.607" transform="translate(0.348 18.741)" fill="none" stroke="#1d1d1b" stroke-miterlimit="10" stroke-width="0.5"/>
            <path id="Trazado_777643" data-name="Trazado 777643" d="M4.51,6.241S9.825,62.053,6.371,81.188c0,0-6.186,24.742,1.7,17.667a11.972,11.972,0,0,0,3.777-7.5c.206-1.667.474-3.755.785-5.934a4.328,4.328,0,0,1,4.8-3.691c8.5,1.031,28.555,3.071,45.818,1.851,0,0,40.929-15.679,73.883,0,0,0,19.7,10.9,57.706,9.833" transform="translate(5.656 8.687)" fill="none" stroke="#1d1d1b" stroke-miterlimit="10" stroke-width="0.5"/>
            <path id="Trazado_777644" data-name="Trazado 777644" d="M190.355,51.957l-34.284-1.062s-19.408-2.911-37.13-5.035a175.01,175.01,0,0,0-39-.294c-21.618,2.26-59.321,5.3-75.354,1.067" transform="translate(6.384 62.106)" fill="none" stroke="#1d1d1b" stroke-miterlimit="10" stroke-width="0.5"/>
            <path id="Trazado_777645" data-name="Trazado 777645" d="M122.956,60.386a4.646,4.646,0,0,0-8.738,1.49l-4.329-.089a4.428,4.428,0,0,1-3.076-1.33,4.437,4.437,0,0,1,.713-3.272l2.457-3.569a4.644,4.644,0,1,0-1.964-1.985,4.518,4.518,0,0,0,.466.725l-6.21,7.757L82.312,64.07l-1.469,1.5,17.808-.923-4.6,5.753a9.736,9.736,0,0,1,1.863.586,2.575,2.575,0,0,1,.811.588l7.724-7.228,9.922-.517a4.647,4.647,0,1,0,8.59-3.442M110.943,47.146a2.656,2.656,0,1,1-1.153,3.576,2.656,2.656,0,0,1,1.153-3.576m-6.968,15.514-.608-1.182,1.182-.608.608,1.182Zm16.057,2.21a2.656,2.656,0,1,1,1.151-3.576,2.657,2.657,0,0,1-1.151,3.576" transform="translate(112.53 62.446)" fill="#41a5d4"/>
            <line id="Línea_410" data-name="Línea 410" x1="42.857" y1="7.107" transform="translate(167.36 127.609)" fill="#41a5d4"/>
            <rect id="Rectángulo_374749" data-name="Rectángulo 374749" width="4.782" height="35.547" transform="matrix(0.164, -0.987, 0.987, 0.164, 174.758, 131.259)" fill="#41a5d4"/>
            <path id="Trazado_777646" data-name="Trazado 777646" d="M80.239,51.736,69.968,55.595l8.477,6.965Z" transform="translate(97.392 72.015)" fill="#41a5d4"/>
            <path id="Trazado_777647" data-name="Trazado 777647" d="M47.732,30.684,45.17,25.867,42.278,30.5l1.538.053-.586,16.87,2.378.084.586-16.87Z" transform="translate(58.849 36.006)" fill="#1d1d1b"/>
            <path id="Trazado_777648" data-name="Trazado 777648" d="M14.944,43.9s0,18.138-2.392,29.7" transform="translate(17.472 61.111)" fill="#41a5d4"/>
            <path id="Trazado_777649" data-name="Trazado 777649" d="M14.4,73.846l-2.342-.486C14.4,62.053,14.429,44.085,14.429,43.9h2.392c0,.746-.029,18.394-2.418,29.943" transform="translate(16.788 61.111)" fill="#41a5d4"/>
            <path id="Trazado_777650" data-name="Trazado 777650" d="M17.006,43.9s0,18.138-2.392,29.7" transform="translate(20.342 61.111)" fill="#41a5d4"/>
            <path id="Trazado_777651" data-name="Trazado 777651" d="M16.466,73.846l-2.342-.486c2.339-11.307,2.368-29.275,2.368-29.457h2.392c0,.746-.029,18.394-2.418,29.943" transform="translate(19.66 61.111)" fill="#41a5d4"/>
            <path id="Trazado_777652" data-name="Trazado 777652" d="M30.151,42.418s0,18.138-2.392,29.7" transform="translate(38.639 59.044)" fill="#41a5d4"/>
            <path id="Trazado_777653" data-name="Trazado 777653" d="M29.611,72.361l-2.342-.486c2.339-11.307,2.368-29.275,2.368-29.457h2.392c0,.746-.029,18.394-2.418,29.943" transform="translate(37.957 59.044)" fill="#41a5d4"/>
            <path id="Trazado_777654" data-name="Trazado 777654" d="M32.213,42.418s0,18.138-2.392,29.7" transform="translate(41.51 59.044)" fill="#41a5d4"/>
            <path id="Trazado_777655" data-name="Trazado 777655" d="M31.673,72.361l-2.342-.486C31.67,60.568,31.7,42.6,31.7,42.418h2.392c0,.746-.029,18.394-2.418,29.943" transform="translate(40.827 59.044)" fill="#41a5d4"/>
            <path id="Trazado_777656" data-name="Trazado 777656" d="M47.165,42.418s0,21.04-2.392,34.449" transform="translate(62.322 59.044)" fill="#41a5d4"/>
            <path id="Trazado_777657" data-name="Trazado 777657" d="M46.635,77.076l-2.354-.421c2.344-13.149,2.373-34.026,2.373-34.236h2.392c0,.213-.029,21.3-2.411,34.657" transform="translate(61.637 59.046)" fill="#41a5d4"/>
            <path id="Trazado_777658" data-name="Trazado 777658" d="M49.228,42.418s0,21.04-2.392,34.449" transform="translate(65.194 59.044)" fill="#41a5d4"/>
            <path id="Trazado_777659" data-name="Trazado 777659" d="M48.7,77.076l-2.354-.421c2.344-13.149,2.373-34.026,2.373-34.236h2.392c0,.213-.029,21.3-2.411,34.657" transform="translate(64.509 59.046)" fill="#41a5d4"/>
            <path id="Trazado_777660" data-name="Trazado 777660" d="M66.774,44.862s0,17.468-2.392,28.6" transform="translate(89.617 62.446)" fill="#41a5d4"/>
            <path id="Trazado_777661" data-name="Trazado 777661" d="M66.235,73.716l-2.342-.5c2.339-10.879,2.368-28.177,2.368-28.349h2.392c0,.718-.029,17.724-2.418,28.854" transform="translate(88.936 62.446)" fill="#41a5d4"/>
            <path id="Trazado_777662" data-name="Trazado 777662" d="M68.836,44.862s0,17.468-2.392,28.6" transform="translate(92.487 62.446)" fill="#41a5d4"/>
            <path id="Trazado_777663" data-name="Trazado 777663" d="M68.3,73.716l-2.342-.5c2.339-10.879,2.368-28.177,2.368-28.349h2.392c0,.718-.029,17.724-2.418,28.854" transform="translate(91.806 62.446)" fill="#41a5d4"/>
          </g>
        </g>
        <text id="Abrir" transform="translate(-6512 -7913)" fill="#12263f" font-size="5" font-family="Roboto-Regular, Roboto"><tspan x="0" y="0">Abrir</tspan></text>
      </g>
    </g>
  </g>
</svg>
