<svg xmlns="http://www.w3.org/2000/svg" xmlns:xlink="http://www.w3.org/1999/xlink" width="444" height="343" viewBox="0 0 444 343">
  <defs>
    <clipPath id="clip-path">
      <rect id="Rectángulo_374173" data-name="Rectángulo 374173" width="306.079" height="310.191" fill="none"/>
    </clipPath>
  </defs>
  <g id="Grupo_1066285" data-name="Grupo 1066285" transform="translate(6740 9151)">
    <path id="Figura_19_Punto_deslizado" data-name="Figura 19_Punto_deslizado" d="M20,0H424a20,20,0,0,1,20,20V343a0,0,0,0,1,0,0H0a0,0,0,0,1,0,0V20A20,20,0,0,1,20,0Z" transform="translate(-6740 -9151)" fill="#fff"/>
    <g id="Grupo_1066223" data-name="Grupo 1066223" transform="translate(-6671.54 -9130.192)">
      <g id="Grupo_1066222" data-name="Grupo 1066222" transform="translate(0 0.001)" clip-path="url(#clip-path)">
        <path id="Trazado_777392" data-name="Trazado 777392" d="M167.816,1.547,2.329,123.646,97.593,265.973,154.9,298.611,296.48,169.124s-45.1-47.5-79.268-98.67c0,0-32.689-56.652-49.4-68.908" transform="translate(5.626 3.736)" fill="#ff8e6b"/>
        <path id="Trazado_777393" data-name="Trazado 777393" d="M24.194,166l47.979,54.759a3.928,3.928,0,0,0,.574.543c3.006,2.333,27.21,19.62,54.448-5.588L238.2,110.724a3.355,3.355,0,0,0,.311-5.1L210.6,74.81,180.806,35.084a4.361,4.361,0,0,0-6.234-.492L110.041,91.22l-85.3,68.5a4.356,4.356,0,0,0-.55,6.271" transform="translate(55.835 80.947)" fill="#fedcd3"/>
        <path id="Trazado_777394" data-name="Trazado 777394" d="M152.346,2.687S122.56,34.734,50.07,55.612c0,0-78.185,28.464-35.678,113.86l48.744,54.609,143.3-126.72s34.524,15.983-54.09-94.673" transform="translate(4.191 6.49)" fill="#fedcd3"/>
        <path id="Trazado_777395" data-name="Trazado 777395" d="M211.51,77.5c-41.881-28.3-66.383-67.374-66.383-67.374C137.537,30.62,67.7,79.391,67.7,79.391c-38.336,40.99-54.94,41.273-64.846,49.963,1.821,15.9,53.02,72.771,53.02,72.771Z" transform="translate(6.904 24.459)" fill="#e0b9b4"/>
        <path id="Trazado_777396" data-name="Trazado 777396" d="M211.911,72.323C169.4,54.106,146.252,12.737,146.252,12.737c-7.59,20.495-72.112,67.934-72.112,67.934C35.8,121.661,2.767,136.619,2.767,136.619L60.638,199.8Z" transform="translate(6.685 30.769)" fill="#ff8e6b"/>
        <path id="Trazado_777397" data-name="Trazado 777397" d="M185.924,176.6C145.689,140.879,95.565,63.343,95.063,62.564,74.469,25.5,49.516,1.472,49.267,1.233L50.449,0c.249.239,25.383,24.43,46.08,61.686.471.731,50.469,78.072,90.53,113.638Z" transform="translate(119.021 -0.002)"/>
        <path id="Trazado_777398" data-name="Trazado 777398" d="M17.6,238.642l-1.1-1.308L177.817,101.387C172.492,66.658,110.433,2.4,109.8,1.751l1.23-1.189c2.593,2.671,63.63,65.885,68.549,101.054l.061.465-.359.307Z" transform="translate(39.864 1.356)"/>
        <path id="Trazado_777399" data-name="Trazado 777399" d="M.728,143.609,0,142.062c.42-.2,42.435-20.147,80.2-60.535.758-.577,64.515-47.627,71.934-67.65l.646-1.735.9,1.616c.232.41,23.511,41.332,65.253,59.217l-.673,1.571c-37.752-16.177-60.569-50.923-65.194-58.486-10,21.185-69.157,64.846-71.732,66.738C43.446,123.333,1.148,143.411.728,143.609" transform="translate(0 29.329)"/>
        <path id="Trazado_777400" data-name="Trazado 777400" d="M176.366,33.768c7.692,22.879,45.823,71.627,45.823,71.627s-25.81,8.727-64.9,46.3L71.445,221.218,22.551,158.5l91.715-70.264Z" transform="translate(54.479 81.576)" fill="#ff8e6b"/>
        <path id="Trazado_777401" data-name="Trazado 777401" d="M21.926,163.963l-.96-1.414c.82-.557,82.953-56.481,158.641-128.09a4.264,4.264,0,0,1,3.576-1.2c3.242.359,6.668,3.863,10.186,10.422.342.5,38.824,57.222,61.912,70.253l-.84,1.489C231,102.187,193.5,46.905,191.911,44.559c-4.29-7.983-7.423-9.441-8.915-9.605a2.673,2.673,0,0,0-2.155.683C104.989,107.407,22.746,163.406,21.926,163.963" transform="translate(50.65 80.264)"/>
        <path id="Trazado_777402" data-name="Trazado 777402" d="M35.922,228.455l-1.086-1.319,92.227-75.907c34.257-32.929,58.687-43.88,64.064-46.032-5.414-6.982-38.09-49.659-45.253-70.967l1.623-.543c7.552,22.48,45.3,70.885,45.683,71.37l.741.95-1.141.386c-.256.089-26.114,9.137-64.583,46.11Z" transform="translate(84.158 81.383)"/>
        <rect id="Rectángulo_374169" data-name="Rectángulo 374169" width="1.706" height="35.433" transform="matrix(0.685, -0.728, 0.728, 0.685, 114.779, 178.116)" fill="#29abe2"/>
        <rect id="Rectángulo_374170" data-name="Rectángulo 374170" width="1.712" height="36.65" transform="matrix(0.932, -0.362, 0.362, 0.932, 140.375, 159.951)" fill="#29abe2"/>
        <rect id="Rectángulo_374171" data-name="Rectángulo 374171" width="1.709" height="35.841" transform="translate(153.94 147.42) rotate(-52.871)" fill="#29abe2"/>
        <rect id="Rectángulo_374172" data-name="Rectángulo 374172" width="1.708" height="40.597" transform="matrix(0.968, -0.252, 0.252, 0.968, 185.509, 118.487)" fill="#29abe2"/>
        <path id="Trazado_777403" data-name="Trazado 777403" d="M58.324,72.579l-.386-1.664a6.755,6.755,0,0,0,3.747-3.286c1.834-3.074,3.358-9.332.178-21.667-3.2-12.413-1.694-22.107,4.236-27.289,5.264-4.591,13.465-4.967,23.1-1.038,20.662,8.417,22.821,16.57,22.9,16.912l-1.66.4c-.017-.068-2.217-7.716-21.885-15.73-9-3.669-16.584-3.4-21.332.745-5.342,4.669-6.692,13.991-3.7,25.578,3.344,12.994,1.616,19.709-.42,23.057a8.354,8.354,0,0,1-4.775,3.986" transform="translate(139.968 36.087)" fill="#29abe2"/>
        <path id="Trazado_777404" data-name="Trazado 777404" d="M83.01,125.668a17.041,17.041,0,0,1-10.364-3.324C59.7,112.79,59.659,86.034,59.721,82.3L31.161,56.371l1.148-1.264L61.446,81.556l-.01.4c-.01.294-.7,29.489,12.229,39.019,4.584,3.378,10.432,3.891,17.387,1.517,9.571-3.266,14.859-7.125,15.72-11.474,1.182-5.981-6.131-12.372-11.467-17.035-1.431-1.254-2.784-2.435-3.826-3.477-2.753-2.757-3.757-4.956-3.064-6.733.956-2.453,4.724-2.678,5.151-2.7l.072,1.708c-.792.038-3.163.406-3.631,1.616-.4,1.028.55,2.77,2.678,4.9,1,1,2.336,2.166,3.744,3.4,5.65,4.939,13.39,11.706,12.017,18.654-1,5.062-6.507,9.236-16.837,12.758a26.687,26.687,0,0,1-8.6,1.564" transform="translate(75.28 133.127)" fill="#29abe2"/>
        <path id="Trazado_777405" data-name="Trazado 777405" d="M12.865,111.89l7.846-5.831L92.1,73c1.322-1.124,8.731-7.324,13.919-9.506,3.781-1.592,8.762-1.7,10.213.912,1.148,2.06-.2,4.475-4.007,7.177-7.665,5.441-16.69,4.874-18.948,4.632ZM111.88,65.731a11.935,11.935,0,0,0-4.54.912c-2.948,1.24-6.873,4.065-9.677,6.244A24.125,24.125,0,0,0,110.243,68.8c2.8-1.988,2.944-2.927,2.948-2.938a4.648,4.648,0,0,0-1.312-.13" transform="translate(31.08 150.649)"/>
        <path id="Trazado_777406" data-name="Trazado 777406" d="M62.767,107.3a17.113,17.113,0,0,1-9.236-2.555C44.848,99.333,41.511,86.4,40.243,76.5c-.953-7.453-.7-7.945-.577-8.181l1.517.789-.758-.393.83.181c-.014.1-.113,1.165.683,7.385,1.223,9.534,4.383,21.96,12.5,27.019,4.406,2.743,9.913,3.03,16.372.823C80.376,100.86,85.664,97,86.525,92.649c1.182-5.981-6.131-12.369-11.467-17.035-1.431-1.25-2.784-2.432-3.826-3.477-2.753-2.753-3.757-4.956-3.064-6.729.956-2.453,4.724-2.681,5.151-2.7l.072,1.708c-.792.034-3.163.406-3.631,1.612-.4,1.032.55,2.774,2.678,4.9,1,1,2.336,2.166,3.744,3.4,5.65,4.939,13.39,11.7,12.017,18.654-1,5.059-6.507,9.233-16.837,12.758a26.734,26.734,0,0,1-8.594,1.561" transform="translate(95.525 151.493)" fill="#29abe2"/>
      </g>
    </g>
  </g>
</svg>
