<svg xmlns="http://www.w3.org/2000/svg" width="444" height="353.444" viewBox="0 0 444 353.444">
  <g id="Grupo_1066307" data-name="Grupo 1066307" transform="translate(6228.5 9144.444)">
    <g id="Grupo_1066286" data-name="Grupo 1066286" transform="translate(-13.5 17)">
      <path id="Figura_20_Puntada_invisible" data-name="Figura 20_Puntada_invisible" d="M20,0H424a20,20,0,0,1,20,20V343a0,0,0,0,1,0,0H0a0,0,0,0,1,0,0V20A20,20,0,0,1,20,0Z" transform="translate(-6215 -9151)" fill="#fff"/>
      <g id="Grupo_1066221" data-name="Grupo 1066221">
        <path id="Trazado_777289" data-name="Trazado 777289" d="M322.3,152.627c-2.125-16.323-7.959-32.616-19.24-44.6C289.4,93.51,269.463,86.842,250.028,82.447s-39.563-7.166-57.409-16.027c-11.541-5.731-21.754-13.842-33.173-19.811C143.1,38.064,124.752,34.143,106.5,31.48a332.671,332.671,0,0,0-57.8-3.732c-10.737.317-22.181,1.652-31.715,6.135A193.02,193.02,0,0,1,13.09,69.932C6.168,105.166-3.27,174.378,15.606,181.3S35.74,136,48.324,139.143s10.067,39.01,10.067,39.01,81.794,19.505,107.591,21.393S239.6,215.9,279.237,201.433c25.95-9.474,34.912-14.9,43.832-17.345a173.874,173.874,0,0,0-.773-31.461" transform="translate(-6198.605 -9051.532) rotate(-21)" fill="#f7d6cd"/>
        <path id="Trazado_777290" data-name="Trazado 777290" d="M333.7,240.681a2.308,2.308,0,0,1-.806-.146l-66.8-25.049a2.337,2.337,0,0,1-1.64.656,157.823,157.823,0,0,1-17.17-1.338c-12.539-1.719-19.9-4.639-22.513-8.929a7.421,7.421,0,0,1-.091-7.529,9.089,9.089,0,0,1,6.6-5.078c11.149-2.134,29.792,13.727,33.156,16.688l70.07,26.277a2.3,2.3,0,0,1-.807,4.449M233.568,197.652a7.62,7.62,0,0,0-1.43.128,4.478,4.478,0,0,0-3.35,2.621,2.886,2.886,0,0,0-.094,3.086c2.9,4.762,18.327,7.162,30.268,7.855-6.488-5.316-18.26-13.689-25.395-13.689" transform="translate(-6327.814 -9088.689) rotate(-21)"/>
        <path id="Trazado_777291" data-name="Trazado 777291" d="M461.237,287.35l59.5,27.909-61.3-23.684a2.3,2.3,0,1,1,1.8-4.225" transform="translate(-6451.382 -9090.578) rotate(-21)"/>
        <path id="Trazado_777292" data-name="Trazado 777292" d="M330.779,361.735c.106-.168-.1-.461,0-.629,12.525-20.577,10.325-47.283,8.075-71.265-11.291,1.613-18.144,7.158-48.972,18.414-39.639,14.471-87.458,0-113.254-1.888S69.036,284.973,69.036,284.973s2.517-35.864-10.067-39.01-13.842,49.077-32.718,42.155c0,0,39.639,16.359,105.074,23.91,52.383,6.044,161.335,38.044,199.453,49.706" transform="translate(-6246.824 -9147.444) rotate(-21)" fill="#da8666"/>
        <path id="Trazado_777293" data-name="Trazado 777293" d="M335.5,404.907a2.3,2.3,0,0,1-.694-.108c-1.407-.446-141.477-44.693-205.943-52.13-65-7.5-105.289-23.9-105.688-24.068a2.3,2.3,0,0,1,1.752-4.247c.394.163,40.149,16.331,104.462,23.751,64.9,7.489,205.394,51.868,206.8,52.315a2.3,2.3,0,0,1-.693,4.487" transform="translate(-6258.513 -9184.044) rotate(-21)"/>
        <path id="Trazado_777294" data-name="Trazado 777294" d="M324.75,305.445c-25.026,0-70.025-9.581-127.8-27.267-60.922-18.649-108.941-31.939-109.418-32.071a2.3,2.3,0,1,1,1.223-4.429c.479.133,48.555,13.438,109.54,32.107C259.211,292.432,305.625,302,329,300.742a2.3,2.3,0,1,1,.249,4.587q-2.127.116-4.5.115" transform="translate(-6273.318 -9135.055) rotate(-21)"/>
        <path id="Trazado_777295" data-name="Trazado 777295" d="M236.611,196.54c-18.139,0-35.857-2.833-50.512-5.177-8.7-1.391-16.218-2.594-22.491-3.052C137.921,186.431,59,167.66,55.651,166.861l-1.894-.451.136-1.943c.917-13.124-.535-34.671-8.333-36.621-3.558-.89-7.075,9.1-9.895,17.129-3.7,10.529-7.52,21.418-14.555,24.737a10.673,10.673,0,0,1-8.5.217C3.152,166.462-.916,150.987.171,122.619,1.186,96.153,6.423,67.188,8.628,55.964c5.379-27.385,4.01-46.741,2.533-53.149a2.3,2.3,0,0,1,4.475-1.041c.184.79,4.436,19.762-2.5,55.075-2.184,11.119-7.372,39.8-8.374,65.946-.959,25.033,2.389,40.24,9.428,42.821a6.168,6.168,0,0,0,4.96-.059c5.3-2.5,8.954-12.915,12.18-22.1,3.967-11.3,7.713-21.975,15.344-20.064,6.258,1.565,10.121,9.2,11.481,22.683a123.437,123.437,0,0,1,.424,16.761c12.33,2.905,82.2,19.2,105.364,20.9,6.469.474,14.074,1.69,22.881,3.1,25.376,4.058,60.128,9.616,89.418-1.078,13.579-4.957,22.6-8.85,29.179-11.692,13.063-5.64,17.947-7.749,32.08-7.322a2.3,2.3,0,1,1-.139,4.592c-13.1-.4-17.394,1.454-30.12,6.948-6.635,2.864-15.722,6.787-29.424,11.79-13.186,4.814-27.32,6.475-41.206,6.475" transform="translate(-6191.697 -9039.696) rotate(-21)"/>
        <path id="Trazado_777296" data-name="Trazado 777296" d="M222.338,224.19a29.773,29.773,0,0,0-5.932,7.4A49.7,49.7,0,0,0,213,239.2a55.14,55.14,0,0,0-2.98,15.847A67.022,67.022,0,0,0,216.791,287a56.845,56.845,0,0,0,22.28,24.617,44.263,44.263,0,0,0,16.911,5.764,35.161,35.161,0,0,0,17.661-2.563c6.29-2.609,11.971-6.421,17.72-10.023l18.363-11.5,4.51-2.826a2.3,2.3,0,1,0-2.318-3.967l-18.04,11.3c-5.645,3.536-11.211,7.294-17.081,10.452q-2.108,1.134-4.3,2.1c-.423.185-.171.074-.078.035q-.314.132-.63.257-.527.21-1.059.405c-.78.286-1.57.549-2.368.781a31.926,31.926,0,0,1-4.238.936c-.124.018-.573.073-.078.013-.164.02-.328.04-.492.058q-.492.054-.985.093-1.033.081-2.069.1a33.8,33.8,0,0,1-4.128-.2c-.2-.021-.392-.045-.587-.068-.1-.012-.448-.071.025,0-.325-.051-.651-.1-.975-.152q-1.073-.183-2.133-.428a39.773,39.773,0,0,1-4.012-1.156q-.946-.326-1.875-.7l-.372-.15c-.619-.247.42.187-.191-.08-.369-.161-.737-.324-1.1-.493a47.881,47.881,0,0,1-7.186-4.14c-.557-.387-1.1-.79-1.646-1.194s.35.279-.18-.137l-.32-.252q-.477-.38-.945-.77-1.635-1.364-3.155-2.86-1.477-1.453-2.834-3.022-.59-.681-1.156-1.382c-.19-.234-.376-.471-.563-.707-.063-.079-.262-.346.026.035-.128-.169-.257-.337-.383-.506a59.482,59.482,0,0,1-4.156-6.372q-.961-1.7-1.814-3.453-.409-.839-.793-1.69-.193-.426-.379-.855c-.062-.143-.124-.287-.185-.43s-.049-.115.05.117q-.072-.173-.143-.347A66.236,66.236,0,0,1,215.2,266.6c-.048-.311-.093-.622-.137-.933-.089-.631.058.5-.017-.137-.015-.125-.031-.25-.046-.374q-.124-1.028-.215-2.061-.173-1.965-.221-3.94a58.354,58.354,0,0,1,.323-7.741q.051-.462.109-.923c.017-.134.079-.564,0-.034.022-.153.043-.306.066-.459q.142-.963.319-1.92.353-1.91.847-3.789t1.132-3.7q.3-.87.641-1.727c.113-.286.229-.57.346-.854-.192.467-.03.071.02-.045.086-.2.172-.394.26-.59q.8-1.769,1.739-3.466c.349-.626.717-1.24,1.116-1.836q.3-.452.625-.891c.085-.115.171-.231.258-.345-.263.345.184-.224.238-.289a30.794,30.794,0,0,1,2.976-3.109,2.315,2.315,0,0,0,0-3.248,2.348,2.348,0,0,0-3.248,0" transform="translate(-6326.874 -9105.027) rotate(-21)" fill="#45d3ff"/>
        <path id="Trazado_777297" data-name="Trazado 777297" d="M289.894,64.833c-1.963,6.64-4.011,13.258-6.338,19.781-1.162,3.257-2.392,6.489-3.716,9.684l-.229.55c-.3.721.167-.389-.138.33q-.233.547-.469,1.094-.521,1.2-1.06,2.4-1.08,2.388-2.24,4.737a80.833,80.833,0,0,1-4.026,7.351c-1.415,2.239-2.957,4.4-4.566,6.5l-.232.3c.325-.424-.068.086-.112.142q-.3.382-.6.761-.67.845-1.354,1.678-1.392,1.7-2.835,3.353-2.845,3.266-5.86,6.38a130,130,0,0,1-13.1,12.009,2.3,2.3,0,0,0,0,3.248,2.368,2.368,0,0,0,3.248,0,126.276,126.276,0,0,0,11.7-10.588,155.939,155.939,0,0,0,11.561-12.984A85.282,85.282,0,0,0,278.6,107.85a173.419,173.419,0,0,0,8.453-19.436c2.721-7.353,5.052-14.843,7.274-22.359a2.3,2.3,0,1,0-4.43-1.221" transform="translate(-6313.545 -9026.046) rotate(-21)" fill="#45d3ff"/>
        <path id="Trazado_777298" data-name="Trazado 777298" d="M389.66,288.561q.68,3.44,1.221,6.9.25,1.609.47,3.222-.04-.3.017.134c.021.165.043.331.064.5q.048.373.094.745.108.871.206,1.741.776,6.844.991,13.735a2.3,2.3,0,1,0,4.594,0,174.32,174.32,0,0,0-3.228-28.2,2.311,2.311,0,0,0-2.825-1.6,2.356,2.356,0,0,0-1.6,2.826" transform="translate(-6419.877 -9101.896) rotate(-21)" fill="#45d3ff"/>
        <path id="Trazado_777299" data-name="Trazado 777299" d="M343.006,306.495q.8-1.325,1.717-2.571c.083-.113.516-.681.224-.3.138-.178.279-.354.42-.53q.516-.641,1.054-1.262c1.337-1.547,2.766-3.011,4.216-4.452a112.412,112.412,0,0,0,8.532-8.913,34.738,34.738,0,0,0,4.042-6.079,2.3,2.3,0,0,0-3.967-2.319,28.653,28.653,0,0,1-1.536,2.67q-.391.6-.81,1.188-.224.312-.453.62l-.173.23c-.386.511.289-.357-.112.142-1.273,1.585-2.636,3.086-4.057,4.539-2.885,2.951-5.951,5.729-8.676,8.834a41.34,41.34,0,0,0-4.387,5.891,2.3,2.3,0,0,0,3.967,2.318" transform="translate(-6395.454 -9107.761) rotate(-21)" fill="#45d3ff"/>
        <path id="Trazado_777300" data-name="Trazado 777300" d="M323.461,271.535a26.665,26.665,0,0,1,.591,2.716c.035.211.065.423.1.635-.059-.4.011.1.028.24q.086.747.143,1.5c.144,1.875.167,3.756.175,5.636a66.343,66.343,0,0,0,.663,11.417,23.321,23.321,0,0,0,2.055,6.241,2.311,2.311,0,0,0,3.143.824,2.355,2.355,0,0,0,.824-3.143c-.094-.191-.185-.384-.276-.577-.184-.39.056.169-.1-.23q-.272-.684-.5-1.385a22.874,22.874,0,0,1-.641-2.538c-.08-.413-.139-.829-.212-1.243-.046-.27,0,.05.01.088-.014-.105-.027-.21-.039-.315-.03-.245-.057-.491-.081-.737-.091-.921-.148-1.845-.184-2.77-.144-3.683.036-7.374-.228-11.053a34.073,34.073,0,0,0-1.038-6.527,2.3,2.3,0,0,0-4.43,1.221" transform="translate(-6386.622 -9105.73) rotate(-21)" fill="#45d3ff"/>
        <path id="Trazado_777301" data-name="Trazado 777301" d="M294.82,259.542q-10.125,11.934-19.683,24.332a2.3,2.3,0,0,0,.824,3.142,2.369,2.369,0,0,0,3.143-.824q-.16.208.1-.123l.3-.392.607-.783q.608-.783,1.218-1.563,1.145-1.463,2.3-2.92,2.344-2.962,4.721-5.9,4.793-5.919,9.722-11.725a2.3,2.3,0,0,0-3.248-3.248" transform="translate(-6362.711 -9109.803) rotate(-21)" fill="#45d3ff"/>
        <path id="Trazado_777302" data-name="Trazado 777302" d="M260.494,282.273l-5.088-26.527a2.31,2.31,0,0,0-2.826-1.6,2.356,2.356,0,0,0-1.6,2.825l5.088,26.527a2.31,2.31,0,0,0,2.825,1.6,2.357,2.357,0,0,0,1.6-2.826" transform="translate(-6350.951 -9111.787) rotate(-21)" fill="#45d3ff"/>
        <path id="Trazado_777303" data-name="Trazado 777303" d="M221.273,246.778q-10.057,11.042-20.366,21.85a2.3,2.3,0,0,0,3.248,3.248q10.308-10.807,20.366-21.85a2.3,2.3,0,1,0-3.248-3.248" transform="translate(-6326.398 -9117.051) rotate(-21)" fill="#45d3ff"/>
        <path id="Trazado_777304" data-name="Trazado 777304" d="M190.081,262.2a131.625,131.625,0,0,1-7.142-27.068,2.3,2.3,0,0,0-2.826-1.6,2.368,2.368,0,0,0-1.6,2.826,131.707,131.707,0,0,0,7.142,27.068,2.351,2.351,0,0,0,2.826,1.6,2.323,2.323,0,0,0,1.6-2.826" transform="translate(-6314.221 -9115.078) rotate(-21)" fill="#45d3ff"/>
        <path id="Trazado_777305" data-name="Trazado 777305" d="M148.822,231.619a97.978,97.978,0,0,0-19.129,18,2.354,2.354,0,0,0,0,3.248,2.323,2.323,0,0,0,3.248,0,95.842,95.842,0,0,1,8.652-9.376q2.3-2.176,4.734-4.2.609-.5,1.227-1,.309-.247.619-.492c.084-.066.582-.455.48-.376s.4-.3.486-.37q.315-.239.632-.475.68-.506,1.368-1a2.35,2.35,0,0,0,.824-3.143,2.324,2.324,0,0,0-3.143-.824" transform="translate(-6291.251 -9122.764) rotate(-21)" fill="#45d3ff"/>
      </g>
    </g>
  </g>
</svg>
