<svg xmlns="http://www.w3.org/2000/svg" width="236.296" height="270.528" viewBox="0 0 236.296 270.528">
  <g id="Grupo_1065997" data-name="Grupo 1065997" transform="translate(-18.607 -84.937)">
    <path id="Trazado_776470" data-name="Trazado 776470" d="M171.74,218.585c34.16,19.85,49,28.2,83.163,48.052-68.5,39.545-85.5,49.285-154,88.828-34.15-19.847-48.136-27.848-82.3-47.7C87.105,268.223,103.253,258.129,171.74,218.585Z" fill="#025157" fill-rule="evenodd"/>
    <g id="Grupo_1065996" data-name="Grupo 1065996">
      <g id="Grupo_1065983" data-name="Grupo 1065983">
        <path id="Trazado_776471" data-name="Trazado 776471" d="M111.574,146.5a127,127,0,0,0,.656-17.77c-.278-5.439-1.005-12.872-6.019-15.839a6.033,6.033,0,0,0-3.349-.949C86.975,113.319,102.53,159.881,111.574,146.5Z" fill="#6087a8" fill-rule="evenodd"/>
        <g id="Grupo_1065951" data-name="Grupo 1065951">
          <path id="Trazado_776472" data-name="Trazado 776472" d="M76.67,121.293c4.113-2.281,18.294-11.292,22.443-10.678,4.784.708,7.778,2.983,9.608,6.558,2.429,4.747,3.825,11.48,3.239,20.169-.341,5.068-1.9,9.956-1.964,16.253-.036,3.622-.092,8.459-.182,13.4-2.627,8.791-20.148,11.919-29.311,5.507a16.834,16.834,0,0,0,1.19-5.349c.494-7.21-12.14-26.9-12.045-36.87C69.69,125.854,73.413,123.1,76.67,121.293Z" fill="#729ec1" fill-rule="evenodd"/>
          <path id="Trazado_776473" data-name="Trazado 776473" d="M111.637,140.024c-1.132,4.212-1.656,15.212-1.67,16.448-.022,2.091-.027,4.439-.067,6.973-2.741,5.716-11.377,9.123-18.539,7.95.029-1.709-.351-16.865-.889-21.493C98.561,150.415,107.9,143.005,111.637,140.024Z" fill="#8fbce0" fill-rule="evenodd"/>
          <path id="Trazado_776474" data-name="Trazado 776474" d="M76.67,121.293c4.113-2.281,18.294-11.292,22.443-10.678a15.054,15.054,0,0,1,4.127,1.182c-5.968,1.489-18.957,7.727-24.8,13.223,5.941,4.564,7.263,8.311,7.918,14.266.2,1.786-.848,3.7-.361,6.078A107.753,107.753,0,0,1,88.128,171.9c2.336,1.085,6.268,1.194,10.108.26,5.118-1.246,7.369-1.967,10.939-4.94l.649-.815c-1.748,13.211-29.821,11.267-29.2,5.794a16.963,16.963,0,0,0,1.072-5.051c.494-7.21-12.14-26.9-12.045-36.87C69.69,125.854,73.413,123.1,76.67,121.293Z" fill="#6087a8" fill-rule="evenodd"/>
          <path id="Trazado_776475" data-name="Trazado 776475" d="M70.1,130.328c1.987,1.652,9.367-2.593,11.958,2.994,3.848,8.3-4.224,20.456-4.21,20.926-1.3-2.926-2.128-5.008-3.247-7.131C72.108,142.4,69.632,138.259,70.1,130.328Z" fill="#4d708c" fill-rule="evenodd"/>
          <path id="Trazado_776476" data-name="Trazado 776476" d="M101.16,115.753a15.57,15.57,0,0,1,3.015,10.185c-.087,3.67-2.533,5.839-.913,14.282a18.6,18.6,0,0,0,8.725-6.179c.54-7.326-2.106-18.622-6.957-20.95A38.746,38.746,0,0,0,101.16,115.753Z" fill="#8fbce0" fill-rule="evenodd"/>
          <path id="Trazado_776477" data-name="Trazado 776477" d="M85.152,121.922a22.985,22.985,0,0,0-4.274,3.354c2.747,3.633,4.571,4.955,6,7.315,2.927,4.832,1.51,10.168,1.822,13.443,2.546,1.416,8.148-.985,11.75-4.232,1.087-4.2.075-10.714-3.941-13.091C93.433,126.889,89.444,125.374,85.152,121.922Z" fill="#8fbce0" fill-rule="evenodd"/>
        </g>
        <g id="Grupo_1065957" data-name="Grupo 1065957">
          <g id="Grupo_1065952" data-name="Grupo 1065952">
            <path id="Trazado_776478" data-name="Trazado 776478" d="M104.01,254.836c.709,2.489.887,3.774,1.921,5.222,2.061,2.888,5.1,4.951,9.525,8.088,2.1,1.492,2.55,2.907.418,4.208-1.679,1.024-5.786.21-8.351-.393-4.813-1.133-6.759-4.03-8.405-4.783l-1.246.283c-1.021.018-5.032-1.6-5.815-2.649a28.559,28.559,0,0,1-.627-3.731c-.149-4.074.49-3.659,1.58-6.846C96.712,254.5,100.3,254.711,104.01,254.836Z" fill="#001e30" fill-rule="evenodd"/>
            <path id="Trazado_776479" data-name="Trazado 776479" d="M117.269,270.489c.021.643-.414,1.266-1.395,1.865-1.679,1.024-5.786.21-8.351-.393-4.813-1.133-6.759-4.03-8.405-4.783l-1.246.283c-1.021.018-5.032-1.6-5.815-2.649a28.559,28.559,0,0,1-.627-3.731c-.149-4.074.49-3.659,1.58-6.846,1.639.119,3.255.226,4.869.319.292,2.682-.1,7.308,2.108,9.03,2.468,1.925,4.393,2.437,6.043,3.44C111.283,270.218,114.755,272.814,117.269,270.489Z" fill-rule="evenodd"/>
            <path id="Trazado_776480" data-name="Trazado 776480" d="M105.178,259.411c-.525.775-1.557,1.212-3.264,1.637,2.753,3.1,3.14,2.813,6.838,4.891,1.863,2.129,2.122,2.532,3.312,3.219,1.419.82,3.423,1.663,4.266,1.057.362-.26-.125-.989-1.689-2.122-1.773-1.285-3.578-2.588-5.211-3.946A19.247,19.247,0,0,1,105.178,259.411Z" fill="#00314f" fill-rule="evenodd"/>
          </g>
          <g id="Grupo_1065953" data-name="Grupo 1065953">
            <path id="Trazado_776481" data-name="Trazado 776481" d="M110.9,177.46c.434,9.821-2.612,27.854-4.021,38.779-1.806,14-1.171,27.921-2.012,41.952-1.741,2.858-10.143,3.033-13.013-.984-.43-11.1-1.125-19.864-.811-25.938.262-5.055.5-7.968,2.138-12.461-1.327-9.1-4.874-35.527-4.869-44.206,0-.621.822-.234.844-.781,6.368,1.242,18.1-1.742,20.8-9.349A109.37,109.37,0,0,1,110.9,177.46Z" fill="#00314f" fill-rule="evenodd"/>
            <path id="Trazado_776482" data-name="Trazado 776482" d="M109.952,164.472a76.27,76.27,0,0,1,.763,9.3,99.1,99.1,0,0,1-8.3,6.818c-.629,4.26-.327,11.022-2.164,13.242-.706,6.626-.118,18.24-.23,24.928-2.756,13.022-3.453,22.21-1.694,41.486-2.535-.188-5.12-1.149-6.473-3.044-.43-11.1-1.125-19.864-.811-25.938.262-5.055.5-7.968,2.138-12.461-1.33-9.124-4.876-32.661-4.869-44.206,0-.621.822-.234.844-.781C95.524,175.063,107.26,172.079,109.952,164.472Z" fill="#001e30" fill-rule="evenodd"/>
            <path id="Trazado_776483" data-name="Trazado 776483" d="M110.832,176.477a42.8,42.8,0,0,1-6.06,7.212c-.835,7.329-1.329,23.693-2.312,35.76-1.165,14.292-1.174,25.627-1.053,40.1a5.612,5.612,0,0,0,3.222-1.669l1.493-35.529c1.018-6.724,2.09-15.06,3.043-22.721.235-1.884.947-7.144,1.391-12.567A74.171,74.171,0,0,0,110.832,176.477Z" fill="#003f66" fill-rule="evenodd"/>
          </g>
          <g id="Grupo_1065954" data-name="Grupo 1065954">
            <path id="Trazado_776484" data-name="Trazado 776484" d="M76.214,270.2a13.584,13.584,0,0,0-1.12,4.321c.06,1.171.379,2.31.364,3.79-.013,1.27-.078,2.35-.225,3.787-.15,1.471,0,2.166.649,2.754a22.581,22.581,0,0,0,5.651,2.932,5.942,5.942,0,0,0,2.591.349A11.54,11.54,0,0,0,87.6,287.5c.319-.12.647-1.36.67-2.435.048-2.251-.156-2.061-1.087-5.629-.319-1.219-.576-2.381-1.013-3.805a20.266,20.266,0,0,1-1.294-5.078L78.28,270.3Z" fill="#001e30" fill-rule="evenodd"/>
            <path id="Trazado_776485" data-name="Trazado 776485" d="M76.214,270.2a13.584,13.584,0,0,0-1.12,4.321c.06,1.171.379,2.31.364,3.79-.013,1.27-.078,2.35-.225,3.787-.15,1.471,0,2.166.649,2.754a22.581,22.581,0,0,0,5.651,2.932,5.942,5.942,0,0,0,2.591.349A11.54,11.54,0,0,0,87.6,287.5c.289-.109.585-1.136.655-2.127h-.017a7.435,7.435,0,0,1-5.906.016c-4.086-2-3.554-3.654-3.17-8.364,2.658-.468,3.7-.942,5.052-2.4-2.266.666-4.7.785-5.908-.6l-.375-3.749Z" fill-rule="evenodd"/>
            <path id="Trazado_776486" data-name="Trazado 776486" d="M85.215,274.992c-1.907,1.5-1.239,2.162-4.024,2.525a15.622,15.622,0,0,0,2.17,5.427c.112,1.05.2,2.426,2.24,2.44,3.815.024,1.168-3.125,1.155-3.243A31.519,31.519,0,0,0,85.215,274.992Z" fill="#00314f" fill-rule="evenodd"/>
          </g>
          <g id="Grupo_1065955" data-name="Grupo 1065955">
            <path id="Trazado_776487" data-name="Trazado 776487" d="M89.711,226.006c-2.2,13.946-2.539,31.526-3.772,45.528-1.906,2.98-9.085,3.594-11.834-.114-.119-11.107-1.127-24.77-.643-30.832a38.3,38.3,0,0,1,3-12.554c-.183-5.745-2.234-22.646-1.85-35.389a39.823,39.823,0,0,1,.488-7.737c1.017-5.374,4.986-11.259,6.2-15.692,2.807,3.651,5.872,5.189,13.655,4.547a45.028,45.028,0,0,0,5.563-1.008c-.15,3.1.4,11.057-.941,17.758-.287,1.431-1.929,2.63-4.874,3.59C94.117,197.629,90.446,221.338,89.711,226.006Z" fill="#00314f" fill-rule="evenodd"/>
            <path id="Trazado_776488" data-name="Trazado 776488" d="M100.521,172.755c-.047.979.06,4.591-.04,6.329-2.981,2.5-15.791,5.276-16.384,5.275-3.936,9.937-2.261,35.063-2.886,42.471a24.417,24.417,0,0,0,.607,5.509c-2.346,11.087-2.4,32.03-2.407,41.628a7.067,7.067,0,0,1-5.306-2.547c-.119-11.107-1.127-24.77-.643-30.832a38.3,38.3,0,0,1,3-12.554c-.225-7.067-3.494-30.8-1.362-43.126.532-3.07,4.794-11.8,6.2-15.692,2.807,3.651,5.872,5.189,13.655,4.547A45.028,45.028,0,0,0,100.521,172.755Z" fill="#001e30" fill-rule="evenodd"/>
            <path id="Trazado_776489" data-name="Trazado 776489" d="M83.636,232.414l-3.5,40.567c1.37.333,4.957-.1,5.715-1.493.8-11.93,1.827-29.153,3.42-42.659,1.369-11.609,3.5-23.2,5.431-34.726,2.945-.96,4.587-2.159,4.874-3.59a57.124,57.124,0,0,0,.912-9.934c-3.183,3.142-10.377,6.836-13.595,8.441C84.609,205.014,84.581,215.934,83.636,232.414Z" fill="#003f66" fill-rule="evenodd"/>
          </g>
          <g id="Grupo_1065956" data-name="Grupo 1065956">
            <path id="Trazado_776490" data-name="Trazado 776490" d="M79.145,174.431c.876-2.022,1.681-3.9,2.158-5.215,2.807,3.651,5.872,5.189,13.655,4.547.589-.048,2.335-.3,4.068-.664,4.807-1.387,9.372-4.237,10.926-8.627a63.343,63.343,0,0,1,.661,6.892C108.867,177.044,88.583,184.752,79.145,174.431Z" fill="#20363b" fill-rule="evenodd"/>
            <path id="Trazado_776491" data-name="Trazado 776491" d="M79.145,174.431c.876-2.022,1.681-3.9,2.158-5.215,2.807,3.651,5.872,5.189,13.655,4.547.589-.048,2.335-.3,4.068-.664a22.9,22.9,0,0,0,4.66-1.9l-.007.06c-4.293,3.232-10.742,4.366-16.61,3.249-2.087-.4-2.365,2.338-.569,3.023a22.747,22.747,0,0,0,9.387.916v-.007c10.147-1.592,12.809-5.338,14.7-7.494.007.138.015.277.022.416-1.349,4.387-10.081,7.212-14.789,7.872h0C89.854,180.072,83.4,179.082,79.145,174.431Z" fill="#0e181a" fill-rule="evenodd"/>
            <path id="Trazado_776492" data-name="Trazado 776492" d="M95.38,173.528c1.809-.685,5.723-1.519,7.311-2.079,1.189.884,1.462,4.888,1.064,5.93-1.214,1.01-5.885,1.953-7.311,1.7C95.958,178.521,95.361,174.462,95.38,173.528Z" fill="#20363b" fill-rule="evenodd"/>
            <path id="Trazado_776493" data-name="Trazado 776493" d="M95.38,173.528c1.809-.685,5.723-1.519,7.311-2.079-1.467.959-4.619,2.556-5.223,3.109-.327.3-.76,3.206-1.024,4.522C95.958,178.521,95.361,174.462,95.38,173.528Z" fill="#0e181a" fill-rule="evenodd"/>
            <path id="Trazado_776494" data-name="Trazado 776494" d="M102.691,171.449c1.189.884,1.462,4.888,1.064,5.93-1.214,1.01-5.885,1.953-7.311,1.7a12.414,12.414,0,0,0,4.265-3.594C102.008,173.7,102.557,172.625,102.691,171.449Z" fill="#325159" fill-rule="evenodd"/>
            <path id="Trazado_776495" data-name="Trazado 776495" d="M103,171.864a11.275,11.275,0,0,1,.46,5.353c-.857.714-3.983,1.583-5.659,1.805C101.484,177.948,103.62,176.731,103,171.864Z" fill="#4b707a" fill-rule="evenodd"/>
            <path id="Trazado_776496" data-name="Trazado 776496" d="M94.955,175.4a56.574,56.574,0,0,1-6.547-.17c-2.208-.166-2.146,1.953.149,2.361A28.061,28.061,0,0,0,95.6,178,12.346,12.346,0,0,1,94.955,175.4Z" fill="#325159" fill-rule="evenodd"/>
            <path id="Trazado_776497" data-name="Trazado 776497" d="M110.068,165.322c-1.629,3.549-3.6,5-6.33,6.817.353,1.182.565,2.351.731,3.057a15.142,15.142,0,0,0,6.086-5C110.445,168.5,110.3,167,110.068,165.322Z" fill="#325159" fill-rule="evenodd"/>
          </g>
        </g>
        <path id="Trazado_776498" data-name="Trazado 776498" d="M84.586,116.78c.577-.018,1.223.264,1.752-.14-.249,4.017,7.037,4.124,11.311,5.131.221-.571.335-1.74.575-2.757a29.058,29.058,0,0,1,1.319-3.422c1.207.477,2.787,6.192,3.169,8.5a7.128,7.128,0,0,0-2.753-.914,9.708,9.708,0,0,1-.442,2.857,6.967,6.967,0,0,1,2.009.867c.216,1.484.4,2.916.57,4.31-1.308.764,1.13,9.39-.183,10.145-.446-1.22-4.739-9.922-5.067-11.1.229-1.128.565-1.938.878-3.034-.888-.9-1.221-.482-1.674-1.007a6.652,6.652,0,0,0-.446,1.706c-3.016-.825-12.124-4.554-11.922-9.106A3.262,3.262,0,0,1,84.586,116.78Z" fill="#6087a8" fill-rule="evenodd"/>
        <g id="Grupo_1065958" data-name="Grupo 1065958">
          <path id="Trazado_776499" data-name="Trazado 776499" d="M76.67,121.293c1.39-.771,3.93-2.311,6.845-3.988-1.374,1.369-1.591,2.911.4,4.507,13.469,10.792,16.271,18.013,19.519,34.971.352-10.723,1.947-22.758.364-33.632-.827-5.686-1.546-9.718-4.647-11.05-.884-.381-5.564.433-9.746,1.96,4.04-2.092,7.863-3.719,9.706-3.446,4.784.708,7.778,2.983,9.608,6.558,2.429,4.747,3.825,11.48,3.239,20.169-.341,5.068-1.9,9.956-1.964,16.253-.035,3.621-.323,11.885,1.088,17.128-2.407,6.571-17.159,11.135-26.161,9.717A10.524,10.524,0,0,1,79,177.577a62.667,62.667,0,0,0,2.691-10.429c.494-7.21-12.14-26.9-12.045-36.87.042-4.424,3.765-7.179,7.022-8.985Zm-4.276,5.16c-2.74,2.462.688,19.152,5.121,22.106,2.218,1.478,4.081.053,5.047-1.433,1.628-2.5,1.42-6.733,1.238-8.9-.317-3.76-1.321-7.342-2.383-8.842C79.232,126.3,75.793,123.4,72.394,126.453Z" fill="#003f66" fill-rule="evenodd"/>
          <path id="Trazado_776500" data-name="Trazado 776500" d="M111.637,140.024c-1.132,4.212-1.656,15.212-1.67,16.448-.022,2.091-.45,9.711.933,14.246-2.587,5.024-12.146,8.893-18.962,9.336.029-1.709-.928-25.524-1.466-30.152,3.556.225,7.355-1.08,10.812-2.868.771,2.886,1.451,6.091,2.152,9.749.12-3.652.383-7.456.617-11.315A74.38,74.38,0,0,0,111.637,140.024Z" fill="#005082" fill-rule="evenodd"/>
          <path id="Trazado_776501" data-name="Trazado 776501" d="M76.67,121.293c1.39-.771,3.93-2.311,6.844-3.988-1.214,1.211-1.522,2.555-.2,3.954a37.649,37.649,0,0,0-4.869,3.761c5.941,4.564,7.263,8.311,7.918,14.266.2,1.786-.848,3.7-.361,6.078a104.428,104.428,0,0,1,2.2,22.811c-.031,4.6-1.184,8.347-1.39,12.439-5.057.074-8.873-2.9-8.65-4.875.836-1.533,3.391-6.5,3.535-8.591.494-7.21-12.14-26.9-12.045-36.87.042-4.424,3.765-7.179,7.022-8.985Zm-4.276,5.16c-2.74,2.462.688,19.152,5.121,22.106,2.218,1.478,4.081.053,5.047-1.433,1.628-2.5,1.42-6.733,1.238-8.9-.317-3.76-1.321-7.342-2.383-8.842-2.185-3.087-5.624-5.988-9.023-2.933Zm17.013-12.392c4.04-2.092,7.863-3.719,9.706-3.446a15.054,15.054,0,0,1,4.127,1.182c-.871.217-1.892.536-3.018.939a4.711,4.711,0,0,0-1.069-.635C98.269,111.72,93.589,112.534,89.407,114.061Z" fill="#00314f" fill-rule="evenodd"/>
          <path id="Trazado_776502" data-name="Trazado 776502" d="M70.1,130.328a2.216,2.216,0,0,0,1.322.4c.077,5.894,2.81,15.637,6.1,17.827a3.056,3.056,0,0,0,2.956.409c-1.316,2.987-2.634,5.09-2.628,5.279-1.3-2.925-2.128-5.006-3.247-7.13C72.108,142.4,69.632,138.259,70.1,130.328Z" fill="#001e30" fill-rule="evenodd"/>
          <path id="Trazado_776503" data-name="Trazado 776503" d="M103.236,119.609a16.193,16.193,0,0,1,.939,6.329c0,.093-.007.186-.012.278a101.9,101.9,0,0,1,.19,13.59,18.29,18.29,0,0,0,7.634-5.765c.54-7.326-2.106-18.622-6.957-20.95a31.684,31.684,0,0,0-3.042,2.049A19.946,19.946,0,0,1,103.236,119.609Z" fill="#005082" fill-rule="evenodd"/>
          <path id="Trazado_776504" data-name="Trazado 776504" d="M84.532,122.309a24.188,24.188,0,0,0-3.654,2.967c2.747,3.633,4.571,4.955,6,7.315,2.927,4.832,1.51,10.168,1.822,13.443,2.406,1.338,7.539-.732,11.136-3.7C97.111,134.681,93,129.193,84.532,122.309Z" fill="#005082" fill-rule="evenodd"/>
        </g>
        <g id="Grupo_1065960" data-name="Grupo 1065960">
          <path id="Trazado_776505" data-name="Trazado 776505" d="M82.752,188.016a6.364,6.364,0,0,1-3.006-2.436c-.866-1.385-.666-2.838-2.213-4.316L81.65,177.5c1.338,2.1,2.325,1.141,4.144,2.157.058.032.113.064.169.1A16.545,16.545,0,0,1,82.752,188.016Z" fill="#e8a476" fill-rule="evenodd"/>
          <g id="Grupo_1065959" data-name="Grupo 1065959">
            <path id="Trazado_776506" data-name="Trazado 776506" d="M71.568,124.7a19.813,19.813,0,0,0-1.363,2.242c-3.359,6.509-6.881,19.595-7.665,27.615-.194,1.988-.644,3.046-.477,4.346a1.272,1.272,0,0,0,.028.149c.013.12.03.242.051.369a20.756,20.756,0,0,0,1.455,3.528c2.29,5.693,7.422,13.454,13.155,19.145.462.458.451.544,1.066.718a7.441,7.441,0,0,1,1.255,1.585c1.453-.586,3.871-3.6,4.642-5.564.1-.265-1.08-1.075-.992-1.277.205-.466,0-.708-.2-1.148-2.719-6.12-6.746-10.638-10.076-16.372-.232-.4-.419-.742-.591-1.056,2.166-5,3.691-10.419,9.665-21.051C83.8,133.872,78.667,121.5,71.568,124.7Z" fill="#729ec1" fill-rule="evenodd"/>
            <path id="Trazado_776507" data-name="Trazado 776507" d="M81.645,179.042c.64-.325.508,1.524.561,2.156.466-.549,1.474-1.331,1.445-2.424-.006-.241-1.036-.954-.962-1.139a1.142,1.142,0,0,0,.1-.374,1.252,1.252,0,0,0-.2-.692c-2.719-6.2-6.786-10.747-10.145-16.53-.232-.4-.419-.742-.591-1.056,2.166-5,3.691-10.419,9.665-21.051,1.274-2.267.235-7.124-2.166-10.415A157.775,157.775,0,0,0,69.3,155.845c-.687,2.732-.921,3.075.469,5.464C73.625,167.942,77.606,172.489,81.645,179.042Z" fill="#8fbce0" fill-rule="evenodd"/>
            <path id="Trazado_776508" data-name="Trazado 776508" d="M62.091,159.06c.013.118.03.239.051.364a20.756,20.756,0,0,0,1.455,3.528c2.306,5.732,7.494,13.561,13.274,19.262a1.643,1.643,0,0,0,1.026.633c.336.328,1.114,1.471,1.176,1.53a8.254,8.254,0,0,0,1.993-1.647,3.989,3.989,0,0,1-1.113-1.555,22.2,22.2,0,0,0,2.419-3.245,16.2,16.2,0,0,1-2.093,2.182c-.708.594-1.136.033-1.52-.593-3.808-6.206-7.41-12.413-11.528-18.427-.255-.607-.448-1.045-.586-1.4h0l-.019-.047,0-.007-.01-.023-.01-.029,0-.01-.049-.131,0-.012-.011-.032-.007-.021-.013-.037L66.5,159.3v0l-.015-.044,0-.012-.01-.032,0-.008-.009-.031,0,0-.01-.038,0-.005-.01-.042,0-.007,0-.016-.007-.027-.005-.022-.006-.028,0-.02v0l-.008-.041,0-.022,0-.024,0-.019,0-.036,0-.008,0-.035,0-.014h0l0-.018,0-.027,0-.018,0-.028v-.021l0-.034v-.231l0-.04v-.016l0-.029,0-.027v0l0-.045h0l.005-.044v-.015l0-.011,0-.045,0-.009.007-.05v-.012l.008-.049,0-.012.006-.039,0-.011.005-.031,0-.01.008-.045,0-.008.01-.054v-.009l.009-.047,0-.006.009-.05v-.005l.012-.056.012-.061v0l.012-.059,0-.023.009-.041.01-.044,0-.022.015-.066v0l.016-.07,0-.02.012-.052.009-.043.007-.032.015-.067,0-.009.018-.078,0-.015.015-.066.009-.04.01-.044.015-.067,0-.018.02-.089,0-.008.018-.082.008-.037.013-.057.014-.066.007-.03.021-.1,0-.015,0-.015.078-.35,0-.015,0-.015,0-.015,0-.015,0-.015.023-.107,0-.015,0-.015,0-.015,0-.015,0-.015,0-.016,0-.015.055-.242,0-.015,0-.015,0-.016,0-.015h0c2.379-10.473,5.926-20.152,9.392-30.4-.916-.482-1.217-1.6-2.278-1.524-2.331.168-3.125,2.1-3.919,3.64-3.358,6.509-6.881,19.6-7.665,27.615-.194,1.988-.644,3.046-.477,4.346A1.4,1.4,0,0,0,62.091,159.06Z" fill="#6087a8" fill-rule="evenodd"/>
          </g>
          <path id="Trazado_776509" data-name="Trazado 776509" d="M86.168,179.461c-.692,3.359-2.058,7.486-4.822,9.893l1.193,1.342c3.7-4.112,4.38-6.146,5.319-10.936Z" fill="#001e30" fill-rule="evenodd"/>
        </g>
        <path id="Trazado_776510" data-name="Trazado 776510" d="M108.527,178.948c-.395-7.222-.656-15.014-.91-22.577-.452-13.461-.88-26.2-1.968-33.567-.94-6.36-4.028-9.75-7.666-11.043a11.2,11.2,0,0,0-5.026-.537,13.338,13.338,0,0,0-4.781,1.51c-3.51,1.89-6.062,5.285-5.823,9.144.7,11.258,4.654,16.763,8.581,22.227,5.564,7.743,10.768,16.9,6.115,41.967l1.922-1.206c4.78-25.749-.929-33.692-6.7-41.724-3.787-5.269-7.6-10.578-8.271-21.361a13.078,13.078,0,0,1,.177-3.737c1.856-4.6,9.141-6.19,13.257-4.727,3.1,1.1,5.746,4.079,6.581,9.726,1.08,7.306,1.506,19.985,1.955,33.38.273,8.12.554,16.5.991,24.074Z" fill="#a63341" fill-rule="evenodd"/>
        <g id="Grupo_1065982" data-name="Grupo 1065982">
          <g id="Grupo_1065961" data-name="Grupo 1065961">
            <path id="Trazado_776511" data-name="Trazado 776511" d="M95.662,123.118c.466,2.26.554,2.253,2.56,3.81-.292,1.149-.49,2.141-.694,3.318a95.677,95.677,0,0,1,5.908,34.862c1.648-10.9.111-28.7-1.575-38.342a6.941,6.941,0,0,0-2.1-.767c.647-2.5.386-4.1-.115-4.406A4.283,4.283,0,0,0,95.662,123.118Z" fill="#3c5466" fill-rule="evenodd"/>
            <path id="Trazado_776512" data-name="Trazado 776512" d="M95.662,123.118c.466,2.26.554,2.253,2.56,3.81-.292,1.149-.49,2.141-.694,3.318,3.8,9.731,6.02,23.7,5.91,34.806,1.33-10.3-1.373-26.991-4.491-35.216a19.025,19.025,0,0,1,.072-3.4,5.844,5.844,0,0,1-2.552-4.039c.026-.021.053-.041.079-.06l-.081.12-.007-.053A8.506,8.506,0,0,0,95.662,123.118Z" fill="#2a3c4a" fill-rule="evenodd"/>
            <path id="Trazado_776513" data-name="Trazado 776513" d="M99.918,122.021l-1.392.23-.579,1.493,1.484,2.373-.029.01a9.975,9.975,0,0,1,.491,3.2c2.5,6.528,3.808,16.553,4.26,23.674.193-7.2-1.318-20.66-2.292-26.23a6.966,6.966,0,0,0-2.1-.768C100.113,124.4,100.372,123.176,99.918,122.021Z" fill="#56738a" fill-rule="evenodd"/>
          </g>
          <g id="Grupo_1065962" data-name="Grupo 1065962">
            <path id="Trazado_776514" data-name="Trazado 776514" d="M98.82,108.828l-9.639-3.064-2.345-1.243a14.7,14.7,0,0,1-.819,9.514c-.119,3.963,7.392,6.721,11.632,7.735C98.985,118.386,99.638,109.272,98.82,108.828Z" fill="#e8a476" fill-rule="evenodd"/>
            <path id="Trazado_776515" data-name="Trazado 776515" d="M87.019,116.579c3.974-1.4,6.881-1.21,12.029-2.586.317-1.208.128-3.829.289-4.767l-2.2-7.689-14.356.737c.491,2.388,2.452,2.011,3.557,4.144.795,1.536.782,5.5-.319,7.617A3.782,3.782,0,0,0,87.019,116.579Z" fill="#db9669" fill-rule="evenodd"/>
          </g>
          <g id="Grupo_1065963" data-name="Grupo 1065963">
            <path id="Trazado_776516" data-name="Trazado 776516" d="M97.647,121.776c.222-.568.337-1.741.577-2.762.215-.913,1.033-3.154,1.04-3.74.929.238,1.515,5.516,2.574,7.74A5.725,5.725,0,0,0,97.647,121.776Z" fill="#729ec1" fill-rule="evenodd"/>
            <path id="Trazado_776517" data-name="Trazado 776517" d="M86.02,113.935c-.25,4.029,7.4,6.829,11.666,7.844-1.071,1.293-2.455,2.918-2.4,4.209-3.077-.841-8.3-2.289-10.412-6.224A4.321,4.321,0,0,1,86.02,113.935Z" fill="#729ec1" fill-rule="evenodd"/>
            <path id="Trazado_776518" data-name="Trazado 776518" d="M98.131,121.455c.212-1.084.278-1.822.7-1.9.712-.137,1.846,1.157,2.715,2.981A4.5,4.5,0,0,0,98.131,121.455Z" fill="#8fbce0" fill-rule="evenodd"/>
            <path id="Trazado_776519" data-name="Trazado 776519" d="M90.859,120.082c2.35.719,4.2,1.561,5.82,1.946-1.226,1.16-2.01,2.079-1.959,3.272a24.1,24.1,0,0,1-6.353-2.772C86.865,120.978,88.061,119.063,90.859,120.082Z" fill="#8fbce0" fill-rule="evenodd"/>
          </g>
          <g id="Grupo_1065981" data-name="Grupo 1065981">
            <path id="Trazado_776520" data-name="Trazado 776520" d="M96.912,115.11c-1.458-.677-4.974-3.044-6.287-3.844-1.584-.965-1.741-2.45-2.518-3.764a12.9,12.9,0,0,0-3.05-2.851,5.978,5.978,0,0,1-3.624-4.286,10.924,10.924,0,0,1,2.4-10.394,9.922,9.922,0,0,1,8.241-3.012c6.1.407,9.684,4.611,10.569,9.666.044.254.318.5.372.758a3.518,3.518,0,0,1,.081,1.335c-.174,1.13-.226.693-.177,1.471.058.946.7,1.664.755,2.85a38.517,38.517,0,0,1-.418,5.525c-.068.817-.26,1.773-.258,2.6,0,1.456-.127,2.095-.34,2.345a4.584,4.584,0,0,1-1.4,1,6.827,6.827,0,0,1-2.659.839A5.637,5.637,0,0,1,96.912,115.11Z" fill="#f1b287" fill-rule="evenodd"/>
            <path id="Trazado_776521" data-name="Trazado 776521" d="M103.051,97.673a3.219,3.219,0,0,1,.036,1.111,3.953,3.953,0,0,0-.136,1.454c.059.946.7,1.423.755,2.609a19.6,19.6,0,0,1-.337,4.345c-.227,1.529-1.935.69-2.119.726-.088.017-.089.182-.06.374.01.066.018.118,0,.131s-.054-.006-.092-.1c-.064-.158-.139-.315-.286-.314-.064,0-.217.136-.276.2-.094.106-.072.372-.034.564.044.227-.025.185-.114.025a1.124,1.124,0,0,0-.869-.631,1.7,1.7,0,0,1-1.41-.451c1.213-1.134.763-.594,2.417-.617.694-.01,1.484-.177,1.087-.837a11.276,11.276,0,0,1-1.547-3.308,2.924,2.924,0,0,1,.746-2.959A3.512,3.512,0,0,0,103.051,97.673Z" fill="#e8a476" fill-rule="evenodd"/>
            <path id="Trazado_776522" data-name="Trazado 776522" d="M96.911,115.11c-1.457-.677-5.133-3.466-6.446-4.266a5.311,5.311,0,0,1-1.737-2.12,16.569,16.569,0,0,0-3.671-4.073,5.978,5.978,0,0,1-3.624-4.286,10.924,10.924,0,0,1,2.4-10.394,9.922,9.922,0,0,1,8.241-3.012q.143.009.282.021h.01c5.283.465,8.522,3.4,9.8,7.646-.709.647-6.154,2.441-10.509,2.847-1.66,1.351-.928,2.791.993,3.965.717.439.8.762.589,1.041-.324.423-1.335.746-1.869,1.221a1.283,1.283,0,0,0-.09,1.921,19.288,19.288,0,0,0,3.174,1.857c1.413.875,1.945,2.774,2.123,4.082.227,1.656.964,3.85,3.726,3.428a5.712,5.712,0,0,1-1.7.356A5.65,5.65,0,0,1,96.911,115.11Z" fill="#e8a476" fill-rule="evenodd"/>
            <g id="Grupo_1065964" data-name="Grupo 1065964">
              <path id="Trazado_776523" data-name="Trazado 776523" d="M101.674,110.248c-.558-.562-2.664.95-3.2,1.271a7.343,7.343,0,0,0,2.777-.388C101.644,110.944,102.064,110.64,101.674,110.248Z" fill="#663d14" fill-rule="evenodd"/>
              <path id="Trazado_776524" data-name="Trazado 776524" d="M96.635,111.92a8.089,8.089,0,0,1,2.159.614,3.247,3.247,0,0,0,1.755-.028,1.771,1.771,0,0,0,1.342-2.41c-.443-.059-.826.42-1.1.518-.216.077-.649.154-.948.259A12.877,12.877,0,0,1,96.635,111.92Z" fill="#f1b287" fill-rule="evenodd"/>
              <path id="Trazado_776525" data-name="Trazado 776525" d="M101.556,109.454c-.253.006-.325.166-.6.3a1.845,1.845,0,0,0-.927.283c-.384.233-.912.637-1.416.936-.261.156-.525.3-.784.427s-.205.36.1.272a7.181,7.181,0,0,0,.878-.312c.32-.138.8-.363,1.253-.525.295-.105.58-.108.8-.2a6.042,6.042,0,0,0,.719-.428c.286-.125.379-.151.455-.261C102.2,109.711,102.062,109.443,101.556,109.454Z" fill="#db9669" fill-rule="evenodd"/>
              <path id="Trazado_776526" data-name="Trazado 776526" d="M99.281,112.206a3.586,3.586,0,0,0,.929-.083c.313-.07.608-.421.9-.572s.58-.1.832-.332a3.934,3.934,0,0,0,.336-.346C101.757,112.322,100.843,113.143,99.281,112.206Z" fill="#e8a476" fill-rule="evenodd"/>
            </g>
            <path id="Trazado_776527" data-name="Trazado 776527" d="M88.436,95.2c-.671,3.966,1.927,9.28,3.27,13.026a4.942,4.942,0,0,0,2.338,2.314,10.028,10.028,0,0,0,2.235,1.078l3.857,3.811a5.479,5.479,0,0,1-3.416-.1,21.424,21.424,0,0,1-7.16-3.46c-.793-.562-1.033-.88-.921-2.438a20.91,20.91,0,0,0-.817-7.113c-.529-1.887-.662-3.356-2.357-5.185C87.116,95.2,89.066,91.479,88.436,95.2Z" fill="#361d07" fill-rule="evenodd"/>
            <path id="Trazado_776528" data-name="Trazado 776528" d="M95.27,111.215a3.151,3.151,0,0,0,1.009.4c.667-.152-.038-1.61,2.564-3.07a9.042,9.042,0,0,1,3.071-.934c.882.107,1.058.151,1.472-.305.1,1.437.135,5.15-.647,6.368a6.389,6.389,0,0,1-2.6,1.752,2.113,2.113,0,0,1-.584.184c-.375-.359-.94-.791-1.1-.916a11.637,11.637,0,0,1-3.184-3.483Zm5.312,1.305a.515.515,0,0,1,.377-.575.541.541,0,0,1,.63.225c.643-.429.719-.98.779-1.827.055-.767.148-1.655-.871-1.192a11.975,11.975,0,0,0-2.745,1.3c-.223.288-.844,1.028-.83,1.323,0,.086.407,1.3,1.384,1.236A2.583,2.583,0,0,0,100.582,112.52Z" fill="#4f2b0c" fill-rule="evenodd"/>
            <g id="Grupo_1065965" data-name="Grupo 1065965">
              <path id="Trazado_776529" data-name="Trazado 776529" d="M94.045,95.3c-1.527-.567-2.575-2.029-5.062-3.085-2.546-1.081-5.32-2.221-7.117-.472-1.462,2.353-1.468,6.4-.854,8.52a13.42,13.42,0,0,0,5.952,7.646c1.242.818,1.648-2.352,1.867-3.307a33.909,33.909,0,0,1,.242-3.564c-.1-.849.706-.956.575-1.76-.335-2.035-.952-3.161-.587-4.514C89.732,93.631,91.73,95.1,94.045,95.3Z" fill="#361d07" fill-rule="evenodd"/>
              <path id="Trazado_776530" data-name="Trazado 776530" d="M82.236,91.409c-.331.126-.571.652-.631.749a8.083,8.083,0,0,0-.962,4.577,3.826,3.826,0,0,1,1.217-3.011,5.21,5.21,0,0,0-.3,4.044,4.111,4.111,0,0,1,1.33-3.486,7.879,7.879,0,0,0-.164,5.809,6.353,6.353,0,0,1,1.637-5.346c-.725,1.563-.243,3.218.02,4.647.185-1.959.158-3.021,1.452-4.148a7.3,7.3,0,0,0,.757,4.681,13.319,13.319,0,0,1,.676-4.407,3.581,3.581,0,0,0,1.555,2.58,6.39,6.39,0,0,1-.163-3.4c.459-1.427,1.952-.343,4.3.332C87.467,91.613,83.279,91.117,82.236,91.409Z" fill="#4f2b0c" fill-rule="evenodd"/>
            </g>
            <g id="Grupo_1065968" data-name="Grupo 1065968">
              <path id="Trazado_776531" data-name="Trazado 776531" d="M98.055,101.464a8.428,8.428,0,0,1-4.491.56,18.146,18.146,0,0,1-1.64,1.666l-.24.254a3.156,3.156,0,0,0,1.745-.822c.522-.451.338-.387,1.034-.33.711.059,1.808-.541,2-.136a2.822,2.822,0,0,1-2.412,1.3,1.413,1.413,0,0,0,1.65.371,3.091,3.091,0,0,0,.731-.4c.428-.338.761-.763.915-.814.128-.042.084.052.2.055C97.979,103.047,98.181,101.967,98.055,101.464Z" fill="#e8a476" fill-rule="evenodd"/>
              <path id="Trazado_776532" data-name="Trazado 776532" d="M98.33,101.066c-.236.55-.347.934-.948,1.058a15.051,15.051,0,0,1-3,.227c-.854-.031-.563-.237-1.175.432a4.074,4.074,0,0,1-1.572,1.082c.686-.738,1.263-1.425,1.893-2.212.884-.065,1.742-.187,2.513-.273a9.441,9.441,0,0,1,1.273-.195c.122-.048-.079-.074-.379-.055A2.466,2.466,0,0,1,98.33,101.066Z" fill="#361d07" fill-rule="evenodd"/>
              <g id="Grupo_1065967" data-name="Grupo 1065967">
                <path id="Trazado_776533" data-name="Trazado 776533" d="M93.047,103.836a3.235,3.235,0,0,0,2.126.593,2.312,2.312,0,0,0,1.319-.666c.247-.233.48-.5.714-.744a7.511,7.511,0,0,1-2.152.935C94.369,104.067,93.183,103.744,93.047,103.836Z" fill="#ded5d5" fill-rule="evenodd"/>
                <g id="Grupo_1065966" data-name="Grupo 1065966">
                  <path id="Trazado_776534" data-name="Trazado 776534" d="M96.262,103.4a.806.806,0,0,1-.564.794c-.447.2-1.034.208-1.176-.163A4.543,4.543,0,0,0,96.262,103.4Z" fill="#031d30" fill-rule="evenodd"/>
                  <path id="Trazado_776535" data-name="Trazado 776535" d="M96.186,103.585a1.377,1.377,0,0,1-.69.484A.652.652,0,0,0,96.186,103.585Z" fill="#ded5d5" fill-rule="evenodd"/>
                </g>
                <path id="Trazado_776536" data-name="Trazado 776536" d="M93.047,103.836a3.235,3.235,0,0,0,2.126.593,2.312,2.312,0,0,0,1.319-.666c.247-.233.48-.5.714-.744a3.61,3.61,0,0,0-.775.638,2.072,2.072,0,0,1-1.288.635A3.724,3.724,0,0,1,93.047,103.836Z" fill="#c2845b" fill-rule="evenodd"/>
                <path id="Trazado_776537" data-name="Trazado 776537" d="M97.129,102.985a2.4,2.4,0,0,0-.541.22,10.453,10.453,0,0,1-1.43.676,5.59,5.59,0,0,1-2.074-.118.343.343,0,0,0-.1,0c-.024.011.013.034.038.044a3.261,3.261,0,0,0,3.126-.134c.161-.1.337-.224.507-.348a2.284,2.284,0,0,1,.529-.3C97.216,103.018,97.247,102.964,97.129,102.985Z" fill="#704a31" fill-rule="evenodd"/>
              </g>
              <path id="Trazado_776538" data-name="Trazado 776538" d="M93.056,103.779l-.084,0c.093.031-.107.131-.279.169a1.382,1.382,0,0,0,.609-.06.667.667,0,0,1-.323.213,1.922,1.922,0,0,0,.563-.15.542.542,0,0,1-.313.223.608.608,0,0,0,.5-.186c.113.017-.024.2-.215.323a.72.72,0,0,0,.5-.277.617.617,0,0,1-.163.357c.262-.078.284-.348.367-.3a1.131,1.131,0,0,1-.107.465c.186-.143.22-.319.313-.426a.974.974,0,0,0,.068.5c-.029-.292.043-.474.155-.52a.645.645,0,0,0,.162.462c-.078-.228-.05-.455.038-.473a.546.546,0,0,0,.225.406c-.089-.167-.119-.425.007-.451.063.191.127.218.265.36-.143-.242-.14-.376-.063-.425.041.132.061.217.3.34-.172-.146-.2-.378-.089-.4a.462.462,0,0,0,.286.257c-.124-.15-.2-.255-.08-.335a.418.418,0,0,0,.337.2c-.152-.084-.232-.241-.13-.326a.359.359,0,0,0,.313.154c-.142-.075-.152-.151-.12-.261.078.086.114.109.331.125-.234-.129-.226-.187-.15-.238.024.092.115.124.262.1-.084-.026-.186-.09-.143-.126,0-.018.177.064.2.023-.105-.025-.1-.13-.071-.141a.262.262,0,0,0,.234.055c-.13-.025-.148-.084-.09-.126.026.048.09.071.225.051-.1-.018-.156-.06-.06-.115.028-.015.128-.021.165-.052-.033-.1.082-.1.174-.154l-.428.171-.781.365c-1.291.632-1.1.5-2.531.326Z" fill="#704a31" fill-rule="evenodd"/>
            </g>
            <g id="Grupo_1065971" data-name="Grupo 1065971">
              <path id="Trazado_776539" data-name="Trazado 776539" d="M102.775,100.481l.178-.735c-1.009,1.237-1.661,1.089-1.605.72.039-.256,1.434-1.4,1.621-1.773a1.883,1.883,0,0,0-.008-1.264l-2.306,2.506c-.952,1.912-1.1,2.072-.208,4.112-.063-.623-.386-1.547-.062-2.073C100.44,101.884,102.408,101.417,102.775,100.481Z" fill="#db9669" fill-rule="evenodd"/>
              <g id="Grupo_1065970" data-name="Grupo 1065970">
                <path id="Trazado_776540" data-name="Trazado 776540" d="M102.9,100.1c-.1.064-.489.443-.766.61a2.934,2.934,0,0,1-1.224.318c-.065.016-.2.032-.209.08s.049.026.121.043a.684.684,0,0,1,.166.036,2.25,2.25,0,0,0,.647.112,1.513,1.513,0,0,0,1.248-.973C102.9,100.28,102.924,100.084,102.9,100.1Z" fill="#ded5d5" fill-rule="evenodd"/>
                <path id="Trazado_776541" data-name="Trazado 776541" d="M101.361,101a.468.468,0,0,0,.432.281,1.486,1.486,0,0,0,.86-.442.952.952,0,0,0,.192-.732A2.682,2.682,0,0,1,101.361,101Z" fill="#062e4a" fill-rule="evenodd"/>
                <g id="Grupo_1065969" data-name="Grupo 1065969">
                  <path id="Trazado_776542" data-name="Trazado 776542" d="M102.9,100.229a1.221,1.221,0,0,1-.521.878,1.513,1.513,0,0,1-.733.237,1.668,1.668,0,0,1-.693-.143c-.106-.021-.229-.009-.232-.024s.109-.062.254-.023a2.349,2.349,0,0,0,.657.112,1.523,1.523,0,0,0,.678-.228A1.444,1.444,0,0,0,102.9,100.229Z" fill="#c2845b" fill-rule="evenodd"/>
                  <path id="Trazado_776543" data-name="Trazado 776543" d="M102.994,99.815a1.2,1.2,0,0,1-.123.4,2.8,2.8,0,0,1-2.348.921,11.889,11.889,0,0,0,1.67-.552,1.894,1.894,0,0,0,.73-.805C102.938,99.742,103,99.741,102.994,99.815Z" fill="#704a31" fill-rule="evenodd"/>
                </g>
              </g>
              <path id="Trazado_776544" data-name="Trazado 776544" d="M102.937,99.781l.031-.009a.324.324,0,0,0,.272-.05c-.088.125-.147.116-.276.147-.023.068.165.068.285.011a.461.461,0,0,1-.314.139c-.022.02.093.075.231.04a.352.352,0,0,1-.268.039c-.012.015.122.1.239.093-.113.041-.287-.009-.271.011a.391.391,0,0,0,.257.07.421.421,0,0,1-.309.022c-.054-.018-.048-.014-.023.031a.3.3,0,0,0,.242.1c-.238.071-.334-.049-.368-.019-.012.053.051.1.247.171a.62.62,0,0,1-.361-.058c.008.087.112.177.184.244a.621.621,0,0,1-.3-.162.835.835,0,0,1,.11.31c-.05-.118-.183-.265-.225-.219a.959.959,0,0,1,.067.292c-.054-.091-.153-.258-.217-.207a.488.488,0,0,1,.06.313.371.371,0,0,0-.173-.259c-.024-.012-.015.009-.048.028.053.053.055.157.042.285-.06-.189-.116-.266-.185-.234a.465.465,0,0,1-.025.325c0-.131-.056-.315-.138-.265.037.032.035.16-.04.3a.379.379,0,0,0-.067-.265c-.015-.014.016.155-.042.259-.014-.185-.066-.237-.089-.233a.322.322,0,0,1-.063.272c.024-.068-.018-.271-.069-.243-.008.076-.006.182-.048.218-.006-.154-.051-.212-.079-.18a.389.389,0,0,1-.035.217.193.193,0,0,0-.063-.191.285.285,0,0,1-.065.171c.015-.075,0-.172-.052-.17a.477.477,0,0,1-.08.232c.04-.278-.167-.169-.254-.178-.025,0-.157,0-.137-.056l.666-.117a2.252,2.252,0,0,0,1.694-1.039Z" fill="#704a31" fill-rule="evenodd"/>
            </g>
            <g id="Grupo_1065973" data-name="Grupo 1065973">
              <path id="Trazado_776545" data-name="Trazado 776545" d="M102.521,102.677c-.081.053-.165.106-.251.159a7.957,7.957,0,0,1-1.083.574c-.347.157-.556.151-.7-.015a1.529,1.529,0,0,1-.206-.8l-.077-.636.219-.014.075.628a1.452,1.452,0,0,0,.155.68c.069.08.2.068.444-.042h0a7.825,7.825,0,0,0,1.054-.559c.1-.064.2-.128.3-.192A.86.86,0,0,1,102.521,102.677Z" fill="#db9669" fill-rule="evenodd"/>
              <path id="Trazado_776546" data-name="Trazado 776546" d="M103.613,102.259c-.056.036-1.1.832-1.173.867a7.92,7.92,0,0,1-1.083.575c-.347.157-.557.15-.7-.016a1.525,1.525,0,0,1-.206-.8l-.1-.869.224.034.1.812a1.432,1.432,0,0,0,.155.681c.068.079.2.067.443-.042l.005,0a7.649,7.649,0,0,0,1.053-.559c.073-.045,1.164-.883,1.233-.928A.991.991,0,0,1,103.613,102.259Z" fill="#db9669" fill-rule="evenodd"/>
              <g id="Grupo_1065972" data-name="Grupo 1065972">
                <path id="Trazado_776547" data-name="Trazado 776547" d="M103.321,102.16a9.527,9.527,0,0,1-2.081,1.283c-.59.267-.684.011-.753-.728l-.134-1.112c-.068-.731-.022-1,.481-1.267.953-.5,1.84-.9,2.845-1.323.412-.169.421-.047.412.375A3.863,3.863,0,0,1,103.321,102.16Z" fill="#ccc8c8" fill-rule="evenodd" opacity="0.5"/>
                <path id="Trazado_776548" data-name="Trazado 776548" d="M103.394,102.241a9.671,9.671,0,0,1-2.11,1.3c-.347.156-.556.15-.7-.016a1.525,1.525,0,0,1-.206-.8l-.135-1.115a2.147,2.147,0,0,1,.031-.854.926.926,0,0,1,.507-.52c.479-.253.941-.48,1.409-.7s.943-.422,1.446-.632c.259-.105.4-.109.49,0s.079.246.074.482a8.273,8.273,0,0,1-.146,1.569,2.357,2.357,0,0,1-.661,1.282Zm-1.142.542a7.812,7.812,0,0,0,1-.7,2.143,2.143,0,0,0,.594-1.166,8.07,8.07,0,0,0,.141-1.527.808.808,0,0,0-.023-.337c-.015-.018-.084,0-.238.065-.5.209-.974.414-1.438.628s-.924.44-1.4.69a.728.728,0,0,0-.4.4,1.974,1.974,0,0,0-.022.761l.135,1.115a1.439,1.439,0,0,0,.155.68c.068.08.2.068.443-.041l0,0A7.759,7.759,0,0,0,102.252,102.783Z" fill="#4a4642" fill-rule="evenodd"/>
              </g>
            </g>
            <g id="Grupo_1065975" data-name="Grupo 1065975">
              <g id="Grupo_1065974" data-name="Grupo 1065974">
                <path id="Trazado_776549" data-name="Trazado 776549" d="M99.787,107.489c-.545-.032-1.258.715-2.024.2C97.321,107.4,98.709,106.585,99.787,107.489Z" fill="#db9669" fill-rule="evenodd"/>
                <path id="Trazado_776550" data-name="Trazado 776550" d="M100.527,100.238c-1.035,1.827-.654,2.974.74,5.1a6.839,6.839,0,0,1,.831,1.414c.031.356-.4.78-.874.957-.735.277-1.244-.4-2.134-.265a3.616,3.616,0,0,0-.444.1c-.5.138-.982.431-1.21-.266a1.188,1.188,0,0,1,.209-1,1.172,1.172,0,0,1,1.214-.312C98.363,103.529,98.153,101.684,100.527,100.238Z" fill="#f1b287" fill-rule="evenodd"/>
                <path id="Trazado_776551" data-name="Trazado 776551" d="M99.991,101.449c-.39,1.255.136,2.256,1.21,3.892a6.887,6.887,0,0,1,.814,1.351c.03.34-.34.754-.788.923a2.127,2.127,0,0,1-1.448-.234c1.176.062,1.8-.439,1.4-1.148C99.4,103.345,99.729,101.763,99.991,101.449Z" fill="#f5bc95" fill-rule="evenodd"/>
              </g>
              <path id="Trazado_776552" data-name="Trazado 776552" d="M98.988,106.158c-1.009-.232-1.473,0-1.4,1.051C97.056,106.171,97.947,105.337,98.988,106.158Z" fill="#e8a476" fill-rule="evenodd"/>
            </g>
            <path id="Trazado_776553" data-name="Trazado 776553" d="M100.731,100.446a1.776,1.776,0,0,0,.939-.671,10.409,10.409,0,0,0,1.07-1.265,3.749,3.749,0,0,0,.3-.458c.2-.4-.066-.878-.256-1.171a2.775,2.775,0,0,1-.513.91,5.662,5.662,0,0,1-.739.794c-.265.234-.544.445-1,.882a1.689,1.689,0,0,1,.169-.262,1.435,1.435,0,0,0-.569.575C100.184,100.054,100.362,100.489,100.731,100.446Z" fill="#361d07" fill-rule="evenodd"/>
            <g id="Grupo_1065977" data-name="Grupo 1065977">
              <path id="Trazado_776554" data-name="Trazado 776554" d="M97.654,105.368c-.3.144-.829.357-1.4.566s-1.164.41-1.617.542a1.345,1.345,0,0,1-.691.091c-.174-.041-.165-.232-.1-.366a.265.265,0,0,0,.058.079c.1.093.3.107.671-.012h0c.446-.129,1.044-.332,1.605-.538s1.089-.418,1.379-.558a1.887,1.887,0,0,0,.834-1.052,5.727,5.727,0,0,0,.31-1.173,4.357,4.357,0,0,0,.2-1.165c0-.018.138-.057.122.2A7.5,7.5,0,0,1,98.6,104.2,2.091,2.091,0,0,1,97.654,105.368Z" fill="#db9669" fill-rule="evenodd"/>
              <path id="Trazado_776555" data-name="Trazado 776555" d="M97.823,105.659c-.3.144-.828.357-1.4.566s-1.163.41-1.617.542c-.454.147-.719.142-.885-.011a.558.558,0,0,1-.149-.256l.207-.069a.352.352,0,0,0,.09.164c.254.233,2.117-.517,2.279-.576.564-.207,1.088-.417,1.378-.558a1.893,1.893,0,0,0,.835-1.052,7.317,7.317,0,0,0,.417-2.147c0-.048,0-.091,0-.128l.159-.052c-.006.057-.013.121-.018.193a7.29,7.29,0,0,1-.36,2.215A2.1,2.1,0,0,1,97.823,105.659Z" fill="#e8a476" fill-rule="evenodd"/>
              <g id="Grupo_1065976" data-name="Grupo 1065976">
                <path id="Trazado_776556" data-name="Trazado 776556" d="M97.7,105.4a26.174,26.174,0,0,1-3,1.1c-.823.267-.93.011-.963-.729l-.066-1.45c-.033-.731.052-1,.756-1.268,1.337-.5,2.575-.9,3.976-1.323.574-.169.637-.047.612.376C98.956,103.122,98.7,104.92,97.7,105.4Z" fill="#ccc8c8" fill-rule="evenodd" opacity="0.5"/>
                <path id="Trazado_776557" data-name="Trazado 776557" d="M97.751,105.5c-.3.144-.829.357-1.4.566s-1.164.411-1.617.542c-.454.147-.72.143-.886-.01s-.2-.42-.221-.818l-.065-1.451a1.618,1.618,0,0,1,.115-.865,1.216,1.216,0,0,1,.712-.509c.674-.253,1.318-.48,1.968-.695s1.312-.421,2.014-.631c.324-.095.512-.1.628-.017s.14.256.125.5a7.53,7.53,0,0,1-.433,2.215,2.1,2.1,0,0,1-.942,1.169Zm-1.474.361c.564-.208,1.088-.417,1.378-.558a1.889,1.889,0,0,0,.835-1.052,7.359,7.359,0,0,0,.418-2.148c.01-.173.007-.282-.037-.314s-.185-.023-.435.05c-.7.209-1.357.414-2.009.63s-1.3.442-1.959.691a1.034,1.034,0,0,0-.6.408,1.482,1.482,0,0,0-.089.752l.066,1.451c.015.341.045.568.15.665s.3.083.671-.036h0C95.117,106.271,95.716,106.068,96.277,105.862Z" fill="#4a4642" fill-rule="evenodd"/>
                <path id="Trazado_776558" data-name="Trazado 776558" d="M99.023,102.21a.128.128,0,0,1-.1-.235l1.435-.612a.128.128,0,0,1,.1.236Z" fill="#4a4642" fill-rule="evenodd"/>
                <path id="Trazado_776559" data-name="Trazado 776559" d="M93.636,103.831c.048.02.122.734-.059.66l-6.847-1.748-.444-.373a.143.143,0,0,1,.041.009Z" fill="#4a4642" fill-rule="evenodd"/>
                <path id="Trazado_776560" data-name="Trazado 776560" d="M93.6,103.9c.048.019.1.28-.078.206l-5.391-1.277c-.051-.013-.047-.045-.007-.041Z" fill="#e6e6e6" fill-rule="evenodd"/>
              </g>
            </g>
            <g id="Grupo_1065979" data-name="Grupo 1065979">
              <path id="Trazado_776561" data-name="Trazado 776561" d="M86.988,102.164c-2.172-.908-2.361,1.658-2.122,3.239.164,1.085,1.053,1.066,1.315,1.932a2.024,2.024,0,0,0,1.731,1.581c1.356.055.655-2.013.549-2.822C88.707,104.8,88.367,102.741,86.988,102.164Z" fill="#e8a476" fill-rule="evenodd"/>
              <g id="Grupo_1065978" data-name="Grupo 1065978">
                <path id="Trazado_776562" data-name="Trazado 776562" d="M85.317,104.536c.061-1.494.321-1.6.849-1.69.651-.108,1.448,1.372,1.455,1.833-.311-.156-.812-.334-1.073,0a.911.911,0,0,1,.664.144c.188.1.313.335.6.335a1.444,1.444,0,0,0-.06-.766c-.258-.88-.837-1.921-1.671-1.762C85.655,102.71,85.138,103.069,85.317,104.536Z" fill="#db9669" fill-rule="evenodd"/>
                <path id="Trazado_776563" data-name="Trazado 776563" d="M87.424,106.289c-.072-.25.085-.608-.314-.908a.737.737,0,0,1,.72.493c.115.324.078.567.016.609C87.8,106.513,87.55,106.73,87.424,106.289Z" fill="#db9669" fill-rule="evenodd"/>
              </g>
            </g>
            <g id="Grupo_1065980" data-name="Grupo 1065980">
              <path id="Trazado_776564" data-name="Trazado 776564" d="M82.248,90.932c3.257-2.6,7.059,2.96,11.5,4.346,1.888.589,2.671.312,5.182-.835,1.576-.719,2.964-1.615,3.114-2.413.845-4.49-.81-5.92-3.488-6.581-1.091-.27-2.532.042-3.767-.232C89.781,84.109,82.68,86.345,82.248,90.932Z" fill="#361d07" fill-rule="evenodd"/>
              <path id="Trazado_776565" data-name="Trazado 776565" d="M82.828,89.052a5.343,5.343,0,0,0-.691,2.395c2.274-.289,4.682,1.156,7.808,2.283,2.851,1.028,5.793,2.617,8.321.571-1.683-3.609-3.62-4.8-7.8-4.47-1.565.123-2.239.949-5.467.476a3.2,3.2,0,0,1,1.189-.323C84.459,89.616,83.3,90.048,82.828,89.052Z" fill="#241304" fill-rule="evenodd"/>
              <path id="Trazado_776566" data-name="Trazado 776566" d="M100.129,85.942c-3.452-1.782-9.073-1.127-12.458,5.273,3.508-1,4.9.014,6.474,2.316a3.952,3.952,0,0,0,2.508,1.506c1.187.08,2.313-.513,3.811-1.321a4.379,4.379,0,0,0,2.038-1.768A4.6,4.6,0,0,0,100.129,85.942Z" fill="#4f2b0c" fill-rule="evenodd"/>
              <path id="Trazado_776567" data-name="Trazado 776567" d="M96.862,86.411a5.19,5.19,0,0,1,4.411,2.153A4.788,4.788,0,0,0,98.047,87.4a4.8,4.8,0,0,1,2.481,1.907c-1.78-.868-2.8-1.442-4.943-1.364A5.437,5.437,0,0,1,99.117,89.9c-2.039-.879-4.057-1.957-6.51-1.079,1.9-.309,4.624,1.007,5.9,2.635a10.029,10.029,0,0,0-3.769-1.041c.993.15,1.951,1.836,2.221,2.17-1.58-.782-3.282-2.695-5.83-2.32,3.048.452,4.927,5.591,7.117,4.525,1.184-.576,3.7-1.855,4.159-2.665A3.915,3.915,0,0,0,101,86.808,6.221,6.221,0,0,0,96.862,86.411Z" fill="#361d07" fill-rule="evenodd"/>
            </g>
          </g>
        </g>
      </g>
      <g id="Grupo_1065991" data-name="Grupo 1065991">
        <path id="Trazado_776568" data-name="Trazado 776568" d="M231.635,196.192l3.7,1.52L102.749,341.3,37.861,304.1V237.167l8.183-5.288,122.646-70.33Z" fill="#8c7e77" fill-rule="evenodd"/>
        <path id="Trazado_776569" data-name="Trazado 776569" d="M235.334,197.711V264.67L102.749,341.3l-.014-90.146Z" fill="#807169" fill-rule="evenodd"/>
        <g id="Grupo_1065984" data-name="Grupo 1065984">
          <path id="Trazado_776570" data-name="Trazado 776570" d="M170.1,148.634l10,5.757c26.961,15.652,19.614,10.893,46.572,26.548l5.017,2.91a56.787,56.787,0,0,1,5.97,3.872,5.006,5.006,0,0,1,1.422,3.785v1.3a5.435,5.435,0,0,1-2.385,4.763c-33.726,19.452-100.493,58.115-134.25,77.592-33.623-19.524-32.958-18.609-66.56-38.171a3.543,3.543,0,0,1-.5-.346c-.05-.043-.1-.1-.159-.144a5.374,5.374,0,0,1-1.573-2.766c0-.015-.01-.022-.01-.036a12.877,12.877,0,0,1-.159-2.764,5.881,5.881,0,0,1,3.012-5.125l9.248-5.34c29.591-17.092,91.806-54,121.4-71.088C168.085,148.84,169.458,148.176,170.1,148.634Z" fill="#5c3e34" fill-rule="evenodd"/>
          <path id="Trazado_776571" data-name="Trazado 776571" d="M34.295,227.862,45.6,232.14l56.835,34.814v3.127c.01.151.01.31.01.461L33.5,230.983A6.088,6.088,0,0,1,34.295,227.862Z" fill="#765346" fill-rule="evenodd"/>
          <path id="Trazado_776572" data-name="Trazado 776572" d="M238.153,188.225a6.132,6.132,0,0,1,.949,3.326L102.448,270.542c-.01-.6-.01-1.218-.01-1.83v-2.039l130.925-76.714Z" fill="#694a3f" fill-rule="evenodd"/>
          <path id="Trazado_776573" data-name="Trazado 776573" d="M102.438,265.6v-2.644l117.518-69.687,15.06-6.94a3.626,3.626,0,0,1,3.137,1.9L102.438,266.673V265.6Z" fill="#765346" fill-rule="evenodd"/>
          <path id="Trazado_776574" data-name="Trazado 776574" d="M102.438,266.27v.684L34.295,227.862a3.876,3.876,0,0,1,3.245-2.1h.01l11.324,4.75,53.564,32.444v3.314Z" fill="#815f4f" fill-rule="evenodd"/>
          <path id="Trazado_776575" data-name="Trazado 776575" d="M169.306,148.8c32.387,18.819,33.323,18.712,65.71,37.529-64.942,37.492-67.636,39.138-132.578,76.627-32.376-18.817-32.5-18.375-64.888-37.194C102.492,188.271,104.374,186.29,169.306,148.8Z" fill="#8d6a57" fill-rule="evenodd"/>
        </g>
        <g id="Grupo_1065986" data-name="Grupo 1065986">
          <g id="Grupo_1065985" data-name="Grupo 1065985">
            <path id="Trazado_776576" data-name="Trazado 776576" d="M166.263,218.845l-51.072-29.68,36.4-21.017,51.072,29.68Z" fill="#d1e8eb" fill-rule="evenodd"/>
            <path id="Trazado_776577" data-name="Trazado 776577" d="M181.975,203.123l-.452.919-.2-.065.065-.205.216.106-.378-.186.372-.755.378.186Zm-1.054.724-.8-.258.129-.4.8.259-.129.4Zm-1.2-.387-.8-.259.13-.4c.267.088.534.172.8.259l-.129.4Zm-1.2-.388-.8-.258.129-.4.8.258-.129.4Zm-1.2-.387-.8-.258.129-.4.8.258-.129.4Zm-1.2-.387c-.266-.084-.536-.171-.8-.259l.129-.4c.267.086.535.174.8.258l-.13.4Zm-1.2-.388-.8-.258.129-.4.8.258-.129.4Zm-1.2-.386-.8-.258.128-.4.8.258-.129.4Zm-1.2-.387-.8-.258.129-.4.8.258-.129.4Zm-1.2-.387-.8-.258.129-.4.8.258-.128.4Zm-1.2-.387-.8-.258.129-.4.8.257-.129.4Zm-1.2-.387c-.268-.083-.536-.171-.8-.258l.129-.4c.267.086.535.174.8.257l-.129.4Zm-1.2-.387-.8-.257.129-.4.8.258-.129.4Zm-1.2-.386-.8-.258.129-.4.8.258-.129.4Zm-1.2-.387-.755-.244-.081-.046.211-.365.041.024.713.23-.129.4Zm-1.2-.5-.729-.422.211-.364.729.421-.211.365ZM163,197.683l-.729-.422.211-.364.729.421-.211.365Zm-1.094-.633c-.238-.138-.5-.276-.728-.421l.21-.365c.244.136.487.282.729.422l-.211.364Zm-1.093-.632-.729-.422.211-.364.729.422-.211.364Zm-1.093-.632-.729-.422L159.2,195l.729.421-.211.365Zm-1.094-.633-.728-.421.21-.365.729.422-.211.364Zm-1.093-.632-.729-.422.211-.364.729.422-.211.364Zm-1.093-.632-.729-.422.211-.364.729.421-.211.365Zm-1.093-.633-.729-.421.211-.365.728.422-.21.364Zm-1.094-.632-.729-.422.211-.364.729.421-.211.365Zm-1.093-.632-.729-.422.211-.364.729.421-.211.365Zm-1.093-.633-.729-.421.211-.365.728.422-.21.364Zm-1.094-.632-.729-.422.211-.364.729.422-.211.364Zm-1.093-.632-.729-.422.211-.364.729.421-.211.365Zm-1.094-.633-.728-.421.21-.365.729.422-.211.364Zm-1.093-.632-.729-.422.211-.364.729.422-.211.364ZM146.6,188.2l-.729-.422.211-.364.729.421-.211.365Zm-1.093-.633-.729-.421.21-.365.729.422-.21.364Zm-1.094-.632-.729-.422.211-.364.729.422-.211.364Zm-1.093-.632-.729-.422.211-.364.729.421-.211.365Zm-1.093-.633-.729-.421.21-.364.729.421-.21.364Zm-1.094-.632-.729-.421.211-.365.729.422-.211.364Zm-1.093-.632-.729-.422.211-.364.729.421-.211.365Zm-1.093-.632-.729-.422.21-.364.729.421-.21.365Zm-1.094-.633-.729-.421.211-.365.729.422-.211.364Zm-1.093-.632-.729-.421.211-.365.729.422-.211.364Zm-1.094-.632-.729-.422.211-.364.729.421-.211.365Zm-1.093-.632-.729-.422.211-.364.729.421-.211.365Zm-1.093-.633-.284-.164.421-.243.073.043-.21.364Zm13.056-7.828.555.633-.316.277-.555-.632.316-.278Zm.833.949c.184.212.37.422.555.633l-.316.278-.556-.633.317-.278Zm.833.949.555.633-.316.278-.556-.633.317-.278Zm.833.95q.279.315.556.633l-.317.277-.555-.633.316-.277Zm.833.949.556.633-.317.278-.555-.633.316-.278Zm.834.949c.181.213.37.423.555.633l-.316.278c-.185-.211-.374-.421-.556-.633l.317-.278Zm.833.949.556.633-.317.278-.555-.633.316-.278Zm.833.949.556.633-.317.278-.555-.633.316-.278Zm.834.949.556.633-.317.278-.556-.633.317-.278Zm.833.949c.183.208.368.431.556.632l-.316.278c-.188-.2-.373-.424-.556-.632l.316-.278Zm.834.949.2.232.393.111-.114.4-.513-.145-.286-.325.316-.278Zm1,.457.811.229-.115.4-.81-.229.114-.4Zm1.216.343.81.229-.114.4-.811-.228.115-.406Zm1.215.343.81.229-.114.4-.81-.228.114-.406Zm1.216.343.81.229-.114.4-.81-.228.114-.406Zm1.215.343.811.229-.114.4c-.271-.075-.541-.152-.811-.228l.114-.406Zm1.216.343.81.229-.114.4-.81-.228.114-.406Zm1.216.343.81.229-.114.4-.811-.228.115-.406Zm1.215.343.811.229-.115.4-.81-.228.114-.406Zm1.216.343.81.229-.114.4-.811-.228.115-.406Zm1.215.344c.271.074.541.152.81.228l-.114.4c-.27-.076-.54-.154-.81-.228l.114-.405Zm1.216.343.81.228-.114.4-.811-.228.115-.4Zm1.215.343.81.228-.114.406-.81-.229.114-.4Zm1.216.343.81.228-.114.406-.811-.229.115-.4Zm1.215.343.811.229-.115.4-.81-.229.114-.4Zm1.216.343.81.229-.114.405-.81-.229.114-.4Zm1.215.343c.27.076.542.15.811.229l-.115.4c-.269-.078-.54-.153-.81-.229l.114-.4Zm1.216.343c.27.075.54.153.81.229l-.114.4-.811-.229.115-.4Zm.724.877a3.01,3.01,0,0,0-.313.72l-.4-.114a3.427,3.427,0,0,1,.355-.82l.363.214Zm-.393,1.1a3.187,3.187,0,0,0-.01.787l-.418.049a3.505,3.505,0,0,1,.011-.892l.417.056Zm.054,1.18a4.022,4.022,0,0,0,.245.765l-.387.165a4.817,4.817,0,0,1-.268-.836l.41-.094Zm.415,1.133a6.912,6.912,0,0,0,.417.7l-.349.235a7.046,7.046,0,0,1-.441-.745l.373-.193Zm.655,1.036a7.941,7.941,0,0,0,.525.633l-.311.284a8.478,8.478,0,0,1-.55-.663l.336-.254Zm.808.933c.192.2.394.389.6.57l-.279.316c-.213-.19-.421-.386-.621-.59l.3-.3Zm.914.841c.213.177.43.347.653.512l-.25.339c-.229-.167-.453-.346-.672-.527l.269-.324Zm.99.755c.227.16.458.313.692.461l-.224.357c-.24-.152-.477-.309-.709-.472l.241-.346Zm1.047.679c.237.143.479.281.723.413l-.2.371c-.249-.136-.5-.276-.74-.422l.217-.362Zm1.091.608c.248.128.5.25.749.368l-.178.381q-.386-.18-.763-.375l.192-.374Zm1.128.541c.255.113.514.213.768.324l-.156.392c-.263-.107-.523-.216-.782-.331l.17-.385Zm1.157.476-.094.249-.038-.1c-.1.209-.207.42-.313.628l.377.187c.142-.276.278-.558.417-.837l-.349-.131Zm-.256,1.345c-.121.252-.25.5-.374.755l-.377-.188c.124-.251.253-.5.374-.754l.377.187Zm-.561,1.132c-.124.251-.247.5-.372.754l-.378-.186c.125-.251.249-.5.373-.755l.377.187Zm-.558,1.132-.373.755-.377-.186.372-.755Z" fill="#618f9c" fill-rule="evenodd"/>
          </g>
          <path id="Trazado_776578" data-name="Trazado 776578" d="M77.1,204.072,119.1,179.784,183.6,216.8,141.61,241.083Z" fill="#618f9c" fill-rule="evenodd"/>
          <path id="Trazado_776579" data-name="Trazado 776579" d="M164.976,224.755l-.452.919-.2-.065.066-.2.216.106-.378-.186.372-.755.377.186Zm-9.163,5.237-.578-.6.3-.292.584.607-.295.283.381-.062.067.416-.831.135-.067-.415.435-.071Zm-.869-.9-.584-.606.3-.292.583.607-.3.291Zm-.876-.91-.583-.607.3-.291.584.606-.3.292Zm-.875-.91-.584-.607.3-.292.584.607-.3.292Zm-.876-.91-.584-.607.3-.292.583.607-.3.292Zm-.876-.91-.583-.607.3-.292.584.607-.3.292Zm-.876-.91-.583-.607.3-.292.584.607-.3.292Zm-.875-.91-.584-.607.3-.292.584.607-.3.292Zm-.876-.911-.584-.606.3-.292.584.607-.3.291Zm-.876-.91-.583-.607.3-.292.584.607-.3.292Zm-.875-.91-.289-.3-.316-.183.211-.364.368.212.33.344-.3.292Zm-.97-.695-.729-.421.211-.365.729.422-.211.364ZM145,219.569l-.729-.421.21-.365.73.422-.211.364Zm-1.094-.632-.729-.421.211-.365.729.422-.211.364Zm-1.093-.632-.729-.422.211-.364.729.421-.211.365Zm-1.093-.632-.73-.422.211-.364.729.421-.21.365Zm-1.094-.632-.729-.422.211-.364.729.421-.211.365Zm-1.093-.633-.729-.421.21-.364.729.421-.21.364Zm-1.094-.632-.729-.421.211-.365.729.422-.211.364Zm-1.093-.632-.729-.421.21-.365.729.422-.21.364Zm-1.094-.632-.729-.421.211-.365.729.421-.211.365Zm-1.093-.632-.729-.421.211-.365.729.421-.211.365Zm-1.093-.632-.73-.422.211-.364.729.421-.21.365Zm-1.094-.632-.729-.422.211-.364.729.421-.211.365Zm-1.093-.632c-.243-.141-.488-.28-.729-.422l.21-.364c.242.142.486.28.729.421l-.21.365Zm-1.094-.633-.729-.421.211-.364.729.421-.211.364Zm-1.093-.632-.729-.421.21-.365.73.422-.211.364Zm-1.094-.632-.729-.421.211-.365.729.422-.211.364Zm-1.093-.632-.729-.421.21-.365.73.422-.211.364Zm-1.094-.632-.729-.421.211-.365.729.422-.211.364Zm-1.093-.632-.729-.422.211-.364.729.421-.211.365Zm-1.093-.632-.729-.422.21-.364.729.421-.21.365Zm-1.094-.632-.729-.422.211-.364.729.421-.211.365Zm-1.093-.632-.729-.422.21-.364.729.421-.21.365Zm-1.094-.633-.729-.421.211-.364.729.421-.211.364Zm-1.094-.632-.729-.421.211-.364.729.421-.211.364Zm-1.093-.632-.729-.421.211-.364.729.421-.211.364Zm-1.094-.632-.729-.421.211-.364.729.421-.211.364Zm-1.093-.632-.729-.421.211-.364c.243.139.486.28.729.421l-.211.364Zm-1.093-.632-.729-.421.21-.365.729.422-.21.364Zm-1.094-.632-.729-.421.211-.365.729.422-.211.364Zm-1.093-.632-.73-.421.211-.365.729.422-.21.364Zm-1.094-.632-.729-.421.211-.364.729.421-.211.364Zm-1.093-.632-.729-.421.21-.364.729.421-.21.364Zm-1.094-.632-.729-.421.211-.364.729.421-.211.364Zm-1.093-.631-.729-.422.21-.364.729.421-.21.365Zm-1.094-.632-.729-.422.211-.364.728.421-.21.365Zm-1.094-.632c-.243-.141-.487-.28-.729-.422l.211-.364c.243.139.486.281.729.421l-.211.365Zm-1.093-.632-.729-.422.21-.364.729.421-.21.365Zm-1.094-.632-.729-.421.211-.365.729.421-.211.365Zm-1.093-.632-.73-.421.211-.365.729.421-.21.365Zm-1.094-.632-.455-.263-.061.036-.214-.363.273-.16.668.386-.211.364Zm-.879-.014-.727.427-.213-.363.726-.427.214.363Zm-1.09.64-.726.426-.213-.363.726-.426.213.363Zm-1.089.639c-.242.142-.486.282-.726.427l-.213-.363.726-.427.213.363Zm-1.089.64-.726.426-.213-.363.726-.426.213.363Zm-1.089.639c-.242.142-.485.284-.726.427l-.213-.363.725-.427.214.363Zm-1.089.64-.726.426-.214-.363.727-.426.213.363Zm-1.089.64c-.243.14-.484.284-.726.426L94,198.806c.241-.142.483-.286.725-.426l.214.363Zm-1.089.639-.726.427-.214-.363.726-.427.214.363Zm-1.089.64c-.242.142-.485.283-.726.426l-.214-.362c.242-.144.485-.285.726-.427l.214.363Zm-1.089.64-.726.426-.214-.363.726-.426.214.363Zm-1.089.64-.726.426-.213-.363.725-.426.214.363Zm-1.089.639-.726.427-.213-.363.725-.427.214.363Zm-1.089.64-.726.427-.213-.363.726-.427.213.363Zm-1.089.64c-.239.141-.491.281-.726.427l-.213-.363c.234-.146.486-.286.726-.426l.213.362Zm-1.088.641-.726.426-.214-.363.726-.426.214.363Zm-1.089.64-.026.015-.1.337-.871-.255.782-.46.178.3.029.009-.008.027.015.025Zm.4.066.807.237-.118.4-.808-.237.119-.4Zm1.211.356.808.236-.118.4-.808-.236.118-.4Zm1.213.355.808.237-.119.4-.808-.237.119-.4Zm1.212.355.808.237-.119.4-.808-.237.119-.4Zm1.212.356c.268.078.541.154.807.237l-.118.4-.808-.237.119-.4Zm1.211.355c.27.076.539.158.809.237l-.119.4c-.269-.079-.539-.161-.808-.237l.118-.4Zm1.213.356.807.237-.119.4-.807-.237.119-.4Zm1.211.356.808.237-.118.4-.808-.237.118-.4Zm1.212.356.808.237-.119.4-.808-.237.119-.4Zm1.212.356.808.237-.119.4c-.268-.081-.539-.158-.808-.237l.119-.4Zm1.212.356.808.237-.119.4-.808-.237.119-.4Zm1.212.356.807.237-.118.4-.808-.237.119-.4Zm1.211.356.808.238-.119.4-.807-.237.118-.4Zm1.212.356.808.238-.119.4-.808-.238.119-.4Zm1.212.356.807.238-.118.4-.808-.238.119-.4Zm1.212.357.807.237-.118.4-.808-.238.119-.4Zm1.211.356c.27.078.539.158.808.237l-.119.4-.807-.237.118-.4Zm1.212.356.808.237-.119.4-.808-.237.119-.4Zm1.212.356.808.237-.119.4-.808-.237.119-.4Zm1.212.356.808.237-.119.4-.808-.237.119-.4Zm1.212.356.807.237-.118.4-.808-.237.119-.4Zm1.211.356.808.237-.119.4-.807-.237.118-.4Zm1.212.355.808.238-.119.4-.808-.238.119-.4Zm1.212.356.808.237-.119.4-.808-.237.119-.4Zm1.212.356.808.237-.119.4-.808-.237.119-.4Zm1.212.355.808.237-.119.4-.807-.237.118-.4Zm1.212.355.808.237-.119.4-.808-.237.119-.4Zm1.212.356.808.236-.118.4-.808-.236.118-.4Zm1.212.355.512.149.281.332-.321.273-.2-.236-.39-.114.118-.4Zm1.065.8.544.642-.321.272-.544-.642.321-.272Zm.816.963.545.643-.321.272-.545-.642.321-.273Zm.817.964.544.642-.321.272-.544-.642.321-.272Zm.816.963.545.643-.321.272-.545-.642.321-.273Zm.817.964.545.642-.322.272c-.182-.213-.363-.428-.544-.642l.321-.272Zm.817.963.544.643-.321.272-.544-.642.321-.273Zm.817.964.544.642-.321.272-.545-.642.322-.272Zm.817.963.544.642-.321.272-.544-.642.321-.272Zm.817.963.544.642-.321.272-.545-.642.322-.272Zm.817.963c.183.212.363.428.545.642l-.321.272c-.182-.213-.362-.429-.545-.642l.321-.272Zm.817.963.545.641-.321.273-.545-.642.321-.272Zm.818.962.545.642-.321.272-.545-.641.321-.273Zm.806.973-.309.262.1.119c.3-.078.6-.146.911-.2l-.073-.414c-.269.064-.542.108-.815.177l.185.059Zm1.052-.305c.283-.04.564-.072.849-.1l.034.42c-.276.023-.55.054-.824.093l-.059-.417Zm1.275-.125c.284-.015.567-.023.852-.025v.421c-.278,0-.554.009-.831.024l-.022-.42Zm1.278-.021c.283.005.568.018.851.036l-.028.421c-.276-.019-.556-.032-.832-.036l.009-.421Zm1.275.069q.423.036.845.09l-.053.417q-.414-.053-.829-.088l.037-.419Zm1.267.147c.28.04.559.088.837.138l-.075.414c-.274-.05-.549-.1-.824-.136l.062-.416Zm1.255.219c.277.056.554.117.829.183l-.1.409q-.407-.1-.815-.18l.084-.412Zm1.241.285c.275.071.547.146.819.226l-.12.4c-.266-.079-.535-.152-.8-.221l.1-.408Zm1.225.349c.27.083.54.174.806.267l-.139.4c-.262-.092-.527-.182-.792-.263l.125-.4Zm1.206.411c.265.1.529.2.791.309l-.16.39c-.258-.106-.517-.208-.778-.3l.147-.4Zm1.183.475c.26.112.517.229.773.351l-.182.38q-.377-.18-.759-.345l.168-.386Zm1.155.538c.254.128.5.26.752.4l-.2.368c-.244-.135-.489-.264-.738-.389l.19-.376Zm1.122.607c.245.143.488.292.726.445l-.229.354c-.232-.151-.47-.3-.709-.435l.212-.364Zm1.081.681c.236.16.466.326.693.5l-.256.335c-.221-.168-.445-.33-.674-.485l.237-.348Zm1.029.761c.151.122.3.248.446.376l.067-.011.068.415-.265.044c-.191-.17-.382-.336-.581-.5l.265-.328Zm.928.3c.277-.044.554-.091.831-.137l.068.416-.83.137-.069-.416Zm1.246-.205.831-.137.068.416c-.276.047-.553.091-.83.136l-.069-.415Zm1.247-.2.831-.136.068.415c-.277.047-.554.091-.831.136l-.068-.415Zm1.246-.2.831-.136.068.415-.831.136-.068-.415Zm1.247-.205c.277-.045.554-.088.831-.135l.068.415c-.277.047-.555.091-.832.136l-.067-.416Zm1.246-.2c.276-.045.556-.087.832-.136l.067.416-.831.135-.068-.415Zm9.792-4.787-.8-.258.13-.4.8.259-.129.4Zm-1.2-.387-.8-.259.13-.4c.266.087.534.171.8.258l-.129.4Zm-1.2-.388-.8-.258.129-.4.8.258-.129.4Zm-1.2-.387-.8-.258.129-.4.8.258-.13.4Zm-1.2-.387c-.267-.084-.537-.171-.8-.259l.129-.4c.266.086.534.174.8.258l-.128.4Zm-1.2-.387-.8-.258.128-.4.8.258-.129.4Zm-1.2-.387-.8-.258.129-.4.8.258-.129.4Zm-1.2-.387-.8-.258.129-.4.8.258-.128.4Zm-1.2-.387-.8-.258.129-.4.8.258-.129.4Zm-1.2-.387-.8-.258.129-.4.8.257-.129.4Zm-1.2-.387c-.268-.083-.536-.171-.8-.257l.129-.4c.266.086.534.174.8.258l-.129.4Zm-1.2-.386-.8-.258.129-.4.8.258-.129.4Zm-1.2-.387-.8-.258.128-.4.8.258-.129.4Zm-1.2-.387-.756-.244-.08-.046.21-.365.042.024.713.23-.129.4Zm-1.2-.5-.729-.422.211-.364.729.421-.211.365ZM146,219.315l-.729-.422.21-.364.73.421-.211.365Zm-1.094-.633c-.239-.138-.5-.276-.729-.421l.211-.365c.244.136.487.282.729.422l-.211.364Zm-1.093-.632-.729-.422.211-.364.729.422-.211.364Zm-1.093-.632-.729-.422.211-.364.729.421-.211.365Zm-1.094-.633-.728-.421.21-.365.729.422-.211.364Zm-1.093-.632-.729-.422.211-.364.729.422-.211.364Zm-1.093-.632-.729-.422.211-.364.728.421-.21.365Zm-1.094-.633-.728-.421.21-.365.729.422-.211.364Zm-1.093-.632-.729-.422.211-.364.729.422-.211.364Zm-1.093-.632-.729-.422.211-.364.729.421-.211.365Zm-1.094-.633-.728-.421.21-.365.729.422-.211.364Zm-1.093-.632-.729-.422.211-.364.729.422-.211.364Zm-1.093-.632-.729-.422.211-.364.729.421-.211.365Zm-1.093-.633-.729-.421.21-.365.729.422-.21.364Zm-1.094-.632-.729-.422.211-.364.729.422-.211.364Zm-1.093-.632c-.243-.14-.487-.28-.729-.422l.211-.364.729.421-.211.365Zm-1.094-.633-.728-.421.21-.365.729.422-.211.364Zm-1.093-.632-.729-.421.211-.365.729.422-.211.364Zm-1.093-.632-.729-.422.211-.364.728.421-.21.365Zm-1.094-.632-.729-.422.211-.364.729.421-.211.365Zm-1.093-.633-.729-.421.211-.365.729.422-.211.364Zm-1.093-.632-.729-.422.211-.364.728.421-.21.365Zm-1.094-.632-.729-.422.211-.364.729.421-.211.365Zm-1.093-.633-.729-.421.211-.364.729.421-.211.364Zm-1.093-.632-.729-.421.211-.365.728.422-.21.364Zm-1.094-.632-.729-.422.211-.364.729.422-.211.364Zm-1.093-.632-.729-.422.211-.364.729.421-.211.365Zm-1.094-.633-.728-.421.21-.364.729.421-.211.364Zm-1.093-.632-.729-.421.211-.365.729.422-.211.364Zm-1.094-.632-.728-.421.211-.365.728.422-.211.364Zm-1.093-.632-.729-.422.211-.364.729.421-.211.365Zm-1.093-.632-.729-.422.211-.364.728.421-.21.365Zm-1.094-.632-.728-.422.21-.364.729.421-.211.365Zm-1.093-.633c-.243-.14-.487-.28-.729-.421l.211-.365c.242.142.486.281.729.422l-.211.364Zm-1.094-.632-.728-.421.21-.365.729.422-.211.364Zm-1.093-.632-.729-.421.211-.365.729.422-.211.364Zm-1.093-.632-.729-.421.21-.365.729.422-.21.364Zm-1.094-.632-.729-.421.211-.365.729.422-.211.364Zm-1.093-.632c-.244-.138-.486-.281-.729-.421l.211-.365c.242.14.484.284.728.421l-.21.365Zm-1.094-.632-.729-.422.211-.364.074.043-.15-.255.726-.426.214.363-.665.39.53.306-.211.365Zm.495-1.638.726-.426.214.363-.726.426-.214-.363Zm1.089-.64.726-.426.213.363-.725.426-.214-.363Zm1.089-.639.726-.427.213.363c-.241.142-.483.285-.726.426l-.213-.362Zm1.089-.64.726-.427.213.363-.726.427-.213-.363Zm1.089-.64.726-.427.213.363-.725.427-.214-.363Zm1.089-.64.726-.427.213.363-.726.427-.213-.363Zm1.089-.64c.242-.142.486-.282.726-.426l.213.363c-.243.137-.485.285-.726.426l-.213-.363Zm1.089-.64c.242-.141.486-.282.726-.426l.213.363-.726.426-.213-.363Zm1.089-.639.726-.427.213.363-.726.427-.213-.363Zm1.089-.64.726-.426.214.363-.727.426-.213-.363Zm1.089-.639.727-.427.213.363-.726.427-.214-.363Zm1.089-.64.727-.426.213.363-.726.426-.214-.363Zm1.09-.639.726-.427.213.363-.726.427-.213-.363Zm1.089-.64c.243-.141.484-.284.726-.426l.213.363c-.242.142-.484.285-.726.426l-.213-.363Zm1.089-.639.727-.426.212.363-.725.426-.214-.363Zm1.273-.094.555.633-.316.278c-.186-.21-.37-.422-.555-.633l.316-.278Zm.833.95.555.633-.316.278-.556-.633.317-.278Zm.833.95.555.632-.316.278-.556-.633.317-.277Zm.833.949.555.633-.317.278-.555-.633.317-.278Zm.833.949.555.633-.317.278-.555-.633.317-.278Zm.833.95c.185.21.371.421.555.633l-.316.278-.556-.633.317-.278Zm.833.949.555.633-.317.278-.555-.633.317-.278Zm.833.95.555.633-.317.277-.555-.633.317-.277Zm.833.949.555.633-.317.278-.555-.633.317-.278Zm.832.949.556.633-.316.278-.556-.633.316-.278Zm.834.95.555.633-.317.277-.555-.633.317-.277Zm.833.949.555.633-.316.277-.556-.632.317-.278Zm.833.949c.184.212.37.422.555.633l-.316.278-.556-.633.317-.278Zm.833.949.555.633-.316.278-.555-.633.316-.278Zm.833.95c.185.21.371.421.556.633l-.317.277-.555-.633.316-.277Zm.833.949.556.633-.317.278-.555-.633.316-.278Zm.834.949c.181.213.37.423.555.633l-.317.278c-.184-.211-.374-.421-.555-.633l.317-.278Zm.833.949.555.633-.316.278-.556-.633.317-.278Zm.833.949.556.633-.316.278-.556-.633.316-.278Zm.834.949.555.633-.316.278-.556-.633.317-.278Zm.833.949c.183.208.368.431.556.632l-.316.278c-.188-.2-.373-.424-.556-.632l.316-.278Zm.834.949.2.232.393.111-.114.4-.513-.144-.286-.326.316-.278Zm1,.457.81.229-.114.4-.81-.228.114-.406Zm1.216.343.81.229-.114.4-.811-.228.115-.406Zm1.215.343.811.229-.115.405-.81-.228.114-.406Zm1.216.344.81.228-.114.4-.811-.228.115-.4Zm1.216.342.81.229-.115.4c-.27-.075-.54-.152-.81-.228l.115-.406Zm1.215.344.81.228-.114.4-.811-.228.115-.4Zm1.216.343.81.228-.115.4-.81-.228.115-.4Zm1.215.342.81.229-.114.4-.811-.228.115-.406Zm1.216.344.81.228-.115.4-.81-.228.115-.4Zm1.215.343c.27.074.54.152.81.228l-.114.4c-.27-.076-.54-.154-.81-.228l.114-.4Zm1.216.343.81.228-.115.4-.81-.228.115-.4Zm1.215.343.811.228-.115.406-.81-.229.114-.4Zm1.216.343.81.229-.114.405-.811-.229.115-.4Zm1.215.343.811.229-.115.4-.81-.229.114-.4Zm1.216.343.81.229-.114.4-.811-.229.115-.405Zm1.215.343c.27.076.541.15.81.229l-.114.4c-.269-.078-.54-.153-.81-.229l.114-.4Zm1.216.343c.27.075.54.153.81.229l-.114.4-.811-.229.115-.4Zm.724.877a3.01,3.01,0,0,0-.313.72l-.4-.114a3.427,3.427,0,0,1,.355-.82l.363.214Zm-.394,1.1a3.238,3.238,0,0,0-.009.787l-.419.049a3.551,3.551,0,0,1,.011-.892l.417.056Zm.055,1.18a4.022,4.022,0,0,0,.245.765l-.387.165a4.817,4.817,0,0,1-.268-.836l.41-.094Zm.415,1.133a6.912,6.912,0,0,0,.417.7l-.349.236a7.252,7.252,0,0,1-.441-.745l.373-.194Zm.655,1.036a7.766,7.766,0,0,0,.525.633l-.311.284c-.189-.208-.383-.437-.55-.663l.336-.254Zm.808.933c.192.2.394.389.6.57L160.9,217c-.213-.19-.421-.386-.621-.59l.3-.3Zm.914.841c.213.177.43.347.652.512l-.249.34c-.229-.168-.453-.347-.672-.528l.269-.324Zm.989.756c.228.159.458.312.693.46l-.224.357c-.24-.152-.477-.309-.709-.472l.24-.345Zm1.047.678c.238.143.48.281.724.413l-.2.371c-.249-.135-.5-.276-.739-.422l.215-.362Zm1.092.608c.247.128.5.25.749.368l-.179.381q-.384-.18-.763-.375l.193-.374Zm1.128.541c.255.113.514.213.768.324l-.156.392c-.263-.107-.523-.216-.783-.331l.171-.385Zm1.157.476-.094.249-.038-.1c-.1.209-.207.42-.313.628l.377.187c.142-.276.278-.558.417-.836l-.349-.132Zm-.256,1.345c-.121.253-.25.5-.374.755l-.377-.188c.124-.251.253-.5.374-.754l.377.187Zm-.56,1.132c-.125.251-.248.5-.373.754l-.378-.186c.126-.251.248-.5.373-.755l.378.187Zm-.56,1.132-.372.755-.377-.186.372-.755Z" fill="#d1e8eb" fill-rule="evenodd"/>
        </g>
        <g id="Grupo_1065989" data-name="Grupo 1065989">
          <g id="Grupo_1065987" data-name="Grupo 1065987">
            <path id="Trazado_776580" data-name="Trazado 776580" d="M54.561,230.437l13.861-8.056-8.789-5.075-13.862,8.055Z" fill="#005082" fill-rule="evenodd"/>
            <path id="Trazado_776581" data-name="Trazado 776581" d="M63.68,233.467l13.86-8.056-8.788-5.074-13.862,8.055Z" fill="#003f66" fill-rule="evenodd"/>
            <path id="Trazado_776582" data-name="Trazado 776582" d="M68.66,238.523l13.86-8.056-8.789-5.075L59.87,233.447Z" fill="#00314f" fill-rule="evenodd"/>
          </g>
          <g id="Grupo_1065988" data-name="Grupo 1065988">
            <path id="Trazado_776583" data-name="Trazado 776583" d="M93.66,238l12.911-7.5-8.187-4.727-12.913,7.5Z" fill="#618f9c" fill-rule="evenodd"/>
            <path id="Trazado_776584" data-name="Trazado 776584" d="M101.373,239l12.912-7.5-8.187-4.727-12.913,7.5Z" fill="#4b707a" fill-rule="evenodd"/>
            <path id="Trazado_776585" data-name="Trazado 776585" d="M110.779,242.135l12.911-7.5L115.5,229.9l-12.913,7.5Z" fill="#325159" fill-rule="evenodd"/>
          </g>
        </g>
        <g id="Grupo_1065990" data-name="Grupo 1065990">
          <path id="Trazado_776586" data-name="Trazado 776586" d="M117.578,244.909,95.673,232.177a1.557,1.557,0,0,1,1.525-.152l21.91,12.733A4.932,4.932,0,0,0,117.578,244.909Z" fill="#003f66" fill-rule="evenodd"/>
          <path id="Trazado_776587" data-name="Trazado 776587" d="M81.642,244.107l23.716,12.635-2.365,1.432L81.045,244.453Z" fill="#001e30" fill-rule="evenodd"/>
          <path id="Trazado_776588" data-name="Trazado 776588" d="M117.585,246.047c1.535-.881,1.547,1.8.008,2.685L103.55,256.84l-.008-2.686Z" fill="#e8e3e3" fill-rule="evenodd"/>
          <path id="Trazado_776589" data-name="Trazado 776589" d="M103.542,254.154l.008,2.686L81.642,244.107l-.008-2.686Z" fill="#f6f5f5" fill-rule="evenodd"/>
          <path id="Trazado_776590" data-name="Trazado 776590" d="M95.674,232.177l21.909,12.732-14.659,9.461L81.035,240.63Z" fill="#003f66" fill-rule="evenodd"/>
          <path id="Trazado_776591" data-name="Trazado 776591" d="M95.673,232.177l21.91,12.732c-12.459-3.321-23.91-6.245-36.549-4.279Z" fill="#005082" fill-rule="evenodd"/>
          <path id="Trazado_776592" data-name="Trazado 776592" d="M102.943,253.36l0,1.138L81.036,241.765l0-1.136Z" fill="#00314f" fill-rule="evenodd"/>
          <path id="Trazado_776593" data-name="Trazado 776593" d="M117.585,246.047l-14.043,8.107-.6.344,0-1.138,14.64-8.451a1.518,1.518,0,0,1,1.525-.151,1.5,1.5,0,0,1,.638,1.384,4.749,4.749,0,0,1-2.151,3.728l-14.639,8.451,0-1.137.6-.344,14.043-8.108C119.132,247.844,119.12,245.166,117.585,246.047Z" fill="#001e30" fill-rule="evenodd"/>
          <path id="Trazado_776594" data-name="Trazado 776594" d="M102.953,257.184l0,1.138L81.047,245.589l0-1.135Z" fill="#00314f" fill-rule="evenodd"/>
        </g>
      </g>
      <path id="Trazado_776595" data-name="Trazado 776595" d="M138.222,189.894c-.253,1.285-2.591,1.63-4.964,1.636-1.5,0-5.687-5.709-7.891-4.592-2.177,1.1.3,4.791-.928,4.63-2.844-.373-4.194-1.7-7.376-6.651-.853-1.326-2.025-2.467-3.317-4.105l5.118-2.983C125.223,183,130.916,186.222,138.222,189.894Z" fill="#5c3e34" fill-rule="evenodd" opacity="0.5" style="mix-blend-mode: multiply;isolation: isolate"/>
      <g id="Grupo_1065994" data-name="Grupo 1065994">
        <g id="Grupo_1065992" data-name="Grupo 1065992">
          <path id="Trazado_776596" data-name="Trazado 776596" d="M121.336,171.037c1.365,3.122,1.988,4.836,3.127,5.848,1.169,1.038,4.617,2.116,6.613,2.822,1.126.6,3.312,2.515,4.546,3.2.974,1.877,1.64,4.061,2.614,5.937a.992.992,0,0,1,.069.88c.218.444-.177.67-.539.774-1.606.466-2.153-.946-3.037-2.142-.557-.754-1.238-1.266-1.674-1.855l-.9-.517c.642,1.646,1.211,3.273,1.79,4.942-1.571.6-2.368-.616-3.043-2.3-.361-.724-.955-1.516-1.256-2.3a26.068,26.068,0,0,1-4.8-1.263c-1.07-.507-1.538-.013-1.636.271-.258.751,2.12,3.181,2.305,4.859.153,1.384-1.236,1.66-1.932.749-.6-.787-.952-1.329-1.839-2.342a23.478,23.478,0,0,0-1.741-2.778,5.58,5.58,0,0,1-1.606-4.69,7.254,7.254,0,0,0-.226-2,3.515,3.515,0,0,0-.445-1.219c-.739-1.3-1.367-2.568-2.168-3.861Z" fill="#e8a476" fill-rule="evenodd"/>
          <path id="Trazado_776597" data-name="Trazado 776597" d="M121.566,178.926a5,5,0,0,0,1.808-3.442,5.511,5.511,0,0,0,1.089,1.4c1.169,1.038,4.617,2.116,6.613,2.822,1.126.6,3.312,2.515,4.546,3.2.974,1.877,1.64,4.061,2.614,5.937a1.234,1.234,0,0,1,.128.346c-1.1-1.854-2.186-4.038-3.222-5.782l-3.943-2.2c-.811-.443-1.588-.292-.265.594l3.43,2.3a39.573,39.573,0,0,1,2.641,3.834,12.01,12.01,0,0,0,1.3,1.788.42.42,0,0,1-.057.52c-1.223-.729-1.674-2.018-2.345-2.927-.557-.754-1.527-2.286-1.963-2.874l-3.576-2.029c-.916-.533-2.78-.309-1.348.573l2.43,1.5c.641,1.646,1.923,4.774,2.5,6.443-1.035.715-2.6-5.335-2.875-6.061-1.637-1.121-4.624-2.27-6.835-3.555A6.818,6.818,0,0,1,121.566,178.926Z" fill="#f1b287" fill-rule="evenodd"/>
          <path id="Trazado_776598" data-name="Trazado 776598" d="M138.364,189.456c-.013.081-.035.166-.059.266a12.01,12.01,0,0,1-1.3-1.788,39.573,39.573,0,0,0-2.641-3.834l-3.256-2.375,3.784,1.95q1.719,2.9,3.472,5.781Zm-.779,1.086c-1.339-1.778-2.608-3.607-3.9-5.42a22.46,22.46,0,0,0-3.1-2.066c-.635-.285-1.576-.082-.892.349l1.814,1.141.648,1.436.9.517c.436.589,1.117,1.1,1.674,1.855C135.579,189.5,136.117,190.853,137.585,190.542Z" fill="#db9669" fill-rule="evenodd"/>
          <path id="Trazado_776599" data-name="Trazado 776599" d="M133.1,191.078c-1.036-.051-1.656-1.1-2.2-2.455-.361-.724-.955-1.516-1.256-2.3a26.068,26.068,0,0,1-4.8-1.263c-1.07-.507-1.538-.013-1.636.271-.258.751,2.12,3.181,2.305,4.859.153,1.384-1.236,1.66-1.932.749-.6-.787-.952-1.329-1.839-2.342a23.478,23.478,0,0,0-1.741-2.778,5.58,5.58,0,0,1-1.606-4.69,7.254,7.254,0,0,0-.226-2,3.515,3.515,0,0,0-.445-1.219c-.739-1.3-1.367-2.568-2.168-3.861l5.415-2.625c.358.89,1.453,2.594,1.744,3.345.04,1.515-1.616,2.829-2.619,3.641a8.47,8.47,0,0,0,1.5,2.33,36.421,36.421,0,0,0,4.727,2.347c.624.291,2.612.888,3.133,1.158,1.224.633,1.023.49,1.5,1.757A21.457,21.457,0,0,0,133.1,191.078Z" fill="#db9669" fill-rule="evenodd"/>
        </g>
        <g id="Grupo_1065993" data-name="Grupo 1065993">
          <path id="Trazado_776600" data-name="Trazado 776600" d="M116.286,176.957c1.611,1.2,6.42-.842,6.555-3.08-4.332-14.28-8.437-21.574-11.434-29.4l-.5.344a89.943,89.943,0,0,0-.419,22.905C113.364,172.448,115.59,175.871,116.286,176.957Z" fill="#729ec1" fill-rule="evenodd"/>
          <path id="Trazado_776601" data-name="Trazado 776601" d="M121.307,176.032a3.158,3.158,0,0,0,1.534-2.155,182.823,182.823,0,0,0-8.491-22.366c.12,3.364.15,6.459.063,9.824C117.466,167.488,118.911,170.921,121.307,176.032Z" fill="#8fbce0" fill-rule="evenodd"/>
          <path id="Trazado_776602" data-name="Trazado 776602" d="M116.286,176.957c.786.584,2.332.4,3.726-.205-4.17-8.643-5.8-11.582-7.5-16.207a87.145,87.145,0,0,0-.125-13.6c-.339-.823-.668-1.642-.984-2.468l-.5.344a89.943,89.943,0,0,0-.419,22.905C113.364,172.448,115.59,175.871,116.286,176.957Z" fill="#6087a8" fill-rule="evenodd"/>
        </g>
      </g>
      <g id="Grupo_1065995" data-name="Grupo 1065995">
        <path id="Trazado_776603" data-name="Trazado 776603" d="M213.574,196.278,150.923,159.87l12.063-6.966c1.529-.87,3.751-4.207,1.7-5.306l62.77,36.408a.991.991,0,0,1,.137.1c1.463,1.264.985,2.963-.953,4.69C222.724,192.284,214.237,195.9,213.574,196.278Z" fill="#4b707a" fill-rule="evenodd"/>
        <path id="Trazado_776604" data-name="Trazado 776604" d="M225.359,189.854c3.212-3.017-1.032-4.286-4.347-5.733l3.28-2.747C228.9,182.679,230.811,186.508,225.359,189.854Z" fill="#325159" fill-rule="evenodd"/>
        <path id="Trazado_776605" data-name="Trazado 776605" d="M150.923,159.87l62.651,36.408c-.451.255-.943,1.387-.512,1.713l-62.649-36.409C149.9,161.2,150.46,160.083,150.923,159.87Z" fill="#325159" fill-rule="evenodd"/>
        <path id="Trazado_776606" data-name="Trazado 776606" d="M152.127,156.794l10.128-5.847c.087-.048.551-.741.635-.722l62.65,36.408c.243.152.28.259-.788.952-2.792,1.812-9.189,5.173-9.945,5.6l.115.258c-.384.235-1.385.675-1.839.411l-62.649-36.675C150.9,157.447,151.727,157.023,152.127,156.794Z" fill="#618f9c" fill-rule="evenodd"/>
        <path id="Trazado_776607" data-name="Trazado 776607" d="M224.234,185.874l1.506.612c.243.153.08.406-.988,1.1-.432-.708-3.349,1.544-6.371,2.987-1.509.72-3.73.293-4.741,1.028-.566.5.365,1.531,1,1.765-.636.389-1.317.63-1.561.488l-1.369-.8c.237,0,.841-1.437,1.043-1.562C216.992,188.87,224.533,186.238,224.234,185.874Z" fill="#4b707a" fill-rule="evenodd"/>
        <path id="Trazado_776608" data-name="Trazado 776608" d="M152.611,154.266c3.051-1.763,6.1-3.532,9.17-5.269a4.833,4.833,0,0,1,1.226-.58,1.244,1.244,0,0,1,.914.064l62.65,36.408c-1.165.163-6.933,3.509-7.923,4.1-2.179,1.3-4.474,2.584-3.9,3.391L152.1,155.973a.639.639,0,0,1-.152-.5A1.421,1.421,0,0,1,152.611,154.266Z" fill="#4b707a" fill-rule="evenodd"/>
        <path id="Trazado_776609" data-name="Trazado 776609" d="M162.968,146.138l62.648,36.408-10.853,6.267L152.115,152.4Z" fill="#80b0bd" fill-rule="evenodd"/>
        <path id="Trazado_776610" data-name="Trazado 776610" d="M162.968,146.138c1.212,7.969,33.832,29.515,51.795,42.675L152.114,152.4Z" fill="#93c0cc" fill-rule="evenodd"/>
        <path id="Trazado_776611" data-name="Trazado 776611" d="M152.114,152.4l62.649,36.408c-1.712.985-4.606,4.694-2.707,6.533L149.4,158.938c-.8-.466-.755-1.621-.57-2.379A7.206,7.206,0,0,1,152.114,152.4Z" fill="#4b707a" fill-rule="evenodd"/>
        <path id="Trazado_776612" data-name="Trazado 776612" d="M152.114,152.4l62.649,36.408a8.286,8.286,0,0,0-2.683,2.9l-62.723-36.45A7.112,7.112,0,0,1,152.114,152.4Z" fill="#618f9c" fill-rule="evenodd"/>
        <path id="Trazado_776613" data-name="Trazado 776613" d="M214.763,189.053a100.56,100.56,0,0,1,10.031-6.691l-61.826-36.224c.05-.029.1-.057.153-.085a2.672,2.672,0,0,1,2.581-.229l62.65,36.407C227.458,181.731,218.175,187.623,214.763,189.053Z" fill="#618f9c" fill-rule="evenodd"/>
        <path id="Trazado_776614" data-name="Trazado 776614" d="M161.036,157.574c-3.537-1.086-10.134-3.461-9.978-4.445a4.927,4.927,0,0,1,1.056-.724l10.854-6.267a2.75,2.75,0,0,1,2.734.006l6.917,4.706c-3.2-1.7-7.445-4.074-9.6-3.678a18.232,18.232,0,0,0-5.565,2.438c-3.821,2.416-3.83,3.415-1.43,4.968C157.508,155.535,159.016,156.433,161.036,157.574Z" fill="#618f9c" fill-rule="evenodd"/>
        <path id="Trazado_776615" data-name="Trazado 776615" d="M211.678,192.366a7.2,7.2,0,0,1,3.085-3.553l10.854-6.267c1.765-1.019,2.992-.549,3.546.6a3.712,3.712,0,0,1,.324,1.521,6.013,6.013,0,0,1-.29,1.885,7.8,7.8,0,0,1-3.556,4.423l-12.064,6.964c-.4.231-.725.046-.725-.414a1.589,1.589,0,0,1,.722-1.248l12.062-6.966a4.77,4.77,0,0,0,2.238-2.658,3.61,3.61,0,0,0,.169-1.125,2.325,2.325,0,0,0-.208-.964c-.341-.711-1.106-.995-2.213-.357l-10.854,6.267a4.151,4.151,0,0,0-1.831,1.986,1.641,1.641,0,0,0-.122.572.685.685,0,0,0,.11.407c.234.335.834.351,1.85-.238l9.376-5.413a5.793,5.793,0,0,0,1.23-.8.568.568,0,0,0,.193-.326c-.055-.084-.244-.08-.6.089-.05.027-1.193.681-2.677,1.532-2.836,1.629-6.868,3.951-7.029,4.043-.4.231-.723.048-.724-.411a1.581,1.581,0,0,1,.72-1.244c.16-.092,4.192-2.416,7.028-4.044,1.525-.875,2.714-1.554,2.808-1.6.907-.426,1.479-.3,1.744.119a1.35,1.35,0,0,1,.175.818,3.022,3.022,0,0,1-.265,1.015,4.492,4.492,0,0,1-1.446,1.781c-.243.175-.507.317-.766.467l-9.758,5.635c-1.611.93-2.637.8-3.11.127a1.962,1.962,0,0,1-.3-1.146A4.325,4.325,0,0,1,211.678,192.366Z" fill="#80b0bd" fill-rule="evenodd"/>
        <path id="Trazado_776616" data-name="Trazado 776616" d="M211.678,192.366a7.2,7.2,0,0,1,3.085-3.553l.667-.385c-1.207,1.234-2.82,3.205-2.9,4.487-.052.866.543,1.7,2.378.634l4.8-2.814a14.258,14.258,0,0,0,3.621-.807l-8.551,4.938c-1.611.93-2.637.8-3.11.127a1.962,1.962,0,0,1-.3-1.146,4.325,4.325,0,0,1,.3-1.481Zm17.153-4.864c-2.474,3.414-9.94,5.936-15.257,8.776a1.589,1.589,0,0,0-.722,1.248c0,.46.325.645.725.414l12.064-6.964a7.835,7.835,0,0,0,3.19-3.474Zm-10.807,2.773a2.454,2.454,0,0,1-1.244-.476l-1.519.875a1.581,1.581,0,0,0-.72,1.244c0,.345.406.265.943.007A18.671,18.671,0,0,0,218.024,190.275Z" fill="#93c0cc" fill-rule="evenodd"/>
      </g>
    </g>
  </g>
</svg>
