<svg xmlns="http://www.w3.org/2000/svg" width="146.42" height="272.027" viewBox="0 0 146.42 272.027">
  <g id="Grupo_1066175" data-name="Grupo 1066175" transform="translate(-390 -6180)">
    <g id="Grupo_1066174" data-name="Grupo 1066174">
      <g id="Grupo_1066173" data-name="Grupo 1066173">
        <g id="Grupo_1066172" data-name="Grupo 1066172">
          <g id="Grupo_1066171" data-name="Grupo 1066171">
            <g id="Grupo_1066054" data-name="Grupo 1066054" transform="translate(140.376 6146.048)">
              <path id="Trazado_776617" data-name="Trazado 776617" d="M256.615,237.48l73.927-42.1c8.059-3.683,19.594-6.615,27.805-2.341,7.48,3.893,19.806,11.862,25.254,14.97,4.14,2.36,18.507,10.969,9.56,15.835-26.327,14.316-52.38,30.416-79.113,44.958-5.057,2.75-12.452,3.744-20.217,3.1a53.537,53.537,0,0,1-21.895-6.521q-6.664-3.876-13.11-7.631c-5.8-3.377-8.874-7.368-9.178-11.06C249.352,243.08,251.669,239.738,256.615,237.48Z" transform="translate(0 33.891)" fill="#025157" fill-rule="evenodd"/>
              <g id="Grupo_1066053" data-name="Grupo 1066053" transform="translate(288.893 33.952)">
                <path id="Trazado_776618" data-name="Trazado 776618" d="M347.016,42.737c3.532,7.253,4.361,23.66,4,35.655,0,0-16.642-14.494-16.968-14.738s-.618-7.422-.618-7.422l7.195-8.635Z" transform="translate(-270.798 -32.055)" fill="#241304" fill-rule="evenodd"/>
                <g id="Grupo_1066003" data-name="Grupo 1066003" transform="translate(20.908 32.599)">
                  <g id="Grupo_1065999" data-name="Grupo 1065999" transform="translate(16.197 9.715)">
                    <g id="Grupo_1065998" data-name="Grupo 1065998">
                      <path id="Trazado_776619" data-name="Trazado 776619" d="M316.606,68.752l-4,2.727c4.566,6.111,7.5,19.551,15.066,25.617,2.185,1.752,4.878-.067,5.714-1.471,1.111-1.865.974-4.869-2.488-9.288C326.352,80.538,320.577,75.437,316.606,68.752Z" transform="translate(-312.4 -68.752)" fill="#f1b287" fill-rule="evenodd"/>
                      <path id="Trazado_776620" data-name="Trazado 776620" d="M314.233,69.044l-1.8,2.313a5.887,5.887,0,0,1,1.295,1.662c3.752,6.888,7.579,18.886,13.973,24.014,2.185,1.752,4.878-.067,5.714-1.471,1.111-1.865.974-4.869-2.488-9.288-1.837-2.347-4.065-4.667-6.055-6.911-.671-.738-1.339-1.479-1.994-2.23a12.154,12.154,0,0,1-3.47,1.776C317.464,75.347,315.719,72.432,314.233,69.044Z" transform="translate(-312.436 -68.689)" fill="#e8a476" fill-rule="evenodd"/>
                    </g>
                    <path id="Trazado_776621" data-name="Trazado 776621" d="M332.917,88.138a110.91,110.91,0,0,0-10.443-12.389c-.107,1.508-5.072,3.693-6.286,3.1,1.9,4.6,5.508,12.275,9.675,16.121a4.6,4.6,0,0,0,2.907,1.567c.674.068,5.579.785,6.754.8,5.811-.877-1.209-4.572,2.63-9.713Z" transform="translate(-311.626 -67.241)" fill="#e8e3e3" fill-rule="evenodd"/>
                    <path id="Trazado_776622" data-name="Trazado 776622" d="M332.022,88c-.748-.9-2.828-3.816-5.064-6.517-2.05-2.477-4.253-4.742-5.236-5.733-.045.631-.939,1.38-2.054,1.994.937,1.144,7.756,10.163,8.764,11.582C329.681,88.531,330.467,87.858,332.022,88Z" transform="translate(-310.875 -67.241)" fill="#f6f5f5" fill-rule="evenodd"/>
                    <path id="Trazado_776623" data-name="Trazado 776623" d="M332.615,87.859c-2.335,1.769-3.783,3.671-3.963,3.45-2.027-2.48-8.235-11.048-9.6-13.386a4.605,4.605,0,0,1-2.867.457c1.9,4.6,5.508,12.275,9.675,16.121a4.6,4.6,0,0,0,2.907,1.567c.674.068,5.579.785,6.754.8,3.453-.522,2.376-2.037,1.739-4.259-1.607-.238-4.3-.378-6.2-.539C330.165,92,331.578,89.471,332.615,87.859Z" transform="translate(-311.626 -66.772)" fill="#dbd4d4" fill-rule="evenodd"/>
                  </g>
                  <g id="Grupo_1066002" data-name="Grupo 1066002">
                    <g id="Grupo_1066001" data-name="Grupo 1066001">
                      <path id="Trazado_776624" data-name="Trazado 776624" d="M322.475,74.848c-1.767-2.169-2.451-4.027-3.356-5.264a7.945,7.945,0,0,0-1.708-1.52c-2.407-2.248-3.27-3.585-5.352-5.594l-5.645-1.708-4.695.731a3.929,3.929,0,0,0-2.454,2.463c-.224,2.033-.186,2.78.131,3.006,1.571,1.121,4.168-.975,7.119-.27,1.372,1.768,2.087,3.716,4.093,4.485a32.281,32.281,0,0,1,4.532,1.786,15.807,15.807,0,0,1,2.262,2.2C318.6,73.42,320.8,75.573,322.475,74.848Z" transform="translate(-299.114 -60.762)" fill="#f1b287" fill-rule="evenodd"/>
                      <g id="Grupo_1066000" data-name="Grupo 1066000" transform="translate(0 1.943)">
                        <path id="Trazado_776625" data-name="Trazado 776625" d="M317.109,70.487a1.368,1.368,0,0,1-.044-1.1c-3.845,1.032-6.459-5.065-10-7.029a28.337,28.337,0,0,1-4.782.3c-1.378.257-1.325,1.689-2.93,1.017-.225,1.229-.342,2.579-.1,2.754,1.571,1.121,4.318-.835,7.268-.13,1.372,1.768,1.959,3.839,4,4.5,1.688.548,3.452.882,4.789,1.994.494.411.987.959,2.533,3.947l2.043-.683C319.53,75.341,317.441,71.245,317.109,70.487Z" transform="translate(-299.115 -62.36)" fill="#e8a476" fill-rule="evenodd"/>
                        <path id="Trazado_776626" data-name="Trazado 776626" d="M314.581,70.147c-2.665.376-2.619-1.65-4.361-3.835a9.372,9.372,0,0,1-2.291-1.217c-2.944.047-4.123-.21-4.015-1.648.964-.162,2.865-.512,3.7-.568,4.51,1,3.726-.375,8,4.37A1.718,1.718,0,0,1,314.581,70.147Z" transform="translate(-298.08 -62.248)" fill="#f1b287" fill-rule="evenodd"/>
                      </g>
                    </g>
                    <path id="Trazado_776627" data-name="Trazado 776627" d="M314.588,70.148c-2.665.374-2.625-1.534-4.368-3.719a10.513,10.513,0,0,1-2.434-1.282c-2.944.046-4.515,0-4.448-1.785.964-.163,3.447-.426,4.282-.483,4.509,1.006,3.726-.375,8,4.37A1.719,1.719,0,0,1,314.588,70.148Z" transform="translate(-298.204 -60.305)" fill="#f1b287" fill-rule="evenodd"/>
                  </g>
                </g>
                <g id="Grupo_1066008" data-name="Grupo 1066008" transform="translate(35.799 80.253)">
                  <g id="Grupo_1066004" data-name="Grupo 1066004" transform="translate(22.546 28.473)">
                    <path id="Trazado_776628" data-name="Trazado 776628" d="M349.126,123.371c1.679,5.248.068,13.962-1.342,23.068-.776,5.01-2.025,10.174-2.628,14.589-.672,4.923-1,8.088-.81,10.522.451,5.771,2.879,6.989,3.788,14.509,1.1,9.124-3.7,19.586-3.338,29.641a6.3,6.3,0,0,0,1.2,2.468c4.028,4.954-.124,4.3.263,10.842.034.576-2.191,10.558-2.191,10.558s-5.98,1.663-6.432,1.6-4.162-1.356-4.162-1.356c.292-.546.657-1.866.892-2.367,2.693-5.714,3.053-12.715,3.058-19.163.007-8.819-2.426-29.587-4.7-38.065-2.28-5.2-3.081-5.7-2.758-14.705.529-14.675-.462-25.5,1.351-41.009Z" transform="translate(-329.904 -123.371)" fill="#e8a476" fill-rule="evenodd"/>
                    <path id="Trazado_776629" data-name="Trazado 776629" d="M349.126,123.371c1.679,5.248.068,13.962-1.342,23.068-.776,5.01-2.025,10.174-2.628,14.589-.672,4.923-1,8.088-.81,10.522a17.73,17.73,0,0,0,.535,3.216c-1.074.964-2.076.475-5.179,2.252,1.719,11.872,2.473,14.618-3.651,23.088a164.675,164.675,0,0,0-3.321-19.887c-2.28-5.2-3.081-5.7-2.758-14.705.529-14.675-.462-25.5,1.351-41.009Z" transform="translate(-329.904 -123.371)" fill="#db9669" fill-rule="evenodd"/>
                    <path id="Trazado_776630" data-name="Trazado 776630" d="M339.927,193.162c-.119,10.605,1.123,25.175-4.546,34.021-1.175-.388-2.538-.862-2.538-.862.292-.546.657-1.866.892-2.367,2.693-5.714,3.053-12.715,3.058-19.163a181.657,181.657,0,0,0-1.466-18.927q1.463,2.108,2.922,4.216Z" transform="translate(-329.27 -109.878)" fill="#f1b287" fill-rule="evenodd"/>
                    <path id="Trazado_776631" data-name="Trazado 776631" d="M334.857,218.762c-.643,1.179-1.336,2.873-1.928,4.15a25.927,25.927,0,0,0-1.509,4.019,1.892,1.892,0,0,0,.136,1.616c1.445,1.938,8.68-1.6,11.106-3.739,1.567-1.384,1.6-3.02,1.965-5.018.553-3,.647-3.338,1.366-6.419l.815,8.367.976.446a95.756,95.756,0,0,1,.748-10.858c.209-1.161.568-2.484.619-3.127a6.638,6.638,0,0,0-3.3-6.719c.633,2.3-1.038,6.05-1.8,10.768-.8,4.938-3.529,10.335-5.677,10.792-.906.192-2.908-.937-4-1.558C333.966,221.246,334.434,219.832,334.857,218.762Z" transform="translate(-329.601 -106.507)" fill="#00314f" fill-rule="evenodd"/>
                    <path id="Trazado_776632" data-name="Trazado 776632" d="M335.8,228.219a21.806,21.806,0,0,0,5.9-3.412c1.544-1.409,1.6-3.02,1.965-5.018.553-3,.647-3.338,1.366-6.419l.815,8.367.976.446a95.756,95.756,0,0,1,.748-10.858c.209-1.161.568-2.484.619-3.127a6.638,6.638,0,0,0-3.3-6.719c.633,2.3-.394,6.4-1.154,10.768C341.907,222.719,339.921,224.332,335.8,228.219Z" transform="translate(-328.632 -106.507)" fill="#001e30" fill-rule="evenodd"/>
                    <path id="Trazado_776633" data-name="Trazado 776633" d="M333.632,217.817c-.243.548-.48,1.087-.7,1.567a25.927,25.927,0,0,0-1.509,4.019c-.188.648-.163,1.353.224,1.586,1.268.765,6.407-2.468,6.951-4.107C336.4,220.854,333.4,219.426,333.632,217.817Z" transform="translate(-329.602 -102.979)" fill="#003f66" fill-rule="evenodd"/>
                  </g>
                  <g id="Grupo_1066006" data-name="Grupo 1066006" transform="translate(0 64.73)">
                    <g id="Grupo_1066005" data-name="Grupo 1066005" transform="translate(18.829 66.184)">
                      <path id="Trazado_776634" data-name="Trazado 776634" d="M331.047,207.622c-1.318,3.76-2.718,9.253-2.518,13.249l-1.134.5c.259-3.24.058-6.109.024-9.359Z" transform="translate(-326.73 -207.622)" fill="#001e30" fill-rule="evenodd"/>
                      <path id="Trazado_776635" data-name="Trazado 776635" d="M326.848,212.313l.013,7.823.651.541a79.209,79.209,0,0,0,.376-9.856Z" transform="translate(-326.848 -206.931)" fill-rule="evenodd"/>
                    </g>
                    <path id="Trazado_776636" data-name="Trazado 776636" d="M340.04,166.586c-.559,5.52,1.165,10.947,1.249,16.144.178,11.112-7.606,19.435-9.313,28.873-.4,2.24.17,3.813.543,6.34L326.1,230.43l-10.08,5.061-.9-3.744c.294-.373-.142-.489.047-.935a9.373,9.373,0,0,1,.974-1.68,77.437,77.437,0,0,0,3.682-8.626c1.99-5.19,3.934-10.69,3.978-10.863,2.939-11.008,3.809-24.339,3.369-36.618-.672-4.078-1.4-6.64-.565-11.218a26.012,26.012,0,0,0,.272-8.616l14.642,1.463,3.375-1.286Z" transform="translate(-310.551 -153.19)" fill="#f1b287" fill-rule="evenodd"/>
                    <path id="Trazado_776637" data-name="Trazado 776637" d="M340.07,166.586c-.559,5.52,1.165,10.947,1.249,16.144.178,11.112-7.606,19.435-9.313,28.873-.4,2.24.17,3.813.543,6.34l-6.42,12.487-10.08,5.061c-.159-.663-1.431-2.178-.967-2.427a27.66,27.66,0,0,0,4.98-3.64c1.952-3.226,7.53-17.149,7.982-18.844,2.936-11.009,6.382-27.148,5.942-39.426-.672-4.078-4.441-4.535-7.35-9.347a26.012,26.012,0,0,0,.272-8.616l14.642,1.463,3.375-1.286Z" transform="translate(-310.581 -153.19)" fill="#e8a476" fill-rule="evenodd"/>
                    <path id="Trazado_776638" data-name="Trazado 776638" d="M332.663,202.259c1.593,2.407,2.324,4.1,2.309,5.542-.027,2.651-1.74,3.238-4.62,7.882-3.139,5.062-2.983,7.412-3.94,8.51-1.672,1.915-7.674,3.255-11.772,3.289-1.842.015-2.665-.3-3.091-.677-.638-.562.5-2.3,2.138-4.06,1.2-1.28,2.067-2.856,2.786-3.484-.428.775-.691,2.091-.029,2.433,1.539.8,3.967.561,6.42-.686,3.084-1.567,4.36-3.87,5.849-6.516C330.664,211.022,331.785,205.761,332.663,202.259Z" transform="translate(-311.361 -142.595)" fill="#00314f" fill-rule="evenodd"/>
                    <path id="Trazado_776639" data-name="Trazado 776639" d="M331.469,202.259c1.593,2.407,2.324,4.1,2.309,5.542-.027,2.651-1.74,3.238-4.62,7.882-3.139,5.062-2.983,7.412-3.94,8.51-1.239,1.42-4.858,2.523-8.317,3.013,5.078-2.59,8.156-5.63,11.436-12.6C330.032,211.007,332,206.7,331.469,202.259Z" transform="translate(-310.166 -142.595)" fill="#001e30" fill-rule="evenodd"/>
                    <path id="Trazado_776640" data-name="Trazado 776640" d="M311.55,223.482c-.659-.537.5-2.3,2.138-4.06a16.62,16.62,0,0,0,1.39-1.774,1.987,1.987,0,0,0,.972,1.572c1.522.828,3.836.765,6.289-.482C320.869,222.172,313.411,225,311.55,223.482Z" transform="translate(-311.362 -139.273)" fill="#003f66" fill-rule="evenodd"/>
                  </g>
                  <g id="Grupo_1066007" data-name="Grupo 1066007" transform="translate(10.403)">
                    <path id="Trazado_776641" data-name="Trazado 776641" d="M358,124.425c1.368,5.249.229,13.371-1.721,22.477-1.072,5.01-2.625,10.174-3.49,14.589-1.3,6.621-2.208,12.823-2.737,15.986-7.8,6.465-24.87-3.857-29.461-9.417-.421-14.793-1.507-30.283.471-44.727.287-2.97.205-6.438.362-9.483.03-.743.086-1.448.165-2.121.081-.743.2-1.477.35-2.211.767-3.816,2.145-6.559,2.746-9.564,10.095,6.646,17.851,9.59,25.284,7.686a7.447,7.447,0,0,0,.251,1.194,22.584,22.584,0,0,0,3.226,5.946A28.237,28.237,0,0,1,358,124.425Z" transform="translate(-319.918 -99.954)" fill="#00314f" fill-rule="evenodd"/>
                    <path id="Trazado_776642" data-name="Trazado 776642" d="M357.806,124.425c1.368,5.249.229,13.371-1.721,22.477-1.072,5.01-2.625,10.174-3.49,14.589-1.3,6.621-2.208,12.823-2.737,15.986a9.323,9.323,0,0,1-5.356,2.017c-.053-.347-.1-.7-.134-1.075-1.757-10.208-.305-20.384.745-30.166.678-6.312.074-6.6-5.03-8.863-10.174-4.515-18.676-12.438-19.251-14.382l.114-2.637c.072-1.013.109-2.071.136-3.138l.171-3.952-.083.015c.016-.49.034-.974.058-1.447.03-.743.086-1.448.165-2.121.081-.743.2-1.477.35-2.211.767-3.816,2.145-6.559,2.746-9.564,10.095,6.646,17.851,9.59,25.284,7.686a7.447,7.447,0,0,0,.251,1.194,22.584,22.584,0,0,0,3.226,5.946A28.237,28.237,0,0,1,357.806,124.425Z" transform="translate(-319.72 -99.954)" fill="#001e30" fill-rule="evenodd"/>
                    <path id="Trazado_776643" data-name="Trazado 776643" d="M341.067,144.63A203.4,203.4,0,0,0,340.3,173.6c-5.591-.63-18.022-7.723-19.605-11.019-.238-1.873-.355-7.388-.509-13.171-.243-9.119-.432-17.935.542-26.846,1.908,4.079,10.356,11.323,15.2,14.038C341.734,139.845,341.321,141.681,341.067,144.63Z" transform="translate(-319.901 -95.073)" fill="#003f66" fill-rule="evenodd"/>
                  </g>
                </g>
                <path id="Trazado_776644" data-name="Trazado 776644" d="M345.733,137.4c-8.29-.069-21.891-12.131-24.693-17.486,1.115-5.869,3.9-13.989,3.6-18.825-.285-4.595-1.448-5.833-1.273-9.67.072-1.561.5-4.772.653-6.182.519-4.769,1.021-7.419,1.6-11.585l.035-.252.035-.25.034-.248h0l.034-.248.035-.246.034-.246.035-.243h0l.034-.242.034-.241h0l.034-.238h0l.068-.474h0l.034-.233.034-.233h0l.034-.231h0l.033-.229h0l.034-.229h0c.034-.226.067-.45.1-.671h0l.067-.438.033-.216.034-.214.034-.213.033-.209h0l.033-.208h0l.034-.207h0l.033-.2.033-.2h0l.034-.2h0l.034-.2h0l.033-.195h0l.033-.191h0c.022-.126.045-.252.067-.376l.033-.185.033-.181h0c.022-.12.044-.238.066-.356l.034-.174h0l.033-.171.033-.168h0l.033-.167.033-.163h0l.034-.16.033-.157.033-.154.033-.152.033-.148.034-.146.033-.142.033-.14.033-.136.033-.133.034-.13.033-.126.033-.123.034-.12.033-.117.034-.113.033-.109.034-.107.033-.1.01-.036.01-.036h0l.01-.036.01-.035.011-.036.011-.035h0l.011-.035.011-.035.012-.036.012-.035.012-.035.013-.035h0l.012-.036.013-.035.013-.035.013-.034.015-.035.013-.035.015-.035.015-.034h0l.016-.035.015-.034.016-.034.016-.035.016-.034.016-.034.016-.034.017-.034h0l.016-.034.018-.034h0l.017-.033.017-.034.017-.034.017-.033.018-.033h0l.018-.034h0l.018-.033h0l.018-.033h0l.018-.033.019-.033.018-.033.019-.032.018-.033.019-.032h0l.019-.032.019-.032.021-.032.019-.033.019-.032.019-.032.021-.03.021-.032.02-.032.021-.03.021-.032.021-.03.021-.03.021-.03.021-.03.021-.03.022-.03.021-.03.021-.029.022-.03c.022-.032.045-.062.068-.094s.046-.062.07-.092.046-.061.071-.091l.074-.089.075-.088c.024-.029.051-.057.077-.086l.078-.084.081-.083.082-.08.084-.078.086-.078.088-.074.09-.073h0l.091-.071h0l.092-.068c.032-.023.063-.045.1-.067s.064-.044.1-.064l.1-.062h0c.033-.021.067-.04.1-.06l.1-.058.1-.055h0l.107-.052.108-.051h0l.112-.047c.036-.016.074-.03.113-.045h0c.038-.015.075-.029.114-.043h0q.058-.022.117-.04l.12-.038h0c.08-.024.162-.046.244-.067h0l.125-.029.129-.027.13-.023h0l.131-.021h0c.089-.013.18-.023.271-.033l.14-.011h0l.141-.009.143,0h0l.146,0h0c.1,0,.2,0,.3,0h0l.152.007.156.012c.209.016.424.043.646.078l.168.028c.112.021.226.044.342.068h0l.175.039h0l.178.044h0c.06.015.119.03.18.047h0l.182.05.185.055h0l.187.058.191.063.193.066h0l.2.072.2.074.2.079.2.083h0c.069.028.139.057.207.088l.032.013.03.013.032.012c.632.272,1.392.592,2.247.957l-.036,0c2.712,1.19,5.776,2.607,8.738,4.257l-.372-.406c6.833,3.508,13.983,8.3,14.433,13.624.593,7-7.344,17.181-10.039,23.423-5.455,12.635,2.179,18.523,4.98,28.137C357.481,134.546,351.289,137.441,345.733,137.4Z" transform="translate(-273.474 -28.917)" fill="#729ec1" fill-rule="evenodd"/>
                <path id="Trazado_776645" data-name="Trazado 776645" d="M351.827,100.175a19.293,19.293,0,0,0-1.021,13.915,81.171,81.171,0,0,0,4,9.093,37.616,37.616,0,0,1,2.113,5.418c-.327,5.774-5.237,7.968-8.237,8.465.624-5.05-3.236-14.055-4.1-16.618-1.975-5.821-1.046-9.48-.748-14.321a5.966,5.966,0,0,0-1.7-4.563c-.737-.822-2.773-1.449-4.5-2.114-5.479-2.106-6.695-5.242-9.491-6.632-1.772-.879-3.407-1.655-5-2.4.052-5.767,2.647-11.521,4.513-16.916,12.611,4.98,16.248,7.646,18.612,6.393,1.171-.621,1.708-3.816,8.8-8.392-6.444-5.7-14.678-9-22.409-12.571l-2.676-1.108c1.538-1.059,3.7-.7,7.038.732,5.547,2.384,12.318,5.157,17.614,8.848a44.677,44.677,0,0,1,4.259,3.333,8.982,8.982,0,0,1,2.828,9.423c-.863,3.467-3.023,7.668-5.258,11.6C354.744,94.783,352.959,97.583,351.827,100.175Z" transform="translate(-273.02 -28.93)" fill="#6087a8" fill-rule="evenodd"/>
                <path id="Trazado_776646" data-name="Trazado 776646" d="M348.454,94.04a23.952,23.952,0,0,0-1.111,3.084c-.073.261-.844,8.362,1.491,14.413a57,57,0,0,1-6.938,4.406c-2.338-5.062-1.793-11.642-1.74-12.262.1-1.188.227-2.4.306-3.689a7.216,7.216,0,0,0-1.7-4.563l14.329-9.805Z" transform="translate(-269.647 -22.795)" fill="#4d708c" fill-rule="evenodd"/>
                <path id="Trazado_776647" data-name="Trazado 776647" d="M330.641,88.928c2.111,1.1,4.156,4.276,7.488,6.139a8.283,8.283,0,0,0,10.319-1.922,19.227,19.227,0,0,0,1.2-5.307c.366-6.812,1.344-10.464,5.26-15.913-2.41-1.346-4.865-2.776-6.194-4.237L333.482,59.2l-4.893,1.245c-1.638,4.584-2.465,7-5.541,11.411a10.668,10.668,0,0,0-1.793,8.629C322.338,85.331,326.8,86.933,330.641,88.928Z" transform="translate(-273.484 -28.5)" fill="#729ec1" fill-rule="evenodd"/>
                <path id="Trazado_776648" data-name="Trazado 776648" d="M353.6,70.938c-3.352-3.9-6.236-7.288-9.94-9.055-4.51-2.151-9.863-1.864-13.725-2.359,3.7,2.857.053,11.618,4.155,13.833C338.553,75.767,344.873,68.232,353.6,70.938Z" transform="translate(-271.553 -28.43)" fill="#e8a476" fill-rule="evenodd"/>
                <path id="Trazado_776649" data-name="Trazado 776649" d="M332.081,62.325c-.213,10.454,1.43,16.234,12.154,11.668a22.805,22.805,0,0,1,9.557-2.337c-6.74,6.92-4.191,13.956-6.047,18.827-1.21,3.18-5.022,4.921-9.152,2.888-2.846-1.4-4.229-4.72-8.341-7-4.321-2.389-8.505-3.22-8.273-9.185.2-5.25,4.492-7.484,6.208-15.68Z" transform="translate(-273.273 -28.002)" fill="#8fbce0" fill-rule="evenodd"/>
                <path id="Trazado_776650" data-name="Trazado 776650" d="M323.328,85.436c-.344,2.578,1.177,6.926,1.232,9.663.089,4.517-1.15,9.032-3.012,16.491,1.369,5.109,17.589,20.252,25.96,18.049-3.023-12.906-5.332-12.819-4.779-26.819.023-2.58,0-3.543-.4-4.488-1.15-2.718-4.094-1.514-9.662-5.41C331.241,91.925,326.768,86.1,323.328,85.436Z" transform="translate(-273.364 -22.836)" fill="#8fbce0" fill-rule="evenodd"/>
                <g id="Grupo_1066018" data-name="Grupo 1066018" transform="translate(0 27.121)">
                  <g id="Grupo_1066009" data-name="Grupo 1066009" transform="translate(0 194.711)">
                    <path id="Trazado_776651" data-name="Trazado 776651" d="M323.758,226.329l2.087.75.028,6.39c0,6.988-9.839,12.653-21.976,12.653s-21.976-5.665-21.976-12.653l.018-6.426a13.546,13.546,0,0,1,1.8-2.229l2.056,5.676c1.312,4.779,8.381,5.378,17.836,5.378s18.5-.8,18.6-6.252l1.483-.429Z" transform="translate(-281.92 -214.575)" fill-rule="evenodd"/>
                    <path id="Trazado_776652" data-name="Trazado 776652" d="M303.9,216.393c12.137,0,21.976,5.665,21.976,12.653S316.034,241.7,303.9,241.7s-21.976-5.665-21.976-12.653S291.759,216.393,303.9,216.393Z" transform="translate(-281.92 -216.393)" fill="#002a40" fill-rule="evenodd"/>
                  </g>
                  <g id="Grupo_1066010" data-name="Grupo 1066010" transform="translate(18.382 96.124)">
                    <path id="Trazado_776653" data-name="Trazado 776653" d="M303.88,136.937l.342.123,0,109.951c0,1.142-1.61,2.068-3.594,2.068s-3.594-.927-3.594-2.068l0-109.957a2.289,2.289,0,0,1,.294-.365l.337.929c.214.782,1.37,1.373,2.917,1.373s3.025-.625,3.042-1.516l.242-.069Z" transform="translate(-297.038 -135.015)" fill="#001c2b" fill-rule="evenodd"/>
                    <path id="Trazado_776654" data-name="Trazado 776654" d="M300.632,135.312c1.984,0,3.594.927,3.594,2.069s-1.61,2.069-3.594,2.069-3.594-.927-3.594-2.069S298.647,135.312,300.632,135.312Z" transform="translate(-297.038 -135.312)" fill="#00d0ff" fill-rule="evenodd"/>
                  </g>
                  <g id="Grupo_1066011" data-name="Grupo 1066011" transform="translate(18.374 96.124)">
                    <path id="Trazado_776655" data-name="Trazado 776655" d="M303.881,136.937l.342.123,0,109.951c0,1.142-1.61,2.068-3.594,2.068s-3.594-.927-3.594-2.068l-.008-1.618a4.424,4.424,0,0,0,5.13-.088l-.4-100a7.706,7.706,0,0,1-4.72-3.338v-4.91a2.288,2.288,0,0,1,.294-.365l.337.929c.214.781,1.37,1.373,2.917,1.373s3.025-.625,3.042-1.516l.242-.069Z" transform="translate(-297.031 -135.015)" fill-rule="evenodd"/>
                    <path id="Trazado_776656" data-name="Trazado 776656" d="M300.632,135.312c1.984,0,3.594.927,3.594,2.069s-1.61,2.069-3.594,2.069-3.594-.927-3.594-2.069S298.647,135.312,300.632,135.312Z" transform="translate(-297.03 -135.312)" fill="#00d0ff" fill-rule="evenodd"/>
                  </g>
                  <g id="Grupo_1066012" data-name="Grupo 1066012" transform="translate(4.968 8.086)">
                    <path id="Trazado_776657" data-name="Trazado 776657" d="M322.263,111.492c-2.7,5.354-4.138,11.3-3.661,14.8l0,0a7.84,7.84,0,0,0,.248,1.108,25.567,25.567,0,0,0,3.648,6.723,31.909,31.909,0,0,1,5.151,10.909c.83,3.182.844,7.3.339,12.023-.015.029-.032.061-.044.09-1.992,4.839-12.951,4.96-24.355.266-9.8-4.033-17.012-10.31-17.578-15.068.053-.61.1-1.228.153-1.848a1.859,1.859,0,0,0,.118-.345c-.044.107-.081.218-.117.327.185-2.347.334-4.743.455-7.073.033-.84.1-1.638.186-2.4.092-.841.231-1.672.4-2.5.867-4.314,2.758-7.616,3.436-11.015,1.025-5.132-1.249-10.182-.688-16.118.15-1.589.305-3.2.466-4.8.543-5.427.607-10.238,1.221-14.981.792-6.112,1.524-11.323,2.314-13.78a7.4,7.4,0,0,1,1.188-2.437c1.618-2.311,4.524-3.482,9.583-1.362a114.039,114.039,0,0,1,15.813,7.728c2.291,1.42,9.535,6.82,11.1,9.01a7.773,7.773,0,0,1,1.41,4.113C333.585,92.843,325.743,104.588,322.263,111.492Z" transform="translate(-286.006 -62.907)" fill="#001c2b" fill-rule="evenodd"/>
                    <path id="Trazado_776658" data-name="Trazado 776658" d="M321.555,111.492a36.144,36.144,0,0,0-3.612,11.25,12.176,12.176,0,0,0,.224,4.755,22.016,22.016,0,0,0,2.923,5.6l.558.829.137.2a32.531,32.531,0,0,1,4.734,9.427c1.389,4.566,1.257,8.807.756,13.505-.015.029-.032.061-.044.09-1.273,3.093-6.21,4.258-12.585,3.471.258-2.322.447-4.571.525-6.726.275-7.661-4.008-6.505-12.224-10.259-7.721-3.526-10.278-9.692-3.749-7.62,8.072,2.562,14.726.41,14.3-3.6-.051-.471-.173-1.65-.328-2.827-.085-.334-.165-.67-.238-1.007a28,28,0,0,1,2.86-19.833,9.416,9.416,0,0,1-11.712,2.29c-3.8-2.084-6.163-5.677-8.573-6.9a64.014,64.014,0,0,1-6.221-3.26c.135-1.426.275-2.863.418-4.3.543-5.427.607-10.238,1.221-14.981.792-6.112,1.524-11.323,2.314-13.78a7.4,7.4,0,0,1,1.188-2.437c1.618-2.311,4.524-3.482,9.583-1.362a114.039,114.039,0,0,1,15.813,7.728c2.291,1.42,9.535,6.82,11.1,9.01a7.773,7.773,0,0,1,1.41,4.113C332.877,92.843,325.035,104.588,321.555,111.492Z" transform="translate(-285.298 -62.907)" fill-rule="evenodd"/>
                    <path id="Trazado_776659" data-name="Trazado 776659" d="M297.5,98.939c2.41,1.227,4.676,4.995,8.573,6.9,7.227,3.54,12.76-1.634,13.027-8.335.308-7.748,1.42-11.909,5.817-18.141-2.753-1.5-5.558-3.107-7.084-4.754l-17.406-9.489-5.549,1.465a45.258,45.258,0,0,1-6.368,13,12.127,12.127,0,0,0-1.952,9.827C287.835,94.907,293.113,96.711,297.5,98.939Z" transform="translate(-285.958 -62.429)" fill="#001c2b" fill-rule="evenodd"/>
                    <path id="Trazado_776660" data-name="Trazado 776660" d="M297.678,95.9c3.248,1.41,3.92,4.234,7.474,6.179,2.359,1.291,6.976,2.636,10.536-1.606a20.453,20.453,0,0,0,1.228-5.645c.325-7.233.2-10.255,4.3-16.076-1.114-.609-4.365-2.232-5.4-2.871-7.26,2.256-13.875,5.669-18-5.044l-3.386-3.22c-1.695,5.447-2.79,7.1-6.014,11.808-1.854,2.709-2.66,4.527-1.887,7.846C287.727,92.4,293.467,94.067,297.678,95.9Z" transform="translate(-285.956 -61.891)" fill="#002a40" fill-rule="evenodd"/>
                    <path id="Trazado_776661" data-name="Trazado 776661" d="M311.946,152.667l-.022.2a49.465,49.465,0,0,1-8.346-2.621c-9.639-3.966-16.77-10.1-17.544-14.828q.062-1.076.13-2.118c.095-.268.134-.379.107-.315q-.058.144-.106.292c.292-4.405.682-8.325,1.2-11.307.866-4.986,2.97-7.84,3.557-13.007.636-5.6-1.279-10.435-.7-12.839,1.98,2.392,4.905,2.337,7.131,4.989,2.667,3.177,6.239,7.674,13.36,6.252-2.325,5.474-.26,16.274-.419,16.686-1.744,4.5-7.226,3.471-9.754,2.8-2.288-.612-4.995-1.006-6.392-.226-1.6.895-1.586,3.812,1,7,1.7,2.085,9.218,7.006,14.928,9.078C313.894,144.077,312.363,148.784,311.946,152.667Z" transform="translate(-286 -55.736)" fill="#002a40" fill-rule="evenodd"/>
                  </g>
                  <path id="Trazado_776662" data-name="Trazado 776662" d="M297.13,143.728a6.092,6.092,0,0,0,3,1.489l.486,97.148a4.178,4.178,0,0,1-3.6-.34Z" transform="translate(-278.66 -37.371)" fill="#002a40" fill-rule="evenodd"/>
                  <g id="Grupo_1066017" data-name="Grupo 1066017" transform="translate(4.01)">
                    <g id="Grupo_1066013" data-name="Grupo 1066013" transform="translate(0 8.039)">
                      <path id="Trazado_776663" data-name="Trazado 776663" d="M322.448,111.875c-3.012,5.973-4.455,12.686-3.419,15.913,1.143,3.558,11.984,13.757,10.149,27.125-1.96,5.284-8.165,8.117-15.713,6.782-2.354-.417-19.119-8.8-19.176-9.821-.742-13.459-.871-38.423,4.638-49.4,4.449-8.871,10.906-13.268,15.283-18.5,1.21-1.7,3.589-5,5.045-7.62a2.455,2.455,0,0,0,.976-1.237,3.827,3.827,0,0,0-.119-3.355A38.813,38.813,0,0,1,328.3,78.1c2.707,1.646,4.681,3.608,4.924,7.153.547,7.973-7.3,19.718-10.774,26.622Zm-16.078-44.5a21.358,21.358,0,0,1,3.395-.889c-1.728-.767-4.073-2.144-5.563-2.769-4.481-1.88-9.011-.743-10.238,4.346-.79,2.457-1.357,7.8-2.147,13.914-.614,4.742-1.21,10.153-1.753,15.579-.159,1.6-.316,3.21-.466,4.8-.561,5.936,1.581,10.255.556,15.387-.815,4.077-2.482,6.28-3.694,12.729-.446,2.369-1.023,9.5-1.241,14.8a17.822,17.822,0,0,0,6.478,5.1c-.364-12.022.815-23.936,2.479-36.1.906-14.024.229-28.157,5.441-41.505C301.193,69.289,303.662,67.756,306.37,67.378Z" transform="translate(-285.218 -62.868)" fill="#4b707a" fill-rule="evenodd"/>
                      <path id="Trazado_776664" data-name="Trazado 776664" d="M291.965,110.13c-1.666,12.163-4.173,17.031-2.214,29.916-.98-.473-4.478-3.476-4.451-3.981.264-4.949.753-10.657,1.143-12.728,1.212-6.449,2.879-8.652,3.694-12.729.982-4.922-.946-9.1-.612-14.665.015-.238,3.55,2.4,3.513,2.8Z" transform="translate(-285.201 -55.73)" fill="#618f9c" fill-rule="evenodd"/>
                      <path id="Trazado_776665" data-name="Trazado 776665" d="M321.645,109.359c-3.012,5.973-4.455,12.686-3.419,15.913,1.143,3.558,11.984,13.757,10.149,27.125a10.876,10.876,0,0,1-7.771,6.571c-.067-11.725-9.528-20.589-8.956-35.083.2-5.1,2.617-8.873-1.008-12.849-.845-.927-3.167-1.62-5.142-2.358-4.716-1.764-6.528-4.088-8.581-5.855,3.681-8.154,8.676-13,13-17.378l9.392,3.612A26.129,26.129,0,0,1,325.6,76.206V74.523c3.639,1.916,6.521,3.882,6.818,8.213.547,7.973-7.3,19.718-10.774,26.622Zm-27.76-8.513c-1.772-.852-3.332-1.549-4.946-2.29,0-.081,0-.163,0-.246.1-1.086.212-2.178.32-3.268l.114-1.132c.885-4.991,2.945-9.93,4.522-14.629l2.956,1.137A98.189,98.189,0,0,0,293.884,100.846Z" transform="translate(-284.415 -60.352)" fill="#325159" fill-rule="evenodd"/>
                      <path id="Trazado_776666" data-name="Trazado 776666" d="M314.864,108.818c-.9,3.409-1.269,7.169-.666,9.049.409,1.271,2.054,3.388,3.916,6.194a35.684,35.684,0,0,1-8.109,6.3,35.968,35.968,0,0,1-2.386-13.886,21.442,21.442,0,0,1,.212-2.209C309.655,112.879,312.86,110.576,314.864,108.818Z" transform="translate(-280.387 -52.947)" fill="#243c42" fill-rule="evenodd"/>
                      <path id="Trazado_776667" data-name="Trazado 776667" d="M299.446,100.635c1.832,1.623,3.851,3.978,6.656,5.514a9.415,9.415,0,0,0,11.71-2.29,21.929,21.929,0,0,0,1.316-6.046c.348-7.747,1.42-11.909,5.818-18.141-2.51-1.372-4.729-2.024-6.317-3.519-4.278,8.922-12.351,12.839-19.183,24.481Zm6.72-33.857c-2.857,1.113-5.254,5.67-6.179,7.995a76.839,76.839,0,0,0-5.159,23.17c-3.666-1.79-7.208-3.79-8.24-8.221-.828-3.555-.568-6.926,1.418-9.827,3.453-5.042,5.086-7.773,6.9-13l5.549-1.465Z" transform="translate(-285.018 -62.315)" fill="#4b707a" fill-rule="evenodd"/>
                      <path id="Trazado_776668" data-name="Trazado 776668" d="M293.932,68.5c-1.549,6.233-2.044,5.937-5.237,10.395-1.972,2.754-2.776,5.11-1.978,8.534.9,3.852,3.764,5.8,6.912,7.407-.447-5.644-1.935-15.421.474-21.474Z" transform="translate(-284.96 -61.651)" fill="#618f9c" fill-rule="evenodd"/>
                      <path id="Trazado_776669" data-name="Trazado 776669" d="M318.954,76.145l1.528,1.516c-1.74,2.467-4.1,6.207-4.262,10.486a31.228,31.228,0,0,1-2.138,11.009c-1.868,4.068-5.151,4.8-9.259,3.687a9.971,9.971,0,0,1-6.619-5.779C301.269,91.531,316.068,78.852,318.954,76.145Z" transform="translate(-282.414 -60.002)" fill="#618f9c" fill-rule="evenodd"/>
                      <path id="Trazado_776670" data-name="Trazado 776670" d="M314.917,85.806c1.932.973,6.542,11.844,8.342,9.324,4.083-5.712,6.189-12.813.276-18.068a61.486,61.486,0,0,0-9.5-6.7l.053,3.923c1.573,1.538,3.026,3.1,4.839,4.65C317.2,81.374,315.925,82.878,314.917,85.806Z" transform="translate(-278.997 -61.251)" fill="#325159" fill-rule="evenodd"/>
                      <path id="Trazado_776671" data-name="Trazado 776671" d="M309.549,115.435a45.454,45.454,0,0,0,.694,14.691c1.668,6.251,5.831,13.657,7.784,22.823-8.452-.133-25.337-10.362-25.34-10.431-.373-9.155-1.9-26.856,2.985-42.922,3.122,3.327,7.469,4.645,10.116,6.088C311.6,108.854,310.1,109.484,309.549,115.435Z" transform="translate(-283.717 -54.938)" fill="#618f9c" fill-rule="evenodd"/>
                    </g>
                    <path id="Trazado_776672" data-name="Trazado 776672" d="M288.862,145.832c.479-8.783.8-18.256,1.106-27.452.55-16.367,1.069-31.862,2.393-40.814,1.143-7.733,4.9-11.855,9.321-13.429a13.645,13.645,0,0,1,6.111-.653,16.22,16.22,0,0,1,5.813,1.837c4.268,2.3,7.37,6.425,7.08,11.118-.849,13.688-5.659,20.381-10.433,27.025-6.768,9.416-13.094,20.556-7.436,51.029l-2.337-1.468c-5.812-31.307,1.128-40.966,8.148-50.731,4.6-6.407,9.243-12.862,10.056-25.973a15.868,15.868,0,0,0-.215-4.545c-2.257-5.592-11.115-7.526-16.119-5.746-3.772,1.341-6.987,4.958-8,11.826-1.313,8.883-1.83,24.3-2.377,40.586-.332,9.874-.674,20.067-1.206,29.273Z" transform="translate(-284.431 -54.717)" fill="#8a2b36" fill-rule="evenodd"/>
                    <g id="Grupo_1066016" data-name="Grupo 1066016" transform="translate(9.14)">
                      <path id="Trazado_776673" data-name="Trazado 776673" d="M294.119,71.29l2.446,2.021-3.085,1.01c-.924,7.308-1.024,13.341-.1,23.855.918-9.234,2.607-17.985,6.5-25.831a10.338,10.338,0,0,1,8.178-6.2l-3.26-1.468C299.678,63.737,296.223,66.869,294.119,71.29Z" transform="translate(-292.735 -54.475)" fill="#73a3b0" fill-rule="evenodd"/>
                      <path id="Trazado_776674" data-name="Trazado 776674" d="M319.922,73.834c1.009,3.469-.816,6.825-3.758,11.295l-3.656-1.009,1.228,3.681c-8.169,3.976-11.543,6.461-16.714,12.648,5.644-11.415,23.73-22.64,17.356-31.857-.047-.18-.247-.991-.264-1.094C316.8,69.162,318.951,70.489,319.922,73.834Z" transform="translate(-291.809 -53.83)" fill="#73a3b0" fill-rule="evenodd"/>
                      <g id="Grupo_1066015" data-name="Grupo 1066015" transform="translate(6.155)">
                        <g id="Grupo_1066014" data-name="Grupo 1066014" transform="translate(0.139 0.62)">
                          <path id="Trazado_776675" data-name="Trazado 776675" d="M314.748,72.7c.187,3.932-13.458,6.67-15.121,1.046a15.323,15.323,0,0,1-.12-1.905,26.486,26.486,0,0,0-1.589-9.465c-.3-.8,11.825-4.426,12.981-4.8.507.114,2.82.854,2.809.891C312.22,63.929,313.11,67.208,314.748,72.7Z" transform="translate(-297.912 -56.592)" fill="#001c2b" fill-rule="evenodd"/>
                          <path id="Trazado_776676" data-name="Trazado 776676" d="M310.159,74.395c-3.884,1.351-9.964.9-10.762-2.5-.055-.714-.114-1.361-.109-1.5a40.006,40.006,0,0,0-.305-4.619C306.232,64.992,309.536,71.8,310.159,74.395Z" transform="translate(-297.68 -54.834)" fill="#002a40" fill-rule="evenodd"/>
                          <path id="Trazado_776677" data-name="Trazado 776677" d="M314.736,72.873a.921.921,0,0,1,0,.24c-4.54-6.229-7.5-6.405-15.852-7.233a28.62,28.62,0,0,0-.94-3.209c-.216-.618,12.038-5.452,13.154-5.9.449.529,2.887.935,2.663,1.913C312.584,63.789,313.2,67.718,314.736,72.873Z" transform="translate(-297.906 -56.767)" fill-rule="evenodd"/>
                        </g>
                        <path id="Trazado_776678" data-name="Trazado 776678" d="M304.833,56.97c4.392-1.273,8.391-.794,8.931,1.07s-2.583,4.408-6.974,5.681-8.391.794-8.932-1.07S300.44,58.243,304.833,56.97Z" transform="translate(-297.797 -56.257)" fill="#001c2b" fill-rule="evenodd"/>
                      </g>
                    </g>
                  </g>
                </g>
                <g id="Grupo_1066022" data-name="Grupo 1066022" transform="translate(31.528 42.454)">
                  <g id="Grupo_1066020" data-name="Grupo 1066020" transform="translate(42.908)">
                    <g id="Grupo_1066019" data-name="Grupo 1066019">
                      <path id="Trazado_776679" data-name="Trazado 776679" d="M358.185,77.379c-.517,7.574-4.419,17.174-6.973,26.341-1.545,5.547-8.51,3.57-8.052-1.959.471-6.663.654-14.557,2.063-20.881,1.285-5.773,4-10.73,8.211-10.972C357.607,69.67,358.411,74.06,358.185,77.379Z" transform="translate(-343.138 -68.644)" fill="#729ec1" fill-rule="evenodd"/>
                      <path id="Trazado_776680" data-name="Trazado 776680" d="M358.211,77.106c-.373,7.647-4.392,17.468-7,26.838-1.452,5.209-7.682,3.781-8.054-.991a11.73,11.73,0,0,0,2.4-.435c2.421-.85,2.277-2.973,4.3-10.656,2.1-7.979,3.554-14.793,3.653-22.994C358.532,68.948,358.36,74.057,358.211,77.106Z" transform="translate(-343.135 -68.867)" fill="#6087a8" fill-rule="evenodd"/>
                    </g>
                    <path id="Trazado_776681" data-name="Trazado 776681" d="M352.1,70.565c-6.114,2.569-8.187,15.8-8.774,27.793l3.209,1.8C349.33,89.6,349.872,81.1,352.1,70.565Z" transform="translate(-343.097 -68.5)" fill="#8fbce0" fill-rule="evenodd"/>
                  </g>
                  <g id="Grupo_1066021" data-name="Grupo 1066021" transform="translate(0 17.374)">
                    <path id="Trazado_776682" data-name="Trazado 776682" d="M328.4,88.612c-2.9-1.342-7.021-4.275-7.991-4.445-1.387-.242-5.765-1.181-6.867-.984-.937.167-2.235.142-5.123.748-1.4.293.185,1.035.4,1.108,1.053.35,2.448.074,4.1.167a17.681,17.681,0,0,1,3.56.616,20.526,20.526,0,0,0-3.409.036c-.6.128-1.927.693-3.605,1.353-1.623.637-1.286,1.6-.142,1.573,1.233-.033,3.261-.891,4.516-1.122a25.7,25.7,0,0,1,3.513.945l-3.487.209-4.676,1.6c.657,2.057,2.989.725,4.923.277.941.134,2.438.124,3.859.2l-2.5.671a17.242,17.242,0,0,0-2.479.744c-.975.426-1.367.917.163,1.026a21.788,21.788,0,0,0,2.878-.167c2.491-.288,3.236.286,4.738.434,1.89.185,4.714-.046,6.4.4,7.37,1.964,17.706,10.11,27.4,10.178,2.8.019,3.785-3.077,3.57-4.7-.286-2.152-2.255-4.422-7.713-5.743C343.282,92.01,335.263,91.788,328.4,88.612Z" transform="translate(-307.85 -83.156)" fill="#f1b287" fill-rule="evenodd"/>
                    <path id="Trazado_776683" data-name="Trazado 776683" d="M311.492,91.66a2.292,2.292,0,0,0,.884.184,22.037,22.037,0,0,0,2.878-.165c2.491-.289,3.236.285,4.738.433,1.89.185,4.714-.046,6.4.4,7.37,1.964,17.706,10.11,27.4,10.178,2.8.019,3.785-3.077,3.57-4.7-.286-2.152-2.256-4.422-7.713-5.743-.342-.083-.686-.163-1.032-.238l.952,2.515-6.537,4.537-2.42-8.48c-.982-.162-1.966-.33-2.946-.513a12.173,12.173,0,0,1-1.621,3.547,45.2,45.2,0,0,0-10.4-3.176,21.14,21.14,0,0,0-6.031-.264A66.831,66.831,0,0,0,311.492,91.66Z" transform="translate(-307.063 -81.665)" fill="#e8a476" fill-rule="evenodd"/>
                    <path id="Trazado_776684" data-name="Trazado 776684" d="M349.577,93.272A110.9,110.9,0,0,0,333.7,90.03c.852,1.249-1.688,6.042-3.008,6.33,4.337,2.431,11.932,6.215,17.586,6.647a6.12,6.12,0,0,0,2.229-.1,3.883,3.883,0,0,0,1.025-.477C353.877,100.829,356.134,97.209,349.577,93.272Z" transform="translate(-302.917 -81.672)" fill="#729ec1" fill-rule="evenodd"/>
                    <path id="Trazado_776685" data-name="Trazado 776685" d="M349.453,93.386a125.493,125.493,0,0,0-16.219-3.356c.356.523.119,1.665-.374,2.838,4.141.908,9.635,2.783,14.062,4.129A5.7,5.7,0,0,0,349.453,93.386Z" transform="translate(-302.45 -81.672)" fill="#8fbce0" fill-rule="evenodd"/>
                    <path id="Trazado_776686" data-name="Trazado 776686" d="M351.331,91.791c-.736,2.3-1.012,6.576-2.842,6.6-3.129-.689-13.312-3.56-15.831-4.548-.641,1.1-1.407,2.01-1.965,2.135,4.337,2.431,11.932,6.215,17.586,6.647a4.563,4.563,0,0,0,3.254-.575,4.648,4.648,0,0,0,2.37-3.468,4.894,4.894,0,0,0-.443-2.433C352.513,94.012,353.421,92.322,351.331,91.791Z" transform="translate(-302.917 -81.291)" fill="#6087a8" fill-rule="evenodd"/>
                  </g>
                </g>
                <g id="Grupo_1066050" data-name="Grupo 1066050" transform="translate(47.355 2.168)">
                  <path id="Trazado_776687" data-name="Trazado 776687" d="M323.87,82.486c1.448-3.989,5.585-7.437,7.623-12.962A108.968,108.968,0,0,0,335.27,56.94l-6.912,1.618C327.27,67.289,319.955,77.287,323.87,82.486Z" transform="translate(-320.464 -31.156)" fill="#241304" fill-rule="evenodd"/>
                  <path id="Trazado_776688" data-name="Trazado 776688" d="M328.011,56.1l4.566-3.65-3-8.47L324.857,38.2C318.721,43.131,323.79,55.965,328.011,56.1Z" transform="translate(-320.619 -35.202)" fill="#361d07" fill-rule="evenodd"/>
                  <g id="Grupo_1066049" data-name="Grupo 1066049">
                    <g id="Grupo_1066023" data-name="Grupo 1066023" transform="translate(10.241 14.338)">
                      <path id="Trazado_776689" data-name="Trazado 776689" d="M346.712,64.176c1.367,5.326-7.536,8.64-11.364,6.948-.5-1.5-2.861-8.221-5.731-12.294l10.767-7.545,2.252-1.106C341.994,56.423,343.922,59.275,346.712,64.176Z" transform="translate(-329.217 -46.955)" fill="#e8a476" fill-rule="evenodd"/>
                      <path id="Trazado_776690" data-name="Trazado 776690" d="M340.075,68.376a8.5,8.5,0,0,1-5.386-.022c-.255-.76-.985-2.856-2.015-5.269C337.051,62.35,339.734,66.607,340.075,68.376Z" transform="translate(-328.557 -44.186)" fill="#f1b287" fill-rule="evenodd"/>
                      <path id="Trazado_776691" data-name="Trazado 776691" d="M346.769,64.63a.831.831,0,0,1,.044.205c-4.788-3.223-10.1.143-14.094.053-.167-.272-.692-1.515-.835-1.739-.5-.961-1.939-3.227-2.6-4.462l11.292-9.5,2.719-1.662C342.158,55.468,343.979,59.73,346.769,64.63Z" transform="translate(-329.288 -47.527)" fill="#db9669" fill-rule="evenodd"/>
                    </g>
                    <g id="Grupo_1066048" data-name="Grupo 1066048">
                      <path id="Trazado_776692" data-name="Trazado 776692" d="M333.238,66.635c6.082-3.047,7.723-6.295,8.769-12.793,2.619-2.015,3.7-3.625,3.875-5.356.426-4.107-2.059-8.431-5.265-10.728a10.853,10.853,0,0,0-9.465-1.589c-6.8,1.742-9.079,6.312-9.232,12.254a17.757,17.757,0,0,0,1.173,4.662c.693,1.885-.247,1.417-.039,3.377a33.439,33.439,0,0,0,2.3,7.126c.815,1.877,1.043,3.847,2.051,4.1A8.653,8.653,0,0,0,333.238,66.635Z" transform="translate(-320.638 -35.735)" fill="#f1b287" fill-rule="evenodd"/>
                      <path id="Trazado_776693" data-name="Trazado 776693" d="M333.18,66.635c6.1-3.051,7.723-6.295,8.769-12.793,2.619-2.015,3.7-3.625,3.875-5.356.426-4.107-2.059-8.431-5.265-10.728a10.858,10.858,0,0,0-9.465-1.59c-4.918,1.261-8.4,5.452-8.91,9.089a35.834,35.834,0,0,0,8.5,1.07c2.98.976,1.34,2.9,2.27,4.7.744,1.446,1.783,1.694,2.093,2.772.649,2.266-2.016,2.614-1.986,3.71.032,1.121,2.844,1.058,2.47,4.118a19.045,19.045,0,0,1-2.737,5.164C332.919,66.743,333.053,66.7,333.18,66.635Z" transform="translate(-320.581 -35.735)" fill="#e8a476" fill-rule="evenodd"/>
                      <path id="Trazado_776694" data-name="Trazado 776694" d="M322.024,47.938a3.714,3.714,0,0,0,.807,1.742,12.245,12.245,0,0,1,.6,1.581,2.261,2.261,0,0,1-.289,1.175,3.227,3.227,0,0,0-.049,2.006c.083.336.191.756.326,1.2.14.458.3.937.447,1.362L323.856,57c.089.219.294.851.449,1.206.193-.116.785.117,1.014.213s.354.235.5.25c.184.019.322-.1.567-.2.384-.162.573.128,1-.128.37-.223,1.77-.726.978-1.4-.754,1-1.33.258-1.941.451a3.925,3.925,0,0,1-1.7-.108c1.3-1.154,1.481-3.122,1.539-4.7a3.371,3.371,0,0,0-1.381-2.812C323.952,49.058,322.772,48.756,322.024,47.938Z" transform="translate(-320.616 -33.1)" fill="#e8a476" fill-rule="evenodd"/>
                      <g id="Grupo_1066024" data-name="Grupo 1066024" transform="translate(4.48 25.996)">
                        <path id="Trazado_776695" data-name="Trazado 776695" d="M328.1,57.483l1.986.613c.382.071.706-.343.894-.119.134.162-.015.287-.27.366a5.02,5.02,0,0,0-1.082.641c-2.118,1.273-3.592,3.288-4.642-.613-.135-.511-.1-.668.406-.575l.671.232,1.425-.252Z" transform="translate(-324.471 -57.036)" fill="#e8a476" fill-rule="evenodd"/>
                        <path id="Trazado_776696" data-name="Trazado 776696" d="M330.292,58.419c-1.165.592-2.347,1.751-3.772,1.6a1.539,1.539,0,0,1-1.3-.981c-.333-.783-.175-1.051.119-1.082a5.371,5.371,0,0,1,1.16.263C328.851,57.71,327.817,57.611,330.292,58.419Z" transform="translate(-324.446 -56.962)" fill="#e89471" fill-rule="evenodd"/>
                        <path id="Trazado_776697" data-name="Trazado 776697" d="M327.882,59.127a2.291,2.291,0,0,1-1.391.368,1.848,1.848,0,0,1-1.2-.637c-.3-.5-.181-.731.019-.683.164.038.314.35.719.439a8.916,8.916,0,0,1,1.544-.225c.1,0,.776.074.85.261C328.485,58.81,327.966,59.085,327.882,59.127Z" transform="translate(-324.43 -56.888)" fill="#eda288" fill-rule="evenodd"/>
                        <path id="Trazado_776698" data-name="Trazado 776698" d="M330.279,58.313c-1.165.592-2.347,1.751-3.772,1.6a1.539,1.539,0,0,1-1.3-.981c-.045-.107-.081-.2-.109-.293.651,1.22,1.789,1.162,3.127.565C328.846,58.923,329.417,58.669,330.279,58.313Z" transform="translate(-324.432 -56.856)" fill="#de8660" fill-rule="evenodd"/>
                        <path id="Trazado_776699" data-name="Trazado 776699" d="M324.829,57.122c.232-.058.565.246.954.638a2.108,2.108,0,0,1,1.807-.411,27.834,27.834,0,0,0,2.7.816,2.857,2.857,0,0,0,.484.066,5.19,5.19,0,0,1-.606.285c-.883.27-1.437-.006-2.654-.058a6.16,6.16,0,0,0-1.049.178.721.721,0,0,1-.343.038c-.143-.036-.685-.4-.916-.526a1.843,1.843,0,0,1-.461-.33C324.5,57.567,324.447,57.218,324.829,57.122Z" transform="translate(-324.551 -57.115)" fill="#e89471" fill-rule="evenodd"/>
                        <path id="Trazado_776700" data-name="Trazado 776700" d="M324.821,57.122c.232-.058.565.246.954.638a2.108,2.108,0,0,1,1.807-.411c.471.137,1.17.409,1.9.62-1.091-.181-1.9-.357-1.99-.362a2.878,2.878,0,0,0-1.694.356c-.328-.06-.828-.768-1.211-.7A.38.38,0,0,1,324.821,57.122Z" transform="translate(-324.542 -57.115)" fill="#eda288" fill-rule="evenodd"/>
                        <path id="Trazado_776701" data-name="Trazado 776701" d="M326.331,58.126a1.746,1.746,0,0,1,1.218-.057,5.459,5.459,0,0,0,3.211.071,5.19,5.19,0,0,1-.606.285c-.883.27-1.437-.006-2.654-.058a6.16,6.16,0,0,0-1.049.178.721.721,0,0,1-.343.038c-.143-.036-.685-.4-.916-.526a1.843,1.843,0,0,1-.461-.33.8.8,0,0,1-.136-.186,4.8,4.8,0,0,1,1.075.506C326.02,58.3,325.927,58.316,326.331,58.126Z" transform="translate(-324.541 -57.024)" fill="#de8660" fill-rule="evenodd"/>
                      </g>
                      <path id="Trazado_776702" data-name="Trazado 776702" d="M334.1,49.657c-.625-.22-1.238-.483-1.876-.659a2.286,2.286,0,0,0-1.33-.122,9.332,9.332,0,0,0-2.4.518,7,7,0,0,1-1.516.44c.066.483.14.737.305.83a17.984,17.984,0,0,0,3.285-1.113c.958-.371.978-.37,1.719-.2A11.886,11.886,0,0,0,334.1,49.657Z" transform="translate(-319.547 -32.907)" fill="#572f0c" fill-rule="evenodd"/>
                      <path id="Trazado_776703" data-name="Trazado 776703" d="M332.558,50.854a3.562,3.562,0,0,1-2.015,1.345,2.543,2.543,0,0,1-1.6-.246c-.337-.158-.67-.353-1-.533a8.238,8.238,0,0,0,2.562.242C331.257,51.547,332.384,50.8,332.558,50.854Z" transform="translate(-319.338 -32.471)" fill="#ded5d5" fill-rule="evenodd"/>
                      <g id="Grupo_1066025" data-name="Grupo 1066025" transform="translate(9.718 19.024)">
                        <path id="Trazado_776704" data-name="Trazado 776704" d="M328.858,51.381a.885.885,0,0,0,.858.636c.536.06,1.15-.136,1.171-.573A4.975,4.975,0,0,1,328.858,51.381Z" transform="translate(-328.858 -51.381)" fill="#031d30" fill-rule="evenodd"/>
                        <path id="Trazado_776705" data-name="Trazado 776705" d="M328.975,51.52a1.509,1.509,0,0,0,.885.269A.718.718,0,0,1,328.975,51.52Z" transform="translate(-328.833 -51.351)" fill="#ded5d5" fill-rule="evenodd"/>
                      </g>
                      <path id="Trazado_776706" data-name="Trazado 776706" d="M332.558,50.854a3.562,3.562,0,0,1-2.015,1.345,2.543,2.543,0,0,1-1.6-.246c-.337-.158-.67-.353-1-.533a3.982,3.982,0,0,1,1.026.4,2.262,2.262,0,0,0,1.559.223A4.091,4.091,0,0,0,332.558,50.854Z" transform="translate(-319.338 -32.47)" fill-rule="evenodd"/>
                      <g id="Grupo_1066035" data-name="Grupo 1066035" transform="translate(8.172 17.499)">
                        <path id="Trazado_776707" data-name="Trazado 776707" d="M328.1,51.022c.686-.419.947-.607,2.544-.4.659.085.782.517.018.711a2.965,2.965,0,0,1-1.277.058,3.9,3.9,0,0,0-1.026-.09C327.726,51.341,327.189,51.578,328.1,51.022Z" transform="translate(-327.581 -50.038)" fill="#f5bc95" fill-rule="evenodd"/>
                        <path id="Trazado_776708" data-name="Trazado 776708" d="M329.657,50.481c1.438.2,3.3-.616,3.424-.266.062.178-.124.5-.841.98-1.984.841-2.01.681-4.152.288a13.64,13.64,0,0,0,2.344.067c.721-.123,1.415-.55,1.39-.822C331.8,50.51,331.172,50.83,329.657,50.481Z" transform="translate(-327.479 -50.126)" fill="#c48c69" fill-rule="evenodd"/>
                        <path id="Trazado_776709" data-name="Trazado 776709" d="M332.866,50.193c.282.422-1.143,1.145-1.5,1.282a3.459,3.459,0,0,1-2.429.182,6.808,6.808,0,0,0,1.41-.013c.722-.123,1.955-.64,1.888-1.119-.022-.153-.492.035-1.417.024C331.7,50.532,332.713,49.963,332.866,50.193Z" transform="translate(-327.296 -50.124)" fill="#996c50" fill-rule="evenodd"/>
                        <path id="Trazado_776710" data-name="Trazado 776710" d="M327.587,51.471c.374-.215.782-.045,1.629.036A4.939,4.939,0,0,0,332,51.133a10.035,10.035,0,0,0,.956-.518,3.812,3.812,0,0,1-3.612,1.184A5.973,5.973,0,0,0,327.587,51.471Z" transform="translate(-327.587 -50.021)" fill="#785a46" fill-rule="evenodd"/>
                        <g id="Grupo_1066034" data-name="Grupo 1066034" transform="translate(0.359 0.583)">
                          <path id="Trazado_776711" data-name="Trazado 776711" d="M332.9,50.615a3.812,3.812,0,0,1-3.612,1.184,10.874,10.874,0,0,0-1.4-.325c.338-.019,1.111.213,1.862.282A4.535,4.535,0,0,0,332.9,50.615Z" transform="translate(-327.882 -50.604)" fill-rule="evenodd"/>
                          <g id="Grupo_1066033" data-name="Grupo 1066033" transform="translate(0.141)">
                            <path id="Trazado_776712" data-name="Trazado 776712" d="M331.75,50.9a1.569,1.569,0,0,0,1.139-.3c-.285.351-.547.511-1.34.449C331.566,51.041,331.742,50.9,331.75,50.9Z" transform="translate(-327.231 -50.606)" fill-rule="evenodd"/>
                            <path id="Trazado_776713" data-name="Trazado 776713" d="M331.534,51a1.963,1.963,0,0,0,.948-.028,1.379,1.379,0,0,1-1.032.088C331.465,51.058,331.531,51,331.534,51Z" transform="translate(-327.253 -50.526)" fill-rule="evenodd"/>
                            <path id="Trazado_776714" data-name="Trazado 776714" d="M331.4,51.092a1.7,1.7,0,0,0,1.021.06,1.373,1.373,0,0,1-1.142.046Z" transform="translate(-327.29 -50.501)" fill-rule="evenodd"/>
                            <path id="Trazado_776715" data-name="Trazado 776715" d="M331.18,51.249a1.637,1.637,0,0,0,.827.277,1.3,1.3,0,0,1-.953-.2Z" transform="translate(-327.338 -50.467)" fill-rule="evenodd"/>
                            <path id="Trazado_776716" data-name="Trazado 776716" d="M331.251,51.2a1.689,1.689,0,0,0,.726.193,1.184,1.184,0,0,1-.789-.156Z" transform="translate(-327.309 -50.479)" fill-rule="evenodd"/>
                            <path id="Trazado_776717" data-name="Trazado 776717" d="M330.931,51.387a1.6,1.6,0,0,0,.732.368,1.286,1.286,0,0,1-.857-.309Z" transform="translate(-327.392 -50.437)" fill-rule="evenodd"/>
                            <path id="Trazado_776718" data-name="Trazado 776718" d="M331.018,51.337a1.607,1.607,0,0,0,.636.3,1.152,1.152,0,0,1-.7-.265Z" transform="translate(-327.36 -50.448)" fill-rule="evenodd"/>
                            <path id="Trazado_776719" data-name="Trazado 776719" d="M330.729,51.479a1.6,1.6,0,0,0,.609.547,1.215,1.215,0,0,1-.728-.509C330.655,51.509,330.684,51.488,330.729,51.479Z" transform="translate(-327.434 -50.418)" fill-rule="evenodd"/>
                            <path id="Trazado_776720" data-name="Trazado 776720" d="M330.8,51.446a1.567,1.567,0,0,0,.518.4,1.127,1.127,0,0,1-.581-.372Z" transform="translate(-327.408 -50.425)" fill-rule="evenodd"/>
                            <path id="Trazado_776721" data-name="Trazado 776721" d="M330.553,51.547a1.39,1.39,0,0,1,.215.709,3.656,3.656,0,0,0-.354-.671C330.459,51.581,330.506,51.553,330.553,51.547Z" transform="translate(-327.476 -50.403)" fill-rule="evenodd"/>
                            <path id="Trazado_776722" data-name="Trazado 776722" d="M330.607,51.519a1.644,1.644,0,0,1,.28.613,3.363,3.363,0,0,0-.344-.591C330.589,51.536,330.562,51.525,330.607,51.519Z" transform="translate(-327.449 -50.409)" fill-rule="evenodd"/>
                            <path id="Trazado_776723" data-name="Trazado 776723" d="M330.332,51.6a1.3,1.3,0,0,1,.057.744,1.994,1.994,0,0,0-.205-.713A1.412,1.412,0,0,0,330.332,51.6Z" transform="translate(-327.526 -50.391)" fill-rule="evenodd"/>
                            <path id="Trazado_776724" data-name="Trazado 776724" d="M330.339,51.6a1.548,1.548,0,0,1,.15.63,1.08,1.08,0,0,0-.085-.642A.166.166,0,0,0,330.339,51.6Z" transform="translate(-327.493 -50.395)" fill-rule="evenodd"/>
                            <path id="Trazado_776725" data-name="Trazado 776725" d="M330.109,51.641a.968.968,0,0,1-.092.742,1.3,1.3,0,0,0-.044-.72Z" transform="translate(-327.572 -50.383)" fill-rule="evenodd"/>
                            <path id="Trazado_776726" data-name="Trazado 776726" d="M330.179,51.632a.9.9,0,0,1-.013.67,1.366,1.366,0,0,0-.052-.658Z" transform="translate(-327.541 -50.384)" fill-rule="evenodd"/>
                            <g id="Grupo_1066032" data-name="Grupo 1066032" transform="translate(0 0.939)">
                              <path id="Trazado_776727" data-name="Trazado 776727" d="M329.882,51.669a.91.91,0,0,1-.165.685,1.282,1.282,0,0,0,.034-.681C329.8,51.673,329.839,51.671,329.882,51.669Z" transform="translate(-327.627 -51.315)" fill-rule="evenodd"/>
                              <path id="Trazado_776728" data-name="Trazado 776728" d="M329.965,51.664a.807.807,0,0,1-.128.644,1.114,1.114,0,0,0,.056-.64Z" transform="translate(-327.601 -51.316)" fill-rule="evenodd"/>
                              <path id="Trazado_776729" data-name="Trazado 776729" d="M329.686,51.672a.859.859,0,0,1-.22.623,1.3,1.3,0,0,0,.1-.629Z" transform="translate(-327.681 -51.316)" fill-rule="evenodd"/>
                              <path id="Trazado_776730" data-name="Trazado 776730" d="M329.743,51.672a.758.758,0,0,1-.134.587,1.118,1.118,0,0,0,.066-.587Z" transform="translate(-327.65 -51.315)" fill-rule="evenodd"/>
                              <g id="Grupo_1066026" data-name="Grupo 1066026" transform="translate(1.431 0.323)">
                                <path id="Trazado_776731" data-name="Trazado 776731" d="M329.486,51.659a.87.87,0,0,1-.311.593,1.287,1.287,0,0,0,.188-.608C329.4,51.65,329.446,51.655,329.486,51.659Z" transform="translate(-329.175 -51.644)" fill-rule="evenodd"/>
                                <path id="Trazado_776732" data-name="Trazado 776732" d="M329.541,51.664a.775.775,0,0,1-.221.576,1.117,1.117,0,0,0,.152-.582Z" transform="translate(-329.144 -51.641)" fill-rule="evenodd"/>
                              </g>
                              <g id="Grupo_1066027" data-name="Grupo 1066027" transform="translate(1.133 0.28)">
                                <path id="Trazado_776733" data-name="Trazado 776733" d="M329.277,51.63a.819.819,0,0,1-.347.514,1.3,1.3,0,0,0,.232-.536Z" transform="translate(-328.93 -51.608)" fill-rule="evenodd"/>
                                <path id="Trazado_776734" data-name="Trazado 776734" d="M329.338,51.64a.736.736,0,0,1-.263.507,1.107,1.107,0,0,0,.2-.517Z" transform="translate(-328.899 -51.603)" fill-rule="evenodd"/>
                              </g>
                              <g id="Grupo_1066028" data-name="Grupo 1066028" transform="translate(0.845 0.219)">
                                <path id="Trazado_776735" data-name="Trazado 776735" d="M329.064,51.585a.8.8,0,0,1-.371.483,1.3,1.3,0,0,0,.26-.509Z" transform="translate(-328.693 -51.558)" fill-rule="evenodd"/>
                                <path id="Trazado_776736" data-name="Trazado 776736" d="M329.126,51.6a.73.73,0,0,1-.288.478,1.109,1.109,0,0,0,.224-.492l.015,0Z" transform="translate(-328.662 -51.552)" fill-rule="evenodd"/>
                              </g>
                              <g id="Grupo_1066029" data-name="Grupo 1066029" transform="translate(0.567 0.148)">
                                <path id="Trazado_776737" data-name="Trazado 776737" d="M328.847,51.529a.731.731,0,0,1-.383.393,1.26,1.26,0,0,0,.28-.422Z" transform="translate(-328.464 -51.5)" fill-rule="evenodd"/>
                                <path id="Trazado_776738" data-name="Trazado 776738" d="M328.918,51.549a.683.683,0,0,1-.311.4,1.091,1.091,0,0,0,.249-.415Z" transform="translate(-328.433 -51.493)" fill-rule="evenodd"/>
                              </g>
                              <g id="Grupo_1066030" data-name="Grupo 1066030" transform="translate(0.254 0.069)">
                                <path id="Trazado_776739" data-name="Trazado 776739" d="M328.616,51.463a.744.744,0,0,1-.409.382,1.282,1.282,0,0,0,.3-.41Z" transform="translate(-328.207 -51.435)" fill-rule="evenodd"/>
                                <path id="Trazado_776740" data-name="Trazado 776740" d="M328.685,51.484a.7.7,0,0,1-.337.4,1.111,1.111,0,0,0,.275-.412Z" transform="translate(-328.177 -51.428)" fill-rule="evenodd"/>
                              </g>
                              <g id="Grupo_1066031" data-name="Grupo 1066031">
                                <path id="Trazado_776741" data-name="Trazado 776741" d="M328.374,51.4a.633.633,0,0,1-.376.261,1.243,1.243,0,0,0,.275-.285Z" transform="translate(-327.998 -51.378)" fill-rule="evenodd"/>
                                <path id="Trazado_776742" data-name="Trazado 776742" d="M328.462,51.424a.621.621,0,0,1-.326.289,1.08,1.08,0,0,0,.265-.305Z" transform="translate(-327.968 -51.372)" fill-rule="evenodd"/>
                              </g>
                            </g>
                          </g>
                        </g>
                      </g>
                      <path id="Trazado_776743" data-name="Trazado 776743" d="M322.067,48.181a2.45,2.45,0,0,0,.612,1.319c.618.574,2.086.483,3.069,1.528C325.095,49.1,324.025,48.656,322.067,48.181Z" transform="translate(-320.607 -33.048)" fill="#db9669" fill-rule="evenodd"/>
                      <path id="Trazado_776744" data-name="Trazado 776744" d="M323.058,50.4c.13.03.661.294,1.007.374a2.323,2.323,0,0,0,1.385-.086c.053-.022.168-.074.2-.028s0,.112-.066.154c-.022-.006-.067.027-.153.084a2.377,2.377,0,0,1-.641.319,1.659,1.659,0,0,1-1.634-.587C323.122,50.589,323.029,50.393,323.058,50.4Z" transform="translate(-320.394 -32.569)" fill="#ded5d5" fill-rule="evenodd"/>
                      <path id="Trazado_776745" data-name="Trazado 776745" d="M324.961,50.815a.514.514,0,0,1-.355.44,1.628,1.628,0,0,1-1.047-.167,1.036,1.036,0,0,1-.45-.7A2.938,2.938,0,0,0,324.961,50.815Z" transform="translate(-320.382 -32.57)" fill="#062e4a" fill-rule="evenodd"/>
                      <path id="Trazado_776746" data-name="Trazado 776746" d="M323.389,50.69a2.322,2.322,0,0,0,1.216.187,1.154,1.154,0,0,1-.544.109A1.5,1.5,0,0,1,323.389,50.69Z" transform="translate(-320.321 -32.506)" fill="#ded5d5" fill-rule="evenodd"/>
                      <path id="Trazado_776747" data-name="Trazado 776747" d="M322.682,49.359a2.369,2.369,0,0,0,.525,1.374,3,3,0,0,0,2.324.168,2.766,2.766,0,0,1-1.509-.168,1.756,1.756,0,0,1-.891-.635c-.095-.32.069-.455.832-.275C323.584,49.676,322.977,49.484,322.682,49.359Z" transform="translate(-320.474 -32.793)" fill="#c48c69" fill-rule="evenodd"/>
                      <path id="Trazado_776748" data-name="Trazado 776748" d="M322.671,49.363a2.631,2.631,0,0,0,.539,1.369,2.8,2.8,0,0,0,1.522.3c-.523-.116-1.435-.309-1.727-.947-.109-.24-.164-.517.426-.4A2.88,2.88,0,0,1,322.671,49.363Z" transform="translate(-320.476 -32.792)" fill="#996c50" fill-rule="evenodd"/>
                      <g id="Grupo_1066041" data-name="Grupo 1066041" transform="translate(1.38 17.01)">
                        <g id="Grupo_1066036" data-name="Grupo 1066036" transform="translate(1.009 0.334)">
                          <path id="Trazado_776749" data-name="Trazado 776749" d="M323.091,50.513a1.419,1.419,0,0,0,1.685.754,1.78,1.78,0,0,0,.677-.368c.169-.071.181-.205-.044-.057a2.424,2.424,0,0,1-.642.32A1.666,1.666,0,0,1,323.091,50.513Z" transform="translate(-322.775 -49.888)" fill-rule="evenodd"/>
                          <path id="Trazado_776750" data-name="Trazado 776750" d="M322.838,50.013a1.243,1.243,0,0,0,.336.579,2.5,2.5,0,0,0,2.471.112A2.471,2.471,0,0,1,322.838,50.013Z" transform="translate(-322.829 -49.996)" fill="#785a46" fill-rule="evenodd"/>
                          <path id="Trazado_776751" data-name="Trazado 776751" d="M322.831,50a1.309,1.309,0,0,0,.344.6,2.5,2.5,0,0,0,2.471.112,2.874,2.874,0,0,1-2.249-.06A1.421,1.421,0,0,1,322.831,50Z" transform="translate(-322.831 -49.999)" fill-rule="evenodd"/>
                        </g>
                        <path id="Trazado_776752" data-name="Trazado 776752" d="M323.065,50.229a1.574,1.574,0,0,1-1.064-.5c.214.4.444.6,1.234.689C323.221,50.4,323.073,50.23,323.065,50.229Z" transform="translate(-322.001 -49.724)" fill-rule="evenodd"/>
                        <path id="Trazado_776753" data-name="Trazado 776753" d="M323.141,50.3a1.932,1.932,0,0,1-.948-.009,1.371,1.371,0,0,0,1.034.066C323.212,50.352,323.144,50.3,323.141,50.3Z" transform="translate(-321.96 -49.602)" fill-rule="evenodd"/>
                        <path id="Trazado_776754" data-name="Trazado 776754" d="M323.223,50.383a1.7,1.7,0,0,1-1.012.15,1.377,1.377,0,0,0,1.141-.055Z" transform="translate(-321.956 -49.582)" fill-rule="evenodd"/>
                        <path id="Trazado_776755" data-name="Trazado 776755" d="M323.387,50.539a1.647,1.647,0,0,1-.8.349,1.308,1.308,0,0,0,.933-.287Z" transform="translate(-321.874 -49.548)" fill-rule="evenodd"/>
                        <path id="Trazado_776756" data-name="Trazado 776756" d="M323.282,50.493a1.669,1.669,0,0,1-.705.257,1.179,1.179,0,0,0,.772-.225Z" transform="translate(-321.877 -49.558)" fill-rule="evenodd"/>
                        <path id="Trazado_776757" data-name="Trazado 776757" d="M323.628,50.655a1.612,1.612,0,0,1-.7.43,1.281,1.281,0,0,0,.827-.383C323.714,50.688,323.67,50.671,323.628,50.655Z" transform="translate(-321.8 -49.523)" fill-rule="evenodd"/>
                        <path id="Trazado_776758" data-name="Trazado 776758" d="M323.51,50.613a1.614,1.614,0,0,1-.607.354,1.152,1.152,0,0,0,.672-.327Z" transform="translate(-321.806 -49.532)" fill-rule="evenodd"/>
                        <path id="Trazado_776759" data-name="Trazado 776759" d="M323.811,50.728a1.612,1.612,0,0,1-.558.6,1.019,1.019,0,0,0,.665-.571C323.872,50.752,323.857,50.733,323.811,50.728Z" transform="translate(-321.731 -49.507)" fill-rule="evenodd"/>
                        <path id="Trazado_776760" data-name="Trazado 776760" d="M323.719,50.7a1.582,1.582,0,0,1-.482.444,1.135,1.135,0,0,0,.546-.423Z" transform="translate(-321.734 -49.513)" fill-rule="evenodd"/>
                        <path id="Trazado_776761" data-name="Trazado 776761" d="M323.831,50.76a2.013,2.013,0,0,1-.178.649.853.853,0,0,0,.288-.618Z" transform="translate(-321.644 -49.5)" fill-rule="evenodd"/>
                        <path id="Trazado_776762" data-name="Trazado 776762" d="M324.01,50.793a.911.911,0,0,0,.182.68,1.3,1.3,0,0,1-.051-.68C324.1,50.794,324.054,50.794,324.01,50.793Z" transform="translate(-321.567 -49.493)" fill-rule="evenodd"/>
                        <path id="Trazado_776763" data-name="Trazado 776763" d="M323.916,50.782a1.433,1.433,0,0,0,.066.633A2.849,2.849,0,0,1,324,50.8C323.972,50.794,323.939,50.783,323.916,50.782Z" transform="translate(-321.59 -49.496)" fill-rule="evenodd"/>
                        <path id="Trazado_776764" data-name="Trazado 776764" d="M324.216,50.791a.864.864,0,0,0,.236.618,1.3,1.3,0,0,1-.113-.626Z" transform="translate(-321.523 -49.496)" fill-rule="evenodd"/>
                        <path id="Trazado_776765" data-name="Trazado 776765" d="M324.145,50.794a.758.758,0,0,0,.15.582,1.111,1.111,0,0,1-.081-.586Z" transform="translate(-321.539 -49.494)" fill-rule="evenodd"/>
                        <g id="Grupo_1066037" data-name="Grupo 1066037" transform="translate(2.87 1.252)">
                          <path id="Trazado_776766" data-name="Trazado 776766" d="M324.431,50.772a.87.87,0,0,0,.328.584,1.283,1.283,0,0,1-.205-.6Z" transform="translate(-324.346 -50.754)" fill-rule="evenodd"/>
                          <path id="Trazado_776767" data-name="Trazado 776767" d="M324.361,50.778a.774.774,0,0,0,.236.57,1.127,1.127,0,0,1-.168-.578Z" transform="translate(-324.361 -50.75)" fill-rule="evenodd"/>
                        </g>
                        <g id="Grupo_1066038" data-name="Grupo 1066038" transform="translate(3.125 1.201)">
                          <path id="Trazado_776768" data-name="Trazado 776768" d="M324.647,50.736a.817.817,0,0,0,.36.506,1.288,1.288,0,0,1-.247-.53Z" transform="translate(-324.555 -50.712)" fill-rule="evenodd"/>
                          <path id="Trazado_776769" data-name="Trazado 776769" d="M324.571,50.749a.73.73,0,0,0,.276.5,1.113,1.113,0,0,1-.212-.511Z" transform="translate(-324.571 -50.707)" fill-rule="evenodd"/>
                        </g>
                        <g id="Grupo_1066039" data-name="Grupo 1066039" transform="translate(3.386 1.133)">
                          <path id="Trazado_776770" data-name="Trazado 776770" d="M324.862,50.686a.8.8,0,0,0,.384.472,1.267,1.267,0,0,1-.274-.5Z" transform="translate(-324.77 -50.656)" fill-rule="evenodd"/>
                          <path id="Trazado_776771" data-name="Trazado 776771" d="M324.786,50.7a.722.722,0,0,0,.3.469,1.114,1.114,0,0,1-.237-.485l-.015,0Z" transform="translate(-324.786 -50.649)" fill-rule="evenodd"/>
                        </g>
                        <g id="Grupo_1066040" data-name="Grupo 1066040" transform="translate(3.597 1.072)">
                          <path id="Trazado_776772" data-name="Trazado 776772" d="M325.029,50.641a.639.639,0,0,0,.371.3,1.092,1.092,0,0,1-.283-.339Z" transform="translate(-324.944 -50.606)" fill-rule="evenodd"/>
                          <path id="Trazado_776773" data-name="Trazado 776773" d="M324.959,50.667a.6.6,0,0,0,.308.315.962.962,0,0,1-.257-.336Z" transform="translate(-324.959 -50.597)" fill-rule="evenodd"/>
                        </g>
                      </g>
                      <path id="Trazado_776774" data-name="Trazado 776774" d="M323.853,50.545a3.4,3.4,0,0,0,1.525.181,3.634,3.634,0,0,0-1.434-.871C322.952,49.648,323.339,50.317,323.853,50.545Z" transform="translate(-320.334 -32.694)" fill="#f1b287" fill-rule="evenodd"/>
                      <g id="Grupo_1066043" data-name="Grupo 1066043" transform="translate(0 16.226)">
                        <path id="Trazado_776775" data-name="Trazado 776775" d="M323.328,52.445c.106.032.215.063.325.092a8.912,8.912,0,0,0,1.369.278c.429.06.655-.016.758-.243a1.724,1.724,0,0,0-.033-.94l-.12-.72-.243.056.119.709a1.639,1.639,0,0,1,.05.793c-.049.109-.2.14-.5.1h0a8.877,8.877,0,0,1-1.331-.27c-.133-.036-.263-.074-.389-.113A.985.985,0,0,0,323.328,52.445Z" transform="translate(-320.336 -48.683)" fill="#db9669" fill-rule="evenodd"/>
                        <path id="Trazado_776776" data-name="Trazado 776776" d="M323.383,52.837c.073.021.1.033.175.053a9.17,9.17,0,0,0,1.368.278c.429.058.655-.016.759-.243a1.738,1.738,0,0,0-.034-.94L325.485,51l-.233.111.154.918a1.639,1.639,0,0,1,.05.793c-.049.109-.2.139-.5.1h0a8.881,8.881,0,0,1-1.331-.27l-.277-.079A.89.89,0,0,0,323.383,52.837Z" transform="translate(-320.331 -48.664)" fill="#db9669" fill-rule="evenodd"/>
                        <g id="Grupo_1066042" data-name="Grupo 1066042">
                          <path id="Trazado_776777" data-name="Trazado 776777" d="M322.8,52.513a10.884,10.884,0,0,0,2.687.73c.73.1.749-.208.586-1.037l-.213-1.258c-.161-.82-.3-1.1-.934-1.228-1.2-.241-2.3-.394-3.533-.526-.5-.052-.474.084-.33.542C321.418,50.858,321.875,52.069,322.8,52.513Z" transform="translate(-320.844 -49.057)" fill="#ccc8c8" fill-rule="evenodd" opacity="0.5"/>
                          <path id="Trazado_776778" data-name="Trazado 776778" d="M322.764,52.646a9.128,9.128,0,0,0,1.357.463,8.927,8.927,0,0,0,1.368.278c.429.06.657-.015.759-.243a1.748,1.748,0,0,0-.033-.94L326,50.944a2.418,2.418,0,0,0-.31-.922,1.051,1.051,0,0,0-.721-.4c-.6-.12-1.182-.22-1.763-.305s-1.165-.157-1.783-.223c-.316-.033-.472.009-.536.153-.055.126-.006.294.075.551a9.4,9.4,0,0,0,.665,1.667,2.676,2.676,0,0,0,1.134,1.186Zm1.423.224a8.994,8.994,0,0,1-1.314-.447,2.447,2.447,0,0,1-1.024-1.082,9.186,9.186,0,0,1-.647-1.622.951.951,0,0,1-.084-.375c.011-.024.092-.026.281-.006.616.066,1.2.137,1.774.221s1.15.184,1.748.3a.826.826,0,0,1,.567.305,2.22,2.22,0,0,1,.27.822l.212,1.262a1.628,1.628,0,0,1,.051.793c-.05.108-.2.139-.5.1h0A8.715,8.715,0,0,1,324.187,52.87Z" transform="translate(-320.866 -49.079)" fill="#4a4642" fill-rule="evenodd"/>
                        </g>
                      </g>
                      <g id="Grupo_1066045" data-name="Grupo 1066045" transform="translate(1.24 14.409)">
                        <g id="Grupo_1066044" data-name="Grupo 1066044" transform="translate(2.452 1.712)">
                          <path id="Trazado_776779" data-name="Trazado 776779" d="M327.28,56.056c-.541.293-.884-.116-1.481-.072a2.154,2.154,0,0,1,.54-.131,6.876,6.876,0,0,0,1.21-.088C327.588,55.751,327.392,56,327.28,56.056Z" transform="translate(-323.493 -47.531)" fill="#db9669" fill-rule="evenodd"/>
                          <path id="Trazado_776780" data-name="Trazado 776780" d="M327.212,50.174c-.669-.257-2.074-1.767-2.589-.931a4.677,4.677,0,0,1,.76,1.718,8.452,8.452,0,0,1-.4,3.426c-.426,1.3-1.2,1.813-1.07,2.476.1.54,1.079.974,2.437.557.694-.214.931.043,1.389-.083a.629.629,0,0,0,.467-.658c0-.12-.133-.26-.156-.385C327.658,54.1,327.767,52.88,327.212,50.174Z" transform="translate(-323.903 -48.993)" fill="#f1b287" fill-rule="evenodd"/>
                          <path id="Trazado_776781" data-name="Trazado 776781" d="M325.478,51.122a7.085,7.085,0,0,1-.675,4.556.781.781,0,0,0-.056.683c.242.58,1.29.419,1.882.468a11.312,11.312,0,0,1-1.234.229c-.626.062-1.314-.23-1.4-.621-.067-.3.006-.5.253-.913A6.957,6.957,0,0,0,325.478,51.122Z" transform="translate(-323.888 -48.533)" fill="#f5bc95" fill-rule="evenodd"/>
                        </g>
                        <path id="Trazado_776782" data-name="Trazado 776782" d="M325.092,49.2c.114.447.254,1.105.04,1.042a7.453,7.453,0,0,1-1.217-.773c-.614-.437-1.258-.663-1.618-.912a1.14,1.14,0,0,1-.411-.974,5.729,5.729,0,0,0,1.244.636A14.621,14.621,0,0,0,325.092,49.2Z" transform="translate(-321.886 -47.585)" fill="#572f0c" fill-rule="evenodd"/>
                      </g>
                      <g id="Grupo_1066047" data-name="Grupo 1066047" transform="translate(4.769 14.254)">
                        <path id="Trazado_776783" data-name="Trazado 776783" d="M328.878,53.923c.371.062,1.02.123,1.71.168s1.4.073,1.941.069a1.531,1.531,0,0,0,.783-.123c.178-.1.106-.306,0-.434a.34.34,0,0,1-.039.106c-.08.134-.3.214-.737.2h0c-.528,0-1.246-.027-1.926-.071s-1.323-.1-1.685-.164a2.146,2.146,0,0,1-1.25-.879,6.576,6.576,0,0,1-.717-1.181,4.97,4.97,0,0,1-.6-1.207c-.007-.018-.169-.017-.068.263a8.577,8.577,0,0,0,1.188,2.279A2.381,2.381,0,0,0,328.878,53.923Z" transform="translate(-324.472 -46.822)" fill="#db9669" fill-rule="evenodd"/>
                        <path id="Trazado_776784" data-name="Trazado 776784" d="M328.8,54.222c.371.062,1.02.123,1.71.168s1.4.072,1.941.069c.544.015.83-.077.963-.3a.623.623,0,0,0,.079-.328l-.247-.009a.4.4,0,0,1-.046.208c-.2.337-2.478.119-2.674.107-.683-.044-1.323-.1-1.685-.164a2.148,2.148,0,0,1-1.25-.88,8.361,8.361,0,0,1-1.149-2.209c-.019-.051-.034-.1-.047-.139l-.19,0c.024.061.053.128.081.2a8.282,8.282,0,0,0,1.109,2.3A2.382,2.382,0,0,0,328.8,54.222Z" transform="translate(-324.483 -46.749)" fill="#e8a476" fill-rule="evenodd"/>
                        <g id="Grupo_1066046" data-name="Grupo 1066046">
                          <path id="Trazado_776785" data-name="Trazado 776785" d="M328.835,54.014a29.692,29.692,0,0,0,3.632.235c.986.026,1.02-.288.818-1.106l-.4-1.605c-.2-.809-.381-1.079-1.234-1.139-1.622-.118-3.1-.157-4.768-.163-.681,0-.711.154-.547.608C326.73,51.928,327.594,53.807,328.835,54.014Z" transform="translate(-324.471 -46.858)" fill="#ccc8c8" fill-rule="evenodd" opacity="0.5"/>
                          <path id="Trazado_776786" data-name="Trazado 776786" d="M328.838,54.159c.371.061,1.02.123,1.708.167s1.4.073,1.941.071c.543.013.832-.077.964-.3a1.341,1.341,0,0,0-.023-.964l-.4-1.605a1.861,1.861,0,0,0-.4-.908,1.388,1.388,0,0,0-.942-.325c-.817-.06-1.594-.1-2.372-.124s-1.569-.036-2.4-.039c-.383,0-.591.053-.689.184s-.072.325.024.591a8.6,8.6,0,0,0,1.188,2.279,2.386,2.386,0,0,0,1.407.973Zm1.725-.083c-.683-.044-1.323-.1-1.685-.164a2.148,2.148,0,0,1-1.251-.879,8.348,8.348,0,0,1-1.149-2.211c-.067-.186-.1-.305-.061-.355s.193-.085.491-.085c.829,0,1.615.013,2.4.039s1.558.064,2.362.123a1.176,1.176,0,0,1,.783.253,1.683,1.683,0,0,1,.339.793l.4,1.605c.094.378.135.635.051.776s-.3.187-.744.176h0C331.961,54.149,331.242,54.121,330.563,54.076Z" transform="translate(-324.494 -46.88)" fill="#4a4642" fill-rule="evenodd"/>
                          <path id="Trazado_776787" data-name="Trazado 776787" d="M326.68,50.913a.145.145,0,1,0,.034-.288l-1.763-.2a.145.145,0,1,0-.034.288Z" transform="translate(-324.788 -46.819)" fill="#4a4642" fill-rule="evenodd"/>
                          <path id="Trazado_776788" data-name="Trazado 776788" d="M331.613,51.586c-.045.036.1.84.278.7l7.276-4.25.413-.579-.168.092Z" transform="translate(-323.316 -47.458)" fill="#4a4642" fill-rule="evenodd"/>
                          <path id="Trazado_776789" data-name="Trazado 776789" d="M331.668,51.438c-.045.036-.023.339.152.2l5.474-3.133c.052-.032.038-.064,0-.047Z" transform="translate(-323.307 -47.243)" fill="#e6e6e6" fill-rule="evenodd"/>
                        </g>
                      </g>
                    </g>
                  </g>
                </g>
                <g id="Grupo_1066052" data-name="Grupo 1066052" transform="translate(48.974)">
                  <path id="Trazado_776790" data-name="Trazado 776790" d="M344.619,62.851c4.254-3.627,4.783-13.17,2.771-18.641a22.137,22.137,0,0,0-4.586-7.254c-2.671-2.674-6.651-3.8-11.935-2.065-1.58.519,3.39.3,1.663,1.865l6.39,13.5C340.691,57.013,340.263,57.39,344.619,62.851Z" transform="translate(-320.394 -33.928)" fill="#361d07" fill-rule="evenodd"/>
                  <path id="Trazado_776791" data-name="Trazado 776791" d="M322.2,43.351c9,10.46,20.059,9.163,20.874,11.8.63,2.043,3.641-2.651,4.093-4.779a13.655,13.655,0,0,0-7.508-14.888C332.6,32.224,323.526,37.248,322.2,43.351Z" transform="translate(-322.198 -33.842)" fill="#361d07" fill-rule="evenodd"/>
                  <path id="Trazado_776792" data-name="Trazado 776792" d="M343.295,58.447c5-5.095,6.557-11.464,4.357-16.955.021.126.04.254.057.383-1.032-1.68-2.545-4.016-4.634-4.5a12.9,12.9,0,0,1,4.374,7.45c-1.126-2.746-2.338-3.766-4.871-5.876a21.736,21.736,0,0,1,3.552,6.529c-1.136-1.926-3.851-4.6-5.31-5.008A10.49,10.49,0,0,1,344.945,48c-1.008-2.6-3.775-5.767-5.979-6.2,1.261.909,3.29,3.372,3.581,5.123-1.7-1.879-1.828-2.328-4.556-3.847a14.435,14.435,0,0,1,3.088,4.522c-1.336-1.223-2.437-2.384-4.128-3.689.8,1,3.092,4.427,3.267,5.638-.557-.6-4.768-2.6-6.559-3.332,2.076,1.9,4.393,3.9,6.207,4.585.308.344-6.689-.4-15.408-5.377,6.223,5.911,10.966,5.215,16.731,7.749l.64,2.442A8.217,8.217,0,0,0,343.295,58.447Z" transform="translate(-321.71 -33.213)" fill="#241304" fill-rule="evenodd"/>
                  <g id="Grupo_1066051" data-name="Grupo 1066051" transform="translate(19.057 14.777)">
                    <path id="Trazado_776793" data-name="Trazado 776793" d="M339.172,46.518c2.4-1.52,3.146,1.5,3.18,3.425.024,1.325-1.037,1.482-1.175,2.566a2.443,2.443,0,0,1-1.741,2.231c-1.6.338-1.185-2.263-1.222-3.248C337.658,50,337.648,47.483,339.172,46.518Z" transform="translate(-337.871 -46.105)" fill="#e8a476" fill-rule="evenodd"/>
                    <path id="Trazado_776794" data-name="Trazado 776794" d="M338.717,50.188c.261-1.375.125-3.028,1.948-3.265C339.143,47.423,339.135,48.911,338.717,50.188Z" transform="translate(-337.688 -45.928)" fill="#db9669" fill-rule="evenodd"/>
                  </g>
                  <path id="Trazado_776795" data-name="Trazado 776795" d="M345.007,41.677c2.068,3.332,3.374,12.958-2.185,21.038-.49-1.134-2.249-3.938-3.135-5.583C345.082,49.251,344.086,52.2,345.007,41.677Z" transform="translate(-318.422 -32.284)" fill="#241304" fill-rule="evenodd"/>
                  <path id="Trazado_776796" data-name="Trazado 776796" d="M322.2,43.49c1.054-7.88,14.644-12.12,20.733-7.835a15.023,15.023,0,0,0-8.98-.715c2.032-.16,6.227.5,8.772,3.039a13.046,13.046,0,0,0-9.224-1.8c3.346.2,4.31.869,6.675,2.452a18.738,18.738,0,0,0-7.681-1.576,9.077,9.077,0,0,1,5.605,3.006c-3.157-1.431-3.52-2.2-7.051-1.972a21.722,21.722,0,0,1,6.025,3.278,41.222,41.222,0,0,0-7.31-1.93,24.864,24.864,0,0,1,5.157,3.138,23.834,23.834,0,0,0-6.991-1.943,26.759,26.759,0,0,1,7.419,4.274,48.707,48.707,0,0,0-8.02-3.094c2.065,1.51,3.436,2.325,5.524,3.829A46.336,46.336,0,0,1,324.9,42.3c1.806,1.328,7.136,5.019,9.23,6.166a67.255,67.255,0,0,1-10.011-5.145,14.02,14.02,0,0,0,5.35,4.386A20.074,20.074,0,0,1,322.2,43.49Z" transform="translate(-322.197 -33.952)" fill="#4a2b12" fill-rule="evenodd"/>
                  <path id="Trazado_776797" data-name="Trazado 776797" d="M326.362,46.027c14.721,12.237,11.875,41.992,13.909,53.892C354.554,87.3,353.578,60.452,348.8,43.3c-.91-.6-4.51,3.78-5.372,3.422l-1.989-.8-1.269,2.873-2.541-.764,1.509,1.463L333.289,48.4Z" transform="translate(-321.299 -31.945)" fill="#241304" fill-rule="evenodd"/>
                </g>
              </g>
            </g>
          </g>
        </g>
      </g>
    </g>
  </g>
</svg>
