<svg xmlns="http://www.w3.org/2000/svg" xmlns:xlink="http://www.w3.org/1999/xlink" width="177.002" height="258" viewBox="0 0 177.002 258">
  <defs>
    <linearGradient id="linear-gradient" x1="0.141" y1="0.865" x2="0.66" y2="0.025" gradientUnits="objectBoundingBox">
      <stop offset="0.012" stop-color="#db9d00"/>
      <stop offset="0.223" stop-color="#d99b00"/>
      <stop offset="0.299" stop-color="#d59400"/>
      <stop offset="0.354" stop-color="#ce8800"/>
      <stop offset="0.365" stop-color="#cc8500"/>
      <stop offset="0.371" stop-color="#d5990c"/>
      <stop offset="0.382" stop-color="#e2b31d"/>
      <stop offset="0.394" stop-color="#edc92c"/>
      <stop offset="0.408" stop-color="#f5da36"/>
      <stop offset="0.426" stop-color="#fae63e"/>
      <stop offset="0.45" stop-color="#feed42"/>
      <stop offset="0.519" stop-color="#ffef44"/>
    </linearGradient>
    <linearGradient id="linear-gradient-2" x1="0.159" y1="0.872" x2="0.653" y2="-0.02" xlink:href="#linear-gradient"/>
  </defs>
  <g id="Grupo_1065593" data-name="Grupo 1065593" transform="translate(-241.484 -15.383)">
    <path id="Trazado_774215" data-name="Trazado 774215" d="M241.484,92.637l92.587,53.425,57.542-33.61L299.026,59.026Z" transform="translate(0 124.746)" fill="#baefe4"/>
    <path id="Trazado_774216" data-name="Trazado 774216" d="M271.507,80.6l14.572-.255-7.258,2.7-13.643.645Z" transform="translate(67.728 185.688)" fill="#baefe4"/>
    <path id="Trazado_774217" data-name="Trazado 774217" d="M286.663,74.058l11.1-.814L293.8,76.181l-16.947.41Z" transform="translate(101.111 165.382)" fill="#baefe4"/>
    <g id="Grupo_1054532" data-name="Grupo 1054532" transform="translate(342.194 236.907)">
      <path id="Trazado_774218" data-name="Trazado 774218" d="M267.586,106.982l3.112,1.83,7.908.461,54.441-36.465-7.016-.01Z" transform="translate(-267.586 -72.798)" fill="#baefe4"/>
    </g>
    <g id="Grupo_1054533" data-name="Grupo 1054533" transform="translate(248.576 181.877)">
      <path id="Trazado_774219" data-name="Trazado 774219" d="M243.322,92.719l3.111,1.831,7.908.461,54.441-36.465-7.016-.01Z" transform="translate(-243.322 -58.535)" fill="#baefe4"/>
    </g>
    <g id="Grupo_1054534" data-name="Grupo 1054534" transform="translate(351.493 44.013)">
      <path id="Trazado_774220" data-name="Trazado 774220" d="M285.36,58.878s-3.345,3.523-3.8,3.974a36.123,36.123,0,0,1-5.328,2.62c-.274,0-4.067.725-4.429,1.266s-1.9,3.523-1.806,4.607a7.366,7.366,0,0,0,2.84,4.067c1.046.451,6.918-2.168,8.365-3.071s4.7-3.071,4.7-3.071,4.611-.633,6.505-1.084a2.654,2.654,0,0,0,2.261-2.894c0-1.173.478-5.6-.077-6.413S285.36,58.878,285.36,58.878Z" transform="translate(-269.996 79.275)" fill="#6b2912"/>
      <path id="Trazado_774221" data-name="Trazado 774221" d="M277.783,49.512s-2.388-.779-2.45,3.1-.644,26.85-.9,28.613-1.061,4.132-.517,5.286,8.064,3.253,9.688-.949a113.182,113.182,0,0,0,4.541-18.026c.675-4.607.27-15.862.27-15.862Z" transform="translate(-259.302 53.356)" fill="#323232"/>
      <path id="Trazado_774222" data-name="Trazado 774222" d="M286.029,59.781a54.822,54.822,0,0,0-2.446,5.78c-.085.814-5.7,8.222-6.6,8.947s-1.979,4.244-1.8,4.877,5.058,1.628,6.142,1.628,4.518.451,5.514-.725,2.983-3.253,3.434-5.147a22.846,22.846,0,0,1,2.527-5.965,8.708,8.708,0,0,0,1.991-3.341c.089-.907,0-5.695,0-5.695Z" transform="translate(-255.216 82.89)" fill="#6b2912"/>
      <path id="Trazado_774223" data-name="Trazado 774223" d="M275.262,38.4s-4.275,4.591-1.933,21.607,4.013,27.861,5.479,30.029,7.84,2.709,11.633,0,5.421-24.4,5.421-29,.1-20.33-3.608-23.312S275.262,38.4,275.262,38.4Z" transform="translate(-262.475 16.494)" fill="#404040"/>
      <path id="Trazado_774224" data-name="Trazado 774224" d="M275.313,44.876s2.415,10.568,4.009,13.188,5.255,4.919,5.255,4.919-1.5,18.211-1.674,25.168.177,10.213,4.7,10.842,9.85-.54,12.381-3.974,7.5-24.813,8.851-29.8,3.164-11.945,1.358-20.345S293.833,36.2,293.833,36.2Z" transform="translate(-254.798 15.485)" fill="#4d4d4d"/>
      <path id="Trazado_774225" data-name="Trazado 774225" d="M293.075,74.9s-3.43,11.112-4.063,13.1a6.573,6.573,0,0,1-1.7,2.894s-5.622,1.717-8.241-3.071c.54-6.96-.737-24.427-1.725-33.085,8.23-9.654,17.5-.945,17.5-.945s-.509,12.165-.687,14.422S293.075,74.9,293.075,74.9Z" transform="translate(-248.982 55.478)" fill="#4d4d4d"/>
      <path id="Trazado_774226" data-name="Trazado 774226" d="M314.822,36.722a27.73,27.73,0,0,0-10.39-7.319c-6.687-2.709-19.7-6.775-21.051-6.594s-6.8-.27-9.229,3.341-1.705,19.338-1.705,21.684-1.466,3.885-.1,12.74c.567,3.665,2.35,7.053,3.094,10.317a48.38,48.38,0,0,1,1.073,9.742c.093,1.9,3.8,10.842,19.7,12.015S318.8,80.09,317.534,78.2s-3.978-6.868-3.978-8.947,3.584-14.635,3.526-22.224S314.822,36.722,314.822,36.722Z" transform="translate(-264.945 -22.803)" fill="#f5947a"/>
    </g>
    <g id="Grupo_1054543" data-name="Grupo 1054543" transform="translate(252.275 77.242)">
      <g id="Grupo_1054538" data-name="Grupo 1054538" transform="translate(2.918 102.574)">
        <g id="Grupo_1054535" data-name="Grupo 1054535" transform="translate(0 34.184)">
          <path id="Trazado_774227" data-name="Trazado 774227" d="M245.037,69.633l3.111,1.812V68.691l-3.111-1.83Z" transform="translate(-245.037 -66.861)" fill="#5f5f5f"/>
        </g>
        <g id="Grupo_1054536" data-name="Grupo 1054536" transform="translate(3.111 1.83)">
          <path id="Trazado_774228" data-name="Trazado 774228" d="M245.843,95.412l58.446-34.165V58.475L245.843,92.659Z" transform="translate(-245.843 -58.475)" fill="#939394"/>
        </g>
        <g id="Grupo_1054537" data-name="Grupo 1054537">
          <path id="Trazado_774229" data-name="Trazado 774229" d="M245.037,92.184l3.111,1.83,58.446-34.184L303.483,58Z" transform="translate(-245.037 -58.001)" fill="#d9d9d9"/>
        </g>
      </g>
      <path id="Trazado_774230" data-name="Trazado 774230" d="M246.365,142.163l2.626-1.5V40.72l-2.626,1.5Z" transform="translate(-238.322 -4.82)" fill="#939394"/>
      <path id="Trazado_774231" data-name="Trazado 774231" d="M245.629,140.45l2.841,1.713V42.22l-2.841-1.5Z" transform="translate(-240.427 -4.82)" fill="#5f5f5f"/>
      <path id="Trazado_774232" data-name="Trazado 774232" d="M259.953,134.191l2.626-1.5V32.749l-2.626,1.5Z" transform="translate(-199.483 -27.606)" fill="#8d919c"/>
      <path id="Trazado_774233" data-name="Trazado 774233" d="M259.217,132.478l2.841,1.713V34.248l-2.841-1.5Z" transform="translate(-201.587 -27.606)" fill="#5f5f5f"/>
      <g id="Grupo_1054542" data-name="Grupo 1054542" transform="translate(97.827 157.373)">
        <g id="Grupo_1054539" data-name="Grupo 1054539" transform="translate(0 34.184)">
          <path id="Trazado_774234" data-name="Trazado 774234" d="M269.635,83.836l3.111,1.812V82.894l-3.111-1.83Z" transform="translate(-269.635 -81.063)" fill="#5f5f5f"/>
        </g>
        <g id="Grupo_1054540" data-name="Grupo 1054540" transform="translate(3.111 1.83)">
          <path id="Trazado_774235" data-name="Trazado 774235" d="M270.442,109.615,328.888,75.45V72.678l-58.446,34.184Z" transform="translate(-270.442 -72.678)" fill="#939394"/>
        </g>
        <g id="Grupo_1054541" data-name="Grupo 1054541">
          <path id="Trazado_774236" data-name="Trazado 774236" d="M269.635,106.387l3.111,1.83,58.446-34.184-3.112-1.83Z" transform="translate(-269.635 -72.204)" fill="#d9d9d9"/>
        </g>
      </g>
      <path id="Trazado_774237" data-name="Trazado 774237" d="M270.964,156.365l2.626-1.5V54.923l-2.626,1.5Z" transform="translate(-168.012 35.776)" fill="#939394"/>
      <path id="Trazado_774238" data-name="Trazado 774238" d="M270.228,154.653l2.841,1.713V56.423l-2.841-1.5Z" transform="translate(-170.116 35.776)" fill="#5f5f5f"/>
      <path id="Trazado_774239" data-name="Trazado 774239" d="M284.552,148.394l2.626-1.5V46.951l-2.626,1.5Z" transform="translate(-129.173 12.99)" fill="#939394"/>
      <path id="Trazado_774240" data-name="Trazado 774240" d="M283.816,146.681l2.841,1.713V48.451l-2.841-1.5Z" transform="translate(-131.277 12.99)" fill="#5f5f5f"/>
      <path id="Trazado_774241" data-name="Trazado 774241" d="M244.281,53.441l102.5,59.149V100.209L244.281,41.06Z" transform="translate(-244.279 -3.85)" fill="#78301d"/>
      <path id="Trazado_774242" data-name="Trazado 774242" d="M244.281,68.627l102.5,59.148,63.706-37.21-102.5-59.148Z" transform="translate(-244.281 -31.413)" fill="#ea9854"/>
      <path id="Trazado_774243" data-name="Trazado 774243" d="M244.281,68.626l102.507,56.367,59.7-34.148-98.5-59.428Z" transform="translate(-244.279 -31.416)" fill="#d16d45"/>
      <path id="Trazado_774244" data-name="Trazado 774244" d="M314.951,93.511l53.932-29.235L376,59.291l-66.831-1.33-12.323,5.856L307.587,53.57,332.606,43.4l7.717-4.267L248.018,54.888Z" transform="translate(-233.599 -9.355)" fill="#b04833"/>
      <path id="Trazado_774245" data-name="Trazado 774245" d="M265.444,68.78a5.206,5.206,0,0,1,1.783.162,10.277,10.277,0,0,0,5.6-1.019c.517.556,1.266.83,3.033.556s9.349-3.99,9.912-4.46,3.438-3.908,3.438-3.908l35.855-13.157-9.65-5.568-22.347,9.5L273.392,61.476s-5.325.243-5.745.849S263.8,67.8,265.444,68.78Z" transform="translate(-185.051 -2.917)" fill="#78301d"/>
      <path id="Trazado_774246" data-name="Trazado 774246" d="M270.849,96.337l63.7-37.21V46.746l-63.7,37.21Z" transform="translate(-168.341 12.403)" fill="#b04833"/>
    </g>
    <path id="Trazado_774247" data-name="Trazado 774247" d="M341.007,54.508,308.271,67.815l-24.056,22.94v42.714L247.779,111.35V69.73L303.3,33.755Z" transform="translate(17.993 52.512)" fill="url(#linear-gradient)"/>
    <path id="Trazado_774248" data-name="Trazado 774248" d="M353.843,57.676,292.2,91.088V133.8l-36.436-22.119V70.064l31.244-14.847L323.095,39.7Z" transform="translate(40.829 69.502)" fill="url(#linear-gradient-2)"/>
    <path id="Trazado_774249" data-name="Trazado 774249" d="M320.334,47.325,289.213,58.741s-2.863,3.434-3.434,3.885c-.575.482-8.137,4.186-9.912,4.46-1.779.3-2.531,0-3.044-.544a10.557,10.557,0,0,1-5.6,1.026,4.805,4.805,0,0,0-1.779-.181c-1.628-.965,1.779-5.845,2.2-6.447s5.753-.845,5.753-.845l19.674-10.6,17.957-7.624Z" transform="translate(67.227 75.705)" fill="#cd6300"/>
    <path id="Trazado_774250" data-name="Trazado 774250" d="M291.949,48.487c-1.416,3.584-3.04,7.408-3.465,8.253-.752,1.536-4.248,6.872-4.73,7.5-.509.633-7.08,10.186-7.08,11.39,0,1.235-1.594,3.527-1.594,3.527a7.607,7.607,0,0,0,1.354.359c.633.093.239,1.539.239,1.539s.544.509.664.6c.15.089-.664,1.566-.664,1.566s-.089.421-.177,1.053-2.531,2.168-2.531,2.168l-.513.9-2.08,1.026a2.59,2.59,0,0,1-1.567.089c-.54-.27-2.589-1.354-3.133-1.717a5.261,5.261,0,0,1-1.3-1.624,18.92,18.92,0,0,1-.421-2.442,12.217,12.217,0,0,1,0-3.164c.27-.9,5.425-6.355,6.235-7.713s3.314-12.019,4.522-17.081c1.235-5.062,3.4-6.509,4.337-7.863.965-1.354,2.168-5,3.827-8.045a47.99,47.99,0,0,0,2.408-5.6c1.208-3.013,2.2-5.965,2.2-5.965s1.9-.451,3.739-.752c-.123,3.8-.031,7.562,0,9.58.027.54.027.961.027,1.2C292.25,39.478,290.957,40.987,291.949,48.487Z" transform="translate(66.748 31.761)" fill="#fcd1b3"/>
    <path id="Trazado_774251" data-name="Trazado 774251" d="M280.788,23.181a6.678,6.678,0,0,0-2.226,1.987c-1.177,1.748-1.6,6.359-1.717,10.907-.123,3.8-.031,7.562,0,9.58-1.96-1.057-4.672-2.292-5.938-2.863-.421-.181-.691-.3-.691-.3s.181-1.235.992-4.429c.814-3.222,2.35-5.934,4.973-10.753C278.589,22.819,280.518,23.089,280.788,23.181Z" transform="translate(82.126 22.18)" fill="#e16d4e"/>
    <path id="Trazado_774252" data-name="Trazado 774252" d="M281.9,41.391l-2.665,1.671-17.291,4.384-1.957,1.212,17.486-2.874,4.427-2.541,1.491-2.033Z" transform="translate(52.883 73.824)" fill="#bababa"/>
    <path id="Trazado_774253" data-name="Trazado 774253" d="M272.174,44.12s1.4-.949,1.536-2.076a3,3,0,0,0-1.763-2.894c-.949-.224-3.164,1.81-4.02,3.391s-.451,2.346-.856,3.206a3.76,3.76,0,0,1-1.675,1.4l.861,2.527,2.89-3.025Z" transform="translate(68.346 67.886)" fill="#404040"/>
    <path id="Trazado_774254" data-name="Trazado 774254" d="M276.163,43.322l-15.451,12,5.105-2.151,12.965-9.905,1.084-.362,3.433.9.407-1.355L279.55,41.5Z" transform="translate(54.96 74.66)" fill="#bababa"/>
    <path id="Trazado_774255" data-name="Trazado 774255" d="M266.572,41.827l-.752,2.431,2.134.575s.575,2.192,3.152,1.366,2.608-3.9,2.269-4.618S266.572,41.827,266.572,41.827Z" transform="translate(69.561 74.13)" fill="#404040"/>
    <path id="Trazado_774256" data-name="Trazado 774256" d="M321.363,31.077A52.519,52.519,0,0,1,317.5,40.7c-2.238,3.932-5.826,9.418-6.98,11.656a57.641,57.641,0,0,1-3.592,6.3c-.405.34-4.811,4.773-9.823,10.417s-9.353,9.032-10.032,9.912a33.355,33.355,0,0,1-5.76,4.541,19.143,19.143,0,0,1-3.588.88,18.777,18.777,0,0,0-4,2.168,53.037,53.037,0,0,0-5.691,5.216,7.686,7.686,0,0,0,0,1.289s-3.117,2.574-3.117,2.913v.814a1.12,1.12,0,0,0,.475,1.289,2.586,2.586,0,0,0,1.829,0s.544.563,2.033.181a38.03,38.03,0,0,0,4.136-1.539,1.919,1.919,0,0,0,2.168,1.084c1.624-.27,8.334-3.793,9.349-4.132s2.847-2.438,3.322-3.658A6.512,6.512,0,0,1,289.242,88c.27-.27,12.188-8.133,18.231-13.689s7.385-8.021,9.349-9.565,7.863-10.56,10.032-13.882,7.655-13.848,7.859-16.749S321.363,31.077,321.363,31.077Z" transform="translate(66.839 44.858)" fill="#fcd1b3"/>
    <path id="Trazado_774257" data-name="Trazado 774257" d="M278.866,50.855s7.045-.675,10.433,0a21.159,21.159,0,0,1,5.761,2.033A57.884,57.884,0,0,0,297.471,39.4c.5-7.859-1.258-10.232-3.766-12.266s-8.673-.887-10.437,3.013-4.337,9.661-4.4,12.979S278.866,50.855,278.866,50.855Z" transform="translate(106.762 30.771)" fill="#e16d4e"/>
    <path id="Trazado_774258" data-name="Trazado 774258" d="M269.5,39.8a1.624,1.624,0,0,0-1.987.471,8.82,8.82,0,0,0-1.034,3.264s.039,3.388.536,3.658,2.122.5,2.257-.363a29.529,29.529,0,0,0,0-3.565l.59-2.531Z" transform="translate(71.43 69.332)" fill="#ffdec7"/>
    <path id="Trazado_774259" data-name="Trazado 774259" d="M289.854,20.873s-1.219,8.133,0,11.112a10.8,10.8,0,0,0,2.643,4.136s-3.592,7.115-6.235,8.334-6.706,1.084-7.929-1.019a50.89,50.89,0,0,1-3.793-11.043C274.406,30.7,289.854,20.873,289.854,20.873Z" transform="translate(94.485 15.692)" fill="#f6b486"/>
    <path id="Trazado_774260" data-name="Trazado 774260" d="M293.32,42.588a30.989,30.989,0,0,1-7.728,5.487c-3.793,1.628-5.351.409-6.031,0a22.655,22.655,0,0,1-4.2-6.37c-.405-1.559-1.894-6.841-2.168-8.265s-1.15-3.253-.88-6.575,1.829-7.115,2.847-7.859,17.008-3.8,19.38,0,3.117.949,3.658,4.676S295.354,38.251,293.32,42.588Z" transform="translate(87.971 5.023)" fill="#fcd1b3"/>
    <path id="Trazado_774261" data-name="Trazado 774261" d="M290.26,36.156s-3.932-5.556-5.961-5.487-5.421.61-8.133,0a7.261,7.261,0,0,1-3.685-1.7s-.448-3.318.567-5.216,5.216-9.349,16.128-8.265,10.776,7.994,11.521,11.046,2.778,13.485,4.541,16.6,1.655,5.047,3.1,6.081c.505.363,1.293,5.475,1.293,5.475s-4.148-3-5.34-2.612c-1.906.617-4.881.525-5.625-.27s-3.631-2.489-3.172-7.458-.641-6.312-.641-6.312l-1.269,1.231s.135,2.643.066,4.2a7.246,7.246,0,0,1-1.084,3.118,43.31,43.31,0,0,0,.409-5.691C292.837,39.412,291.684,39.208,290.26,36.156Z" transform="translate(88.319)" fill="#6a3120"/>
    <path id="Trazado_774262" data-name="Trazado 774262" d="M278.07,23.436s.764-2.168,2.415-2.508,1.651.475,1.582,2.508-2.3,4.4-2.3,4.4l-1.694-.88Z" transform="translate(104.576 15.636)" fill="#fcd1b3"/>
    <path id="Trazado_774263" data-name="Trazado 774263" d="M272.111,42.718l8.431,1.33L260.1,53.834Z" transform="translate(53.201 78.132)" fill="#ffef44"/>
  </g>
</svg>
