<svg xmlns="http://www.w3.org/2000/svg" xmlns:xlink="http://www.w3.org/1999/xlink" width="140" height="140" viewBox="0 0 140 140">
  <defs>
    <clipPath id="clip-path">
      <rect id="Rectángulo_373869" data-name="Rectángulo 373869" width="140" height="140" transform="translate(-11387 -3823)" fill="#f5947a"/>
    </clipPath>
  </defs>
  <g id="Enmascarar_grupo_130" data-name="Enmascarar grupo 130" transform="translate(11387 3823)" clip-path="url(#clip-path)">
    <g id="disenador-de-moda" transform="translate(-11387 -3823)">
      <g id="Grupo_1065648" data-name="Grupo 1065648">
        <g id="Grupo_1065647" data-name="Grupo 1065647">
          <path id="Trazado_775447" data-name="Trazado 775447" d="M76.3,2.187H67.29A8.716,8.716,0,0,0,58.574,10.9v.833h26.44V10.9A8.716,8.716,0,0,0,76.3,2.187Z" fill="#ffdc00"/>
          <path id="Trazado_775448" data-name="Trazado 775448" d="M59.592,6.815A8.676,8.676,0,0,0,58.574,10.9v.833h26.44V10.9A8.677,8.677,0,0,0,84,6.815Z" fill="#ffbf00"/>
          <path id="Trazado_775449" data-name="Trazado 775449" d="M84.989,11.736v8.477a4.944,4.944,0,0,0,3.172,4.616l14.16,5.435a10.09,10.09,0,0,1,4.491,15.419c-5.939,7.956-10.62,14.86-12.236,23.273C92,82.358,98.848,83.3,105.607,97.983a35.145,35.145,0,0,1,2.763,17.3,5.952,5.952,0,0,1-6,5.395H41.22a5.952,5.952,0,0,1-6-5.395,35.149,35.149,0,0,1,2.763-17.3c6.759-14.687,13.6-15.624,11.03-29.027-1.616-8.412-6.3-15.317-12.236-23.273a10.09,10.09,0,0,1,4.491-15.419l14.16-5.435A4.944,4.944,0,0,0,58.6,20.213V11.736H84.989Z" fill="#ff656b"/>
          <path id="Trazado_775450" data-name="Trazado 775450" d="M36.289,102.667a33.932,33.932,0,0,0-.944,4.922h72.9a33.969,33.969,0,0,0-.944-4.922Z" fill="#ff3e4c"/>
          <path id="Trazado_775451" data-name="Trazado 775451" d="M101.885,52.593H41.7c1.094,1.645,2.108,3.278,3.013,4.922H98.872C99.777,55.87,100.791,54.238,101.885,52.593Z" fill="#ff3e4c"/>
          <path id="Trazado_775452" data-name="Trazado 775452" d="M111.555,59.623a7.04,7.04,0,0,1-7.037,7.031l-9.412.011c-.2.753-.38,1.514-.529,2.29a21.53,21.53,0,0,0-.211,8.646l10.158-.012a17.965,17.965,0,0,0,0-35.93H10.676V52.593h93.848a7.039,7.039,0,0,1,7.031,7.031Z" fill="#ffdc00"/>
          <g id="Grupo_1065645" data-name="Grupo 1065645">
            <path id="Trazado_775453" data-name="Trazado 775453" d="M111.109,57.163a7.029,7.029,0,0,0-6.585-9.492H10.676v4.922h93.848A7.042,7.042,0,0,1,111.109,57.163Z" fill="#ffbf00"/>
            <path id="Trazado_775454" data-name="Trazado 775454" d="M104.524,72.667l-10.449.008a17.68,17.68,0,0,0,.291,4.925l10.158-.012a17.942,17.942,0,0,0,17.792-20.426,17.989,17.989,0,0,1-17.792,15.5Z" fill="#ffbf00"/>
          </g>
          <path id="Trazado_775455" data-name="Trazado 775455" d="M33.015,91.732a7.031,7.031,0,1,1,.006-14.061l16.188-.019a21.456,21.456,0,0,0-.2-8.7c-.145-.758-.322-1.5-.516-2.236l-15.479.018a17.965,17.965,0,1,0,0,35.93h96.309V91.732Z" fill="#ffdc00"/>
          <g id="Grupo_1065646" data-name="Grupo 1065646">
            <path id="Trazado_775456" data-name="Trazado 775456" d="M25.984,79.78a7,7,0,0,0,.445,2.461,7.045,7.045,0,0,1,6.591-4.57l16.188-.019a17.587,17.587,0,0,0,.306-4.919l-16.494.016A7.04,7.04,0,0,0,25.984,79.78Z" fill="#ffbf00"/>
            <path id="Trazado_775457" data-name="Trazado 775457" d="M15.223,82.241a17.942,17.942,0,0,0,17.792,20.426h96.309V97.745H33.015a17.989,17.989,0,0,1-17.792-15.5Z" fill="#ffbf00"/>
          </g>
        </g>
        <path id="Trazado_775458" data-name="Trazado 775458" d="M65.965,120.674H77.622v17.138H65.965Z" fill="#e6e2e6"/>
        <path id="Trazado_775459" data-name="Trazado 775459" d="M65.965,120.674H77.622V125.6H65.965Z" fill="#d8d1d7"/>
      </g>
      <path id="Trazado_775460" data-name="Trazado 775460" d="M129.44,89.72H103.518c-1-1.6-1.95-3-2.808-4.251a35.425,35.425,0,0,1-3.487-5.8l7.368-.008a20.053,20.053,0,0,0,6.314-39.086,12.215,12.215,0,0,0-7.749-12.291l-.036-.014L88.932,22.822a2.916,2.916,0,0,1-1.86-2.706V10.788A10.778,10.778,0,0,0,76.31,0H67.284A10.779,10.779,0,0,0,56.521,10.788v9.328a2.916,2.916,0,0,1-1.86,2.706l-3.954,1.517a2.055,2.055,0,1,0,1.472,3.837l3.954-1.517a7.049,7.049,0,0,0,4.5-6.543V13.677H82.964v6.438a7.049,7.049,0,0,0,4.5,6.543L101.63,32.1a8.168,8.168,0,0,1,5.2,7.58,20.164,20.164,0,0,0-2.242-.129H36.769a8.255,8.255,0,0,1,5.2-7.452l2.53-.971a2.055,2.055,0,1,0-1.472-3.837l-2.548.978-.036.014A12.368,12.368,0,0,0,32.66,39.548H10.56A2.055,2.055,0,0,0,8.505,41.6V52.559a2.055,2.055,0,0,0,2.055,2.055H40.539A48.226,48.226,0,0,1,45.675,64.66l-12.733.015a20.055,20.055,0,0,0,0,40.11h.7a40.9,40.9,0,0,0-.545,10.746,8.059,8.059,0,0,0,8.063,7.3H49.8a2.055,2.055,0,0,0,0-4.11H41.164A3.929,3.929,0,0,1,37.2,115.2a36.376,36.376,0,0,1,.641-10.418h67.918A36.368,36.368,0,0,1,106.4,115.2a3.929,3.929,0,0,1-3.967,3.515H58.017a2.055,2.055,0,0,0,0,4.11H63.9v15.117A2.055,2.055,0,0,0,65.957,140h11.68a2.055,2.055,0,0,0,2.055-2.055V122.828h22.738a8.059,8.059,0,0,0,8.063-7.3,40.9,40.9,0,0,0-.545-10.746H129.44a2.055,2.055,0,0,0,2.055-2.055V91.775a2.056,2.056,0,0,0-2.055-2.055ZM60.718,9.568a6.69,6.69,0,0,1,6.567-5.458H76.31a6.69,6.69,0,0,1,6.567,5.458ZM75.582,135.89H68.012V122.828h7.571Zm29.009-81.277a4.99,4.99,0,1,1-.009,9.979l-6.642.008a48.32,48.32,0,0,1,5.114-9.987ZM12.615,43.657h91.977a15.919,15.919,0,0,1,3.5.392h0a15.944,15.944,0,0,1-3.5,31.5l-8.4.01a22.418,22.418,0,0,1,.457-6.218c.04-.21.086-.419.131-.629l7.812-.009a9.1,9.1,0,1,0,.006-18.2H88.931V48.87a2.055,2.055,0,0,0-4.11,0V50.5H78.689V48.87a2.055,2.055,0,0,0-4.11,0V50.5H68.447V48.87a2.055,2.055,0,0,0-4.11,0V50.5H58.205V48.87a2.055,2.055,0,0,0-4.11,0V50.5H47.964V48.87a2.055,2.055,0,0,0-4.11,0V50.5H37.722V48.87a2.055,2.055,0,0,0-4.11,0V50.5H27.48V48.87a2.055,2.055,0,0,0-4.11,0V50.5H12.615ZM40.076,89.72H32.943a4.99,4.99,0,1,1,.009-9.979l13.394-.015a35.894,35.894,0,0,1-3.462,5.744C42.025,86.724,41.072,88.122,40.076,89.72Zm87.309,10.956H116.392V99.1a2.055,2.055,0,1,0-4.11,0v1.578H106.15V99.1a2.055,2.055,0,1,0-4.11,0v1.578H95.908V99.1a2.055,2.055,0,0,0-4.11,0v1.578H85.666V99.1a2.055,2.055,0,1,0-4.11,0v1.578H75.425V99.1a2.055,2.055,0,1,0-4.11,0v1.578H65.183V99.1a2.055,2.055,0,1,0-4.11,0v1.578H54.941V99.1a2.055,2.055,0,1,0-4.11,0v1.578H44.7V99.1a2.055,2.055,0,1,0-4.11,0v1.578H32.942a15.945,15.945,0,1,1,0-31.891l13.887-.016c.04.191.082.381.119.572a22.3,22.3,0,0,1,.451,6.274l-14.453.017a9.1,9.1,0,1,0-.006,18.2H79.5a2.055,2.055,0,0,0,0-4.11H44.968c.453-.68.893-1.324,1.308-1.932,3.808-5.571,6.559-9.6,4.711-19.223a42.335,42.335,0,0,0-5.609-13.952h52.84a42.335,42.335,0,0,0-5.609,13.952c-1.849,9.626.9,13.651,4.71,19.223.416.608.855,1.252,1.309,1.932H87.72a2.055,2.055,0,1,0,0,4.11h39.665v6.846Z"/>
    </g>
  </g>
</svg>
