<svg xmlns="http://www.w3.org/2000/svg" width="28" height="35.39" viewBox="0 0 28 35.39">
  <g id="Grupo_1066177" data-name="Grupo 1066177" transform="translate(-180 -5231.61)">
    <g id="Grupo_1066176" data-name="Grupo 1066176">
      <g id="Grupo_1066175" data-name="Grupo 1066175">
        <g id="Grupo_1064160" data-name="Grupo 1064160" transform="translate(0 98)">
          <path id="Rectángulo_361943" data-name="Rectángulo 361943" d="M26,0h2a0,0,0,0,1,0,0V28a0,0,0,0,1,0,0H0a0,0,0,0,1,0,0V26A26,26,0,0,1,26,0Z" transform="translate(180 5141)" fill="#baefe4"/>
          <path id="Trazado_774297" data-name="Trazado 774297" d="M-73.831,869.256a13.089,13.089,0,0,0-2.757-4.466c-1.306-1.184-3.4-1.715-4.845-.711-.973.674-1.441,1.854-2.212,2.751a21.4,21.4,0,0,1-2.3,1.99,3.952,3.952,0,0,0-1.526,2.548c-.118,1.658,1.407,2.951,2.888,3.706a16.4,16.4,0,0,0,8.291,1.751c1.447-.079,5.419-.65,5.481-2.71.024-.815-1-1.453-1.45-2.036A14.338,14.338,0,0,1-73.831,869.256Z" transform="translate(278.699 4273.8)" fill="#f5947a"/>
          <path id="Trazado_774296" data-name="Trazado 774296" d="M-10.777,398.155c-.4,1.988-.134,4.115-.682,6.082a15.043,15.043,0,0,1-.8,2.057l-.434.975a17.749,17.749,0,0,1,1.3-7.974,12.79,12.79,0,0,1,.451-1.235l-.424.7a13.3,13.3,0,0,1-1.574,2.227,21.372,21.372,0,0,1-1.823,1.6,6.244,6.244,0,0,0-1.576,1.821,2.776,2.776,0,0,1,.344-1.617,8.27,8.27,0,0,1,.968-1.368,20.291,20.291,0,0,1,2.241-2.463c.467-.419.979-.786,1.472-1.175.218-.172.524-.378.788-.607a13.338,13.338,0,0,1,1.642-2.465,10.257,10.257,0,0,0-2.484,1.43,8.878,8.878,0,0,1-1.553,1.282,6.411,6.411,0,0,1-2.283.446,2.906,2.906,0,0,0-2.079.923,4.891,4.891,0,0,1,1.494-1.807,14.612,14.612,0,0,1,2.01-1.247,7.9,7.9,0,0,1,3.5-1.246,11.3,11.3,0,0,0,1.356-.008,1.821,1.821,0,0,0,.3-.07q.384-.431.8-.827.311-.293.628-.57a6.859,6.859,0,0,1-2.858.559A11.891,11.891,0,0,1-13.1,393.1a9.241,9.241,0,0,0-1.353-.317,2.346,2.346,0,0,0-1.356.2,7.7,7.7,0,0,1,1.35-1.1,2.588,2.588,0,0,1,1.669-.393,15.626,15.626,0,0,1,1.546.521,17.505,17.505,0,0,0,1.945.172c.53.075,1.037.267,1.565.357a2.881,2.881,0,0,0,.609.043,4.686,4.686,0,0,1,.536-.08l.016,0a12.944,12.944,0,0,1,3.1-1.875.748.748,0,0,1,.278-.075.264.264,0,0,1,.242.13.268.268,0,0,1-.073.3.814.814,0,0,1-.282.156,14.307,14.307,0,0,0-2.663,1.4c.142.134.182.681.242.842a5.459,5.459,0,0,0,.577,1.088A8,8,0,0,1-4,396.5a4.075,4.075,0,0,1,.04,1.909,12.174,12.174,0,0,1-.562,1.842,1.707,1.707,0,0,0-.219-1.29,8.322,8.322,0,0,1-.627-1.187c-.215-.639-.114-1.356-.353-1.987-.158-.419-.456-.772-.635-1.183a2.3,2.3,0,0,1-.159-1.249,2.216,2.216,0,0,1,.154-.564q-.191.136-.377.279a9.989,9.989,0,0,0-1.113,1,1.375,1.375,0,0,0,.04,1.022c.209.454.654.764.872,1.214a7.277,7.277,0,0,1,.307,1.356,12.878,12.878,0,0,1,.469,1.383c.184,1.258-1.04,2.39-.9,3.653a37.217,37.217,0,0,0-.954-4.626c-.134-.463-.283-.921-.416-1.383a3.577,3.577,0,0,1-.18-1.761c-.289.352-.563.714-.824,1.075q-.26.36-.5.733a1.514,1.514,0,0,0-.044.361,3.685,3.685,0,0,0,.128.839,4.489,4.489,0,0,0,.5,1.41c.2.323.489.59.677.922a3.3,3.3,0,0,1,.133,2.354A7.334,7.334,0,0,0-8.9,405a9.477,9.477,0,0,1-.981-3.563q-.19-1.412-.353-2.827a5.059,5.059,0,0,1-.047-1.05,2.389,2.389,0,0,1,.066-.379q-.206.338-.4.685C-10.667,397.96-10.722,398.057-10.777,398.155Z" transform="translate(271.998 4750.575) rotate(9)" fill="#025157"/>
          <text id="A" transform="translate(188 5161)" fill="#12263f" font-size="18" font-family="Roboto-Black, Roboto" font-weight="800"><tspan x="0" y="0">A</tspan></text>
        </g>
      </g>
    </g>
  </g>
</svg>
