<svg xmlns="http://www.w3.org/2000/svg" width="183.952" height="264.673" viewBox="0 0 183.952 264.673">
  <g id="Grupo_1065716" data-name="Grupo 1065716" transform="translate(-167.742 -16.06)">
    <path id="Trazado_775665" data-name="Trazado 775665" d="M167.742,93.771l96.223,55.523,59.8-34.93L227.544,58.841Z" transform="translate(0 128.763)" fill="#baefe4"/>
    <path id="Trazado_775666" data-name="Trazado 775666" d="M213.306,73.9l11.531-.846-4.109,3.053-17.612.426Z" transform="translate(106.471 171.553)" fill="#baefe4"/>
    <path id="Trazado_775667" data-name="Trazado 775667" d="M198.342,80.281l15.144-.265-7.542,2.809-14.179.67Z" transform="translate(72.304 192.496)" fill="#baefe4"/>
    <g id="Grupo_1065698" data-name="Grupo 1065698" transform="translate(272.408 242.825)">
      <path id="Trazado_775668" data-name="Trazado 775668" d="M193.844,108.139l3.234,1.9,8.219.48,56.579-37.9-7.291-.011Z" transform="translate(-193.844 -72.612)" fill="#baefe4"/>
    </g>
    <g id="Grupo_1065699" data-name="Grupo 1065699" transform="translate(175.113 185.634)">
      <path id="Trazado_775669" data-name="Trazado 775669" d="M169.58,93.876l3.234,1.9,8.219.48,56.578-37.9-7.291-.011Z" transform="translate(-169.58 -58.35)" fill="#baefe4"/>
    </g>
    <g id="Grupo_1065701" data-name="Grupo 1065701" transform="translate(269.478 16.06)">
      <g id="Grupo_1065700" data-name="Grupo 1065700">
        <path id="Trazado_775670" data-name="Trazado 775670" d="M211.982,58.205s-2.3,2.442-3.617,3.521a25.251,25.251,0,0,1-5.963,2.863c-.986.281-5.213,2.346-5.634,3.38a12.313,12.313,0,0,0,0,6.011c.561,1.688,3.709,1.548,4.647,1.311s5.117-2.675,5.4-2.767,3.521-2.534,5.914-2.723,6.488-.285,8.176-1.644.886-7.089.886-7.089l-.188-4.086Z" transform="translate(-183.231 107.107)" fill="#6b2912"/>
        <path id="Trazado_775671" data-name="Trazado 775671" d="M205.482,47.78l-1.1,6.055s-1.572,17.675-2.346,22.395-1.973,10.706-1.973,11.761,2.819,3.1,5.914,2.815,4.018-1.828,5.213-3.521,3.946-14.552,5.353-17.98,3.525-17.515,3.1-20.19S205.482,47.78,205.482,47.78Z" transform="translate(-172.204 78.401)" fill="#323232"/>
        <path id="Trazado_775672" data-name="Trazado 775672" d="M215.1,58.2s-.609,5.353-1.877,6.243-8.874,8.4-9.672,9.11-4.415,2.534-2.771,4.6,4.319,2.254,5.353,2.442,5.87.188,6.055.281,4.932-3.709,5.778-5.209,2.626-4.367,3.894-4.744S225,69.327,225,68.1s-.189-7.182-.189-7.462S215.1,58.2,215.1,58.2Z" transform="translate(-171.324 110.773)" fill="#6b2912"/>
        <path id="Trazado_775673" data-name="Trazado 775673" d="M201.519,42.282a78.944,78.944,0,0,0-.938,19.436c.75,11.364,2.253,22.68,2.815,25.707s9.014,3.874,12.491.962,7.041-24.508,7.041-24.508,2.346-18.405,0-23.943S204.808,35.145,201.519,42.282Z" transform="translate(-171.22 44.81)" fill="#404040"/>
        <path id="Trazado_775674" data-name="Trazado 775674" d="M202.684,44.21s1.127,7.791,5.165,12.206,4.88,5.614,4.88,5.614-2.157,23.963-3.38,28.755,1.9,11.079,7.711,11.079,10.321-7.23,11.869-11.364,3.24-12.017,6.712-18.87,6.011-17.844,5.165-23.57a23.8,23.8,0,0,0-6.183-12.7C232.26,32.942,202.684,44.21,202.684,44.21Z" transform="translate(-164.309 41.006)" fill="#4d4d4d"/>
        <path id="Trazado_775675" data-name="Trazado 775675" d="M205.66,51s.044,13.605,0,16.986-1.828,19.247-1.828,19.247,1.62,3.1,4.519,3.665,6.56-2.069,6.56-2.069,5.353-15.963,6.576-19.247S224.1,52.424,224.017,51,208.992,47.729,205.66,51Z" transform="translate(-160.857 83.616)" fill="#4d4d4d"/>
        <path id="Trazado_775676" data-name="Trazado 775676" d="M207.8,26.649a22.5,22.5,0,0,0-4.294,7.4c-1.764,4.788-4.511,9.01-5.987,10.422a31.694,31.694,0,0,0-3.031,3.521s-4.154,3.873,1.973,7.182,5.534,5.072,8.473.986,5.333-9.295,6.247-10.209,7.675-11.34,8.1-12.888-.212-6.692-2.466-7.466S207.8,26.649,207.8,26.649Z" transform="translate(-193.114 12.061)" fill="#f6b486"/>
        <path id="Trazado_775677" data-name="Trazado 775677" d="M216.045,22.588s-8.453.353-12.607,4.439S197.1,36.6,196.112,38.295c-.509.874,2.867,1.684,5.987,3.733,2.919,1.917,5.538,5.125,6.833,4.647C211.606,45.689,216.045,22.588,216.045,22.588Z" transform="translate(-184.243 3.587)" fill="#022326"/>
        <path id="Trazado_775678" data-name="Trazado 775678" d="M212.409,22.3s-9.956,2.743-12.3,10.153-.846,24.183-.281,26.172,4.543,9.311,5.794,15.322.309,9.764.589,10.422,3.942,5.822,16.055,6.291,15.775-1.877,21.224-6.011,2.157-13.144,2.157-13.144a19.717,19.717,0,0,1-3.38-10.422c-.188-6.2.06-19.484-.974-21.834s-12.435-11.777-19.111-13.938S212.409,22.3,212.409,22.3Z" transform="translate(-175.911 2.723)" fill="#025157"/>
        <path id="Trazado_775679" data-name="Trazado 775679" d="M200.67,34.109s3.757,5.261,3.661,9.014,2.723,4.976,7.326,3.288,6.572-2.165,7.979-5.778-2.983-8.673-3-12.715-1.415-7.049-2.731-6.392S200.67,34.109,200.67,34.109Z" transform="translate(-170.371 0.118)" fill="#f6b486"/>
        <path id="Trazado_775680" data-name="Trazado 775680" d="M212.722,31.018a101.45,101.45,0,0,1-2.855,9.86c-.962,2.113-6.1,13.277-6.352,15.478s8.465,8.557,8.485,8.493a44.51,44.51,0,0,0,4.86-6.5c1.62-2.959,6.267-10.987,6.973-13.874s2.606-9.295,2.606-9.295Z" transform="translate(-161.821 28.96)" fill="#fcd1b3"/>
        <path id="Trazado_775681" data-name="Trazado 775681" d="M205.488,19.243a25.265,25.265,0,0,1,8.954-1.7c2.514-.112,6.3-.674,8.473.918a4.509,4.509,0,0,1,1.135,2.246,38.684,38.684,0,0,1,1.708,9.676c.1,1.648.176,3.3.18,4.952a8.46,8.46,0,0,1-.842,3.2c-1.436,3.958-3.966,9.311-8.248,10.843-3.942,1.407-7.418,2.534-10.8,1.5s-4.788-5.538-6.1-11.456-2.161-4.038-1.784-9.483S198.631,22.246,205.488,19.243Z" transform="translate(-178.192 -12.151)" fill="#fcd1b3"/>
        <path id="Trazado_775682" data-name="Trazado 775682" d="M224.481,19.487s-3.144-2.767-9.343-3.332-9.062,1.407-12.018,4.788S198,27.8,198,30.1a16.456,16.456,0,0,0,.377,3.753,4.98,4.98,0,0,1,4.415-.373,12.064,12.064,0,0,0,7.6.8c2.021-.658,7.089,2.394,7.089,2.394a13.191,13.191,0,0,1,2.209,4.7c.373,2.254,1.844,7.386,5.618,1.087s4.335-12.731,3.4-15.454A28.222,28.222,0,0,0,224.481,19.487Z" transform="translate(-178.407 -16.06)" fill="#6a3120"/>
      </g>
      <path id="Trazado_775683" data-name="Trazado 775683" d="M203.217,30.512s3.4,9.419,3.4,11.392-.032,8.092.754,9.295,13.064-6,16.9-5.469c.5.072,3.372,3.164,3.372,3.164a33.633,33.633,0,0,0-3.837-7.947c-2.819-4.395-5.445-6.733-7.514-11.9s-3.942-10.137-3.942-10.137Z" transform="translate(-162.705 -7.489)" fill="#6a3120"/>
      <path id="Trazado_775684" data-name="Trazado 775684" d="M211.512,27.5s-5.758,6.087-5.758,11.075S205.1,49.862,205.1,50.7s7.51-.658,10.141-.561,6.761,1.127,6.384,2.626,3.42-5.83,2.763-13.529S225.775,22.246,211.512,27.5Z" transform="translate(-157.049 13.753)" fill="#022326"/>
    </g>
    <g id="Grupo_1065714" data-name="Grupo 1065714" transform="translate(178.958 76.89)">
      <g id="Grupo_1065705" data-name="Grupo 1065705" transform="translate(3.033 106.602)">
        <g id="Grupo_1065702" data-name="Grupo 1065702" transform="translate(0 35.526)">
          <path id="Trazado_775685" data-name="Trazado 775685" d="M171.3,69.556l3.234,1.883V68.578l-3.234-1.9Z" transform="translate(-171.295 -66.675)" fill="#5f5f5f"/>
        </g>
        <g id="Grupo_1065703" data-name="Grupo 1065703" transform="translate(3.234 1.902)">
          <path id="Trazado_775686" data-name="Trazado 775686" d="M172.1,96.678l60.741-35.507V58.29L172.1,93.816Z" transform="translate(-172.102 -58.29)" fill="#939394"/>
        </g>
        <g id="Grupo_1065704" data-name="Grupo 1065704">
          <path id="Trazado_775687" data-name="Trazado 775687" d="M171.3,93.341l3.234,1.9L235.27,59.718l-3.234-1.9Z" transform="translate(-171.295 -57.816)" fill="#d9d9d9"/>
        </g>
      </g>
      <path id="Trazado_775688" data-name="Trazado 775688" d="M172.624,145.961l2.729-1.557V40.535l-2.729,1.558Z" transform="translate(-164.265 -3.225)" fill="#939394"/>
      <path id="Trazado_775689" data-name="Trazado 775689" d="M171.888,144.181l2.952,1.78V42.093l-2.952-1.558Z" transform="translate(-166.481 -3.225)" fill="#5f5f5f"/>
      <path id="Trazado_775690" data-name="Trazado 775690" d="M186.212,137.989l2.729-1.557V32.563l-2.729,1.558Z" transform="translate(-123.367 -27.219)" fill="#8d919c"/>
      <path id="Trazado_775691" data-name="Trazado 775691" d="M185.476,136.209l2.952,1.78V34.121l-2.952-1.558Z" transform="translate(-125.583 -27.219)" fill="#5f5f5f"/>
      <g id="Grupo_1065709" data-name="Grupo 1065709" transform="translate(101.669 163.553)">
        <g id="Grupo_1065706" data-name="Grupo 1065706" transform="translate(0 35.526)">
          <path id="Trazado_775692" data-name="Trazado 775692" d="M195.894,83.759l3.234,1.883V82.781l-3.234-1.9Z" transform="translate(-195.894 -80.878)" fill="#5f5f5f"/>
        </g>
        <g id="Grupo_1065707" data-name="Grupo 1065707" transform="translate(3.234 1.902)">
          <path id="Trazado_775693" data-name="Trazado 775693" d="M196.7,110.881l60.741-35.507V72.493L196.7,108.019Z" transform="translate(-196.7 -72.493)" fill="#939394"/>
        </g>
        <g id="Grupo_1065708" data-name="Grupo 1065708">
          <path id="Trazado_775694" data-name="Trazado 775694" d="M195.894,107.544l3.234,1.9,60.741-35.526-3.234-1.9Z" transform="translate(-195.894 -72.018)" fill="#d9d9d9"/>
        </g>
      </g>
      <path id="Trazado_775695" data-name="Trazado 775695" d="M197.222,160.163l2.729-1.557V54.738L197.222,56.3Z" transform="translate(-90.227 39.523)" fill="#939394"/>
      <path id="Trazado_775696" data-name="Trazado 775696" d="M196.486,158.384l2.952,1.78V56.3l-2.952-1.559Z" transform="translate(-92.443 39.523)" fill="#5f5f5f"/>
      <path id="Trazado_775697" data-name="Trazado 775697" d="M210.81,152.192l2.729-1.557V46.766l-2.729,1.559Z" transform="translate(-49.329 15.529)" fill="#939394"/>
      <path id="Trazado_775698" data-name="Trazado 775698" d="M210.074,150.412l2.952,1.78V48.325l-2.952-1.559Z" transform="translate(-51.545 15.529)" fill="#5f5f5f"/>
      <path id="Trazado_775699" data-name="Trazado 775699" d="M170.54,53.741l106.529,61.471V102.346L170.54,40.875Z" transform="translate(-170.537 -2.203)" fill="#78301d"/>
      <path id="Trazado_775700" data-name="Trazado 775700" d="M170.539,69.9l106.53,61.47L343.276,92.7,236.747,31.231Z" transform="translate(-170.539 -31.228)" fill="#ea9854"/>
      <path id="Trazado_775701" data-name="Trazado 775701" d="M170.54,69.9l106.532,58.58,62.042-35.489L236.747,31.23Z" transform="translate(-170.537 -31.23)" fill="#d16d45"/>
      <path id="Trazado_775702" data-name="Trazado 775702" d="M331.936,89.225l-61.493,35.944-98.97-57.11,61.492-35.944L265.84,51.089l8.955,5.167L300.657,71.19l9.988,5.761Z" transform="translate(-167.73 -28.568)" fill="#3e607a"/>
      <g id="Grupo_1065713" data-name="Grupo 1065713" transform="translate(13.044 9.097)">
        <g id="Grupo_1065710" data-name="Grupo 1065710">
          <path id="Trazado_775703" data-name="Trazado 775703" d="M269.647,111l-.2-.1L173.792,62.983,224.861,33.5l.217.144,83.1,55.8-16.95,9.788-67.277-38.37-1.544.89,67.044,37.813ZM175.536,62.931l94.083,47.128,18.169-10.486L220.747,61.76l3.2-1.853,67.277,38.37,15.39-8.89L224.829,34.469Z" transform="translate(-173.792 -33.499)" fill="#fff"/>
        </g>
        <g id="Grupo_1065711" data-name="Grupo 1065711" transform="translate(14.957 23.594)">
          <path id="Trazado_775704" data-name="Trazado 775704" d="M189.387,54.636l-11.865-6.849,14.556-8.4,11.641,6.72-2.783,7.005Zm-10.213-6.849,10.385,5.991,10.786-1.428,2.338-5.89-10.606-6.123Z" transform="translate(-177.522 -39.383)" fill="#fff"/>
        </g>
        <g id="Grupo_1065712" data-name="Grupo 1065712" transform="translate(41.149 8.473)">
          <path id="Trazado_775705" data-name="Trazado 775705" d="M195.919,50.865l-11.865-6.849,14.552-8.4,11.641,6.72-2.783,7Zm-10.213-6.849,10.381,5.995,10.786-1.432,2.342-5.89-10.61-6.123Z" transform="translate(-184.054 -35.612)" fill="#fff"/>
        </g>
      </g>
      <path id="Trazado_775706" data-name="Trazado 775706" d="M197.107,98.1l66.2-38.671V46.561l-66.2,38.671Z" transform="translate(-90.574 14.911)" fill="#b04833"/>
    </g>
    <path id="Trazado_775707" data-name="Trazado 775707" d="M263.175,86.536h-4.55l-80.9-43.868,4.252-3.035,7.028-.442Z" transform="translate(30.057 69.622)" fill="#073347"/>
    <path id="Trazado_775708" data-name="Trazado 775708" d="M218.189,47.554s-1.881.626-4.511,1.5L203.689,43.3l3.821-1.913Z" transform="translate(108.194 76.217)" fill="#78301d"/>
    <path id="Trazado_775709" data-name="Trazado 775709" d="M237.931,47.622c-4.415,1.468-10.895,3.725-13.649,4.944-4.355,1.973-8.8,6.825-13.369,9.8-4.571,3.007-10.3,1.881-10.3,1.881l-4.98-2.727,16.188-11.677,16.124-7.984Z" transform="translate(83.941 77.653)" fill="#073347"/>
    <path id="Trazado_775710" data-name="Trazado 775710" d="M208,41.473s-1.72.782-4.038,1.784l-8.954-5.165c2.378-1,4.226-1.66,4.226-1.66Z" transform="translate(82.063 61.318)" fill="#78301d"/>
    <path id="Trazado_775711" data-name="Trazado 775711" d="M221.178,42.012c-3.352,1.44-7.956,3.412-10.333,4.226-4.038,1.411-9.018,14.4-9.018,14.4l-7.859,4.667s-4.194-2.037-4.663-3.509c-.5-1.44,10.177-16.436,13.18-19.536,1.784-1.849,6.323-3.978,9.74-5.417Z" transform="translate(64.846 62.564)" fill="#073347"/>
    <path id="Trazado_775712" data-name="Trazado 775712" d="M266.2,82.851l-6.215,3.521-81.194-44.3,5.921-3.7Z" transform="translate(33.249 67.179)" fill="#fccc45"/>
    <path id="Trazado_775713" data-name="Trazado 775713" d="M259.983,83.6V86.2l-81.194-44.3V39.3Z" transform="translate(33.249 69.954)" fill="#a64900"/>
    <path id="Trazado_775714" data-name="Trazado 775714" d="M205.252,49.471v2.606L199.038,55.6V52.992Z" transform="translate(94.194 100.56)" fill="#ce7400"/>
    <g id="Grupo_1065715" data-name="Grupo 1065715" transform="translate(250.425 77.407)">
      <path id="Trazado_775715" data-name="Trazado 775715" d="M215.556,35.344s-4.639-4.639-7.743-3.906c-3.737,5.6-6.344,14.82-7.891,20.6s-3.052,10.891-3.665,11.408a7.375,7.375,0,0,1-2.346,1.315c-.609.14-1.925.469-2.394.609a3.737,3.737,0,0,0-1.456,1.784c-.237.609-1.6,5.4-1.692,5.963a7.47,7.47,0,0,0,.706,2.3l1.877,1.175a13.132,13.132,0,0,0,.61,1.456.668.668,0,0,0,.517.281s.469,1.881,1.5,2.069,1.688-.986,1.688-.986l.8-1.363a43.487,43.487,0,0,0,3.946-3.9c1.5-1.784,2.161-1.969,2.346-2.911a43.592,43.592,0,0,1,1.552-5.674c.75-2.025,3-7.282,3.849-9.018s10.522-15.129,10.4-16.909S215.556,35.344,215.556,35.344Z" transform="translate(-188.362 -31.359)" fill="#fcd1b3"/>
      <path id="Trazado_775716" data-name="Trazado 775716" d="M196.848,39.817s-3.424.425-3.8,1.083-2.911,4.744-3.052,5.658-.706,6.311-.706,6.311.469,2.63,1.784,2.49,1.873-2.2,1.873-2.2l-.136-4.7s2.021-4.134,2.538-4.459S198.961,40.663,196.848,39.817Z" transform="translate(-185.573 -5.903)" fill="#ffdec7"/>
      <path id="Trazado_775717" data-name="Trazado 775717" d="M194.629,43.321l.786,2.049s3.469,12.559-1.544,10.313c-1.079-.485-4.287-10.566-4.287-12.154C189.585,41.007,192.981,37.3,194.629,43.321Z" transform="translate(-184.682 -5.153)" fill="#eff2ef"/>
      <path id="Trazado_775718" data-name="Trazado 775718" d="M239.216,37.592c-.373.565-10.983,13.144-17.371,18.5s-8.4,7.23-9.483,7.559-4.976.894-7,1.363-6.945,3.613-7.651,3.99a43.489,43.489,0,0,0-4.7,3.144,17.568,17.568,0,0,0-1.5,2.113,6.4,6.4,0,0,0,0,1.315c.048.425.329,1.456.986,1.74a2.984,2.984,0,0,0,1.644,0s-.281.938.894,1.311a3.182,3.182,0,0,0,2.205-.14l1.127-.421s-.281,1.644.75,1.828a11.659,11.659,0,0,0,3.192-.281l6.2-2.582a13.338,13.338,0,0,0,5.2-1.315,18.423,18.423,0,0,0,4.371-3.894,44.121,44.121,0,0,1,10.566-7.984c6.712-3.709,17.792-16.1,18.874-16.809s2.017-6.452.89-8.12S239.593,37.031,239.216,37.592Z" transform="translate(-178.973 -13.442)" fill="#ffdec7"/>
    </g>
    <path id="Trazado_775719" data-name="Trazado 775719" d="M194.289,43.734l-.16.257c-.509.818-2.077,3.34-2.47,3.966-.469.754-1.644,2.205-1.644,2.723s-.233,2.209,1.127,1.5,5.734-5.914,6.155-6.384a3.59,3.59,0,0,0,.6-2.446,24.76,24.76,0,0,1,.016-2.675S196.121,37.723,194.289,43.734Z" transform="translate(66.99 71.91)" fill="#ffdec7"/>
  </g>
</svg>
