<svg xmlns="http://www.w3.org/2000/svg" xmlns:xlink="http://www.w3.org/1999/xlink" width="111" height="107.243" viewBox="0 0 111 107.243">
  <defs>
    <clipPath id="clip-path">
      <rect id="Rectángulo_374083" data-name="Rectángulo 374083" width="85" height="85" transform="translate(206 1040)" fill="#fff" stroke="#707070" stroke-width="1"/>
    </clipPath>
  </defs>
  <g id="Grupo_1065652" data-name="Grupo 1065652" transform="translate(-180 -1040)">
    <path id="Trazado_771771" data-name="Trazado 771771" d="M3.029,901.384c-4.854-10.632-9.623-21.763-18.282-29.613S-37.772,860.4-47.38,867.054c-6.449,4.467-9.558,12.294-14.67,18.244-4.391,5.111-10.2,8.763-15.273,13.2s-9.639,10.174-10.116,16.9c-.78,11,9.328,19.569,19.151,24.571a108.718,108.718,0,0,0,54.973,11.61c9.6-.525,35.933-4.308,36.339-17.97.161-5.407-6.641-9.634-9.612-13.5C9.069,914.456,5.973,907.832,3.029,901.384Z" transform="translate(267.481 195.512)" fill="#025157"/>
    <g id="Grupo_1054388" data-name="Grupo 1054388" transform="translate(-1477.32 1041.764)">
      <path id="Trazado_771758" data-name="Trazado 771758" d="M1719.933,176.872c-.182.885-.264,2.007.516,2.607a2.69,2.69,0,0,0,2.063.7c1.4-.258,1.346-1.325,1.433-2.566a4.56,4.56,0,0,0-.191-1.961,1.924,1.924,0,0,0-1.413-1.263,1.886,1.886,0,0,0-1.675.738A4,4,0,0,0,1719.933,176.872Z" transform="translate(-41.887 -116.568)" fill="#f5947a"/>
      <path id="Trazado_771759" data-name="Trazado 771759" d="M1693.235,139.81a1.538,1.538,0,0,0-.07-.525,1.6,1.6,0,0,0-.221-.369l-.538-.74a2.393,2.393,0,0,0-.7-.718,1.544,1.544,0,0,0-1.292-.05,3.429,3.429,0,0,0-1.1.744,4.094,4.094,0,0,0-.978,1.26c-.875,1.919.766,4.314,2.5,5.127C1693.355,145.713,1693.253,141.144,1693.235,139.81Z" transform="translate(-16.752 -87.181)" fill="#f5947a"/>
      <path id="Trazado_771760" data-name="Trazado 771760" d="M1672.416,97.065a1.971,1.971,0,0,0-.572-.742,9.418,9.418,0,0,0-3.04-2.169,1.5,1.5,0,0,0-1.11-.061,1.646,1.646,0,0,0-.724,1.5c-.083,1.526.495,3.719,2.291,4.036C1670.473,99.846,1672.925,98.534,1672.416,97.065Z" transform="translate(0 -52.875)" fill="#f5947a"/>
      <path id="Trazado_771761" data-name="Trazado 771761" d="M1690.61,45.548c-.439-.847-1.187-1.7-2.14-1.654a3.006,3.006,0,0,0-1.638.819,4.065,4.065,0,0,0-1.377,1.552,3.483,3.483,0,0,0-.2,1.04A3.3,3.3,0,0,0,1689.113,51C1691.53,50.505,1691.491,47.247,1690.61,45.548Z" transform="translate(-14.492 -13.152)" fill="#f5947a"/>
      <path id="Trazado_771762" data-name="Trazado 771762" d="M1733.282,30.8a3.441,3.441,0,0,0,.345-.975,3.212,3.212,0,0,0-.284-1.546,1.55,1.55,0,0,0-.605-.877,1.476,1.476,0,0,0-1.341.169,16.573,16.573,0,0,0-3.626,2.832,3.287,3.287,0,0,0-.615.7,2.247,2.247,0,0,0-.273,1.073c-.042,1.475,1.267,3.1,2.861,2.587C1731.555,34.178,1732.528,32.4,1733.282,30.8Z" transform="translate(-47.492 0)" fill="#f5947a"/>
      <path id="Trazado_771763" data-name="Trazado 771763" d="M1715.629,93.454a3.01,3.01,0,0,0,.662-.8,1.455,1.455,0,0,0-.507-1.475,5.064,5.064,0,0,0-1.837-1.084,2.058,2.058,0,0,0-1.334-.134,1.556,1.556,0,0,0-.908.976,4.438,4.438,0,0,0-.2,1.36c-.041,1.118-.015,3.135,1.478,3.332C1714.38,95.807,1714.9,94.272,1715.629,93.454Z" transform="translate(-35.299 -49.611)" fill="#f5947a"/>
      <path id="Trazado_771764" data-name="Trazado 771764" d="M1755.448,78.825a2.137,2.137,0,0,0-1.456-2.078,3.529,3.529,0,0,0-1.639-.019,4.262,4.262,0,0,0-1.3.4,3.708,3.708,0,0,0-1.689,2.419,3.5,3.5,0,0,0-.075,1.651c.369,1.59,2.36,2.338,3.837,1.869C1754.783,82.537,1755.377,80.354,1755.448,78.825Z" transform="translate(-65.2 -39.108)" fill="#f5947a"/>
      <path id="Trazado_771765" data-name="Trazado 771765" d="M1781.446,121.187a4.676,4.676,0,0,0,.116-1.316,2.49,2.49,0,0,0-.423-1.681,2.413,2.413,0,0,0-1.786-.566,4.9,4.9,0,0,0-1.481.119,1.633,1.633,0,0,0-1.172,2.3,3.787,3.787,0,0,0,2.4,2.423A1.98,1.98,0,0,0,1781.446,121.187Z" transform="translate(-86.87 -71.587)" fill="#f5947a"/>
      <path id="Trazado_771766" data-name="Trazado 771766" d="M1736.9,132.044a4.137,4.137,0,0,0-1.06-1.977,4.713,4.713,0,0,0-2.732-1.967.821.821,0,0,0-1.07.6,3.628,3.628,0,0,0,.087,2.257,9.263,9.263,0,0,0,1.061,2.03c.452.7,1.244,1.868,2.237,1.608A2.547,2.547,0,0,0,1736.9,132.044Z" transform="translate(-51.468 -79.881)" fill="#f5947a"/>
      <path id="Trazado_771767" data-name="Trazado 771767" d="M1776.033,162.2a2.282,2.282,0,0,0-.793-1.823,2.673,2.673,0,0,0-1.723-.353,2.352,2.352,0,0,0-1.355.389,2.385,2.385,0,0,0-.7,1.717,5.814,5.814,0,0,0,.134,2.108c.3,1.073,1.445,2.486,2.652,1.779A4.611,4.611,0,0,0,1776.033,162.2Z" transform="translate(-82.795 -105.193)" fill="#f5947a"/>
    </g>
    <g id="Enmascarar_grupo_135" data-name="Enmascarar grupo 135" clip-path="url(#clip-path)">
      <g id="tela" transform="translate(206 1040)">
        <path id="Trazado_775549" data-name="Trazado 775549" d="M13.988,59.108a3.567,3.567,0,0,1,.6-5.155,3.569,3.569,0,0,1,0-5.726,3.569,3.569,0,0,1,0-5.727,3.569,3.569,0,0,1,0-5.727,3.569,3.569,0,0,1,0-5.726,3.569,3.569,0,0,1,0-5.727,3.569,3.569,0,0,1,0-5.727,3.576,3.576,0,1,1,5-5,3.569,3.569,0,0,1,5.726,0,3.569,3.569,0,0,1,5.726,0,3.569,3.569,0,0,1,5.726,0,3.569,3.569,0,0,1,5.726,0,3.569,3.569,0,0,1,5.726,0,3.569,3.569,0,0,1,5.726,0,3.567,3.567,0,0,1,5.152-.605,3.625,3.625,0,0,0-.6-.571,3.569,3.569,0,0,0,0-5.726,3.576,3.576,0,1,0-5-5,3.569,3.569,0,0,0-5.726,0,3.569,3.569,0,0,0-5.726,0,3.569,3.569,0,0,0-5.726,0,3.569,3.569,0,0,0-5.726,0,3.569,3.569,0,0,0-5.726,0,3.569,3.569,0,0,0-5.726,0,3.569,3.569,0,0,0-5.726,0,3.569,3.569,0,0,0-5.726,0,3.576,3.576,0,1,0-5,5,3.569,3.569,0,0,0,0,5.726,3.569,3.569,0,0,0,0,5.727,3.569,3.569,0,0,0,0,5.727,3.569,3.569,0,0,0,0,5.726,3.569,3.569,0,0,0,0,5.727,3.569,3.569,0,0,0,0,5.727,3.569,3.569,0,0,0,0,5.726,3.569,3.569,0,0,0,0,5.727,3.576,3.576,0,1,0,5,5,3.569,3.569,0,0,0,5.726,0,3.62,3.62,0,0,0,.574.6Z" fill="#fed402"/>
        <path id="Trazado_775550" data-name="Trazado 775550" d="M7.887,10.376a2.5,2.5,0,0,1,2.49-2.49H58.742c-.078-.069-.157-.136-.24-.2a3.576,3.576,0,1,0-5-5,3.569,3.569,0,0,0-5.726,0,3.569,3.569,0,0,0-5.726,0,3.569,3.569,0,0,0-5.726,0,3.569,3.569,0,0,0-5.726,0,3.569,3.569,0,0,0-5.726,0,3.569,3.569,0,0,0-5.726,0,3.569,3.569,0,0,0-5.726,0,3.569,3.569,0,0,0-5.726,0,3.576,3.576,0,1,0-5,5,3.569,3.569,0,0,0,0,5.726,3.569,3.569,0,0,0,0,5.727,3.569,3.569,0,0,0,0,5.727,3.569,3.569,0,0,0,0,5.726,3.569,3.569,0,0,0,0,5.727,3.569,3.569,0,0,0,0,5.727,3.569,3.569,0,0,0,0,5.726,3.569,3.569,0,0,0,0,5.727,3.576,3.576,0,1,0,5,5c.062.083.129.163.2.24V10.376Z" fill="#fac600"/>
        <path id="Trazado_775551" data-name="Trazado 775551" d="M25.895,71.015a3.567,3.567,0,0,1,.6-5.155,3.569,3.569,0,0,1,0-5.727,3.569,3.569,0,0,1,0-5.726,3.569,3.569,0,0,1,0-5.727,3.569,3.569,0,0,1,0-5.727,3.569,3.569,0,0,1,0-5.726,3.569,3.569,0,0,1,0-5.727,3.576,3.576,0,1,1,5-5,3.569,3.569,0,0,1,5.726,0,3.569,3.569,0,0,1,5.726,0,3.569,3.569,0,0,1,5.726,0,3.569,3.569,0,0,1,5.726,0,3.569,3.569,0,0,1,5.726,0,3.569,3.569,0,0,1,5.726,0,3.566,3.566,0,0,1,5.153-.6,3.612,3.612,0,0,0-.6-.571,3.569,3.569,0,0,0,0-5.727,3.576,3.576,0,1,0-5-5,3.569,3.569,0,0,0-5.726,0,3.569,3.569,0,0,0-5.726,0,3.569,3.569,0,0,0-5.726,0,3.569,3.569,0,0,0-5.726,0,3.569,3.569,0,0,0-5.726,0,3.569,3.569,0,0,0-5.726,0,3.569,3.569,0,0,0-5.726,0,3.569,3.569,0,0,0-5.726,0,3.576,3.576,0,1,0-5,5,3.569,3.569,0,0,0,0,5.727,3.569,3.569,0,0,0,0,5.727,3.569,3.569,0,0,0,0,5.726,3.569,3.569,0,0,0,0,5.727,3.569,3.569,0,0,0,0,5.727,3.569,3.569,0,0,0,0,5.726,3.569,3.569,0,0,0,0,5.727,3.569,3.569,0,0,0,0,5.727,3.576,3.576,0,1,0,5,5,3.569,3.569,0,0,0,5.726,0,3.62,3.62,0,0,0,.574.605Z" fill="#fe76a8"/>
        <path id="Trazado_775552" data-name="Trazado 775552" d="M83.754,34.364A3.57,3.57,0,0,0,82.315,31.5a3.576,3.576,0,1,0-5-5,3.569,3.569,0,0,0-5.726,0,3.569,3.569,0,0,0-5.726,0,3.569,3.569,0,0,0-5.726,0,3.569,3.569,0,0,0-5.726,0,3.569,3.569,0,0,0-5.726,0,3.569,3.569,0,0,0-5.726,0,3.569,3.569,0,0,0-5.726,0,3.569,3.569,0,0,0-5.726,0,3.576,3.576,0,1,0-5,5,3.569,3.569,0,0,0,0,5.727,3.569,3.569,0,0,0,0,5.726,3.569,3.569,0,0,0,0,5.727,3.569,3.569,0,0,0,0,5.727,3.569,3.569,0,0,0,0,5.726,3.569,3.569,0,0,0,0,5.727,3.569,3.569,0,0,0,0,5.727,3.569,3.569,0,0,0,0,5.726,3.576,3.576,0,1,0,5,5,3.569,3.569,0,0,0,5.726,0,3.569,3.569,0,0,0,5.726,0,3.569,3.569,0,0,0,5.726,0,3.569,3.569,0,0,0,5.726,0,3.569,3.569,0,0,0,5.726,0,3.569,3.569,0,0,0,5.726,0,3.569,3.569,0,0,0,5.726,0,3.569,3.569,0,0,0,5.726,0,3.576,3.576,0,1,0,5-5,3.569,3.569,0,0,0,0-5.726,3.569,3.569,0,0,0,0-5.727,3.569,3.569,0,0,0,0-5.727,3.569,3.569,0,0,0,0-5.726,3.569,3.569,0,0,0,0-5.727,3.569,3.569,0,0,0,0-5.727,3.569,3.569,0,0,0,0-5.726A3.569,3.569,0,0,0,83.754,34.364Z" fill="#01d0fb"/>
        <path id="Trazado_775553" data-name="Trazado 775553" d="M30.04,32.529a2.5,2.5,0,0,1,2.49-2.49H83.466A3.576,3.576,0,0,0,77.311,26.5a3.569,3.569,0,0,0-5.726,0,3.569,3.569,0,0,0-5.726,0,3.569,3.569,0,0,0-5.726,0,3.569,3.569,0,0,0-5.726,0,3.569,3.569,0,0,0-5.726,0,3.569,3.569,0,0,0-5.726,0,3.569,3.569,0,0,0-5.726,0,3.569,3.569,0,0,0-5.726,0,3.576,3.576,0,1,0-5,5,3.569,3.569,0,0,0,0,5.727,3.569,3.569,0,0,0,0,5.726,3.569,3.569,0,0,0,0,5.727,3.569,3.569,0,0,0,0,5.727,3.569,3.569,0,0,0,0,5.726,3.569,3.569,0,0,0,0,5.727,3.569,3.569,0,0,0,0,5.727,3.569,3.569,0,0,0,0,5.726,3.576,3.576,0,0,0,3.542,6.155V32.529Z" fill="#08a9f1"/>
        <path id="Trazado_775554" data-name="Trazado 775554" d="M84.057,31.5A4.775,4.775,0,0,0,85,28.637a4.83,4.83,0,0,0-4.824-4.824,4.775,4.775,0,0,0-2.863.941A4.821,4.821,0,0,0,72.8,24.1a4.822,4.822,0,0,0-.651-4.51,4.775,4.775,0,0,0,.941-2.863,4.83,4.83,0,0,0-4.824-4.824,4.775,4.775,0,0,0-2.863.941,4.822,4.822,0,0,0-4.51-.651,4.823,4.823,0,0,0,.291-1.647,4.775,4.775,0,0,0-.941-2.863,4.775,4.775,0,0,0,.941-2.863A4.829,4.829,0,0,0,56.361,0,4.776,4.776,0,0,0,53.5.941a4.826,4.826,0,0,0-5.726,0,4.826,4.826,0,0,0-5.726,0,4.826,4.826,0,0,0-5.726,0,4.826,4.826,0,0,0-5.726,0,4.826,4.826,0,0,0-5.726,0,4.826,4.826,0,0,0-5.726,0,4.825,4.825,0,0,0-5.726,0,4.826,4.826,0,0,0-5.726,0A4.776,4.776,0,0,0,4.825,0,4.829,4.829,0,0,0,0,4.824,4.775,4.775,0,0,0,.943,7.687a4.825,4.825,0,0,0,0,5.726,4.825,4.825,0,0,0,0,5.727,4.825,4.825,0,0,0,0,5.727,4.825,4.825,0,0,0,0,5.726,4.825,4.825,0,0,0,0,5.727,4.825,4.825,0,0,0,0,5.727,4.825,4.825,0,0,0,0,5.726,4.825,4.825,0,0,0,0,5.727A4.775,4.775,0,0,0,0,56.362a4.83,4.83,0,0,0,4.824,4.824,4.775,4.775,0,0,0,2.863-.941,4.821,4.821,0,0,0,4.51.651,4.822,4.822,0,0,0,.651,4.51,4.774,4.774,0,0,0-.941,2.863,4.83,4.83,0,0,0,4.824,4.824,4.775,4.775,0,0,0,2.863-.941,4.821,4.821,0,0,0,4.51.651,4.822,4.822,0,0,0,.651,4.51,4.775,4.775,0,0,0-.941,2.863A4.83,4.83,0,0,0,28.639,85a4.775,4.775,0,0,0,2.863-.941,4.826,4.826,0,0,0,5.726,0,4.826,4.826,0,0,0,5.726,0,4.826,4.826,0,0,0,5.726,0,4.826,4.826,0,0,0,5.726,0,4.826,4.826,0,0,0,5.726,0,4.825,4.825,0,0,0,5.726,0,4.826,4.826,0,0,0,5.726,0,4.826,4.826,0,0,0,5.726,0A4.775,4.775,0,0,0,80.175,85,4.83,4.83,0,0,0,85,80.176a4.775,4.775,0,0,0-.941-2.863,4.825,4.825,0,0,0,0-5.726,4.825,4.825,0,0,0,0-5.727,4.825,4.825,0,0,0,0-5.727,4.825,4.825,0,0,0,0-5.726,4.825,4.825,0,0,0,0-5.727,4.825,4.825,0,0,0,0-5.727,4.825,4.825,0,0,0,0-5.726,4.826,4.826,0,0,0,0-5.727ZM8.685,57.757a1.245,1.245,0,0,0-1.993,0A2.331,2.331,0,1,1,3.431,54.5a1.245,1.245,0,0,0,0-1.993,2.324,2.324,0,0,1,0-3.733,1.245,1.245,0,0,0,0-1.993,2.324,2.324,0,0,1,0-3.733,1.245,1.245,0,0,0,0-1.993,2.324,2.324,0,0,1,0-3.733,1.245,1.245,0,0,0,0-1.993,2.324,2.324,0,0,1,0-3.733,1.245,1.245,0,0,0,0-1.993,2.324,2.324,0,0,1,0-3.733,1.245,1.245,0,0,0,0-1.993,2.324,2.324,0,0,1,0-3.733,1.245,1.245,0,0,0,0-1.993,2.324,2.324,0,0,1,0-3.733,1.245,1.245,0,0,0,0-1.993,2.324,2.324,0,0,1,0-3.733,1.245,1.245,0,0,0,0-1.993A2.331,2.331,0,1,1,6.692,3.43a1.245,1.245,0,0,0,1.993,0,2.324,2.324,0,0,1,3.733,0,1.245,1.245,0,0,0,1.993,0,2.324,2.324,0,0,1,3.733,0,1.245,1.245,0,0,0,1.993,0,2.324,2.324,0,0,1,3.733,0,1.245,1.245,0,0,0,1.993,0,2.324,2.324,0,0,1,3.733,0,1.245,1.245,0,0,0,1.993,0,2.324,2.324,0,0,1,3.733,0,1.245,1.245,0,0,0,1.993,0,2.324,2.324,0,0,1,3.733,0,1.245,1.245,0,0,0,1.993,0,2.324,2.324,0,0,1,3.733,0,1.245,1.245,0,0,0,1.993,0,2.324,2.324,0,0,1,3.733,0,1.245,1.245,0,0,0,1.993,0,2.331,2.331,0,1,1,3.261,3.261,1.245,1.245,0,0,0,0,1.994,2.319,2.319,0,0,1,.356,3.4,4.843,4.843,0,0,0-1.3-.179,4.775,4.775,0,0,0-2.863.941,4.826,4.826,0,0,0-5.726,0,4.826,4.826,0,0,0-5.726,0,4.826,4.826,0,0,0-5.726,0,4.826,4.826,0,0,0-5.726,0,4.826,4.826,0,0,0-5.726,0,4.826,4.826,0,0,0-5.726,0,4.775,4.775,0,0,0-2.863-.941,4.83,4.83,0,0,0-4.824,4.824,4.774,4.774,0,0,0,.941,2.863,4.825,4.825,0,0,0,0,5.727,4.825,4.825,0,0,0,0,5.727,4.825,4.825,0,0,0,0,5.726,4.825,4.825,0,0,0,0,5.727,4.825,4.825,0,0,0,0,5.727,4.825,4.825,0,0,0,0,5.726,4.775,4.775,0,0,0-.941,2.863,4.847,4.847,0,0,0,.179,1.3,2.319,2.319,0,0,1-3.4-.356ZM20.592,69.664a1.245,1.245,0,0,0-1.993,0A2.33,2.33,0,1,1,15.338,66.4a1.245,1.245,0,0,0,0-1.993,2.324,2.324,0,0,1,0-3.733,1.245,1.245,0,0,0,0-1.994,2.324,2.324,0,0,1,0-3.733,1.245,1.245,0,0,0,0-1.993,2.324,2.324,0,0,1,0-3.733,1.245,1.245,0,0,0,0-1.994,2.324,2.324,0,0,1,0-3.733,1.245,1.245,0,0,0,0-1.994,2.324,2.324,0,0,1,0-3.733,1.245,1.245,0,0,0,0-1.993,2.324,2.324,0,0,1,0-3.733,1.245,1.245,0,0,0,0-1.993,2.324,2.324,0,0,1,0-3.733,1.245,1.245,0,0,0,0-1.994,2.324,2.324,0,0,1,0-3.733,1.245,1.245,0,0,0,0-1.993A2.33,2.33,0,1,1,18.6,15.336a1.245,1.245,0,0,0,1.993,0,2.324,2.324,0,0,1,3.733,0,1.245,1.245,0,0,0,1.993,0,2.324,2.324,0,0,1,3.733,0,1.245,1.245,0,0,0,1.993,0,2.324,2.324,0,0,1,3.733,0,1.245,1.245,0,0,0,1.993,0,2.324,2.324,0,0,1,3.733,0,1.245,1.245,0,0,0,1.993,0,2.324,2.324,0,0,1,3.733,0,1.245,1.245,0,0,0,1.993,0,2.324,2.324,0,0,1,3.733,0,1.245,1.245,0,0,0,1.993,0,2.324,2.324,0,0,1,3.733,0,1.245,1.245,0,0,0,1.993,0,2.324,2.324,0,0,1,3.733,0,1.245,1.245,0,0,0,1.993,0A2.33,2.33,0,1,1,69.662,18.6a1.245,1.245,0,0,0,0,1.993,2.319,2.319,0,0,1,.357,3.4,4.845,4.845,0,0,0-1.3-.179,4.775,4.775,0,0,0-2.863.941,4.825,4.825,0,0,0-5.726,0,4.825,4.825,0,0,0-5.726,0,4.825,4.825,0,0,0-5.726,0,4.825,4.825,0,0,0-5.726,0,4.825,4.825,0,0,0-5.726,0,4.825,4.825,0,0,0-5.726,0,4.775,4.775,0,0,0-2.863-.941,4.83,4.83,0,0,0-4.824,4.824,4.775,4.775,0,0,0,.941,2.863,4.825,4.825,0,0,0,0,5.727,4.825,4.825,0,0,0,0,5.726,4.825,4.825,0,0,0,0,5.727,4.825,4.825,0,0,0,0,5.727,4.825,4.825,0,0,0,0,5.726,4.825,4.825,0,0,0,0,5.727,4.775,4.775,0,0,0-.941,2.863,4.846,4.846,0,0,0,.179,1.3,2.319,2.319,0,0,1-3.4-.356ZM26.3,80.176a2.315,2.315,0,0,1,.939-1.867,1.245,1.245,0,0,0,0-1.993,2.324,2.324,0,0,1,0-3.733,1.245,1.245,0,0,0,0-1.993,2.324,2.324,0,0,1,0-3.733,1.245,1.245,0,0,0,0-1.993,2.324,2.324,0,0,1,0-3.733,1.245,1.245,0,0,0,0-1.993,2.324,2.324,0,0,1,0-3.733,1.245,1.245,0,0,0,0-1.993,2.324,2.324,0,0,1,0-3.733,1.245,1.245,0,0,0,0-1.993,2.324,2.324,0,0,1,0-3.733,1.245,1.245,0,0,0,0-1.993,2.324,2.324,0,0,1,0-3.733,1.245,1.245,0,0,0,0-1.993,2.324,2.324,0,0,1,0-3.733,1.245,1.245,0,0,0,0-1.993,2.329,2.329,0,1,1,2.982-3.568V81.877a2.3,2.3,0,0,1-1.587.632A2.337,2.337,0,0,1,26.3,80.176Zm12.148,1.653v-13.6a1.245,1.245,0,0,0-2.49,0V81.868a2.312,2.312,0,0,1-3.246-.048V26.994a2.311,2.311,0,0,1,3.246-.048v35.31a1.245,1.245,0,0,0,2.49,0V26.984a2.311,2.311,0,0,1,3.246-.029v54.9a2.311,2.311,0,0,1-3.246-.029Zm5.737.01V26.974a2.31,2.31,0,0,1,3.246-.009V81.848a2.311,2.311,0,0,1-3.246-.009Zm11.473.019V42.168a1.245,1.245,0,0,0-2.49,0V81.839a2.311,2.311,0,0,1-3.246.01V26.965a2.31,2.31,0,0,1,3.246.01v9.217a1.245,1.245,0,0,0,2.49,0V26.955a2.311,2.311,0,0,1,3.246.029V81.829a2.311,2.311,0,0,1-3.246.03Zm5.737.01V26.945a2.311,2.311,0,0,1,3.246.049V81.819a2.311,2.311,0,0,1-3.246.049Zm11.473.019V74.043a1.245,1.245,0,0,0-2.49,0V81.81a2.312,2.312,0,0,1-3.246.068V26.936A2.312,2.312,0,0,1,70.381,27V68.066a1.245,1.245,0,0,0,2.49,0V26.926a2.313,2.313,0,0,1,3.246.088V81.8a2.313,2.313,0,0,1-3.246.088Zm8.7-49.39a2.324,2.324,0,0,1,0,3.733,1.245,1.245,0,0,0,0,1.993,2.324,2.324,0,0,1,0,3.733,1.245,1.245,0,0,0,0,1.993,2.324,2.324,0,0,1,0,3.733,1.245,1.245,0,0,0,0,1.993,2.324,2.324,0,0,1,0,3.733,1.245,1.245,0,0,0,0,1.993,2.324,2.324,0,0,1,0,3.733,1.245,1.245,0,0,0,0,1.993,2.324,2.324,0,0,1,0,3.733,1.245,1.245,0,0,0,0,1.993,2.324,2.324,0,0,1,0,3.733,1.245,1.245,0,0,0,0,1.993,2.324,2.324,0,0,1,0,3.733,1.245,1.245,0,0,0,0,1.993A2.329,2.329,0,1,1,78.608,81.9V26.916a2.3,2.3,0,0,1,1.566-.613,2.331,2.331,0,0,1,1.394,4.2,1.245,1.245,0,0,0,0,1.993Z"/>
        <circle id="Elipse_4747" data-name="Elipse 4747" cx="1.245" cy="1.245" r="1.245" transform="translate(64.663 18.345)"/>
        <circle id="Elipse_4748" data-name="Elipse 4748" cx="1.245" cy="1.245" r="1.245" transform="translate(58.022 18.345)"/>
        <circle id="Elipse_4749" data-name="Elipse 4749" cx="1.245" cy="1.245" r="1.245" transform="translate(51.382 18.345)"/>
        <circle id="Elipse_4750" data-name="Elipse 4750" cx="1.245" cy="1.245" r="1.245" transform="translate(44.741 18.345)"/>
        <circle id="Elipse_4751" data-name="Elipse 4751" cx="1.245" cy="1.245" r="1.245" transform="translate(38.101 18.345)"/>
        <circle id="Elipse_4752" data-name="Elipse 4752" cx="1.245" cy="1.245" r="1.245" transform="translate(31.46 18.345)"/>
        <circle id="Elipse_4753" data-name="Elipse 4753" cx="1.245" cy="1.245" r="1.245" transform="translate(24.819 18.345)"/>
        <circle id="Elipse_4754" data-name="Elipse 4754" cx="1.245" cy="1.245" r="1.245" transform="translate(18.179 18.345)"/>
        <circle id="Elipse_4755" data-name="Elipse 4755" cx="1.245" cy="1.245" r="1.245" transform="translate(18.179 24.653)"/>
        <circle id="Elipse_4756" data-name="Elipse 4756" cx="1.245" cy="1.245" r="1.245" transform="translate(18.179 30.962)"/>
        <circle id="Elipse_4757" data-name="Elipse 4757" cx="1.245" cy="1.245" r="1.245" transform="translate(18.179 37.271)"/>
        <circle id="Elipse_4758" data-name="Elipse 4758" cx="1.245" cy="1.245" r="1.245" transform="translate(18.179 43.579)"/>
        <circle id="Elipse_4759" data-name="Elipse 4759" cx="1.245" cy="1.245" r="1.245" transform="translate(18.179 49.888)"/>
        <circle id="Elipse_4760" data-name="Elipse 4760" cx="1.245" cy="1.245" r="1.245" transform="translate(18.179 56.196)"/>
        <circle id="Elipse_4761" data-name="Elipse 4761" cx="1.245" cy="1.245" r="1.245" transform="translate(18.179 62.505)"/>
      </g>
    </g>
  </g>
</svg>
