<svg xmlns="http://www.w3.org/2000/svg" xmlns:xlink="http://www.w3.org/1999/xlink" width="140" height="140" viewBox="0 0 140 140">
  <defs>
    <clipPath id="clip-path">
      <rect id="Rectángulo_373866" data-name="Rectángulo 373866" width="140" height="140" transform="translate(285 7134)" fill="#f5947a"/>
    </clipPath>
    <clipPath id="clip-path-2">
      <path id="path10323" d="M0-140H140V0H0Z"/>
    </clipPath>
  </defs>
  <g id="Enmascarar_grupo_127" data-name="Enmascarar grupo 127" transform="translate(-285 -7134)" clip-path="url(#clip-path)">
    <g id="g10317" transform="translate(285 7274)">
      <g id="g10319">
        <g id="g10321" clip-path="url(#clip-path-2)">
          <g id="g10327" transform="translate(131.01 -127.328)">
            <path id="path10329" d="M0,0A3.281,3.281,0,0,0-3.281-3.281H-97.464A3.281,3.281,0,0,0-100.745,0V12.257H0Z" fill="#ffe270"/>
          </g>
          <g id="g10331" transform="translate(30.265 -115.07)">
            <path id="path10333" d="M0,0V109.738a3.281,3.281,0,0,0,3.281,3.281H97.464a3.281,3.281,0,0,0,3.281-3.281V0Z" fill="#eaf6ff"/>
          </g>
          <g id="g10335" transform="translate(40.382 -130.609)">
            <path id="path10337" d="M0,0H-6.836a3.281,3.281,0,0,0-3.281,3.281V15.539h6.836V3.281A3.281,3.281,0,0,1,0,0" fill="#ffd15c"/>
          </g>
          <g id="g10339" transform="translate(37.101 -5.332)">
            <path id="path10341" d="M0,0V-109.738H-6.836V0A3.281,3.281,0,0,0-3.555,3.281H3.281A3.281,3.281,0,0,1,0,0" fill="#d8ecfe"/>
          </g>
          <g id="g10343" transform="translate(21.273 -104.379)">
            <path id="path10345" d="M0,0V84.085A3.444,3.444,0,0,1-3.443,87.53H-8.838a3.445,3.445,0,0,1-3.445-3.445V0a5.143,5.143,0,0,1,.027-.544A5.351,5.351,0,0,1-12-1.766l4.421-13.15a1.512,1.512,0,0,1,2.866,0L-.287-1.766A5.351,5.351,0,0,1-.027-.544,5.143,5.143,0,0,1,0,0" fill="#8ac9fe"/>
          </g>
          <g id="g10347" transform="translate(15.826 -20.294)">
            <path id="path10349" d="M0,0V-84.086a5.542,5.542,0,0,1,.289-1.765L2.724-93.1.738-99a1.511,1.511,0,0,0-2.864,0L-6.547-85.852a5.543,5.543,0,0,0-.289,1.765V0A3.445,3.445,0,0,0-3.391,3.445H2a3.44,3.44,0,0,0,.721-.077A3.445,3.445,0,0,1,0,0" fill="#60b8fe"/>
          </g>
          <g id="g10351" transform="translate(21.246 -104.923)">
            <path id="path10353" d="M0,0H-12.228a.211.211,0,0,1,.005-.041c.005-.082.016-.167.03-.249s.03-.189.049-.282c.011-.057.025-.115.038-.17.016-.074.036-.145.055-.216.025-.09.052-.178.082-.265l4.421-13.15a1.512,1.512,0,0,1,2.866,0L-2.7-8.466-.26-1.222A5.351,5.351,0,0,1,0,0" fill="#eaf6ff"/>
          </g>
          <g id="g10355" transform="translate(21.273 -27.513)">
            <path id="path10357" d="M0,0V7.219a3.446,3.446,0,0,1-2.723,3.369h0a3.443,3.443,0,0,1-.716.077H-8.838a3.445,3.445,0,0,1-3.445-3.445V0Z" fill="#ffe270"/>
          </g>
          <g id="g10359" transform="translate(86.282 -57.032)">
            <path id="path10361" d="M0,0H-32.216a1.158,1.158,0,0,1-1.158-1.158v-26.6a3.482,3.482,0,0,1,.995-2.434c2.144-2.191,3.659-3.893,5.846-6.118a1.16,1.16,0,0,1,1.6-.056l6.523,5.783a3.475,3.475,0,0,0,4.611,0l6.524-5.783a1.16,1.16,0,0,1,1.6.056c2.188,2.225,3.7,3.927,5.846,6.118a3.482,3.482,0,0,1,.995,2.434v26.6A1.158,1.158,0,0,1,0,0" fill="#f58a97"/>
          </g>
          <g id="g10363" transform="translate(87.864 -56.485)">
            <path id="path10365" d="M0,0H-35.381a.793.793,0,0,0-.784.679l-5.965,41a1.432,1.432,0,0,0,1.417,1.638h8.838a1.432,1.432,0,0,0,1.341-.929l2.9-7.716a1.432,1.432,0,0,1,2.653-.071l3.441,7.859a1.432,1.432,0,0,0,1.312.858H5.333A1.432,1.432,0,0,0,6.75,41.681L.784.679A.793.793,0,0,0,0,0" fill="#f58a97"/>
          </g>
          <g id="g10367" transform="translate(59.743 -84.788)">
            <path id="path10369" d="M0,0V26.6a1.16,1.16,0,0,0,1.159,1.159H-5.677A1.16,1.16,0,0,1-6.836,26.6V0a3.478,3.478,0,0,1,1-2.434C-3.7-4.627-2.182-6.327.005-8.553a1.16,1.16,0,0,1,1.6-.055L4.46-6.073C3.344-4.892,2.283-3.752,1-2.434A3.478,3.478,0,0,0,0,0" fill="#f07181"/>
          </g>
          <g id="g10371" transform="translate(52.569 -14.804)">
            <path id="path10373" d="M0,0,5.966-41a.792.792,0,0,1,.784-.678H-.086A.792.792,0,0,0-.87-41L-6.836,0A1.432,1.432,0,0,0-5.419,1.638H1.417A1.432,1.432,0,0,1,0,0" fill="#f07181"/>
          </g>
          <g id="g10375" transform="translate(18.547 -16.926)">
            <path id="path10377" d="M0,0A3.443,3.443,0,0,1-.716.077H-6.111A3.445,3.445,0,0,1-9.557-3.369v-7.219h6.836v7.219A3.444,3.444,0,0,0,0,0" fill="#ffd15c"/>
          </g>
          <g id="g10379" transform="translate(15.854 -104.923)">
            <path id="path10381" d="M0,0H-6.836A.211.211,0,0,1-6.83-.041c.005-.082.016-.167.03-.249s.03-.189.049-.282c.011-.057.025-.115.038-.17.016-.074.036-.145.055-.216.025-.09.052-.178.082-.265l4.421-13.15a1.512,1.512,0,0,1,2.866,0L2.7-8.466.26-1.222A5.351,5.351,0,0,0,0,0" fill="#d8ecfe"/>
          </g>
          <g id="g10383" transform="translate(87.997 -52.908)">
            <path id="path10385" d="M0,0H-36.561a2.187,2.187,0,0,1-2.187-2.187V-6.449a2.187,2.187,0,0,1,2.188-2.187H0A2.188,2.188,0,0,1,2.188-6.449v4.262A2.188,2.188,0,0,1,0,0" fill="#b6c4cf"/>
          </g>
          <g id="g10387" transform="translate(56.084 -55.095)">
            <path id="path10389" d="M0,0V-4.261A2.187,2.187,0,0,1,2.188-6.449H-4.648A2.187,2.187,0,0,0-6.836-4.261V0A2.188,2.188,0,0,0-4.648,2.188H2.188A2.188,2.188,0,0,1,0,0" fill="#9facba"/>
          </g>
          <g id="g10391" transform="translate(46.668 -123.067)">
            <path id="path10393" d="M0,0H-.4A3.418,3.418,0,0,1-3.822-3.418v-8.046A3.418,3.418,0,0,1-.4-14.882H0a3.418,3.418,0,0,1,3.418,3.418v8.046A3.418,3.418,0,0,1,0,0" fill="#c5d3dd"/>
          </g>
          <g id="g10395" transform="translate(63.754 -123.067)">
            <path id="path10397" d="M0,0H-.4A3.418,3.418,0,0,1-3.822-3.418v-8.046A3.418,3.418,0,0,1-.4-14.882H0a3.418,3.418,0,0,1,3.418,3.418v8.046A3.418,3.418,0,0,1,0,0" fill="#c5d3dd"/>
          </g>
          <g id="g10399" transform="translate(80.839 -123.067)">
            <path id="path10401" d="M0,0H-.4A3.418,3.418,0,0,1-3.822-3.418v-8.046A3.418,3.418,0,0,1-.4-14.882H0a3.418,3.418,0,0,1,3.418,3.418v8.046A3.418,3.418,0,0,1,0,0" fill="#c5d3dd"/>
          </g>
          <g id="g10403" transform="translate(97.925 -123.067)">
            <path id="path10405" d="M0,0H-.4A3.418,3.418,0,0,1-3.822-3.418v-8.046A3.418,3.418,0,0,1-.4-14.882H0a3.418,3.418,0,0,1,3.418,3.418v8.046A3.418,3.418,0,0,1,0,0" fill="#c5d3dd"/>
          </g>
          <g id="g10407" transform="translate(115.011 -123.067)">
            <path id="path10409" d="M0,0H-.4A3.418,3.418,0,0,1-3.822-3.418v-8.046A3.418,3.418,0,0,1-.4-14.882H0a3.418,3.418,0,0,1,3.418,3.418v8.046A3.418,3.418,0,0,1,0,0" fill="#c5d3dd"/>
          </g>
          <g id="g10411" transform="translate(9.279 -106.146)">
            <path id="path10413" d="M0,0,4.421-13.151a1.511,1.511,0,0,1,2.864,0L11.707,0A5.544,5.544,0,0,1,12,1.765V85.852A3.445,3.445,0,0,1,8.551,89.3H3.156A3.445,3.445,0,0,1-.289,85.852V1.765A5.544,5.544,0,0,1,0,0Z" fill="none" stroke="#000" stroke-linecap="round" stroke-linejoin="round" stroke-miterlimit="10" stroke-width="4.102"/>
          </g>
          <g id="g10415" transform="translate(9.019 -104.923)">
            <path id="path10417" d="M0,0H12.228" fill="none" stroke="#000" stroke-linecap="round" stroke-linejoin="round" stroke-miterlimit="10" stroke-width="4.102"/>
          </g>
          <g id="g10419" transform="translate(8.991 -27.515)">
            <path id="path10421" d="M0,0H12.284" fill="none" stroke="#000" stroke-linecap="round" stroke-linejoin="round" stroke-miterlimit="10" stroke-width="4.102"/>
          </g>
          <g id="g10423" transform="translate(59.932 -130.61)">
            <path id="path10425" d="M0,0H-9.846" fill="none" stroke="#000" stroke-linecap="round" stroke-linejoin="round" stroke-miterlimit="10" stroke-width="4.102"/>
          </g>
          <g id="g10427" transform="translate(94.104 -130.61)">
            <path id="path10429" d="M0,0H-9.846" fill="none" stroke="#000" stroke-linecap="round" stroke-linejoin="round" stroke-miterlimit="10" stroke-width="4.102"/>
          </g>
          <g id="g10431" transform="translate(131.01 -65.986)">
            <path id="path10433" d="M0,0V60.654a3.28,3.28,0,0,1-3.281,3.281H-97.464a3.282,3.282,0,0,1-3.281-3.281v-122a3.284,3.284,0,0,1,3.281-3.281h9.3" fill="none" stroke="#000" stroke-linecap="round" stroke-linejoin="round" stroke-miterlimit="10" stroke-width="4.102"/>
          </g>
          <g id="g10435" transform="translate(118.429 -130.61)">
            <path id="path10437" d="M0,0H9.3a3.282,3.282,0,0,1,3.281,3.281V55.054" fill="none" stroke="#000" stroke-linecap="round" stroke-linejoin="round" stroke-miterlimit="10" stroke-width="4.102"/>
          </g>
          <g id="g10439" transform="translate(111.188 -130.61)">
            <path id="path10441" d="M0,0H-9.844" fill="none" stroke="#000" stroke-linecap="round" stroke-linejoin="round" stroke-miterlimit="10" stroke-width="4.102"/>
          </g>
          <g id="g10443" transform="translate(77.017 -130.61)">
            <path id="path10445" d="M0,0H-9.844" fill="none" stroke="#000" stroke-linecap="round" stroke-linejoin="round" stroke-miterlimit="10" stroke-width="4.102"/>
          </g>
          <g id="g10447" transform="translate(131.01 -115.07)">
            <path id="path10449" d="M0,0H-100.745" fill="none" stroke="#000" stroke-linecap="round" stroke-linejoin="round" stroke-miterlimit="10" stroke-width="4.102"/>
          </g>
          <g id="g10451" transform="translate(46.466 -123.067)">
            <path id="path10453" d="M0,0H0A3.62,3.62,0,0,1-3.62-3.62v-7.643A3.62,3.62,0,0,1,0-14.882H0a3.62,3.62,0,0,1,3.62,3.62V-3.62A3.62,3.62,0,0,1,0,0Z" fill="none" stroke="#000" stroke-linecap="round" stroke-linejoin="round" stroke-miterlimit="10" stroke-width="4.102"/>
          </g>
          <g id="g10455" transform="translate(63.552 -123.067)">
            <path id="path10457" d="M0,0H0A3.62,3.62,0,0,1-3.62-3.62v-7.643A3.62,3.62,0,0,1,0-14.882H0a3.62,3.62,0,0,1,3.62,3.62V-3.62A3.62,3.62,0,0,1,0,0Z" fill="none" stroke="#000" stroke-linecap="round" stroke-linejoin="round" stroke-miterlimit="10" stroke-width="4.102"/>
          </g>
          <g id="g10459" transform="translate(80.638 -123.067)">
            <path id="path10461" d="M0,0H0A3.62,3.62,0,0,1-3.62-3.62v-7.643A3.62,3.62,0,0,1,0-14.882H0a3.62,3.62,0,0,1,3.62,3.62V-3.62A3.62,3.62,0,0,1,0,0Z" fill="none" stroke="#000" stroke-linecap="round" stroke-linejoin="round" stroke-miterlimit="10" stroke-width="4.102"/>
          </g>
          <g id="g10463" transform="translate(97.723 -123.067)">
            <path id="path10465" d="M0,0H0A3.62,3.62,0,0,1-3.62-3.62v-7.643A3.62,3.62,0,0,1,0-14.882H0a3.62,3.62,0,0,1,3.62,3.62V-3.62A3.62,3.62,0,0,1,0,0Z" fill="none" stroke="#000" stroke-linecap="round" stroke-linejoin="round" stroke-miterlimit="10" stroke-width="4.102"/>
          </g>
          <g id="g10467" transform="translate(114.809 -123.067)">
            <path id="path10469" d="M0,0H0A3.62,3.62,0,0,1-3.62-3.62v-7.643A3.62,3.62,0,0,1,0-14.882H0a3.62,3.62,0,0,1,3.62,3.62V-3.62A3.62,3.62,0,0,1,0,0Z" fill="none" stroke="#000" stroke-linecap="round" stroke-linejoin="round" stroke-miterlimit="10" stroke-width="4.102"/>
          </g>
          <g id="g10471" transform="translate(52.908 -78.157)">
            <path id="path10473" d="M0,0V-6.631A3.478,3.478,0,0,1,1-9.064c2.144-2.193,3.659-3.894,5.846-6.12a1.16,1.16,0,0,1,1.6-.055L14.96-9.455a3.481,3.481,0,0,0,4.613,0l6.521-5.783a1.16,1.16,0,0,1,1.6.055c2.188,2.226,3.7,3.927,5.846,6.12a3.478,3.478,0,0,1,1,2.434V16.611" fill="none" stroke="#000" stroke-linecap="round" stroke-linejoin="round" stroke-miterlimit="10" stroke-width="4.102"/>
          </g>
          <g id="g10475" transform="translate(52.908 -61.545)">
            <path id="path10477" d="M0,0V-7.041" fill="none" stroke="#000" stroke-linecap="round" stroke-linejoin="round" stroke-miterlimit="10" stroke-width="4.102"/>
          </g>
          <g id="g10479" transform="translate(89.031 -53.167)">
            <path id="path10481" d="M0,0,5.584,38.363A1.432,1.432,0,0,1,4.164,40H-21.4a1.433,1.433,0,0,1-1.312-.856l-3.443-7.859a1.431,1.431,0,0,0-2.652.071l-2.9,7.716a1.432,1.432,0,0,1-1.34.927H-41.88A1.432,1.432,0,0,1-43.3,38.363L-37.754.254" fill="none" stroke="#000" stroke-linecap="round" stroke-linejoin="round" stroke-miterlimit="10" stroke-width="4.102"/>
          </g>
          <g id="g10483" transform="translate(87.997 -52.908)">
            <path id="path10485" d="M0,0H-36.561a2.187,2.187,0,0,1-2.187-2.187V-6.449a2.187,2.187,0,0,1,2.188-2.187H0A2.188,2.188,0,0,1,2.188-6.449v4.262A2.188,2.188,0,0,1,0,0Z" fill="none" stroke="#000" stroke-linecap="round" stroke-linejoin="round" stroke-miterlimit="10" stroke-width="4.102"/>
          </g>
          <g id="g10487" transform="translate(60.525 -93.687)">
            <path id="path10489" d="M0,0V-10.465" fill="none" stroke="#000" stroke-linecap="round" stroke-linejoin="round" stroke-miterlimit="10" stroke-width="4.102"/>
          </g>
          <g id="g10491" transform="translate(79.823 -93.687)">
            <path id="path10493" d="M0,0V-10.465" fill="none" stroke="#000" stroke-linecap="round" stroke-linejoin="round" stroke-miterlimit="10" stroke-width="4.102"/>
          </g>
          <g id="g10495" transform="translate(115.556 -94.776)">
            <path id="path10497" d="M0,0H-8.106" fill="none" stroke="#000" stroke-linecap="round" stroke-linejoin="round" stroke-miterlimit="10" stroke-width="4.102"/>
          </g>
          <g id="g10499" transform="translate(115.556 -85.318)">
            <path id="path10501" d="M0,0H-8.106" fill="none" stroke="#000" stroke-linecap="round" stroke-linejoin="round" stroke-miterlimit="10" stroke-width="4.102"/>
          </g>
          <g id="g10503" transform="translate(115.556 -61.544)">
            <path id="path10505" d="M0,0H-8.106" fill="none" stroke="#000" stroke-linecap="round" stroke-linejoin="round" stroke-miterlimit="10" stroke-width="4.102"/>
          </g>
          <g id="g10507" transform="translate(115.556 -52.908)">
            <path id="path10509" d="M0,0H-8.106" fill="none" stroke="#000" stroke-linecap="round" stroke-linejoin="round" stroke-miterlimit="10" stroke-width="4.102"/>
          </g>
          <g id="g10511" transform="translate(107.451 -13.166)">
            <path id="path10513" d="M0,0H6.464A1.641,1.641,0,0,0,8.1-1.641V-89.346a1.641,1.641,0,0,0-1.641-1.641H0" fill="none" stroke="#000" stroke-linecap="round" stroke-linejoin="round" stroke-miterlimit="10" stroke-width="4.102"/>
          </g>
        </g>
      </g>
    </g>
  </g>
</svg>
