<svg xmlns="http://www.w3.org/2000/svg" xmlns:xlink="http://www.w3.org/1999/xlink" width="140" height="140" viewBox="0 0 140 140">
  <defs>
    <clipPath id="clip-path">
      <rect id="Rectángulo_373867" data-name="Rectángulo 373867" width="140" height="140" transform="translate(-11387 -4566)" fill="#f5947a"/>
    </clipPath>
  </defs>
  <g id="Enmascarar_grupo_128" data-name="Enmascarar grupo 128" transform="translate(11387 4566)" clip-path="url(#clip-path)">
    <g id="modista" transform="translate(-11389.259 -4568.258)">
      <path id="Trazado_775406" data-name="Trazado 775406" d="M108.387,130.968H36.129c0-36.882,9.032-47.419,9.032-47.419l-11.29-42.9L58.71,31.613l4.516-18.065H81.29l4.516,18.065,24.839,9.032-11.29,42.9S108.387,94.086,108.387,130.968Z" fill="#efdece"/>
      <path id="Trazado_775407" data-name="Trazado 775407" d="M65.484,130.968H79.032V140H65.484Z" fill="#c2856c"/>
      <path id="Trazado_775408" data-name="Trazado 775408" d="M67.742,4.516h9.032v9.032H67.742Z" fill="#c2856c"/>
      <path id="Trazado_775409" data-name="Trazado 775409" d="M60.968,22.581,58.71,31.613v85.806H49.677V27.1l9.032-3.613Z" fill="#faa2c5"/>
      <path id="Trazado_775410" data-name="Trazado 775410" d="M49.677,108.387H58.71v9.032H49.677Z" fill="#fc6c9f"/>
      <path id="Trazado_775411" data-name="Trazado 775411" d="M94.839,103.871H85.806V31.613l-2.258-9.032L94.839,27.1Z" fill="#faa2c5"/>
      <path id="Trazado_775412" data-name="Trazado 775412" d="M111.417,38.523,97.1,33.316V27.1a2.258,2.258,0,0,0-1.42-2.1L85.46,20.913,83.481,13a2.258,2.258,0,0,0-2.191-1.71H79.032V4.516a2.258,2.258,0,0,0-2.258-2.258H67.742a2.258,2.258,0,0,0-2.258,2.258V11.29H63.226A2.258,2.258,0,0,0,61.035,13l-1.978,7.912L48.839,25a2.258,2.258,0,0,0-1.42,2.1v6.219L33.1,38.523a2.258,2.258,0,0,0-1.411,2.7L42.709,83.1c-2.259,3.475-8.838,16.309-8.838,47.865a2.258,2.258,0,0,0,2.258,2.258h27.1V140a2.258,2.258,0,0,0,2.258,2.258H79.032A2.258,2.258,0,0,0,81.29,140v-6.774h27.1a2.258,2.258,0,0,0,2.258-2.258c0-31.556-6.579-44.39-8.838-47.865L112.829,41.22a2.258,2.258,0,0,0-1.412-2.7Zm-18.836-9.9v.729a2.258,2.258,0,0,0,0,4.516v4.516a2.258,2.258,0,0,0,0,4.516v4.516a2.258,2.258,0,0,0,0,4.516v4.516a2.258,2.258,0,1,0,0,4.516v4.516a2.258,2.258,0,0,0,0,4.516v4.516a2.258,2.258,0,0,0,0,4.516v4.516a2.258,2.258,0,0,0,0,4.516v4.516a2.258,2.258,0,0,0,0,4.516v4.516H88.065v-70A2.253,2.253,0,0,0,88,31.065L86.81,26.317ZM70,6.774h4.516V11.29H70ZM51.935,110.645h4.516v4.516H51.935Zm0-82.02,5.77-2.308L56.52,31.065a2.251,2.251,0,0,0-.069.548v74.516H51.935V97.1a2.258,2.258,0,1,0,0-4.516V88.065a2.258,2.258,0,1,0,0-4.516V79.032a2.258,2.258,0,1,0,0-4.516V70a2.258,2.258,0,1,0,0-4.516V60.968a2.258,2.258,0,1,0,0-4.516V51.935a2.258,2.258,0,1,0,0-4.516V42.9a2.258,2.258,0,1,0,0-4.516V33.871a2.258,2.258,0,1,0,0-4.516ZM76.774,137.742H67.742v-4.516h9.032Zm29.343-9.032H38.4c.349-33.424,8.408-43.609,8.477-43.692a2.258,2.258,0,0,0,.469-2.044L36.579,42.063l10.84-3.942v79.3a2.258,2.258,0,0,0,2.258,2.258H58.71a2.258,2.258,0,0,0,2.258-2.258V31.891l4.021-16.084H79.527l4.021,16.084v71.98a2.258,2.258,0,0,0,2.258,2.258h9.032a2.258,2.258,0,0,0,2.258-2.258V83.57A2.194,2.194,0,0,0,97.626,85C97.709,85.1,105.768,95.286,106.117,128.71ZM97.17,82.974a2.315,2.315,0,0,0-.074.514V38.121l10.84,3.942Z"/>
    </g>
  </g>
</svg>
