<svg xmlns="http://www.w3.org/2000/svg" xmlns:xlink="http://www.w3.org/1999/xlink" width="140" height="140" viewBox="0 0 140 140">
  <defs>
    <clipPath id="clip-path">
      <rect id="Rectángulo_373868" data-name="Rectángulo 373868" width="140" height="140" transform="translate(-11387 -4228)" fill="#f5947a"/>
    </clipPath>
  </defs>
  <g id="Enmascarar_grupo_129" data-name="Enmascarar grupo 129" transform="translate(11387 4228)" clip-path="url(#clip-path)">
    <g id="_03-designer" transform="translate(-11387 -4228)">
      <path id="Trazado_775413" data-name="Trazado 775413" d="M128.8,58.975,101.915,85.837l-1.837,1.837V81.309H93.69l28.722-28.722Z" fill="#ff475a"/>
      <path id="Trazado_775414" data-name="Trazado 775414" d="M122.412,52.587,93.69,81.309V74.921H87.324L92.071,70.2l2.734-2.734V67.44l21.24-21.219Z" fill="#ff9696"/>
      <path id="Trazado_775415" data-name="Trazado 775415" d="M70,13.125a6.427,6.427,0,0,1-6.289,6.562c-.09,0-.182,0-.273,0-6.278,0-10.544-5.994-10.916-16.056l6.541-1.444A10.939,10.939,0,0,0,70,13.125Z" fill="#f2f6fc"/>
      <path id="Trazado_775416" data-name="Trazado 775416" d="M80.937,2.187l6.541,1.444c-.372,10.062-4.637,16.056-10.916,16.056A6.427,6.427,0,0,1,70,13.4c0-.09,0-.182,0-.273A10.939,10.939,0,0,0,80.937,2.187Z" fill="#f2f6fc"/>
      <path id="Trazado_775417" data-name="Trazado 775417" d="M137.811,98.437v17.5a4.388,4.388,0,0,1-4.375,4.375H6.562a4.388,4.388,0,0,1-4.375-4.375v-17.5a4.388,4.388,0,0,1,4.375-4.375H133.436A4.388,4.388,0,0,1,137.811,98.437Z" fill="#ffe45c"/>
      <path id="Trazado_775418" data-name="Trazado 775418" d="M133.436,113.749H6.562a4.388,4.388,0,0,1-4.375-4.375v6.562a4.388,4.388,0,0,0,4.375,4.375H133.436a4.388,4.388,0,0,0,4.375-4.375v-6.562A4.388,4.388,0,0,1,133.436,113.749Z" fill="#ffa426"/>
      <path id="Trazado_775419" data-name="Trazado 775419" d="M135.165,39.834a9.017,9.017,0,0,1,0,12.751l0,0-1.6,1.6L120.815,41.431l1.6-1.6a9,9,0,0,1,12.733-.02Z" fill="#f2f6fc"/>
      <path id="Trazado_775420" data-name="Trazado 775420" d="M133.568,54.184,128.8,58.975l-6.387-6.387-6.366-6.366,4.769-4.791Z" fill="#9196aa"/>
      <path id="Trazado_775421" data-name="Trazado 775421" d="M98.305,28.962a155.2,155.2,0,0,0-4.112,28.153A4.375,4.375,0,0,1,89.84,61.25H50.159a4.375,4.375,0,0,1-4.353-4.134,155.2,155.2,0,0,0-4.112-28.153C39.112,37.318,35,39.375,35,39.375l-8.75-8.75A26.8,26.8,0,0,1,39.375,6.562L52.521,3.631c.372,10.062,4.637,16.056,10.916,16.056A6.427,6.427,0,0,0,70,13.4c0-.09,0-.182,0-.273a6.427,6.427,0,0,0,6.289,6.562c.09,0,.182,0,.273,0,6.278,0,10.544-5.994,10.916-16.056l13.147,2.931a26.8,26.8,0,0,1,13.125,24.062L105,39.375S100.887,37.318,98.305,28.962Z" fill="#b5efff"/>
      <path id="Trazado_775422" data-name="Trazado 775422" d="M52.368,57.115c-.505-9.491-4.473-28.188-6.7-37.426-.879,3.246-1.881,7.717-4.1,10.242,1.113,6.414,3.85,20.687,4.244,27.184a4.375,4.375,0,0,0,4.353,4.134h6.562a4.375,4.375,0,0,1-4.353-4.134Z" fill="#19cffc"/>
      <path id="Trazado_775423" data-name="Trazado 775423" d="M32.812,30.625A26.8,26.8,0,0,1,45.937,6.562l6.674-1.487c-.037-.475-.072-.949-.09-1.444L39.375,6.562A26.8,26.8,0,0,0,26.25,30.625L35,39.375a10.627,10.627,0,0,0,3.3-3.259Z" fill="#19cffc"/>
      <path id="Trazado_775424" data-name="Trazado 775424" d="M107.187,137.811H32.812c0-6.322.153-12.141.459-17.5h73.456C107.034,125.671,107.187,131.49,107.187,137.811Z" fill="#b5efff"/>
      <path id="Trazado_775425" data-name="Trazado 775425" d="M103.73,94.062H80.937l9.581-3.194,9.559-3.194,1.837-1.837c.656,2.494,1.247,5.228,1.816,8.225Z" fill="#b5efff"/>
      <path id="Trazado_775426" data-name="Trazado 775426" d="M100.077,81.309v6.366l-9.559,3.194-6.387-6.387,3.194-9.559H93.69v6.387Z" fill="#f2d1a5"/>
      <path id="Trazado_775427" data-name="Trazado 775427" d="M94.806,67.44v.022L92.071,70.2l-.2-.2H43.793c3.522-6.869,6.519-8.75,6.519-8.75H89.687A19.3,19.3,0,0,1,94.806,67.44Z" fill="#1ea1e3"/>
      <path id="Trazado_775428" data-name="Trazado 775428" d="M91.874,70l.2.2.2-.2Z" fill="#368dcf"/>
      <path id="Trazado_775429" data-name="Trazado 775429" d="M56.875,61.25H50.312s-3,1.881-6.519,8.75h6.562C53.878,63.131,56.875,61.25,56.875,61.25Z" fill="#368dcf"/>
      <path id="Trazado_775430" data-name="Trazado 775430" d="M92.071,70.2l-4.747,4.725-3.194,9.559-3.194,9.581H36.268A88.5,88.5,0,0,1,43.793,70H91.874Z" fill="#b5efff"/>
      <path id="Trazado_775431" data-name="Trazado 775431" d="M33.272,120.312c-.306,5.359-.459,11.178-.459,17.5h6.562c0-6.322.153-12.141.459-17.5Z" fill="#19cffc"/>
      <path id="Trazado_775432" data-name="Trazado 775432" d="M43.793,70a88.5,88.5,0,0,0-7.525,24.062h6.562A88.5,88.5,0,0,1,50.356,70Z" fill="#19cffc"/>
      <path id="Trazado_775433" data-name="Trazado 775433" d="M90.518,90.868l-9.581,3.194,3.194-9.581Z" fill="#7e8596"/>
      <path id="Trazado_775434" data-name="Trazado 775434" d="M59.062,2.187H80.937a10.937,10.937,0,0,1-21.875,0Z" fill="#1ea1e3"/>
      <g id="Grupo_1065644" data-name="Grupo 1065644">
        <path id="Trazado_775435" data-name="Trazado 775435" d="M67.812,94.062h4.375v13.125H67.812Z" fill="#faa68e"/>
        <path id="Trazado_775436" data-name="Trazado 775436" d="M78.749,94.062h4.375v8.75H78.749Z" fill="#faa68e"/>
        <path id="Trazado_775437" data-name="Trazado 775437" d="M89.687,94.062h4.375v13.125H89.687Z" fill="#faa68e"/>
        <path id="Trazado_775438" data-name="Trazado 775438" d="M100.624,94.062H105v8.75h-4.375Z" fill="#faa68e"/>
        <path id="Trazado_775439" data-name="Trazado 775439" d="M111.562,94.062h4.375v13.125h-4.375Z" fill="#faa68e"/>
        <path id="Trazado_775440" data-name="Trazado 775440" d="M122.5,94.062h4.375v8.75H122.5Z" fill="#faa68e"/>
        <path id="Trazado_775441" data-name="Trazado 775441" d="M56.875,94.062H61.25v8.75H56.875Z" fill="#faa68e"/>
        <path id="Trazado_775442" data-name="Trazado 775442" d="M45.937,94.062h4.375v13.125H45.937Z" fill="#faa68e"/>
        <path id="Trazado_775443" data-name="Trazado 775443" d="M35,94.062h4.375v8.75H35Z" fill="#faa68e"/>
        <path id="Trazado_775444" data-name="Trazado 775444" d="M24.062,94.062h4.375v13.125H24.062Z" fill="#faa68e"/>
        <path id="Trazado_775445" data-name="Trazado 775445" d="M13.125,94.062H17.5v8.75H13.125Z" fill="#faa68e"/>
      </g>
      <path id="Trazado_775446" data-name="Trazado 775446" d="M133.436,91.874H105.529c-.394-1.969-.787-3.747-1.188-5.362l32.375-32.375a11.213,11.213,0,1,0-15.857-15.857l-25.7,25.714c-.512-.72-1-1.352-1.442-1.877a6.606,6.606,0,0,0,2.664-4.878,171.93,171.93,0,0,1,2.638-21.284,14.122,14.122,0,0,0,5.009,5.377,2.211,2.211,0,0,0,.973.23,2.182,2.182,0,0,0,1.547-.641l8.75-8.75a2.182,2.182,0,0,0,.641-1.547A28.791,28.791,0,0,0,101.6,4.6a2.254,2.254,0,0,0-.5-.177L81.412.053a2.152,2.152,0,0,0-.475,0V0H59.062V.055a2.152,2.152,0,0,0-.475,0L38.9,4.43a2.254,2.254,0,0,0-.5.177A28.794,28.794,0,0,0,24.062,30.625a2.182,2.182,0,0,0,.641,1.547l8.75,8.75a2.19,2.19,0,0,0,2.524.411,14.122,14.122,0,0,0,5.009-5.377A171.931,171.931,0,0,1,43.625,57.24,6.612,6.612,0,0,0,46.3,62.125C43.12,65.92,37.97,74.4,34.47,91.874H6.562A6.562,6.562,0,0,0,0,98.437v17.5A6.562,6.562,0,0,0,6.562,122.5H30.975c-.219,4.751-.35,9.872-.35,15.312A2.188,2.188,0,0,0,32.812,140h74.374a2.188,2.188,0,0,0,2.187-2.187c0-5.44-.123-10.561-.35-15.312h24.412A6.562,6.562,0,0,0,140,115.937v-17.5A6.562,6.562,0,0,0,133.436,91.874Zm-39.018,0,6.206-2.067c.147.661.291,1.35.438,2.067ZM116.028,49.3l3.281,3.281L95.884,76.019V74.926A2.188,2.188,0,0,0,93.7,72.738H92.6ZM100.077,79.115H98.984l23.428-23.43,3.281,3.281L102.265,82.4V81.307a2.188,2.188,0,0,0-2.183-2.192Zm19.044-32.9,1.691-1.693,9.669,9.669-1.693,1.691Zm-30.229,30.9h2.625V81.3a2.188,2.188,0,0,0,2.187,2.187H97.89v2.625l-6.781,2.264L86.624,83.9Zm-3.8,11.432,1.376,1.376-2.063.687Zm48.54-47.164a6.844,6.844,0,0,1,0,9.666l-.048.05-9.669-9.669.05-.048a6.847,6.847,0,0,1,9.656,0Zm-42.3,26.436H47.582a20.72,20.72,0,0,1,3.5-4.375H88.926a19.136,19.136,0,0,1,3.089,3.692ZM82.851,4.854l2.319.514C84.489,12.93,81.324,17.5,76.562,17.5a3.875,3.875,0,0,1-3.994-2.461A13.149,13.149,0,0,0,82.851,4.854ZM70,10.937A8.751,8.751,0,0,1,61.56,4.375H78.439A8.751,8.751,0,0,1,70,10.937Zm-2.568,4.1A3.869,3.869,0,0,1,63.437,17.5c-4.762,0-7.927-4.57-8.608-12.132l2.319-.514A13.146,13.146,0,0,0,67.431,15.039ZM43.951,28.934a56.158,56.158,0,0,0,1.986-15.809H41.562c0,15.028-4.277,21.2-6.387,23.33L28.448,29.73A24.481,24.481,0,0,1,40.14,8.634L50.531,6.322C51.6,15.9,56.437,21.875,63.437,21.875A8.244,8.244,0,0,0,70,19.042a8.244,8.244,0,0,0,6.562,2.833c7,0,11.836-5.978,12.906-15.553l10.391,2.31a24.715,24.715,0,0,1,11.7,21.1l-6.72,6.722c-2.137-2.152-6.4-8.33-6.4-23.327H94.062a56.157,56.157,0,0,0,1.986,15.809,160.549,160.549,0,0,0-4.04,28.033,2.212,2.212,0,0,1-2.187,2.1H50.17a2.212,2.212,0,0,1-2.187-2.1,160.536,160.536,0,0,0-4.032-28.033Zm1.232,43.253H86.963l-1.188,1.188.02.018a2.145,2.145,0,0,0-.547.838L79.36,91.874H38.95a85.992,85.992,0,0,1,6.232-19.687ZM105,135.624H35c.026-4.642.147-9.028.346-13.125h69.3C104.846,126.6,104.966,130.982,105,135.624Zm30.625-19.687a2.188,2.188,0,0,1-2.187,2.187H6.562a2.188,2.188,0,0,1-2.187-2.187v-2.187H131.249v-4.375H4.375V98.437a2.188,2.188,0,0,1,2.187-2.187h6.562v6.562H17.5V96.249h6.562v10.937h4.375V96.249H35v6.562h4.375V96.249h6.562v10.937h4.375V96.249h6.562v6.562H61.25V96.249h6.562v10.937h4.375V96.249h6.562v6.562h4.375V96.249h6.562v10.937h4.375V96.249h6.562v6.562H105V96.249h6.562v10.937h4.375V96.249H122.5v6.562h4.375V96.249h6.562a2.188,2.188,0,0,1,2.187,2.187Z"/>
    </g>
  </g>
</svg>
