<svg xmlns="http://www.w3.org/2000/svg" width="453" height="357" viewBox="0 0 453 357">
  <g id="Grupo_1066179" data-name="Grupo 1066179" transform="translate(-2434 10727) rotate(90)">
    <rect id="Rectángulo_374130" data-name="Rectángulo 374130" width="357" height="453" transform="translate(-10727 -2887)" fill="#baefe4" opacity="0.45"/>
    <g id="Grupo_1066178" data-name="Grupo 1066178" transform="translate(11.333 2)">
      <g id="Grupo_1066169" data-name="Grupo 1066169">
        <path id="Trazado_777095" data-name="Trazado 777095" d="M-10680-2875l-2,94.667-19.333,101L-10643-2673l6-35s1.333-15,25-20.667c-11.333-14.667-17.333-54.333-17.333-54.333l-2.667-39v-53Z" fill="#fff" stroke="#707070" stroke-width="1"/>
        <path id="Trazado_777096" data-name="Trazado 777096" d="M-10667.333-2675.667l6-23.333v23.875" fill="none" stroke="#707070" stroke-width="1"/>
        <path id="Trazado_777097" data-name="Trazado 777097" d="M-10688.375-2678l6.375-15.333v16.667" fill="none" stroke="#707070" stroke-width="1"/>
        <path id="Trazado_777098" data-name="Trazado 777098" d="M-10680.333-2864.667h48.583" fill="none" stroke="#707070" stroke-width="1"/>
        <path id="Trazado_777099" data-name="Trazado 777099" d="M-10682-2781h53" fill="none" stroke="#707070" stroke-width="1"/>
      </g>
      <g id="Grupo_1066174" data-name="Grupo 1066174" transform="translate(-21119.332 -5326) rotate(180)">
        <path id="Trazado_777095-2" data-name="Trazado 777095" d="M-10680-2875l-2,94.667-19.333,101L-10643-2673l6-35s1.333-15,25-20.667c-11.333-14.667-17.333-54.333-17.333-54.333l-2.667-39v-53Z" fill="#fff" stroke="#707070" stroke-width="1"/>
        <path id="Trazado_777096-2" data-name="Trazado 777096" d="M-10667.333-2675.667l6-23.333v23.875" fill="none" stroke="#707070" stroke-width="1"/>
        <path id="Trazado_777097-2" data-name="Trazado 777097" d="M-10688.375-2678l6.375-15.333v16.667" fill="none" stroke="#707070" stroke-width="1"/>
        <path id="Trazado_777098-2" data-name="Trazado 777098" d="M-10680.333-2864.667h48.583" fill="none" stroke="#707070" stroke-width="1"/>
        <path id="Trazado_777099-2" data-name="Trazado 777099" d="M-10682-2781h53" fill="none" stroke="#707070" stroke-width="1"/>
      </g>
      <g id="Grupo_1066170" data-name="Grupo 1066170">
        <path id="Trazado_777100" data-name="Trazado 777100" d="M-10625.667-2875v36.667s6,30.667,3.334,78a2.739,2.739,0,0,0,3,0,17.969,17.969,0,0,1,18.333-9c13,1.667,4.333,31,0,34,10,4.333,26.667,10,26.667,10s8.667-14,26-14.667c-.334,12.667,0,23.667,0,23.667s27.666-6.333,22.666-140.333a34.22,34.22,0,0,1-22.666-18.333Z" fill="#fff" stroke="#707070" stroke-width="1"/>
        <path id="Trazado_777101" data-name="Trazado 777101" d="M-10625.667-2867l65.334-1.667" fill="none" stroke="#707070" stroke-width="1"/>
        <path id="Trazado_777102" data-name="Trazado 777102" d="M-10563.667-2875s10.666,22.333,14,47" fill="none" stroke="#707070" stroke-width="1"/>
        <path id="Trazado_777103" data-name="Trazado 777103" d="M-10556.667-2875s12.668,47,9.334,135.333" fill="none" stroke="#707070" stroke-width="1"/>
        <path id="Trazado_777104" data-name="Trazado 777104" d="M-10563.667-2734.333l16.667-43.333" fill="none" stroke="#707070" stroke-width="1"/>
        <path id="Trazado_777105" data-name="Trazado 777105" d="M-10605.667-2833v10.667h31V-2833Z" fill="none" stroke="#707070" stroke-width="1"/>
        <path id="Trazado_777106" data-name="Trazado 777106" d="M-10622.333-2807.333H-10608" fill="none" stroke="#707070" stroke-width="1"/>
        <path id="Trazado_777107" data-name="Trazado 777107" d="M-10605.667-2771l1.334-32.333,3.666-19.333V-2769" fill="none" stroke="#707070" stroke-width="1"/>
        <path id="Trazado_777108" data-name="Trazado 777108" d="M-10577.667-2820l-1.666,20.333,3,21.333,1.666-21.333Z" fill="none" stroke="#707070" stroke-width="1"/>
        <path id="Trazado_777109" data-name="Trazado 777109" d="M-10583.667-2774v6l20.334-3.667V-2777Z" fill="none" stroke="#707070" stroke-width="1"/>
        <path id="Trazado_777110" data-name="Trazado 777110" d="M-10555.334-2805h4.667" fill="none" stroke="#707070" stroke-width="1"/>
        <path id="Trazado_777111" data-name="Trazado 777111" d="M-10555.334-2784.667h4.667" fill="none" stroke="#707070" stroke-width="1"/>
        <path id="Trazado_777112" data-name="Trazado 777112" d="M-10596.333-2761.667V-2753l-22.334,3.333V-2758Z" fill="#fff" stroke="#707070" stroke-width="1"/>
      </g>
      <g id="Grupo_1066175" data-name="Grupo 1066175" transform="translate(-21121.063 -5326) rotate(180)">
        <path id="Trazado_777100-2" data-name="Trazado 777100" d="M-10625.667-2875v36.667s6,30.667,3.334,78a2.739,2.739,0,0,0,3,0,17.969,17.969,0,0,1,18.333-9c13,1.667,4.333,31,0,34,10,4.333,26.667,10,26.667,10s8.667-14,26-14.667c-.334,12.667,0,23.667,0,23.667s27.666-6.333,22.666-140.333a34.22,34.22,0,0,1-22.666-18.333Z" fill="#fff" stroke="#707070" stroke-width="1"/>
        <path id="Trazado_777101-2" data-name="Trazado 777101" d="M-10625.667-2867l65.334-1.667" fill="none" stroke="#707070" stroke-width="1"/>
        <path id="Trazado_777102-2" data-name="Trazado 777102" d="M-10563.667-2875s10.666,22.333,14,47" fill="none" stroke="#707070" stroke-width="1"/>
        <path id="Trazado_777103-2" data-name="Trazado 777103" d="M-10556.667-2875s12.668,47,9.334,135.333" fill="none" stroke="#707070" stroke-width="1"/>
        <path id="Trazado_777104-2" data-name="Trazado 777104" d="M-10563.667-2734.333l16.667-43.333" fill="none" stroke="#707070" stroke-width="1"/>
        <path id="Trazado_777105-2" data-name="Trazado 777105" d="M-10605.667-2833v10.667h31V-2833Z" fill="none" stroke="#707070" stroke-width="1"/>
        <path id="Trazado_777106-2" data-name="Trazado 777106" d="M-10622.333-2807.333H-10608" fill="none" stroke="#707070" stroke-width="1"/>
        <path id="Trazado_777107-2" data-name="Trazado 777107" d="M-10605.667-2771l1.334-32.333,3.666-19.333V-2769" fill="none" stroke="#707070" stroke-width="1"/>
        <path id="Trazado_777108-2" data-name="Trazado 777108" d="M-10577.667-2820l-1.666,20.333,3,21.333,1.666-21.333Z" fill="none" stroke="#707070" stroke-width="1"/>
        <path id="Trazado_777109-2" data-name="Trazado 777109" d="M-10583.667-2774v6l20.334-3.667V-2777Z" fill="none" stroke="#707070" stroke-width="1"/>
        <path id="Trazado_777110-2" data-name="Trazado 777110" d="M-10555.334-2805h4.667" fill="none" stroke="#707070" stroke-width="1"/>
        <path id="Trazado_777111-2" data-name="Trazado 777111" d="M-10555.334-2784.667h4.667" fill="none" stroke="#707070" stroke-width="1"/>
        <path id="Trazado_777112-2" data-name="Trazado 777112" d="M-10596.333-2761.667V-2753l-22.334,3.333V-2758Z" fill="#fff" stroke="#707070" stroke-width="1"/>
      </g>
      <g id="Grupo_1066171" data-name="Grupo 1066171">
        <path id="Trazado_777113" data-name="Trazado 777113" d="M-10523.667-2875v31.667s6,40-3,83c.667,13,0,27.333,0,27.333l25.334,12.333,19-4.667-4-85.667v-64Z" fill="#fff" stroke="#707070" stroke-width="1"/>
        <path id="Trazado_777114" data-name="Trazado 777114" d="M-10486.25-2867.833h-37.083" fill="none" stroke="#707070" stroke-width="1"/>
        <path id="Trazado_777115" data-name="Trazado 777115" d="M-10506.723-2810.5h-15.61" fill="none" stroke="#707070" stroke-width="1"/>
      </g>
      <g id="Grupo_1066176" data-name="Grupo 1066176" transform="translate(-21122.668 -5325.5) rotate(180)">
        <path id="Trazado_777113-2" data-name="Trazado 777113" d="M-10523.667-2875v31.667s6,40-3,83c.667,13,0,27.333,0,27.333l25.334,12.333,19-4.667-4-85.667v-64Z" fill="#fff" stroke="#707070" stroke-width="1"/>
        <path id="Trazado_777114-2" data-name="Trazado 777114" d="M-10486.25-2867.833h-37.083" fill="none" stroke="#707070" stroke-width="1"/>
        <path id="Trazado_777115-2" data-name="Trazado 777115" d="M-10506.723-2810.5h-15.61" fill="none" stroke="#707070" stroke-width="1"/>
      </g>
      <g id="Grupo_1066173" data-name="Grupo 1066173">
        <path id="Trazado_777122" data-name="Trazado 777122" d="M-10418-2759.333l-5-3-5.667,4.667,1.667,110h9Z" fill="#fff" stroke="#707070" stroke-width="1"/>
        <g id="Grupo_1066172" data-name="Grupo 1066172">
          <path id="Trazado_777116" data-name="Trazado 777116" d="M-10472.667-2875v24.333s-.334,15-11,20c4.334,21.333,9.333,58.667,9,59.667s2,92.667,2,92.667H-10431l4.667-92.667,8.333-104Z" fill="#fff" stroke="#707070" stroke-width="1"/>
          <path id="Trazado_777117" data-name="Trazado 777117" d="M-10474.667-2771h48.334" fill="none" stroke="#707070" stroke-width="1"/>
          <path id="Trazado_777118" data-name="Trazado 777118" d="M-10454.667-2875l2.667,196.667" fill="none" stroke="#707070" stroke-width="1"/>
          <path id="Trazado_777119" data-name="Trazado 777119" d="M-10447.667-2875l-6.333,49.667V-2875" fill="none" stroke="#707070" stroke-width="1"/>
          <path id="Trazado_777120" data-name="Trazado 777120" d="M-10439.667-2875v30l6.667-30" fill="none" stroke="#707070" stroke-width="1"/>
          <path id="Trazado_777121" data-name="Trazado 777121" d="M-10428-2837.333l-4.333-31.333" fill="none" stroke="#707070" stroke-width="1"/>
        </g>
        <path id="Trazado_777123" data-name="Trazado 777123" d="M-10463.333-2678.333V-2663h35.666v-15.333Z" fill="#fff" stroke="#707070" stroke-width="1"/>
      </g>
      <g id="Grupo_1066177" data-name="Grupo 1066177" transform="translate(-21119.332 -5326) rotate(180)">
        <path id="Trazado_777122-2" data-name="Trazado 777122" d="M-10418-2759.333l-5-3-5.667,4.667,1.667,110h9Z" fill="#fff" stroke="#707070" stroke-width="1"/>
        <g id="Grupo_1066172-2" data-name="Grupo 1066172">
          <path id="Trazado_777116-2" data-name="Trazado 777116" d="M-10472.667-2875v24.333s-.334,15-11,20c4.334,21.333,9.333,58.667,9,59.667s2,92.667,2,92.667H-10431l4.667-92.667,8.333-104Z" fill="#fff" stroke="#707070" stroke-width="1"/>
          <path id="Trazado_777117-2" data-name="Trazado 777117" d="M-10474.667-2771h48.334" fill="none" stroke="#707070" stroke-width="1"/>
          <path id="Trazado_777118-2" data-name="Trazado 777118" d="M-10454.667-2875l2.667,196.667" fill="none" stroke="#707070" stroke-width="1"/>
          <path id="Trazado_777119-2" data-name="Trazado 777119" d="M-10447.667-2875l-6.333,49.667V-2875" fill="none" stroke="#707070" stroke-width="1"/>
          <path id="Trazado_777120-2" data-name="Trazado 777120" d="M-10439.667-2875v30l6.667-30" fill="none" stroke="#707070" stroke-width="1"/>
          <path id="Trazado_777121-2" data-name="Trazado 777121" d="M-10428-2837.333l-4.333-31.333" fill="none" stroke="#707070" stroke-width="1"/>
        </g>
        <path id="Trazado_777123-2" data-name="Trazado 777123" d="M-10463.333-2678.333V-2663h35.666v-15.333Z" fill="#fff" stroke="#707070" stroke-width="1"/>
      </g>
      <g id="Grupo_1066167" data-name="Grupo 1066167">
        <path id="Trazado_777126" data-name="Trazado 777126" d="M-10593-2711c-9-2.667-23.333-8.667-23.333-8.667s-34,47-27.334,115.333c2,5,14.334-24.667,34.667-16.667C-10607-2640.667-10607.333-2672-10593-2711Z" fill="#fff" stroke="#707070" stroke-width="1"/>
        <path id="Trazado_777127" data-name="Trazado 777127" d="M-10618.767-2713.333l24.25,11.125" transform="translate(-1.483 -0.792)" fill="none" stroke="#707070" stroke-width="1"/>
        <path id="Trazado_777124" data-name="Trazado 777124" d="M-10556.667-2718c-7.666,0-31.333-7.667-31.333-7.667l-15.333,48.333s-9,36.333-4.334,69.667c24.334,24,39-5.667,39-5.667s0-10.667,8.667-16.333C-10563-2644.333-10567-2681-10556.667-2718Z" fill="#fff" stroke="#707070" stroke-width="1"/>
        <path id="Trazado_777125" data-name="Trazado 777125" d="M-10590.167-2718.667l31.792,7.667" fill="none" stroke="#707070" stroke-width="1"/>
      </g>
      <g id="Grupo_1066168" data-name="Grupo 1066168" transform="translate(-21119.199 -5324.98) rotate(180)">
        <path id="Trazado_777126-2" data-name="Trazado 777126" d="M-10593-2711c-9-2.667-23.333-8.667-23.333-8.667s-34,47-27.334,115.333c2,5,14.334-24.667,34.667-16.667C-10607-2640.667-10607.333-2672-10593-2711Z" fill="#fff" stroke="#707070" stroke-width="1"/>
        <path id="Trazado_777127-2" data-name="Trazado 777127" d="M-10618.767-2713.333l24.25,11.125" transform="translate(-1.483 -0.792)" fill="none" stroke="#707070" stroke-width="1"/>
        <path id="Trazado_777124-2" data-name="Trazado 777124" d="M-10556.667-2718c-7.666,0-31.333-7.667-31.333-7.667l-15.333,48.333s-9,36.333-4.334,69.667c24.334,24,39-5.667,39-5.667s0-10.667,8.667-16.333C-10563-2644.333-10567-2681-10556.667-2718Z" fill="#fff" stroke="#707070" stroke-width="1"/>
        <path id="Trazado_777125-2" data-name="Trazado 777125" d="M-10590.167-2718.667l31.792,7.667" fill="none" stroke="#707070" stroke-width="1"/>
      </g>
      <path id="Trazado_777128" data-name="Trazado 777128" d="M-10418-2566h-11v46.25l-7,10.25v2.5s15.25-4.75,16.75-16.75S-10418-2566-10418-2566Z" fill="#fff" stroke="#707070" stroke-width="1"/>
      <path id="Trazado_777129" data-name="Trazado 777129" d="M-10419-2511.25s-12.75,2.5-13.25,20.25-1,20.75-5.5,28,5.25-.5,8.5,11.75a40.9,40.9,0,0,0,8.25,0Z" fill="#fff" stroke="#707070" stroke-width="1"/>
    </g>
  </g>
</svg>
