<svg xmlns="http://www.w3.org/2000/svg" xmlns:xlink="http://www.w3.org/1999/xlink" width="1328" height="316" viewBox="0 0 1328 316">
  <defs>
    <clipPath id="clip-path">
      <rect id="Rect치ngulo_361938" data-name="Rect치ngulo 361938" width="1328" height="316" transform="translate(136 827)" fill="#73d8c0"/>
    </clipPath>
  </defs>
  <g id="Grupo_1066141" data-name="Grupo 1066141" transform="translate(-136 -827)">
    <rect id="Rect치ngulo_361937" data-name="Rect치ngulo 361937" width="1328" height="316" transform="translate(136 827)" fill="#73d8c0"/>
    <g id="Enmascarar_grupo_61" data-name="Enmascarar grupo 61" clip-path="url(#clip-path)">
      <g id="Grupo_1054549" data-name="Grupo 1054549" transform="translate(-268.395 205.189)">
        <path id="Trazado_774264" data-name="Trazado 774264" d="M1441.393,624.771c19.944-3.622,21.914-19.5,24.353-38.436,5.973-46.379-4.344-94.783,9.267-139.52a135.7,135.7,0,0,1,34.638-57.1c12.74-12.493,27.819-22.335,41.194-34.145s25.4-26.36,29.14-43.807c5.41-25.259-7.395-51.769-2.03-77.038,3.979-18.739,17.568-34.167,33.117-45.354,7.774-5.593,16.705-10.509,26.28-10.272,13.114.324,24.348,10.531,29.829,22.448s6.331,25.368,7.056,38.466c4.922,88.969,7.984,178.246,1.681,267.129-3.791,53.449-11.486,108.255-38.239,154.682-7.843,13.611-17.476,26.554-30.359,35.543-16.82,11.736-37.757,15.809-58.158,17.92-46.437,4.8-93.284.913-139.807-2.979-25.905-2.167-102.333,5.412-88.215-43.777,3.186-11.1,12.817-19.058,22.55-25.276,18.326-11.706,39.507-19.989,61.248-19.549,10.657.215,21.274,2.508,31.9,1.651Q1439.259,625.161,1441.393,624.771Z" transform="translate(60.413 332.916)" fill="#baefe4"/>
        <path id="Trazado_774265" data-name="Trazado 774265" d="M73.865,732.592c-.3-1.471-.579-2.943-.857-4.409-3.157-16.641-6.066-32.576-21.143-42.925-12.267-8.42-28.681-7.651-43.083-3.915s-28.188,10.088-42.956,11.906a72.693,72.693,0,0,1-61.587-22.836c-10.884-11.964-18.279-28.075-32.842-35.113-9.516-4.6-20.752-4.453-31.013-1.919-18.869,4.66-35.337,17.012-46.97,32.581s-18.691,34.2-22.611,53.234a186.056,186.056,0,0,0,.63,77.718c6.009,26.961,18.586,53.13,39.308,71.393,9.934,8.755,21.5,15.51,33.554,20.992,50.238,22.852,107.69,23.574,162.621,18.227,33.771-3.287,68.262-9.031,97.476-26.29,17-10.044,19.492-28.151,25.453-45.309,6.016-17.319,2.455-38.3-10.574-51.549C107.459,772.365,89.614,766.5,80.713,752.2,77.032,746.286,75.258,739.46,73.865,732.592Z" transform="translate(558.387 184.305)" fill="#baefe4"/>
        <path id="Trazado_774266" data-name="Trazado 774266" d="M-7.9,27.59c4.79-13.77,3.108-28.726,2.482-43.212s.237-30.154,8.952-41.82c5.076-6.8,12.572-11.842,15.992-19.617,5.1-11.593-.926-25.413-10.337-33.39-4.961-4.2-11.115-7.377-17.636-7.233-8.177.18-15.507,5.461-21.369,11.4C-55.271-80.515-61.947-41.792-65.776-5.738c-1.47,13.838-2.607,28.426,2.986,40.97C-50.977,61.729-16.445,52.159-7.9,27.59Z" transform="translate(425.007 702.848)" fill="#fff"/>
        <path id="Trazado_774267" data-name="Trazado 774267" d="M-16.475,893.232c-3.808-8.341-7.55-17.073-14.343-23.231s-17.666-8.922-25.2-3.7c-5.059,3.5-7.5,9.644-11.509,14.313-3.445,4.01-8,6.875-11.982,10.353s-7.562,7.982-7.936,13.255c-.612,8.627,7.318,15.352,15.025,19.276A85.29,85.29,0,0,0-29.3,932.6c7.528-.412,28.19-3.38,28.508-14.1.126-4.242-5.21-7.558-7.541-10.59C-11.736,903.487-14.165,898.29-16.475,893.232Z" transform="translate(481.364 14.304)" fill="#025157"/>
        <g id="Grupo_1054546" data-name="Grupo 1054546" transform="translate(482.379 633.637)">
          <path id="Trazado_774269" data-name="Trazado 774269" d="M300.678,253.453c1.124-5.183,2.209-10.791.027-15.624-2.439-5.4-8.564-8.427-14.484-8.665-5.074-.2-10.764,1.859-12.711,6.548-1.654,3.985-.561,9.455-4.082,11.947-1.353.958-3.086,1.176-4.583,1.89a7.623,7.623,0,0,0-4.185,5.674c-1.608,10.995,13.091,9.31,19.414,7.653C287.213,261.006,298.774,262.231,300.678,253.453Z" transform="translate(-250.949 -229.149)" fill="#f5947a"/>
          <path id="Trazado_774270" data-name="Trazado 774270" d="M234.819,241.657a4.594,4.594,0,0,0,6.283-1.408,5.033,5.033,0,0,0-1.375-6.427,5.116,5.116,0,1,0-3.439,9.232" transform="translate(-231.644 -231.69)" fill="#025157"/>
        </g>
        <path id="Trazado_774271" data-name="Trazado 774271" d="M-244.236,264.242c52.431,4.226,119.979,30.867,162.839-11.659,17.112-16.979,26.125-42.153,22.36-65.963-2.668-16.878-11.268-32.32-14.487-49.1-6.306-32.872,10.938-68.885,40.5-84.582,31.4-16.67,68.756-14.665,96.716-38.982A109,109,0,0,0,88.844-18.739,73.851,73.851,0,0,0,95.326-35.6c5.76-24.893-7.01-49.928-19.362-72.3" transform="translate(499.865 510.709)" fill="none" stroke="#025157" stroke-miterlimit="10" stroke-width="1.607"/>
        <path id="Trazado_774272" data-name="Trazado 774272" d="M50.342,58.548c2.572-12.771.861-26.433,4.382-39.069A96.628,96.628,0,0,1,59.845,6.265L62.633,0A114.006,114.006,0,0,1,54.29,51.22a82.155,82.155,0,0,1-2.9,7.934q1.358-2.245,2.72-4.486c3.042-5,6.114-10.033,10.113-14.3,3.549-3.789,7.752-6.892,11.707-10.255s7.745-7.087,10.126-11.7A17.833,17.833,0,0,1,83.852,28.8a53.113,53.113,0,0,1-6.217,8.788c-4.508,5.536-9.043,11.1-14.4,15.822-3,2.692-6.29,5.052-9.453,7.547-1.4,1.1-3.368,2.427-5.061,3.9A85.678,85.678,0,0,1,38.177,80.685c5.645-2.548,11.258-5.195,15.956-9.186,3.3-2.8,6.129-6.251,9.973-8.232,4.457-2.3,9.681-2.325,14.665-2.868s10.345-1.918,13.355-5.928a31.418,31.418,0,0,1-9.6,11.605,93.856,93.856,0,0,1-12.91,8.012c-7.04,3.858-14.43,7.815-22.456,8-2.907.068-5.834-.366-8.711.051a11.73,11.73,0,0,0-1.919.448q-2.466,2.766-5.165,5.312-2,1.88-4.033,3.66A44.061,44.061,0,0,1,45.7,87.972a76.372,76.372,0,0,1,19.6,3.046,59.329,59.329,0,0,0,8.691,2.035A15.064,15.064,0,0,0,82.7,91.789a49.468,49.468,0,0,1-8.672,7.095,16.622,16.622,0,0,1-10.719,2.523c-3.462-.516-6.544-2.469-9.933-3.346-4.055-1.049-8.348-.515-12.495-1.1-3.4-.483-6.661-1.715-10.05-2.295a18.509,18.509,0,0,0-3.915-.277c-1.1.048-2.381.609-3.443.515-.038,0-.07-.009-.106-.013a83.146,83.146,0,0,1-19.9,12.046,4.805,4.805,0,0,1-1.786.483,1.7,1.7,0,0,1-1.556-.834,1.721,1.721,0,0,1,.468-1.9,5.233,5.233,0,0,1,1.812-1,91.9,91.9,0,0,0,17.106-8.963c-.913-.86-1.171-4.378-1.553-5.409a35.07,35.07,0,0,0-3.705-6.991c-2.775-4.224-5.992-8.3-7.414-13.152A26.174,26.174,0,0,1,6.585,56.9a78.2,78.2,0,0,1,3.607-11.832c-.885,2.741.061,5.743,1.408,8.289s3.11,4.9,4.029,7.627c1.383,4.107.735,8.709,2.265,12.763,1.016,2.694,2.929,4.962,4.082,7.6A14.774,14.774,0,0,1,23,89.373,14.235,14.235,0,0,1,22.007,93q1.226-.876,2.424-1.792a64.181,64.181,0,0,0,7.149-6.443,8.834,8.834,0,0,0-.255-6.565c-1.344-2.917-4.2-4.91-5.6-7.8-1.3-2.687-1.205-5.823-1.971-8.71-.8-3.028-2.559-5.782-3.012-8.881-1.181-8.078,6.682-15.35,5.76-23.462a239.061,239.061,0,0,0,6.126,29.715c.858,2.971,1.815,5.913,2.675,8.883,1.037,3.583,2.02,7.579,1.157,11.314,1.857-2.261,3.619-4.585,5.292-6.9q1.668-2.313,3.22-4.706a9.725,9.725,0,0,0,.285-2.322,23.671,23.671,0,0,0-.819-5.387c-.727-3.135-1.482-6.336-3.2-9.056-1.31-2.072-3.138-3.791-4.35-5.922-2.555-4.494-2-10.081-.852-15.122s2.829-10.117,2.278-15.258c4.013,6.883,5.242,14.991,6.3,22.887q1.217,9.069,2.27,18.16a32.5,32.5,0,0,1,.3,6.743,15.351,15.351,0,0,1-.427,2.435q1.322-2.172,2.549-4.4C49.64,59.8,49.988,59.18,50.342,58.548Z" transform="translate(517.826 845.928) rotate(9)" fill="#f3f9ff"/>
        <g id="Grupo_1054547" data-name="Grupo 1054547" transform="translate(1501.606 606.538)">
          <path id="Trazado_774273" data-name="Trazado 774273" d="M1720.112,180.508c-.448,2.171-.648,4.924,1.266,6.394,1.426,1.1,3.194,2.052,5.061,1.707,3.433-.633,3.3-3.249,3.516-6.294a11.193,11.193,0,0,0-.468-4.81,4.721,4.721,0,0,0-3.466-3.1,4.627,4.627,0,0,0-4.108,1.811A9.8,9.8,0,0,0,1720.112,180.508Z" transform="translate(-1692.925 -99.549)" fill="#f5947a"/>
          <path id="Trazado_774274" data-name="Trazado 774274" d="M1700.7,143.469a3.772,3.772,0,0,0-.172-1.287,3.926,3.926,0,0,0-.541-.905l-1.321-1.815a5.868,5.868,0,0,0-1.7-1.76,3.788,3.788,0,0,0-3.169-.123,8.411,8.411,0,0,0-2.7,1.824,10.045,10.045,0,0,0-2.4,3.09c-2.145,4.708,1.88,10.581,6.143,12.575C1700.992,157.947,1700.742,146.74,1700.7,143.469Z" transform="translate(-1677.346 -81.334)" fill="#f5947a"/>
          <path id="Trazado_774275" data-name="Trazado 774275" d="M1680.339,101.5a4.833,4.833,0,0,0-1.4-1.82c-2.244-2.1-4.57-4.26-7.458-5.32a3.676,3.676,0,0,0-2.722-.151c-1.314.586-1.7,2.253-1.775,3.69-.2,3.744,1.214,9.122,5.619,9.9C1675.573,108.325,1681.587,105.109,1680.339,101.5Z" transform="translate(-1666.963 -60.071)" fill="#f5947a"/>
          <path id="Trazado_774276" data-name="Trazado 774276" d="M1698.4,47.953c-1.076-2.077-2.913-4.162-5.25-4.057a7.371,7.371,0,0,0-4.016,2.009,9.964,9.964,0,0,0-3.377,3.807,8.53,8.53,0,0,0-.486,2.551c-.381,5.28,3.709,10.224,9.456,9.056C1700.659,60.113,1700.562,52.122,1698.4,47.953Z" transform="translate(-1675.946 -35.451)" fill="#f5947a"/>
          <path id="Trazado_774277" data-name="Trazado 774277" d="M1742.58,35.889a8.437,8.437,0,0,0,.846-2.392,7.878,7.878,0,0,0-.7-3.793,3.8,3.8,0,0,0-1.484-2.151c-1.011-.551-2.265-.114-3.289.415-3.354,1.733-6.147,4.356-8.893,6.946a8.071,8.071,0,0,0-1.509,1.721,5.51,5.51,0,0,0-.67,2.632c-.1,3.618,3.107,7.612,7.018,6.345C1738.345,44.173,1740.732,39.807,1742.58,35.889Z" transform="translate(-1696.399 -27.298)" fill="#f5947a"/>
          <path id="Trazado_774278" data-name="Trazado 774278" d="M1721.629,98.63a7.38,7.38,0,0,0,1.624-1.973c.493-1.26-.278-2.672-1.244-3.619a12.421,12.421,0,0,0-4.5-2.66,5.049,5.049,0,0,0-3.273-.329,3.818,3.818,0,0,0-2.227,2.4,10.886,10.886,0,0,0-.481,3.335c-.1,2.742-.037,7.69,3.624,8.172C1718.566,104.4,1719.852,100.638,1721.629,98.63Z" transform="translate(-1688.842 -58.048)" fill="#f5947a"/>
          <path id="Trazado_774279" data-name="Trazado 774279" d="M1764.492,82a5.242,5.242,0,0,0-3.572-5.1,8.657,8.657,0,0,0-4.021-.046,10.451,10.451,0,0,0-3.18.97,9.1,9.1,0,0,0-4.144,5.933,8.594,8.594,0,0,0-.184,4.049c.906,3.9,5.789,5.734,9.411,4.585C1762.859,91.1,1764.317,85.749,1764.492,82Z" transform="translate(-1707.375 -51.538)" fill="#f5947a"/>
          <path id="Trazado_774280" data-name="Trazado 774280" d="M1788.539,126.372a11.466,11.466,0,0,0,.285-3.228c-.01-1.45-.071-3.042-1.038-4.123-1.051-1.176-2.8-1.343-4.381-1.387a12.01,12.01,0,0,0-3.633.293,4.005,4.005,0,0,0-2.876,5.631c.93,2.553,3.124,5.311,5.882,5.943A4.857,4.857,0,0,0,1788.539,126.372Z" transform="translate(-1720.806 -71.669)" fill="#f5947a"/>
          <path id="Trazado_774281" data-name="Trazado 774281" d="M1744.174,137.8a10.143,10.143,0,0,0-2.6-4.849c-1.786-2.182-3.91-4.424-6.7-4.825a2.013,2.013,0,0,0-2.626,1.478,8.9,8.9,0,0,0,.213,5.535,22.738,22.738,0,0,0,2.6,4.981c1.109,1.717,3.052,4.582,5.486,3.945C1742.9,143.451,1744.467,140,1744.174,137.8Z" transform="translate(-1698.864 -76.81)" fill="#f5947a"/>
          <path id="Trazado_774282" data-name="Trazado 774282" d="M1782.73,165.378a5.6,5.6,0,0,0-1.944-4.472,6.558,6.558,0,0,0-4.226-.865,5.77,5.77,0,0,0-3.323.953c-1.227.967-1.583,2.658-1.724,4.213a14.266,14.266,0,0,0,.329,5.17c.747,2.632,3.543,6.1,6.506,4.363C1781.262,173.034,1782.811,168.546,1782.73,165.378Z" transform="translate(-1718.281 -92.499)" fill="#f5947a"/>
        </g>
        <g id="Grupo_1054548" data-name="Grupo 1054548" transform="translate(404.696 882.728)">
          <path id="Trazado_774283" data-name="Trazado 774283" d="M1719.911,176.416a2.077,2.077,0,0,0,.422,2.132,2.2,2.2,0,0,0,1.687.569c1.145-.211,1.1-1.083,1.172-2.1a3.73,3.73,0,0,0-.156-1.6,1.574,1.574,0,0,0-1.156-1.033,1.543,1.543,0,0,0-1.37.6A3.266,3.266,0,0,0,1719.911,176.416Z" transform="translate(-1710.848 -149.426)" fill="#f5947a"/>
          <path id="Trazado_774284" data-name="Trazado 774284" d="M1692.3,139.351a1.258,1.258,0,0,0-.057-.429,1.308,1.308,0,0,0-.18-.3l-.44-.605a1.955,1.955,0,0,0-.568-.587,1.263,1.263,0,0,0-1.056-.041,2.8,2.8,0,0,0-.9.608,3.346,3.346,0,0,0-.8,1.03c-.715,1.57.627,3.528,2.048,4.192C1692.4,144.178,1692.314,140.442,1692.3,139.351Z" transform="translate(-1684.514 -118.637)" fill="#f5947a"/>
          <path id="Trazado_774285" data-name="Trazado 774285" d="M1671.422,96.508a1.612,1.612,0,0,0-.468-.607,7.7,7.7,0,0,0-2.486-1.774,1.226,1.226,0,0,0-.908-.05,1.347,1.347,0,0,0-.592,1.23c-.068,1.248.4,3.041,1.873,3.3C1669.833,98.782,1671.839,97.71,1671.422,96.508Z" transform="translate(-1666.963 -82.695)" fill="#f5947a"/>
          <path id="Trazado_774286" data-name="Trazado 774286" d="M1689.633,45.246c-.359-.692-.971-1.388-1.75-1.352a2.457,2.457,0,0,0-1.339.67,3.322,3.322,0,0,0-1.126,1.269,2.844,2.844,0,0,0-.162.85,2.7,2.7,0,0,0,3.152,3.019C1690.385,49.3,1690.353,46.636,1689.633,45.246Z" transform="translate(-1682.146 -41.078)" fill="#f5947a"/>
          <path id="Trazado_774287" data-name="Trazado 774287" d="M1732.116,30.163a2.806,2.806,0,0,0,.282-.8,2.624,2.624,0,0,0-.232-1.264,1.267,1.267,0,0,0-.495-.717,1.207,1.207,0,0,0-1.1.138,13.556,13.556,0,0,0-2.965,2.316,2.689,2.689,0,0,0-.5.574,1.84,1.84,0,0,0-.223.878c-.034,1.206,1.036,2.538,2.34,2.115C1730.7,32.924,1731.5,31.468,1732.116,30.163Z" transform="translate(-1716.72 -27.299)" fill="#f5947a"/>
          <path id="Trazado_774288" data-name="Trazado 774288" d="M1714.876,92.8a2.462,2.462,0,0,0,.541-.658A1.19,1.19,0,0,0,1715,90.94a4.14,4.14,0,0,0-1.5-.887,1.683,1.683,0,0,0-1.091-.11,1.273,1.273,0,0,0-.742.8,3.625,3.625,0,0,0-.16,1.112c-.033.914-.012,2.564,1.208,2.725C1713.855,94.729,1714.284,93.474,1714.876,92.8Z" transform="translate(-1703.946 -79.276)" fill="#f5947a"/>
          <path id="Trazado_774289" data-name="Trazado 774289" d="M1754.314,78.427a1.748,1.748,0,0,0-1.191-1.7,2.886,2.886,0,0,0-1.341-.015,3.486,3.486,0,0,0-1.06.323,3.033,3.033,0,0,0-1.382,1.978,2.866,2.866,0,0,0-.061,1.35,2.484,2.484,0,0,0,3.137,1.528C1753.77,81.462,1754.256,79.677,1754.314,78.427Z" transform="translate(-1735.273 -68.272)" fill="#f5947a"/>
          <path id="Trazado_774290" data-name="Trazado 774290" d="M1780.557,120.536a3.819,3.819,0,0,0,.095-1.076,2.035,2.035,0,0,0-.346-1.374,1.973,1.973,0,0,0-1.46-.463,4.006,4.006,0,0,0-1.211.1,1.335,1.335,0,0,0-.958,1.877,3.1,3.1,0,0,0,1.961,1.981A1.619,1.619,0,0,0,1780.557,120.536Z" transform="translate(-1757.976 -102.3)" fill="#f5947a"/>
          <path id="Trazado_774291" data-name="Trazado 774291" d="M1735.991,131.322a3.382,3.382,0,0,0-.867-1.617,3.854,3.854,0,0,0-2.234-1.609.671.671,0,0,0-.875.493,2.968,2.968,0,0,0,.071,1.845,7.584,7.584,0,0,0,.868,1.66c.37.573,1.017,1.527,1.829,1.315A2.082,2.082,0,0,0,1735.991,131.322Z" transform="translate(-1720.885 -110.989)" fill="#f5947a"/>
          <path id="Trazado_774292" data-name="Trazado 774292" d="M1775.193,161.805a1.867,1.867,0,0,0-.648-1.491,2.186,2.186,0,0,0-1.409-.288,1.924,1.924,0,0,0-1.108.318,1.951,1.951,0,0,0-.575,1.4,4.756,4.756,0,0,0,.11,1.724c.249.877,1.181,2.033,2.169,1.455A3.771,3.771,0,0,0,1775.193,161.805Z" transform="translate(-1753.706 -137.509)" fill="#f5947a"/>
        </g>
        <path id="Trazado_774293" data-name="Trazado 774293" d="M78.653,91.474C82.672,71.522,80,50.177,85.5,30.434c1.983-7.116,5-13.9,8-20.646L97.856,0A178.119,178.119,0,0,1,84.821,80.025a128.355,128.355,0,0,1-4.523,12.4q2.122-3.507,4.25-7.009c4.753-7.806,9.553-15.675,15.8-22.346,5.545-5.92,12.111-10.768,18.29-16.022s12.1-11.072,15.821-18.279c.723,5.57-.857,11.244-3.453,16.225s-6.167,9.375-9.714,13.729c-7.043,8.649-14.128,17.342-22.491,24.72-4.69,4.206-9.828,7.893-14.769,11.79-2.188,1.726-5.262,3.792-7.907,6.092A133.86,133.86,0,0,1,59.647,126.06c8.82-3.981,17.59-8.116,24.929-14.351,5.149-4.374,9.576-9.767,15.582-12.862,6.963-3.588,15.125-3.632,22.912-4.481s16.163-3,20.865-9.262c-3.235,7.232-8.757,13.252-15,18.132s-13.223,8.71-20.17,12.518c-11,6.028-22.545,12.21-35.084,12.5-4.541.106-9.114-.571-13.61.079a18.326,18.326,0,0,0-3,.7q-3.853,4.321-8.069,8.3-3.118,2.938-6.3,5.718a68.839,68.839,0,0,1,28.686-5.609,119.321,119.321,0,0,1,30.623,4.758c4.488,1.233,8.957,2.634,13.579,3.179s9.483.176,13.61-1.974c-4.233,4.036-8.514,8.107-13.548,11.085s-10.962,4.805-16.747,3.943c-5.41-.807-10.224-3.857-15.519-5.227-6.335-1.639-13.043-.8-19.521-1.724-5.318-.755-10.407-2.68-15.7-3.585a28.917,28.917,0,0,0-6.116-.433c-1.721.075-3.72.951-5.378.8-.06-.006-.109-.014-.165-.02a129.905,129.905,0,0,1-31.088,18.82,7.507,7.507,0,0,1-2.791.754,2.651,2.651,0,0,1-2.432-1.3,2.688,2.688,0,0,1,.731-2.963,8.175,8.175,0,0,1,2.831-1.57,143.577,143.577,0,0,0,26.726-14c-1.426-1.344-1.829-6.84-2.426-8.451a54.793,54.793,0,0,0-5.789-10.922c-4.336-6.6-9.362-12.97-11.583-20.548-1.814-6.189-1.62-12.828-.4-19.16a122.175,122.175,0,0,1,5.636-18.486c-1.382,4.283.095,8.973,2.2,12.95s4.858,7.652,6.294,11.917c2.16,6.416,1.149,13.606,3.539,19.94,1.588,4.209,4.577,7.752,6.377,11.875a23.082,23.082,0,0,1,1.593,12.533,22.24,22.24,0,0,1-1.545,5.664q1.916-1.369,3.788-2.8a100.276,100.276,0,0,0,11.17-10.067,13.8,13.8,0,0,0-.4-10.256c-2.1-4.557-6.561-7.672-8.754-12.186-2.038-4.2-1.883-9.1-3.08-13.609-1.255-4.731-4-9.033-4.706-13.876-1.845-12.622,10.44-23.983,9-36.656,2.429,15.624,5.181,31.236,9.57,46.426,1.341,4.642,2.836,9.238,4.18,13.879,1.62,5.6,3.156,11.841,1.807,17.676,2.9-3.533,5.655-7.163,8.267-10.785q2.606-3.613,5.03-7.353a15.194,15.194,0,0,0,.445-3.627,36.983,36.983,0,0,0-1.28-8.416c-1.136-4.9-2.315-9.9-5-14.148-2.047-3.238-4.9-5.923-6.8-9.253C53.633,63.226,54.5,54.5,56.294,46.623s4.419-15.807,3.559-23.839C66.123,33.538,68.043,46.2,69.7,58.542q1.9,14.17,3.547,28.373a50.777,50.777,0,0,1,.471,10.535,23.984,23.984,0,0,1-.667,3.805q2.066-3.393,3.983-6.874C77.555,93.433,78.1,92.461,78.653,91.474Z" transform="translate(1642.058 759.759) rotate(-150)" fill="#f3f9ff"/>
        <path id="Trazado_774294" data-name="Trazado 774294" d="M1729.854,879.5c-17.374-3.054-35.93-15.792-34.179-34.211,1.4-14.734,15.239-25.817,18.426-40.336,3.878-17.667-9.082-33.709-23.019-43.661s-30.4-17.718-39.051-32.828c-13.282-23.2-2.9-54.393,12.357-77.676,12.423-18.958,30.138-36.968,51.747-39.046,8.91-.857,17.734,1.11,26.12,3.85,60.43,19.738,100.616,77.64,126.019,137.587C1903.853,837.138,1798.4,891.547,1729.854,879.5Z" transform="translate(-93.89 128.556)" fill="#f5947a"/>
        <path id="Trazado_774295" data-name="Trazado 774295" d="M1453.83,1062.139c2.29,1.185-2.915,1.421-3.224-1.139-2.126-17.6,10.7-34.254,26.454-42.382s33.975-9.621,51.635-11.213,35.923-3.627,51.2-12.622c22.068-12.99,33.738-37.747,46.219-60.106s29.675-45.483,54.881-50c20.09-3.6,39.971,5.648,60.064,9.223a109.428,109.428,0,0,0,50.442-2.926" transform="translate(-40.445 -0.139)" fill="none" stroke="#31585e" stroke-miterlimit="10" stroke-width="1.607"/>
      </g>
    </g>
  </g>
</svg>
