<svg xmlns="http://www.w3.org/2000/svg" xmlns:xlink="http://www.w3.org/1999/xlink" width="125" height="125" viewBox="0 0 125 125">
  <defs>
    <clipPath id="clip-path">
      <rect id="Rect치ngulo_374124" data-name="Rect치ngulo 374124" width="73" height="73" transform="translate(921 5617)" fill="#fff" stroke="#707070" stroke-width="1"/>
    </clipPath>
  </defs>
  <g id="Grupo_1066203" data-name="Grupo 1066203" transform="translate(-895 -5591)">
    <g id="Grupo_1066202" data-name="Grupo 1066202">
      <g id="Grupo_1066201" data-name="Grupo 1066201">
        <circle id="Elipse_4040" data-name="Elipse 4040" cx="62.5" cy="62.5" r="62.5" transform="translate(895 5591)" fill="#baefe4"/>
        <g id="Enmascarar_grupo_139" data-name="Enmascarar grupo 139" clip-path="url(#clip-path)">
          <g id="filled_outline" data-name="filled outline" transform="translate(918.566 5614.567)">
            <path id="Trazado_777065" data-name="Trazado 777065" d="M4.867,60.833h7.3V74.217h-7.3Z" fill="#7a4922"/>
            <path id="Trazado_777066" data-name="Trazado 777066" d="M69.35,17.033H65.7l-5.308,7.077,1.658,2.656,3.65,7.3h3.65Z" fill="#bbbab6"/>
            <path id="Trazado_777067" data-name="Trazado 777067" d="M48.667,51.1l1.911-12.163A8.53,8.53,0,0,0,42.133,29.2H26.927a5.779,5.779,0,0,0-5.312,3.5l-2.149,5.014H14.6v-21.9h4.867l.668,1.336a6.388,6.388,0,0,0,5.713,3.531h.019a31.465,31.465,0,0,0,6.593-.7l7.713-1.653a58.5,58.5,0,0,1,12.259-1.3h.45A10.385,10.385,0,0,1,63.267,27.418V51.1Z" fill="#cb2527"/>
            <path id="Trazado_777068" data-name="Trazado 777068" d="M63.267,28.914v5.438a3.65,3.65,0,1,1,0-5.438Z" fill="#5ebef7"/>
            <rect id="Rect치ngulo_374127" data-name="Rect치ngulo 374127" width="4.867" height="21.9" rx="2.433" transform="translate(69.35 14.6)" fill="#eae9e4"/>
            <path id="Trazado_777069" data-name="Trazado 777069" d="M14.6,51.1H3.65v9.733H71.783V51.1Z" fill="#8f5528"/>
            <path id="Trazado_777070" data-name="Trazado 777070" d="M16.121,48.362H44.712A2.737,2.737,0,0,1,47.45,51.1V74.217H13.383V51.1A2.737,2.737,0,0,1,16.121,48.362Z" fill="#ee9d0d"/>
            <g id="Grupo_1066140" data-name="Grupo 1066140">
              <path id="Trazado_777071" data-name="Trazado 777071" d="M30.417,64.483A8.517,8.517,0,0,1,38.933,73v1.217H21.9V73a8.517,8.517,0,0,1,8.517-8.517Z" fill="#d78e0c"/>
              <path id="Trazado_777072" data-name="Trazado 777072" d="M13.383,74.217h-.3a4.562,4.562,0,0,1-4.355-3.2L3.65,55.967h9.733Z" fill="#d78e0c"/>
              <path id="Trazado_777073" data-name="Trazado 777073" d="M47.45,74.217h.3a4.562,4.562,0,0,0,4.355-3.2l5.083-15.048H47.45Z" fill="#d78e0c"/>
            </g>
            <path id="Trazado_777074" data-name="Trazado 777074" d="M51.1,3.65h7.3v9.733H51.1Z" fill="#faa6b2"/>
            <path id="Trazado_777075" data-name="Trazado 777075" d="M63.267,60.833h7.3V74.217h-7.3Z" fill="#7a4922"/>
            <path id="Trazado_777076" data-name="Trazado 777076" d="M63.267,28.914v5.438a3.65,3.65,0,1,1,0-5.438Z" fill="#b22122"/>
            <path id="Trazado_777077" data-name="Trazado 777077" d="M14.6,37.717h4.867v4.867H14.6Z" fill="#dcdbd6"/>
            <circle id="Elipse_4767" data-name="Elipse 4767" cx="3.65" cy="3.65" r="3.65" transform="translate(57.183 26.767)" fill="#eae9e4"/>
            <path id="Trazado_777078" data-name="Trazado 777078" d="M71.783,13.383a3.656,3.656,0,0,0-3.441,2.433H65.7a1.217,1.217,0,0,0-.973.487L61.88,20.1a11.674,11.674,0,0,0-.8-.884,11.532,11.532,0,0,0-5.119-2.982V14.6H58.4a1.217,1.217,0,0,0,1.217-1.217V3.65A1.217,1.217,0,0,0,58.4,2.433H51.1A1.217,1.217,0,0,0,49.883,3.65v9.733A1.217,1.217,0,0,0,51.1,14.6h2.433v1.236c-.216-.012-.433-.019-.652-.019h-.45a59.8,59.8,0,0,0-12.5,1.323L32.2,18.8a30.293,30.293,0,0,1-6.338.671h-.019a5.142,5.142,0,0,1-4.625-2.859l-.668-1.336a1.217,1.217,0,0,0-1.088-.672H18.25V13.383a1.217,1.217,0,0,0,0-2.433H15.817a1.217,1.217,0,0,0,0,2.433V14.6H14.6a1.217,1.217,0,0,0-1.217,1.217V42.583A1.217,1.217,0,0,0,14.6,43.8h1.217v2.433a1.217,1.217,0,1,0,2.433,0V43.8h1.217a1.217,1.217,0,0,0,1.217-1.217H21.9a1.217,1.217,0,1,0,2.433,0V40.15a1.217,1.217,0,1,0-2.433,0H20.683V37.966l2.05-4.784a4.557,4.557,0,0,1,4.194-2.765H42.133a7.314,7.314,0,0,1,7.241,8.34l-1.7,10.8a3.945,3.945,0,0,0-2.966-1.343H16.121a3.951,3.951,0,0,0-3.227,1.673H3.65A1.217,1.217,0,0,0,2.433,51.1v5.019a1.21,1.21,0,0,0,.219.695l1.032,3.055a1.217,1.217,0,0,0-.034.28V74.217a1.217,1.217,0,0,0,1.212,1.217H47.746a5.755,5.755,0,0,0,5.512-4.041l3.155-9.342H62.05V74.217a1.217,1.217,0,0,0,1.217,1.217h7.3a1.217,1.217,0,0,0,1.217-1.217V62.05A1.217,1.217,0,0,0,73,60.833V51.1a1.217,1.217,0,0,0-1.217-1.217h-7.3V34.354l.129.257a1.217,1.217,0,0,0,1.088.673h2.643a3.65,3.65,0,0,0,7.091-1.217V17.033A3.654,3.654,0,0,0,71.783,13.383ZM6.083,73V66.973l1.493,4.419a5.813,5.813,0,0,0,.806,1.622Zm6.083-.132a3.33,3.33,0,0,1-2.273-2.22l-.009-.026L5.345,57.183h6.822Zm0-18.123h-7.3V52.317h7.3ZM23.117,73a7.3,7.3,0,0,1,14.6,0Zm23.117,0H40.15a9.733,9.733,0,0,0-19.467,0H14.6V52.165a1.523,1.523,0,0,1,1.521-1.521H44.712a1.523,1.523,0,0,1,1.521,1.521ZM63.267,30.417a2.433,2.433,0,1,1-2.433-2.433,2.433,2.433,0,0,1,2.433,2.433ZM52.317,4.867h4.867V7.3H52.317Zm0,7.3V9.733h4.867v2.433ZM18.25,41.367H15.817V38.933H18.25ZM42.133,27.983H26.927a6.988,6.988,0,0,0-6.43,4.24L18.664,36.5H15.817V17.033h2.9l.332.663a7.563,7.563,0,0,0,6.8,4.2h.019a32.715,32.715,0,0,0,6.842-.724l7.719-1.654a57.392,57.392,0,0,1,12-1.272h.45a9.168,9.168,0,0,1,9,7.415,4.867,4.867,0,1,0,.169,9.465V49.883H59.617V45.017a1.217,1.217,0,1,0-2.433,0v4.867H50.089L51.78,39.126l0-.017a9.747,9.747,0,0,0-9.649-11.125Zm8.814,42.642-.009.026a3.33,3.33,0,0,1-2.273,2.221V57.183h6.822ZM69.35,73H64.483V62.05H69.35Zm1.217-20.683v7.3H57.235l1.1-3.261a1.217,1.217,0,0,0-1.153-1.606H48.667V52.317ZM68.133,32.85H66.452L65.676,31.3c-.013-.027-.028-.052-.043-.076a4.849,4.849,0,0,0-1.19-4.065,1.222,1.222,0,0,0,.026-.314,11.587,11.587,0,0,0-1.184-4.56l3.023-4.032h1.825ZM73,34.067a1.217,1.217,0,1,1-2.433,0V17.033a1.217,1.217,0,1,1,2.433,0Z"/>
            <path id="Trazado_777079" data-name="Trazado 777079" d="M20.683,57.183H18.25a1.217,1.217,0,0,0,0,2.433h2.433a1.217,1.217,0,0,0,0-2.433Z"/>
            <path id="Trazado_777080" data-name="Trazado 777080" d="M27.983,57.183H25.55a1.217,1.217,0,0,0,0,2.433h2.433a1.217,1.217,0,0,0,0-2.433Z"/>
            <path id="Trazado_777081" data-name="Trazado 777081" d="M35.283,57.183H32.85a1.217,1.217,0,0,0,0,2.433h2.433a1.217,1.217,0,0,0,0-2.433Z"/>
            <path id="Trazado_777082" data-name="Trazado 777082" d="M42.583,57.183H40.15a1.217,1.217,0,0,0,0,2.433h2.433a1.217,1.217,0,0,0,0-2.433Z"/>
            <path id="Trazado_777083" data-name="Trazado 777083" d="M10.95,32.85a1.217,1.217,0,0,0-2.433,0v2.433a1.217,1.217,0,0,0,2.433,0Z"/>
            <path id="Trazado_777084" data-name="Trazado 777084" d="M9.733,38.933A1.217,1.217,0,0,0,8.517,40.15v6.083a1.217,1.217,0,1,0,2.433,0V40.15A1.217,1.217,0,0,0,9.733,38.933Z"/>
            <path id="Trazado_777085" data-name="Trazado 777085" d="M58.4,41.367a1.217,1.217,0,0,0,1.217-1.217V37.717a1.217,1.217,0,1,0-2.433,0V40.15A1.217,1.217,0,0,0,58.4,41.367Z"/>
          </g>
        </g>
      </g>
    </g>
  </g>
</svg>
