<svg xmlns="http://www.w3.org/2000/svg" width="125" height="125" viewBox="0 0 125 125">
  <g id="Grupo_1066207" data-name="Grupo 1066207" transform="translate(-1210 -5591)">
    <g id="Grupo_1066206" data-name="Grupo 1066206">
      <g id="Grupo_1066205" data-name="Grupo 1066205">
        <g id="Grupo_1066204" data-name="Grupo 1066204">
          <circle id="Elipse_4041" data-name="Elipse 4041" cx="62.5" cy="62.5" r="62.5" transform="translate(1210 5591)" fill="#baefe4"/>
          <g id="Grupo_1064170" data-name="Grupo 1064170" transform="translate(1242.812 5618.667)">
            <path id="Trazado_103854" data-name="Trazado 103854" d="M276.189,185.411V135.483A3.483,3.483,0,0,0,272.705,132H249.483A3.483,3.483,0,0,0,246,135.483v49.928Zm0,0" transform="translate(-244.839 -130.839)" fill="#86bc40"/>
            <path id="Trazado_103855" data-name="Trazado 103855" d="M276.189,364.45a3.483,3.483,0,0,0-3.483-3.483H249.483A3.483,3.483,0,0,0,246,364.45v-6.967A3.483,3.483,0,0,1,249.483,354h23.222a3.483,3.483,0,0,1,3.483,3.483Zm0,0" transform="translate(-244.839 -309.878)" fill="#7ba23f"/>
            <path id="Trazado_103856" data-name="Trazado 103856" d="M249.483,390h23.222a3.483,3.483,0,1,1,0,6.967H249.483a3.483,3.483,0,1,1,0-6.967Zm0,0" transform="translate(-244.839 -338.911)" fill="#6e903d"/>
            <path id="Trazado_103857" data-name="Trazado 103857" d="M432,216h11.611l10.45,10.45v40.639H432Zm0,0" transform="translate(-394.845 -198.583)" fill="#0093b9"/>
            <rect id="Rectángulo_5139" data-name="Rectángulo 5139" width="26.109" height="7.615" transform="translate(32.343 61.034)" fill="#fdc01e"/>
            <rect id="Rectángulo_5140" data-name="Rectángulo 5140" width="9.791" height="43.515" transform="translate(33.431 17.519)" fill="#0085aa"/>
            <rect id="Rectángulo_5141" data-name="Rectángulo 5141" width="9.791" height="7.615" transform="translate(33.431 61.034)" fill="#f9ab23"/>
            <path id="Trazado_103858" data-name="Trazado 103858" d="M492,216v10.45h10.45Zm0,0" transform="translate(-443.234 -198.583)" fill="#0085aa"/>
            <path id="Trazado_103859" data-name="Trazado 103859" d="M324.189,234.572V183.483A3.483,3.483,0,0,0,320.705,180H297.483A3.483,3.483,0,0,0,294,183.483v51.089Zm0,0" transform="translate(-283.55 -169.55)" fill="#0093b9"/>
            <path id="Trazado_103860" data-name="Trazado 103860" d="M324.189,418.45a3.483,3.483,0,0,0-3.483-3.483H297.483A3.483,3.483,0,0,0,294,418.45v-6.967A3.483,3.483,0,0,1,297.483,408h23.222a3.483,3.483,0,0,1,3.483,3.483Zm0,0" transform="translate(-283.55 -353.428)" fill="#fdc01e"/>
            <path id="Trazado_103861" data-name="Trazado 103861" d="M297.483,444h23.222a3.483,3.483,0,0,1,0,6.967H297.483a3.483,3.483,0,0,1,0-6.967Zm0,0" transform="translate(-283.55 -382.461)" fill="#f79726"/>
            <path id="Trazado_103862" data-name="Trazado 103862" d="M338.748,191.757l-10.45-10.45a1.162,1.162,0,0,0-.821-.34h-6.967v-2.322A4.65,4.65,0,0,0,315.866,174H292.644A4.65,4.65,0,0,0,288,178.644v51.089a4.65,4.65,0,0,0,4.644,4.644h45.283a1.162,1.162,0,0,0,1.161-1.161V192.578a1.162,1.162,0,0,0-.34-.821Zm-10.11-6.826,6.486,6.486h-6.486Zm-35.994-8.608h23.222a2.325,2.325,0,0,1,2.322,2.322v40.1a4.608,4.608,0,0,0-2.322-.625H292.644a4.608,4.608,0,0,0-2.322.625v-40.1a2.325,2.325,0,0,1,2.322-2.322Zm0,44.122h23.222a2.325,2.325,0,0,1,2.322,2.322v2.947a4.607,4.607,0,0,0-2.322-.625H292.644a4.607,4.607,0,0,0-2.322.625v-2.947a2.325,2.325,0,0,1,2.322-2.322Zm0,11.611a2.322,2.322,0,1,1,0-4.644h23.222a2.322,2.322,0,1,1,0,4.644Zm27.242,0a4.613,4.613,0,0,0,.624-2.322V183.289h5.806v9.289a1.161,1.161,0,0,0,1.161,1.161h9.289v31.35H322.833v2.322h13.933v4.644Zm0,0" transform="translate(-278.711 -164.711)"/>
            <path id="Trazado_103863" data-name="Trazado 103863" d="M242.322,169.586V130.644a2.325,2.325,0,0,1,2.322-2.322h23.222a2.325,2.325,0,0,1,2.322,2.322v2.322h2.322v-2.322A4.65,4.65,0,0,0,267.866,126H244.644A4.65,4.65,0,0,0,240,130.644v49.928a4.65,4.65,0,0,0,4.644,4.644h2.322v-2.322h-2.322a2.322,2.322,0,1,1,0-4.644h2.322v-2.322h-2.322a4.608,4.608,0,0,0-2.322.625v-2.947a2.325,2.325,0,0,1,2.322-2.322h2.322v-2.322h-2.322a4.608,4.608,0,0,0-2.322.625Zm0,0" transform="translate(-240 -126)"/>
          </g>
        </g>
      </g>
    </g>
  </g>
</svg>
