<svg xmlns="http://www.w3.org/2000/svg" width="106" height="86.622" viewBox="0 0 106 86.622">
  <g id="Grupo_1065536" data-name="Grupo 1065536" transform="translate(-303 -10431.09)">
    <path id="Trazado_775278" data-name="Trazado 775278" d="M-36.441,884.886c-2.737-6-5.427-12.272-10.31-16.7s-12.7-6.413-18.117-2.66c-3.637,2.519-5.39,6.933-8.273,10.288-2.476,2.882-5.752,4.942-8.613,7.442s-5.436,5.737-5.7,9.528c-.44,6.2,5.26,11.035,10.8,13.856a61.308,61.308,0,0,0,31,6.547c5.411-.3,20.263-2.429,20.492-10.133.091-3.049-3.745-5.433-5.421-7.612A53.62,53.62,0,0,1-36.441,884.886Z" transform="translate(390.481 9604.435)" fill="#025157"/>
    <path id="Trazado_775279" data-name="Trazado 775279" d="M36.187,42.086c1.849-9.18.619-19,3.149-28.083a69.458,69.458,0,0,1,3.681-9.5l2-4.5a81.949,81.949,0,0,1-6,36.818,59.054,59.054,0,0,1-2.081,5.7Q37.92,40.908,38.9,39.3a61.393,61.393,0,0,1,7.27-10.281,98.681,98.681,0,0,1,8.415-7.371,28.828,28.828,0,0,0,7.279-8.41A12.819,12.819,0,0,1,60.274,20.7,38.179,38.179,0,0,1,55.8,27.016,93.675,93.675,0,0,1,45.457,38.389c-2.158,1.935-4.522,3.631-6.795,5.425-1.007.794-2.421,1.745-3.638,2.8A61.586,61.586,0,0,1,27.443,58c4.058-1.832,8.093-3.734,11.469-6.6,2.369-2.012,4.406-4.494,7.169-5.917,3.2-1.651,6.959-1.671,10.541-2.061s7.436-1.379,9.6-4.261a22.584,22.584,0,0,1-6.9,8.342,67.464,67.464,0,0,1-9.28,5.759c-5.06,2.773-10.373,5.618-16.141,5.753a52.221,52.221,0,0,0-6.262.036,8.432,8.432,0,0,0-1.379.322q-1.773,1.988-3.713,3.819-1.435,1.352-2.9,2.631a31.671,31.671,0,0,1,13.2-2.581,54.9,54.9,0,0,1,14.089,2.189,42.645,42.645,0,0,0,6.248,1.462,10.828,10.828,0,0,0,6.262-.908,35.559,35.559,0,0,1-6.233,5.1,11.948,11.948,0,0,1-7.7,1.814c-2.489-.371-4.7-1.775-7.14-2.4-2.915-.754-6-.37-8.981-.793-2.447-.347-4.788-1.233-7.224-1.649a13.3,13.3,0,0,0-2.814-.2,21.653,21.653,0,0,1-2.475.37l-.076-.009a59.767,59.767,0,0,1-14.3,8.659,3.454,3.454,0,0,1-1.284.347,1.22,1.22,0,0,1-1.119-.6,1.237,1.237,0,0,1,.336-1.363,3.761,3.761,0,0,1,1.3-.722,66.057,66.057,0,0,0,12.3-6.443c-.656-.619-.842-3.147-1.116-3.888a25.209,25.209,0,0,0-2.663-5.025C8.252,56.136,5.94,53.2,4.918,49.719A18.814,18.814,0,0,1,4.734,40.9a56.21,56.21,0,0,1,2.593-8.5c-.636,1.97.044,4.128,1.012,5.958a38.433,38.433,0,0,1,2.9,5.483c.994,2.952.529,6.26,1.628,9.174.731,1.937,2.106,3.567,2.934,5.463a10.62,10.62,0,0,1,.733,5.766,10.232,10.232,0,0,1-.711,2.606q.881-.63,1.743-1.288A46.135,46.135,0,0,0,22.7,60.929a6.35,6.35,0,0,0-.183-4.719c-.966-2.1-3.019-3.53-4.027-5.606-.938-1.931-.867-4.186-1.417-6.261-.577-2.177-1.84-4.156-2.165-6.384-.849-5.807,4.8-11.034,4.14-16.865a171.841,171.841,0,0,0,4.4,21.36c.617,2.136,1.3,4.25,1.923,6.385.746,2.575,1.452,5.448.831,8.133,1.335-1.625,2.6-3.3,3.8-4.962q1.2-1.662,2.314-3.383a6.99,6.99,0,0,0,.2-1.669,17.015,17.015,0,0,0-.589-3.872,20.726,20.726,0,0,0-2.3-6.509c-.942-1.49-2.256-2.725-3.127-4.257-1.837-3.231-1.439-7.246-.613-10.87s2.033-7.272,1.638-10.968c2.884,4.948,3.768,10.775,4.53,16.452q.875,6.519,1.632,13.054a23.362,23.362,0,0,1,.217,4.847,11.035,11.035,0,0,1-.307,1.751q.95-1.561,1.832-3.163C35.682,42.987,35.932,42.54,36.187,42.086Z" transform="translate(343.594 10431.09) rotate(9)" fill="#baefe4"/>
    <g id="Grupo_1065535" data-name="Grupo 1065535" transform="translate(310.773 10471.488)">
      <path id="Trazado_775048" data-name="Trazado 775048" d="M1719.883,175.84a1.493,1.493,0,0,0,.3,1.532,1.581,1.581,0,0,0,1.213.409c.823-.152.791-.779.843-1.508a2.682,2.682,0,0,0-.112-1.153,1.132,1.132,0,0,0-.831-.742,1.109,1.109,0,0,0-.984.434A2.348,2.348,0,0,0,1719.883,175.84Z" transform="translate(-1713.368 -156.439)" fill="#f5947a"/>
      <path id="Trazado_775049" data-name="Trazado 775049" d="M1691.118,138.772a.906.906,0,0,0-.041-.308.943.943,0,0,0-.13-.217l-.316-.435a1.405,1.405,0,0,0-.409-.422.907.907,0,0,0-.759-.03,2.013,2.013,0,0,0-.646.437,2.407,2.407,0,0,0-.575.74c-.514,1.128.45,2.536,1.472,3.014C1691.189,142.242,1691.129,139.556,1691.118,138.772Z" transform="translate(-1685.522 -123.882)" fill="#f5947a"/>
      <path id="Trazado_775050" data-name="Trazado 775050" d="M1670.169,95.805a1.16,1.16,0,0,0-.336-.436,5.537,5.537,0,0,0-1.787-1.275.881.881,0,0,0-.652-.036.968.968,0,0,0-.425.884c-.049.9.291,2.186,1.347,2.372C1669.026,97.44,1670.468,96.669,1670.169,95.805Z" transform="translate(-1666.963 -85.876)" fill="#f5947a"/>
      <path id="Trazado_775051" data-name="Trazado 775051" d="M1688.4,44.866c-.258-.5-.7-1-1.258-.972a1.767,1.767,0,0,0-.963.481,2.389,2.389,0,0,0-.809.912,2.05,2.05,0,0,0-.116.611,1.939,1.939,0,0,0,2.266,2.17C1688.941,47.78,1688.918,45.864,1688.4,44.866Z" transform="translate(-1683.018 -41.869)" fill="#f5947a"/>
      <path id="Trazado_775052" data-name="Trazado 775052" d="M1730.644,29.357a2.013,2.013,0,0,0,.2-.573,1.886,1.886,0,0,0-.167-.909.911.911,0,0,0-.356-.516.868.868,0,0,0-.788.1,9.744,9.744,0,0,0-2.131,1.664,1.932,1.932,0,0,0-.361.412,1.323,1.323,0,0,0-.161.631c-.025.867.745,1.824,1.682,1.521A3.944,3.944,0,0,0,1730.644,29.357Z" transform="translate(-1719.577 -27.298)" fill="#f5947a"/>
      <path id="Trazado_775053" data-name="Trazado 775053" d="M1713.927,91.985a1.769,1.769,0,0,0,.389-.473.855.855,0,0,0-.3-.867,2.976,2.976,0,0,0-1.08-.637,1.209,1.209,0,0,0-.784-.079.915.915,0,0,0-.534.574,2.6,2.6,0,0,0-.115.8c-.024.657-.009,1.843.868,1.958C1713.193,93.369,1713.5,92.467,1713.927,91.985Z" transform="translate(-1706.07 -82.26)" fill="#f5947a"/>
      <path id="Trazado_775054" data-name="Trazado 775054" d="M1752.883,77.925a1.256,1.256,0,0,0-.856-1.221,2.075,2.075,0,0,0-.964-.011,2.505,2.505,0,0,0-.762.232,2.18,2.18,0,0,0-.993,1.422,2.06,2.06,0,0,0-.044.97,1.785,1.785,0,0,0,2.255,1.1C1752.492,80.106,1752.841,78.823,1752.883,77.925Z" transform="translate(-1739.196 -70.625)" fill="#f5947a"/>
      <path id="Trazado_775055" data-name="Trazado 775055" d="M1779.435,119.716a2.741,2.741,0,0,0,.068-.774,1.462,1.462,0,0,0-.249-.988,1.418,1.418,0,0,0-1.05-.332,2.88,2.88,0,0,0-.871.07.96.96,0,0,0-.689,1.349,2.225,2.225,0,0,0,1.409,1.424A1.164,1.164,0,0,0,1779.435,119.716Z" transform="translate(-1763.203 -106.607)" fill="#f5947a"/>
      <path id="Trazado_775056" data-name="Trazado 775056" d="M1734.841,130.411a2.431,2.431,0,0,0-.623-1.162,2.77,2.77,0,0,0-1.606-1.156.483.483,0,0,0-.629.354,2.133,2.133,0,0,0,.051,1.326,5.445,5.445,0,0,0,.624,1.194c.266.412.731,1.1,1.315.945A1.5,1.5,0,0,0,1734.841,130.411Z" transform="translate(-1723.982 -115.795)" fill="#f5947a"/>
      <path id="Trazado_775057" data-name="Trazado 775057" d="M1774.133,161.3a1.343,1.343,0,0,0-.466-1.072,1.572,1.572,0,0,0-1.013-.207,1.383,1.383,0,0,0-.8.228,1.4,1.4,0,0,0-.413,1.01,3.417,3.417,0,0,0,.079,1.239c.179.631.849,1.461,1.559,1.046A2.711,2.711,0,0,0,1774.133,161.3Z" transform="translate(-1758.688 -143.838)" fill="#f5947a"/>
    </g>
  </g>
</svg>
