<svg xmlns="http://www.w3.org/2000/svg" xmlns:xlink="http://www.w3.org/1999/xlink" width="125" height="125" viewBox="0 0 125 125">
  <defs>
    <clipPath id="clip-path">
      <rect id="Rectángulo_374126" data-name="Rectángulo 374126" width="73" height="73" transform="translate(291 5617)" fill="#fff" stroke="#707070" stroke-width="1"/>
    </clipPath>
  </defs>
  <g id="Grupo_1066195" data-name="Grupo 1066195" transform="translate(-265 -5591)">
    <g id="Grupo_1066194" data-name="Grupo 1066194">
      <g id="Grupo_1066193" data-name="Grupo 1066193">
        <g id="Grupo_1066192" data-name="Grupo 1066192">
          <g id="Grupo_1066191" data-name="Grupo 1066191">
            <g id="Grupo_1066190" data-name="Grupo 1066190">
              <g id="Grupo_1066183" data-name="Grupo 1066183">
                <g id="Grupo_1066182" data-name="Grupo 1066182">
                  <g id="Grupo_1066181" data-name="Grupo 1066181">
                    <g id="Grupo_1066180" data-name="Grupo 1066180">
                      <g id="Grupo_1066179" data-name="Grupo 1066179">
                        <g id="Grupo_1066178" data-name="Grupo 1066178">
                          <g id="Grupo_1066189" data-name="Grupo 1066189">
                            <g id="Grupo_1066188" data-name="Grupo 1066188">
                              <g id="Grupo_1066187" data-name="Grupo 1066187">
                                <g id="Grupo_1066186" data-name="Grupo 1066186">
                                  <g id="Grupo_1066185" data-name="Grupo 1066185">
                                    <g id="Grupo_1066184" data-name="Grupo 1066184">
                                      <circle id="Elipse_1142" data-name="Elipse 1142" cx="62.5" cy="62.5" r="62.5" transform="translate(265 5591)" fill="#baefe4"/>
                                    </g>
                                  </g>
                                </g>
                              </g>
                            </g>
                          </g>
                        </g>
                      </g>
                    </g>
                  </g>
                </g>
              </g>
              <g id="Enmascarar_grupo_141" data-name="Enmascarar grupo 141" clip-path="url(#clip-path)">
                <g id="XMLID_1105_" transform="translate(291 5617)">
                  <g id="XMLID_961_">
                    <path id="XMLID_642_" d="M58.172,8.27H14.828a5.7,5.7,0,0,0-5.7,5.7V54.465a5.7,5.7,0,0,0,5.7,5.7H58.172a5.7,5.7,0,0,0,5.7-5.7V13.973a5.7,5.7,0,0,0-5.7-5.7Z" fill="#ffec80"/>
                  </g>
                  <g id="XMLID_859_">
                    <path id="Trazado_777092" data-name="Trazado 777092" d="M46.766,1.426,51.471,8.27l-2.86,14.052L36.5,17.965,24.389,22.322,21.529,8.27l4.705-6.844Z" fill="#fff"/>
                  </g>
                  <g id="XMLID_11_">
                    <path id="XMLID_629_" d="M46.766,1.426,36.5,17.965,26.234,1.426Z" fill="#ffea61"/>
                  </g>
                  <g id="XMLID_2_">
                    <path id="Trazado_777093" data-name="Trazado 777093" d="M46.48,31.51H63.875v6.273H46.48Z" fill="#fff"/>
                  </g>
                  <g id="XMLID_645_">
                    <path id="XMLID_951_" d="M58.172,6.844H52.221L47.94.618A1.425,1.425,0,0,0,46.766,0H26.234A1.425,1.425,0,0,0,25.06.618l-4.28,6.226H14.828A7.137,7.137,0,0,0,7.7,13.973V27.8a1.426,1.426,0,1,0,2.852,0V13.973A4.282,4.282,0,0,1,14.828,9.7h5.536l2.628,12.911a1.426,1.426,0,0,0,1.88,1.057l10.2-3.671V58.742H14.828a4.282,4.282,0,0,1-4.277-4.277V40.635a1.426,1.426,0,1,0-2.852,0v13.83a7.137,7.137,0,0,0,7.129,7.129H58.172A7.137,7.137,0,0,0,65.3,54.465V13.973a7.137,7.137,0,0,0-7.129-7.129ZM49.953,8.578,47.542,20.422l-8.9-3.2L46.827,4.031ZM36.5,15.261,28.8,2.852H44.2ZM23.047,8.578l3.126-4.547L34.359,17.22l-8.9,3.2ZM58.172,58.742H37.926V19.993l10.2,3.671a1.426,1.426,0,0,0,1.88-1.057L52.635,9.7h5.536a4.282,4.282,0,0,1,4.277,4.277V30.084H46.48a1.426,1.426,0,0,0-1.426,1.426v6.273a1.426,1.426,0,0,0,1.426,1.426H62.449V54.465a4.282,4.282,0,0,1-4.277,4.277Zm4.277-22.385H47.906V32.936H62.449Z"/>
                    <path id="XMLID_1661_" d="M64.788,67.627l-3.422-2.852a1.426,1.426,0,1,0-1.825,2.191l.4.33H13.063l.4-.33a1.426,1.426,0,1,0-1.825-2.191L8.212,67.627a1.426,1.426,0,0,0,0,2.191l3.422,2.852a1.426,1.426,0,0,0,1.825-2.191l-.4-.33H59.937l-.4.33a1.426,1.426,0,0,0,1.825,2.191l3.422-2.852a1.426,1.426,0,0,0,0-2.191Z"/>
                    <path id="XMLID_1663_" d="M9.125,35.645a1.427,1.427,0,1,0-1.008-.418A1.436,1.436,0,0,0,9.125,35.645Z"/>
                  </g>
                </g>
              </g>
            </g>
          </g>
        </g>
      </g>
    </g>
  </g>
</svg>
