<svg xmlns="http://www.w3.org/2000/svg" xmlns:xlink="http://www.w3.org/1999/xlink" width="180.994" height="175.879" viewBox="0 0 180.994 175.879">
  <defs>
    <linearGradient id="linear-gradient" y1="0.5" x2="1" y2="0.5" gradientUnits="objectBoundingBox">
      <stop offset="0" stop-color="#f08e73"/>
      <stop offset="1" stop-color="#f9b99d"/>
    </linearGradient>
    <linearGradient id="linear-gradient-3" y1="0.5" x2="1" y2="0.5" gradientUnits="objectBoundingBox">
      <stop offset="0" stop-color="#5f3759"/>
      <stop offset="1" stop-color="#3c3257"/>
    </linearGradient>
  </defs>
  <g id="Grupo_1066179" data-name="Grupo 1066179" transform="translate(-189.006 -9298)">
    <g id="Grupo_1066178" data-name="Grupo 1066178">
      <g id="Grupo_1066177" data-name="Grupo 1066177">
        <g id="Grupo_1066176" data-name="Grupo 1066176">
          <g id="Grupo_1065608" data-name="Grupo 1065608" transform="translate(2013.837 8772.213)">
            <g id="Grupo_55150" data-name="Grupo 55150" transform="translate(-1824.83 530.101)">
              <path id="Trazado_104322" data-name="Trazado 104322" d="M-1775.594,675.588c-1.17-1.249-2.694-2.915-3.955-4.515-1.326-1.614-2.552-3.313-3.737-5.034-1.214-1.69-2.224-3.536-3.336-5.264l-2.859-5.463a65.105,65.105,0,0,1-6.277-22.748,59.7,59.7,0,0,1,2.069-22.3c.667-3.6,2.492-7.1,3.72-10.557a13.6,13.6,0,0,1,1.209-2.562l1.368-2.526,2.657-5,.638-1.2a18.936,18.936,0,0,0-7.839-25.607,18.936,18.936,0,0,0-25.607,7.839,19.9,19.9,0,0,0-1.566,3.974l-2.09,7.786-1.005,3.868a25.183,25.183,0,0,0-.816,3.939c-.706,5.42-1.826,10.613-1.7,16.138a87.852,87.852,0,0,0,4.561,31.859,87.308,87.308,0,0,0,14.839,27.257c1.622,1.95,3.284,3.85,4.94,5.726,1.793,1.767,3.469,3.605,5.342,5.256,1.84,1.677,3.714,3.3,5.689,4.82a76.919,76.919,0,0,0,6.306,4.461,6.28,6.28,0,0,0,8.674-1.905,6.282,6.282,0,0,0-.7-7.675Z" transform="translate(1824.83 -560.59)" fill="#025157"/>
              <g id="Grupo_55149" data-name="Grupo 55149" transform="translate(0.869 4.601)">
                <path id="Trazado_104323" data-name="Trazado 104323" d="M-1682.727,713.315a.141.141,0,0,1-.081-.025,80.4,80.4,0,0,1-23.937-29.151A77.954,77.954,0,0,1-1714.554,648c.348-15.93,5.26-32.826,14.6-50.224a.144.144,0,0,1,.2-.058.145.145,0,0,1,.058.2c-21.1,39.292-15.338,68.5-6.793,86.085a80.076,80.076,0,0,0,23.844,29.049.145.145,0,0,1,.039.2A.143.143,0,0,1-1682.727,713.315Z" transform="translate(1727.373 -597.702)" fill="#fff"/>
                <path id="Trazado_104324" data-name="Trazado 104324" d="M-1710.9,805.929a.142.142,0,0,1-.039-.006.145.145,0,0,1-.1-.179c3.83-13.533,23.98-20.11,24.183-20.174a.14.14,0,0,1,.181.094.143.143,0,0,1-.093.181c-.2.064-20.206,6.593-23.993,19.978A.145.145,0,0,1-1710.9,805.929Z" transform="translate(1724.282 -762.274)" fill="#fff"/>
                <path id="Trazado_104325" data-name="Trazado 104325" d="M-1717.842,634.022a.145.145,0,0,1-.129-.081c-.059-.117-5.927-11.982-4.814-24.371a.138.138,0,0,1,.157-.131.145.145,0,0,1,.131.157c-1.105,12.3,4.726,24.1,4.784,24.217a.145.145,0,0,1-.064.194A.16.16,0,0,1-1717.842,634.022Z" transform="translate(1734.689 -607.983)" fill="#fff"/>
                <path id="Trazado_104326" data-name="Trazado 104326" d="M-1803.385,1022.378a.151.151,0,0,1-.063-.015c-.108-.053-10.934-5.392-14.365-16.979a.145.145,0,0,1,.1-.181.145.145,0,0,1,.18.1c3.394,11.462,14.106,16.749,14.214,16.8a.143.143,0,0,1,.067.192A.143.143,0,0,1-1803.385,1022.378Z" transform="translate(1817.819 -954.681)" fill="#fff"/>
                <path id="Trazado_104327" data-name="Trazado 104327" d="M-1672.362,1153.586a.147.147,0,0,1-.137-.1.145.145,0,0,1,.092-.182,13.044,13.044,0,0,0,8.153-12.856.146.146,0,0,1,.142-.147h0a.146.146,0,0,1,.145.143,13.33,13.33,0,0,1-8.353,13.134A.125.125,0,0,1-1672.362,1153.586Z" transform="translate(1690.521 -1073.036)" fill="#fff"/>
              </g>
            </g>
            <g id="Grupo_55151" data-name="Grupo 55151" transform="translate(-1704.371 535.354)">
              <path id="Trazado_104328" data-name="Trazado 104328" d="M-851.6,696.394c-3.166-12.754,1.473-66.258,3.567-88.225a3.65,3.65,0,0,1,6.583-1.806c13.2,18.062,45.183,62.722,48.357,75.511a30.141,30.141,0,0,1-21.993,36.514A30.141,30.141,0,0,1-851.6,696.394Z" transform="translate(852.73 -604.623)" fill="#025157"/>
              <path id="Trazado_104329" data-name="Trazado 104329" d="M-760.012,717.117a.24.24,0,0,1-.233-.183L-788.458,603.26a.24.24,0,0,1,.175-.292.231.231,0,0,1,.292.175l28.212,113.674a.239.239,0,0,1-.175.292A.207.207,0,0,1-760.012,717.117Z" transform="translate(796.483 -602.957)" fill="#fff"/>
              <path id="Trazado_104330" data-name="Trazado 104330" d="M-615.247,1074.441a.227.227,0,0,1-.119-.032.24.24,0,0,1-.091-.328l18.088-31.977a.236.236,0,0,1,.328-.09.24.24,0,0,1,.091.327l-18.088,31.977A.239.239,0,0,1-615.247,1074.441Z" transform="translate(644.95 -987.556)" fill="#fff"/>
              <path id="Trazado_104331" data-name="Trazado 104331" d="M-628.172,1024.482a.244.244,0,0,1-.107-.024.242.242,0,0,1-.108-.324l15.758-31.683a.243.243,0,0,1,.323-.109.242.242,0,0,1,.108.324l-15.758,31.683A.241.241,0,0,1-628.172,1024.482Z" transform="translate(656.272 -944.049)" fill="#fff"/>
              <path id="Trazado_104332" data-name="Trazado 104332" d="M-823.039,1050.25a.233.233,0,0,1-.142-.047l-25.205-18.483a.241.241,0,0,1-.052-.337.24.24,0,0,1,.336-.051l25.206,18.483a.24.24,0,0,1,.052.337A.239.239,0,0,1-823.039,1050.25Z" transform="translate(849.062 -978.185)" fill="#fff"/>
              <path id="Trazado_104333" data-name="Trazado 104333" d="M-708.157,815.1a.25.25,0,0,1-.124-.034.243.243,0,0,1-.083-.331l9.419-15.706a.239.239,0,0,1,.331-.083.243.243,0,0,1,.083.331l-9.419,15.706A.241.241,0,0,1-708.157,815.1Z" transform="translate(726.342 -774.62)" fill="#fff"/>
              <path id="Trazado_104334" data-name="Trazado 104334" d="M-816.9,757.381a.227.227,0,0,1-.118-.032l-11.016-6.251a.241.241,0,0,1-.091-.328.233.233,0,0,1,.329-.09l11.016,6.251a.241.241,0,0,1,.091.328A.24.24,0,0,1-816.9,757.381Z" transform="translate(831.255 -732.337)" fill="#fff"/>
              <path id="Trazado_104335" data-name="Trazado 104335" d="M-818.771,790.7a.248.248,0,0,1-.089-.017l-12.085-4.784a.24.24,0,0,1-.136-.313.243.243,0,0,1,.313-.136l12.086,4.784a.241.241,0,0,1,.136.313A.242.242,0,0,1-818.771,790.7Z" transform="translate(833.83 -762.817)" fill="#fff"/>
              <path id="Trazado_104336" data-name="Trazado 104336" d="M-819.159,1301.518a.253.253,0,0,1-.121-.032l-33.742-19.534a.242.242,0,0,1-.088-.329.242.242,0,0,1,.329-.088l33.742,19.534a.242.242,0,0,1,.089.33A.243.243,0,0,1-819.159,1301.518Z" transform="translate(853.142 -1197.384)" fill="#fff"/>
            </g>
            <path id="Trazado_104337" data-name="Trazado 104337" d="M-1624.528,809.226H-1773.79a10.4,10.4,0,0,1-8.665-16.146l74.631-112.5a10.4,10.4,0,0,1,17.33,0l74.631,112.5A10.4,10.4,0,0,1-1624.528,809.226Z" transform="translate(-35.589 -131.526)" fill="#baefe4"/>
            <g id="Grupo_55152" data-name="Grupo 55152" transform="translate(-1762.689 537.017)">
              <path id="Trazado_104338" data-name="Trazado 104338" d="M-1323.564,616.373h0Z" transform="translate(1323.564 -616.373)" fill="#fff"/>
            </g>
            <g id="Grupo_55166" data-name="Grupo 55166" transform="translate(-1782.286 525.787)">
              <g id="Grupo_55165" data-name="Grupo 55165" transform="translate(0 0)">
                <g id="Grupo_55162" data-name="Grupo 55162">
                  <path id="Trazado_104339" data-name="Trazado 104339" d="M-1452.817,1304.533l-.4,3.376.4,2.663h2.264s1.465-2.264,1.465-2.4.266-2.619.266-2.8a12.585,12.585,0,0,0-.977-1.6Z" transform="translate(1456.74 -1207.334)" fill="#feb396"/>
                  <path id="Trazado_104340" data-name="Trazado 104340" d="M-1471.85,1072.319l-.523,2.744,2.23,27.357,4.435-.306,1.859-29.8Z" transform="translate(1473.523 -1004.566)" fill="#271f37"/>
                  <path id="Trazado_104341" data-name="Trazado 104341" d="M-1471.727,808.369l.443,32.722h8l1.932-31.838Z" transform="translate(1472.956 -773.337)" fill="#271f37"/>
                  <path id="Trazado_104342" data-name="Trazado 104342" d="M-1140.593,1870.7l-3.616.212-.582.035-.053-.181-1.152-3.859-.088-.3,4.125-.976.328,1.215.359,1.333Z" transform="translate(1187.684 -1699.536)" fill="#f28a81"/>
                  <path id="Trazado_104343" data-name="Trazado 104343" d="M-1433.721,1156.415q-.056,1.8-.16,3.621c-.523,9.422-1.8,19.188-1.333,29.153h-6.746l-5.467-43.55-.662-1.794a3.672,3.672,0,0,1-.143-2.039l.261-1.213c0-.011,0-.023,0-.034-.749-14.343-.419-20.823-.353-32.405.006-1.064.011-2.171.011-3.331s.024-2.2.061-3.162c.041-1.047.1-1.978.168-2.8.047-.567.1-1.082.154-1.545a18.8,18.8,0,0,1,.57-3.166c.093-.275.673-.342,1.361-.32h0a19.111,19.111,0,0,1,2.544.32l4.688-.687.082.229,3.814,10.772s.552,5.2.909,12.847q.04.855.075,1.75c.125,3.106.213,6.551.218,10.169,0,2.758-.043,5.616-.154,8.5q-.04,1.052-.094,2.108v0c-.072,1.441-.163,2.886-.273,4.326v.013A76.893,76.893,0,0,1-1433.721,1156.415Z" transform="translate(1452.569 -1023.089)" fill="#51242c"/>
                  <path id="Trazado_104344" data-name="Trazado 104344" d="M-1353.636,1179.16l-1.215-.017-4.376-.066-.772-.011s-11.55-32-18.386-59.234c-.512-1.46-.984-2.858-1.425-4.206-1.023-3.128-1.879-5.985-2.646-8.7v0q-.25-.885-.488-1.748c-1.4-5.071-2.54-9.731-3.991-14.884h-1.156l-1.413-7.071-.24-1.205,5.495-1.011,5.658-1.041,1.918-.353s4.941,4.927,5.732,6.773a57.7,57.7,0,0,1,2.155,5.891c2.574,8.382,3.07,16.427,5.211,27.214C-1360.807,1133.445-1358.682,1146.407-1353.636,1179.16Z" transform="translate(1401.138 -1010.954)" fill="#5d343a"/>
                  <path id="Trazado_104345" data-name="Trazado 104345" d="M-1374.18,709.356l1.511-.276s.094.753.088.877a2.3,2.3,0,0,1-.118.588c-.079.226-.074.351-.336.4a1.332,1.332,0,0,1-.55-.029.7.7,0,0,1-.1-.318A10.4,10.4,0,0,0-1374.18,709.356Z" transform="translate(1387.503 -686.357)" fill="#b9c5ef"/>
                  <path id="Trazado_104346" data-name="Trazado 104346" d="M-1452.643,734.189c.434-1.741-.119-4.364.716-4.89,2.993-1.886,3.966-3.9,5.706-4.914.728-.424,1.357-.783,1.892-1.083.224-.126.431-.241.623-.347.448-.246.812-.441,1.1-.591.19-.1.346-.18.47-.244s.2-.1.267-.132a23.484,23.484,0,0,0-.249,3.024,9.941,9.941,0,0,1,1.132-3.039l7.066.374.778.615,9.856,8-5.593,21.891,2.085,12.825.571,3.513-25.242-1.337-.522-16.15Z" transform="translate(1456.238 -697.651)" fill="#ebfffe"/>
                  <path id="Trazado_104347" data-name="Trazado 104347" d="M-1359.558,666.705l-7.066-.374a9.958,9.958,0,0,0-1.131,3.04,23.453,23.453,0,0,1,.248-3.023l.22-2.019c3.179-.009,5.872-3.464,6.506-4.5a1.3,1.3,0,0,0,.195-.621l.04-.753.2.056.456,4.724h0l.214,2.214.013.142Z" transform="translate(1381.873 -642.011)" fill="url(#linear-gradient)"/>
                  <path id="Trazado_104348" data-name="Trazado 104348" d="M-1391.692,533.483c-.254,1.857-2.189,4.677-2.189,4.677l-.439.843a9.177,9.177,0,0,1-1.995,1.1,9.4,9.4,0,0,1-.8-1.393s-1.855-1.145-.208-3.461l-4.013-.5c-.27-.032-.559-.3-.442-.525.422-.809-.138-.925-.38-.86-3.66,1-4.767-.71-4.86-.867a.04.04,0,0,1-.006-.01,0,0,0,0,1,0,0l0,0a31.968,31.968,0,0,0-.749,4.262,12.01,12.01,0,0,1-.857-4.484c.172-3.249,2.906-3.026,2.906-3.026s.506-2.529,2.551-3.139c5.944-1.774,7.922,4.589,7.922,4.589S-1391.285,530.506-1391.692,533.483Z" transform="translate(1417.691 -525.787)" fill="#773634"/>
                  <path id="Trazado_104349" data-name="Trazado 104349" d="M-1391.247,588.328c-.018.056-.036.112-.056.168a1.514,1.514,0,0,1-.727.1l-.091,1.73a1.287,1.287,0,0,1-.193.622,12.642,12.642,0,0,1-2.563,2.853,6.506,6.506,0,0,1-3.945,1.643q-.118,0-.244-.008c-2.07-.109-4.415-2.576-4.664-7.361a19.218,19.218,0,0,1,.236-3.988c.112-1.047.27-1.986.409-2.713.02-.114.043-.224.063-.325.155-.765.277-1.224.277-1.224l0,0c0,.005,0,.008.005.01.094.157,1.2,1.867,4.859.869.244-.066.8.048.381.859-.117.226.173.493.442.523l4.014.506c-1.646,2.314.208,3.46.208,3.46s.063.142.175.355a9.277,9.277,0,0,0,.625,1.037A4.581,4.581,0,0,0-1391.247,588.328Z" transform="translate(1413.408 -573.122)" fill="url(#linear-gradient)"/>
                  <path id="Trazado_104350" data-name="Trazado 104350" d="M-1315.96,621.568a3.088,3.088,0,0,1-1.621,1.7,1.41,1.41,0,0,1-.218.064,1.3,1.3,0,0,1-.307.043,1.732,1.732,0,0,1-.2-.01.2.2,0,0,1-.036-.008,1.235,1.235,0,0,1-.3-.084,1.37,1.37,0,0,1-.67-.663,2.28,2.28,0,0,1-.221-.872,3.317,3.317,0,0,1,.038-.7c.013-.074.028-.15.046-.226a3.619,3.619,0,0,1,.162-.531c.005-.015.013-.028.018-.043s.023-.056.036-.084c.053-.122.112-.241.175-.355.03-.056.063-.112.1-.165a2.973,2.973,0,0,1,.173-.254,3.2,3.2,0,0,1,.282-.328,1.813,1.813,0,0,1,1.948-.6,1.4,1.4,0,0,1,.731.8A3.118,3.118,0,0,1-1315.96,621.568Z" transform="translate(1339.633 -606.873)" fill="#feb396"/>
                  <path id="Trazado_104351" data-name="Trazado 104351" d="M-1311.665,623.08a1.045,1.045,0,0,0-.742-.387,2.251,2.251,0,0,0-1.3.44,3.6,3.6,0,0,1,1.355-1.143.078.078,0,0,0,.04-.1.079.079,0,0,0-.1-.04,3.321,3.321,0,0,0-1.686,1.739,2.362,2.362,0,0,0,.3,1.958.078.078,0,0,0,.064.039.08.08,0,0,0,.043-.01.079.079,0,0,0,.029-.107,2.213,2.213,0,0,1-.283-1.83,1.859,1.859,0,0,1,.067-.175,2.5,2.5,0,0,1,1.442-.613h.023a.894.894,0,0,1,.633.332.079.079,0,0,0,.111.009A.079.079,0,0,0-1311.665,623.08Z" transform="translate(1334.957 -609.933)" fill="#f28a81"/>
                  <path id="Trazado_104352" data-name="Trazado 104352" d="M-1358.781,709.834l-.025.48-3.656,1.075-2.073.193-1,.094-1.568.146-.649.061a7.9,7.9,0,0,1,.705-2.136c.012-.028.024-.056.038-.084q.167-.376.389-.819.176-.349.388-.741c2.533-.039,5.174.037,6.536-.348.568-.16.962-.381,1.052-.678a.373.373,0,0,0,.017-.091Z" transform="translate(1381.876 -684.524)" fill="#b9c5ef"/>
                  <path id="Trazado_104353" data-name="Trazado 104353" d="M-1358.2,744.531c.027,2.325.137,4.656.3,6.944.036.52.076,1.036.118,1.547.085,1.064.188,2.115.3,3.151,0,.009,0,.015.006.024.015.149.03.307.049.456v.006c0,.03.006.064.009.1.468,4.27.957,8.169,1.392,11.4.033.24.064.477.1.711.042.3.079.593.122.878,0,.009,0,.015,0,.024.006.055.015.109.021.164.061.438.125.887.185,1.34.368,2.608.772,5.328,1.027,7.039.161,1.079.267,1.76.267,1.76.146-.018.292-.034.435-.052.249-.027.489-.052.723-.073l.119-.009c6.033-.544,7.7.872,11.886.921.386.006.8,0,1.237-.024-.471-2.371-.906-4.337-1.3-6.033-1.243-5.27-2.143-7.9-2.808-11.746-.188-1.085-.356-2.273-.508-3.644-.067-.6-.131-1.231-.191-1.909,0-.036,0-.055,0-.055l1.17-7.318.188-1.191.276-1.72v0l1-6.264s-.462-12.287-.462-12.287a34.669,34.669,0,0,1-6.324-3.768l-1.7-1.477-.307-.267a10.8,10.8,0,0,0-2.231,2.249C-1355.309,728.235-1358.332,734.049-1358.2,744.531Z" transform="translate(1373.511 -698.684)" fill="url(#linear-gradient-3)"/>
                  <path id="Trazado_104354" data-name="Trazado 104354" d="M-1303.063,698.216l-.019.13c-.089.3-.484.518-1.052.678l-.193-2h0S-1303.063,697.261-1303.063,698.216Z" transform="translate(1326.309 -675.792)" fill="#b9c5ef"/>
                  <path id="Trazado_104355" data-name="Trazado 104355" d="M-1373.136,712.65a23.428,23.428,0,0,0-.249,3.024l-.329-.243a9.524,9.524,0,0,0-.076-1.672c-.022-.251-.051-.5-.083-.732-.129-.956-.308-1.713-.308-1.713a6.286,6.286,0,0,0,1.209.383C-1373.037,712.02-1373.091,712.34-1373.136,712.65Z" transform="translate(1387.504 -688.313)" fill="#b9c5ef"/>
                  <path id="Trazado_104356" data-name="Trazado 104356" d="M-1380.168,711.7l-.43,1.086-.157.393-.231.583-.034.086h0l-.1.251h0l-.2.491-.06.151-.792-1.122-.229-.324.671-1.305.348-.675A6.291,6.291,0,0,0-1380.168,711.7Z" transform="translate(1394.699 -688.313)" fill="#ebfffe"/>
                  <path id="Trazado_104357" data-name="Trazado 104357" d="M-1348.012,709.711l-.308-.268a10.733,10.733,0,0,0-2.229,2.249l-1.181.333-2.969.839-.107-.551-.4-2.028-.3-1.544a37.538,37.538,0,0,0,6.406-.314l.132-.034c.568-.16.961-.381,1.051-.678Z" transform="translate(1371.141 -685.162)" fill="#ebfffe"/>
                  <g id="Grupo_55153" data-name="Grupo 55153" transform="translate(16.266 57.789)">
                    <path id="Trazado_104358" data-name="Trazado 104358" d="M-1350.435,991.945c0,.034.007.066.011.1h0C-1350.428,992.011-1350.431,991.979-1350.435,991.945Z" transform="translate(1350.435 -991.945)" fill="#fff"/>
                  </g>
                  <path id="Trazado_104359" data-name="Trazado 104359" d="M-1385.756,788.37c-2.349-14.095,1.417-41.72,1.455-42l.2.028c-.038.277-3.8,27.872-1.456,41.936Z" transform="translate(1398.319 -719.027)" fill="#b9c5ef" opacity="0.5"/>
                  <path id="Trazado_104360" data-name="Trazado 104360" d="M-1352.938,721.864l2.3,2.091s-5.885,9.7-6.825,19.6q-.084.861-.112,1.717a23.446,23.446,0,0,0,.084,3.023c-.109-1.034-.208-2.086-.3-3.147-.028-.335-.056-.671-.081-1.006q-.019-.271-.038-.541c-.168-2.291-.277-4.621-.3-6.942-.127-10.486,2.9-16.3,5.1-19.133l2.614-3.366s2.035,1.941,2.111,3.361Z" transform="translate(1373.519 -690.809)" fill="#271f37" opacity="0.75"/>
                  <path id="Trazado_104361" data-name="Trazado 104361" d="M-1385.181,718.062l.229.324c-.192.106-.4.221-.623.347.066-.262.1-.4.1-.4a6.009,6.009,0,0,1,.963-1.58Z" transform="translate(1397.485 -693.083)" fill="#0e0e56"/>
                  <path id="Trazado_104362" data-name="Trazado 104362" d="M-1370.29,726.989l-.311.513-.048.081-.259.427-1.163-.424-.024-.865-.017-.627h0v-.009a.319.319,0,0,1,.1-.242h0l.561-.536.239-.227a.253.253,0,0,1,.39.048l.2.327.319.509A.977.977,0,0,1-1370.29,726.989Z" transform="translate(1385.691 -700.31)" fill="#e04c3d"/>
                  <path id="Trazado_104363" data-name="Trazado 104363" d="M-1359.954,730a.977.977,0,0,0-.008-1.027l-.319-.509.367,0c.147,0,.314-.008.5-.017l.4,2.029-1.294.121.048-.081Z" transform="translate(1375.355 -703.323)" fill="#932519"/>
                  <path id="Trazado_104364" data-name="Trazado 104364" d="M-1370.745,726.469l-.561.537.034-.087.231-.583A2.509,2.509,0,0,0-1370.745,726.469Z" transform="translate(1384.985 -701.474)" fill="#932519"/>
                  <path id="Trazado_104365" data-name="Trazado 104365" d="M-1373.471,734.4a1.44,1.44,0,0,1-.212-.136l.2-.491Z" transform="translate(1387.067 -707.989)" fill="#932519"/>
                  <path id="Trazado_104366" data-name="Trazado 104366" d="M-1394.212,778.948l-.871,1.609-1.174-1.152c-3.592-13.648,1.977-33.595,1.977-33.595l1.162.424-.078.455c-2.41,14.083-2.38,22.648-1.921,27.378A19.718,19.718,0,0,0-1394.212,778.948Z" transform="translate(1407.9 -718.535)" fill="#e04c3d"/>
                  <path id="Trazado_104367" data-name="Trazado 104367" d="M-1379.337,780.32l-.45.45-.423-.405-.041-.086c-.458-4.73-.489-13.295,1.921-27.378C-1379.631,760.862-1380.25,777.059-1379.337,780.32Z" transform="translate(1393.034 -724.746)" fill="#932519"/>
                  <path id="Trazado_104368" data-name="Trazado 104368" d="M-1428.727,1083.119h11.351l-.027-.188-.185-1.307-11.078-.754-.052,1.927Z" transform="translate(1435.287 -1012.057)" fill="#250f19"/>
                  <path id="Trazado_104369" data-name="Trazado 104369" d="M-1339.674,998.568l-1.511.11a.188.188,0,0,1-.2-.174h0a.188.188,0,0,1,.174-.2l1.511-.11a.188.188,0,0,1,.2.174h0A.188.188,0,0,1-1339.674,998.568Z" transform="translate(1358.774 -939.628)" fill="#271f37" opacity="0.75"/>
                  <path id="Trazado_104370" data-name="Trazado 104370" d="M-1334.463,1054.581l-1.5.19a.188.188,0,0,1-.21-.163h0a.188.188,0,0,1,.163-.21l1.5-.19a.188.188,0,0,1,.21.163h0A.188.188,0,0,1-1334.463,1054.581Z" transform="translate(1354.211 -988.699)" fill="#271f37" opacity="0.75"/>
                  <path id="Trazado_104371" data-name="Trazado 104371" d="M-1322.977,1120.764l-1.5.19a.188.188,0,0,1-.21-.163h0a.189.189,0,0,1,.163-.21l1.5-.19a.188.188,0,0,1,.21.163h0A.188.188,0,0,1-1322.977,1120.764Z" transform="translate(1344.148 -1046.677)" fill="#271f37" opacity="0.75"/>
                  <path id="Trazado_104372" data-name="Trazado 104372" d="M-1383.111,1865.636v2.818a3.2,3.2,0,0,0-1.679.425,4.037,4.037,0,0,1-1.959.394h-.426l-.248-3.637Z" transform="translate(1399.104 -1699.536)" fill="#f28a81"/>
                  <path id="Trazado_104373" data-name="Trazado 104373" d="M-1464.152,1937.83l-.03.169-.116.661h-3.992l-.173-.2-.192-.218-12.927.39-.063-.744a.055.055,0,0,1,.054-.061Z" transform="translate(1481.645 -1762.78)" fill="#c08a9b"/>
                  <path id="Trazado_104374" data-name="Trazado 104374" d="M-1463.826,1892.945c-.006.136-.015.273-.027.409h-17.284a2.011,2.011,0,0,1,1.526-1.65c.593-.141,1.215-.315,1.849-.511,1.444-.446,2.945-1,4.266-1.524a23.389,23.389,0,0,0,3.564-1.714h.928a4.415,4.415,0,0,0,2.143-.431,4.312,4.312,0,0,1,2.1-.465l.273,1.754A11.189,11.189,0,0,1-1463.826,1892.945Z" transform="translate(1481.2 -1718.304)" fill="#6d2847"/>
                  <path id="Trazado_104375" data-name="Trazado 104375" d="M-1434.576,1890.858a13.86,13.86,0,0,0,5.381-3.253l.034.015a1.04,1.04,0,0,1,.1,1.839,10.461,10.461,0,0,1-5.23,1.52A.314.314,0,0,1-1434.576,1890.858Z" transform="translate(1440.411 -1718.782)" fill="#963c58"/>
                  <path id="Trazado_104376" data-name="Trazado 104376" d="M-1463.826,1922.149c-.006.136-.015.273-.027.409h-17.284a2.011,2.011,0,0,1,1.526-1.65c.593-.141,1.215-.316,1.849-.511a7.428,7.428,0,0,0,5.031,1.7C-1469.556,1922.107-1465.12,1922.14-1463.826,1922.149Z" transform="translate(1481.2 -1747.508)" fill="#963c58"/>
                  <g id="Grupo_55154" data-name="Grupo 55154" transform="translate(42.114 170.114)">
                    <path id="Trazado_104377" data-name="Trazado 104377" d="M-1131.343,1903.573h-10.59l.071-1,.169-.083-.166-3.586a.492.492,0,0,1,.418-.51l.019.017a2.619,2.619,0,0,0,.733.425,2.588,2.588,0,0,0,.939.177,3.173,3.173,0,0,0,2-.79.954.954,0,0,1,1.267.061C-1134.944,1899.8-1131.343,1903.573-1131.343,1903.573Z" transform="translate(1141.933 -1898.016)" fill="#6d2847"/>
                    <path id="Trazado_104378" data-name="Trazado 104378" d="M-1127.557,1910.045h-10.412a4.44,4.44,0,0,1,.193-.48,6.453,6.453,0,0,1,1.979-2.5,4.933,4.933,0,0,1,1.817-.835,4.917,4.917,0,0,1,.688-.115c.063-.006.126-.012.19-.016.122-.008.248-.013.375-.013C-1129.969,1906.088-1127.557,1910.045-1127.557,1910.045Z" transform="translate(1138.46 -1905.087)" fill="#963c58"/>
                    <rect id="Rectángulo_5207" data-name="Rectángulo 5207" width="10.413" height="0.712" transform="translate(0.491 4.957)" fill="#c08a9b"/>
                  </g>
                  <path id="Trazado_104379" data-name="Trazado 104379" d="M-1128.624,1891.4a5.007,5.007,0,0,0-2.505.949,4.561,4.561,0,0,1-1.4-2,3.424,3.424,0,0,1-.107-.428,2.644,2.644,0,0,1,.432-.253,3.942,3.942,0,0,1,2.618-.267A14.377,14.377,0,0,0-1128.624,1891.4Z" transform="translate(1175.907 -1720.254)" fill="#963c58"/>
                  <path id="Trazado_104380" data-name="Trazado 104380" d="M-1141.25,1934.138a4.643,4.643,0,0,0-.193.479v.6h-.491l.071-1,.169-.082Z" transform="translate(1184.048 -1759.546)" fill="#963c58"/>
                  <path id="Trazado_104381" data-name="Trazado 104381" d="M-1424.726,1898.085a.155.155,0,0,1-.049-.008l-1.484-.49a.157.157,0,0,1-.1-.2.157.157,0,0,1,.2-.1l1.231.407-.164-.874a.157.157,0,0,1,.045-.142.156.156,0,0,1,.143-.04l1.715.382-.458-1.1a.157.157,0,0,1,.085-.205.157.157,0,0,1,.205.084l.575,1.379a.157.157,0,0,1-.025.161.156.156,0,0,1-.154.052l-1.779-.4.17.9a.156.156,0,0,1-.051.147A.158.158,0,0,1-1424.726,1898.085Z" transform="translate(1433.22 -1725.877)" fill="#fff"/>
                  <path id="Trazado_104382" data-name="Trazado 104382" d="M-1388.11,586.052a3.722,3.722,0,0,0-.176.355c-.018.043-.036.085-.052.128a2.2,2.2,0,0,1-.675-3.646c-5.133.231-4.3-.481-4.437-1.26-2.977.858-4.395.146-4.912-.257.02-.114.042-.223.063-.325.155-.763.277-1.224.277-1.224l0,0s0,0,0,0a.048.048,0,0,0,.006.01c.092.157,1.2,1.866,4.86.867.243-.066.8.05.38.86-.117.226.172.493.442.525l4.013.5C-1389.965,584.907-1388.11,586.052-1388.11,586.052Z" transform="translate(1408.686 -573.124)" fill="#f28a81"/>
                  <path id="Trazado_104383" data-name="Trazado 104383" d="M-1356.389,665.565c-.043.012-.088.024-.132.034l-.67-4.822a8.41,8.41,0,0,1-3.216,3.129,4.863,4.863,0,0,1-3.57.745c3.179-.009,5.872-3.464,6.506-4.5a1.3,1.3,0,0,0,.195-.621l.037-.707a1.417,1.417,0,0,0,.2.01l.456,4.724h0Z" transform="translate(1378.565 -642.333)" fill="#db6951" opacity="0.5"/>
                  <path id="Trazado_104384" data-name="Trazado 104384" d="M-1433.281,1146.777v-.013c.11-1.439.2-2.885.273-4.326v0q.054-1.055.094-2.108c.111-2.888.157-5.746.154-8.5,0-3.618-.093-7.063-.218-10.169h0q-.214-.759-.419-1.5c-1.379-4.991-2.5-9.571-3.91-14.6a.734.734,0,0,0-.706-.536h0a.733.733,0,0,1-.719-.589l-.3-1.478c-.506-2.534,2.917-4.786,5.5-4.642,0,0-.125-1.08-.219-1.567h-11.35l.01-.32h0l-.138,5.031-.043,1.578h0l-.025.94-.057,2.282a9.6,9.6,0,0,0-1.381.334,5.235,5.235,0,0,0-.665.237c0,1.039-.008,2.958-.015,3.92h0a4.738,4.738,0,0,1,6.278,1.781,33.575,33.575,0,0,0,3.593,5.2,23.729,23.729,0,0,1,1.628,2.18h0l.978,12.918c.516,6.816-4.419,15.575-4.677,24.045s4.147,20.683,4.371,34.916h.942c-.465-9.965.81-19.731,1.333-29.153q.1-1.817.16-3.621A76.894,76.894,0,0,0-1433.281,1146.777Z" transform="translate(1451.658 -1025.683)" fill="#3d1b21" opacity="0.5"/>
                  <path id="Trazado_104385" data-name="Trazado 104385" d="M-1404.751,1078.771l-3.645-.251a.479.479,0,0,0-.363.129.484.484,0,0,0-.154.353v2.091a.484.484,0,0,0,.483.483h3.645a.484.484,0,0,0,.483-.483v-1.84A.485.485,0,0,0-1404.751,1078.771Zm.13,2.321a.164.164,0,0,1-.163.164h-3.645a.164.164,0,0,1-.164-.164v-1.158h1.631a.17.17,0,0,0,.17-.17.17.17,0,0,0-.17-.17h-1.631V1079a.163.163,0,0,1,.052-.12.161.161,0,0,1,.111-.044h.012l3.645.251a.164.164,0,0,1,.152.163Z" transform="translate(1417.93 -1009.997)" fill="#afa9cb"/>
                  <path id="Trazado_104386" data-name="Trazado 104386" d="M-1125.492,1903.633l-.106.06c-.064,0-.127.009-.19.016a4.917,4.917,0,0,0-.688.115l.19-.107-2.948.256a.154.154,0,0,1-.17-.143.155.155,0,0,1,.143-.169l3.677-.32a.159.159,0,0,1,.165.11A.159.159,0,0,1-1125.492,1903.633Z" transform="translate(1173.07 -1732.565)" fill="#fff"/>
                  <path id="Trazado_104387" data-name="Trazado 104387" d="M-1304.063,1084.284l-8.164-1.322v.661l8.164,1.294Z" transform="translate(1333.23 -1013.89)" fill="#271f37" opacity="0.75"/>
                  <path id="Trazado_104388" data-name="Trazado 104388" d="M-1371.1,533.483c-.254,1.857-2.189,4.677-2.189,4.677v0a1.4,1.4,0,0,0-.732-.8,1.985,1.985,0,0,0-2.229.933,3.661,3.661,0,0,0-.272.419s-1.855-1.145-.208-3.461c.1-1.857-1.986-1.417-2.089-1.395.125-.081,2.675-1.751.27-5.179-2.464-3.511-6.584.558-6.584.558s.506-2.529,2.551-3.139c5.944-1.774,7.922,4.589,7.922,4.589S-1370.688,530.506-1371.1,533.483Z" transform="translate(1397.095 -525.787)" fill="#63212d"/>
                  <path id="Trazado_104389" data-name="Trazado 104389" d="M-1461.8,731.4a116,116,0,0,0-2.822,31.529l-.864,23.275a9.6,9.6,0,0,0-3.965.688,9.014,9.014,0,0,0-2.017,1.082c2.2-20.669.879-28.389.676-30.624-.3-3.236-.724-6.1-.9-7.814-.3-2.977-1.366-8.088.005-11.695a5.416,5.416,0,0,1,.625-1.257c.874-1.194,2.2-.937,7.28-4.395A14.484,14.484,0,0,1-1461.7,731S-1461.733,731.139-1461.8,731.4Z" transform="translate(1473.522 -705.563)" fill="url(#linear-gradient-3)"/>
                  <path id="Trazado_104390" data-name="Trazado 104390" d="M-1422.863,718.257a6,6,0,0,0-.962,1.58s-.037.135-.1.4a115.985,115.985,0,0,0-2.821,31.53c-3.021-8.594-2.324-25.672-2.324-25.672l2.205-.6-.049-.353a6.077,6.077,0,0,1,2.527-5.81Z" transform="translate(1435.651 -694.397)" fill="#271f37" opacity="0.75"/>
                  <g id="Grupo_55155" data-name="Grupo 55155" transform="translate(6.507 58.889)">
                    <path id="Trazado_104391" data-name="Trazado 104391" d="M-1427.908,1001.762c-.052.486-.372.849-.714.814a.451.451,0,0,1-.129-.034.87.87,0,0,1-.4-.914c.051-.486.37-.849.713-.814a.516.516,0,0,1,.369.24A1.045,1.045,0,0,1-1427.908,1001.762Z" transform="translate(1429.155 -1000.813)" fill="#271f37" opacity="0.75"/>
                    <path id="Trazado_104392" data-name="Trazado 104392" d="M-1424.816,1003.676c-.052.486-.372.849-.714.814a.52.52,0,0,1-.368-.238.446.446,0,0,0,.129.034c.342.035.662-.328.714-.814a1.046,1.046,0,0,0-.157-.708A.872.872,0,0,1-1424.816,1003.676Z" transform="translate(1426.302 -1002.522)" fill="#1d1729" opacity="0.75"/>
                  </g>
                  <g id="Grupo_55156" data-name="Grupo 55156" transform="translate(5.859 73.473)">
                    <path id="Trazado_104393" data-name="Trazado 104393" d="M-1433.136,1119.373c-.025.488-.325.87-.668.851a.483.483,0,0,1-.134-.028.869.869,0,0,1-.443-.89c.027-.488.326-.868.67-.849a.518.518,0,0,1,.381.218A1.052,1.052,0,0,1-1433.136,1119.373Z" transform="translate(1434.383 -1118.456)" fill="#271f37" opacity="0.75"/>
                    <path id="Trazado_104394" data-name="Trazado 104394" d="M-1429.745,1121.111c-.025.488-.326.87-.67.851a.519.519,0,0,1-.381-.22.489.489,0,0,0,.133.028c.344.019.644-.363.668-.851a1.053,1.053,0,0,0-.193-.7A.869.869,0,0,1-1429.745,1121.111Z" transform="translate(1431.241 -1120.002)" fill="#1d1729" opacity="0.75"/>
                  </g>
                  <g id="Grupo_55157" data-name="Grupo 55157" transform="translate(6.081 65.255)">
                    <path id="Trazado_104395" data-name="Trazado 104395" d="M-1431.342,1053.082c-.027.488-.326.869-.67.851a.445.445,0,0,1-.13-.026.87.87,0,0,1-.444-.891c.025-.488.325-.868.67-.849a.517.517,0,0,1,.381.22A1.047,1.047,0,0,1-1431.342,1053.082Z" transform="translate(1432.589 -1052.165)" fill="#271f37" opacity="0.75"/>
                    <path id="Trazado_104396" data-name="Trazado 104396" d="M-1427.939,1054.831c-.027.488-.327.869-.67.851a.519.519,0,0,1-.38-.218.442.442,0,0,0,.13.027c.344.019.644-.362.67-.851a1.047,1.047,0,0,0-.193-.7A.871.871,0,0,1-1427.939,1054.831Z" transform="translate(1429.435 -1053.723)" fill="#1d1729" opacity="0.75"/>
                  </g>
                  <path id="Trazado_104397" data-name="Trazado 104397" d="M-1461.55,1180.334l-.015,1.394a7.476,7.476,0,0,1-2-.312A9,9,0,0,1-1461.55,1180.334Z" transform="translate(1465.808 -1099.19)" fill="#2b204f"/>
                  <path id="Trazado_104398" data-name="Trazado 104398" d="M-1350.034,1099.012l1.6,10.433,2.431.237,10.834,1.748,1.48,21.933a107.22,107.22,0,0,0,5.689,27.966l1.793,5.157a70.3,70.3,0,0,1,2.954,11.625l2.632,15.94-4.586,2.012,6.364.094c-5.048-32.755-7.172-45.714-9.941-59.673-2.082-10.5-2.611-18.4-5.009-26.547-4.185-.049-5.853-1.465-11.886-.921l-.119.009c-.234.021-.474.046-.723.073v0c-.143.015-.286.03-.435.049,0,0-.106-.681-.267-1.76-.255-1.711-.659-4.431-1.027-7.039-.061-.453-.125-.9-.186-1.34Z" transform="translate(1366.35 -1027.95)" fill="#51242c" opacity="0.5"/>
                  <g id="Grupo_55160" data-name="Grupo 55160" transform="translate(9.582 10.407)">
                    <g id="Grupo_55158" data-name="Grupo 55158" transform="translate(4.999)">
                      <path id="Trazado_104399" data-name="Trazado 104399" d="M-1359.064,621.665a.08.08,0,0,1-.027,0,3.684,3.684,0,0,0-1.948-.137.079.079,0,0,1-.1-.058.08.08,0,0,1,.058-.1,3.774,3.774,0,0,1,2.041.142.079.079,0,0,1,.048.1A.08.08,0,0,1-1359.064,621.665Z" transform="translate(1361.496 -619.858)" fill="#5e2023"/>
                      <path id="Trazado_104400" data-name="Trazado 104400" d="M-1363.924,609.876a4.216,4.216,0,0,1,.913-.135,4.3,4.3,0,0,1,.923.061,4.261,4.261,0,0,1,.457.106c.075.023.148.052.223.078a1.7,1.7,0,0,1,.219.09,3.762,3.762,0,0,1,.812.5.279.279,0,0,1,.053.391.279.279,0,0,1-.391.053l-.016-.013-.016-.014a3.242,3.242,0,0,0-.658-.481,1.368,1.368,0,0,0-.184-.094c-.063-.028-.125-.058-.189-.084a3.858,3.858,0,0,0-.4-.127,3.949,3.949,0,0,0-.835-.124,3.979,3.979,0,0,0-.845.054l-.01,0a.134.134,0,0,1-.156-.108A.135.135,0,0,1-1363.924,609.876Z" transform="translate(1364.023 -609.738)" fill="#4f1019"/>
                    </g>
                    <g id="Grupo_55159" data-name="Grupo 55159">
                      <path id="Trazado_104401" data-name="Trazado 104401" d="M-1394.237,621.665a.081.081,0,0,0,.027,0,3.684,3.684,0,0,1,1.948-.137.079.079,0,0,0,.1-.058.079.079,0,0,0-.057-.1,3.775,3.775,0,0,0-2.041.142.079.079,0,0,0-.048.1A.08.08,0,0,0-1394.237,621.665Z" transform="translate(1395.56 -619.858)" fill="#5e2023"/>
                      <path id="Trazado_104402" data-name="Trazado 104402" d="M-1400.694,609.876a4.212,4.212,0,0,0-.912-.135,4.3,4.3,0,0,0-.923.061,4.243,4.243,0,0,0-.456.106c-.075.023-.148.052-.223.078a1.679,1.679,0,0,0-.219.09,3.756,3.756,0,0,0-.812.5.279.279,0,0,0-.053.391.279.279,0,0,0,.391.053l.016-.013.016-.014a3.241,3.241,0,0,1,.658-.481,1.348,1.348,0,0,1,.183-.094c.063-.028.126-.058.189-.084a3.877,3.877,0,0,1,.4-.127,3.95,3.95,0,0,1,.835-.124,3.979,3.979,0,0,1,.845.054l.01,0a.134.134,0,0,0,.156-.108A.135.135,0,0,0-1400.694,609.876Z" transform="translate(1404.349 -609.738)" fill="#4f1019"/>
                    </g>
                    <path id="Trazado_104403" data-name="Trazado 104403" d="M-1372.239,635.525c0,.559-.018,1.115-.033,1.669-.008.277-.012.554-.013.829a7.391,7.391,0,0,0,.035.82l-.056-.067a4.541,4.541,0,0,0,.605.181,3.185,3.185,0,0,0,.632.083,2.377,2.377,0,0,1-.649.023,3.512,3.512,0,0,1-.643-.127l-.047-.014-.01-.053a5.111,5.111,0,0,1-.068-.845c0-.281.007-.561.025-.839A12.106,12.106,0,0,1-1372.239,635.525Z" transform="translate(1376.436 -632.328)" fill="#f28a81"/>
                    <path id="Trazado_104404" data-name="Trazado 104404" d="M-1368.5,676.621c.217.016.431.023.643.027a4.413,4.413,0,0,0,.632-.033,1.58,1.58,0,0,0,1.1-.529,1.024,1.024,0,0,1-.444.482,1.69,1.69,0,0,1-.635.2A2.888,2.888,0,0,1-1368.5,676.621Z" transform="translate(1372.948 -667.86)" fill="#f28a81"/>
                  </g>
                  <g id="Grupo_55161" data-name="Grupo 55161" transform="translate(28.854 92.451)">
                    <path id="Trazado_104405" data-name="Trazado 104405" d="M-1248.236,1351.048l.943,2.742a.152.152,0,0,0,.144.1h.533a.152.152,0,0,0,.152-.152v-.467l.433-.017a.472.472,0,0,0,.442-.367l.223-.981Z" transform="translate(1248.318 -1341.192)" fill="#f28a81"/>
                    <path id="Trazado_104406" data-name="Trazado 104406" d="M-1244.378,1277.512a14.842,14.842,0,0,1,.58,3.747,1.638,1.638,0,0,1-.392.8c-1.076,1.243-3.911,1.121-4.589-.559-.574-1.422,1.155-3.987,1.155-3.987l0-1.292v-1.659l-.006-3.015,4.039.17-.216,1.592Z" transform="translate(1248.896 -1271.546)" fill="#feb396"/>
                  </g>
                  <path id="Trazado_104407" data-name="Trazado 104407" d="M-1254.261,804.72l-2.024,17.539-1.231,10.67-1.164-.046-.541-.021-2.632-.109-.872-.04h-.006l-.556-.021-.349-.015-.24-.009-.264-29.09a14.186,14.186,0,0,1,1.127-5.68l-1.179-6.595,0-.012-1.629-9.111a19.444,19.444,0,0,1,2.75-13.895l1.38-2.164.632.164a9.317,9.317,0,0,1,2.313.945c.213.121.419.255.62.4a9.146,9.146,0,0,1,1.985,1.857,9.017,9.017,0,0,1,1.942,4.966c.416,5.823-.945,8.051-1.532,21.645C-1254.647,798.964-1253.763,802.51-1254.261,804.72Z" transform="translate(1292.847 -736.326)" fill="#583d66"/>
                  <path id="Trazado_104408" data-name="Trazado 104408" d="M-1265.825,782.18l1.629,9.111,0,.012,1.179,6.595a14.184,14.184,0,0,0-1.127,5.68l.264,29.09.24.009.349.015c.5-5.944,2.513-30.385,1.942-35.226a3.916,3.916,0,0,0-.085-.486c-.091-.353-.179-.705-.267-1.052-5.121-20.757.635-29.643.635-29.643l-.632-.164-1.38,2.164A19.442,19.442,0,0,0-1265.825,782.18Z" transform="translate(1292.848 -736.327)" fill="#271f37" opacity="0.5"/>
                  <path id="Trazado_104409" data-name="Trazado 104409" d="M-1204.427,801.973a24.781,24.781,0,0,1,.152,2.5c.021.748.036,1.62.049,2.583.085,7.853-.109,21.888.422,25.835l2.024-17.539c.5-2.209-.386-5.756-1.474-8.628.587-13.594,1.948-15.822,1.532-21.645a9.014,9.014,0,0,0-1.942-4.966,9.152,9.152,0,0,0-1.984-1.857C-1205.683,778.387-1207.524,786.127-1204.427,801.973Z" transform="translate(1240.367 -746.958)" fill="#271f37" opacity="0.25"/>
                </g>
                <path id="Trazado_104410" data-name="Trazado 104410" d="M-1199.95,782.467l.108.82a.324.324,0,0,0,.355.28h0a.492.492,0,0,0,.428-.381l.426-1.892Z" transform="translate(1234.871 -749.619)" fill="#f2726b"/>
                <path id="Trazado_104411" data-name="Trazado 104411" d="M-1192.318,774.6l1.165-.372s2.572.208,3.015,1.715c1.029-.74.46-2.22.442-2.266s-.009-.514-.677-.56-2.175-.325-2.266-.343a.727.727,0,0,0-.713-.045c-.479.172-.975.181-1.02.388s-.162.253-.144.4S-1192.318,774.6-1192.318,774.6Z" transform="translate(1228.361 -742.059)" fill="#f2726b"/>
                <path id="Trazado_104412" data-name="Trazado 104412" d="M-1178.649,829.775l-.638.769-.158.191c-4.832-4-3.419-12.962-2.17-20.867l.149-.942a10.253,10.253,0,0,0-.134-5,3.411,3.411,0,0,0-.295-.623,2.477,2.477,0,0,0-.316-.422,1.909,1.909,0,0,0-1.471-.629l-.14-1.237a3.146,3.146,0,0,1,2.489.985,3.566,3.566,0,0,1,.438.553,4.365,4.365,0,0,1,.447.9c.033.091.067.182.1.28.039.122.073.249.106.38.027.1.049.2.07.31.027.134.052.271.07.413.015.079.024.161.033.246.006.042.012.085.015.131.012.1.021.21.031.319,0,.079.009.155.012.237s.009.161.009.243a16.887,16.887,0,0,1-.231,3.109l-.149.942C-1181.581,817.64-1182.937,826.232-1178.649,829.775Z" transform="translate(1220.742 -766.886)" fill="#f5947a"/>
                <path id="Trazado_104413" data-name="Trazado 104413" d="M-1004.613,560.64a2.258,2.258,0,0,0-.643-2.1,2.217,2.217,0,0,1,1.213,1.571c.47-.557-.062-2.165-.742-2.759.582.087,2.475,1.992,1.868,3.353s-1.608.99-1.633.878S-1004.613,560.64-1004.613,560.64Z" transform="translate(1064.313 -553.436)" fill="#63212d"/>
                <path id="Trazado_104414" data-name="Trazado 104414" d="M-1199.627,763.3l-1.341-.4a1.268,1.268,0,0,0-1.45.562l-1.422,2.367,1.719-1.523a10.924,10.924,0,0,1,1.554-.491C-1200.3,763.812-1199.627,763.3-1199.627,763.3Z" transform="translate(1238.279 -733.456)" fill="#f2726b"/>
                <path id="Trazado_104415" data-name="Trazado 104415" d="M-1177.38,785.935a5.024,5.024,0,0,1-.59-.119,8.587,8.587,0,0,1-2.541-1.289.638.638,0,0,1-.055-.039c-.106-.07-.213-.149-.325-.228-.383-.274-.787-.577-1.222-.912a145.356,145.356,0,0,0-16.876-11.023,3.006,3.006,0,0,1-1.921.887.561.561,0,0,1-.07,0,3.276,3.276,0,0,1-1.425-.359,13.358,13.358,0,0,0-3.592-.988.393.393,0,0,1-.27-.416.616.616,0,0,1,.024-.167.341.341,0,0,1,.328-.243l.748.006,1.857.018a3.238,3.238,0,0,0,.967-.14,3.192,3.192,0,0,0,.936-.432,1.34,1.34,0,0,0,.587-1.188.9.9,0,0,0-.684-.8l-2.866-.705-2.112,1.884a.593.593,0,0,1-.59.109.166.166,0,0,1-.076-.249l2.015-2.75a.723.723,0,0,1,.587-.3h1.492a6.883,6.883,0,0,1,4.3,1.513,12.961,12.961,0,0,0,3.908,2.219c6.759,2.307,10.123,3.328,13.311,4.519.094.036.188.07.283.106.24.091.48.182.723.276,1.213.474,2.449.994,3.89,1.641.823.371,1.711.781,2.7,1.252C-1172.226,778.827-1173.63,786.437-1177.38,785.935Z" transform="translate(1241.203 -736.649)" fill="url(#linear-gradient)"/>
                <path id="Trazado_104416" data-name="Trazado 104416" d="M-994.918,840.7c-.03.167-1.057,2.763-1.608,4.145-.2.508-.34.854-.34.854s-2.468-.121-3.191-1.419a5.121,5.121,0,0,0,.611-.988,6.332,6.332,0,0,0,.447-1.261c.891-3.556-.748-8-.808-8.154v0l3.9.407a4.4,4.4,0,0,1,.666,1.331c.012.058.03.119.046.179a4.492,4.492,0,0,1,.276,1.51C-995,837.766-994.881,840.474-994.918,840.7Z" transform="translate(1059.759 -795.685)" fill="#d4cdf7"/>
                <path id="Trazado_104417" data-name="Trazado 104417" d="M-1008.918,1882.515c-.019.638-.047,1.115-.072,1.47-.03.395-.06.638-.085.786a.264.264,0,0,1-.262.22h-16.132a.269.269,0,0,1-.265-.233,2.937,2.937,0,0,1-.026-.3,2.654,2.654,0,0,1,2.214-2.685c2.917-.486,6.471-1.078,8.45-4.207a.264.264,0,0,1,.223-.125h3.845a.263.263,0,0,1,.208.1A8.472,8.472,0,0,1-1008.918,1882.515Z" transform="translate(1082.277 -1709.881)" fill="#2f1a1d"/>
                <path id="Trazado_104418" data-name="Trazado 104418" d="M-937.874,1097.321h0l8.846-46.422h-18.165s-3.608,18.631-2.283,46.422h0l-.339,2.7.989,2s-1.013,38.393-2.383,51.151a.262.262,0,0,0,.159.271c1,.428,5.894,2.362,7.429.058a7.307,7.307,0,0,0,1.14-5.527l-.379-2.421a.257.257,0,0,1,.008-.116c.4-1.322,7.7-22.631,7.979-34.2C-934.785,1107.688-937.874,1097.321-937.874,1097.321Z" transform="translate(1016.967 -985.801)" fill="#0b151e"/>
                <path id="Trazado_104419" data-name="Trazado 104419" d="M-957.21,680.692l-7.589,5.244-.4-1.239-1.629-5.12,2.965-2.364,2.115-1.691.2-.156c.006.031.016.065.022.1a6.627,6.627,0,0,0,1.283,2.342,12.794,12.794,0,0,0,.912,1.028c.062.065.125.128.184.187.433.43.853.8,1.19,1.081.4.333.682.542.741.583Z" transform="translate(1030.646 -656.824)" fill="url(#linear-gradient)"/>
                <g id="Grupo_55163" data-name="Grupo 55163" transform="translate(81.382 169.976)">
                  <path id="Trazado_104420" data-name="Trazado 104420" d="M-813.863,1901.273c-.012.158-.033.319-.058.483l-.055.34a.265.265,0,0,1-.261.228h-10.53a.258.258,0,0,1-.243-.161,2.13,2.13,0,0,1-.1-.365,3.72,3.72,0,0,1,.4-2.45,1.846,1.846,0,0,1,1.207-.915h.015a7.276,7.276,0,0,0,.787-.094,5.123,5.123,0,0,0,2.887-1.361.26.26,0,0,1,.188-.079l4.628.006a.274.274,0,0,1,.24.143A7.193,7.193,0,0,1-813.863,1901.273Z" transform="translate(825.169 -1896.9)" fill="#2f1a1d"/>
                  <path id="Trazado_104421" data-name="Trazado 104421" d="M-818.558,1912.365h-6.211a.258.258,0,0,1-.244-.16,3.618,3.618,0,0,1,.3-2.814,1.851,1.851,0,0,1,1.208-.916h.013a1.071,1.071,0,0,1,.14-.025c.041-.006.078-.009.118-.016l.022,0,.062-.009c.087-.009.243-.025.445-.041.934-.059,2.859-.047,3.818.987a2.716,2.716,0,0,1,.575,2.822A.264.264,0,0,1-818.558,1912.365Z" transform="translate(825.173 -1906.942)" fill="#2f1a1d"/>
                </g>
                <path id="Trazado_104422" data-name="Trazado 104422" d="M-901.24,1155.766a.272.272,0,0,1-.307.146,17.482,17.482,0,0,0-4.632-.009.277.277,0,0,1-.17-.046,8.145,8.145,0,0,1-1.845-3.917,3.034,3.034,0,0,1-.03-.435c-.058-18.764-5.464-37.406-8.02-44.885-.672-1.957-1.188-3.914-1.209-4.009l0,0v-3.44c-4.2-26.428-6.847-28.644-6.546-36.1.024-.641.073-1.322.143-2.06.021-.255.049-.517.079-.787A12.545,12.545,0,0,1-924,1057.9a43.59,43.59,0,0,1,.623-7.017h18.165a33.948,33.948,0,0,1,3.793,10.275c-.793,8.248-.377,16.071-1.623,37.108,0,0,4.212,8.592,4.848,16.946C-897.505,1124.329-899.955,1152.973-901.24,1155.766Z" transform="translate(993.154 -985.79)" fill="#16293c"/>
                <path id="Trazado_104423" data-name="Trazado 104423" d="M-981.435,705.279c-3.489,1.048-6.844,6.349-6.343,12.086,0,.006,0,.012,0,.018-.021-.067-.042-.14-.07-.21a6.763,6.763,0,0,1-.261-1.115s0-.006,0-.009c-.711-4.878,3.623-10.5,4.455-11.524.085-.109.137-.164.137-.164l-.085-.264-.049-.158-.259-.818a12.2,12.2,0,0,0,5.088-4.16,7.333,7.333,0,0,0,.438-.809,6.814,6.814,0,0,0,.338-.893,6.7,6.7,0,0,0,.191-.86l1.924,2.708.006.009,0,0C-974.958,700.614-975.824,703.6-981.435,705.279Z" transform="translate(1049.361 -675.248)" fill="#e8e3f9"/>
                <path id="Trazado_104424" data-name="Trazado 104424" d="M-958.88,759.565v0a8.765,8.765,0,0,1-9.4,3.9,21.791,21.791,0,0,1-7.886,4.984c-.477.173-.909.313-1.279.419a13.213,13.213,0,0,1-1.48.356,22.451,22.451,0,0,1-1.316-5.99v0c-.043-.669-.049-1.3-.039-1.948a39.029,39.029,0,0,0-.489-7.929v0c-.049-.289-.1-.59-.155-.9l-.009-.3-.106-.334c-.541-1.678-2.972-9.366-4.188-15.217,0-.006,0-.012,0-.018-.5-5.738,2.854-11.038,6.343-12.086,5.61-1.681,6.476-4.665,5.513-6.16a.18.18,0,0,1,.033.021c.082.052.295.195.608.42.055.043.116.085.176.13a26.253,26.253,0,0,1,3.6,3.27q.16.173.319.355.511.574,1.018,1.228c.07.088.14.179.207.27s.134.173.2.264c.119.158.234.319.349.486s.231.334.343.5a22.257,22.257,0,0,1,1.86,3.41c.073.17.146.343.216.52.213.526.4,1.082.584,1.662a44.888,44.888,0,0,1,1.714,6.82c1.2,6.8,1.076,13.211,1.826,16.344.258,1.085,1.179,1.951,1.6,3.033.033.088.064.176.091.268A2.991,2.991,0,0,1-958.88,759.565Z" transform="translate(1046.818 -694.469)" fill="#1b4166"/>
                <path id="Trazado_104425" data-name="Trazado 104425" d="M-884.477,798.947c-.869,4.926-3.386,7.115-5.03,8.042a6.886,6.886,0,0,1-1.365.6c-.094.027-.143.036-.143.036v0q.429-.8.845-1.6c2.516-4.869,4.7-9.828,5.066-12.962a4.233,4.233,0,0,0-.164-1.429c-.021-.094-.046-.185-.067-.273a7.285,7.285,0,0,0-1.726-2.872,5.961,5.961,0,0,1,2.246,3.112s0,.009.006.012A14.113,14.113,0,0,1-884.477,798.947Z" transform="translate(964.234 -755.911)" fill="#d4cdf7"/>
                <path id="Trazado_104426" data-name="Trazado 104426" d="M-1083.276,1093.031c-4.3-.838-8.219-4.9-8.219-4.9a.025.025,0,0,1,0,.009c-.67.925-1.336,1.878-1.984,2.84l.035.431.127.354.006.016c.392,1.221,1.691,3.444,5.954,3.84,3.376.364,4.933-.7,5.705-2.445A7.722,7.722,0,0,1-1083.276,1093.031Z" transform="translate(1141.601 -1018.421)" fill="#e8e3f9"/>
                <path id="Trazado_104427" data-name="Trazado 104427" d="M-1048.427,778.718c-.322,2.72-2.009,6.82-4.1,11.041-.313.638-.638,1.279-.97,1.918-.276.541-.562,1.076-.845,1.608v0c-.234.441-.723,1.419-1.31,2.608-.413.839-.875,1.781-1.331,2.714-.991,2.036-1.951,4.015-2.31,4.753a.014.014,0,0,0,0,.009c-.064.107-.7,1.216-1.714,2.784-.313.48-.659,1.006-1.036,1.559a0,0,0,0,1,0,0c-.17.252-.349.51-.532.772-.544.769-1.143,1.583-1.793,2.4a34.553,34.553,0,0,1-4.862,5.063,10.024,10.024,0,0,1-1.635-.468,20.69,20.69,0,0,1-6.583-4.428c1.106-1.532,2.219-2.99,3.264-4.322l0,0c2.416-3.064,4.48-5.425,5.3-6.346-.161-.271-.328-.514-.243-.754a.616.616,0,0,1,.644-.416s-.48-.377-.246-.735a.637.637,0,0,1,.745-.271c.2-1.185.5-2.92.866-4.908.213-1.161.45-2.4.7-3.677v0c1.058-5.242,2.4-10.956,3.632-13.038a11.233,11.233,0,0,1,1.358-1.668c.286-.307.6-.632.933-.967a7.155,7.155,0,0,1,8.12-1.422.012.012,0,0,1,.009,0,6.882,6.882,0,0,1,2.048,1.456h0a6.757,6.757,0,0,1,1.766,3.276A4.237,4.237,0,0,1-1048.427,778.718Z" transform="translate(1127.559 -741.347)" fill="#e8e3f9"/>
                <path id="Trazado_104428" data-name="Trazado 104428" d="M-884.638,814.714c-.362,3.048-2.437,7.832-4.869,12.57a6.03,6.03,0,0,1-1.507.632v0q.429-.8.845-1.6c2.516-4.869,4.7-9.828,5.066-12.962a4.234,4.234,0,0,0-.164-1.429c-.021-.094-.046-.185-.067-.273a6.864,6.864,0,0,1,.58,1.62A4.3,4.3,0,0,1-884.638,814.714Z" transform="translate(964.234 -776.207)" fill="#847caa" opacity="0.15"/>
                <path id="Trazado_104429" data-name="Trazado 104429" d="M-946.2,725.5a10.688,10.688,0,0,0,1.812-.808,12.211,12.211,0,0,0,1.656-1.083,12.5,12.5,0,0,0,1.48-1.314,16,16,0,0,0,1.292-1.509c-.189.273-.363.558-.565.822s-.41.526-.641.767a11.335,11.335,0,0,1-1.472,1.354,11.112,11.112,0,0,1-1.694,1.065A8.376,8.376,0,0,1-946.2,725.5Z" transform="translate(1012.577 -696.614)" fill="#847caa" opacity="0.5"/>
                <path id="Trazado_104430" data-name="Trazado 104430" d="M-1003.759,903.4a5.142,5.142,0,0,1-.61.987,3.19,3.19,0,0,1-.611-1.9C-1004.547,902.821-1004.142,903.126-1003.759,903.4Z" transform="translate(1064.072 -855.789)" fill="#847caa"/>
                <path id="Trazado_104431" data-name="Trazado 104431" d="M-1008.849,1930.559c-.021.225-.042.38-.06.486a.264.264,0,0,1-.262.22H-1025.3a.269.269,0,0,1-.265-.233v-.005a.266.266,0,0,1,.258-.3l16.19-.46A.267.267,0,0,1-1008.849,1930.559Z" transform="translate(1082.111 -1756.155)" fill="#231416"/>
                <path id="Trazado_104432" data-name="Trazado 104432" d="M-1029.786,661.723a12.578,12.578,0,0,1-.5,6.394,5.39,5.39,0,0,1-3.766,3.307,9.392,9.392,0,0,1-4.367-1.389,11.637,11.637,0,0,1-1.565-1.152,39.648,39.648,0,0,1-3.443-3.8c-.048-.052-.1-.1-.143-.14-.143-.131-.283-.267-.417-.413.192-.018.389-.045.59-.079,6.151-.969,6.331-5,6.331-5,2.772-.638,4.96,1.617,4.96,1.617l1.1-.726,1.124-.748.453-.307a12.81,12.81,0,0,1-.31,2.264A1.653,1.653,0,0,1-1029.786,661.723Z" transform="translate(1098.244 -642.734)" fill="url(#linear-gradient)"/>
                <path id="Trazado_104433" data-name="Trazado 104433" d="M-912.641,695.01a6.407,6.407,0,0,1-.19.859,12.8,12.8,0,0,1-.912-1.028A1.658,1.658,0,0,1-912.641,695.01Z" transform="translate(984.145 -673.86)" fill="#938cac"/>
                <path id="Trazado_104434" data-name="Trazado 104434" d="M-1083.185,586.816l-.024.015-.453.307-2.222,1.474s-2.188-2.255-4.96-1.617c0,0-.179,4.033-6.331,5-.2.034-.4.061-.589.079-7.105.787-7.61-5.525-7.61-5.525a.033.033,0,0,1,.006.012c.109.137,2.887,2.045,4.355,1.289a.041.041,0,0,1-.006-.009c-1.285-2.188,1.058-9.859,6.659-10.591a7.412,7.412,0,0,1,2.988.246,2.951,2.951,0,0,1,1.188-.7,4.969,4.969,0,0,1,5.115,1.416,7.006,7.006,0,0,1,1.432,2.334C-1081.835,585.238-1083.185,586.816-1083.185,586.816Z" transform="translate(1152.019 -570.281)" fill="#773634"/>
                <path id="Trazado_104435" data-name="Trazado 104435" d="M-946.721,646.524a1.644,1.644,0,0,1-.815.629,1.086,1.086,0,0,1-.264.067,2.227,2.227,0,0,1-2.161-1.714,4.15,4.15,0,0,1-.216-.851,3.376,3.376,0,0,1,.492-2.4,1.612,1.612,0,0,1,1.094-.717c1.1-.152,2.158,1,2.377,2.565A3.371,3.371,0,0,1-946.721,646.524Z" transform="translate(1016.096 -627.175)" fill="#f8b296"/>
                <path id="Trazado_104436" data-name="Trazado 104436" d="M-942.339,655.551a1.075,1.075,0,0,1-.56.357,1.152,1.152,0,0,1-.678-.049,2,2,0,0,1-.979-.919,2.947,2.947,0,0,1-.344-1.3,2.17,2.17,0,0,1,.343-1.277,2.451,2.451,0,0,0-.226,1.271,3,3,0,0,0,.361,1.231,1.952,1.952,0,0,0,.889.884A1.081,1.081,0,0,0-942.339,655.551Z" transform="translate(1011.44 -636.673)" fill="#db6951" opacity="0.5"/>
                <path id="Trazado_104437" data-name="Trazado 104437" d="M-1017.2,717.024c.562.645,1.084,1.319,1.642,1.956.278.318.564.63.87.918a4.33,4.33,0,0,0,1,.742l-.063,0c.137-.071.271-.147.4-.226a1.96,1.96,0,0,0,.372-.278,1.528,1.528,0,0,1-.322.346,3.324,3.324,0,0,1-.383.28l-.028.018-.035-.014a3.676,3.676,0,0,1-1.091-.713,9.151,9.151,0,0,1-.89-.936A18.4,18.4,0,0,1-1017.2,717.024Z" transform="translate(1074.772 -693.317)" fill="#db6951" opacity="0.5"/>
                <path id="Trazado_104438" data-name="Trazado 104438" d="M-1008.747,695.775c.041-.344.1-.684.16-1.023l0-.018.016-.014a5.344,5.344,0,0,1,1.275-.816,4.48,4.48,0,0,1,.711-.26,3.7,3.7,0,0,1,.743-.133,6.831,6.831,0,0,0-1.392.522,7.893,7.893,0,0,0-1.259.777l.019-.032C-1008.556,695.111-1008.643,695.445-1008.747,695.775Z" transform="translate(1067.372 -672.718)" fill="#db6951" opacity="0.5"/>
                <path id="Trazado_104439" data-name="Trazado 104439" d="M-1027.32,716.644a2.652,2.652,0,0,1-.781-.093l.053-.009a2.369,2.369,0,0,1-.459.2,2.363,2.363,0,0,1,.383-.321l.022-.015.032.006A2.664,2.664,0,0,1-1027.32,716.644Z" transform="translate(1084.682 -692.773)" fill="#db6951" opacity="0.5"/>
                <path id="Trazado_104440" data-name="Trazado 104440" d="M-968.324,729.744a.076.076,0,0,1-.065-.036.076.076,0,0,1,.025-.1,2.24,2.24,0,0,0,.848-1.207.076.076,0,0,1,.094-.052.076.076,0,0,1,.051.094,2.349,2.349,0,0,1-.914,1.294A.075.075,0,0,1-968.324,729.744Z" transform="translate(1032.027 -703.231)" fill="#db6951" opacity="0.5"/>
                <path id="Trazado_104441" data-name="Trazado 104441" d="M-792.257,1015.172a3.627,3.627,0,0,1-1.872.5.491.491,0,0,1-.383-.195.485.485,0,0,1-.085-.167l-.407-1.5a.259.259,0,0,1,.2-.322,3.458,3.458,0,0,0,1.368-.568.816.816,0,0,1,1.2.252,2.814,2.814,0,0,1,.161.353,3.836,3.836,0,0,1,.2.869A.793.793,0,0,1-792.257,1015.172Z" transform="translate(880.135 -952.385)" fill="#1d69b3"/>
                <path id="Trazado_104442" data-name="Trazado 104442" d="M-788.415,1031.1a.7.7,0,0,1-.191.161,3.63,3.63,0,0,1-1.872.492.487.487,0,0,1-.468-.362l-.021-.082a.49.49,0,0,0,.383.195,3.627,3.627,0,0,0,1.872-.5.824.824,0,0,0,.207-.176C-788.473,1030.921-788.443,1031.009-788.415,1031.1Z" transform="translate(876.591 -968.223)" fill="#16293c" opacity="0.25"/>
                <path id="Trazado_104443" data-name="Trazado 104443" d="M-781.243,1017.656c.125.415.055.8-.156.867s-.484-.221-.609-.636-.056-.8.156-.867S-781.368,1017.24-781.243,1017.656Z" transform="translate(868.796 -956.114)" fill="#14314d"/>
                <path id="Trazado_104444" data-name="Trazado 104444" d="M-1086.094,641.753a4.058,4.058,0,0,0,.215.853s-2.189-2.255-4.961-1.62c0,0-.178,4.033-6.328,5-7.667,1.211-8.2-5.447-8.2-5.447a.036.036,0,0,1,.006.012c.146.377,3.3,8.705,10.924,2.668,1.8-1.43.9-4.354.9-4.354a9.523,9.523,0,0,1,7.94.481A3.373,3.373,0,0,0-1086.094,641.753Z" transform="translate(1152.015 -624.274)" fill="#63212d"/>
                <path id="Trazado_104445" data-name="Trazado 104445" d="M-940.051,657.325a1.574,1.574,0,0,1-.145-.649,1.376,1.376,0,0,1,.152-.662,1.271,1.271,0,0,1,.461-.5,1.88,1.88,0,0,1,.3-.154c.106-.035.214-.063.321-.087a3,3,0,0,0-.551.336,1.435,1.435,0,0,0-.4.475A1.983,1.983,0,0,0-940.051,657.325Z" transform="translate(1007.319 -639.22)" fill="#db6951" opacity="0.5"/>
                <path id="Trazado_104446" data-name="Trazado 104446" d="M-930.062,684.533a6.551,6.551,0,0,1-.336.894,7.2,7.2,0,0,1-.439.81c-.324-.682-.785-1.641-1.218-2.488a13.017,13.017,0,0,1-1.358,4.148,11.659,11.659,0,0,0,.6-5.394,1.669,1.669,0,0,0,.813-.629,7.81,7.81,0,0,0,1.028,1.632A12.806,12.806,0,0,0-930.062,684.533Z" transform="translate(1001.377 -662.523)" fill="#db6951" opacity="0.5"/>
                <path id="Trazado_104447" data-name="Trazado 104447" d="M-985.363,757.8c-.831,1.025-5.167,6.646-4.453,11.523-1.784-7.007,4.457-12.111,4.457-12.111l.05.159.084.265S-985.276,757.692-985.363,757.8Z" transform="translate(1051.069 -728.522)" fill="#16293c"/>
                <path id="Trazado_104448" data-name="Trazado 104448" d="M-921.538,965.606a5.545,5.545,0,0,1-.59,2.525c-.179-.03-.359-.067-.535-.1a5.46,5.46,0,0,0,.814-2.921v-.049c.091.018.182.036.277.052A3.712,3.712,0,0,1-921.538,965.606Z" transform="translate(991.959 -910.603)" fill="#e8e3f9" opacity="0.5"/>
                <path id="Trazado_104449" data-name="Trazado 104449" d="M-1205.62,796.526a1.594,1.594,0,0,1,1.606-1.5l.345,0a3.262,3.262,0,0,0,.968-.137,2.246,2.246,0,0,0-2.586-.943,2.481,2.481,0,0,0-1.791,2.26c-.493,7.987-2.332,48.642,6.21,68.073l1.14-.5C-1207.956,845.06-1206.1,804.82-1205.62,796.526Z" transform="translate(1241.561 -760.616)" fill="#f5947a"/>
                <g id="Grupo_55164" data-name="Grupo 55164" transform="translate(35.83 72.563)">
                  <path id="Trazado_104450" data-name="Trazado 104450" d="M-1191.374,1231.172l-1.068,1.714c-.711.952.909,1.195.909,1.195.248.9,1.247.644,1.247.644a4.276,4.276,0,0,0,.7.467,1.256,1.256,0,0,0,.942-.013s.5.417.871.264c1.106-.462,1.666-2,2.2-3.524C-1186.38,1230.826-1191.374,1231.172-1191.374,1231.172Z" transform="translate(1192.622 -1216.244)" fill="#ef7b60"/>
                  <path id="Trazado_104451" data-name="Trazado 104451" d="M-1168.559,1115.76a136.961,136.961,0,0,0-10.616,9.637s0,.006-.006.006c-.14.14-.283.286-.428.432-.641,2.2-1.507,3.431-3.586,3.328a4.965,4.965,0,0,1-2.121-.608c-.444-.24-.857-.532-.857-.784a3.533,3.533,0,0,1,1.528-2.911l1.088-.751c3.908-5.254,5.717-8.318,7.95-11.64.3-.444.6-.89.924-1.349a3.48,3.48,0,0,0,.161.784l.006.015C-1174.121,1113.14-1172.823,1115.365-1168.559,1115.76Z" transform="translate(1186.973 -1111.119)" fill="url(#linear-gradient)"/>
                </g>
                <path id="Trazado_104452" data-name="Trazado 104452" d="M-1029.683,663.067a1.94,1.94,0,0,1-2.358-.122c-.45-.586-2.14-2.209-3.784-2.118a9.667,9.667,0,0,1-7.6,4.61c-.048-.052-.1-.1-.143-.14-.143-.131-.283-.267-.417-.413.192-.018.389-.045.59-.079,6.151-.969,6.331-5,6.331-5,2.772-.638,4.96,1.617,4.96,1.617a2.227,2.227,0,0,0,2.161,1.714A1.09,1.09,0,0,0-1029.683,663.067Z" transform="translate(1098.244 -643.09)" fill="#db6951" opacity="0.5"/>
                <path id="Trazado_104453" data-name="Trazado 104453" d="M-1234.832,1309.07a1.639,1.639,0,0,1-.392.8,8.963,8.963,0,0,0-1.009-4.841l-2.428-1v-.739l.872.04,2.632.109-.255,1.881A14.849,14.849,0,0,1-1234.832,1309.07Z" transform="translate(1268.783 -1206.906)" fill="#f28a81"/>
                <path id="Trazado_104454" data-name="Trazado 104454" d="M-1129.717,1125.4c1.2-1.508,6.58-6.562,7.792-8.741-3.208-1.625-4.218-2.959-4.224-4.187.3-.444.6-.89.924-1.349a3.483,3.483,0,0,0,.161.784l.006.015c.395,1.222,1.693,3.446,5.957,3.841A136.938,136.938,0,0,0-1129.717,1125.4Z" transform="translate(1173.345 -1038.556)" fill="#f28a81"/>
                <path id="Trazado_104455" data-name="Trazado 104455" d="M-1069.233,1062.461c-4.3-.836-8.218-4.9-8.218-4.9,1.106-1.532,2.219-2.99,3.264-4.322l.009,0-2.316,4A17.168,17.168,0,0,0-1069.233,1062.461Z" transform="translate(1127.559 -987.852)" fill="#847caa" opacity="0.15"/>
                <path id="Trazado_104456" data-name="Trazado 104456" d="M-1036.321,709.189a1.193,1.193,0,0,1,.376-.481,1.624,1.624,0,0,1,.534-.289,1.551,1.551,0,0,1,.6-.08,1.205,1.205,0,0,1,.586.175c-.2.084-.373.129-.545.187l-.5.161C-1035.6,708.966-1035.919,709.086-1036.321,709.189Z" transform="translate(1091.527 -685.705)" fill="#4a1922"/>
                <path id="Trazado_104457" data-name="Trazado 104457" d="M-1014.161,681.437a1.721,1.721,0,0,1,.2-1.167,2.8,2.8,0,0,1,.793-.9,3.651,3.651,0,0,1,1.044-.545c.187-.054.378-.1.567-.134a4.147,4.147,0,0,1,.583-.033,4.735,4.735,0,0,1-.477.32c-.158.1-.31.2-.467.292-.3.2-.6.382-.873.6a5.413,5.413,0,0,0-.768.684A3.589,3.589,0,0,0-1014.161,681.437Z" transform="translate(1072.145 -659.702)" fill="#4a1922"/>
                <path id="Trazado_104458" data-name="Trazado 104458" d="M-813.452,1932.177c-.012.158-.033.319-.058.483l-.055.341a.265.265,0,0,1-.261.228h-10.53a.258.258,0,0,1-.243-.161,2.125,2.125,0,0,1-.1-.365Z" transform="translate(906.141 -1757.828)" fill="#231416"/>
                <path id="Trazado_104459" data-name="Trazado 104459" d="M-900.067,1155.787s-1.316-35.29-3.176-44.115c.061-3.741,0-11.8,0-11.8a73.1,73.1,0,0,1-3.115-17.615c1.164-6.871,3.115-25.93,3.115-25.93s-2.857,1.188-8.841.544a25.676,25.676,0,0,1-10.6,4.151c.021-.255.049-.517.079-.787a.068.068,0,0,1,0-.024,21.83,21.83,0,0,0,9.166-5.4,8.765,8.765,0,0,0,9.4-3.9,33.911,33.911,0,0,1,3.793,10.272c-.793,8.248-.377,16.071-1.623,37.107,0,0,4.212,8.592,4.847,16.946C-896.332,1124.351-898.781,1152.995-900.067,1155.787Z" transform="translate(991.981 -985.812)" fill="#0b151e" opacity="0.25"/>
                <path id="Trazado_104460" data-name="Trazado 104460" d="M-1001.91,778.718c-.371,3.13-2.55,8.093-5.066,12.959-.277.541-.562,1.076-.845,1.608v0c-.234.441-.723,1.419-1.31,2.608-.413.839-.875,1.781-1.331,2.714-.991,2.036-1.951,4.015-2.31,4.753a.013.013,0,0,0,0,.009c-.085.14-1.146,1.991-2.75,4.343a0,0,0,0,1,0,0c-.17.252-.349.51-.532.772-.544.769-1.143,1.583-1.793,2.4a34.556,34.556,0,0,1-4.862,5.063,10.024,10.024,0,0,1-1.635-.468l6.7-7.118s4.045-14.451,5.422-17.709c5.455-2.915,6.665-13.512,4.626-15.2-1.778-1.471-6.194-.757-7.3-.547.286-.307.6-.632.933-.967a7.155,7.155,0,0,1,8.12-1.422.012.012,0,0,1,.009,0,6.883,6.883,0,0,1,2.048,1.456h0a6.757,6.757,0,0,1,1.766,3.276A4.237,4.237,0,0,1-1001.91,778.718Z" transform="translate(1081.041 -741.347)" fill="#d4cdf7" opacity="0.5"/>
                <path id="Trazado_104461" data-name="Trazado 104461" d="M-1169.277,844.061l-.638.769c-4.75-5.559-2.954-13.482-2.483-16.01,2.152-8.522,1.182-10.245,1.182-10.245l-1.012-.365a3.413,3.413,0,0,0-.295-.623l-.191-.276a3.931,3.931,0,0,0,1.567.422.548.548,0,0,0,.07,0c.033.091.067.182.1.28.04.122.073.249.106.38.028.1.049.2.07.31.027.134.052.271.07.413.015.079.024.161.033.246.006.043.012.085.015.131.012.1.021.21.03.319,0,.079.009.155.012.237s.009.161.009.243a16.886,16.886,0,0,1-.231,3.109l-.149.942C-1172.21,831.926-1173.565,840.517-1169.277,844.061Z" transform="translate(1211.371 -781.171)" fill="#f19b6c"/>
                <path id="Trazado_104462" data-name="Trazado 104462" d="M-1192.794,1239.491l-.589.9a.965.965,0,0,0,.271,1.332l.583.389.066.131a.691.691,0,0,0,.948.3l.616-.334-.268-.434s-.827-.525-.866-.564-.594-.643-.594-.643l-.193-.131Z" transform="translate(1229.258 -1151.014)" fill="#ef7b60"/>
                <path id="Trazado_104463" data-name="Trazado 104463" d="M-1122.571,824.253a6.349,6.349,0,0,1-.447,1.261c-.383-.274-.787-.577-1.222-.912a145.364,145.364,0,0,0-16.876-11.023l17.487,9.658a16.18,16.18,0,0,0-.033-7.245l.283.106C-1123.319,816.258-1121.681,820.7-1122.571,824.253Z" transform="translate(1183.331 -777.903)" fill="#db6951" opacity="0.5"/>
                <path id="Trazado_104464" data-name="Trazado 104464" d="M-935.645,832.445s7.883-9.114,3.565-18.766a14.115,14.115,0,0,1,.331,7.346c-.869,4.926-3.386,7.115-5.03,8.042a6.892,6.892,0,0,1-1.365.6c-.049.088-.1.176-.143.264v0c-.234.441-.723,1.419-1.31,2.607-.413.839-.875,1.781-1.331,2.714-.991,2.036-1.951,4.015-2.31,4.753a.014.014,0,0,0,0,.009c-.064.107-.7,1.216-1.714,2.784,0,1.076-.033,2-.018,2.948,0,.012,0,.024,0,.036.006.32.017.642.039.974v0a22.447,22.447,0,0,0,1.316,5.99,13.228,13.228,0,0,0,1.48-.356c.371-.106.8-.246,1.279-.419a23.993,23.993,0,0,1-1.458-9.25Z" transform="translate(1011.506 -777.989)" fill="#16293c" opacity="0.5"/>
                <path id="Trazado_104465" data-name="Trazado 104465" d="M-1038.336,796.592s-2.264,16.615-4.963,23.13a16.482,16.482,0,0,1-7.8,8.686c2.416-3.063,4.48-5.425,5.3-6.346-.161-.271-.328-.514-.243-.754a.616.616,0,0,1,.644-.416s-.48-.377-.246-.735a.637.637,0,0,1,.745-.271c.2-1.185.5-2.92.866-4.908.213-1.161.45-2.4.705-3.677v0c1.057-5.242,2.4-10.956,3.632-13.038A11.24,11.24,0,0,1-1038.336,796.592Z" transform="translate(1104.472 -763.021)" fill="#fff" opacity="0.25"/>
                <path id="Trazado_104466" data-name="Trazado 104466" d="M-917.457,1185.223c-4.2-26.428-6.847-28.644-6.546-36.1C-924,1149.118-912.105,1161.949-917.457,1185.223Z" transform="translate(993.154 -1071.844)" fill="#1b4166" opacity="0.5"/>
                <path id="Trazado_104467" data-name="Trazado 104467" d="M-861.749,1517.46a3.032,3.032,0,0,1-.03-.435c-.058-18.764-5.464-37.405-8.02-44.885-.672-1.957-1.188-3.914-1.209-4.009.173.143,5.668,4.8,8.008,15.323C-860.968,1492.609-861.542,1512.065-861.749,1517.46Z" transform="translate(946.709 -1351.31)" fill="#1b4166" opacity="0.5"/>
                <path id="Trazado_104468" data-name="Trazado 104468" d="M-990.137,585.091a5.628,5.628,0,0,1,2.674-.858,2.667,2.667,0,0,1,1.388.326,3.95,3.95,0,0,1,1.065.954,4.024,4.024,0,0,1,.813,2.686,7.511,7.511,0,0,1-.719,2.724,9.993,9.993,0,0,0,.416-1.343,6.139,6.139,0,0,0,.187-1.384,4.536,4.536,0,0,0-.179-1.371,3.7,3.7,0,0,0-.637-1.218,3.819,3.819,0,0,0-1.014-.928,2.658,2.658,0,0,0-1.318-.33,4.739,4.739,0,0,0-1.373.215A6.687,6.687,0,0,0-990.137,585.091Z" transform="translate(1051.069 -576.987)" fill="#63212d"/>
                <path id="Trazado_104469" data-name="Trazado 104469" d="M-990.137,591.507a5.23,5.23,0,0,1,2.57.029,2.482,2.482,0,0,1,1.126.663,2.72,2.72,0,0,1,.626,1.151,2.951,2.951,0,0,1,.068,1.308,2.123,2.123,0,0,1-.622,1.147,2.577,2.577,0,0,1-1.143.615,3.665,3.665,0,0,1-1.288.068,3.051,3.051,0,0,0,2.349-.766,2.083,2.083,0,0,0,.568-1.09,2.818,2.818,0,0,0-.079-1.242,2.571,2.571,0,0,0-.579-1.1,2.478,2.478,0,0,0-1.062-.648,4.493,4.493,0,0,0-1.253-.212A6.16,6.16,0,0,0-990.137,591.507Z" transform="translate(1051.069 -583.232)" fill="#63212d"/>
                <path id="Trazado_104470" data-name="Trazado 104470" d="M-1056.722,578.215c-2.823-2.592-6.155-.465-6.155-.465s-2.945.7-3.054,2.921c-.75,7-6.734,7.181-6.734,7.181a.036.036,0,0,1-.006-.009c-1.286-2.188,1.057-9.859,6.659-10.591a7.412,7.412,0,0,1,2.988.246,2.952,2.952,0,0,1,1.188-.7A4.97,4.97,0,0,1-1056.722,578.215Z" transform="translate(1123.672 -570.281)" fill="#992c2c" opacity="0.5"/>
                <path id="Trazado_104471" data-name="Trazado 104471" d="M-993.841,704.474a1.8,1.8,0,0,1-.624,2.412,1.8,1.8,0,0,1-2.491.045,1.8,1.8,0,0,1,.624-2.412A1.8,1.8,0,0,1-993.841,704.474Z" transform="translate(1057.269 -681.905)" fill="#db6951" opacity="0.15"/>
                <path id="Trazado_104472" data-name="Trazado 104472" d="M-1010.136,737.619a11.629,11.629,0,0,1-1.565-1.152,1.285,1.285,0,0,1,.979.146A1.325,1.325,0,0,1-1010.136,737.619Z" transform="translate(1069.959 -710.318)" fill="#db6951" opacity="0.15"/>
              </g>
            </g>
          </g>
        </g>
      </g>
    </g>
  </g>
</svg>
