<svg xmlns="http://www.w3.org/2000/svg" width="400" height="326.682" viewBox="0 0 400 326.682">
  <g id="Grupo_1065949" data-name="Grupo 1065949" transform="translate(-600 -2621.332)">
    <rect id="Image_Place_Holder" data-name="Image Place Holder" width="400" height="270.769" rx="10" transform="translate(600 2677.245)" fill="#baefe4" opacity="0.5"/>
    <g id="Grupo_1065917" data-name="Grupo 1065917" transform="translate(455.67 2485.824)">
      <path id="Trazado_776261" data-name="Trazado 776261" d="M402.839,331.607,348.5,300.66c-5.924-2.708-14.4-4.862-20.437-1.721-5.5,2.862-14.558,8.72-18.564,11-3.043,1.734-13.6,8.063-7.025,11.639,19.351,10.522,38.5,22.356,58.15,33.046,3.716,2.021,9.153,2.752,14.86,2.278a39.36,39.36,0,0,0,16.093-4.793q4.9-2.849,9.636-5.608c4.262-2.482,6.522-5.417,6.747-8.13C408.179,335.724,406.475,333.267,402.839,331.607Z" transform="translate(13.13 53.104)" fill="#73d8c0" fill-rule="evenodd"/>
      <path id="Trazado_776262" data-name="Trazado 776262" d="M362.815,359.932l-54.339-30.948c-5.924-2.707-14.4-4.861-20.439-1.72-5.5,2.862-14.558,8.72-18.562,11-3.043,1.734-13.6,8.063-7.025,11.639,19.35,10.522,38.5,22.357,58.15,33.045,3.716,2.023,9.152,2.753,14.86,2.279a39.36,39.36,0,0,0,16.093-4.793q4.9-2.849,9.636-5.61c4.262-2.481,6.522-5.416,6.747-8.129C368.153,364.049,366.451,361.592,362.815,359.932Z" transform="translate(0 62.396)" fill="#73d8c0" fill-rule="evenodd"/>
      <g id="Grupo_1065916" data-name="Grupo 1065916" transform="translate(288.785 135.508)">
        <g id="Grupo_1065894" data-name="Grupo 1065894" transform="translate(54.141)">
          <g id="Grupo_1065879" data-name="Grupo 1065879" transform="translate(0 34.314)">
            <path id="Trazado_776263" data-name="Trazado 776263" d="M327.52,224.887c-.178,1.6-1.173,2.8-1.8,4.059-1.356,2.724-1.037,5.017-1.2,7.276a28.71,28.71,0,0,0-.109,5.707,4.581,4.581,0,0,0,1.568,2.114c2.991,1.478,9.253-3.15,9.188-5.7l-.143-2.6c.393-2.021,1.019-3.477,1.163-4.942.177-1.785-.882-3.506-.2-6.069Z" transform="translate(-321.941 -140.55)" fill="#e8a476" fill-rule="evenodd"/>
            <path id="Trazado_776264" data-name="Trazado 776264" d="M324.33,237.946a10.989,10.989,0,0,0,.08,2.664,4.592,4.592,0,0,0,1.568,2.116c2.991,1.477,9.253-3.151,9.188-5.7l-.143-2.6c.065-.333.137-.652.211-.958-1.642-.236-4.333.153-4.635-.765-.657-2-.328-3.379-2.015-3.952C326.443,232.484,325.143,231.949,324.33,237.946Z" transform="translate(-321.941 -139.232)" fill="#db9669" fill-rule="evenodd"/>
            <path id="Trazado_776265" data-name="Trazado 776265" d="M326.431,237.883a15.825,15.825,0,0,1,.085,3.185c-.146.631-.392.531-.979.405a2.677,2.677,0,0,0,2.218.23,40.6,40.6,0,0,0,6.211-2.058c1.728-.794,1.345-1.461,1.371-3.011.039-2.319-.058-3.758-.7-3.936-1.088-.139-6.283,1.829-7.569,2.343S326.307,236.63,326.431,237.883Z" transform="translate(-321.534 -137.941)" fill="#e8a476" fill-rule="evenodd"/>
            <path id="Trazado_776266" data-name="Trazado 776266" d="M327.248,238.879c.064.655-.549,2.535-1.711,2.284a2.677,2.677,0,0,0,2.218.23,40.6,40.6,0,0,0,6.211-2.058c1.728-.794,1.345-1.461,1.371-3.011.039-2.319,0-2.506-.645-2.684-1.088-.139-5.521,1.883-6.806,2.4S327.123,237.628,327.248,238.879Z" transform="translate(-321.534 -137.631)" fill="#f1b287" fill-rule="evenodd"/>
            <path id="Trazado_776267" data-name="Trazado 776267" d="M336.784,247.165c-1.449,2.134-9.292,2.608-10.19-.648-1.325-18.969,1.8-29.976,2.133-40.743a163.271,163.271,0,0,1-.843-22.837c.357-6.99,1.292-16.542,7.735-20.355a7.75,7.75,0,0,1,4.3-1.22C356.391,162.786,338.527,239.922,336.784,247.165Z" transform="translate(-321.295 -161.346)" fill="#a3bec7" fill-rule="evenodd"/>
            <path id="Trazado_776268" data-name="Trazado 776268" d="M327.661,225.948c-1.546,2.713-3.537,4.2-4.17,5.824-.649,1.661-.173,4.565-.968,7.715,3.667,1.141,3.078-3.554,3.882-4.9.738-1.239,2-1.325,2.489-2.557C329.659,230.09,329.737,226.924,327.661,225.948Z" transform="translate(-322.523 -140.153)" fill="#e8a476" fill-rule="evenodd"/>
            <path id="Trazado_776269" data-name="Trazado 776269" d="M327.661,225.948c-1.546,2.713-3.537,4.2-4.17,5.824-.649,1.661-.173,4.565-.968,7.715,1.871-.219,1.718-4.915,2.521-6.262C325.182,232.992,328.118,228.66,327.661,225.948Z" transform="translate(-322.523 -140.153)" fill="#f1b287" fill-rule="evenodd"/>
          </g>
          <g id="Grupo_1065880" data-name="Grupo 1065880" transform="translate(6.764 32.581)">
            <path id="Trazado_776270" data-name="Trazado 776270" d="M373.14,173.8c-5.286-2.932-23.511-14.513-28.844-13.724-6.148.911-9.995,3.834-12.346,8.428-3.124,6.1-4.916,14.755-4.163,25.921.438,6.513,2.444,12.794,2.523,20.888.046,4.654.12,10.871.235,17.214,3.376,11.3,25.893,15.318,37.669,7.077a21.6,21.6,0,0,1-1.53-6.874c-.635-9.266,15.6-34.576,15.48-47.384C382.11,179.664,377.326,176.124,373.14,173.8Z" transform="translate(-327.616 -160.041)" fill="#b9d1d9" fill-rule="evenodd"/>
            <path id="Trazado_776271" data-name="Trazado 776271" d="M328.058,188.529c1.456,5.414,2.128,19.55,2.145,21.139.029,2.687.036,5.7.088,8.96,3.522,7.347,14.619,11.725,23.824,10.217-.037-2.2.452-21.674,1.143-27.621C344.862,201.884,332.856,192.36,328.058,188.529Z" transform="translate(-327.471 -150.695)" fill="#d1e8eb" fill-rule="evenodd"/>
            <path id="Trazado_776272" data-name="Trazado 776272" d="M372.42,173.8c-5.286-2.931-23.511-14.512-28.844-13.723a19.369,19.369,0,0,0-5.3,1.519c7.671,1.914,24.363,9.931,31.867,16.994-7.635,5.865-9.334,10.68-10.176,18.334-.254,2.3,1.089,4.758.464,7.812a138.535,138.535,0,0,0-2.733,34.1c-3,1.394-8.056,1.535-12.991.335-6.577-1.6-9.469-2.529-14.056-6.349l-.835-1.046c2.247,16.978,38.324,14.48,37.531,7.445a21.733,21.733,0,0,1-1.379-6.49c-.635-9.267,15.6-34.576,15.48-47.384C381.39,179.664,376.606,176.124,372.42,173.8Z" transform="translate(-326.896 -160.041)" fill="#a3bec7" fill-rule="evenodd"/>
            <path id="Trazado_776273" data-name="Trazado 776273" d="M372.383,179.149c-2.553,2.124-12.037-3.332-15.367,3.849-4.947,10.664,5.428,26.289,5.41,26.892,1.669-3.76,2.733-6.434,4.173-9.164C369.8,194.662,372.979,189.342,372.383,179.149Z" transform="translate(-318.41 -153.777)" fill="#90a8b0" fill-rule="evenodd"/>
            <path id="Trazado_776274" data-name="Trazado 776274" d="M341.655,165.887a20.007,20.007,0,0,0-3.874,13.089c.112,4.717,3.254,7.5,1.173,18.355a23.909,23.909,0,0,1-11.213-7.94c-.695-9.416,2.707-23.933,8.94-26.925A50.4,50.4,0,0,1,341.655,165.887Z" transform="translate(-327.604 -159.246)" fill="#d1e8eb" fill-rule="evenodd"/>
            <path id="Trazado_776275" data-name="Trazado 776275" d="M358.673,171.012a29.57,29.57,0,0,1,5.493,4.311c-3.53,4.669-5.875,6.368-7.712,9.4-3.762,6.21-1.94,13.067-2.341,17.277-3.274,1.819-10.472-1.266-15.1-5.44-1.4-5.392-.1-13.768,5.064-16.824C348.032,177.4,353.157,175.448,358.673,171.012Z" transform="translate(-324.05 -156.442)" fill="#d1e8eb" fill-rule="evenodd"/>
          </g>
          <g id="Grupo_1065886" data-name="Grupo 1065886" transform="translate(0.111 101.834)">
            <g id="Grupo_1065881" data-name="Grupo 1065881" transform="translate(0 115.359)">
              <path id="Trazado_776276" data-name="Trazado 776276" d="M339.647,299.823c-.91,3.2-1.139,4.849-2.468,6.709-2.649,3.712-6.555,6.363-12.242,10.395-2.705,1.918-3.276,3.736-.538,5.408,2.158,1.316,7.436.271,10.733-.5,6.185-1.456,8.685-5.178,10.8-6.146l1.6.363c1.312.024,6.466-2.057,7.473-3.4a37.041,37.041,0,0,0,.806-4.794c.191-5.236-.629-4.7-2.031-8.8C349.026,299.394,344.416,299.661,339.647,299.823Z" transform="translate(-322.607 -299.05)" fill="#20363b" fill-rule="evenodd"/>
              <path id="Trazado_776277" data-name="Trazado 776277" d="M322.608,319.938c-.028.827.531,1.628,1.792,2.4,2.158,1.316,7.436.271,10.733-.5,6.185-1.456,8.686-5.178,10.8-6.146l1.6.363c1.312.023,6.466-2.057,7.473-3.4a37.041,37.041,0,0,0,.806-4.794c.191-5.236-.629-4.7-2.031-8.8-2.106.153-4.183.29-6.258.409-.376,3.446.128,9.392-2.709,11.6-3.171,2.474-5.646,3.133-7.765,4.422C330.3,319.591,325.839,322.927,322.608,319.938Z" transform="translate(-322.606 -299.05)" fill="#0e181a" fill-rule="evenodd"/>
              <path id="Trazado_776278" data-name="Trazado 776278" d="M337.884,304.058c.675,1,2,1.558,4.2,2.1-3.539,3.988-4.037,3.615-8.789,6.284-2.393,2.736-2.726,3.255-4.255,4.138-1.825,1.053-4.4,2.137-5.484,1.357-.465-.333.161-1.271,2.17-2.727,2.28-1.652,4.6-3.325,6.7-5.071A24.731,24.731,0,0,0,337.884,304.058Z" transform="translate(-322.344 -297.407)" fill="#325159" fill-rule="evenodd"/>
            </g>
            <g id="Grupo_1065882" data-name="Grupo 1065882" transform="translate(8.133)">
              <path id="Trazado_776279" data-name="Trazado 776279" d="M328.784,228.879c-.558,12.621,3.356,35.8,5.167,49.837,2.32,18,1.5,35.881,2.586,53.914,2.238,3.673,13.035,3.9,16.724-1.266.552-14.265,1.445-25.528,1.041-33.333-.336-6.5-.645-10.241-2.748-16.015,1.705-11.7,6.264-45.656,6.258-56.81,0-.8-1.057-.3-1.085-1-8.184,1.6-23.266-2.239-26.726-12.015C329.106,217.466,329.023,223.448,328.784,228.879Z" transform="translate(-328.73 -212.187)" fill="#4b707a" fill-rule="evenodd"/>
              <path id="Trazado_776280" data-name="Trazado 776280" d="M329.93,212.187a97.91,97.91,0,0,0-.98,11.958c1.045.793,5.978,5.587,10.667,8.764.809,5.473.42,14.164,2.781,17.016.907,8.517.151,23.441.295,32.037,3.542,16.735,4.438,28.543,2.177,53.316,3.259-.242,6.581-1.478,8.32-3.914.552-14.265,1.445-25.528,1.041-33.333-.336-6.5-.645-10.241-2.748-16.015,1.709-11.725,6.267-41.973,6.258-56.81,0-.8-1.057-.3-1.085-1C348.472,225.8,333.39,221.963,329.93,212.187Z" transform="translate(-328.658 -212.187)" fill="#325159" fill-rule="evenodd"/>
              <path id="Trazado_776281" data-name="Trazado 776281" d="M328.866,223.8a55.053,55.053,0,0,0,7.789,9.269c1.072,9.417,1.707,30.448,2.971,45.956,1.5,18.367,1.509,32.933,1.353,51.529a7.216,7.216,0,0,1-4.141-2.146l-1.918-45.66c-1.309-8.642-2.687-19.354-3.911-29.2-.3-2.421-1.218-9.181-1.788-16.15A95.109,95.109,0,0,1,328.866,223.8Z" transform="translate(-328.726 -208.376)" fill="#618f9c" fill-rule="evenodd"/>
            </g>
            <g id="Grupo_1065883" data-name="Grupo 1065883" transform="translate(37.267 135.876)">
              <path id="Trazado_776282" data-name="Trazado 776282" d="M366.163,314.5c.792,2.311,1.514,4.1,1.441,5.555-.077,1.5-.487,2.967-.469,4.87.017,1.632.1,3.02.29,4.867.194,1.89,0,2.784-.833,3.538-1.347,1.227-5.361,3.125-7.263,3.769a7.628,7.628,0,0,1-3.329.448,14.827,14.827,0,0,1-4.462-.813c-.41-.155-.831-1.748-.861-3.13-.062-2.893.2-2.648,1.4-7.234.408-1.566.738-3.06,1.3-4.89.7-2.278,1.572-4.283,1.661-6.526l8.473-.329Z" transform="translate(-350.668 -314.499)" fill="#20363b" fill-rule="evenodd"/>
              <path id="Trazado_776283" data-name="Trazado 776283" d="M366.156,314.5c.792,2.311,1.514,4.1,1.441,5.555-.077,1.5-.487,2.967-.469,4.87.017,1.632.1,3.02.29,4.867.194,1.89,0,2.784-.833,3.538-1.347,1.227-5.361,3.125-7.263,3.769a7.628,7.628,0,0,1-3.329.448,14.827,14.827,0,0,1-4.462-.813c-.372-.141-.752-1.46-.842-2.733l.023,0c2.59.882,5.1,1.236,7.59.021,5.25-2.566,4.567-4.695,4.073-10.748-3.416-.6-4.758-1.211-6.492-3.081,2.911.855,6.043,1.008,7.591-.77l.482-4.817Z" transform="translate(-350.661 -314.499)" fill="#0e181a" fill-rule="evenodd"/>
              <path id="Trazado_776284" data-name="Trazado 776284" d="M354.4,319.136c2.45,1.934,1.592,2.778,5.171,3.246a20.1,20.1,0,0,1-2.789,6.975c-.145,1.348-.254,3.117-2.879,3.134-4.9.032-1.5-4.016-1.485-4.167A40.563,40.563,0,0,1,354.4,319.136Z" transform="translate(-350.474 -312.978)" fill="#325159" fill-rule="evenodd"/>
            </g>
            <g id="Grupo_1065884" data-name="Grupo 1065884" transform="translate(21.52 6.097)">
              <path id="Trazado_776285" data-name="Trazado 776285" d="M352.706,289.761c2.822,17.922,3.263,40.515,4.847,58.51,2.45,3.83,11.675,4.619,15.209-.146.153-14.275,1.448-31.833.826-39.624a49.231,49.231,0,0,0-3.858-16.135c.235-7.383,2.87-29.1,2.377-45.479a51.165,51.165,0,0,0-.627-9.943c-1.307-6.907-6.408-14.469-7.97-20.167-3.607,4.692-7.546,6.668-17.549,5.845a58.037,58.037,0,0,1-7.148-1.3c.193,3.988-.517,14.209,1.209,22.821.369,1.839,2.478,3.38,6.264,4.614C347.045,253.293,351.762,283.762,352.706,289.761Z" transform="translate(-338.809 -216.778)" fill="#4b707a" fill-rule="evenodd"/>
              <path id="Trazado_776286" data-name="Trazado 776286" d="M338.816,221.327c.06,1.258-.077,5.9.05,8.134,3.83,3.211,20.293,6.78,21.055,6.777,5.059,12.771,2.906,45.062,3.709,54.582.216,2.558-.5,4.962-.78,7.08,3.015,14.249,3.08,41.163,3.094,53.5a9.089,9.089,0,0,0,6.818-3.272c.153-14.275,1.448-31.833.826-39.624a49.23,49.23,0,0,0-3.858-16.135c.29-9.081,4.492-39.588,1.75-55.422-.684-3.946-6.161-15.168-7.97-20.167-3.607,4.692-7.546,6.668-17.549,5.845A58.039,58.039,0,0,1,338.816,221.327Z" transform="translate(-338.81 -216.778)" fill="#325159" fill-rule="evenodd"/>
              <path id="Trazado_776287" data-name="Trazado 776287" d="M360.505,294.389,365,346.523c-1.761.428-6.371-.132-7.344-1.919-1.027-15.332-2.348-37.466-4.4-54.822-1.76-14.919-4.5-29.811-6.979-44.628-3.786-1.234-5.9-2.774-6.264-4.614a73.262,73.262,0,0,1-1.173-12.767c4.092,4.039,13.336,8.785,17.472,10.848C359.254,259.176,359.29,273.209,360.505,294.389Z" transform="translate(-338.8 -213.171)" fill="#618f9c" fill-rule="evenodd"/>
            </g>
            <g id="Grupo_1065885" data-name="Grupo 1065885" transform="translate(8.556)">
              <path id="Trazado_776288" data-name="Trazado 776288" d="M369.49,224.985c-1.126-2.6-2.161-5.008-2.774-6.7-3.607,4.692-7.546,6.668-17.549,5.845-.756-.062-3-.39-5.226-.855-6.179-1.782-12.045-5.445-14.043-11.087a81.8,81.8,0,0,0-.849,8.858C331.292,228.344,357.359,238.25,369.49,224.985Z" transform="translate(-329.049 -212.187)" fill="#20363b" fill-rule="evenodd"/>
              <path id="Trazado_776289" data-name="Trazado 776289" d="M369.49,223.479c-1.126-2.6-2.161-5.008-2.774-6.7-3.607,4.692-7.546,6.668-17.549,5.845-.756-.062-3-.39-5.226-.855a29.441,29.441,0,0,1-5.99-2.438l.008.077c5.518,4.153,13.805,5.611,21.347,4.174,2.683-.51,3.039,3.005.732,3.887-3.375,1.288-7.789,1.5-12.064,1.177v-.011c-13.042-2.044-16.461-6.859-18.9-9.63-.009.178-.019.356-.028.535,1.733,5.638,12.955,9.269,19.006,10.116h0C355.726,230.729,364.023,229.458,369.49,223.479Z" transform="translate(-329.049 -210.681)" fill="#0e181a" fill-rule="evenodd"/>
              <path id="Trazado_776290" data-name="Trazado 776290" d="M346.5,221.611c-2.324-.881-7.355-1.954-9.4-2.672-1.527,1.135-1.878,6.282-1.367,7.62,1.56,1.3,7.563,2.51,9.4,2.186C345.758,228.027,346.526,222.81,346.5,221.611Z" transform="translate(-326.926 -209.972)" fill="#20363b" fill-rule="evenodd"/>
              <path id="Trazado_776291" data-name="Trazado 776291" d="M346.11,221.611c-2.324-.881-7.355-1.954-9.4-2.672,1.886,1.232,5.938,3.284,6.713,4,.42.384.976,4.12,1.316,5.81C345.366,228.027,346.134,222.81,346.11,221.611Z" transform="translate(-326.534 -209.972)" fill="#0e181a" fill-rule="evenodd"/>
              <path id="Trazado_776292" data-name="Trazado 776292" d="M337.106,218.939c-1.527,1.135-1.878,6.282-1.367,7.62,1.56,1.3,7.563,2.51,9.4,2.186a15.947,15.947,0,0,1-5.482-4.619C337.984,221.827,337.279,220.45,337.106,218.939Z" transform="translate(-326.926 -209.972)" fill="#325159" fill-rule="evenodd"/>
              <path id="Trazado_776293" data-name="Trazado 776293" d="M336.614,219.34c-.732,1.834-1.027,5.739-.591,6.879,1.1.918,5.12,2.035,7.272,2.32C338.56,227.16,335.815,225.6,336.614,219.34Z" transform="translate(-326.828 -209.84)" fill="#4b707a" fill-rule="evenodd"/>
              <path id="Trazado_776294" data-name="Trazado 776294" d="M344.406,222.819a72.258,72.258,0,0,0,8.415-.219c2.838-.213,2.757,2.51-.193,3.035a36.041,36.041,0,0,1-9.056.522A15.765,15.765,0,0,0,344.406,222.819Z" transform="translate(-324.285 -208.775)" fill="#325159" fill-rule="evenodd"/>
              <path id="Trazado_776295" data-name="Trazado 776295" d="M329.731,213.01c2.093,4.562,4.619,6.426,8.134,8.761-.453,1.518-.725,3.02-.939,3.928-2.725-1.183-6.4-4.008-7.822-6.432C329.246,217.1,329.436,215.163,329.731,213.01Z" transform="translate(-329.031 -211.917)" fill="#325159" fill-rule="evenodd"/>
            </g>
          </g>
          <path id="Trazado_776296" data-name="Trazado 776296" d="M359.988,166.414c-.741-.024-1.571.339-2.251-.181.321,5.162-9.043,5.3-14.536,6.594-.284-.733-.432-2.236-.738-3.543a37.566,37.566,0,0,0-1.7-4.4c-1.551.612-3.582,7.958-4.073,10.918a9.192,9.192,0,0,1,3.539-1.175,12.439,12.439,0,0,0,.567,3.672,8.989,8.989,0,0,0-2.582,1.114c-.278,1.907-.521,3.748-.733,5.539,1.681.983-1.452,12.068.235,13.037.574-1.568,6.092-12.751,6.513-14.266-.295-1.45-.726-2.491-1.129-3.9,1.141-1.153,1.57-.62,2.15-1.295a8.481,8.481,0,0,1,.574,2.194c3.877-1.061,15.582-5.853,15.323-11.7A4.188,4.188,0,0,0,359.988,166.414Z" transform="translate(-317.874 -125.87)" fill="#a3bec7" fill-rule="evenodd"/>
          <g id="Grupo_1065887" data-name="Grupo 1065887" transform="translate(16.947 46.715)">
            <path id="Trazado_776297" data-name="Trazado 776297" d="M346.208,172.656c-.6,2.906-.712,2.9-3.29,4.9.376,1.477.63,2.752.892,4.264a122.969,122.969,0,0,0-7.594,44.8c-2.117-14.01-.142-36.88,2.024-49.275a9,9,0,0,1,2.7-.987c-.831-3.206-.5-5.272.149-5.661C343.455,170.61,344.451,170.89,346.208,172.656Z" transform="translate(-335.275 -170.683)" fill="#3c5466" fill-rule="evenodd"/>
            <path id="Trazado_776298" data-name="Trazado 776298" d="M346.095,172.418c-.6,2.906-.712,2.9-3.29,4.9.376,1.477.63,2.752.892,4.264-4.887,12.506-7.737,30.458-7.6,44.73-1.708-13.231,1.765-34.686,5.773-45.256a24.383,24.383,0,0,0-.094-4.376,7.5,7.5,0,0,0,3.28-5.191c-.033-.027-.068-.052-.1-.077l.1.154.009-.068A11.124,11.124,0,0,1,346.095,172.418Z" transform="translate(-335.162 -170.445)" fill="#2a3c4a" fill-rule="evenodd"/>
            <path id="Trazado_776299" data-name="Trazado 776299" d="M340.748,171.108l1.789.3.745,1.918-1.908,3.049.037.015a12.782,12.782,0,0,0-.629,4.106c-3.211,8.389-4.9,21.274-5.476,30.424-.248-9.253,1.693-26.55,2.944-33.71a8.927,8.927,0,0,1,2.695-.985C340.5,174.169,340.165,172.591,340.748,171.108Z" transform="translate(-335.284 -170.544)" fill="#56738a" fill-rule="evenodd"/>
          </g>
          <g id="Grupo_1065888" data-name="Grupo 1065888" transform="translate(23.157 20.954)">
            <path id="Trazado_776300" data-name="Trazado 776300" d="M340.574,159.708l12.388-3.936,3.013-1.6a18.889,18.889,0,0,0,1.053,12.227c.153,5.093-9.5,8.638-14.949,9.94C340.363,171.993,339.524,160.279,340.574,159.708Z" transform="translate(-339.91 -150.339)" fill="#e8a476" fill-rule="evenodd"/>
            <path id="Trazado_776301" data-name="Trazado 776301" d="M355.79,170.617c-5.106-1.8-8.844-1.555-15.459-3.323-.408-1.554-.165-4.922-.372-6.128l2.83-9.881,10.222,5.433,8.227-4.486a33.02,33.02,0,0,1-3.484,8.49,9.859,9.859,0,0,0-.677,6.624A4.861,4.861,0,0,1,355.79,170.617Z" transform="translate(-339.96 -151.286)" fill="#db9669" fill-rule="evenodd"/>
          </g>
          <g id="Grupo_1065889" data-name="Grupo 1065889" transform="translate(19.943 36.888)">
            <path id="Trazado_776302" data-name="Trazado 776302" d="M342.927,172.935c-.285-.73-.433-2.238-.741-3.55-.278-1.174-1.328-4.053-1.337-4.806-1.194.305-1.947,7.089-3.308,9.947A7.356,7.356,0,0,1,342.927,172.935Z" transform="translate(-337.54 -162.859)" fill="#b9d1d9" fill-rule="evenodd"/>
            <path id="Trazado_776303" data-name="Trazado 776303" d="M356.55,163.284c.321,5.177-9.508,8.776-14.992,10.08,1.376,1.661,3.154,3.75,3.084,5.409,3.955-1.081,10.663-2.942,13.381-8A5.551,5.551,0,0,0,356.55,163.284Z" transform="translate(-336.222 -163.284)" fill="#b9d1d9" fill-rule="evenodd"/>
            <path id="Trazado_776304" data-name="Trazado 776304" d="M342.212,171.167c-.272-1.393-.357-2.341-.9-2.446-.915-.177-2.373,1.486-3.489,3.83A5.789,5.789,0,0,1,342.212,171.167Z" transform="translate(-337.448 -161.505)" fill="#d1e8eb" fill-rule="evenodd"/>
            <path id="Trazado_776305" data-name="Trazado 776305" d="M350.012,169.322c-3.02.924-5.4,2.007-7.48,2.5,1.576,1.491,2.583,2.673,2.518,4.206a30.959,30.959,0,0,0,8.165-3.562C355.145,170.474,353.608,168.013,350.012,169.322Z" transform="translate(-335.902 -161.424)" fill="#d1e8eb" fill-rule="evenodd"/>
          </g>
          <g id="Grupo_1065891" data-name="Grupo 1065891" transform="translate(37.909 48.925)">
            <path id="Trazado_776306" data-name="Trazado 776306" d="M357.028,238.309a8.162,8.162,0,0,0,3.863-3.13c1.113-1.78.855-3.647,2.843-5.546l-5.291-4.842c-1.719,2.7-2.988,1.466-5.325,2.772l-.217.124A21.263,21.263,0,0,0,357.028,238.309Z" transform="translate(-350.466 -155.143)" fill="#e8a476" fill-rule="evenodd"/>
            <g id="Grupo_1065890" data-name="Grupo 1065890" transform="translate(5.317)">
              <path id="Trazado_776307" data-name="Trazado 776307" d="M370.69,173.869a25.37,25.37,0,0,1,1.752,2.882c4.316,8.364,8.842,25.183,9.85,35.49.25,2.555.829,3.914.614,5.586q-.014.1-.036.191c-.017.153-.038.311-.066.473-.231,1.39-1.171,2.8-1.87,4.535-2.943,7.315-9.538,17.289-16.9,24.6-.594.59-.58.7-1.371.924a9.529,9.529,0,0,0-1.614,2.037c-1.866-.753-4.975-4.631-5.964-7.152-.134-.34,1.388-1.383,1.274-1.64-.263-.6.007-.911.258-1.477,3.494-7.865,8.67-13.671,12.949-21.04.3-.514.539-.954.76-1.356-2.784-6.428-4.742-13.391-12.421-27.054C354.967,185.653,361.566,169.755,370.69,173.869Z" transform="translate(-355.072 -172.069)" fill="#b9d1d9" fill-rule="evenodd"/>
              <path id="Trazado_776308" data-name="Trazado 776308" d="M357.718,242.644c-.823-.418-.653,1.959-.721,2.77-.6-.707-1.894-1.711-1.858-3.116.009-.309,1.332-1.226,1.236-1.464a1.478,1.478,0,0,1-.128-.481,1.624,1.624,0,0,1,.252-.89c3.494-7.968,8.721-13.81,13.038-21.244.3-.514.539-.954.76-1.356-2.784-6.428-4.743-13.391-12.421-27.054-1.636-2.914-.3-9.156,2.785-13.385a202.963,202.963,0,0,1,12.926,36.406c.882,3.51,1.183,3.952-.6,7.023C368.024,228.378,362.908,234.222,357.718,242.644Z" transform="translate(-355.05 -171.009)" fill="#d1e8eb" fill-rule="evenodd"/>
              <path id="Trazado_776309" data-name="Trazado 776309" d="M382.44,218.3c-.016.151-.037.308-.065.467-.231,1.39-1.171,2.8-1.87,4.535-2.963,7.365-9.63,17.427-17.059,24.754a2.117,2.117,0,0,1-1.317.814c-.433.421-1.433,1.89-1.511,1.966a10.542,10.542,0,0,1-2.563-2.117,5.088,5.088,0,0,0,1.43-2,28.615,28.615,0,0,1-3.108-4.171,20.778,20.778,0,0,0,2.691,2.8c.908.764,1.46.042,1.952-.762,4.894-7.975,9.522-15.953,14.816-23.681.327-.781.575-1.344.753-1.794h0l.024-.061,0-.008.012-.031.015-.037,0-.012c.023-.058.044-.114.062-.169l.007-.016.015-.041.009-.027.016-.048.019-.057h0l.019-.058.005-.015.012-.041,0-.011.012-.039v-.007l.015-.048v-.007l.015-.053,0-.011,0-.02.008-.035.007-.028.008-.037.007-.024v0l.011-.052,0-.029.007-.031,0-.024.007-.046v-.011l.005-.045,0-.017h0l0-.024,0-.035,0-.023,0-.036v-.028l0-.044v-.224l0-.053v-.019l0-.052,0-.02,0-.039,0-.035v0l-.005-.057h0l-.007-.057,0-.019v-.015l-.008-.057v-.012l-.009-.064v-.016l-.009-.064,0-.015-.008-.05,0-.015-.007-.039V216.8l-.011-.057v-.011l-.013-.07,0-.011-.012-.061v-.008l-.012-.064v-.007l-.015-.072-.016-.078v0l-.016-.076-.007-.029-.011-.053-.012-.057-.007-.028-.019-.085v0l-.02-.09-.007-.025-.015-.066-.012-.054-.009-.041-.019-.086,0-.012-.021-.1-.005-.019-.019-.085-.012-.052-.012-.056-.02-.086-.005-.024-.025-.113,0-.011-.023-.106-.011-.046-.016-.073-.02-.086-.008-.039-.028-.126,0-.02,0-.02-.1-.449,0-.019-.005-.02,0-.02,0-.02-.005-.019-.031-.137,0-.02,0-.019,0-.02-.005-.02,0-.019,0-.02-.005-.02-.07-.311,0-.02,0-.019-.005-.02,0-.02h0c-3.059-13.458-7.616-25.9-12.069-39.066,1.175-.62,1.563-2.057,2.926-1.959,3,.215,4.017,2.7,5.037,4.677,4.316,8.364,8.842,25.183,9.85,35.49.25,2.555.829,3.915.614,5.584A1.688,1.688,0,0,1,382.44,218.3Z" transform="translate(-354.643 -172.347)" fill="#a3bec7" fill-rule="evenodd"/>
            </g>
            <path id="Trazado_776310" data-name="Trazado 776310" d="M353.239,226.692c.89,4.316,2.645,9.62,6.2,12.714l-1.534,1.725c-4.757-5.286-5.628-7.9-6.836-14.055Z" transform="translate(-351.068 -154.519)" fill="#325159" fill-rule="evenodd"/>
          </g>
          <g id="Grupo_1065893" data-name="Grupo 1065893" transform="translate(17.401)">
            <path id="Trazado_776311" data-name="Trazado 776311" d="M337.2,170.016c.655.352,3.359.121,5.372-.652a9.393,9.393,0,0,0,2.385-1.656c.834-.336,2.687-2.967-.183-7.153-2.8-4.082,14.148,6.365,15.044,4.915,1.458-2.356,4.454-4.983,5.517-8.558,1.7-5.712,1.078-12.057-4.247-16.287-9.727-7.724-22.164-2.227-25.315,9.069-.616,2.206,1.124,3.4,1.062,5.287-.011.368-.5.753-.9,1.572C335.388,157.686,335.712,169.219,337.2,170.016Z" transform="translate(-335.622 -135.009)" fill="#e8a476" fill-rule="evenodd"/>
            <path id="Trazado_776312" data-name="Trazado 776312" d="M336.916,167.955a5.613,5.613,0,0,0,2.541-.155,7.24,7.24,0,0,0,1.717-3.843c-.117-3.721-2-6.739-1.987-8.245.02-3.183,1.078-1.6-.137-5.039-.931-2.64.292-3.041.83-5.307a3.584,3.584,0,0,1-2.19-2.2,18.78,18.78,0,0,0-1.915,4.517c-.616,2.206,1.124,3.4,1.062,5.287-.011.368-.5.753-.9,1.572C335.392,155.673,335.468,167.089,336.916,167.955Z" transform="translate(-335.626 -132.996)" fill="#f1b287" fill-rule="evenodd"/>
            <g id="Grupo_1065892" data-name="Grupo 1065892" transform="translate(8.332 25.035)">
              <path id="Trazado_776313" data-name="Trazado 776313" d="M342.061,154.991c3.485-3.248,6.849,7.085,1.242,6.976C345.49,159.651,343.829,155.983,342.061,154.991Z" transform="translate(-341.847 -154.359)" fill="#db9669" fill-rule="evenodd"/>
              <path id="Trazado_776314" data-name="Trazado 776314" d="M342.131,156.426c-.523-1.444-.082-1.969.554-1.814a4.112,4.112,0,0,1,2.206,2.672c.833,2.414-.36,5.466-2.693,4.274,2.007.117,1.819-2.3,1.218-3.793C343.008,156.751,342.374,156.034,342.131,156.426Z" transform="translate(-341.9 -154.285)" fill="#f1b287" fill-rule="evenodd"/>
              <path id="Trazado_776315" data-name="Trazado 776315" d="M342.927,156.464c-.562,1.044-.756,1.665-.575,2.024.125.25.513.534,1.145-.078A3.61,3.61,0,0,0,342.927,156.464Z" transform="translate(-341.773 -153.668)" fill="#db9669" fill-rule="evenodd"/>
            </g>
            <path id="Trazado_776316" data-name="Trazado 776316" d="M358.7,166.887c1.619-3.4,4.489-5.492,5.821-9.975,1.7-5.712,1.078-12.057-4.247-16.287-7.644-6.071-16.962-3.975-22.131,2.684-.279.429,2.65,1.8,1.68,3.951-1.385,3.638-1.357,5.267-.8,6.067,2.166,3.092,2.206,3.531,2.088,8.238l1.224.991c.506-3.695,1.671-3.583,3.17-2.234,2.468,2.217,2.773,6.854,8.688,7.94A4.757,4.757,0,0,0,358.7,166.887Z" transform="translate(-334.807 -135.009)" fill="#a88960" fill-rule="evenodd"/>
            <path id="Trazado_776317" data-name="Trazado 776317" d="M365.336,152.261a13.405,13.405,0,0,0-5.064-11.636c-7.644-6.071-16.962-3.975-22.132,2.684-.278.429,2.651,1.8,1.681,3.951a19.2,19.2,0,0,0-1.065,3.62C344.307,154.716,360.519,158.8,365.336,152.261Z" transform="translate(-334.807 -135.009)" fill="#b89971" fill-rule="evenodd"/>
            <path id="Trazado_776318" data-name="Trazado 776318" d="M340.238,148.119c-6.725-2.369-4.456-10.6-.944-12.611,2.8,4.278,11.9-1.5,19.371,2.649,4,2.224,7.719,5.268,7.15,10.935C363.034,152.617,345.152,149.85,340.238,148.119Z" transform="translate(-335.532 -135.508)" fill="#b89971" fill-rule="evenodd"/>
            <path id="Trazado_776319" data-name="Trazado 776319" d="M340.25,148.119c-6.853-2.657-4.456-10.6-.944-12.611-.645.749-3.481,5.966,4.574,8.525a25.714,25.714,0,0,1-2.683-2.173c2.057,1.158,3.883,1.287,6.836,2.539-1.294-.888-1.72-1.158-2.236-1.58,3.8.954,3.889,1.851,7.587,2.843q-.92-.974-1.837-1.95a34.028,34.028,0,0,1,7.444,4.441,7.016,7.016,0,0,1-1.023-1.981c3.579,2.256,4.546,2.724,7.94,2C365.993,153.91,342.916,149.152,340.25,148.119Z" transform="translate(-335.545 -135.508)" fill="#a88960" fill-rule="evenodd"/>
            <path id="Trazado_776320" data-name="Trazado 776320" d="M339.039,136.276c2.708,1.348,5.7.59,8.385.311-.669-.235-1.305-.45-1.985-.648,6.5-.07,8.251-.725,13.768,3.064-.141-.218-.256-.494-.5-.835,1.527.49,3.808,3.867,4.645,6.219-3.209-4.076-7.786-4.4-14.144-5.436a9.081,9.081,0,0,1,2.025-.215,37.436,37.436,0,0,0-5.437-.174C342.56,138.628,340.341,137.827,339.039,136.276Z" transform="translate(-334.506 -135.395)" fill="#ccae88" fill-rule="evenodd"/>
          </g>
        </g>
        <path id="Trazado_776321" data-name="Trazado 776321" d="M330.315,198.991a65.108,65.108,0,0,0-.242-16.562,23.916,23.916,0,0,0-3.019-8.553c-1.924-3.092-3.78-3.938-3.1-8.433.039-.255-1.307.984-1.769,1.707-2.271,2.7,1.857,7.323,3,9.65a22.825,22.825,0,0,1,1.883,6.146,62.335,62.335,0,0,1,.206,15.767Z" transform="translate(-268.713 -125.699)" fill="#45181d" fill-rule="evenodd"/>
        <g id="Grupo_1065895" data-name="Grupo 1065895" transform="translate(91.636 59.462)">
          <path id="Trazado_776322" data-name="Trazado 776322" d="M364.033,183.641c-.39-1.922-.716-2.4-1.174-2.684-1.822-1.13-6.177-.744-7.405.438-.7.672-.155,2.383.41,4.934,1.021,4.6.081,5.064,9.431,4.312Z" transform="translate(-349.323 -180.282)" fill="#e8a476" fill-rule="evenodd"/>
          <path id="Trazado_776323" data-name="Trazado 776323" d="M363.993,184.27c-.51-.9-1.579-1.329-3.367-1.057-.858.13-1.384.2-2.039.275-.08-.39-.328-2.85-1.6-2.951-.558,0-1.262,3.062-1.619,2.911a20.078,20.078,0,0,0,.155,3.379c1.021,4.6-.2,4.742,9.148,3.989Z" transform="translate(-349.244 -180.198)" fill="#db9669" fill-rule="evenodd"/>
          <path id="Trazado_776324" data-name="Trazado 776324" d="M366.709,189.549a49.629,49.629,0,0,0-1.781-7.339c-.323-.733-2.223-1.151-2.393-.835-.811,1.509-1.867,2.438-3.78,5.059-1.077,1.475-1.232,1.413-1.555.709-.121-1.263,4.267-4.343.833-6.833-.425.725-2.728,3.045-3.181,3.68a30,30,0,0,0-2.931,4.873,6.955,6.955,0,0,0-.61,3.819c.179,1.892.768,3.89-.255,6.4L356,202.632C357.576,198.605,366.716,189.59,366.709,189.549Z" transform="translate(-350.657 -180.272)" fill="#e8a476" fill-rule="evenodd"/>
          <path id="Trazado_776325" data-name="Trazado 776325" d="M356.991,203.608c3.48-6.971,9.166-8.662,9.978-11.68.371-1.153-.493-5.608-1.449-9.032-4.765,4.687-6.91,11.705-10.136,15.656a12.27,12.27,0,0,0-4.037-.932c-.073.25-.486,1.271-.591,1.531Z" transform="translate(-350.756 -179.424)" fill="#db9669" fill-rule="evenodd"/>
        </g>
        <g id="Grupo_1065896" data-name="Grupo 1065896" transform="translate(49.192 38.915)">
          <path id="Trazado_776326" data-name="Trazado 776326" d="M322.545,186.785c1.012-1.636,4.238-2.506,5.829-3.667,2.446-1.786,1.311-4.109,2.737-5.4,1.612-1.456,1.9-8.174,1.234-10.319-2.007-.124-4.561-.568-5.9,1.683-.883,1.483-.165,4.063-.42,6.413-.372,3.414-3.367,7.494-4.412,9.1Z" transform="translate(-317.873 -163.999)" fill="#db9669" fill-rule="evenodd"/>
          <path id="Trazado_776327" data-name="Trazado 776327" d="M333.274,167.447c-.1-.28-.191-.526-.278-.725-.307-.886-1.651-1.526-3.736-1.79-1.475-.187-3.341-.381-4.752,1.251-1.085,1.256-1.53,3.039-2.333,4.768a24.657,24.657,0,0,0-2.129,6.817c-.307,2.126-.222,3.806-1.25,6.549l3.765,1.165.7-.851c1.045-1.607,3.319-4.906,3.691-8.32.255-2.351-.361-4.725.521-6.209.6-1,1.4-2.371,2.371-2.2C331.257,168.161,333.861,169.135,333.274,167.447Z" transform="translate(-318.797 -164.81)" fill="#e8a476" fill-rule="evenodd"/>
          <path id="Trazado_776328" data-name="Trazado 776328" d="M330.4,165.963c-.348-.325-3.029.475-2.745,1.373.356,1.124-.121,1.23-.222,2.06-.135,1.118-1.707,1.137-1.509,2.653-.223.717.679,4.063,1.631,6.708.39,1.084,1.1,2.846,1.936,1.458a36.669,36.669,0,0,0,1.845-3.9,8.05,8.05,0,0,0,.6-4.442C331.748,168.927,331.149,166.666,330.4,165.963Z" transform="translate(-316.47 -164.456)" fill="#e8a476" fill-rule="evenodd"/>
          <path id="Trazado_776329" data-name="Trazado 776329" d="M329.95,166.4c-.709.687-1.664,1.6-1.448,2.278.356,1.125-.971-.282-1.072.548-.135,1.118-1.707,1.137-1.509,2.653-.214.685.8,4.1,1.825,6.713,1.717-1.024,2.721-3.3,2.6-6.559C330.257,169.593,330.525,167.268,329.95,166.4Z" transform="translate(-316.469 -164.288)" fill="#db9669" fill-rule="evenodd"/>
        </g>
        <g id="Grupo_1065897" data-name="Grupo 1065897" transform="translate(52.916 39.694)">
          <path id="Trazado_776330" data-name="Trazado 776330" d="M383.164,213.515a65.183,65.183,0,0,0-4.1-16.048c-2.209-5.117-5.4-9.25-10.105-10.914h-.005c-10.719-3.8-23.117-10.689-35.217-17.058-3.327-1.75-7.008-4.109-9.712-4.1-1.292,0-2.258,1.85-2.425,2.73.957-1.454,9.194,3.242,11.227,4.311,12.071,6.352,24.42,13.2,35.108,16.988v0c3.782,1.34,6.434,4.851,8.328,9.241a62.309,62.309,0,0,1,3.877,15.283Z" transform="translate(-321.601 -165.397)" fill="#7d3039" fill-rule="evenodd"/>
          <path id="Trazado_776331" data-name="Trazado 776331" d="M370.245,206.861a65.182,65.182,0,0,0-4.1-16.048,26.67,26.67,0,0,0-2.846-5.134,57.686,57.686,0,0,1,2.822,6.713,59.2,59.2,0,0,1,1.927,7.464c.1.534.141,1.129-.171,1.223-.514.157-.785-.019-.992-.768-1.23-4.457-2.4-8.509-5.9-12.674a21.991,21.991,0,0,1,2.361,4.38,62.308,62.308,0,0,1,3.877,15.283Z" transform="translate(-308.682 -158.743)" fill="#61242b" fill-rule="evenodd"/>
          <path id="Trazado_776332" data-name="Trazado 776332" d="M355.668,181.3c-7.138-3.3-14.792-7.365-22.286-11.335-2.6-1.38-3.6.537-.819,2.005,7.492,3.966,14.961,8.079,22.1,11.389,1.331.708,4.012,1.685,4.461.571C359.435,183.164,357.991,182.44,355.668,181.3Z" transform="translate(-318.551 -164.054)" fill="#a63341" fill-rule="evenodd"/>
          <path id="Trazado_776333" data-name="Trazado 776333" d="M359.056,182.1a17.67,17.67,0,0,1,4.673,4.367,20.623,20.623,0,0,1,2.406,4.858c.683,1.652,1.036,3.652.668,3.813-.228.1-.685-.377-1.653-2.449a21.27,21.27,0,0,0-3.069-4.614,17.815,17.815,0,0,0-4.509-3.981Z" transform="translate(-309.8 -159.916)" fill="#a63341" fill-rule="evenodd"/>
        </g>
        <g id="Grupo_1065898" data-name="Grupo 1065898" transform="translate(92.245 59.5)">
          <path id="Trazado_776334" data-name="Trazado 776334" d="M356.728,193.75c-.3-1.8.215-5.023.421-6.607-.121-1.263,4.267-4.343.833-6.833-.425.725-2.728,3.045-3.181,3.68a30,30,0,0,0-2.931,4.873,6.955,6.955,0,0,0-.61,3.819c.153,1.618.6,3.42.078,5.456-.043.167.359.068.3.239,1.859-.232,2.653,1.1,3.227.842C356.377,198.523,357.2,196.551,356.728,193.75Z" transform="translate(-351.215 -180.31)" fill="#e8a476" fill-rule="evenodd"/>
          <path id="Trazado_776335" data-name="Trazado 776335" d="M352.907,198.328c1.013-4.458.3-6.122.6-7.865a11.831,11.831,0,0,1,2.369-5.146c1.187-1.619,3.725-3.833,2.1-5.007-.425.725-2.728,3.045-3.181,3.68a30,30,0,0,0-2.931,4.873,6.955,6.955,0,0,0-.61,3.819c.154,1.627.611,3.332.086,5.371A8.58,8.58,0,0,0,352.907,198.328Z" transform="translate(-351.215 -180.31)" fill="#f1b287" fill-rule="evenodd"/>
        </g>
        <g id="Grupo_1065899" data-name="Grupo 1065899" transform="translate(50.633 41.449)">
          <path id="Trazado_776336" data-name="Trazado 776336" d="M323.372,175.312a18.619,18.619,0,0,0,4.088-3.3c.608-1.062-.187-6.071,4.219-5.189-.517.829-.562,4.559-.688,5.314-.173,1.031-.384,3.964-1.153,5.488a6.512,6.512,0,0,1-2.434,2.8c-1.547,1.041-3.95,2.384-5.217,4.719A6.033,6.033,0,0,1,323.372,175.312Z" transform="translate(-319.789 -166.718)" fill="#e8a476" fill-rule="evenodd"/>
          <path id="Trazado_776337" data-name="Trazado 776337" d="M323.465,175.312a18.619,18.619,0,0,0,4.088-3.3c.608-1.062-.187-6.071,4.219-5.189-2.523.826-2.542,4.389-2.669,5.144-.366,2.194-2.169,3.405-4.514,4.846a17.371,17.371,0,0,0-4.707,5.12C320.506,179.81,321.6,176.38,323.465,175.312Z" transform="translate(-319.882 -166.718)" fill="#f1b287" fill-rule="evenodd"/>
        </g>
        <g id="Grupo_1065900" data-name="Grupo 1065900" transform="translate(19.136 55.181)">
          <path id="Trazado_776338" data-name="Trazado 776338" d="M302.824,200.381l22.22-23.032c3.478-1.648,8.494,4.122,7.438,7.124l-17.315,22c-2.191,2.766-5.688,8.033-8.566,9.792-2.518,1.539-4.867,1.875-6.627,1.247C291.482,214.477,299.346,204.221,302.824,200.381Z" transform="translate(-296.165 -177.058)" fill="#729ec1" fill-rule="evenodd"/>
          <path id="Trazado_776339" data-name="Trazado 776339" d="M331.533,180.075a6.563,6.563,0,0,1,.643,4.231L315.3,205.819a87.935,87.935,0,0,1-5.549,7.32c-2.91,3.254-5.361,4.922-7.474,4.793a9.175,9.175,0,0,1-5.069-2.039,6.929,6.929,0,0,0,6.7-2.408C311.841,204.535,328.468,183.8,331.533,180.075Z" transform="translate(-295.824 -176.069)" fill="#6087a8" fill-rule="evenodd"/>
          <path id="Trazado_776340" data-name="Trazado 776340" d="M296.684,212.69c.4-5.808,3.076-8.841,5.919-12.16l22.272-23.181a4.173,4.173,0,0,1,4.132.718l-22.1,27.6C306.008,206.782,296.44,216.149,296.684,212.69Z" transform="translate(-295.996 -177.058)" fill="#8fbce0" fill-rule="evenodd"/>
        </g>
        <g id="Grupo_1065912" data-name="Grupo 1065912" transform="translate(0 36.039)">
          <g id="Grupo_1065901" data-name="Grupo 1065901" transform="translate(4.1 33.86)">
            <path id="Trazado_776341" data-name="Trazado 776341" d="M294.281,188.585c-9.914,2.547-10.437,14.578-8.611,24.8,1.79,10.016,5.153,18.35,5.97,27.123.57,6.113-.833,12.335-1.77,19.93-.05.408.4,5,7.392,9.445,10.2,6.488,30.508,5.673,29.6-4.584-.559-6.29,1.359-12.8,2.582-18.077,2.5-10.311,11.043-26.925,7.015-37.268-.838-2.15-2.441-3.037-3.967-4.526-6.882-6.721-29.325-16.627-33.747-17.2A11.448,11.448,0,0,0,294.281,188.585Z" transform="translate(-284.843 -188.141)" fill="#729ec1" fill-rule="evenodd"/>
            <path id="Trazado_776342" data-name="Trazado 776342" d="M286.645,193.807c-2.335,5.033-2.1,12.048-.975,18.371,1.838,10.286,5.359,18.684,6.136,27.73.506,5.9-1.034,12.022-1.936,19.323-.05.408.4,5,7.392,9.445a29.876,29.876,0,0,0,20.351,3.716c-.422-5.157-.932-10.157-1.481-14.379-2.23-17.173-6.28-37.958.87-49.734-9.063-1.117-18.173-5.137-22.892-11.091C293.153,195.979,289.22,188.253,286.645,193.807Z" transform="translate(-284.843 -186.934)" fill="#8fbce0" fill-rule="evenodd"/>
            <path id="Trazado_776343" data-name="Trazado 776343" d="M292.335,188.585a12.55,12.55,0,0,0-1.56.51,94.53,94.53,0,0,1,10.214,3.6c8.683,3.614,15.793,7.731,22.282,14.586-10.935,10.377-4.842,38.949-3.306,50.709a95.633,95.633,0,0,1,.368,14.036c2.72-1.424,4.7-3.592,4.529-6.623-.355-6.29,1.717-12.8,2.634-18.282.7-2.883,2.023-6.355,3.26-9.938,3.186-9.229,6.655-19.777,3.754-27.228-.838-2.15-2.441-3.037-3.967-4.526-6.882-6.721-29.325-16.627-33.747-17.2A11.448,11.448,0,0,0,292.335,188.585Z" transform="translate(-282.897 -188.141)" fill="#6087a8" fill-rule="evenodd"/>
            <path id="Trazado_776344" data-name="Trazado 776344" d="M324.689,228.691c4.846-14.623,6.363-22.4.891-24.836-4.9-2.189-8.992-.547-10.909,3C309.743,215.992,316.969,229.384,324.689,228.691Z" transform="translate(-275.587 -183.31)" fill="#4d708c" fill-rule="evenodd"/>
          </g>
          <g id="Grupo_1065906" data-name="Grupo 1065906" transform="translate(0 104.623)">
            <g id="Grupo_1065904" data-name="Grupo 1065904" transform="translate(0 8.703)">
              <g id="Grupo_1065902" data-name="Grupo 1065902" transform="translate(0.524 111.545)">
                <path id="Trazado_776345" data-name="Trazado 776345" d="M299.544,344.879c-.96.912-2.078,1.361-4.3,2.689v1.959c-2.3,4.031-4.522,5.863-7.436,5-4.062-1.2-5.294-2.2-5.341-5.105-.464-4.951-.567-5.878.766-9.523a29.264,29.264,0,0,1,8.8-4.118c2.359-.752,5.915-2.811,9.342-3.716a2.623,2.623,0,0,1,3.283,2.448C304.843,337.611,302.113,342.154,299.544,344.879Z" transform="translate(-282.151 -331.968)" fill="#001e30" fill-rule="evenodd"/>
                <path id="Trazado_776346" data-name="Trazado 776346" d="M299.545,344.756c-.96.912-2.078,1.361-4.3,2.689V349.4c-2.3,4.031-4.522,5.863-7.436,5-4.062-1.2-5.294-2.2-5.341-5.105a30.488,30.488,0,0,1-.258-5.659c5.4,2.761,9.992,2.509,15.032-2.695,1.511-1.56,5.948-5.6,6.33-8.606a2.908,2.908,0,0,1,1.09,2.049C304.844,337.488,302.113,342.031,299.545,344.756Z" transform="translate(-282.151 -331.845)" fill-rule="evenodd"/>
              </g>
              <g id="Grupo_1065903" data-name="Grupo 1065903" transform="translate(26.081 127.166)">
                <path id="Trazado_776347" data-name="Trazado 776347" d="M305.332,349.476c1.134-.305,4.063-4.766,8.166-3.89,4.928,1.053,10.652-1.738,15.1-1.793.793-.009,1.794-.207,2.275.151,2.116,1.579,2.376,3.215.552,5.291a31.785,31.785,0,0,1-5.867,4.846,37.8,37.8,0,0,1-6.632,3.76c-2,.829-3.341.715-5.149,1.357l-.114,1.571a8.609,8.609,0,0,1-4.057,2.076c-2.542.223-5.523-1.405-7.666-3.689-.247-2.6-1.173-5.186.163-9.006Z" transform="translate(-301.395 -343.731)" fill="#001e30" fill-rule="evenodd"/>
                <path id="Trazado_776348" data-name="Trazado 776348" d="M332.149,344.843c.83,1.206.618,2.5-.726,4.028a31.787,31.787,0,0,1-5.867,4.846,37.8,37.8,0,0,1-6.632,3.76c-2,.829-3.341.715-5.149,1.357l-.114,1.571a8.609,8.609,0,0,1-4.057,2.076c-2.542.223-5.523-1.4-7.666-3.689-.189-1.984-.773-3.96-.444-6.482,5.482,4.2,8.858,1.356,10.967,1.248,3.126-.159,7.647.114,14.606-4.885C328.679,347.515,330.416,346.237,332.149,344.843Z" transform="translate(-301.394 -343.366)" fill-rule="evenodd"/>
                <path id="Trazado_776349" data-name="Trazado 776349" d="M312.769,350.772c1.272-2.222,1.276-3.679.851-4.558l8.76-1.729c4.292-.891,5.165-.085,4.027.93C322.581,348.82,317.545,349.67,312.769,350.772Z" transform="translate(-297.663 -343.609)" fill="#00314f" fill-rule="evenodd"/>
              </g>
              <path id="Trazado_776350" data-name="Trazado 776350" d="M313.07,262.114c-1.337,10.417-3.942,48.819-7.4,57.472-5.2,13.011-6.679,32.881-9.837,47.187a8.558,8.558,0,0,1-4.307,5c-3.68,1.847-8.769,2.016-9.768-.653.859-13.2.554-29.845.985-37.19.482-8.225,2.5-16.25,5.739-21.039.42-5.887.861-27.659-.212-38.569-.386-3.938-5.348-17.646,2.286-26.343Z" transform="translate(-281.756 -247.977)" fill="#00314f" fill-rule="evenodd"/>
              <path id="Trazado_776351" data-name="Trazado 776351" d="M286.727,371.771c-2.332.178-4.376-.406-4.971-1.995.859-13.2.554-29.845.985-37.19.482-8.225,2.5-16.25,5.739-21.039.42-5.887.861-27.659-.212-38.569-.312-3.185-3.618-12.764-.83-20.911,3.2,9.342,6.6,12.243,9.214,16.468.125,9.3-1.7,36.211-1.952,45.506-3.24,4.506-4.57,9.368-5.518,14.732-2.061,11.663-2.048,30.159-2.681,41.932A3.985,3.985,0,0,0,286.727,371.771Z" transform="translate(-281.756 -246.635)" fill="#003f66" fill-rule="evenodd"/>
              <path id="Trazado_776352" data-name="Trazado 776352" d="M311.784,257.522c-1.337,10.416-6.318,52.934-7.978,62.041-2.744,15.055-6.679,32.88-9.837,47.187a8.56,8.56,0,0,1-4.307,5,13.171,13.171,0,0,1-2.234.87c1.283-10.349,2.6-35.495,5.509-47.145,1.315-5.272,1.1-6.4,4.11-9.859.275-13.873,3.235-31.107,2.473-33.516-1.93-4.553-3.38-16.949-2.721-22.026a62.058,62.058,0,0,1-8.3-12.023Z" transform="translate(-279.895 -247.953)" fill="#001e30" fill-rule="evenodd"/>
              <path id="Trazado_776353" data-name="Trazado 776353" d="M322.04,326.192c-2.7,15.484-2.355,37.213-3.744,52.636-.892,4.428-11.9,8.618-16.087,4.214-.786-13.177-2.381-32.8-1.742-40.036.53-6.024.7-9.51,3.025-14.818-.2-5.717.106-33.2-.778-43.989-3.051-6.456-9.012-17.561-2.531-29.734,5.14,1.938,17.675.854,22.906-4,2.424,8.073,3.778,20.091,3.456,33.143A316.127,316.127,0,0,1,322.04,326.192Z" transform="translate(-276.663 -247.162)" fill="#00314f" fill-rule="evenodd"/>
              <path id="Trazado_776354" data-name="Trazado 776354" d="M306.989,382.015a6.742,6.742,0,0,1-4.78-1.862c-.786-13.177-2.381-32.8-1.742-40.036.531-6.024.7-9.51,3.025-14.818-.2-5.717.106-33.2-.778-43.989-2.393-5.064-6.575-12.987-5.141-22.044,3.691,4.882,9.883,8.6,13.4,11.972.534,1.845.68,7.036.474,10.3-.119,12.153-1.1,32.714-2.381,45.635-3.238,8.25-2.75,43.337-2.13,54.294A4.1,4.1,0,0,0,306.989,382.015Z" transform="translate(-276.663 -244.274)" fill="#003f66" fill-rule="evenodd"/>
              <path id="Trazado_776355" data-name="Trazado 776355" d="M323.049,251.728a128.7,128.7,0,0,1,2.971,26.092c-.028,18.481-2.919,39.174-4.449,47.956-2.7,15.484-2.355,37.214-3.744,52.636-.444,2.2-3.381,4.34-6.74,5.4-.331-13.368-.379-32.2.032-42.372.441-10.943,1.493-7.482,2.549-12.28.563-13.922,1.442-46.692,1.418-65.9-5.307-5.91-13.516-4.383-16.375-7.72l16.3-.4Z" transform="translate(-276.194 -246.746)" fill="#001e30" fill-rule="evenodd"/>
            </g>
            <g id="Grupo_1065905" data-name="Grupo 1065905" transform="translate(8.493)">
              <path id="Trazado_776356" data-name="Trazado 776356" d="M326.233,247.649c-3.607,4.693-7.96,6.541-17.965,5.717-.756-.062-3-.39-5.227-.854C296.863,250.728,291,247.066,289,241.424a81.8,81.8,0,0,0-.849,8.858c2.12,6.9,25.539,15.737,38.344,5.546C326.731,255.265,326.845,249.341,326.233,247.649Z" transform="translate(-288.151 -241.424)" fill="#20363b" fill-rule="evenodd"/>
              <path id="Trazado_776357" data-name="Trazado 776357" d="M326.265,246.015c-3.607,4.692-7.992,6.668-18,5.845-.756-.062-3-.39-5.227-.854a29.542,29.542,0,0,1-5.988-2.44l.008.077c5.518,4.153,13.805,5.611,21.346,4.175,2.684-.511,3.04,3,.733,3.886-3.375,1.288-7.789,1.5-12.064,1.177v-.011c-13.04-2.044-16.461-6.859-18.9-9.63-.009.178-.019.356-.028.535,1.733,5.638,12.955,9.268,19.006,10.116h0c7.254,1.016,13.98.51,19.431-4.664A33.525,33.525,0,0,0,326.265,246.015Z" transform="translate(-288.151 -239.918)" fill="#0e181a" fill-rule="evenodd"/>
              <path id="Trazado_776358" data-name="Trazado 776358" d="M288.833,242.247c3.646,7.943,11.955,11.659,20.352,12.6a40.429,40.429,0,0,0,7.484.133c2.838-.212,2.758,2.511-.193,3.035a29.389,29.389,0,0,1-10.622.208c-6.307-1.165-14.8-4.861-17.647-9.717C288.348,246.336,288.539,244.4,288.833,242.247Z" transform="translate(-288.133 -241.154)" fill="#325159" fill-rule="evenodd"/>
            </g>
          </g>
          <g id="Grupo_1065907" data-name="Grupo 1065907" transform="translate(4.1 33.86)">
            <path id="Trazado_776359" data-name="Trazado 776359" d="M294.281,188.585c-9.914,2.547-10.437,14.578-8.611,24.8,2.023,11.318,4.94,18.283,5.514,28.431.039.707.072,1.418.094,2.138.146,4.469-2.426,19.581-3.082,24.9-.051.406,1.664,5.673,8.656,10.121,10.2,6.488,30.021,5.732,31.335-4.481-.788-4.631-1.335-14.971-.749-18.4a166.919,166.919,0,0,1,5.1-18.93c-4.558,3.565-9.531-.769-10.741-6.539-2.116-13.757,1.171-24.524,9.771-23.508A7.848,7.848,0,0,1,336.472,210l-.016-.046c-.838-2.15-2.441-3.037-3.967-4.526a29.94,29.94,0,0,0-3.817-3.047c-3.87.036-7.865,2.313-13.258,2.618-5.928.335-17.241-3.141-17.378-9.982-.044-2.181,1.364-4.24,4.64-5.648a22.545,22.545,0,0,0-3.935-1.142A11.448,11.448,0,0,0,294.281,188.585Z" transform="translate(-284.843 -188.141)" fill="#003f66" fill-rule="evenodd"/>
            <path id="Trazado_776360" data-name="Trazado 776360" d="M286.645,193.807c-2.335,5.033-2.1,12.048-.975,18.371,2.437,13.639,5.647,19.279,5.44,32.309-.05,3.207-2.464,18.283-3.732,23.063-.1.4,2.482,5.776,9.474,10.223A29.877,29.877,0,0,0,317.2,281.49c-.422-5.158-.523-19.255-1.072-23.477-2.23-17.173-6.28-37.958.87-49.734-9.063-1.117-18.173-5.137-22.892-11.091C293.153,195.979,289.22,188.253,286.645,193.807Z" transform="translate(-284.843 -186.934)" fill="#005082" fill-rule="evenodd"/>
            <path id="Trazado_776361" data-name="Trazado 776361" d="M292.335,188.585a12.55,12.55,0,0,0-1.56.51c2.059.584,4.4,1.352,6.863,2.274a9.663,9.663,0,0,1,3.093-2,22.547,22.547,0,0,0-3.935-1.142,11.448,11.448,0,0,0-4.461.359Zm27.391,15.267c1.2,1.064,2.384,2.2,3.545,3.426-10.935,10.377-3.308,38.642-3.306,50.709,0,3.732-.3,18.3-.45,23.722,1.136-.274,7.452-2.936,7.365-5.626-1.226-7.067-2.308-15.773.126-24.828,1.312-4.878,2.688-10.207,4.2-14.955-4.558,3.564-10.145.1-11.355-5.671-2.116-13.757,1.171-24.524,9.77-23.508A7.848,7.848,0,0,1,334.526,210l-.016-.046c-.838-2.15-2.441-3.037-3.967-4.526a29.937,29.937,0,0,0-3.817-3.047A28.556,28.556,0,0,0,319.727,203.852Z" transform="translate(-282.897 -188.141)" fill="#00314f" fill-rule="evenodd"/>
          </g>
          <g id="Grupo_1065911" data-name="Grupo 1065911" transform="translate(15.383)">
            <g id="Grupo_1065908" data-name="Grupo 1065908" transform="translate(28.638 16.286)">
              <path id="Trazado_776362" data-name="Trazado 776362" d="M315.97,175.109l2.013,1.139-.234,6.048-2.7-1.321Z" transform="translate(-314.857 -174.842)" fill="#e6e6e6" fill-rule="evenodd"/>
              <path id="Trazado_776363" data-name="Trazado 776363" d="M316.143,175.441l1.49.843c.214.135.226.215.206.556l-.182,4.834c-.016.339-.065.421-.315.279l-2.068-1.009.869-5.5Zm1.785.623-2.041-1.155q-.492,3.116-.984,6.23l2.591,1.266c.208.125.444.1.474-.282.153-1.862.2-3.638.216-5.5A.512.512,0,0,0,317.928,176.063Z" transform="translate(-314.903 -174.908)" fill-rule="evenodd"/>
            </g>
            <g id="Grupo_1065909" data-name="Grupo 1065909">
              <path id="Trazado_776364" data-name="Trazado 776364" d="M322.635,197.774c-1.234.611-7.5-.276-7.312.284.088,2.736.886,4.422,1.174,8.075.288,1.032-16.5,1.341-16.528-3.737.274-3.177.761-7.6-.208-9.168-1.458-2.357-4.454-4.984-5.515-8.558-1.7-5.712-1.08-12.057,4.246-16.287,9.727-7.724,22.164-2.228,25.317,9.069.615,2.2-1.125,3.4-1.064,5.286.012.369.5.754.9,1.574C324.189,185.443,324.147,197.025,322.635,197.774Z" transform="translate(-293.317 -161.943)" fill="#e8a476" fill-rule="evenodd"/>
              <path id="Trazado_776365" data-name="Trazado 776365" d="M322.571,197.71c-1.234.611-7.432-.212-7.249.348.09,2.8.926,4.506,1.2,8.351.1,1.393-1.126,1.345-1.452.87-3.391-4.954-5.9-8-14.735-11.064a6.461,6.461,0,0,0-.571-2.987c-1.458-2.357-4.454-4.984-5.515-8.558-1.7-5.712-1.08-12.057,4.246-16.287,9.727-7.724,22.164-2.228,25.317,9.069.615,2.2-1.125,3.4-1.064,5.286.012.369.5.754.9,1.574C324.189,185.443,324.083,196.961,322.571,197.71Z" transform="translate(-293.317 -161.943)" fill="#db9669" fill-rule="evenodd"/>
              <path id="Trazado_776366" data-name="Trazado 776366" d="M322.379,197.774c-.655.352-3.359.121-5.372-.652a9.389,9.389,0,0,1-2.385-1.656c-.834-.337-2.685-2.967.185-7.154,2.8-4.081-14.148,6.367-15.045,4.916-1.458-2.357-4.454-4.984-5.515-8.558-1.7-5.712-1.08-12.057,4.246-16.287,9.727-7.724,22.164-2.228,25.317,9.069.615,2.2-1.125,3.4-1.064,5.286.012.369.5.754.9,1.574C324.189,185.443,323.865,196.976,322.379,197.774Z" transform="translate(-293.317 -161.943)" fill="#e8a476" fill-rule="evenodd"/>
              <path id="Trazado_776367" data-name="Trazado 776367" d="M316.491,195.713a5.632,5.632,0,0,1-2.541-.155,7.229,7.229,0,0,1-1.717-3.843c.117-3.721,1.995-6.739,1.985-8.246-.02-3.183-1.078-1.6.137-5.037.932-2.642-.292-3.041-.829-5.307a3.591,3.591,0,0,0,2.19-2.2,18.833,18.833,0,0,1,1.915,4.517c.615,2.2-1.125,3.4-1.064,5.286.012.369.5.754.9,1.574C318.013,183.43,317.939,194.846,316.491,195.713Z" transform="translate(-287.141 -159.93)" fill="#f1b287" fill-rule="evenodd"/>
              <path id="Trazado_776368" data-name="Trazado 776368" d="M311.02,182.749c-3.485-3.248-6.849,7.085-1.24,6.976C307.591,187.408,309.253,183.741,311.02,182.749Z" transform="translate(-288.927 -156.257)" fill="#db9669" fill-rule="evenodd"/>
              <path id="Trazado_776369" data-name="Trazado 776369" d="M310.708,184.184c.523-1.445.082-1.971-.554-1.814a4.109,4.109,0,0,0-2.206,2.672c-.833,2.414.361,5.465,2.693,4.274-2.007.116-1.818-2.3-1.216-3.794C309.833,184.509,310.465,183.791,310.708,184.184Z" transform="translate(-288.633 -156.183)" fill="#f1b287" fill-rule="evenodd"/>
              <path id="Trazado_776370" data-name="Trazado 776370" d="M309.408,184.222c.56,1.044.756,1.664.575,2.024-.126.25-.513.534-1.146-.08A3.61,3.61,0,0,1,309.408,184.222Z" transform="translate(-288.255 -155.567)" fill="#db9669" fill-rule="evenodd"/>
              <path id="Trazado_776371" data-name="Trazado 776371" d="M300.065,194.645c-1.619-3.4-4.489-5.492-5.82-9.975-1.7-5.712-1.08-12.057,4.246-16.287,7.644-6.071,16.962-3.975,22.132,2.684.278.429-2.651,1.8-1.681,3.951,1.385,3.636,1.357,5.267.8,6.065-2.167,3.092-2.207,3.533-2.089,8.239l-1.224.989c-.506-3.693-2.149-3.4-3.745-2.17-2.786,2.153-3.859,7.047-8.5,8.006A4.065,4.065,0,0,1,300.065,194.645Z" transform="translate(-293.317 -161.943)" fill="#361d07" fill-rule="evenodd"/>
              <path id="Trazado_776372" data-name="Trazado 776372" d="M311.965,182.467c.37,2.306.527,3.765,1.53,4.923a4.836,4.836,0,0,0,2.376.78,14.1,14.1,0,0,1,.515-2.543,4.728,4.728,0,0,1,1.982-2.8,2.953,2.953,0,0,1-.092,1.5,3.657,3.657,0,0,0-.764,1.741,7.5,7.5,0,0,0-.278,2.321c.246.024.453.066.624.092.089.013.1-.657.272-.643.08,1.911.108,4.47-.325,4.64-.555.217-3.8-.444-5.464-1.118-1.737-.7-1.226-1.085-1.388-3.136-.134-1.691-.129-3.606-.363-5.41Z" transform="translate(-287.679 -156.142)" fill="#361d07" fill-rule="evenodd"/>
              <path id="Trazado_776373" data-name="Trazado 776373" d="M312.363,186.4a4.128,4.128,0,0,0,.594.9,4.836,4.836,0,0,0,2.376.78,14.1,14.1,0,0,1,.515-2.543,4.728,4.728,0,0,1,1.981-2.8,2.953,2.953,0,0,1-.092,1.5,3.657,3.657,0,0,0-.764,1.741,7.5,7.5,0,0,0-.278,2.321c.246.024.453.066.624.092.089.013.1-.657.272-.643.08,1.911.108,4.47-.325,4.64a12.275,12.275,0,0,1-4.024-.639,12.509,12.509,0,0,1-1.011-3.916A12.226,12.226,0,0,1,312.363,186.4Z" transform="translate(-287.141 -156.053)" fill="#4f2b0c" fill-rule="evenodd"/>
              <path id="Trazado_776374" data-name="Trazado 776374" d="M301.537,179.136a15.616,15.616,0,0,0,1.238,6.484c.254-1.639.478-3.3.793-4.927.1-.546.226-1.084.36-1.618.384,2.426.663,4.881.965,7.319.55-2.592,1.154-5.2,1.6-7.814.971,1.49,1.247,4.6,1.615,6.51a53.128,53.128,0,0,0,1.175-7.19c1.043,1.057,1.335,3.863,1.624,5.4a55.855,55.855,0,0,0,1.031-6c.653.959.855,3.231,1.045,4.417a20.8,20.8,0,0,0,1-4.677c1.052,1.83,1.082,3.944,1.283,5.988a26.181,26.181,0,0,0,.842-6.695,22.063,22.063,0,0,1,1.252,3.77c.109-1.634.256-3.287.24-4.923a8.518,8.518,0,0,1,1.9,4.171c.769-1.635.4-4.858-.583-7.045l-.116-.256-.28.019-4.955.313q-1.632.1-3.264.2c-.53.032-1.122.09-1.644.09-.218-.008-.489-.056-.707-.084q-.795-.1-1.588-.214-2.295-.317-4.59-.645c-2.315-.331-4.511-.9-6.825-1.234-3.228,5.676-.817,11.206.471,13.975A26.335,26.335,0,0,1,295.3,179a23.566,23.566,0,0,0,1.567,5.1,20.89,20.89,0,0,1,.363-5.14,10.139,10.139,0,0,0,1.582,6.165,18.413,18.413,0,0,1,.275-6.43,22.788,22.788,0,0,0,1.47,7.238A30.785,30.785,0,0,1,301.537,179.136Z" transform="translate(-293.339 -160.068)" fill="#54321e" fill-rule="evenodd"/>
              <path id="Trazado_776375" data-name="Trazado 776375" d="M294,181.439c1.728-1.26,5.663-2.525,13.063-3.047a28.057,28.057,0,0,0,11.792-3.2c4.681-2.5,3.946-7.662,1.967-9.417-3.819-3.389-13.694-3.036-20.266.349C295.756,168.6,293.1,173.5,294,181.439Z" transform="translate(-293.178 -162.396)" fill="#361d07" fill-rule="evenodd"/>
              <path id="Trazado_776376" data-name="Trazado 776376" d="M293.959,181.066c1.728-1.26,5.663-2.525,13.063-3.047a28.057,28.057,0,0,0,11.792-3.2c4.681-2.5,3.946-7.662,1.967-9.417a6.808,6.808,0,0,0-1.236-.861c-1.194,8.9-5.622,6.509-14.4,9.593,1.282-1.234.665-1,1.821-1.725-2.8,1.005-4.926.83-8.081,2.875,1-.918,1.251-1.47,1.885-1.95A9.91,9.91,0,0,0,294.6,177.6l-.255-4.2A42.439,42.439,0,0,0,293.959,181.066Z" transform="translate(-293.135 -162.023)" fill="#241304" fill-rule="evenodd"/>
              <path id="Trazado_776377" data-name="Trazado 776377" d="M318.556,173.257c-1.442,1.809-7.642-2.372-16.318-.777,1.858-5.731,2.931-6.947,5.538-8.624,3.4-2.186,9.116-1.294,10.911,1.719A7.216,7.216,0,0,1,318.556,173.257Z" transform="translate(-290.419 -162.645)" fill="#4f2b0c" fill-rule="evenodd"/>
              <path id="Trazado_776378" data-name="Trazado 776378" d="M305.363,171.557c2.655-2.622,6.664-2.151,10.255-1.182-2.076-1.967-6.353-1.227-8.419-.159,2.789-2.591,4.639-2.49,8.146-2.044a7.611,7.611,0,0,0-7.747.526c2.513-2.966,3.574-2.742,7.251-2.523-2.56-1.371-6.4-.888-7.97.583,1.888-2.21,3.356-2.693,6.851-2.691-3-.915-5.328-.822-7.81,1.741,1.943-3.429,6.068-3.445,8.774-2.376a6.594,6.594,0,0,1,3.983,5.7c.058,2.066-.794,3.361-1.387,3.494C314.484,173.256,313.07,170.96,305.363,171.557Z" transform="translate(-289.394 -162.592)" fill="#361d07" fill-rule="evenodd"/>
            </g>
            <g id="Grupo_1065910" data-name="Grupo 1065910" transform="translate(4.911 36.912)">
              <path id="Trazado_776379" data-name="Trazado 776379" d="M299.028,190.439c.255,3.562,9.29,6.525,15.841,4.118l-.117-.692c1.758.5,4.663,3.013,4.745,4.968-4.9,5.145-23,1.728-22.448-4.989C297.158,192.525,297.8,190.8,299.028,190.439Z" transform="translate(-297.037 -190.439)" fill="#729ec1" fill-rule="evenodd"/>
              <path id="Trazado_776380" data-name="Trazado 776380" d="M299.028,190.439c.218,3.044,6.847,5.651,12.86,4.842a20.409,20.409,0,0,1-6.944.789c-2.647-.312-3.325,2.194-1.426,3.147a23.977,23.977,0,0,0,7.408,2.1c-6.669-.116-14.237-3.093-13.876-7.472C297.158,192.525,297.8,190.8,299.028,190.439Z" transform="translate(-297.037 -190.439)" fill="#6087a8" fill-rule="evenodd"/>
              <path id="Trazado_776381" data-name="Trazado 776381" d="M307.822,195.5a15.838,15.838,0,0,0,5.829-1.815,7.008,7.008,0,0,1,3.356,3.841c-1.647,1.73-6.34,2.215-9.8,1.607-1.754-.309-4-1.227-3.73-2.44C303.74,195.533,306.192,195.565,307.822,195.5Z" transform="translate(-294.93 -189.375)" fill="#8fbce0" fill-rule="evenodd"/>
            </g>
            <path id="Trazado_776382" data-name="Trazado 776382" d="M319.885,177.1l-10.449,6.721-.591.842c.627-.539.693-.564,1.254-.649l10.071-6.521Z" transform="translate(-288.252 -157.901)" fill-rule="evenodd"/>
          </g>
        </g>
        <g id="Grupo_1065915" data-name="Grupo 1065915" transform="translate(43.07 78.631)">
          <g id="Grupo_1065913" data-name="Grupo 1065913" transform="translate(0 10.826)">
            <path id="Trazado_776383" data-name="Trazado 776383" d="M321.424,203.985c7.5,2.252,16.371,10.265,25.371,18.087,6.553,5.695,6.735,10.243,4.847,13.347-1.993,3.279-5.906,4.031-14.007-1.013a72.1,72.1,0,0,1-9.755-7.005c-5.152-4.395-15.23-12.931-13.5-19.88C315.26,204.014,318.349,203.061,321.424,203.985Z" transform="translate(-314.187 -202.609)" fill="#729ec1" fill-rule="evenodd"/>
            <path id="Trazado_776384" data-name="Trazado 776384" d="M323.568,203.1c7.5,2.252,14.193,11.412,23.193,19.234,6.553,5.695,6.735,10.243,4.847,13.347-5.731-11.719-30.114-28.3-37.318-28.039C315.167,204.13,320.493,202.171,323.568,203.1Z" transform="translate(-314.153 -202.867)" fill="#6087a8" fill-rule="evenodd"/>
            <path id="Trazado_776385" data-name="Trazado 776385" d="M315.108,207.4c12.834,7.339,24.851,12.42,33.592,24.641,2.349,3.284-.773,4.328-3.219,3.474C334.284,231.61,315.394,214.622,315.108,207.4Z" transform="translate(-313.885 -201.379)" fill="#8fbce0" fill-rule="evenodd"/>
          </g>
          <g id="Grupo_1065914" data-name="Grupo 1065914" transform="translate(26.53)">
            <path id="Trazado_776386" data-name="Trazado 776386" d="M337.969,222.985,354.2,195.407c3-2.414,9.222,2.027,8.9,5.191l-11.705,25.434c-1.487,3.2-3.657,9.138-6.047,11.52-2.089,2.084-4.3,2.959-6.154,2.758C330.228,239.337,335.482,227.53,337.969,222.985Z" transform="translate(-334.163 -194.716)" fill="#729ec1" fill-rule="evenodd"/>
            <path id="Trazado_776387" data-name="Trazado 776387" d="M361.089,196.756a6.558,6.558,0,0,1,1.612,3.966l-11.4,24.857a88.236,88.236,0,0,1-3.688,8.411c-2.072,3.843-4.066,6.037-6.152,6.405a9.178,9.178,0,0,1-5.4-.8,6.932,6.932,0,0,0,5.951-3.9C347.645,225.134,358.978,201.092,361.089,196.756Z" transform="translate(-333.54 -194.046)" fill="#6087a8" fill-rule="evenodd"/>
            <path id="Trazado_776388" data-name="Trazado 776388" d="M334.882,236.347c-.966-5.741.931-9.314,2.92-13.2l16.25-27.735a4.176,4.176,0,0,1,4.186-.266l-15.056,31.992C342.573,228.427,335.452,239.768,334.882,236.347Z" transform="translate(-334.012 -194.716)" fill="#8fbce0" fill-rule="evenodd"/>
          </g>
        </g>
      </g>
    </g>
  </g>
</svg>
