<svg xmlns="http://www.w3.org/2000/svg" xmlns:xlink="http://www.w3.org/1999/xlink" width="233.483" height="254.257" viewBox="0 0 233.483 254.257">
  <defs>
    <linearGradient id="linear-gradient" x1="-334.42" y1="0.893" x2="-333.793" y2="0.007" gradientUnits="objectBoundingBox">
      <stop offset="0" stop-color="#292623"/>
      <stop offset="0.257" stop-color="#31302c"/>
      <stop offset="0.295" stop-color="#403f3d"/>
      <stop offset="0.657" stop-color="#403f3d"/>
      <stop offset="0.684" stop-color="#4d4d4d"/>
    </linearGradient>
    <linearGradient id="linear-gradient-2" y1="0.498" x2="0.999" y2="0.498" gradientUnits="objectBoundingBox">
      <stop offset="0.161" stop-color="#707070"/>
      <stop offset="0.163" stop-color="#939393"/>
      <stop offset="0.559" stop-color="#939393"/>
      <stop offset="0.562" stop-color="#a0a0a0"/>
      <stop offset="0.873" stop-color="#a0a0a0"/>
      <stop offset="0.874" stop-color="#919191"/>
    </linearGradient>
    <linearGradient id="linear-gradient-3" x1="-333.258" y1="0.893" x2="-332.632" y2="0.007" xlink:href="#linear-gradient"/>
    <linearGradient id="linear-gradient-4" x1="-332.232" y1="0.893" x2="-331.606" y2="0.007" xlink:href="#linear-gradient"/>
    <linearGradient id="linear-gradient-5" x1="38.638" y1="-49.734" x2="40.096" y2="-49.734" gradientUnits="objectBoundingBox">
      <stop offset="0.316" stop-color="#f0916c"/>
      <stop offset="0.343" stop-color="#e38258"/>
      <stop offset="0.705" stop-color="#e38258"/>
      <stop offset="0.743" stop-color="#c45e33"/>
      <stop offset="1" stop-color="#8f2f17"/>
    </linearGradient>
    <linearGradient id="linear-gradient-6" x1="22.961" y1="-42.353" x2="23.608" y2="-42.353" gradientUnits="objectBoundingBox">
      <stop offset="0" stop-color="#f22421"/>
      <stop offset="0.018" stop-color="#f32522"/>
      <stop offset="0.152" stop-color="#fc2d2c"/>
      <stop offset="0.322" stop-color="#ff3030"/>
      <stop offset="0.488" stop-color="#f62826"/>
      <stop offset="0.559" stop-color="#f22421"/>
      <stop offset="0.819" stop-color="#e31510"/>
      <stop offset="1" stop-color="#c40700"/>
    </linearGradient>
    <linearGradient id="linear-gradient-7" x1="67.323" y1="-45.326" x2="69.255" y2="-45.326" gradientUnits="objectBoundingBox">
      <stop offset="0" stop-color="#e51a17"/>
      <stop offset="0.142" stop-color="#ee201f"/>
      <stop offset="0.322" stop-color="#f22222"/>
      <stop offset="0.507" stop-color="#e81c1a"/>
      <stop offset="0.559" stop-color="#e51a17"/>
      <stop offset="0.819" stop-color="#d6100b"/>
      <stop offset="1" stop-color="#b70700"/>
    </linearGradient>
    <linearGradient id="linear-gradient-8" x1="26.543" y1="-85.811" x2="27.294" y2="-85.811" gradientUnits="objectBoundingBox">
      <stop offset="0" stop-color="#f2302e"/>
      <stop offset="0.018" stop-color="#f3312f"/>
      <stop offset="0.152" stop-color="#fc3a39"/>
      <stop offset="0.322" stop-color="#ff3d3d"/>
      <stop offset="0.488" stop-color="#f63433"/>
      <stop offset="0.559" stop-color="#f2302e"/>
      <stop offset="0.819" stop-color="#e3201c"/>
      <stop offset="1" stop-color="#c00a03"/>
    </linearGradient>
    <linearGradient id="linear-gradient-9" x1="39.812" y1="-51.284" x2="41.27" y2="-51.284" xlink:href="#linear-gradient-5"/>
    <linearGradient id="linear-gradient-10" x1="88.572" y1="-121.769" x2="89.973" y2="-121.769" gradientUnits="objectBoundingBox">
      <stop offset="0" stop-color="#8f2f17"/>
      <stop offset="0.257" stop-color="#c45e33"/>
      <stop offset="0.295" stop-color="#e38258"/>
      <stop offset="0.657" stop-color="#e38258"/>
      <stop offset="0.684" stop-color="#f0916c"/>
    </linearGradient>
    <linearGradient id="linear-gradient-11" y1="0.5" x2="1" y2="0.5" gradientUnits="objectBoundingBox">
      <stop offset="0" stop-color="#6b2200"/>
      <stop offset="0.257" stop-color="#8a250b"/>
      <stop offset="0.295" stop-color="#993117"/>
      <stop offset="0.657" stop-color="#993117"/>
      <stop offset="0.684" stop-color="#a63b23"/>
    </linearGradient>
    <linearGradient id="linear-gradient-12" y1="0.5" x2="1" y2="0.5" gradientUnits="objectBoundingBox">
      <stop offset="0" stop-color="#c40700"/>
      <stop offset="0.181" stop-color="#e31510"/>
      <stop offset="0.441" stop-color="#f22421"/>
      <stop offset="0.512" stop-color="#f62826"/>
      <stop offset="0.678" stop-color="#ff3030"/>
      <stop offset="0.848" stop-color="#fc2d2c"/>
      <stop offset="0.982" stop-color="#f32522"/>
      <stop offset="1" stop-color="#f22421"/>
    </linearGradient>
    <linearGradient id="linear-gradient-13" y1="0.5" x2="1" y2="0.5" gradientUnits="objectBoundingBox">
      <stop offset="0" stop-color="#b70700"/>
      <stop offset="0.181" stop-color="#d6100b"/>
      <stop offset="0.441" stop-color="#e51a17"/>
      <stop offset="0.493" stop-color="#e81c1a"/>
      <stop offset="0.678" stop-color="#f22222"/>
      <stop offset="0.858" stop-color="#ee201f"/>
      <stop offset="1" stop-color="#e51a17"/>
    </linearGradient>
    <linearGradient id="linear-gradient-14" y1="0.5" x2="1" y2="0.5" gradientUnits="objectBoundingBox">
      <stop offset="0" stop-color="#c00a03"/>
      <stop offset="0.181" stop-color="#e3201c"/>
      <stop offset="0.441" stop-color="#f2302e"/>
      <stop offset="0.512" stop-color="#f63433"/>
      <stop offset="0.678" stop-color="#ff3d3d"/>
      <stop offset="0.848" stop-color="#fc3a39"/>
      <stop offset="0.982" stop-color="#f3312f"/>
      <stop offset="1" stop-color="#f2302e"/>
    </linearGradient>
    <linearGradient id="linear-gradient-15" x1="0" y1="0.5" x2="1" y2="0.5" xlink:href="#linear-gradient-11"/>
    <linearGradient id="linear-gradient-16" y1="0.5" x2="1" y2="0.5" gradientUnits="objectBoundingBox">
      <stop offset="0.316" stop-color="#a63b23"/>
      <stop offset="0.343" stop-color="#993117"/>
      <stop offset="0.705" stop-color="#993117"/>
      <stop offset="0.743" stop-color="#8a250b"/>
      <stop offset="1" stop-color="#6b2200"/>
    </linearGradient>
  </defs>
  <g id="Grupo_1065797" data-name="Grupo 1065797" transform="translate(-237.159 -92.227)">
    <g id="Grupo_1065754" data-name="Grupo 1065754" transform="translate(290.57 99.58)">
      <path id="Trazado_775856" data-name="Trazado 775856" d="M257.435,100.229a7.445,7.445,0,0,0-3.374-5.824,2.343,2.343,0,0,0-2.432-.21v0l-1.786,1.075,5.13,7.982,1.272-.758a1.573,1.573,0,0,0,.445-.265l0,0h0A2.529,2.529,0,0,0,257.435,100.229Z" transform="translate(-248.939 -93.944)" fill="url(#linear-gradient)"/>
      <path id="Trazado_775857" data-name="Trazado 775857" d="M249.632,96.579a7.437,7.437,0,0,0,3.374,5.819c1.863,1.079,3.374.214,3.374-1.923a7.445,7.445,0,0,0-3.374-5.824C251.144,93.577,249.632,94.438,249.632,96.579Z" transform="translate(-249.632 -93.141)" fill="#212022"/>
    </g>
    <path id="Trazado_775858" data-name="Trazado 775858" d="M255.7,154.613,320.123,191.6a9.016,9.016,0,0,0,9.048,0L362.593,172.5c1.91-1.083,20.914-10.217,19.111-11.515-3.284-2.381-63.273-38.034-63.273-38.034Z" transform="translate(60.848 100.827)" fill="#baefe4"/>
    <path id="Trazado_775859" data-name="Trazado 775859" d="M286.487,130.857l39.6,1.945-1.908,3.138-43.828-2.087Z" transform="translate(141.774 126.789)" fill="#baefe4"/>
    <path id="Trazado_775860" data-name="Trazado 775860" d="M237.159,166.9l111.634,64.416,69.38-40.524L306.539,126.372Z" transform="translate(0 112.067)" fill="#baefe4"/>
    <g id="Grupo_1065761" data-name="Grupo 1065761" transform="translate(348.728 132.954)">
      <path id="Trazado_775861" data-name="Trazado 775861" d="M296.538,113.226l-12.108,29.468,5.3,1.723,11.049-30.631Z" transform="translate(-193.579 -64.033)" fill="#616569"/>
      <path id="Trazado_775862" data-name="Trazado 775862" d="M287.523,108.383l-12.108,29.468,5.3,1.723,11.049-30.631Z" transform="translate(-223.166 -79.929)" fill="#616569"/>
      <g id="Grupo_1065757" data-name="Grupo 1065757" transform="translate(0 49.195)">
        <g id="Grupo_1065755" data-name="Grupo 1065755">
          <path id="Trazado_775863" data-name="Trazado 775863" d="M268.693,196.367l10.286-63.787a7.61,7.61,0,0,1,3.713-5.387l12.765-7.37a7.926,7.926,0,0,1,5.4-1.028,7.588,7.588,0,0,1,5.524,4.252l18.011,38.158a2.94,2.94,0,0,0,3.91,1.4h0a2.521,2.521,0,0,0,1.2-3.353l-18.122-38.389a13.063,13.063,0,0,0-18.439-5.888l-12.979,7.494a13.066,13.066,0,0,0-6.372,9.245l-10.346,64.177a2.526,2.526,0,0,0,2.094,2.9h0A2.925,2.925,0,0,0,268.693,196.367Z" transform="translate(-263.213 -113.226)" fill="#777778"/>
        </g>
        <g id="Grupo_1065756" data-name="Grupo 1065756" transform="translate(0 0.02)">
          <path id="Trazado_775864" data-name="Trazado 775864" d="M277.689,118.987,295.7,157.141l.039.06a2.927,2.927,0,0,1-2.993-1.649l-18.011-38.158a7.581,7.581,0,0,0-1.88-2.445A7.544,7.544,0,0,1,277.689,118.987Z" transform="translate(-231.568 -107.592)" fill="#616569"/>
          <path id="Trazado_775865" data-name="Trazado 775865" d="M263.246,195.876,273.592,131.7a13.066,13.066,0,0,1,6.372-9.245l12.979-7.494a13.048,13.048,0,0,1,14.054.685,13.091,13.091,0,0,0-11.1.9l-12.979,7.494a13.086,13.086,0,0,0-6.372,9.245L266.2,197.469a2.494,2.494,0,0,0,.137,1.285,2.883,2.883,0,0,1-1,.021A2.526,2.526,0,0,1,263.246,195.876Z" transform="translate(-263.213 -113.231)" fill="#a8a8a9"/>
        </g>
      </g>
      <path id="Trazado_775866" data-name="Trazado 775866" d="M323.134,107.994s24.5,15.75,23.141,25.145c-1.31,9.061-7.978,38.565-12.23,40.351-.154.064-3.1,1.066-3.242,1.058-4.167-.33-54.567-28.986-55.629-34.283-.938-4.663,3.062-30.215,6.3-36.891.441-.9,2.3-.844,2.638-.985C286.937,101.211,306.035,100.9,323.134,107.994Z" transform="translate(-224.415 -101.738)" fill="#454545"/>
      <path id="Trazado_775867" data-name="Trazado 775867" d="M322.492,108.224s24.5,15.75,23.141,25.145-9.07,40.745-13.236,40.419-56.8-28-57.865-33.294,6.119-36.7,8.941-37.876S305.4,101.129,322.492,108.224Z" transform="translate(-226.411 -100.983)" fill="#fe7600"/>
      <path id="Trazado_775868" data-name="Trazado 775868" d="M320.124,108.227S343.29,123.112,342,132.04s-8.624,38.741-12.585,38.432S275.538,143.94,274.528,138.9s5.815-34.887,8.5-36.009S303.869,101.479,320.124,108.227Z" transform="translate(-226.411 -99.971)" fill="#ff8e1f"/>
      <path id="Trazado_775869" data-name="Trazado 775869" d="M297.851,104.275s4.479,5.181,5.143,7.794,0,38.646,0,38.646l-2.522,13.043s-10.817-3.978-18.345-9.275-2.068-52.508-2.068-52.508S291.158,102.442,297.851,104.275Z" transform="translate(-214.205 -100.96)" fill="#e55b00"/>
      <path id="Trazado_775870" data-name="Trazado 775870" d="M304.529,113.357s-25.7,10.4-32.15,19.694S265.09,149.344,265.09,152s40.471,27.252,45.215,27.444,10.251-2.278,15.373-9.3,34.694-21.372,36.591-22.511-.128-4.736-.128-4.736C336.854,124.8,304.529,113.357,304.529,113.357Z" transform="translate(-257.054 -63.603)" fill="#313131"/>
      <path id="Trazado_775871" data-name="Trazado 775871" d="M311.373,114.211a14.85,14.85,0,0,0-12.354.051c-8.025,3.7-21.535,10.6-25.971,16.992-6.453,9.3-8.162,15.942-8.162,18.6s40.471,27.252,45.22,27.44,10.247-2.278,15.373-9.3,34.69-21.368,36.586-22.507,1.019-.754-5.884-5.7A270.979,270.979,0,0,0,311.373,114.211Z" transform="translate(-257.724 -65.133)" fill="#ffba0c"/>
      <path id="Trazado_775872" data-name="Trazado 775872" d="M320.806,116.5s11.99,10.033,10.037,15.553S311.56,151.463,308.5,152.824s-16.092,8.676-16.092,8.676L267.54,146.718s8.988-23.976,22.76-25.222A285.292,285.292,0,0,0,320.806,116.5Z" transform="translate(-249.013 -53.29)" fill="#e55b00"/>
      <g id="Grupo_1065760" data-name="Grupo 1065760" transform="translate(53.856 80.386)">
        <g id="Grupo_1065758" data-name="Grupo 1065758">
          <path id="Trazado_775873" data-name="Trazado 775873" d="M281.274,203.655l10.281-63.791a7.616,7.616,0,0,1,3.717-5.387l12.761-7.37a7.9,7.9,0,0,1,5.4-1.023,7.582,7.582,0,0,1,5.528,4.248l18.011,38.158a2.933,2.933,0,0,0,3.905,1.4h0a2.517,2.517,0,0,0,1.2-3.353l-18.118-38.389a13.269,13.269,0,0,0-1.854-2.95,13.1,13.1,0,0,0-16.589-2.938l-12.979,7.494A13.091,13.091,0,0,0,286.169,139l-10.346,64.176a2.529,2.529,0,0,0,2.094,2.9h0A2.924,2.924,0,0,0,281.274,203.655Z" transform="translate(-275.79 -120.51)" fill="#777778"/>
        </g>
        <g id="Grupo_1065759" data-name="Grupo 1065759" transform="translate(0 0.021)">
          <path id="Trazado_775874" data-name="Trazado 775874" d="M290.271,126.271l18.011,38.154.034.06a2.921,2.921,0,0,1-2.989-1.649l-18.011-38.158a7.536,7.536,0,0,0-1.884-2.445A7.541,7.541,0,0,1,290.271,126.271Z" transform="translate(-244.145 -114.878)" fill="#616569"/>
          <path id="Trazado_775875" data-name="Trazado 775875" d="M284.1,171.775l-5.318,32.977a2.5,2.5,0,0,0,.141,1.285,2.909,2.909,0,0,1-1,.021,2.529,2.529,0,0,1-2.094-2.9l10.346-64.176a13.091,13.091,0,0,1,6.372-9.245l12.979-7.494a13.065,13.065,0,0,1,14.058.685,13.1,13.1,0,0,0-11.1.9L295.5,131.326a13.107,13.107,0,0,0-6.372,9.245l-5.027,31.2Z" transform="translate(-275.79 -120.515)" fill="#a8a8a9"/>
        </g>
      </g>
    </g>
    <path id="Trazado_775876" data-name="Trazado 775876" d="M287.411,142.8l13.379-.982-4.767,3.542-20.433.495Z" transform="translate(126.134 162.76)" fill="#baefe4"/>
    <path id="Trazado_775877" data-name="Trazado 775877" d="M270.887,149.684l17.57-.308-8.75,3.258-16.45.778Z" transform="translate(85.657 187.57)" fill="#baefe4"/>
    <g id="Grupo_1065762" data-name="Grupo 1065762" transform="translate(358.588 302.505)">
      <path id="Trazado_775878" data-name="Trazado 775878" d="M265.516,182.549l3.752,2.207,9.535.557,65.641-43.967-8.459-.012Z" transform="translate(-265.516 -141.333)" fill="#baefe4"/>
    </g>
    <g id="Grupo_1065777" data-name="Grupo 1065777" transform="translate(250.163 92.227)">
      <g id="Grupo_1065776" data-name="Grupo 1065776" transform="translate(0 37.127)">
        <path id="Trazado_775879" data-name="Trazado 775879" d="M284.225,103.277s-11.66,7.8-14.1,9.292a73.689,73.689,0,0,1-6.693,3.229c-.869.471,1.889,11.416,4.406,11.1s10.2-4.963,12.307-5.905,12.5-5.2,13.681-8.74S284.225,103.277,284.225,103.277Z" transform="translate(-164.47 -93.087)" fill="#f6b486"/>
        <path id="Trazado_775880" data-name="Trazado 775880" d="M284.437,101.484s-9.489,3.546-11.754,5.121a59.666,59.666,0,0,0-5.019,4.094s4.488,5.828,5.434,8.033a35.586,35.586,0,0,1,1.571,4.8l5.828-2.518S293.571,98.336,284.437,101.484Z" transform="translate(-150.041 -99.956)" fill="#3d7dc0"/>
        <path id="Trazado_775881" data-name="Trazado 775881" d="M273.55,135.421s-1.653,5.357-2.205,6.539-3.618,5.276-5.194,6.3-3.229,3.229-3.387,4.646,1.34,5.588,2.518,6.3,5.276.313,6.38-1.023,5.04-6.145,5.04-6.145l2.912-4.959s5.67-2.205,6.145-3.7,1.1-3.28,1.1-3.28.394-3.965-1.259-5.066-5.357-3.546-5.357-3.546Z" transform="translate(-166.165 -0.501)" fill="#6b2912"/>
        <path id="Trazado_775882" data-name="Trazado 775882" d="M279.358,133.5a4.915,4.915,0,0,0-2.753,3.593,24.953,24.953,0,0,1-2.128,7.245c-.788,1.259-6.77,10.08-7.558,11.656s-1.1,3.541.629,4.171,5.67,2.047,8.269.946,5.67-2.205,6.218-3.387,2.445-4.882,2.681-6.693a36.719,36.719,0,0,1,2.912-7.952c.552-.788.63-6.535.63-6.535Z" transform="translate(-154.571 6.099)" fill="#6b2912"/>
        <path id="Trazado_775883" data-name="Trazado 775883" d="M282.186,126.47s1.143,12.915,1.516,17.009,3.366,12.915,3.366,14.491-2.522,5.828-4.882,6.77-7.4,0-7.4,0-6.141-15.274-8.346-20.156a61.42,61.42,0,0,1-4.252-18.743C262.06,121.018,282.186,126.47,282.186,126.47Z" transform="translate(-168.027 -25.567)" fill="#323232"/>
        <path id="Trazado_775884" data-name="Trazado 775884" d="M287.368,126.631s1.417,11.339,1.263,14.8-3.623,18.113-3.623,18.113a12.95,12.95,0,0,1-6.141,2.676c-3.31.317-5.357-3.781-5.357-3.781s-1.225-12.422-2.342-14.007-3.8-17.33-3.8-17.33Z" transform="translate(-151.006 -16.436)" fill="#4d4d4d"/>
        <path id="Trazado_775885" data-name="Trazado 775885" d="M293.272,113.907s-9.763,7.4-20.944,23.466-10.551,15.274-9.922,21.1,6.3,9.451,13.7,6.774,11.969-8.033,14.174-9.609,19.843-14.174,23.937-20.944S295.165,113.749,293.272,113.907Z" transform="translate(-168.25 -58.202)" fill="#404040"/>
        <path id="Trazado_775886" data-name="Trazado 775886" d="M288.085,121.536v9.922c0,.788-15.908,18.9-17.955,22.52s-3.152,6.3-2.676,8.98,3.353,9.292,10.26,7.087,10.684-4.411,13.206-6.457,21.89-14.8,24.725-16.538,8.187-9.134,8.029-14.491-2.518-16.85-2.518-16.85Z" transform="translate(-151.09 -52.287)" fill="#555"/>
        <path id="Trazado_775887" data-name="Trazado 775887" d="M325.08,115.181s-9.292-11.969-24.254-13.7-18.9.788-20.79,2.359-8.5,17.642-8.5,26.776,2.848,13.069,1.661,16.533-4.338,13.073-4.338,13.073-1.417,11.81,20.314,15.591,29.611-6.3,29.611-6.3-5.674-6.774-3.152-18.426,4.882-22.049,4.882-22.837S325.08,115.181,325.08,115.181Z" transform="translate(-146.192 -100.897)" fill="#589fed"/>
        <g id="Grupo_1065775" data-name="Grupo 1065775" transform="translate(0 19.06)">
          <g id="Grupo_1065766" data-name="Grupo 1065766" transform="translate(73.885 84.074)">
            <g id="Grupo_1065763" data-name="Grupo 1065763" transform="translate(0 0.914)">
              <path id="Trazado_775888" data-name="Trazado 775888" d="M257.45,129.652l3.992,1.626v-3.734L257.45,125.2Z" transform="translate(-257.45 -125.196)" fill="#50535a"/>
            </g>
            <g id="Grupo_1065764" data-name="Grupo 1065764" transform="translate(3.992 2.348)">
              <path id="Trazado_775889" data-name="Trazado 775889" d="M258.382,130.179l1.435-.89v-3.759l-1.435.914Z" transform="translate(-258.382 -125.531)" fill="#232323"/>
            </g>
            <g id="Grupo_1065765" data-name="Grupo 1065765">
              <path id="Trazado_775890" data-name="Trazado 775890" d="M257.45,125.9l3.992,2.349,1.435-.914-3.991-2.348Z" transform="translate(-257.45 -124.982)" fill="#686a73"/>
            </g>
          </g>
          <g id="Grupo_1065770" data-name="Grupo 1065770" transform="translate(3.526 85.254)">
            <g id="Grupo_1065767" data-name="Grupo 1065767" transform="translate(0 41.216)">
              <path id="Trazado_775891" data-name="Trazado 775891" d="M241.019,138.225l3.752,2.184v-3.32l-3.752-2.207Z" transform="translate(-241.019 -134.883)" fill="#5f5f5f"/>
            </g>
            <g id="Grupo_1065768" data-name="Grupo 1065768" transform="translate(3.752 2.207)">
              <path id="Trazado_775892" data-name="Trazado 775892" d="M241.9,170.309l70.469-41.193v-3.343L241.9,166.989Z" transform="translate(-241.895 -125.773)" fill="#939394"/>
            </g>
            <g id="Grupo_1065769" data-name="Grupo 1065769">
              <path id="Trazado_775893" data-name="Trazado 775893" d="M241.019,166.474l3.752,2.207,70.469-41.216-3.752-2.207Z" transform="translate(-241.019 -125.258)" fill="#d9d9d9"/>
            </g>
          </g>
          <path id="Trazado_775894" data-name="Trazado 775894" d="M242.462,199.338l3.166-1.806V115.459l-3.166,1.808Z" transform="translate(-232.756 -72.164)" fill="#939394"/>
          <path id="Trazado_775895" data-name="Trazado 775895" d="M241.662,197.273l3.426,2.065V117.267l-3.426-1.808Z" transform="translate(-235.382 -72.164)" fill="#5f5f5f"/>
          <path id="Trazado_775896" data-name="Trazado 775896" d="M257.224,190.678l3.166-1.807V106.8l-3.166,1.808Z" transform="translate(-184.306 -100.588)" fill="#8d919c"/>
          <path id="Trazado_775897" data-name="Trazado 775897" d="M256.424,188.613l3.425,2.065V108.607l-3.425-1.808Z" transform="translate(-186.931 -100.588)" fill="#b6b8d1"/>
          <g id="Grupo_1065774" data-name="Grupo 1065774" transform="translate(117.96 151.327)">
            <g id="Grupo_1065771" data-name="Grupo 1065771" transform="translate(0 41.216)">
              <path id="Trazado_775898" data-name="Trazado 775898" d="M267.743,153.655l3.752,2.185v-3.32l-3.752-2.207Z" transform="translate(-267.743 -150.313)" fill="#5f5f5f"/>
            </g>
            <g id="Grupo_1065772" data-name="Grupo 1065772" transform="translate(3.752 2.207)">
              <path id="Trazado_775899" data-name="Trazado 775899" d="M268.619,185.739l70.469-41.194V141.2l-70.469,41.216Z" transform="translate(-268.619 -141.203)" fill="#939394"/>
            </g>
            <g id="Grupo_1065773" data-name="Grupo 1065773">
              <path id="Trazado_775900" data-name="Trazado 775900" d="M267.743,181.9l3.752,2.207,70.469-41.216-3.752-2.207Z" transform="translate(-267.743 -140.688)" fill="#d9d9d9"/>
            </g>
          </g>
          <path id="Trazado_775901" data-name="Trazado 775901" d="M269.186,214.768l3.166-1.806V130.889l-3.166,1.808Z" transform="translate(-145.046 -21.521)" fill="#939394"/>
          <path id="Trazado_775902" data-name="Trazado 775902" d="M268.386,212.7l3.425,2.065V132.7l-3.425-1.808Z" transform="translate(-147.671 -21.521)" fill="#5f5f5f"/>
          <path id="Trazado_775903" data-name="Trazado 775903" d="M283.948,206.107l3.166-1.806V122.229l-3.166,1.808Z" transform="translate(-96.595 -49.945)" fill="#939394"/>
          <path id="Trazado_775904" data-name="Trazado 775904" d="M283.148,204.042l3.425,2.065V124.037l-3.425-1.808Z" transform="translate(-99.22 -49.945)" fill="#5f5f5f"/>
          <path id="Trazado_775905" data-name="Trazado 775905" d="M240.2,121.646,363.79,192.963v-5.818L240.2,115.828Z" transform="translate(-240.187 -70.953)" fill="#78301d"/>
          <path id="Trazado_775906" data-name="Trazado 775906" d="M240.2,150.217,363.79,221.533,440.6,176.668,317.009,105.352Z" transform="translate(-240.19 -105.338)" fill="#ea9854"/>
          <path id="Trazado_775907" data-name="Trazado 775907" d="M435.768,177.017l-71.959,41.156L240.2,150.21l29.387-17.182,2.724-1.562,1.017-.617,2.906-1.671,40.793-23.829Z" transform="translate(-240.196 -105.349)" fill="#d16d45"/>
          <path id="Trazado_775908" data-name="Trazado 775908" d="M274.228,130.093h-3.7L249,118.277l.831-2.565,11.781-6.427Z" transform="translate(-211.287 -92.427)" fill="#78301d"/>
          <path id="Trazado_775909" data-name="Trazado 775909" d="M298.739,110.326l-44.83,28.136,36.867,19.071,40.89-29.4Z" transform="translate(-195.186 -89.011)" fill="#fff"/>
          <path id="Trazado_775910" data-name="Trazado 775910" d="M287.636,120.647a5.184,5.184,0,0,0,2.92-1.841,2.061,2.061,0,0,0,.394-.8,1.317,1.317,0,0,0,.021-.291,1.418,1.418,0,0,0-.634-1.011,3.987,3.987,0,0,0-1.118-.5q-1.895-.629-3.815-1.2a21.735,21.735,0,0,0-7.292-1.225c-.638.03-.827.373-1.392.719a9.22,9.22,0,0,0-1.576,1.777c-1.049,1.16-2.685,1.679-4.5,2.651A19.431,19.431,0,0,1,267,120.36c-.69.206-3.194.831-3.4,1.627a12.122,12.122,0,0,1-1.606,3.606c-.278.424-3.443,2.222-3.563,1.936.407.993,3.623.4,4.453.527a6.2,6.2,0,0,1,3.16,1.349,2.283,2.283,0,0,1,.844,1.387.341.341,0,0,0,.06.206.286.286,0,0,0,.184.086,9.694,9.694,0,0,0,1.632.385c.672.017,1.293-.5,1.923-.5a2.429,2.429,0,0,0,1.657-1.229,6.086,6.086,0,0,1,1.833-1.713c1-.63,2.2-.951,3.164-1.614.9-.612,1.537-1.486,2.385-2.1A24.307,24.307,0,0,1,287.636,120.647Z" transform="translate(-180.342 -77.738)" fill="#fb4d60"/>
          <path id="Trazado_775911" data-name="Trazado 775911" d="M268.793,125.408a8.083,8.083,0,0,1,2.154,1.3,3.155,3.155,0,0,1,1.011,1.332c.1.407-.12.8-.047,1.208a9.156,9.156,0,0,0,1.876.274,21.219,21.219,0,0,0,5.434-.48,55.626,55.626,0,0,0,13.553-4.852,1.67,1.67,0,0,0,.741-.557,1.179,1.179,0,0,0-.343-1.417,4.4,4.4,0,0,0-1.413-.7c-3.6-1.366-6.2-4.552-9.635-6.29-4.346-2.2-9.575-1.871-14.093-3.7a1.881,1.881,0,0,0-.826-.2c-.715.06-1.049.891-1.242,1.576a49.664,49.664,0,0,1-1.67,4.92c-.394.989-.985,1.888-1.456,2.839a5.618,5.618,0,0,0-.317,3.173,17.739,17.739,0,0,1,2.355.5c.621.12,1.263.218,1.876.39A18.215,18.215,0,0,1,268.793,125.408Z" transform="translate(-167.232 -85.758)" fill="#fb3940"/>
          <path id="Trazado_775912" data-name="Trazado 775912" d="M269.06,172.688l76.806-44.865v-5.818L269.06,166.871Z" transform="translate(-145.457 -50.678)" fill="#b04833"/>
        </g>
        <path id="Trazado_775913" data-name="Trazado 775913" d="M280.057,109.95s-.283,6.9.227,9.592a62.891,62.891,0,0,1,.612,7.626s5.46,15.326,8.4,14.594,5.46-9.344,5.25-13.335-.732-9.344-1.049-12.285a60.4,60.4,0,0,1-.1-7.348Z" transform="translate(-109.622 -74.979)" fill="#fcd1b3"/>
        <path id="Trazado_775914" data-name="Trazado 775914" d="M330.072,120.244s-4.081-3.944-7.241-3.935-7.721.154-11.707-.737-8.35-3.1-12.864-3.362a43.951,43.951,0,0,0-6.77,0,42.249,42.249,0,0,0-6.933-.116,13.892,13.892,0,0,0-3.884,1.272s-6.98,2.124-8.4,2.741-2.573.621-2.732.989l-.158.364s-1.572,1-1.152,1.683,2.047.681,2.047.681-.154.959,1.049,1.049,3.708-.06,3.708-.06a3.471,3.471,0,0,0,2.09,1.109c1.238.107,9.9.154,14.255,0s4.989-1.734,6.719-1.679,6.038,5.091,13.125,7.138,14.491,3.991,17.377,3.965S332.106,121.927,330.072,120.244Z" transform="translate(-148.405 -64.539)" fill="#ffdec7"/>
        <path id="Trazado_775915" data-name="Trazado 775915" d="M274,110.787s-.235-4.145-3.541-4.462-4.333,1.182-5.986,3.152a11.766,11.766,0,0,0-2.753,6.77c-.24,2.6.707,4.149.707,4.856s-.42,3.755-.471,4.646a4.641,4.641,0,0,0,1.207,2.728,35.544,35.544,0,0,0,3.833,2.18h3.516l2.1-.655,1.392-.681.762-1.263,1.156-3.464s.942-1.627.42-2.047a24.713,24.713,0,0,1-2.154-3.674l-1.679-.4S274.551,113.991,274,110.787Z" transform="translate(-169.685 -83.22)" fill="#fcd1b3"/>
        <path id="Trazado_775916" data-name="Trazado 775916" d="M270.479,122.418a11.242,11.242,0,0,0-1-3.045c-.681-1.208-5.3-11.759-5.3-11.759s-1.208-.317-1.52,0,0,1.417,0,1.417l5.46,11.5S269.64,122.628,270.479,122.418Z" transform="translate(-166.927 -79.311)" fill="#6a3120"/>
        <path id="Trazado_775917" data-name="Trazado 775917" d="M266.973,114.041l1.006,2.12,2.5,2.766s1.28,1.559,1.024,1.987-.771.981-1.024.951-3.1-1.94-3.1-1.94-3.2-1.734-3.413-2.783-1.486-6.059-1.452-6.256a25.971,25.971,0,0,1,1.923-2.171Z" transform="translate(-166.928 -75.242)" fill="#fcd1b3"/>
        <path id="Trazado_775918" data-name="Trazado 775918" d="M266.209,109.332s1.889.244,2.257.719,1.944,4.119,1.944,4.081a18.136,18.136,0,0,0-1.083,2.205c-.21.629-.266,2.342-.861,2.582a.635.635,0,0,1-.848-.21,2.834,2.834,0,0,1-.771-1.983,14.175,14.175,0,0,0,.094-2.27l-.732-1.469-1.16-.711-1.452-3.212Z" transform="translate(-163.389 -74.083)" fill="#fcd1b3"/>
        <path id="Trazado_775919" data-name="Trazado 775919" d="M295.856,126.9s-.629-8.4-1.572-13.7a16.7,16.7,0,0,0-5.25-8.868,10,10,0,0,0-7.982,6.3c-2.625,5.982-.942,19.424-.942,19.424S285.882,125.118,295.856,126.9Z" transform="translate(-110.934 -89.624)" fill="#3d7dc0"/>
      </g>
      <path id="Trazado_775920" data-name="Trazado 775920" d="M274.283,108.83s1.606,3.974,1.606,5.837.086,4.9,1.268,5.832,3.918.407,6.453-.351,7.751-8.611,7.665-8.864-1.876-2.3-1.854-7.776-3.64-4.65-3.892-4.569S274.283,108.83,274.283,108.83Z" transform="translate(-128.316 -70.497)" fill="#f6b486"/>
      <path id="Trazado_775921" data-name="Trazado 775921" d="M279.253,93.312s-4.732,4.65-5.327,9.639-1.687,10.907-1.52,14.713,5.074,14.118,6.847,14.118,5.5.848,11.078-3.3a17.654,17.654,0,0,0,6.594-10.316s2.873-3.3,1.777-9.639S292.781,96.19,289.569,96.1,279.253,93.312,279.253,93.312Z" transform="translate(-134.533 -88.667)" fill="#fcd1b3"/>
      <path id="Trazado_775922" data-name="Trazado 775922" d="M289.178,107.95a39.176,39.176,0,0,1-6.847.424c-2.287-.257-2.539-1.777-3.974-1.691a5.266,5.266,0,0,0-2.865,1.721l-1.169,9.271-.111,3.55s-2.2-4.145-2.368-6.766,3.974-14.628,5.665-17.587,10.74-6.761,17-3.212c7.776-.424,10.483,6.766,10.312,13.065s4.569,24.138,5.074,25.32,2.2,5.413,2.2,5.413-7.691-3.13-10.311-4.226-2.235-.844-3.674-2.706-.385-3.721-.891-8.372S295.858,107.779,289.178,107.95Z" transform="translate(-136.338 -92.227)" fill="#6a3120"/>
    </g>
    <g id="Grupo_1065779" data-name="Grupo 1065779" transform="translate(354.833 202.567)">
      <path id="Trazado_775923" data-name="Trazado 775923" d="M301.975,122.363a10.009,10.009,0,0,0-3.272.535c.993-1.336,1.64-4.119-3.593-4.6-7.387-.677-6.642,3.447-7.134,5.032-.509,1.6-3.854,3.9-3.854,3.9l.749.291-16.109,11.9-4.124,2.411.1.351.745-.343-.724.535.484.034,7.357-3.845,17.5-8.05.33.236a63.144,63.144,0,0,1,6.183-1.666c2.976-.6,7.28.407,9.391-2.077S304.686,122.5,301.975,122.363Zm-7.9,2.993c-1.525,1.5-6.162,3.593-6.162,3.593l.527.377-1.417.51-1.362.1,1.957-1.345.231.09s3.982-2.475,4.612-2.745c.261-.111,1.083-.471,2.021-.882C294.361,125.155,294.182,125.253,294.079,125.356Zm.445-1.6c-2.291.167-4.406-.779-4.71-2.1s1.315-2.548,3.605-2.715c2.308-.167,4.406.779,4.715,2.111S296.828,123.587,294.524,123.759Zm7.04,4.248c-2.291.167-4.4-.767-4.706-2.1s1.315-2.539,3.606-2.706c2.308-.167,4.406.775,4.71,2.1S303.872,127.84,301.564,128.007Z" transform="translate(-264.639 -117.24)" fill="#78301d"/>
      <g id="Grupo_1065778" data-name="Grupo 1065778" transform="translate(0.87)">
        <path id="Trazado_775924" data-name="Trazado 775924" d="M279.308,126.758c2.972-.6,7.28.407,9.391-2.077s-1.473-5.507-4.184-5.635-6.222,2.471-7.746,3.982c-1.092,1.075-4.723,1.563-6.162,2.257-.574.278,0,1.336,0,1.336l2.518,1.8A61.784,61.784,0,0,1,279.308,126.758Zm.235-3.177c-.3-1.327,1.319-2.539,3.61-2.711s4.406.779,4.71,2.1-1.3,1.375-3.606,1.542S279.852,124.913,279.543,123.581Z" transform="translate(-246.76 -114.561)" fill="#e53b00"/>
        <path id="Trazado_775925" data-name="Trazado 775925" d="M278.055,126.644c.629-.266,4.509-1.991,5.473-2.338s3.73-5.515-2.92-6.128c-7.387-.672-6.547,4.278-7.04,5.862-.33,1.041-2.826,1.76-3.854,2.569-.552.432,0,1.332,0,1.332l3.73,1.447S277.425,126.909,278.055,126.644Zm-2.651-4.278c-.3-1.332,1.315-2.548,3.606-2.715,2.308-.167,4.406.775,4.715,2.111s-1.306,2.535-3.61,2.706S275.708,123.689,275.4,122.366Z" transform="translate(-249.66 -117.598)" fill="#e53b00"/>
        <path id="Trazado_775926" data-name="Trazado 775926" d="M290.985,121.535l-26.038,11.979-.1-.352v-.513l20.267-11.329,2.119-.155,3.756-.143Z" transform="translate(-264.842 -108.057)" fill="#61594d"/>
        <path id="Trazado_775927" data-name="Trazado 775927" d="M264.871,135.305v-.513l23.544-14.257v.513l-3.443,2.367-.345,1.856-19.27,10.067Z" transform="translate(-264.747 -109.656)" fill="#69645d"/>
        <path id="Trazado_775928" data-name="Trazado 775928" d="M290.985,121.924,264.946,133.9l-.1-.352,20.267-11.842,2.119-.154,2.237-.808Z" transform="translate(-264.842 -108.959)" fill="#958976"/>
        <path id="Trazado_775929" data-name="Trazado 775929" d="M264.871,135.651l20.819-15.377,2.725,1.12-3.443,2.368-.345,1.855-19.27,10.068Z" transform="translate(-264.747 -110.514)" fill="#b8b0a3"/>
        <path id="Trazado_775930" data-name="Trazado 775930" d="M279.112,125.687c2.972-.6,7.28.411,9.391-2.073s-1.323-4.518-4.038-4.646a12.446,12.446,0,0,0-7.892,2.993c-1.525,1.5-6.162,3.588-6.162,3.588l2.518,1.807A62.5,62.5,0,0,1,279.112,125.687Zm.235-3.177c-.3-1.323,1.319-2.539,3.61-2.706s4.406.779,4.71,2.1-1.3,2.539-3.61,2.706C281.767,124.779,279.656,123.841,279.348,122.51Z" transform="translate(-246.564 -114.826)" fill="#f18018"/>
        <path id="Trazado_775931" data-name="Trazado 775931" d="M277.867,125.708c.629-.27,4.509-2,5.473-2.338s3.828-4.689-2.826-5.3c-7.387-.677-6.642,3.451-7.134,5.036-.51,1.593-3.854,3.9-3.854,3.9l3.73,1.447S277.237,125.974,277.867,125.708Zm-2.651-4.278c-.3-1.332,1.315-2.548,3.606-2.715,2.308-.167,4.406.775,4.715,2.107s-1.306,2.539-3.61,2.706S275.52,122.754,275.216,121.43Z" transform="translate(-249.472 -117.995)" fill="#f18018"/>
        <path id="Trazado_775932" data-name="Trazado 775932" d="M269.937,122.364c-.509.039-.972-.171-1.04-.462s.291-.561.8-.6.972.171,1.041.467S270.442,122.33,269.937,122.364Z" transform="translate(-251.563 -107.152)" fill="#9d978b"/>
      </g>
    </g>
    <g id="Grupo_1065785" data-name="Grupo 1065785" transform="translate(278.177 187.814)">
      <path id="Trazado_775933" data-name="Trazado 775933" d="M282.484,120.241l-.482.56-5.892,6.8-.244.28-21.081-3.9-.083-.016-3.679-.679-2.239-.415-.57-.1-.984-.182-.492-.093.964-1.114,1.658-1.918.006-.005.663-.762,1.264-1.462,1.228-1.42.005-.01.829-.953,5.576,1.031.047.01,21.117,3.9.57.1Z" transform="translate(-246.736 -113.542)" fill="#c1ccd1" style="mix-blend-mode: multiply;isolation: isolate"/>
      <path id="Trazado_775934" data-name="Trazado 775934" d="M279.464,115.567l-1.562,7.809-30.64-.688,2.008-7.809Z" transform="translate(-245.015 -113.467)" fill="#c1ccd1"/>
      <g id="Grupo_1065784" data-name="Grupo 1065784">
        <path id="Trazado_775935" data-name="Trazado 775935" d="M278.977,128.326,270.23,133.4l-23.46-13.47V119.6l8.747-4.739,23.46,13.137Z" transform="translate(-246.632 -113.542)" fill="#79a2b1"/>
        <path id="Trazado_775936" data-name="Trazado 775936" d="M278.976,128.236l-8.748,5.073-16.821-9.66-1.378-.793h-.005l-1.1-.637-2.42-1.389-.492-.285-.409-.233-.829-.477,2.487-1.44.006-.005.435-.249,1.036-.6,4.275-2.477.482-.28h-.027l.026.015.98.519,13.851,7.955h.005l5.68,3.26.565.321Z" transform="translate(-246.633 -113.783)" fill="#d6d6d6"/>
        <g id="Grupo_1065780" data-name="Grupo 1065780" transform="translate(4.089 3.468)">
          <path id="Trazado_775937" data-name="Trazado 775937" d="M262.155,119.875l-6.4,3.922-4.468-2.536,6.395-3.922Z" transform="translate(-235.884 -108.86)" fill="#003b7e"/>
          <path id="Trazado_775938" data-name="Trazado 775938" d="M260.341,119.282l-5.807,3.556-4.468-2.536,5.807-3.555Z" transform="translate(-239.905 -110.805)" fill="#0071a9"/>
          <path id="Trazado_775939" data-name="Trazado 775939" d="M259.141,118.571l-5.807,3.556-4.468-2.536,5.807-3.555Z" transform="translate(-243.843 -113.14)" fill="#29bcf2"/>
          <path id="Trazado_775940" data-name="Trazado 775940" d="M257.968,117.895l-5.807,3.556-4.468-2.536,5.807-3.555Z" transform="translate(-247.693 -115.359)" fill="#457eea"/>
        </g>
        <path id="Trazado_775941" data-name="Trazado 775941" d="M276.11,126.551l.565.321-.808.933-22.355-4.135-4.7-.871-.917-.171-1.156-.212v-.332l.492-.544.881-.974,1.213-1.337,1.513-1.669,2.519-2.783,1.757.306,1.462.254,23.257,4.032,2.171.378Z" transform="translate(-246.736 -113.803)" fill="#949494" style="mix-blend-mode: multiply;isolation: isolate"/>
        <path id="Trazado_775942" data-name="Trazado 775942" d="M282.489,120.012l-6.62,7.644-29.131-5.386v-.332l6.62-7.31,29.131,5.053Z" transform="translate(-246.738 -114.295)" fill="#79a2b1"/>
        <path id="Trazado_775943" data-name="Trazado 775943" d="M282.484,119.933l-.482.56-5.892,6.8-.244.28-21.081-3.9-.083-.016-3.679-.679-2.239-.415-.57-.1-.984-.182-.492-.093.964-1.114,1.658-1.918.006-.005.663-.762,1.264-1.461,1.228-1.42.005-.01.829-.953,5.576,1.031.047.01,21.117,3.9.57.1Z" transform="translate(-246.736 -114.549)" fill="#e1e1e1"/>
        <g id="Grupo_1065781" data-name="Grupo 1065781" transform="translate(6.543 2.157)">
          <path id="Trazado_775944" data-name="Trazado 775944" d="M261.57,116.7l-4.3,5.28-5.056-.913,4.3-5.279Z" transform="translate(-235.309 -112.647)" fill="#9c1100"/>
          <path id="Trazado_775945" data-name="Trazado 775945" d="M260.169,116.45l-4.3,5.28-5.056-.913,4.3-5.279Z" transform="translate(-239.909 -113.46)" fill="#b61100"/>
          <path id="Trazado_775946" data-name="Trazado 775946" d="M258.8,116.177l-4.3,5.279-5.056-.912,4.3-5.279Z" transform="translate(-244.398 -114.358)" fill="#ff1b0a"/>
          <path id="Trazado_775947" data-name="Trazado 775947" d="M257.623,115.965l-4.3,5.279-5.056-.913,4.3-5.279Z" transform="translate(-248.266 -115.053)" fill="#78ea45"/>
        </g>
        <path id="Trazado_775948" data-name="Trazado 775948" d="M279.143,118.767l-.047.1-.217.518-1.741,4.094-7.664-.171-15.64-.358-.7-.016-3.679-.679-2.239-.415.047-.1.389-.871.72-1.622.477-1.068.228-.513.647-1.461.638-1.435.6.005.612.01.835.011,2.239.026h.052l2.669.031.663.01Z" transform="translate(-245.167 -113.823)" fill="#949494" style="mix-blend-mode: multiply;isolation: isolate"/>
        <path id="Trazado_775949" data-name="Trazado 775949" d="M279.414,115.367l-1.562,7.809-30.64-.688v-.332l2.008-7.476,30.194.355Z" transform="translate(-245.18 -114.121)" fill="#79a2b1"/>
        <path id="Trazado_775950" data-name="Trazado 775950" d="M279.414,115.289l-1.562,7.809-30.64-.688,2.008-7.808Z" transform="translate(-245.18 -114.375)" fill="#f0f0f0"/>
        <path id="Trazado_775951" data-name="Trazado 775951" d="M247.664,115.764c0,.261.381.475.848.475s.844-.214.844-.475-.377-.48-.844-.48S247.664,115.5,247.664,115.764Z" transform="translate(-243.698 -112.139)" fill="#a9c4cd"/>
        <g id="Grupo_1065782" data-name="Grupo 1065782" transform="translate(7.652 1.305)">
          <path id="Trazado_775952" data-name="Trazado 775952" d="M259.135,114.992l-1.205,6.034-4.988-.063,1.206-6.033Z" transform="translate(-234.027 -114.607)" fill="#d45c00"/>
          <path id="Trazado_775953" data-name="Trazado 775953" d="M257.663,114.967,256.457,121l-4.988-.063,1.206-6.033Z" transform="translate(-238.86 -114.69)" fill="#e69100"/>
          <path id="Trazado_775954" data-name="Trazado 775954" d="M256.19,114.942l-1.206,6.034L250,120.913l1.206-6.033Z" transform="translate(-243.692 -114.772)" fill="#f2bf29"/>
          <path id="Trazado_775955" data-name="Trazado 775955" d="M254.718,114.917l-1.205,6.034-4.988-.063,1.206-6.033Z" transform="translate(-248.525 -114.854)" fill="#f5cc63"/>
        </g>
        <g id="Grupo_1065783" data-name="Grupo 1065783" transform="translate(4.24 3.109)">
          <path id="Trazado_775956" data-name="Trazado 775956" d="M248.572,116.064c.462,0,.848-.214.848-.48v-.206c-.561.034-1.126.043-1.691.039v.167C247.728,115.85,248.1,116.064,248.572,116.064Z" transform="translate(-247.728 -114.936)" fill="url(#linear-gradient-2)"/>
          <ellipse id="Elipse_4764" data-name="Elipse 4764" cx="0.845" cy="0.477" rx="0.845" ry="0.477" transform="translate(0)" fill="#a9a9a9"/>
        </g>
      </g>
    </g>
    <g id="Grupo_1065786" data-name="Grupo 1065786" transform="translate(279.55 164.339)">
      <path id="Trazado_775957" data-name="Trazado 775957" d="M249.69,115.586l11.29-6.519,21.889,12.638-11.29,6.518Z" transform="translate(-238.422 -109.067)" fill="#737274"/>
      <path id="Trazado_775958" data-name="Trazado 775958" d="M249.69,115.586l11.29-6.519,19.987,12.451-9.389,5.378Z" transform="translate(-238.422 -109.067)" fill="#3d3c3f"/>
      <path id="Trazado_775959" data-name="Trazado 775959" d="M258.873,114.186l-3.653-.4-4.727-2.729,8.987,1.071Z" transform="translate(-235.782 -102.547)" fill="#222123"/>
      <path id="Trazado_775960" data-name="Trazado 775960" d="M266.451,113.524l-16.029-1.566-.732-.423,2.138-1.234,15.232,1.162Z" transform="translate(-238.422 -105.017)" fill="#222123"/>
      <path id="Trazado_775961" data-name="Trazado 775961" d="M258.067,111.458l-.617,2.071-9.517-.945,2.906-1.671Z" transform="translate(-244.191 -103.009)" fill="#78301d"/>
      <path id="Trazado_775962" data-name="Trazado 775962" d="M262.823,112.429l-.617,2.071-15.148-1.49,2.724-1.562Z" transform="translate(-247.058 -101.255)" fill="#78301d"/>
      <path id="Trazado_775963" data-name="Trazado 775963" d="M249.552,112.6l22.877,13.211-.4-2.584L250.143,110.59Z" transform="translate(-238.875 -104.071)" fill="#2e2d2f"/>
      <path id="Trazado_775964" data-name="Trazado 775964" d="M254.8,118.537l.4,2.584,11.29-6.519-.4-2.584Z" transform="translate(-221.645 -99.381)" fill="#49484a"/>
    </g>
    <g id="Grupo_1065787" data-name="Grupo 1065787" transform="translate(291.835 102.128)">
      <path id="Trazado_775965" data-name="Trazado 775965" d="M264.481,164.594,249.995,98.229A3.051,3.051,0,0,1,254.2,94.8l48.953,21.582-1.464,3.327-47.9-21.12,14.234,65.23-2.355,1.439Z" transform="translate(-249.927 -94.539)" fill="#343336"/>
    </g>
    <g id="Grupo_1065788" data-name="Grupo 1065788" transform="translate(286.879 101.605)">
      <path id="Trazado_775966" data-name="Trazado 775966" d="M256.578,100.7a7.438,7.438,0,0,0-3.374-5.824,2.355,2.355,0,0,0-2.432-.214h0l-1.786,1.075,5.134,7.978,1.268-.754a1.616,1.616,0,0,0,.445-.266l0,0h0A2.523,2.523,0,0,0,256.578,100.7Z" transform="translate(-248.077 -94.417)" fill="url(#linear-gradient-3)"/>
      <path id="Trazado_775967" data-name="Trazado 775967" d="M248.77,97.048a7.438,7.438,0,0,0,3.374,5.824c1.867,1.075,3.379.214,3.379-1.927a7.43,7.43,0,0,0-3.379-5.819C250.282,94.05,248.77,94.911,248.77,97.048Z" transform="translate(-248.77 -93.614)" fill="#212022"/>
    </g>
    <g id="Grupo_1065789" data-name="Grupo 1065789" transform="translate(286.036 103.812)">
      <path id="Trazado_775968" data-name="Trazado 775968" d="M263.787,166.489,248.658,98.771A3.126,3.126,0,0,1,252.97,95.2l48.714,21.475L300.22,120,252.414,98.925,267.328,165.7l-2.15,1.4ZM252.2,97.949l0,.013Z" transform="translate(-248.573 -94.933)" fill="#474649"/>
    </g>
    <g id="Grupo_1065790" data-name="Grupo 1065790" transform="translate(318.928 106.712)">
      <path id="Trazado_775969" data-name="Trazado 775969" d="M300.423,104.165c.253,1.961-3.233,3.957-5.6,5.845-4.573,3.708-26.622,17.218-31.928,16.82a2.091,2.091,0,0,1-.544-.073c-2.835-1.053-5.738-2.689-6.029-4.65a15.364,15.364,0,0,1,.4-4.757.431.431,0,0,1,.034-.184s2.034-1.379,5.2-3.413c9.84-6.393,30.69-19.4,34.977-17.724a4.741,4.741,0,0,1,2.471,3.015A26.9,26.9,0,0,1,300.423,104.165Z" transform="translate(-256.254 -94.718)" fill="#252426"/>
      <path id="Trazado_775970" data-name="Trazado 775970" d="M299.071,99.672c.218,1.452-.617,3.049-2.505,4.612-3.7,2.942-26.952,17.942-34,18.6a3.025,3.025,0,0,1-1.345-.107c-3.195-1.238-5.156-2.869-4.83-4.8a.431.431,0,0,1,.034-.184,5.236,5.236,0,0,1,2-2.685c.218-.184.544-.437.942-.728,6.286-4.5,31.35-20.267,35.747-18.563a8.973,8.973,0,0,1,2.252,1.28l.094.073A4.009,4.009,0,0,1,299.071,99.672Z" transform="translate(-255.921 -95.346)" fill="#3f3e41"/>
      <path id="Trazado_775971" data-name="Trazado 775971" d="M263.37,102.316c-.471,1.345-.471,3.777-.471,6.282.039,1.6.073,3.2,0,4.578a2.091,2.091,0,0,1-.544-.073c-2.835-1.053-5.738-2.689-6.029-4.65a15.364,15.364,0,0,1,.4-4.757.431.431,0,0,1,.034-.184,5.236,5.236,0,0,1,2-2.685c.218-.184.544-.437.942-.728a12.036,12.036,0,0,1,2.257,0C263.117,100.209,263.918,100.753,263.37,102.316Z" transform="translate(-256.254 -81.063)" fill="#aeaeae" style="mix-blend-mode: multiply;isolation: isolate"/>
      <path id="Trazado_775972" data-name="Trazado 775972" d="M258.211,114.02c2.989-2.4,31.294-19.711,34.844-18.332s2.848,3.8-.141,6.2-28.7,18.983-32.249,17.6S255.222,116.418,258.211,114.02Z" transform="translate(-254.701 -95.61)" fill="#6c6b6e"/>
    </g>
    <g id="Grupo_1065791" data-name="Grupo 1065791" transform="translate(282.983 103.842)">
      <path id="Trazado_775973" data-name="Trazado 775973" d="M255.668,101.223a7.445,7.445,0,0,0-3.374-5.824,2.353,2.353,0,0,0-2.432-.21v0l-1.79,1.075,5.134,7.978,1.267-.754a1.517,1.517,0,0,0,.445-.265l.009,0h0A2.517,2.517,0,0,0,255.668,101.223Z" transform="translate(-247.168 -94.94)" fill="url(#linear-gradient-4)"/>
      <path id="Trazado_775974" data-name="Trazado 775974" d="M247.86,97.574a7.43,7.43,0,0,0,3.379,5.819c1.863,1.075,3.374.214,3.374-1.923a7.445,7.445,0,0,0-3.374-5.824C249.372,94.572,247.86,95.433,247.86,97.574Z" transform="translate(-247.86 -94.138)" fill="#212022"/>
      <path id="Trazado_775975" data-name="Trazado 775975" d="M248.186,97a4.367,4.367,0,0,0,1.983,3.421c1.092.634,1.983.124,1.983-1.131a4.385,4.385,0,0,0-1.983-3.421C249.072,95.243,248.186,95.748,248.186,97Z" transform="translate(-246.79 -92.766)" fill="#bdbdbe"/>
    </g>
    <path id="Trazado_775976" data-name="Trazado 775976" d="M295.348,126.842c-1.357-2.518-6.654-4.937-9.528-5.023-.218-.009-9.232,4.132-9.429,4.149h0c-2.432.193-3.391,2.055-2.137,4.389a9.94,9.94,0,0,0,7.665,4.719,4.566,4.566,0,0,0,.694-.026l0,0C284.981,134.824,296.585,129.146,295.348,126.842Z" transform="translate(119.927 97.124)" fill="#78301d"/>
    <g id="Grupo_1065793" data-name="Grupo 1065793" transform="translate(397.401 214.512)">
      <path id="Trazado_775977" data-name="Trazado 775977" d="M283.127,131.72l-6.012-10.14.869-.514h0a2.945,2.945,0,0,1,2.946.27A9.209,9.209,0,0,1,285.2,128.5a2.888,2.888,0,0,1-1.2,2.7h0Z" transform="translate(-266.259 -120.784)" fill="url(#linear-gradient-5)"/>
      <path id="Trazado_775978" data-name="Trazado 775978" d="M285.249,128.618a9.193,9.193,0,0,0-4.261-7.16,4.015,4.015,0,0,0-.514-.248v0a3.334,3.334,0,0,0-1.4-.3c-1.349.03-2.257,1.122-2.24,2.985a6.4,6.4,0,0,0,.2,1.477,9.349,9.349,0,0,0,4.068,5.682,4.479,4.479,0,0,0,.582.278v0C283.724,132.164,285.283,131.042,285.249,128.618Z" transform="translate(-267.182 -120.388)" fill="#a1462f"/>
      <g id="Grupo_1065792" data-name="Grupo 1065792" transform="translate(1.871 1.924)">
        <path id="Trazado_775979" data-name="Trazado 775979" d="M279.858,134.266l8.462-5.019a1.61,1.61,0,0,0,.278-.206,2.472,2.472,0,0,0,.651-1.876,7.082,7.082,0,0,0-3.284-5.507,2.824,2.824,0,0,0-1.516-.424,1.586,1.586,0,0,0-.244.03,1.173,1.173,0,0,0-.24.064,1.524,1.524,0,0,0-.27.12v0l-8.462,5.023Z" transform="translate(-274.308 -121.233)" fill="url(#linear-gradient-6)"/>
        <path id="Trazado_775980" data-name="Trazado 775980" d="M276.642,133.4l3.332-1.974s1.267-1.212,1.362-4.775a8.214,8.214,0,0,0-1.756-5.413,1.171,1.171,0,0,0-.24.064,1.526,1.526,0,0,0-.27.12v0l-1.332.792a8.678,8.678,0,0,1,1.456,4.813C279.408,130.375,276.642,133.4,276.642,133.4Z" transform="translate(-269.683 -121.209)" fill="#d36572" style="mix-blend-mode: multiply;isolation: isolate"/>
        <path id="Trazado_775981" data-name="Trazado 775981" d="M276.614,133.439s2.766-3.027,2.552-6.376a8.678,8.678,0,0,0-1.456-4.813l1.764-1a7.579,7.579,0,0,1,1.828,5.438c-.09,3.563-1.358,4.775-1.358,4.775Z" transform="translate(-269.775 -121.173)" fill="url(#linear-gradient-7)"/>
        <path id="Trazado_775982" data-name="Trazado 775982" d="M285.905,128.247l1.456-.865a1.793,1.793,0,0,0,.278-.206,7.868,7.868,0,0,0-3.905-4.218c-3.169-1.632-4.839-1.1-4.839-1.1l-3.332,1.978s3.982-.976,6.817.822A8.642,8.642,0,0,1,285.905,128.247Z" transform="translate(-273.221 -119.445)" fill="#d36572" style="mix-blend-mode: multiply;isolation: isolate"/>
        <path id="Trazado_775983" data-name="Trazado 775983" d="M285.875,128.261l1.456-.861a1.608,1.608,0,0,0,.278-.206,7.849,7.849,0,0,0-3.905-4.218c-3.169-1.631-4.839-1.1-4.839-1.1l-3.332,1.978a12.348,12.348,0,0,1,6.822.818C285.43,126.235,285.875,128.261,285.875,128.261Z" transform="translate(-273.32 -119.386)" fill="url(#linear-gradient-8)"/>
        <path id="Trazado_775984" data-name="Trazado 775984" d="M281.488,128.339a7.073,7.073,0,0,0-3.276-5.507,3.03,3.03,0,0,0-.394-.193l0,0c-1.6-.677-2.818.18-2.8,2.068a7.079,7.079,0,0,0,3.28,5.507,3.24,3.24,0,0,0,.445.214h0C280.314,131.062,281.513,130.2,281.488,128.339Z" transform="translate(-275.017 -117.387)" fill="#e4e5e5"/>
      </g>
      <path id="Trazado_775985" data-name="Trazado 775985" d="M280.872,133.057l-6.012-10.14.874-.514h0a2.954,2.954,0,0,1,2.95.27,9.232,9.232,0,0,1,4.265,7.164,2.9,2.9,0,0,1-1.2,2.7h0Z" transform="translate(-273.661 -116.396)" fill="url(#linear-gradient-9)"/>
      <path id="Trazado_775986" data-name="Trazado 775986" d="M282.995,129.958a9.216,9.216,0,0,0-4.261-7.164,4.663,4.663,0,0,0-.514-.248l0,0c-2.077-.882-3.665.236-3.635,2.685a9.191,9.191,0,0,0,4.265,7.16,4.78,4.78,0,0,0,.578.283h0C281.47,133.5,283.025,132.378,282.995,129.958Z" transform="translate(-274.58 -115.999)" fill="#a1462f"/>
      <path id="Trazado_775987" data-name="Trazado 775987" d="M278.746,126.3a4,4,0,0,0-1.854-3.113,2.153,2.153,0,0,0-.223-.111h0c-.9-.385-1.593.1-1.58,1.169a4,4,0,0,0,1.854,3.113,1.962,1.962,0,0,0,.253.124h0C278.083,127.844,278.759,127.356,278.746,126.3Z" transform="translate(-272.922 -113.684)" fill="url(#linear-gradient-10)"/>
      <path id="Trazado_775988" data-name="Trazado 775988" d="M276.406,123.181a2.157,2.157,0,0,0-.223-.111h0a1.381,1.381,0,0,0-.668-.116,1.408,1.408,0,0,0-.278.908,4,4,0,0,0,1.854,3.113,1.962,1.962,0,0,0,.253.124h0a.617.617,0,0,0,.921-.805A4,4,0,0,0,276.406,123.181Z" transform="translate(-272.436 -113.676)" fill="#824730" style="mix-blend-mode: multiply;isolation: isolate"/>
    </g>
    <g id="Grupo_1065796" data-name="Grupo 1065796" transform="translate(379.725 217.482)">
      <path id="Trazado_775989" data-name="Trazado 775989" d="M283.08,131.1c-2.479,1.435-8.256.707-10.748-.732a4.129,4.129,0,0,1-.514-.343h0c-1.965-1.443-1.8-3.533.488-4.856a9.938,9.938,0,0,1,9,.017,4.675,4.675,0,0,1,.578.385h0C283.782,127.014,285.345,129.793,283.08,131.1Z" transform="translate(-270.452 -112.873)" fill="#78301d"/>
      <g id="Grupo_1065795" data-name="Grupo 1065795" transform="translate(4.359)">
        <path id="Trazado_775990" data-name="Trazado 775990" d="M283.259,124.894H271.47V125.9h0a2.951,2.951,0,0,0,1.739,2.4,9.2,9.2,0,0,0,8.333.017,2.893,2.893,0,0,0,1.713-2.415h0Z" transform="translate(-271.47 -110.265)" fill="url(#linear-gradient-11)"/>
        <path id="Trazado_775991" data-name="Trazado 775991" d="M281.545,129.912a9.2,9.2,0,0,1-8.333-.013,4.39,4.39,0,0,1-.48-.313h0a3.274,3.274,0,0,1-.972-1.053c-.664-1.173-.188-2.514,1.426-3.447a6.442,6.442,0,0,1,1.366-.587,9.373,9.373,0,0,1,6.967.6,4.3,4.3,0,0,1,.535.36h0C283.815,126.795,283.643,128.7,281.545,129.912Z" transform="translate(-271.469 -112.873)" fill="#ea9061"/>
        <path id="Trazado_775992" data-name="Trazado 775992" d="M281.081,129.645a8.754,8.754,0,0,1-7.922-.013,3.883,3.883,0,0,1-.45-.3h0c-1.73-1.272-1.589-3.109.432-4.278a8.745,8.745,0,0,1,7.918.017,5.266,5.266,0,0,1,.51.338h0C283.235,126.682,283.072,128.5,281.081,129.645Z" transform="translate(-271.352 -112.806)" fill="#d16d45"/>
        <path id="Trazado_775993" data-name="Trazado 775993" d="M275.542,129.246s-1.983-.484-3.781-1.019c-.664-1.173-.188-2.514,1.426-3.447a6.442,6.442,0,0,1,1.366-.587,25.506,25.506,0,0,1,3.229.368A46.647,46.647,0,0,1,275.542,129.246Z" transform="translate(-271.469 -112.566)" fill="#832409"/>
        <g id="Grupo_1065794" data-name="Grupo 1065794" transform="translate(1.362 1.835)">
          <path id="Trazado_775994" data-name="Trazado 775994" d="M280.853,122.517v9.84a1.546,1.546,0,0,1-.034.343,2.459,2.459,0,0,1-1.28,1.516,7.1,7.1,0,0,1-6.415-.013,2.847,2.847,0,0,1-1.135-1.088,1.734,1.734,0,0,1-.1-.227,1.528,1.528,0,0,1-.069-.24,1.351,1.351,0,0,1-.034-.291h0v-9.84Z" transform="translate(-271.788 -119.902)" fill="url(#linear-gradient-12)"/>
          <path id="Trazado_775995" data-name="Trazado 775995" d="M280.853,122.9v3.871s-.394,1.713-3.413,3.61a8.208,8.208,0,0,1-5.55,1.25,1.527,1.527,0,0,1-.069-.24,1.351,1.351,0,0,1-.034-.291h0v-1.55a8.637,8.637,0,0,0,4.882-1.2C279.659,126.827,280.853,122.9,280.853,122.9Z" transform="translate(-271.788 -118.645)" fill="#d36572" style="mix-blend-mode: multiply;isolation: isolate"/>
          <path id="Trazado_775996" data-name="Trazado 775996" d="M280.853,122.868s-1.195,3.922-4.184,5.447a8.65,8.65,0,0,1-4.882,1.2l.043,2.03a7.6,7.6,0,0,0,5.614-1.2c3.015-1.893,3.409-3.6,3.409-3.6Z" transform="translate(-271.788 -118.75)" fill="url(#linear-gradient-13)"/>
          <path id="Trazado_775997" data-name="Trazado 775997" d="M280.853,129.552v1.691a1.546,1.546,0,0,1-.034.343,7.873,7.873,0,0,1-5.618-1.208c-3.019-1.9-3.413-3.606-3.413-3.606V122.9s1.195,3.927,4.188,5.447A8.666,8.666,0,0,0,280.853,129.552Z" transform="translate(-271.788 -118.638)" fill="#d36572" style="mix-blend-mode: multiply;isolation: isolate"/>
          <path id="Trazado_775998" data-name="Trazado 775998" d="M280.853,129.517v1.691a1.546,1.546,0,0,1-.034.343,7.861,7.861,0,0,1-5.618-1.2c-3.019-1.9-3.413-3.606-3.413-3.606v-3.875a12.348,12.348,0,0,0,4.188,5.447C278.884,130.168,280.853,129.517,280.853,129.517Z" transform="translate(-271.788 -118.753)" fill="url(#linear-gradient-14)"/>
          <path id="Trazado_775999" data-name="Trazado 775999" d="M271.788,125.763c.12.081.244.163.381.24a9.216,9.216,0,0,0,8.333.017c.124-.073.24-.15.351-.227v-3.2h-9.065Z" transform="translate(-271.788 -119.662)" fill="#d36572" style="mix-blend-mode: multiply;isolation: isolate"/>
          <path id="Trazado_776000" data-name="Trazado 776000" d="M279.533,126.376a7.067,7.067,0,0,1-6.406-.009,2.856,2.856,0,0,1-.368-.24h0c-1.4-1.032-1.28-2.518.351-3.46a7.076,7.076,0,0,1,6.41.013,3.272,3.272,0,0,1,.411.274h0C281.281,123.978,281.148,125.447,279.533,126.376Z" transform="translate(-271.787 -121.906)" fill="#e4e5e5"/>
        </g>
        <path id="Trazado_776001" data-name="Trazado 776001" d="M283.259,122.272H271.47v1.015h0a2.951,2.951,0,0,0,1.739,2.4,9.216,9.216,0,0,0,8.333.017,2.9,2.9,0,0,0,1.713-2.415h0Z" transform="translate(-271.47 -118.871)" fill="url(#linear-gradient-15)"/>
        <path id="Trazado_776002" data-name="Trazado 776002" d="M281.544,127.294a9.216,9.216,0,0,1-8.333-.013,4.406,4.406,0,0,1-.48-.317h0c-1.816-1.336-1.666-3.272.458-4.5a9.19,9.19,0,0,1,8.333.017,4.3,4.3,0,0,1,.535.355h0C283.81,124.177,283.643,126.082,281.544,127.294Z" transform="translate(-271.468 -121.478)" fill="#f1b393"/>
        <path id="Trazado_776003" data-name="Trazado 776003" d="M281.233,127.113a8.9,8.9,0,0,1-8.055-.013,4.04,4.04,0,0,1-.458-.3h0c-1.76-1.293-1.614-3.16.437-4.346a8.886,8.886,0,0,1,8.055.017,4.354,4.354,0,0,1,.518.343h0C283.425,124.1,283.258,125.944,281.233,127.113Z" transform="translate(-271.384 -121.426)" fill="#ea9061"/>
        <path id="Trazado_776004" data-name="Trazado 776004" d="M276.951,124.617a4.345,4.345,0,0,1-3.939,0,2.309,2.309,0,0,1-.227-.15h0c-.861-.634-.788-1.546.214-2.128a4.359,4.359,0,0,1,3.94.009,2,2,0,0,1,.253.171h0C278.022,123.144,277.94,124.047,276.951,124.617Z" transform="translate(-269.11 -120.197)" fill="#f1b393"/>
        <path id="Trazado_776005" data-name="Trazado 776005" d="M276.629,124.438a4,4,0,0,1-3.623,0,2,2,0,0,1-.21-.137h0c-.792-.582-.728-1.422.2-1.957a4,4,0,0,1,3.627.009,1.555,1.555,0,0,1,.231.154h0C277.619,123.081,277.542,123.912,276.629,124.438Z" transform="translate(-268.917 -120.061)" fill="url(#linear-gradient-16)"/>
        <path id="Trazado_776006" data-name="Trazado 776006" d="M276.208,123.983a4,4,0,0,1-3.623,0,1.994,1.994,0,0,1-.21-.137c3.327.227,4.055-1.794,4.055-1.794h0C277.2,122.626,277.121,123.457,276.208,123.983Z" transform="translate(-268.496 -119.606)" fill="#d36572" style="mix-blend-mode: multiply;isolation: isolate"/>
      </g>
    </g>
  </g>
</svg>
