<svg xmlns="http://www.w3.org/2000/svg" width="400" height="402.765" viewBox="0 0 400 402.765">
  <g id="Grupo_1066187" data-name="Grupo 1066187" transform="translate(-180 -5657.427)">
    <rect id="Rectángulo_374131" data-name="Rectángulo 374131" width="400" height="401" transform="translate(180 5659)" fill="#baefe4" opacity="0.29"/>
    <g id="Grupo_1066186" data-name="Grupo 1066186" transform="translate(4)">
      <path id="Trazado_777130" data-name="Trazado 777130" d="M-8352-5929.815l-16,25.149-73.333-48.667" transform="translate(8925 11612)" fill="none" stroke="#707070" stroke-width="2" stroke-dasharray="5"/>
      <path id="Trazado_777131" data-name="Trazado 777131" d="M-8640-5954l-72.667,104s56.667,42,58.667,69.333-70,81.333-70,81.333h-21" transform="translate(8925 11612)" fill="none" stroke="#707070" stroke-width="2" stroke-dasharray="5"/>
      <path id="Trazado_777132" data-name="Trazado 777132" d="M-8728-5552l34-174" transform="translate(8925 11612)" fill="none" stroke="#707070" stroke-width="2" stroke-dasharray="5"/>
      <path id="Trazado_777133" data-name="Trazado 777133" d="M-8368-5904s-68.667-36.438-138.667,111.667-9.333,221,46,219.667" transform="translate(8925 11612)" fill="none" stroke="#707070" stroke-width="2" stroke-dasharray="5"/>
      <path id="Trazado_777134" data-name="Trazado 777134" d="M-8555-5555.472h95.667V-5534" transform="translate(8925 11594)" fill="none" stroke="#707070" stroke-width="2" stroke-dasharray="5"/>
      <path id="Trazado_777135" data-name="Trazado 777135" d="M-8537.5-5687.25c-17.667-4.667-70.5-25.417-71.167-82.083s136.417-79.917,136.417-79.917S-8510.5-5799.5-8537.5-5687.25Z" transform="translate(8925 11612)" fill="#f5947a" stroke="#707070" stroke-width="2"/>
      <path id="Trazado_777136" data-name="Trazado 777136" d="M-8654-5775.333l134.75,24.833" transform="translate(8925 11612)" fill="none" stroke="#707070" stroke-width="2"/>
      <text id="C" transform="translate(307 5840)" fill="#12263f" font-size="10" font-family="Roboto-Bold, Roboto" font-weight="700"><tspan x="0" y="0">C</tspan></text>
      <text id="B" transform="translate(411 5865)" fill="#12263f" font-size="10" font-family="Roboto-Bold, Roboto" font-weight="700"><tspan x="0" y="0">B</tspan></text>
      <text id="E" transform="translate(447 5757)" fill="#12263f" font-size="10" font-family="Roboto-Bold, Roboto" font-weight="700"><tspan x="0" y="0">E</tspan></text>
      <text id="D" transform="translate(375 5937)" fill="#12263f" font-size="10" font-family="Roboto-Bold, Roboto" font-weight="700"><tspan x="0" y="0">D</tspan></text>
      <text id="A" transform="translate(278 5834)" fill="#12263f" font-size="10" font-family="Roboto-Bold, Roboto" font-weight="700"><tspan x="0" y="0">A</tspan></text>
    </g>
  </g>
</svg>
