<svg xmlns="http://www.w3.org/2000/svg" xmlns:xlink="http://www.w3.org/1999/xlink" width="820" height="465" viewBox="0 0 820 465">
  <defs>
    <clipPath id="clip-path">
      <path id="Trazado_777535" data-name="Trazado 777535" d="M181.193,303.491a43.205,43.205,0,1,0,43.205-43.2,43.205,43.205,0,0,0-43.205,43.2" transform="translate(-181.193 -260.287)" fill="none"/>
    </clipPath>
    <clipPath id="clip-path-2">
      <path id="Trazado_777559" data-name="Trazado 777559" d="M416.843,303.491a43.205,43.205,0,1,0,43.205-43.2,43.205,43.205,0,0,0-43.205,43.2" transform="translate(-416.843 -260.287)" fill="none"/>
    </clipPath>
    <clipPath id="clip-path-3">
      <path id="Trazado_777584" data-name="Trazado 777584" d="M617.906,303.491a43.2,43.2,0,1,0,43.205-43.2,43.205,43.205,0,0,0-43.205,43.2" transform="translate(-617.906 -260.287)" fill="none"/>
    </clipPath>
  </defs>
  <g id="Grupo_1066312" data-name="Grupo 1066312" transform="translate(-390 -8900)">
    <g id="Figura_39_Cuello_alto" data-name="Figura 39_Cuello_alto" transform="translate(390 8900)" fill="#fff">
      <path d="M 800 464 L 20 464 C 17.43460083007812 464 14.9463996887207 463.497802734375 12.60459995269775 462.5072937011719 C 10.34230041503906 461.5504150390625 8.310199737548828 460.1802978515625 6.565000057220459 458.4349975585938 C 4.819699764251709 456.6897888183594 3.449599981307983 454.65771484375 2.492700099945068 452.3953857421875 C 1.50220000743866 450.0535888671875 1 447.5653991699219 1 445 L 1 20 C 1 17.43460083007812 1.50220000743866 14.9463996887207 2.492700099945068 12.60459995269775 C 3.449599981307983 10.34230041503906 4.819699764251709 8.310199737548828 6.565000057220459 6.565000057220459 C 8.310199737548828 4.819699764251709 10.34230041503906 3.449599981307983 12.60459995269775 2.492700099945068 C 14.9463996887207 1.50220000743866 17.43460083007812 1 20 1 L 800 1 C 802.5654296875 1 805.0535888671875 1.50220000743866 807.3953857421875 2.492700099945068 C 809.65771484375 3.449599981307983 811.6898193359375 4.819699764251709 813.4349975585938 6.565000057220459 C 815.1802978515625 8.310199737548828 816.5504150390625 10.34230041503906 817.50732421875 12.60459995269775 C 818.497802734375 14.9463996887207 819 17.43460083007812 819 20 L 819 445 C 819 447.5653991699219 818.497802734375 450.0535888671875 817.50732421875 452.3953857421875 C 816.5504150390625 454.65771484375 815.1802978515625 456.6897888183594 813.4349975585938 458.4349975585938 C 811.6898193359375 460.1802978515625 809.65771484375 461.5504150390625 807.3953857421875 462.5072937011719 C 805.0535888671875 463.497802734375 802.5654296875 464 800 464 Z" stroke="none"/>
      <path d="M 20 2 C 15.1920166015625 2 10.6717529296875 3.872344970703125 7.27197265625 7.272125244140625 C 3.872314453125 10.67178344726562 2 15.19198608398438 2 20 L 2 445 C 2 449.8080139160156 3.872314453125 454.3282165527344 7.27197265625 457.7278747558594 C 10.6717529296875 461.1276550292969 15.1920166015625 463 20 463 L 800 463 C 804.8079833984375 463 809.328125 461.1276550292969 812.7279052734375 457.7278747558594 C 816.127685546875 454.328125 818 449.8080139160156 818 445 L 818 20 C 818 15.19198608398438 816.127685546875 10.671875 812.7279052734375 7.272125244140625 C 809.328125 3.872344970703125 804.8079833984375 2 800 2 L 20 2 M 20 0 L 800 0 C 811.045654296875 0 820 8.954345703125 820 20 L 820 445 C 820 456.045654296875 811.045654296875 465 800 465 L 20 465 C 8.9542236328125 465 0 456.045654296875 0 445 L 0 20 C 0 8.954345703125 8.9542236328125 0 20 0 Z" stroke="none" fill="#025157"/>
    </g>
    <path id="Trazado_777491" data-name="Trazado 777491" d="M246.631,632.961H208.053L192.691,529.151,208.053,406.59h38.578L269.5,528.469Z" transform="translate(430.723 8674.394)" fill="#fff"/>
    <path id="Trazado_777492" data-name="Trazado 777492" d="M246.631,632.961H208.053L192.691,529.151,208.053,406.59h38.578L269.5,528.469Z" transform="translate(430.723 8674.394)" fill="none" stroke="#000" stroke-linecap="round" stroke-linejoin="round" stroke-width="2.96"/>
    <path id="Trazado_777690" data-name="Trazado 777690" d="M0,0H38.578V8.315H0Z" transform="translate(638.776 9303.136)" fill="#fff"/>
    <path id="Trazado_777691" data-name="Trazado 777691" d="M0,0H38.578V8.315H0Z" transform="translate(638.776 9303.136)" fill="none" stroke="#000" stroke-linecap="round" stroke-width="2.96"/>
    <path id="Trazado_777493" data-name="Trazado 777493" d="M221.781,601.879l-22.4,84.777-49.637-17.57s5.271-48.758,26.356-76.871" transform="translate(438.142 8642.328)" fill="#fff"/>
    <path id="Trazado_777494" data-name="Trazado 777494" d="M199.119,687.638a1.234,1.234,0,0,1-.414-.071L149.068,670a1.241,1.241,0,0,1-.819-1.3c.053-.491,5.552-49.422,26.6-77.483a1.241,1.241,0,0,1,1.986,1.49c-19.014,25.352-25.114,68.295-26,75.289l47.43,16.789L220.323,601.3a1.241,1.241,0,1,1,2.4.633l-22.4,84.778a1.241,1.241,0,0,1-1.2.924" transform="translate(438.401 8642.587)"/>
    <path id="Trazado_777695" data-name="Trazado 777695" d="M0,0V177.141" transform="translate(657.727 9124.727)" fill="#fff"/>
    <path id="Trazado_777495" data-name="Trazado 777495" d="M233.91,637.59a1.241,1.241,0,0,1-1.241-1.241V459.209a1.241,1.241,0,1,1,2.482,0V636.349a1.241,1.241,0,0,1-1.241,1.241" transform="translate(423.817 8665.518)"/>
    <path id="Trazado_777496" data-name="Trazado 777496" d="M177.353,560.763c-.017-1.013-.057-2.736-.163-4.992-.482-10.352-6.078-37.52-14.636-50.769l-4.081-40.372-.962-35.874a108.454,108.454,0,0,0,18.24,1.737h0c9.613,0,16.318-1.831,19.929-5.443,2.638-2.636,4.835-7.821,6.167-11.534,1.08,6.17,2.219,19.433-1.476,41.321-5.034,29.832,7.6,74.5,14.134,90.291a133.657,133.657,0,0,1,7.07,24.313Z" transform="translate(436.8 8673.196)" fill="#fff"/>
    <path id="Trazado_777497" data-name="Trazado 777497" d="M200.983,417.427c.7,7.156.815,18.981-2.1,36.245s.071,38.179,3.088,52.682a238.251,238.251,0,0,0,11.122,38.29,130.065,130.065,0,0,1,6.637,22.265l-41.426-8.13c-.025-1.017-.067-2.382-.144-4.025-.485-10.4-6.087-37.606-14.671-51.13l-4.047-40.032-.92-34.314a108.278,108.278,0,0,0,16.961,1.5c9.955,0,16.955-1.953,20.808-5.806a26.243,26.243,0,0,0,4.69-7.542m.788-9.465s-3.12,11.141-7.232,15.251c-3.95,3.951-11.6,5.079-19.053,5.079a108.6,108.6,0,0,1-19.524-2.007l1,37.462,4.116,40.718c8.236,12.519,14.086,39.365,14.6,50.4.172,3.679.172,5.957.172,5.957l47,9.225a134.849,134.849,0,0,0-7.468-26.356c-5.27-12.739-19.337-58.316-14.056-89.609,5.5-32.578.439-46.123.439-46.123" transform="translate(437.068 8674.156)"/>
    <path id="Trazado_777498" data-name="Trazado 777498" d="M108.487,653.864c9.316-24.759,21.241-186.4,20.432-201.362a24.463,24.463,0,0,1,6.509-17.84c2.989-3.154,6.558-4.964,9.795-4.964a8.526,8.526,0,0,1,5.807,2.293c7.67,6.848,6.281,37.693,4.669,73.408l-.267,5.975c-1.642,36.942-24.4,132.208-26.967,142.873Z" transform="translate(445.269 8670.401)" fill="#fff"/>
    <path id="Trazado_777499" data-name="Trazado 777499" d="M144.828,430.68a7.318,7.318,0,0,1,4.981,1.977c7.231,6.457,5.786,38.5,4.256,72.432l-.268,5.971c-1.595,35.9-23.231,127.217-26.7,141.669L109.81,652.4c5.117-16.278,10.374-67.752,13.194-98.766,4.019-44.2,7.24-92.557,6.759-101.455a23.2,23.2,0,0,1,6.171-16.919c2.756-2.909,6-4.576,8.894-4.576m0-2.482c-8.736,0-18.236,11.287-17.543,24.111.88,16.282-11.86,185.808-21.084,202.5l22.841.439S154.52,550.7,156.277,511.17s3.73-72.735-4.815-80.364a9.77,9.77,0,0,0-6.634-2.608" transform="translate(445.664 8670.66)"/>
    <path id="Trazado_777500" data-name="Trazado 777500" d="M182.115,569.571h-.034a1.24,1.24,0,0,1-1.207-1.274c1.307-48.39,22.387-109.353,22.6-109.964a1.242,1.242,0,0,1,1.865-.62c.191.128,19.323,12.689,39.744-.024a1.241,1.241,0,1,1,1.312,2.107c-18.56,11.557-36.116,3.528-41.065.792-3.177,9.485-20.79,63.9-21.976,107.776a1.24,1.24,0,0,1-1.239,1.208" transform="translate(432.765 8665.599)"/>
    <path id="Trazado_777501" data-name="Trazado 777501" d="M192.433,629.1a1.223,1.223,0,0,1-.43-.078l-27.653-10.241a1.24,1.24,0,1,1,.861-2.326l26.517,9.82,11.5-28.918a1.241,1.241,0,0,1,2.306.917l-11.949,30.043a1.241,1.241,0,0,1-1.153.782" transform="translate(435.759 8641.574)"/>
    <path id="Trazado_777502" data-name="Trazado 777502" d="M232.07,601.879l22.4,84.777,49.637-17.57s-5.271-48.758-26.356-76.871" transform="translate(423.921 8642.328)" fill="#fff"/>
    <path id="Trazado_777503" data-name="Trazado 777503" d="M254.214,687.638a1.241,1.241,0,0,1-1.2-.924l-22.4-84.778a1.241,1.241,0,1,1,2.4-.633l22.059,83.475,47.43-16.789c-.885-6.991-6.99-49.945-26-75.289a1.241,1.241,0,0,1,1.986-1.49c21.045,28.061,26.543,76.992,26.6,77.483a1.241,1.241,0,0,1-.819,1.3l-49.636,17.57a1.234,1.234,0,0,1-.414.071" transform="translate(424.18 8642.587)"/>
    <path id="Trazado_777504" data-name="Trazado 777504" d="M233.937,569.442a133.68,133.68,0,0,1,7.07-24.314c6.535-15.792,19.168-60.455,14.134-90.29-3.695-21.888-2.556-35.149-1.476-41.321,1.332,3.713,3.53,8.9,6.167,11.534,3.611,3.612,10.317,5.443,19.931,5.443A108.458,108.458,0,0,0,298,428.756l-.962,35.874L292.962,505c-8.558,13.249-14.154,40.416-14.636,50.769-.105,2.257-.146,3.979-.162,4.992Z" transform="translate(423.598 8673.196)" fill="#fff"/>
    <path id="Trazado_777505" data-name="Trazado 777505" d="M253.943,417.427a26.253,26.253,0,0,0,4.689,7.541c3.853,3.853,10.854,5.806,20.809,5.806a108.288,108.288,0,0,0,16.961-1.5l-.92,34.314-4.047,40.032c-8.584,13.525-14.186,40.73-14.671,51.13-.077,1.644-.12,3.009-.144,4.025l-41.426,8.13a130.049,130.049,0,0,1,6.636-22.265,238.227,238.227,0,0,0,11.122-38.29c3.017-14.5,6-35.417,3.088-52.682s-2.8-29.089-2.1-36.244m-.788-9.465s-5.059,13.545.439,46.123c5.281,31.293-8.785,76.87-14.057,89.609a134.848,134.848,0,0,0-7.468,26.356l47-9.225s0-2.278.172-5.957c.515-11.036,6.364-37.883,14.6-50.4l4.116-40.718,1-37.462a108.6,108.6,0,0,1-19.524,2.007c-7.454,0-15.1-1.128-19.053-5.079-4.111-4.111-7.232-15.251-7.232-15.251" transform="translate(423.921 8674.156)"/>
    <path id="Trazado_777506" data-name="Trazado 777506" d="M330.307,654.248c-2.568-10.654-25.324-105.93-26.967-142.873l-.267-5.975c-1.611-35.715-3-66.56,4.67-73.408a8.523,8.523,0,0,1,5.807-2.292c3.236,0,6.807,1.808,9.795,4.964a24.456,24.456,0,0,1,6.509,17.839c-.808,14.964,11.12,176.606,20.432,201.362Z" transform="translate(411.874 8670.401)" fill="#fff"/>
    <path id="Trazado_777507" data-name="Trazado 777507" d="M313.291,428.2v2.482c2.9,0,6.137,1.668,8.892,4.576a23.2,23.2,0,0,1,6.17,16.92c-.481,8.9,2.741,57.254,6.76,101.455,2.82,31.015,8.077,82.488,13.194,98.766l-17.287.333c-3.469-14.451-25.1-105.768-26.7-141.669l-.268-5.971c-1.53-33.928-2.975-65.975,4.256-72.432a7.322,7.322,0,0,1,4.981-1.977Zm0,0a9.77,9.77,0,0,0-6.634,2.608c-8.545,7.629-6.572,40.83-4.815,80.364s27.234,144.078,27.234,144.078l22.841-.439c-9.225-16.693-21.965-186.218-21.084-202.5.693-12.824-8.807-24.113-17.543-24.111" transform="translate(412.133 8670.66)"/>
    <path id="Trazado_777508" data-name="Trazado 777508" d="M281.816,568.589C280.5,519.831,259.284,459,259.284,459" transform="translate(419.22 8665.34)" fill="#fff"/>
    <path id="Trazado_777509" data-name="Trazado 777509" d="M281.556,569.571a1.24,1.24,0,0,1-1.239-1.208c-1.3-48-22.252-108.606-22.463-109.214a1.241,1.241,0,0,1,2.343-.817c.213.61,21.294,61.574,22.6,109.964a1.24,1.24,0,0,1-1.207,1.274h-.034" transform="translate(419.479 8665.599)"/>
    <path id="Trazado_777510" data-name="Trazado 777510" d="M267.673,629.1a1.241,1.241,0,0,1-1.153-.782L254.57,598.275a1.241,1.241,0,0,1,2.306-.917l11.5,28.918,26.517-9.82a1.24,1.24,0,0,1,.861,2.326L268.1,629.023a1.23,1.23,0,0,1-.431.078" transform="translate(420.049 8641.574)"/>
    <path id="Trazado_777511" data-name="Trazado 777511" d="M237.292,603.3a4.609,4.609,0,1,1-4.609-4.609,4.608,4.608,0,0,1,4.609,4.609" transform="translate(424.611 8641.209)" fill="#fff"/>
    <path id="Trazado_777512" data-name="Trazado 777512" d="M237.292,603.3a4.609,4.609,0,1,1-4.609-4.609A4.608,4.608,0,0,1,237.292,603.3Z" transform="translate(424.611 8641.209)" fill="none" stroke="#000" stroke-linecap="round" stroke-linejoin="round" stroke-width="3"/>
    <path id="Trazado_777437" data-name="Trazado 777437" d="M195.251,377.276c0,2.561-1.553,4.114-3.835,4.114-2.318,0-3.674-1.75-3.674-3.975a3.78,3.78,0,0,1,3.8-4.09,3.64,3.64,0,0,1,3.708,3.951m-5.644.1c0,1.53.719,2.607,1.9,2.607s1.876-1.135,1.876-2.654c0-1.4-.671-2.607-1.889-2.607-1.193,0-1.889,1.136-1.889,2.654" transform="translate(333.495 8653.431)"/>
    <path id="Trazado_777438" data-name="Trazado 777438" d="M196.729,382.265a1.557,1.557,0,0,0,1.043-.371c.255-.266.347-.718.347-1.842v-4.5h1.773v4.914a3.174,3.174,0,0,1-.8,2.479,3.224,3.224,0,0,1-2.191.7Zm3.21-8.286a.877.877,0,0,1-.95.88.888.888,0,1,1,.95-.88" transform="translate(331.943 8653.472)"/>
    <path id="Trazado_777439" data-name="Trazado 777439" d="M205.362,381.709l-.105-.568h-.035a2.039,2.039,0,0,1-1.622.7,1.737,1.737,0,0,1-1.831-1.739c0-1.471,1.321-2.178,3.326-2.167v-.081c0-.3-.163-.73-1.032-.73a3.186,3.186,0,0,0-1.564.429l-.325-1.136a4.671,4.671,0,0,1,2.2-.5,2.2,2.2,0,0,1,2.491,2.446v1.969a8.764,8.764,0,0,0,.082,1.379Zm-.209-2.676c-.927-.012-1.645.208-1.645.892a.633.633,0,0,0,.695.673.962.962,0,0,0,.915-.649,1.263,1.263,0,0,0,.035-.3Z" transform="translate(331.072 8652.983)"/>
    <path id="Trazado_777696" data-name="Trazado 777696" d="M0,0H1.761V8.227H0Z" transform="translate(539.328 9026.465)"/>
    <path id="Trazado_777440" data-name="Trazado 777440" d="M218.151,374.109v1.622h1.263v1.3h-1.263v2.052c0,.684.162,1,.7,1a2.808,2.808,0,0,0,.522-.047l.011,1.334a3.457,3.457,0,0,1-1.147.15,1.828,1.828,0,0,1-1.321-.486,2.344,2.344,0,0,1-.487-1.68v-2.318h-.753v-1.3h.753V374.5Z" transform="translate(328.671 8653.295)"/>
    <path id="Trazado_777441" data-name="Trazado 777441" d="M223.235,373.979a.884.884,0,0,1-.951.88.887.887,0,1,1,.012-1.772.884.884,0,0,1,.939.892m-1.819,1.576h1.761v5.667h-1.761Z" transform="translate(327.687 8653.472)"/>
    <path id="Trazado_777442" data-name="Trazado 777442" d="M225.251,377.944c0-.742-.023-1.379-.046-1.9h1.53l.081.788h.023a2.173,2.173,0,0,1,1.889-.915c1.24,0,2.353,1.077,2.353,2.885,0,2.062-1.31,3.036-2.572,3.036a1.76,1.76,0,0,1-1.473-.649h-.023V384h-1.761Zm1.761,1.333a1.81,1.81,0,0,0,.035.371,1.068,1.068,0,0,0,1.032.835c.765,0,1.217-.637,1.217-1.6,0-.9-.405-1.588-1.194-1.588a1.108,1.108,0,0,0-1.055.893,1.416,1.416,0,0,0-.035.314Z" transform="translate(327.024 8652.982)"/>
    <path id="Trazado_777443" data-name="Trazado 777443" d="M239.2,378.813a2.843,2.843,0,0,1-2.99,3.024,2.776,2.776,0,0,1-2.932-2.92,2.829,2.829,0,0,1,3.024-3,2.755,2.755,0,0,1,2.9,2.9m-4.1.058c0,.974.405,1.7,1.159,1.7.684,0,1.124-.684,1.124-1.7,0-.845-.325-1.7-1.124-1.7-.845,0-1.159.87-1.159,1.7" transform="translate(325.628 8652.982)"/>
    <path id="Trazado_777444" data-name="Trazado 777444" d="M244.571,377.909c0-.834-.023-1.379-.046-1.865h1.518l.058,1.043h.046a1.664,1.664,0,0,1,1.53-1.171,1.817,1.817,0,0,1,.371.023V377.6a2.526,2.526,0,0,0-.475-.046,1.133,1.133,0,0,0-1.205.893,2.146,2.146,0,0,0-.035.394v2.874h-1.761Z" transform="translate(323.687 8652.982)"/>
    <path id="Trazado_777445" data-name="Trazado 777445" d="M251.71,373.979a.884.884,0,0,1-.95.88.887.887,0,1,1,.012-1.772.882.882,0,0,1,.938.892m-1.819,1.576h1.761v5.667h-1.761Z" transform="translate(322.768 8653.472)"/>
    <path id="Trazado_777446" data-name="Trazado 777446" d="M253.681,381.2c.023-.371.046-1.054.046-1.692v-6.535h1.761v3.233h.023a2,2,0,0,1,1.716-.8c1.355,0,2.352,1.124,2.34,2.862,0,2.04-1.3,3.059-2.6,3.059a1.882,1.882,0,0,1-1.7-.915h-.023l-.07.788Zm1.808-2.41a1.333,1.333,0,0,0,.035.313,1.068,1.068,0,0,0,1.032.835c.753,0,1.217-.58,1.217-1.6,0-.88-.395-1.576-1.217-1.576a1.092,1.092,0,0,0-1.032.869,1.515,1.515,0,0,0-.035.324Z" transform="translate(322.105 8653.491)"/>
    <path id="Trazado_777447" data-name="Trazado 777447" d="M263.438,379.439c.058.73.777,1.078,1.6,1.078a4.987,4.987,0,0,0,1.564-.232l.232,1.194a5.6,5.6,0,0,1-2.052.347,2.719,2.719,0,0,1-3.024-2.885,2.839,2.839,0,0,1,2.862-3.024c1.832,0,2.526,1.425,2.526,2.828a4.08,4.08,0,0,1-.059.7Zm2.075-1.205a1.023,1.023,0,0,0-1-1.147,1.155,1.155,0,0,0-1.089,1.147Z" transform="translate(320.71 8652.982)"/>
    <path id="Trazado_777448" data-name="Trazado 777448" d="M271.406,374.109v1.622h1.263v1.3h-1.263v2.052c0,.684.162,1,.7,1a2.791,2.791,0,0,0,.521-.047l.012,1.334a3.457,3.457,0,0,1-1.147.15,1.828,1.828,0,0,1-1.321-.486,2.344,2.344,0,0,1-.487-1.68v-2.318h-.753v-1.3h.753V374.5Z" transform="translate(319.471 8653.295)"/>
    <path id="Trazado_777449" data-name="Trazado 777449" d="M275.9,379.439c.058.73.777,1.078,1.6,1.078a4.991,4.991,0,0,0,1.564-.232l.232,1.194a5.6,5.6,0,0,1-2.052.347,2.719,2.719,0,0,1-3.024-2.885,2.838,2.838,0,0,1,2.862-3.024c1.832,0,2.526,1.425,2.526,2.828a4.084,4.084,0,0,1-.059.7Zm2.075-1.205a1.023,1.023,0,0,0-1-1.147,1.155,1.155,0,0,0-1.089,1.147Z" transform="translate(318.557 8652.982)"/>
    <path id="Trazado_777450" data-name="Trazado 777450" d="M281.625,381.56a1.02,1.02,0,0,1,1.043-1.078,1.073,1.073,0,1,1-1.043,1.078" transform="translate(317.278 8652.194)"/>
    <g id="Grupo_1066227" data-name="Grupo 1066227" transform="translate(515.82 8933.243)" clip-path="url(#clip-path)">
      <path id="Trazado_777513" data-name="Trazado 777513" d="M245.919,341.066H207.341L191.979,237.257,207.341,114.7h38.578l22.874,121.879Z" transform="translate(-183.056 -235.137)" fill="#fff"/>
      <path id="Trazado_777514" data-name="Trazado 777514" d="M245.919,341.066H207.341L191.979,237.257,207.341,114.7h38.578l22.874,121.879Z" transform="translate(-183.056 -235.137)" fill="none" stroke="#000" stroke-linecap="round" stroke-linejoin="round" stroke-width="2.96"/>
      <rect id="Rectángulo_374178" data-name="Rectángulo 374178" width="38.578" height="8.315" transform="translate(24.285 101.711)" fill="#fff"/>
      <rect id="Rectángulo_374179" data-name="Rectángulo 374179" width="38.578" height="8.315" transform="translate(24.285 101.711)" fill="none" stroke="#000" stroke-linecap="round" stroke-linejoin="round" stroke-width="2.96"/>
      <path id="Trazado_777515" data-name="Trazado 777515" d="M221.069,309.984l-22.4,84.777-49.637-17.57s5.271-48.759,26.356-76.871" transform="translate(-175.637 -267.202)" fill="#fff"/>
      <path id="Trazado_777516" data-name="Trazado 777516" d="M198.408,395.743a1.233,1.233,0,0,1-.414-.071L148.356,378.1a1.241,1.241,0,0,1-.819-1.3c.053-.491,5.552-49.422,26.6-77.483a1.241,1.241,0,0,1,1.986,1.49c-19.014,25.352-25.114,68.3-26,75.289l47.431,16.789,22.058-83.475a1.241,1.241,0,1,1,2.4.633l-22.4,84.778a1.241,1.241,0,0,1-1.2.924" transform="translate(-175.378 -266.943)"/>
      <line id="Línea_391" data-name="Línea 391" y2="177.141" transform="translate(43.236 -76.698)" fill="#fff"/>
      <path id="Trazado_777517" data-name="Trazado 777517" d="M233.2,345.7a1.241,1.241,0,0,1-1.241-1.241V167.315a1.241,1.241,0,0,1,2.482,0V344.455A1.241,1.241,0,0,1,233.2,345.7" transform="translate(-189.962 -244.012)"/>
      <path id="Trazado_777518" data-name="Trazado 777518" d="M176.64,268.868c-.017-1.013-.057-2.736-.162-4.992-.483-10.355-6.08-37.524-14.636-50.769l-4.081-40.373-.962-35.873a108.451,108.451,0,0,0,18.24,1.737h0c9.613,0,16.318-1.831,19.929-5.443,2.638-2.636,4.835-7.821,6.167-11.534,1.08,6.17,2.218,19.432-1.477,41.321-5.035,29.835,7.6,74.5,14.135,90.291a133.534,133.534,0,0,1,7.069,24.313Z" transform="translate(-176.979 -236.334)" fill="#fff"/>
      <path id="Trazado_777519" data-name="Trazado 777519" d="M200.271,125.533c.7,7.155.815,18.98-2.1,36.244s.071,38.179,3.088,52.682a238.225,238.225,0,0,0,11.122,38.29,130.048,130.048,0,0,1,6.636,22.265l-41.426-8.13c-.024-1.017-.067-2.382-.144-4.025-.485-10.4-6.087-37.605-14.671-51.13L158.732,171.7l-.92-34.314a108.272,108.272,0,0,0,16.961,1.5c9.955,0,16.955-1.953,20.809-5.806a26.254,26.254,0,0,0,4.689-7.541m.788-9.465s-3.12,11.141-7.232,15.251c-3.95,3.951-11.6,5.079-19.053,5.079a108.638,108.638,0,0,1-19.524-2.006l1,37.462,4.116,40.718c8.236,12.519,14.086,39.365,14.6,50.4.172,3.679.172,5.957.172,5.957l47,9.225a134.849,134.849,0,0,0-7.468-26.356c-5.271-12.739-19.338-58.316-14.057-89.609,5.5-32.578.439-46.123.439-46.123" transform="translate(-176.711 -235.374)"/>
      <path id="Trazado_777520" data-name="Trazado 777520" d="M107.775,361.969c9.314-24.755,21.242-186.4,20.433-201.362a24.461,24.461,0,0,1,6.508-17.84c2.989-3.154,6.559-4.964,9.795-4.964a8.527,8.527,0,0,1,5.808,2.293c7.67,6.85,6.28,37.7,4.669,73.417l-.268,5.966c-1.641,36.944-24.4,132.22-26.967,142.874Z" transform="translate(-168.511 -239.129)" fill="#fff"/>
      <path id="Trazado_777521" data-name="Trazado 777521" d="M144.116,138.786a7.318,7.318,0,0,1,4.981,1.977c7.231,6.457,5.787,38.5,4.257,72.432l-.268,5.971c-1.6,35.9-23.232,127.217-26.7,141.669L109.1,360.5c5.116-16.279,10.373-67.751,13.193-98.766,4.019-44.2,7.241-92.557,6.759-101.455a23.2,23.2,0,0,1,6.171-16.919c2.756-2.909,6-4.576,8.894-4.576m0-2.482c-8.736,0-18.235,11.287-17.543,24.111.88,16.282-11.86,185.808-21.084,202.5l22.841.439s25.478-104.545,27.235-144.078,3.729-72.735-4.815-80.364a9.77,9.77,0,0,0-6.634-2.608" transform="translate(-168.116 -238.87)"/>
      <path id="Trazado_777522" data-name="Trazado 777522" d="M181.4,277.677h-.034a1.24,1.24,0,0,1-1.207-1.274c1.307-48.39,22.387-109.354,22.6-109.964a1.241,1.241,0,0,1,1.865-.62c.191.128,19.324,12.689,39.744-.024a1.241,1.241,0,1,1,1.312,2.107c-18.56,11.556-36.116,3.527-41.065.793-3.178,9.485-20.79,63.9-21.976,107.776a1.24,1.24,0,0,1-1.239,1.208" transform="translate(-181.015 -243.932)"/>
      <path id="Trazado_777523" data-name="Trazado 777523" d="M191.722,337.207a1.227,1.227,0,0,1-.431-.078l-27.653-10.242a1.24,1.24,0,1,1,.861-2.326l26.517,9.821,11.5-28.918a1.241,1.241,0,1,1,2.306.917l-11.949,30.043a1.241,1.241,0,0,1-1.153.782" transform="translate(-178.021 -267.956)"/>
      <path id="Trazado_777524" data-name="Trazado 777524" d="M231.359,309.984l22.4,84.777,49.636-17.57s-5.27-48.759-26.355-76.871" transform="translate(-189.859 -267.202)" fill="#fff"/>
      <path id="Trazado_777525" data-name="Trazado 777525" d="M253.5,395.743a1.241,1.241,0,0,1-1.2-.924l-22.4-84.778a1.241,1.241,0,1,1,2.4-.633l22.059,83.475,47.43-16.789c-.885-6.991-6.99-49.945-26-75.289a1.241,1.241,0,0,1,1.986-1.49c21.045,28.061,26.543,76.992,26.6,77.483a1.241,1.241,0,0,1-.819,1.3l-49.636,17.57a1.233,1.233,0,0,1-.414.071" transform="translate(-189.599 -266.943)"/>
      <path id="Trazado_777526" data-name="Trazado 777526" d="M233.226,277.544a133.557,133.557,0,0,1,7.069-24.314c6.535-15.793,19.169-60.457,14.135-90.29-3.709-21.971-2.567-35.2-1.482-41.339,1.331,3.714,3.532,8.91,6.173,11.552,3.611,3.612,10.317,5.442,19.932,5.442a108.479,108.479,0,0,0,18.241-1.736l-.962,35.873L292.25,213.1c-8.556,13.244-14.153,40.414-14.636,50.767-.105,2.258-.146,3.981-.162,4.994Z" transform="translate(-190.181 -236.33)" fill="#fff"/>
      <path id="Trazado_777527" data-name="Trazado 777527" d="M253.231,125.533a26.231,26.231,0,0,0,4.69,7.542c3.852,3.853,10.854,5.806,20.808,5.806a108.261,108.261,0,0,0,16.961-1.5l-.92,34.314-4.047,40.032c-8.584,13.524-14.186,40.73-14.671,51.13-.077,1.644-.119,3.009-.144,4.025l-41.426,8.13a130.068,130.068,0,0,1,6.637-22.265,238.25,238.25,0,0,0,11.122-38.29c3.017-14.5,6-35.417,3.088-52.682s-2.8-29.089-2.1-36.245m-.788-9.465s-5.059,13.545.439,46.123c5.281,31.293-8.785,76.87-14.056,89.609a134.849,134.849,0,0,0-7.468,26.356l47-9.225s0-2.278.172-5.957c.515-11.036,6.364-37.883,14.6-50.4l4.116-40.718,1-37.462a108.625,108.625,0,0,1-19.524,2.006c-7.453,0-15.1-1.128-19.053-5.079-4.111-4.111-7.232-15.251-7.232-15.251" transform="translate(-189.859 -235.374)"/>
      <path id="Trazado_777528" data-name="Trazado 777528" d="M329.594,362.354c-2.568-10.654-25.324-105.93-26.967-142.874l-.267-5.966c-1.61-35.72-3-66.568,4.67-73.417a8.524,8.524,0,0,1,5.807-2.292c3.235,0,6.807,1.809,9.795,4.964a24.454,24.454,0,0,1,6.508,17.839c-.808,14.964,11.12,176.606,20.432,201.362Z" transform="translate(-201.906 -239.129)" fill="#fff"/>
      <path id="Trazado_777529" data-name="Trazado 777529" d="M312.579,136.3v2.482c2.9,0,6.137,1.668,8.892,4.576a23.2,23.2,0,0,1,6.17,16.92c-.481,8.9,2.741,57.254,6.76,101.455,2.82,31.015,8.077,82.487,13.193,98.766l-17.286.333c-3.469-14.451-25.1-105.771-26.7-141.669l-.268-5.971c-1.53-33.928-2.974-65.975,4.257-72.432a7.322,7.322,0,0,1,4.981-1.977Zm0,0a9.77,9.77,0,0,0-6.634,2.608c-8.545,7.629-6.573,40.83-4.815,80.364s27.235,144.078,27.235,144.078l22.841-.439c-9.225-16.692-21.965-186.218-21.084-202.5.692-12.824-8.807-24.113-17.543-24.111" transform="translate(-201.646 -238.87)"/>
      <path id="Trazado_777530" data-name="Trazado 777530" d="M281.1,276.7c-1.318-48.758-22.532-109.588-22.532-109.588" transform="translate(-194.56 -244.191)" fill="#fff"/>
      <path id="Trazado_777531" data-name="Trazado 777531" d="M280.844,277.677a1.24,1.24,0,0,1-1.239-1.208c-1.3-48-22.252-108.606-22.463-109.214a1.241,1.241,0,1,1,2.343-.817c.213.61,21.294,61.574,22.6,109.964a1.24,1.24,0,0,1-1.207,1.274h-.034" transform="translate(-194.3 -243.931)"/>
      <path id="Trazado_777532" data-name="Trazado 777532" d="M266.961,337.207a1.241,1.241,0,0,1-1.153-.782l-11.949-30.043a1.241,1.241,0,0,1,2.306-.917l11.5,28.918,26.517-9.821a1.24,1.24,0,1,1,.861,2.326L267.392,337.13a1.23,1.23,0,0,1-.431.078" transform="translate(-193.73 -267.956)"/>
      <path id="Trazado_777533" data-name="Trazado 777533" d="M236.58,311.4a4.609,4.609,0,1,1-4.609-4.609,4.608,4.608,0,0,1,4.609,4.609" transform="translate(-189.168 -268.321)" fill="#fff"/>
      <path id="Trazado_777534" data-name="Trazado 777534" d="M236.58,311.4a4.609,4.609,0,1,1-4.609-4.609A4.608,4.608,0,0,1,236.58,311.4Z" transform="translate(-189.168 -268.321)" fill="none" stroke="#000" stroke-linecap="round" stroke-linejoin="round" stroke-width="3"/>
    </g>
    <path id="Trazado_777536" data-name="Trazado 777536" d="M267.6,303.491A43.2,43.2,0,1,1,224.4,260.286,43.205,43.205,0,0,1,267.6,303.491Z" transform="translate(334.626 8672.957)" fill="none" stroke="#025157" stroke-miterlimit="10" stroke-width="3.871"/>
    <path id="Trazado_777451" data-name="Trazado 777451" d="M409.3,391.807a5.038,5.038,0,0,1-2.005.336,3.713,3.713,0,0,1-4.09-3.9,3.982,3.982,0,0,1,4.265-4.149,4.607,4.607,0,0,1,1.923.347l-.359,1.4a3.818,3.818,0,0,0-1.483-.289,2.568,2.568,0,0,0,.011,5.133,4.417,4.417,0,0,0,1.473-.255Z" transform="translate(338.309 8651.57)"/>
    <path id="Trazado_777452" data-name="Trazado 777452" d="M416.959,390.682c0,.741.023,1.344.047,1.819h-1.53l-.081-.8h-.035a2.019,2.019,0,0,1-1.773.928c-1.147,0-1.993-.72-1.993-2.469v-3.326h1.773v3.047c0,.823.266,1.321.881,1.321a.946.946,0,0,0,.88-.614.968.968,0,0,0,.058-.382v-3.372h1.773Z" transform="translate(336.86 8651.097)"/>
    <path id="Trazado_777453" data-name="Trazado 777453" d="M421.071,390.2c.058.73.777,1.078,1.6,1.078a4.988,4.988,0,0,0,1.564-.232l.232,1.194a5.6,5.6,0,0,1-2.052.347,2.719,2.719,0,0,1-3.024-2.885,2.839,2.839,0,0,1,2.862-3.024c1.832,0,2.526,1.425,2.526,2.828a4.086,4.086,0,0,1-.059.7ZM423.146,389a1.023,1.023,0,0,0-1-1.147A1.155,1.155,0,0,0,421.06,389Z" transform="translate(335.513 8651.123)"/>
    <path id="Trazado_777692" data-name="Trazado 777692" d="M0,0H1.761V8.227H0Z" transform="translate(761.344 9035.37)"/>
    <path id="Trazado_777693" data-name="Trazado 777693" d="M0,0H1.761V8.227H0Z" transform="translate(764.529 9035.37)"/>
    <path id="Trazado_777454" data-name="Trazado 777454" d="M440.4,389.578a2.843,2.843,0,0,1-2.99,3.024,2.776,2.776,0,0,1-2.932-2.92,2.829,2.829,0,0,1,3.024-3,2.755,2.755,0,0,1,2.9,2.9m-4.1.058c0,.974.405,1.7,1.159,1.7.684,0,1.124-.684,1.124-1.7,0-.845-.325-1.7-1.124-1.7-.845,0-1.159.869-1.159,1.7" transform="translate(332.906 8651.123)"/>
    <path id="Trazado_777455" data-name="Trazado 777455" d="M448.927,392.474l-.105-.568h-.035a2.039,2.039,0,0,1-1.622.7,1.737,1.737,0,0,1-1.831-1.739c0-1.471,1.321-2.178,3.326-2.167v-.081c0-.3-.163-.73-1.032-.73a3.186,3.186,0,0,0-1.564.429l-.325-1.136a4.671,4.671,0,0,1,2.2-.5,2.2,2.2,0,0,1,2.491,2.446V391.1a8.762,8.762,0,0,0,.082,1.379Zm-.209-2.676c-.927-.012-1.645.208-1.645.892a.633.633,0,0,0,.695.673.962.962,0,0,0,.915-.649,1.264,1.264,0,0,0,.035-.3Z" transform="translate(331.032 8651.123)"/>
    <path id="Trazado_777694" data-name="Trazado 777694" d="M0,0H1.761V8.227H0Z" transform="translate(782.851 9035.37)"/>
    <path id="Trazado_777456" data-name="Trazado 777456" d="M458.886,384.874V386.5h1.263v1.3h-1.263v2.052c0,.684.162,1,.7,1a2.808,2.808,0,0,0,.522-.047l.011,1.334a3.458,3.458,0,0,1-1.147.15,1.828,1.828,0,0,1-1.321-.486,2.343,2.343,0,0,1-.487-1.68v-2.318h-.753v-1.3h.753v-1.228Z" transform="translate(329.119 8651.436)"/>
    <path id="Trazado_777457" data-name="Trazado 777457" d="M467.62,389.578a2.843,2.843,0,0,1-2.99,3.024,2.776,2.776,0,0,1-2.932-2.92,2.829,2.829,0,0,1,3.024-3,2.755,2.755,0,0,1,2.9,2.9m-4.1.058c0,.974.405,1.7,1.159,1.7.684,0,1.124-.684,1.124-1.7,0-.845-.325-1.7-1.124-1.7-.845,0-1.159.869-1.159,1.7" transform="translate(328.205 8651.123)"/>
    <path id="Trazado_777458" data-name="Trazado 777458" d="M477.182,392.335a4.3,4.3,0,0,1-1.576.255,2.749,2.749,0,0,1-3-2.9,2.956,2.956,0,0,1,3.245-3.013,4.091,4.091,0,0,1,1.344.221l-.278,1.309a2.411,2.411,0,0,0-.985-.174,1.589,1.589,0,0,0,.035,3.176,2.719,2.719,0,0,0,1.008-.175Z" transform="translate(326.321 8651.123)"/>
    <path id="Trazado_777459" data-name="Trazado 777459" d="M484.686,389.578a2.843,2.843,0,0,1-2.99,3.024,2.776,2.776,0,0,1-2.932-2.92,2.829,2.829,0,0,1,3.024-3,2.755,2.755,0,0,1,2.9,2.9m-4.1.058c0,.974.405,1.7,1.159,1.7.684,0,1.124-.684,1.124-1.7,0-.845-.325-1.7-1.124-1.7-.845,0-1.159.869-1.159,1.7" transform="translate(325.257 8651.123)"/>
    <path id="Trazado_777460" data-name="Trazado 777460" d="M487.225,388.616c0-.706-.023-1.31-.046-1.808h1.53l.081.777h.035a2.072,2.072,0,0,1,1.75-.9c1.159,0,2.028.765,2.028,2.434v3.36H490.84v-3.14c0-.73-.255-1.228-.892-1.228a.94.94,0,0,0-.893.661,1.209,1.209,0,0,0-.069.44v3.268h-1.761Z" transform="translate(323.803 8651.123)"/>
    <path id="Trazado_777461" data-name="Trazado 777461" d="M498.257,388.709c0-.742-.023-1.379-.046-1.9h1.53l.081.788h.023a2.173,2.173,0,0,1,1.889-.915c1.24,0,2.353,1.077,2.353,2.886,0,2.062-1.31,3.036-2.572,3.036a1.76,1.76,0,0,1-1.473-.649h-.023v2.815h-1.761Zm1.761,1.333a1.809,1.809,0,0,0,.035.371,1.068,1.068,0,0,0,1.032.835c.765,0,1.217-.637,1.217-1.6,0-.9-.405-1.587-1.194-1.587a1.108,1.108,0,0,0-1.055.893,1.417,1.417,0,0,0-.035.314Z" transform="translate(321.897 8651.123)"/>
    <path id="Trazado_777462" data-name="Trazado 777462" d="M508.449,384.743a.885.885,0,0,1-.95.881.887.887,0,1,1,.012-1.773.883.883,0,0,1,.939.892m-1.82,1.577h1.761v5.667h-1.761Z" transform="translate(320.451 8651.612)"/>
    <path id="Trazado_777463" data-name="Trazado 777463" d="M510.465,388.616c0-.706-.023-1.31-.046-1.808h1.53l.081.777h.035a2.072,2.072,0,0,1,1.75-.9c1.159,0,2.028.765,2.028,2.434v3.36H514.08v-3.14c0-.73-.254-1.228-.892-1.228a.94.94,0,0,0-.893.661,1.211,1.211,0,0,0-.069.44v3.268h-1.761Z" transform="translate(319.789 8651.123)"/>
    <path id="Trazado_777464" data-name="Trazado 777464" d="M518.133,391.493l1.784-2.236c.325-.383.58-.661.905-1.008v-.023h-2.493v-1.391h4.636v1.055l-1.7,2.143a13.762,13.762,0,0,1-.926,1.043v.022h2.723v1.4h-4.925Z" transform="translate(318.456 8651.097)"/>
    <path id="Trazado_777465" data-name="Trazado 777465" d="M528.389,392.474l-.105-.568h-.035a2.039,2.039,0,0,1-1.622.7,1.737,1.737,0,0,1-1.831-1.739c0-1.471,1.321-2.178,3.327-2.167v-.081c0-.3-.164-.73-1.032-.73a3.183,3.183,0,0,0-1.564.429l-.326-1.136a4.671,4.671,0,0,1,2.2-.5,2.2,2.2,0,0,1,2.491,2.446V391.1a8.771,8.771,0,0,0,.082,1.379Zm-.209-2.676c-.927-.012-1.645.208-1.645.892a.633.633,0,0,0,.695.673.962.962,0,0,0,.915-.649,1.261,1.261,0,0,0,.035-.3Z" transform="translate(317.305 8651.123)"/>
    <path id="Trazado_777466" data-name="Trazado 777466" d="M532.482,392.325a1.02,1.02,0,0,1,1.043-1.078,1.073,1.073,0,1,1-1.043,1.078" transform="translate(315.978 8650.335)"/>
    <g id="Grupo_1066231" data-name="Grupo 1066231" transform="translate(752.796 8933.243)" clip-path="url(#clip-path-2)">
      <path id="Trazado_777537" data-name="Trazado 777537" d="M433.72,600.448l2.978-9.583,5.717-18.392-51.628,5.574-14.907,1.609Z" transform="translate(-409.767 -314.215)" fill="#fff"/>
      <path id="Trazado_777538" data-name="Trazado 777538" d="M433.435,601.527a1.356,1.356,0,0,1-.461-.08l-57.841-20.792a1.365,1.365,0,0,1,.314-2.641l66.535-7.182a1.345,1.345,0,0,1,1.2.489,1.363,1.363,0,0,1,.25,1.272l-8.694,27.975a1.365,1.365,0,0,1-1.3.96m-51.8-21.437L432.556,598.4l7.654-24.629Z" transform="translate(-409.482 -313.93)"/>
      <line id="Línea_392" data-name="Línea 392" x1="45.579" y1="14.085" transform="translate(-18.98 263.831)" fill="#fff"/>
      <path id="Trazado_777539" data-name="Trazado 777539" d="M439.2,594.376a1.368,1.368,0,0,1-.4-.061l-45.579-14.086a1.365,1.365,0,1,1,.807-2.608L439.6,591.706a1.365,1.365,0,0,1-.4,2.67" transform="translate(-412.595 -315.094)"/>
      <path id="Trazado_777540" data-name="Trazado 777540" d="M375.88,528.659s6.427-52.548,28.353-82.791c0,0-1.134-44.987-15.5-62.756s-9.829-84.3-9.829-84.3,52.548,2.268,51.414-21.548h23.817l-.756,252.154Z" transform="translate(-409.767 -263.219)" fill="#fff"/>
      <path id="Trazado_777541" data-name="Trazado 777541" d="M453.093,530.495h-.013l-77.5-.756a1.364,1.364,0,0,1-1.342-1.53c.065-.527,6.668-52.805,28.329-83.046-.174-4.753-2.034-45.215-15.182-61.477-14.535-17.979-10.316-82.516-10.129-85.255a1.357,1.357,0,0,1,1.42-1.271c.338.015,34.466,1.338,46.189-10.439a12.27,12.27,0,0,0,3.8-9.681,1.364,1.364,0,0,1,1.362-1.429h23.817a1.363,1.363,0,0,1,1.364,1.368l-.756,252.155a1.363,1.363,0,0,1-1.364,1.36m-75.937-3.47,74.576.727.749-249.411H431.4a15.033,15.033,0,0,1-4.6,10.308c-11.328,11.379-40.225,11.432-46.9,11.28-.53,9.385-3.165,66.244,9.608,82.042,14.49,17.923,15.756,61.723,15.8,63.579a1.368,1.368,0,0,1-.259.836c-19.4,26.757-26.638,71.832-27.9,80.641" transform="translate(-409.482 -262.934)"/>
      <path id="Trazado_777542" data-name="Trazado 777542" d="M447.285,277.262s3.024,16.256,1.134,21.17-21.926,16.256-24.573,30.244,13.609,93.755,13.609,112.279-15.878,88.462-15.878,88.462" transform="translate(-417.661 -263.219)" fill="#fff"/>
      <path id="Trazado_777543" data-name="Trazado 777543" d="M421.295,530.5a1.365,1.365,0,0,1-1.332-1.667c.158-.7,15.844-70,15.844-88.159,0-7.98-3.085-27.659-6.353-48.491-4.311-27.5-8.768-55.929-7.234-64.041,1.819-9.614,11.18-17.8,18.014-23.77,3.134-2.738,6.094-5.326,6.626-6.711,1.437-3.733-.381-16.013-1.2-20.43a1.365,1.365,0,1,1,2.684-.5c.317,1.7,3.038,16.783,1.066,21.91-.775,2.014-3.545,4.436-7.378,7.786-6.534,5.711-15.484,13.534-17.128,22.221-1.448,7.65,3.173,37.115,7.248,63.111,3.283,20.942,6.385,40.722,6.385,48.914,0,18.464-15.262,85.9-15.912,88.764a1.363,1.363,0,0,1-1.329,1.062" transform="translate(-417.376 -262.935)"/>
      <path id="Trazado_777544" data-name="Trazado 777544" d="M330.466,548.094c10.242-27.225,23.358-204.979,22.469-221.435a26.9,26.9,0,0,1,7.157-19.618c3.286-3.469,7.212-5.458,10.771-5.458a9.373,9.373,0,0,1,6.386,2.522c8.436,7.531,6.906,41.454,5.135,80.731l-.295,6.566c-1.806,40.628-26.83,145.4-29.655,157.116Z" transform="translate(-401.922 -267.42)" fill="#fff"/>
      <path id="Trazado_777545" data-name="Trazado 777545" d="M370.428,302.662a8.045,8.045,0,0,1,5.477,2.175c7.952,7.1,6.363,42.341,4.681,79.65q-.148,3.255-.3,6.568c-1.755,39.476-25.547,139.9-29.362,155.792l-9-.174-10.007-.192c5.626-17.9,11.407-74.506,14.508-108.612,4.419-48.606,7.962-101.784,7.434-111.569a25.509,25.509,0,0,1,6.785-18.6c3.03-3.2,6.595-5.033,9.781-5.033m0-2.729c-9.607,0-20.053,12.411-19.292,26.514.968,17.906-13.042,204.331-23.186,222.687l13.924.268,11.194.215s28.018-114.966,29.949-158.441,4.1-79.986-5.294-88.375a10.747,10.747,0,0,0-7.3-2.868" transform="translate(-401.487 -267.136)"/>
      <path id="Trazado_777546" data-name="Trazado 777546" d="M365.077,473.764s3.039,20.2-18.905,103.179" transform="translate(-404.635 -297.164)" fill="#fff"/>
      <path id="Trazado_777547" data-name="Trazado 777547" d="M345.888,578.023a1.383,1.383,0,0,1-.35-.046,1.365,1.365,0,0,1-.97-1.668c21.525-81.4,18.9-102.429,18.876-102.632a1.366,1.366,0,0,1,1.152-1.545,1.352,1.352,0,0,1,1.547,1.145c.127.836,2.832,21.42-18.935,103.73a1.366,1.366,0,0,1-1.319,1.017" transform="translate(-404.35 -296.879)"/>
      <path id="Trazado_777548" data-name="Trazado 777548" d="M491.889,600.448l-2.978-9.583-5.717-18.392,51.629,5.574,14.906,1.609Z" transform="translate(-428.305 -314.215)" fill="#fff"/>
      <path id="Trazado_777549" data-name="Trazado 777549" d="M491.6,601.528a1.364,1.364,0,0,1-1.3-.961l-8.694-27.975a1.364,1.364,0,0,1,1.449-1.761l66.536,7.183a1.364,1.364,0,0,1,.315,2.641l-57.841,20.793a1.382,1.382,0,0,1-.462.08m-6.774-27.76,7.655,24.628,50.923-18.3Z" transform="translate(-428.02 -313.93)"/>
      <line id="Línea_393" data-name="Línea 393" y1="14.085" x2="45.579" transform="translate(60.938 263.831)" fill="#fff"/>
      <path id="Trazado_777550" data-name="Trazado 777550" d="M490.221,594.376a1.365,1.365,0,0,1-.4-2.67L535.4,577.621a1.365,1.365,0,1,1,.807,2.608l-45.579,14.086a1.368,1.368,0,0,1-.4.061" transform="translate(-429.283 -315.094)"/>
      <path id="Trazado_777551" data-name="Trazado 777551" d="M547.282,528.659s-6.427-52.548-28.353-82.791c0,0,1.134-44.987,15.5-62.756s9.829-84.3,9.829-84.3-52.548,2.268-51.414-21.548H469.027l.756,252.154Z" transform="translate(-425.857 -263.219)" fill="#fff"/>
      <path id="Trazado_777552" data-name="Trazado 777552" d="M469.5,530.5a1.366,1.366,0,0,1-1.365-1.361l-.756-252.155a1.366,1.366,0,0,1,1.365-1.368H492.56a1.365,1.365,0,0,1,1.363,1.43,12.261,12.261,0,0,0,3.8,9.681c11.722,11.778,45.848,10.457,46.189,10.439a1.357,1.357,0,0,1,1.42,1.271c.186,2.739,4.406,67.276-10.13,85.255-13.147,16.261-15.008,56.723-15.182,61.477,21.662,30.24,28.265,82.519,28.329,83.046a1.365,1.365,0,0,1-1.342,1.53l-77.5.756Zm.612-252.155.748,249.411,74.577-.727c-1.26-8.809-8.5-53.883-27.9-80.641a1.367,1.367,0,0,1-.259-.836c.046-1.856,1.313-45.656,15.8-63.578,12.774-15.8,10.139-72.657,9.608-82.042-6.664.149-35.57.1-46.9-11.28a15.029,15.029,0,0,1-4.6-10.308Z" transform="translate(-425.573 -262.934)"/>
      <path id="Trazado_777553" data-name="Trazado 777553" d="M486.483,277.262s-3.024,16.256-1.134,21.17,21.926,16.256,24.573,30.244-13.609,93.755-13.609,112.279,15.878,88.462,15.878,88.462" transform="translate(-428.57 -263.219)" fill="#fff"/>
      <path id="Trazado_777554" data-name="Trazado 777554" d="M511.905,530.5a1.364,1.364,0,0,1-1.329-1.062c-.65-2.861-15.912-70.3-15.912-88.764,0-8.192,3.1-27.972,6.385-48.914,4.076-26,8.7-55.462,7.248-63.111-1.644-8.687-10.593-16.51-17.128-22.221-3.833-3.35-6.6-5.772-7.378-7.786-1.972-5.127.75-20.207,1.066-21.91a1.365,1.365,0,0,1,2.684.5c-.821,4.417-2.639,16.7-1.2,20.43.532,1.385,3.492,3.973,6.626,6.711,6.835,5.974,16.2,14.156,18.014,23.77,1.535,8.112-2.923,36.546-7.234,64.041-3.268,20.833-6.353,40.512-6.353,48.491,0,18.161,15.686,87.462,15.844,88.159a1.365,1.365,0,0,1-1.332,1.667" transform="translate(-428.285 -262.934)"/>
      <path id="Trazado_777555" data-name="Trazado 777555" d="M575.938,548.517c-2.824-11.716-27.85-116.489-29.656-157.116l-.294-6.565c-1.772-39.278-3.3-73.2,5.135-80.732a9.371,9.371,0,0,1,6.386-2.522c3.558,0,7.484,1.99,10.771,5.459a26.9,26.9,0,0,1,7.157,19.618c-.89,16.456,12.227,194.21,22.469,221.435Z" transform="translate(-438.912 -267.42)" fill="#fff"/>
      <path id="Trazado_777556" data-name="Trazado 777556" d="M557.226,299.933v2.729c3.185,0,6.749,1.834,9.778,5.031A25.513,25.513,0,0,1,573.79,326.3c-.529,9.785,3.015,62.963,7.434,111.569,3.1,34.106,8.882,90.711,14.508,108.612l-10.007.192-9,.174c-3.815-15.892-27.607-116.312-29.362-155.792q-.148-3.313-.3-6.568c-1.682-37.309-3.271-72.55,4.681-79.65a8.056,8.056,0,0,1,5.478-2.175v-2.729Zm0,0a10.747,10.747,0,0,0-7.3,2.868c-9.4,8.389-7.227,44.9-5.294,88.375s29.949,158.441,29.949,158.441l11.194-.215,13.925-.268c-10.145-18.356-24.155-204.781-23.186-222.687.762-14.1-9.685-26.516-19.292-26.514" transform="translate(-438.627 -267.136)"/>
      <path id="Trazado_777557" data-name="Trazado 777557" d="M570.414,473.764s-4.116,19.063,17.829,102.045" transform="translate(-443.318 -297.164)" fill="#fff"/>
      <path id="Trazado_777558" data-name="Trazado 777558" d="M587.954,576.89a1.366,1.366,0,0,1-1.319-1.017c-21.778-82.353-18.014-101.891-17.843-102.683a1.364,1.364,0,0,1,2.669.569c-.04.2-3.671,20.175,17.813,101.417a1.365,1.365,0,0,1-.97,1.668,1.385,1.385,0,0,1-.35.046" transform="translate(-443.031 -296.879)"/>
    </g>
    <path id="Trazado_777560" data-name="Trazado 777560" d="M503.253,303.491a43.2,43.2,0,1,1-43.205-43.205A43.205,43.205,0,0,1,503.253,303.491Z" transform="translate(335.953 8672.957)" fill="none" stroke="#025157" stroke-miterlimit="10" stroke-width="3.871"/>
    <path id="Trazado_777467" data-name="Trazado 777467" d="M622.774,388.79c-.035-.939-.07-2.074-.07-3.21h-.035c-.244,1-.568,2.11-.869,3.024l-.95,3.048h-1.379l-.835-3.024c-.256-.917-.522-2.028-.707-3.048h-.024c-.045,1.055-.08,2.26-.139,3.233l-.139,2.967h-1.633l.5-7.81h2.353l.765,2.608c.243.9.486,1.877.66,2.793h.035c.22-.9.486-1.936.741-2.8l.835-2.6h2.306l.429,7.81h-1.727Z" transform="translate(357.6 8651.592)"/>
    <path id="Trazado_777468" data-name="Trazado 777468" d="M631.165,392.2l-.105-.567h-.035a2.039,2.039,0,0,1-1.622.7,1.737,1.737,0,0,1-1.831-1.739c0-1.471,1.321-2.178,3.326-2.167v-.081c0-.3-.163-.731-1.032-.731a3.186,3.186,0,0,0-1.564.43l-.325-1.136a4.66,4.66,0,0,1,2.2-.5,2.2,2.2,0,0,1,2.491,2.446v1.969a8.755,8.755,0,0,0,.082,1.379Zm-.209-2.675c-.926-.013-1.645.208-1.645.892a.632.632,0,0,0,.695.672.961.961,0,0,0,.915-.649,1.257,1.257,0,0,0,.035-.3Z" transform="translate(355.601 8651.171)"/>
    <path id="Trazado_777469" data-name="Trazado 777469" d="M635.4,388.343c0-.706-.023-1.31-.046-1.808h1.53l.081.777H637a2.072,2.072,0,0,1,1.75-.9c1.159,0,2.028.765,2.028,2.434v3.36h-1.761v-3.14c0-.73-.255-1.228-.892-1.228a.94.94,0,0,0-.893.661,1.208,1.208,0,0,0-.07.44V392.2H635.4Z" transform="translate(354.256 8651.171)"/>
    <path id="Trazado_777470" data-name="Trazado 777470" d="M648.96,386.534c-.024.359-.047.835-.047,1.68v3.163a3.255,3.255,0,0,1-.857,2.549,3.5,3.5,0,0,1-2.306.7,4.416,4.416,0,0,1-2.039-.44l.347-1.333a3.482,3.482,0,0,0,1.645.428,1.352,1.352,0,0,0,1.472-1.494v-.371h-.023a1.81,1.81,0,0,1-1.53.742,2.5,2.5,0,0,1-2.4-2.77,2.71,2.71,0,0,1,2.573-2.977,1.708,1.708,0,0,1,1.553.8h.023l.058-.672Zm-1.808,2.306a1.391,1.391,0,0,0-.035-.324.966.966,0,0,0-.95-.776c-.638,0-1.16.579-1.16,1.61,0,.847.418,1.507,1.16,1.507a.957.957,0,0,0,.927-.719,1.5,1.5,0,0,0,.058-.463Z" transform="translate(352.897 8651.171)"/>
    <path id="Trazado_777471" data-name="Trazado 777471" d="M654.951,392.2l-.105-.567h-.035a2.039,2.039,0,0,1-1.622.7,1.737,1.737,0,0,1-1.831-1.739c0-1.471,1.321-2.178,3.326-2.167v-.081c0-.3-.163-.731-1.032-.731a3.187,3.187,0,0,0-1.564.43l-.325-1.136a4.66,4.66,0,0,1,2.2-.5,2.2,2.2,0,0,1,2.491,2.446v1.969a8.747,8.747,0,0,0,.082,1.379Zm-.209-2.675c-.927-.013-1.645.208-1.645.892a.632.632,0,0,0,.695.672.961.961,0,0,0,.915-.649,1.254,1.254,0,0,0,.035-.3Z" transform="translate(351.492 8651.171)"/>
    <path id="Trazado_777472" data-name="Trazado 777472" d="M663.889,384.6v1.622h1.263v1.3h-1.263v2.052c0,.684.162,1,.7,1a2.806,2.806,0,0,0,.522-.047l.011,1.334a3.457,3.457,0,0,1-1.147.15,1.828,1.828,0,0,1-1.321-.486,2.344,2.344,0,0,1-.487-1.68v-2.318h-.753v-1.3h.753v-1.228Z" transform="translate(349.755 8651.482)"/>
    <path id="Trazado_777473" data-name="Trazado 777473" d="M668.973,384.47a.883.883,0,0,1-.95.88.887.887,0,1,1,.011-1.772.883.883,0,0,1,.939.892m-1.819,1.576h1.761v5.667h-1.761Z" transform="translate(348.771 8651.659)"/>
    <path id="Trazado_777474" data-name="Trazado 777474" d="M670.99,388.436c0-.742-.023-1.38-.046-1.9h1.53l.081.788h.023a2.173,2.173,0,0,1,1.889-.915c1.24,0,2.353,1.077,2.353,2.885,0,2.062-1.31,3.036-2.572,3.036a1.76,1.76,0,0,1-1.472-.649h-.023V394.5H670.99Zm1.761,1.333a1.809,1.809,0,0,0,.035.371,1.068,1.068,0,0,0,1.032.835c.765,0,1.217-.637,1.217-1.6,0-.9-.405-1.587-1.194-1.587a1.108,1.108,0,0,0-1.055.893,1.417,1.417,0,0,0-.035.314Z" transform="translate(348.108 8651.17)"/>
    <path id="Trazado_777475" data-name="Trazado 777475" d="M684.944,389.3a2.843,2.843,0,0,1-2.99,3.024,2.776,2.776,0,0,1-2.931-2.92,2.829,2.829,0,0,1,3.024-3,2.755,2.755,0,0,1,2.9,2.9m-4.1.058c0,.974.405,1.7,1.159,1.7.684,0,1.124-.684,1.124-1.7,0-.845-.325-1.7-1.124-1.7-.846,0-1.159.869-1.159,1.7" transform="translate(346.713 8651.171)"/>
    <path id="Trazado_777476" data-name="Trazado 777476" d="M690.24,390.66a3.441,3.441,0,0,0,1.518.429c.533,0,.753-.186.753-.476s-.174-.428-.835-.649c-1.17-.394-1.622-1.032-1.611-1.7,0-1.055.9-1.855,2.306-1.855a3.8,3.8,0,0,1,1.6.325l-.313,1.217a2.787,2.787,0,0,0-1.229-.325c-.428,0-.672.174-.672.464,0,.266.22.405.915.649,1.078.371,1.53.915,1.542,1.75,0,1.054-.835,1.831-2.457,1.831a4.007,4.007,0,0,1-1.832-.394Z" transform="translate(344.829 8651.171)"/>
    <path id="Trazado_777477" data-name="Trazado 777477" d="M699.54,392.2l-.1-.567H699.4a2.039,2.039,0,0,1-1.622.7,1.737,1.737,0,0,1-1.831-1.739c0-1.471,1.321-2.178,3.326-2.167v-.081c0-.3-.163-.731-1.032-.731a3.186,3.186,0,0,0-1.564.43l-.325-1.136a4.659,4.659,0,0,1,2.2-.5,2.2,2.2,0,0,1,2.491,2.446v1.969a8.755,8.755,0,0,0,.082,1.379Zm-.209-2.675c-.927-.013-1.645.208-1.645.892a.632.632,0,0,0,.695.672.961.961,0,0,0,.915-.649,1.257,1.257,0,0,0,.035-.3Z" transform="translate(343.789 8651.171)"/>
    <path id="Trazado_777478" data-name="Trazado 777478" d="M703.708,390.66a3.441,3.441,0,0,0,1.518.429c.533,0,.753-.186.753-.476s-.174-.428-.835-.649c-1.17-.394-1.622-1.032-1.611-1.7,0-1.055.9-1.855,2.306-1.855a3.8,3.8,0,0,1,1.6.325l-.313,1.217a2.787,2.787,0,0,0-1.229-.325c-.429,0-.672.174-.672.464,0,.266.22.405.915.649,1.078.371,1.53.915,1.542,1.75,0,1.054-.835,1.831-2.457,1.831a4.007,4.007,0,0,1-1.831-.394Z" transform="translate(342.503 8651.171)"/>
    <path id="Trazado_777479" data-name="Trazado 777479" d="M711.726,384.6v1.622h1.263v1.3h-1.263v2.052c0,.684.162,1,.7,1a2.788,2.788,0,0,0,.521-.047l.012,1.334a3.456,3.456,0,0,1-1.146.15,1.828,1.828,0,0,1-1.321-.486,2.344,2.344,0,0,1-.487-1.68v-2.318h-.753v-1.3H710v-1.228Z" transform="translate(341.492 8651.482)"/>
    <path id="Trazado_777480" data-name="Trazado 777480" d="M714.991,388.4c0-.834-.023-1.379-.046-1.865h1.518l.058,1.043h.046a1.664,1.664,0,0,1,1.53-1.171,1.815,1.815,0,0,1,.371.023v1.657a2.527,2.527,0,0,0-.475-.046,1.133,1.133,0,0,0-1.205.893,2.146,2.146,0,0,0-.035.394V392.2h-1.761Z" transform="translate(340.508 8651.171)"/>
    <path id="Trazado_777481" data-name="Trazado 777481" d="M721.5,389.93c.058.73.777,1.078,1.6,1.078a4.988,4.988,0,0,0,1.564-.232l.232,1.194a5.6,5.6,0,0,1-2.052.347,2.719,2.719,0,0,1-3.024-2.885,2.838,2.838,0,0,1,2.862-3.024c1.832,0,2.526,1.425,2.526,2.828a4.076,4.076,0,0,1-.059.7Zm2.075-1.205a1.023,1.023,0,0,0-1-1.147,1.155,1.155,0,0,0-1.089,1.147Z" transform="translate(339.666 8651.171)"/>
    <path id="Trazado_777482" data-name="Trazado 777482" d="M644.413,408.862a4.3,4.3,0,0,1-1.576.255,2.749,2.749,0,0,1-3-2.9,2.956,2.956,0,0,1,3.245-3.014,4.09,4.09,0,0,1,1.344.221l-.278,1.31a2.394,2.394,0,0,0-.985-.175,1.589,1.589,0,0,0,.035,3.176,2.72,2.72,0,0,0,1.008-.175Z" transform="translate(353.482 8648.269)"/>
    <path id="Trazado_777483" data-name="Trazado 777483" d="M651.918,406.1a2.843,2.843,0,0,1-2.99,3.024,2.776,2.776,0,0,1-2.932-2.92,2.829,2.829,0,0,1,3.024-3,2.755,2.755,0,0,1,2.9,2.9m-4.1.058c0,.974.405,1.7,1.159,1.7.684,0,1.124-.684,1.124-1.7,0-.845-.325-1.7-1.124-1.7-.846,0-1.159.869-1.159,1.7" transform="translate(352.418 8648.269)"/>
    <path id="Trazado_777484" data-name="Trazado 777484" d="M654.457,405.143c0-.707-.023-1.31-.046-1.808h1.53l.081.777h.035a2.072,2.072,0,0,1,1.75-.9c1.159,0,2.028.765,2.028,2.434V409h-1.761v-3.14c0-.73-.255-1.228-.892-1.228a.94.94,0,0,0-.893.661,1.211,1.211,0,0,0-.069.44V409h-1.761Z" transform="translate(350.964 8648.269)"/>
    <path id="Trazado_777485" data-name="Trazado 777485" d="M665.488,405.235c0-.742-.023-1.379-.046-1.9h1.53l.081.788h.023a2.173,2.173,0,0,1,1.889-.915c1.24,0,2.353,1.077,2.353,2.885,0,2.062-1.31,3.036-2.572,3.036a1.76,1.76,0,0,1-1.472-.649h-.023V411.3h-1.761Zm1.761,1.333a1.8,1.8,0,0,0,.035.371,1.068,1.068,0,0,0,1.031.835c.765,0,1.217-.637,1.217-1.6,0-.9-.405-1.587-1.194-1.587a1.108,1.108,0,0,0-1.055.893,1.4,1.4,0,0,0-.035.313Z" transform="translate(349.059 8648.269)"/>
    <path id="Trazado_777486" data-name="Trazado 777486" d="M675.679,401.27a.884.884,0,0,1-.95.88.887.887,0,1,1,.011-1.772.883.883,0,0,1,.939.892m-1.819,1.576h1.761v5.667H673.86Z" transform="translate(347.613 8648.757)"/>
    <path id="Trazado_777487" data-name="Trazado 777487" d="M677.7,405.143c0-.707-.023-1.31-.046-1.808h1.53l.081.777h.035a2.072,2.072,0,0,1,1.75-.9c1.159,0,2.028.765,2.028,2.434V409h-1.761v-3.14c0-.73-.255-1.228-.892-1.228a.94.94,0,0,0-.893.661,1.208,1.208,0,0,0-.069.44V409H677.7Z" transform="translate(346.95 8648.269)"/>
    <path id="Trazado_777488" data-name="Trazado 777488" d="M685.364,408.019l1.784-2.236c.324-.383.579-.661.9-1.008v-.023H685.56v-1.391H690.2v1.055l-1.7,2.143a13.588,13.588,0,0,1-.927,1.043v.022h2.723v1.4h-4.925Z" transform="translate(345.617 8648.242)"/>
    <path id="Trazado_777489" data-name="Trazado 777489" d="M695.62,409l-.1-.568h-.035a2.038,2.038,0,0,1-1.622.7,1.737,1.737,0,0,1-1.831-1.739c0-1.471,1.321-2.178,3.326-2.167v-.081c0-.3-.163-.73-1.031-.73a3.186,3.186,0,0,0-1.564.429l-.325-1.136a4.67,4.67,0,0,1,2.2-.5,2.2,2.2,0,0,1,2.491,2.446v1.969a8.777,8.777,0,0,0,.082,1.379Zm-.209-2.676c-.927-.012-1.645.208-1.645.892a.632.632,0,0,0,.695.673.962.962,0,0,0,.915-.649,1.261,1.261,0,0,0,.035-.3Z" transform="translate(344.466 8648.269)"/>
    <path id="Trazado_777490" data-name="Trazado 777490" d="M699.714,408.851a1.02,1.02,0,0,1,1.043-1.078,1.073,1.073,0,1,1-1.043,1.078" transform="translate(343.138 8647.479)"/>
    <g id="Grupo_1066235" data-name="Grupo 1066235" transform="translate(975.176 8933.243)" clip-path="url(#clip-path-3)">
      <path id="Trazado_777561" data-name="Trazado 777561" d="M516.607,345.693l3.17-10.2,6.083-19.573-54.943,5.931-15.864,1.712Z" transform="translate(-589.774 -269.897)" fill="#fff"/>
      <path id="Trazado_777562" data-name="Trazado 777562" d="M516.3,346.843a1.472,1.472,0,0,1-.491-.085L454.258,324.63a1.452,1.452,0,0,1,.335-2.811l70.808-7.644a1.452,1.452,0,0,1,1.543,1.875l-9.254,29.771a1.45,1.45,0,0,1-1.386,1.022M461.176,324.03l54.192,19.481,8.146-26.211Z" transform="translate(-589.471 -269.594)"/>
      <line id="Línea_394" data-name="Línea 394" x1="48.506" y1="14.989" transform="translate(-118.857 51.955)" fill="#fff"/>
      <path id="Trazado_777563" data-name="Trazado 777563" d="M522.434,339.23a1.44,1.44,0,0,1-.43-.065L473.5,324.176a1.452,1.452,0,1,1,.858-2.775l48.507,14.989a1.453,1.453,0,0,1-.428,2.84" transform="translate(-592.783 -270.833)"/>
      <path id="Trazado_777564" data-name="Trazado 777564" d="M455.052,269.3s6.84-55.922,30.173-88.107c0,0-1.206-47.876-16.495-66.784s-10.46-89.717-10.46-89.717S514.193,27.1,512.986,1.756h25.345l-.8,268.345Z" transform="translate(-589.774 -215.628)" fill="#fff"/>
      <path id="Trazado_777565" data-name="Trazado 777565" d="M537.224,271.25l-.015,0-82.474-.8a1.452,1.452,0,0,1-1.427-1.629c.069-.56,7.1-56.2,30.147-88.379-.185-5.059-2.165-48.119-16.156-65.424C451.83,95.882,456.321,27.2,456.519,24.287a1.468,1.468,0,0,1,1.511-1.353c.366.017,36.681,1.425,49.156-11.111a13.049,13.049,0,0,0,4.047-10.3A1.452,1.452,0,0,1,512.682,0h25.345a1.453,1.453,0,0,1,1.453,1.456l-.8,268.345a1.453,1.453,0,0,1-1.452,1.449m-80.813-3.694,79.365.775L536.571,2.9H514.143a15.993,15.993,0,0,1-4.9,10.969c-12.053,12.108-42.8,12.159-49.91,12-.563,9.989-3.367,70.5,10.226,87.31,15.42,19.073,16.767,65.685,16.817,67.661a1.458,1.458,0,0,1-.276.889c-20.644,28.474-28.347,76.443-29.688,85.819" transform="translate(-589.471 -215.324)"/>
      <path id="Trazado_777566" data-name="Trazado 777566" d="M531.042,1.755s3.219,17.3,1.207,22.53-23.335,17.3-26.15,32.185,14.484,99.775,14.484,119.488-16.9,94.142-16.9,94.142" transform="translate(-598.175 -215.627)" fill="#fff"/>
      <path id="Trazado_777567" data-name="Trazado 777567" d="M503.383,271.249a1.5,1.5,0,0,1-.323-.036,1.452,1.452,0,0,1-1.094-1.738c.169-.742,16.861-74.494,16.861-93.82,0-8.492-3.283-29.434-6.759-51.605-4.588-29.262-9.332-59.519-7.7-68.153,1.936-10.232,11.9-18.939,19.172-25.3,3.335-2.915,6.484-5.668,7.051-7.14,1.528-3.974-.405-17.043-1.279-21.744a1.452,1.452,0,0,1,2.855-.531C532.5,3,535.4,19.048,533.3,24.5c-.825,2.144-3.772,4.72-7.85,8.285-6.955,6.079-16.481,14.4-18.229,23.649-1.54,8.141,3.377,39.5,7.714,67.164,3.493,22.285,6.8,43.336,6.8,52.054,0,19.65-16.242,91.418-16.934,94.464a1.453,1.453,0,0,1-1.415,1.131" transform="translate(-597.872 -215.324)"/>
      <path id="Trazado_777568" data-name="Trazado 777568" d="M406.721,289.979c10.9-28.973,24.859-218.142,23.912-235.654a28.628,28.628,0,0,1,7.617-20.877c3.5-3.692,7.677-5.809,11.464-5.809a9.98,9.98,0,0,1,6.8,2.683c8.977,8.016,7.349,44.118,5.463,85.922l-.314,6.98c-1.921,43.235-28.553,154.736-31.558,167.2Z" transform="translate(-581.425 -220.098)" fill="#fff"/>
      <path id="Trazado_777569" data-name="Trazado 777569" d="M449.251,28.786a8.566,8.566,0,0,1,5.83,2.314c8.462,7.556,6.771,45.059,4.981,84.764q-.156,3.463-.314,6.991c-1.867,42.011-27.188,148.881-31.247,165.794l-9.581-.184-10.649-.205c5.987-19.05,12.14-79.289,15.44-115.586,4.7-51.727,8.474-108.319,7.911-118.732a27.151,27.151,0,0,1,7.22-19.8c3.225-3.4,7.019-5.356,10.409-5.356m0-2.9c-10.223,0-21.342,13.209-20.53,28.217,1.03,19.055-13.88,217.451-24.675,236.986l14.819.285,11.913.229s29.816-122.348,31.872-168.615,4.365-85.121-5.634-94.05a11.443,11.443,0,0,0-7.764-3.052" transform="translate(-580.963 -219.795)"/>
      <path id="Trazado_777570" data-name="Trazado 777570" d="M443.557,210.875s3.235,21.492-20.119,109.8" transform="translate(-584.313 -251.751)" fill="#fff"/>
      <path id="Trazado_777571" data-name="Trazado 777571" d="M423.135,321.829a1.454,1.454,0,0,1-1.4-1.824C444.637,233.384,441.847,211,441.816,210.784a1.453,1.453,0,0,1,2.874-.428c.133.89,3.012,22.8-20.152,110.392a1.454,1.454,0,0,1-1.4,1.081" transform="translate(-584.01 -251.449)"/>
      <path id="Trazado_777572" data-name="Trazado 777572" d="M578.511,345.693l-3.17-10.2-6.083-19.573,54.943,5.931,15.864,1.712Z" transform="translate(-609.503 -269.897)" fill="#fff"/>
      <path id="Trazado_777573" data-name="Trazado 777573" d="M578.208,346.843a1.456,1.456,0,0,1-1.387-1.022l-9.253-29.771a1.452,1.452,0,0,1,1.543-1.875l70.808,7.644a1.452,1.452,0,0,1,.335,2.81L578.7,346.757a1.462,1.462,0,0,1-.492.086M571,317.3l8.147,26.211,54.191-19.481Z" transform="translate(-609.199 -269.594)"/>
      <line id="Línea_395" data-name="Línea 395" y1="14.989" x2="48.506" transform="translate(-33.808 51.955)" fill="#fff"/>
      <path id="Trazado_777574" data-name="Trazado 777574" d="M576.735,339.23a1.452,1.452,0,0,1-.428-2.84L624.813,321.4a1.452,1.452,0,0,1,.858,2.775l-48.506,14.989a1.44,1.44,0,0,1-.43.065" transform="translate(-610.543 -270.833)"/>
      <path id="Trazado_777575" data-name="Trazado 777575" d="M637.461,269.3s-6.84-55.922-30.173-88.107c0,0,1.207-47.876,16.495-66.784s10.46-89.717,10.46-89.717S578.321,27.1,579.527,1.756H554.182l.8,268.345Z" transform="translate(-606.898 -215.628)" fill="#fff"/>
      <path id="Trazado_777576" data-name="Trazado 777576" d="M554.683,271.25a1.455,1.455,0,0,1-1.453-1.449l-.8-268.345A1.455,1.455,0,0,1,553.878,0h25.346a1.455,1.455,0,0,1,1.451,1.522,13.051,13.051,0,0,0,4.047,10.3c12.485,12.539,48.792,11.125,49.154,11.108a1.441,1.441,0,0,1,1.512,1.353c.2,2.914,4.689,71.6-10.78,90.728-14,17.312-15.972,60.366-16.156,65.424C631.5,212.62,638.53,268.256,638.6,268.817a1.451,1.451,0,0,1-1.426,1.628l-82.476.8h-.014m.652-268.345.8,265.426,79.365-.775c-1.341-9.375-9.043-57.344-29.687-85.819a1.447,1.447,0,0,1-.276-.888c.05-1.976,1.4-48.588,16.817-67.661,13.592-16.812,10.789-77.321,10.225-87.31-7.1.158-37.855.105-49.91-12a16,16,0,0,1-4.9-10.969Z" transform="translate(-606.595 -215.324)"/>
      <path id="Trazado_777577" data-name="Trazado 777577" d="M572.758,1.755s-3.219,17.3-1.207,22.53,23.334,17.3,26.15,32.185-14.484,99.775-14.484,119.488,16.9,94.142,16.9,94.142" transform="translate(-609.784 -215.627)" fill="#fff"/>
      <path id="Trazado_777578" data-name="Trazado 777578" d="M599.812,271.249a1.453,1.453,0,0,1-1.415-1.131c-.692-3.046-16.934-74.814-16.934-94.464,0-8.718,3.3-29.769,6.8-52.054,4.337-27.666,9.255-59.023,7.714-67.164-1.749-9.245-11.275-17.57-18.229-23.649-4.078-3.565-7.025-6.141-7.85-8.285-2.1-5.455.8-21.5,1.135-23.316a1.452,1.452,0,0,1,2.855.531c-.874,4.7-2.807,17.769-1.279,21.744.567,1.473,3.717,4.225,7.051,7.14,7.274,6.357,17.236,15.064,19.172,25.3,1.633,8.634-3.11,38.891-7.7,68.153-3.476,22.171-6.76,43.113-6.76,51.605,0,19.327,16.692,93.078,16.861,93.82a1.452,1.452,0,0,1-1.095,1.738,1.5,1.5,0,0,1-.323.036" transform="translate(-609.481 -215.324)"/>
      <path id="Trazado_777579" data-name="Trazado 777579" d="M667.956,290.428c-3.005-12.468-29.637-123.969-31.558-167.205l-.314-6.986c-1.885-41.8-3.512-77.9,5.464-85.916a9.981,9.981,0,0,1,6.8-2.682c3.787,0,7.965,2.117,11.462,5.808a28.626,28.626,0,0,1,7.617,20.877c-.946,17.512,13.012,206.68,23.912,235.655Z" transform="translate(-620.791 -220.098)" fill="#fff"/>
      <path id="Trazado_777580" data-name="Trazado 777580" d="M648.043,25.882v2.9c3.388,0,7.181,1.952,10.406,5.355a27.153,27.153,0,0,1,7.221,19.8c-.562,10.413,3.207,67.005,7.911,118.732,3.3,36.3,9.453,96.535,15.44,115.586l-10.65.205-9.58.184c-4.059-16.912-29.38-123.783-31.247-165.794q-.156-3.527-.313-6.991c-1.79-39.705-3.481-77.208,4.982-84.764a8.567,8.567,0,0,1,5.83-2.314Zm0,0a11.443,11.443,0,0,0-7.764,3.052c-10,8.929-7.691,47.784-5.634,94.05S666.514,291.6,666.514,291.6l11.913-.229,14.819-.285C682.45,271.55,667.541,73.154,668.571,54.1c.812-15.008-10.307-28.219-20.53-28.217" transform="translate(-620.487 -219.795)"/>
      <path id="Trazado_777581" data-name="Trazado 777581" d="M662.078,210.875s-4.38,20.287,18.974,108.6" transform="translate(-625.48 -251.751)" fill="#fff"/>
      <path id="Trazado_777582" data-name="Trazado 777582" d="M680.745,320.622a1.454,1.454,0,0,1-1.4-1.081c-23.176-87.64-19.171-108.434-18.989-109.275a1.452,1.452,0,0,1,2.84.6c-.042.205-3.912,21.45,18.957,107.928a1.454,1.454,0,0,1-1.4,1.824" transform="translate(-625.174 -251.448)"/>
      <path id="Trazado_777583" data-name="Trazado 777583" d="M691.748,333.083a2.617,2.617,0,1,1-2.617-2.617,2.618,2.618,0,0,1,2.617,2.617" transform="translate(-629.757 -272.41)" fill="#fff"/>
      <circle id="Elipse_4768" data-name="Elipse 4768" cx="2.617" cy="2.617" r="2.617" transform="translate(56.756 58.056)" fill="none" stroke="#000" stroke-linecap="round" stroke-linejoin="round" stroke-width="3.511"/>
    </g>
    <path id="Trazado_777585" data-name="Trazado 777585" d="M704.316,303.491a43.2,43.2,0,1,1-43.205-43.205A43.205,43.205,0,0,1,704.316,303.491Z" transform="translate(357.27 8672.957)" fill="none" stroke="#025157" stroke-miterlimit="10" stroke-width="3.871"/>
    <path id="Trazado_777586" data-name="Trazado 777586" d="M529.841,701.472l2.708-8.714,5.2-16.725L490.8,681.1l-13.555,1.463Z" transform="translate(381.569 8627.849)" fill="#fff"/>
    <path id="Trazado_777587" data-name="Trazado 777587" d="M529.583,702.454a1.243,1.243,0,0,1-.419-.073l-52.6-18.909a1.241,1.241,0,0,1,.287-2.4l60.5-6.532a1.242,1.242,0,0,1,1.319,1.6l-7.907,25.44a1.241,1.241,0,0,1-1.185.872M482.476,682.96l46.307,16.647,6.961-22.4Z" transform="translate(381.828 8628.107)"/>
    <path id="Trazado_777688" data-name="Trazado 777688" d="M41.448,12.808,0,0" transform="translate(872.369 9308.95)" fill="#fff"/>
    <path id="Trazado_777588" data-name="Trazado 777588" d="M534.819,695.948a1.25,1.25,0,0,1-.366-.055l-41.448-12.809a1.241,1.241,0,1,1,.732-2.372l41.447,12.808a1.241,1.241,0,0,1-.366,2.427" transform="translate(378.997 8627.05)"/>
    <path id="Trazado_777589" data-name="Trazado 777589" d="M477.244,636.191s5.844-47.784,25.783-75.286c0,0-1.032-40.909-14.095-57.067s-8.938-76.661-8.938-76.661,47.785,2.063,46.753-19.6H548.4l-.687,229.3Z" transform="translate(381.569 8674.222)" fill="#fff"/>
    <path id="Trazado_777590" data-name="Trazado 777590" d="M547.459,637.86h-.012l-70.473-.688a1.241,1.241,0,0,1-1.22-1.391c.059-.479,6.064-48.018,25.762-75.518-.159-4.322-1.851-41.116-13.806-55.9-13.217-16.348-9.381-75.036-9.211-77.526a1.223,1.223,0,0,1,1.291-1.156c.31.017,31.342,1.217,42-9.493a11.155,11.155,0,0,0,3.459-8.8,1.24,1.24,0,0,1,1.239-1.3h21.658a1.241,1.241,0,0,1,1.241,1.245l-.687,229.3a1.241,1.241,0,0,1-1.241,1.237M478.4,634.7l67.818.663.679-226.8H527.736a13.669,13.669,0,0,1-4.188,9.373c-10.3,10.346-36.581,10.387-42.646,10.258-.482,8.535-2.879,60.239,8.735,74.6,13.178,16.3,14.328,56.127,14.371,57.815a1.249,1.249,0,0,1-.236.76c-17.647,24.34-24.224,65.321-25.369,73.33" transform="translate(381.828 8674.48)"/>
    <path id="Trazado_777591" data-name="Trazado 777591" d="M542.177,407.583s2.75,14.782,1.032,19.251-19.939,14.782-22.346,27.5,12.377,85.255,12.377,102.1S518.8,636.88,518.8,636.88" transform="translate(374.39 8674.222)" fill="#fff"/>
    <path id="Trazado_777592" data-name="Trazado 777592" d="M518.541,637.861a1.263,1.263,0,0,1-.275-.031,1.242,1.242,0,0,1-.936-1.485c.144-.635,14.408-63.655,14.408-80.169,0-7.257-2.805-25.151-5.776-44.1-3.92-25-7.974-50.857-6.578-58.236,1.654-8.742,10.165-16.183,16.38-21.615,2.85-2.491,5.542-4.844,6.026-6.1,1.306-3.4-.346-14.563-1.093-18.579a1.241,1.241,0,1,1,2.44-.454c.289,1.549,2.762,15.262.97,19.924-.7,1.832-3.223,4.033-6.708,7.079-5.943,5.194-14.081,12.308-15.576,20.207-1.316,6.956,2.885,33.75,6.592,57.39,2.985,19.044,5.806,37.03,5.806,44.48,0,16.791-13.878,78.116-14.47,80.718a1.241,1.241,0,0,1-1.209.966" transform="translate(374.649 8674.48)"/>
    <path id="Trazado_777593" data-name="Trazado 777593" d="M435.946,653.864c9.316-24.759,21.241-186.4,20.432-201.362a24.463,24.463,0,0,1,6.509-17.84c2.989-3.154,6.559-4.964,9.795-4.964a8.526,8.526,0,0,1,5.807,2.293c7.67,6.848,6.281,37.693,4.669,73.408l-.267,5.975c-1.642,36.944-24.4,132.219-26.967,142.873Z" transform="translate(388.703 8670.401)" fill="#fff"/>
    <path id="Trazado_777594" data-name="Trazado 777594" d="M472.287,430.68a7.318,7.318,0,0,1,4.981,1.977c7.231,6.457,5.787,38.5,4.256,72.43l-.268,5.973c-1.595,35.9-23.231,127.217-26.7,141.669l-8.187-.157-9.1-.175c5.117-16.278,10.374-67.752,13.194-98.766,4.019-44.2,7.24-92.557,6.76-101.455a23.2,23.2,0,0,1,6.17-16.919c2.756-2.908,6-4.576,8.894-4.576m0-2.482c-8.736,0-18.235,11.287-17.543,24.111.88,16.282-11.86,185.808-21.084,202.5l12.662.243,10.179.2S481.979,550.7,483.736,511.17s3.73-72.735-4.815-80.364a9.77,9.77,0,0,0-6.634-2.608" transform="translate(389.097 8670.66)"/>
    <path id="Trazado_777595" data-name="Trazado 777595" d="M467.421,586.272s2.764,18.365-17.191,93.826" transform="translate(386.235 8643.354)" fill="#fff"/>
    <path id="Trazado_777596" data-name="Trazado 777596" d="M449.971,681.08a1.241,1.241,0,0,1-1.2-1.558c19.574-74.016,17.19-93.144,17.163-93.328a1.241,1.241,0,0,1,2.455-.366c.114.76,2.574,19.479-17.219,94.329a1.241,1.241,0,0,1-1.2.923" transform="translate(386.495 8643.613)"/>
    <path id="Trazado_777597" data-name="Trazado 777597" d="M582.738,701.472l-2.708-8.714-5.2-16.725,46.948,5.068,13.555,1.463Z" transform="translate(364.711 8627.849)" fill="#fff"/>
    <path id="Trazado_777598" data-name="Trazado 777598" d="M582.478,702.454a1.242,1.242,0,0,1-1.185-.873l-7.907-25.44a1.241,1.241,0,0,1,1.319-1.6l60.5,6.532a1.24,1.24,0,0,1,.287,2.4L582.9,702.38a1.247,1.247,0,0,1-.42.074m-6.161-25.245,6.961,22.4,46.306-16.647Z" transform="translate(364.97 8628.107)"/>
    <path id="Trazado_777689" data-name="Trazado 777689" d="M0,12.808,41.448,0" transform="translate(945.042 9308.95)" fill="#fff"/>
    <path id="Trazado_777599" data-name="Trazado 777599" d="M581.221,695.948a1.241,1.241,0,0,1-.366-2.427L622.3,680.714a1.241,1.241,0,1,1,.732,2.372l-41.448,12.809a1.248,1.248,0,0,1-.366.054" transform="translate(363.822 8627.05)"/>
    <path id="Trazado_777600" data-name="Trazado 777600" d="M633.11,636.191s-5.844-47.784-25.783-75.286c0,0,1.032-40.909,14.095-57.067s8.938-76.661,8.938-76.661-47.785,2.063-46.753-19.6H561.949l.688,229.3Z" transform="translate(366.937 8674.222)" fill="#fff"/>
    <path id="Trazado_777601" data-name="Trazado 777601" d="M562.377,637.861a1.241,1.241,0,0,1-1.241-1.237l-.687-229.3a1.241,1.241,0,0,1,1.241-1.245h21.658a1.24,1.24,0,0,1,1.239,1.3,11.151,11.151,0,0,0,3.458,8.8c10.659,10.71,41.691,9.511,42,9.493a1.241,1.241,0,0,1,1.291,1.156c.17,2.491,4.006,61.178-9.212,77.526-11.955,14.786-13.646,51.581-13.805,55.9,19.7,27.5,25.7,75.039,25.761,75.518a1.242,1.242,0,0,1-1.22,1.391l-70.472.688Zm.558-229.3.679,226.8,67.817-.663c-1.147-8.01-7.728-49-25.368-73.33a1.247,1.247,0,0,1-.236-.76c.042-1.688,1.193-41.518,14.37-57.815,11.615-14.364,9.218-66.069,8.736-74.6-6.064.127-32.347.088-42.646-10.258a13.664,13.664,0,0,1-4.188-9.373Z" transform="translate(367.196 8674.48)"/>
    <path id="Trazado_777602" data-name="Trazado 777602" d="M577.822,407.583s-2.75,14.782-1.032,19.251,19.939,14.782,22.346,27.5-12.376,85.255-12.376,102.1S601.2,636.88,601.2,636.88" transform="translate(364.47 8674.222)" fill="#fff"/>
    <path id="Trazado_777603" data-name="Trazado 777603" d="M600.939,637.861a1.241,1.241,0,0,1-1.209-.966c-.591-2.6-14.469-63.927-14.469-80.718,0-7.45,2.82-25.436,5.806-44.48,3.707-23.64,7.908-50.434,6.592-57.389-1.494-7.9-9.633-15.013-15.576-20.207-3.485-3.047-6-5.248-6.708-7.08-1.793-4.661.681-18.374.97-19.923a1.241,1.241,0,1,1,2.44.454c-.747,4.016-2.4,15.183-1.093,18.578.484,1.259,3.176,3.612,6.026,6.1,6.214,5.432,14.726,12.871,16.38,21.614,1.4,7.378-2.657,33.232-6.578,58.236-2.971,18.944-5.776,36.839-5.776,44.1,0,16.515,14.264,79.533,14.408,80.169a1.242,1.242,0,0,1-.936,1.485,1.264,1.264,0,0,1-.276.031" transform="translate(364.729 8674.48)"/>
    <path id="Trazado_777604" data-name="Trazado 777604" d="M659.167,654.248c-2.568-10.654-25.325-105.93-26.967-142.873l-.269-5.983c-1.609-35.711-3-66.554,4.671-73.4a8.524,8.524,0,0,1,5.807-2.292c3.236,0,6.807,1.808,9.795,4.964a24.456,24.456,0,0,1,6.509,17.839c-.808,14.963,11.118,176.6,20.432,201.362Z" transform="translate(355.065 8670.401)" fill="#fff"/>
    <path id="Trazado_777605" data-name="Trazado 777605" d="M642.151,428.2v2.482c2.9,0,6.137,1.668,8.891,4.576a23.2,23.2,0,0,1,6.171,16.92c-.481,8.9,2.741,57.254,6.76,101.455,2.82,31.015,8.077,82.488,13.194,98.766l-9.1.175-8.187.157c-3.469-14.451-25.1-105.768-26.7-141.669l-.268-5.971c-1.53-33.928-2.975-65.975,4.256-72.432a7.322,7.322,0,0,1,4.981-1.977Zm0,0a9.77,9.77,0,0,0-6.634,2.608c-8.545,7.629-6.572,40.83-4.815,80.364s27.234,144.078,27.234,144.078l10.179-.2,12.662-.243c-9.225-16.693-21.964-186.218-21.084-202.5.693-12.824-8.807-24.113-17.543-24.111" transform="translate(355.325 8670.66)"/>
    <path id="Trazado_777606" data-name="Trazado 777606" d="M654.144,586.272s-3.743,17.334,16.213,92.8" transform="translate(351.059 8643.354)" fill="#fff"/>
    <path id="Trazado_777607" data-name="Trazado 777607" d="M670.095,680.049a1.241,1.241,0,0,1-1.2-.923c-19.8-74.888-16.382-92.654-16.226-93.374a1.24,1.24,0,0,1,2.426.518c-.05.253-3.3,18.489,16.2,92.221a1.241,1.241,0,0,1-1.2,1.558" transform="translate(351.32 8643.613)"/>
  </g>
</svg>
