<svg xmlns="http://www.w3.org/2000/svg" width="444" height="343" viewBox="0 0 444 343">
  <g id="Grupo_1066305" data-name="Grupo 1066305" transform="translate(6740 9660)">
    <g id="Grupo_1066288" data-name="Grupo 1066288">
      <path id="Figura_16_Punto_lado_ingles" data-name="Figura 16_Punto_lado_ingles" d="M20,0H424a20,20,0,0,1,20,20V343a0,0,0,0,1,0,0H0a0,0,0,0,1,0,0V20A20,20,0,0,1,20,0Z" transform="translate(-6740 -9660)" fill="#fff"/>
      <g id="Grupo_1066220" data-name="Grupo 1066220" transform="translate(-18.358 126.839)">
        <path id="Trazado_777367" data-name="Trazado 777367" d="M92.963.727C86.269,2.7,79.544,4.591,72.738,6.2c-3.4.8-6.815,1.53-10.253,2.161q-2.636.483-5.288.886-1.2.183-2.413.346c-.4.054-.806.106-1.209.158-.793.1.436-.05-.359.045l-.727.085a85.919,85.919,0,0,1-16.011.335c-2.812-.2-5.618-.5-8.413-.861l-.6-.08c-.449-.06-.075-.01.013,0q-.548-.076-1.1-.155-1.147-.166-2.291-.348-2.078-.33-4.149-.71A134.584,134.584,0,0,1,2.92,3.923,2.294,2.294,0,0,0,.1,5.454,2.3,2.3,0,0,0,1.729,8.2,130.747,130.747,0,0,0,16.8,11.964,169.27,169.27,0,0,0,34.4,14.482a84.868,84.868,0,0,0,15.7.092,175.413,175.413,0,0,0,21.047-3.436c7.78-1.732,15.448-3.874,23.077-6.122A2.214,2.214,0,0,0,95.8,2.3,2.378,2.378,0,0,0,92.963.727" transform="translate(-6451.881 -9710.272) rotate(-11)" fill="#45d3ff"/>
        <path id="Trazado_777368" data-name="Trazado 777368" d="M318.708,122.965c-2.237-15.789-8.184-31.573-19.549-43.235-13.755-14.117-33.745-20.7-53.214-25.077s-39.62-7.2-57.53-15.88C176.832,33.156,166.562,25.248,155.1,19.4,138.693,11.033,120.313,7.118,102.041,4.42A345.148,345.148,0,0,0,44.2.418C33.463.651,22.025,1.862,12.52,6.13A179.664,179.664,0,0,1,8.873,40.938c-6.682,34-15.648,100.818,3.279,107.635s31.477-40.32,32.436-40.513c12.665-2.548,42.187,10.891,42.187,10.891s66.266,25.678,92.081,27.678S267.337,172.9,287.389,166.1c25.957-8.8,23.4-10.427,32.307-12.726a162.554,162.554,0,0,0-.988-30.407" transform="translate(-6673.362 -9698.496) rotate(-11)" fill="#f7d6cd"/>
        <path id="Trazado_777369" data-name="Trazado 777369" d="M305.382,113.957c.105-.162-.105-.447,0-.608,12.387-19.8,10-45.62,7.589-68.811-11.282,1.481-6.693,1.671-37.451,12.336C235.968,70.587,51.153,1.243,32.724.224,32.159.192,19.215,47.554.288,40.736c0,0,39.759,16.08,105.259,23.824,52.435,6.2,161.628,37.867,199.834,49.4" transform="translate(-6641.14 -9594.903) rotate(-11)" fill="#da8666"/>
        <path id="Trazado_777370" data-name="Trazado 777370" d="M32.882,107.162,15.17,36.243S20.43-1.669,5.087.1s9.228,38.16,9.228,38.16" transform="translate(-6454.158 -9715.173) rotate(-11)" fill="none" stroke="#000" stroke-linecap="round" stroke-miterlimit="10" stroke-width="9"/>
        <path id="Trazado_777371" data-name="Trazado 777371" d="M4.544,1.723l25.263,99.692L.106,2.816c-.771-2.9,3.59-4,4.437-1.093" transform="translate(-6399.294 -9606.428) rotate(-11)"/>
        <path id="Trazado_777372" data-name="Trazado 777372" d="M312.033,75.7S170.76,31.567,105.259,23.823,0,0,0,0" transform="translate(-6633.084 -9554.971) rotate(-11)" fill="none" stroke="#000" stroke-linecap="round" stroke-miterlimit="10" stroke-width="9"/>
        <path id="Trazado_777373" data-name="Trazado 777373" d="M0,0S47.918,13.1,109.721,31.758,218.157,59.858,241.434,58.8" transform="translate(-6608.975 -9600.929) rotate(-11)" fill="none" stroke="#000" stroke-linecap="round" stroke-miterlimit="10" stroke-width="9"/>
        <path id="Trazado_777374" data-name="Trazado 777374" d="M11.1.076s4.534,18.27-2.147,52.272S-6.694,153.165,12.232,159.982s33.64-38.918,32.436-40.513c0,0-8.173-4.711-13.876.8-6.764,6.533-10.665,14.491-9.873,24.9" transform="translate(-6675.618 -9709.68) rotate(-11)" fill="none" stroke="#000" stroke-linecap="round" stroke-miterlimit="10" stroke-width="9"/>
        <path id="Trazado_777375" data-name="Trazado 777375" d="M4.46,26.643q.789-1.275,1.7-2.472c.082-.108.511-.655.222-.293.137-.171.276-.34.416-.51q.512-.616,1.046-1.213c1.327-1.485,2.746-2.891,4.186-4.273A108.076,108.076,0,0,0,20.5,9.328a32.862,32.862,0,0,0,4-5.847A2.239,2.239,0,0,0,23.657.439a2.356,2.356,0,0,0-3.138.775A26.953,26.953,0,0,1,19,3.783q-.387.58-.8,1.143-.221.3-.449.6l-.172.221c-.382.491.287-.343-.111.136-1.262,1.523-2.616,2.964-4.027,4.358-2.865,2.832-5.913,5.5-8.617,8.477A39.281,39.281,0,0,0,.476,24.376a2.221,2.221,0,0,0,.846,3.042,2.369,2.369,0,0,0,3.138-.775" transform="translate(-6482.572 -9601.059) rotate(-11)" fill="#45d3ff"/>
        <path id="Trazado_777376" data-name="Trazado 777376" d="M20.029.778Q9.983,12.241.508,24.156A2.2,2.2,0,0,0,1.354,27.2a2.4,2.4,0,0,0,3.138-.775l.095-.118.3-.376.6-.752q.6-.752,1.208-1.5,1.134-1.406,2.277-2.806Q11.3,18.023,13.656,15.2,18.41,9.517,23.3,3.939A2.212,2.212,0,0,0,23.278.8,2.384,2.384,0,0,0,20.029.778" transform="translate(-6516.34 -9603.396) rotate(-11)" fill="#45d3ff"/>
        <path id="Trazado_777377" data-name="Trazado 777377" d="M21.035.782Q11.052,11.383.814,21.757A2.2,2.2,0,0,0,.837,24.9a2.394,2.394,0,0,0,3.249.022Q14.322,14.545,24.306,3.943A2.2,2.2,0,0,0,24.284.8,2.39,2.39,0,0,0,21.035.782" transform="translate(-6559.506 -9603.127) rotate(-11)" fill="#45d3ff"/>
        <path id="Trazado_777378" data-name="Trazado 777378" d="M19.788.46A94.731,94.731,0,0,0,.779,17.724,2.219,2.219,0,0,0,.8,20.863a2.382,2.382,0,0,0,3.249.022,91.979,91.979,0,0,1,8.59-9Q14.921,9.8,17.346,7.862q.606-.483,1.22-.957.307-.237.616-.471c.084-.064.579-.436.478-.36s.4-.292.484-.354q.313-.229.629-.454.677-.484,1.362-.956a2.21,2.21,0,0,0,.8-3.031A2.39,2.39,0,0,0,19.788.46" transform="translate(-6593.571 -9606.307) rotate(-11)" fill="#45d3ff"/>
        <path id="Trazado_777379" data-name="Trazado 777379" d="M21.228,128.451s27.9-13.68,16.271-33.872S2.166,67.978,1.384,63.122C-3.873,30.489,11.71.774,33.959.232" transform="translate(-6488.173 -9696.731) rotate(-11)" fill="none" stroke="#45d3ff" stroke-linecap="round" stroke-linejoin="round" stroke-width="7"/>
        <path id="Trazado_777380" data-name="Trazado 777380" d="M318.708,122.965c-2.237-15.789-8.184-31.573-19.549-43.235-13.755-14.117-33.745-20.7-53.214-25.077s-39.62-7.2-57.53-15.88C176.832,33.156,166.562,25.248,155.1,19.4,138.693,11.033,120.313,7.118,102.041,4.42A345.148,345.148,0,0,0,44.2.418C33.463.651,22.025,1.862,12.52,6.13A179.664,179.664,0,0,1,8.873,40.938c-6.682,34-15.648,100.818,3.279,107.635s31.477-40.32,32.436-40.513c12.665-2.548,42.187,10.891,42.187,10.891s66.266,25.678,92.081,27.678S267.337,172.9,287.389,166.1c25.957-8.8,23.4-10.427,32.307-12.726a162.554,162.554,0,0,0-.988-30.407" transform="translate(-6673.362 -9698.496) rotate(-11)" fill="#f7d6cd"/>
        <path id="Trazado_777381" data-name="Trazado 777381" d="M305.382,113.957c.105-.162-.105-.447,0-.608,12.387-19.8,10-45.62,7.589-68.811-11.282,1.481-6.693,1.671-37.451,12.336C235.968,70.587,51.153,1.243,32.724.224,32.159.192,19.215,47.554.288,40.736c0,0,39.759,16.08,105.259,23.824,52.435,6.2,161.628,37.867,199.834,49.4" transform="translate(-6641.14 -9594.903) rotate(-11)" fill="#da8666"/>
        <path id="Trazado_777382" data-name="Trazado 777382" d="M35.208,111.615a2.324,2.324,0,0,1-2.247-1.728L16.173,42.665a2.335,2.335,0,0,1-1.465-.975A153.751,153.751,0,0,1,6.171,27.122C.55,16.088-1.169,8.592.915,4.206A7.275,7.275,0,0,1,7.1.131,9.4,9.4,0,0,1,15,2.756c8.031,7.87,5.375,31.341,4.812,35.63L37.427,108.9a2.184,2.184,0,0,1-1.692,2.657,2.351,2.351,0,0,1-.527.056M8.491,4.5A6.35,6.35,0,0,0,7.7,4.54c-1.747.2-2.311.942-2.607,1.564-2.315,4.874,4.367,18.6,10.5,28.6.808-8.627,1.116-24-3.843-28.859A4.481,4.481,0,0,0,8.491,4.5" transform="translate(-6456.854 -9716.925) rotate(-11)"/>
        <path id="Trazado_777383" data-name="Trazado 777383" d="M4.544,1.723l25.263,99.692L.106,2.816c-.771-2.9,3.59-4,4.437-1.093" transform="translate(-6399.294 -9606.428) rotate(-11)"/>
        <path id="Trazado_777384" data-name="Trazado 777384" d="M314.363,80.156a2.387,2.387,0,0,1-.7-.109c-1.411-.441-141.811-44.156-206.342-51.785C42.26,20.57,1.852,4.443,1.452,4.282A2.22,2.22,0,0,1,.184,1.375,2.3,2.3,0,0,1,3.175.189c.4.16,40.269,16.056,104.646,23.667,64.969,7.681,205.79,51.527,207.2,51.968a2.206,2.206,0,0,1-.663,4.331" transform="translate(-6635.782 -9556.724) rotate(-11)"/>
        <path id="Trazado_777385" data-name="Trazado 777385" d="M239.39,63.335c-25.031-.171-70.105-9.738-128.013-27.224C50.316,17.672,2.2,4.5,1.717,4.371A2.245,2.245,0,0,1,.095,1.629,2.28,2.28,0,0,1,2.91.1c.48.132,48.657,13.318,109.782,31.776,61.056,18.436,107.545,28,130.915,26.944a2.305,2.305,0,0,1,2.433,2.113,2.212,2.212,0,0,1-2.153,2.321q-2.127.1-4.5.081" transform="translate(-6611.673 -9602.681) rotate(-11)"/>
        <path id="Trazado_777386" data-name="Trazado 777386" d="M18.348,165.131a13.681,13.681,0,0,1-4.574-.836C4.292,160.88.118,145.9,1.011,118.493c.834-25.569,5.874-53.522,8-64.354C15.5,21.113,11.228,2.976,11.183,2.8a2.187,2.187,0,0,1,1.7-2.651,2.333,2.333,0,0,1,2.767,1.676c.19.765,4.573,19.127-2.123,53.2-2.109,10.73-7.1,38.413-7.925,63.669-.788,24.183,2.664,38.9,9.722,41.444,3.022,1.088,6.057.567,9.277-1.594,10.937-7.342,18.9-29.983,20.02-35.509-2.122-.874-6.594-2.123-9.878,1.048-6.883,6.649-9.9,14.233-9.217,23.187a2.211,2.211,0,0,1-2.123,2.349,2.3,2.3,0,0,1-2.46-2.084c-.784-10.308,2.66-19.013,10.529-26.612a12.238,12.238,0,0,1,11.1-3.068,18.793,18.793,0,0,1,5.571,1.948l.411.236.282.374c.479.634,1.6,2.12-3.056,14.042-1.833,4.694-5.72,13.611-11.156,20.589-3.821,4.905-9.492,10.135-16.275,10.089" transform="translate(-6678.319 -9711.431) rotate(-11)"/>
        <path id="Trazado_777387" data-name="Trazado 777387" d="M4.46,26.643q.789-1.275,1.7-2.472c.082-.108.511-.655.222-.293.137-.171.276-.34.416-.51q.512-.616,1.046-1.213c1.327-1.485,2.746-2.891,4.186-4.273A108.076,108.076,0,0,0,20.5,9.328a32.862,32.862,0,0,0,4-5.847A2.239,2.239,0,0,0,23.657.439a2.356,2.356,0,0,0-3.138.775A26.953,26.953,0,0,1,19,3.783q-.387.58-.8,1.143-.221.3-.449.6l-.172.221c-.382.491.287-.343-.111.136-1.262,1.523-2.616,2.964-4.027,4.358-2.865,2.832-5.913,5.5-8.617,8.477A39.281,39.281,0,0,0,.476,24.376a2.221,2.221,0,0,0,.846,3.042,2.369,2.369,0,0,0,3.138-.775" transform="translate(-6482.572 -9601.059) rotate(-11)" fill="#45d3ff"/>
        <path id="Trazado_777388" data-name="Trazado 777388" d="M20.029.778Q9.983,12.241.508,24.156A2.2,2.2,0,0,0,1.354,27.2a2.4,2.4,0,0,0,3.138-.775l.095-.118.3-.376.6-.752q.6-.752,1.208-1.5,1.134-1.406,2.277-2.806Q11.3,18.023,13.656,15.2,18.41,9.517,23.3,3.939A2.212,2.212,0,0,0,23.278.8,2.384,2.384,0,0,0,20.029.778" transform="translate(-6516.34 -9603.396) rotate(-11)" fill="#45d3ff"/>
        <path id="Trazado_777389" data-name="Trazado 777389" d="M21.035.782Q11.052,11.383.814,21.757A2.2,2.2,0,0,0,.837,24.9a2.394,2.394,0,0,0,3.249.022Q14.322,14.545,24.306,3.943A2.2,2.2,0,0,0,24.284.8,2.39,2.39,0,0,0,21.035.782" transform="translate(-6559.506 -9603.127) rotate(-11)" fill="#45d3ff"/>
        <path id="Trazado_777390" data-name="Trazado 777390" d="M19.788.46A94.731,94.731,0,0,0,.779,17.724,2.219,2.219,0,0,0,.8,20.863a2.382,2.382,0,0,0,3.249.022,91.979,91.979,0,0,1,8.59-9Q14.921,9.8,17.346,7.862q.606-.483,1.22-.957.307-.237.616-.471c.084-.064.579-.436.478-.36s.4-.292.484-.354q.313-.229.629-.454.677-.484,1.362-.956a2.21,2.21,0,0,0,.8-3.031A2.39,2.39,0,0,0,19.788.46" transform="translate(-6593.571 -9606.307) rotate(-11)" fill="#45d3ff"/>
        <path id="Trazado_777391" data-name="Trazado 777391" d="M23.035,131.915a1.825,1.825,0,0,1-1.6-.95,1.682,1.682,0,0,1,.757-2.318c.141-.069,14.084-7.036,17.429-17.864,1.382-4.476.747-9.067-1.89-13.644C30.581,84.72,18.539,77.582,10.571,72.859,5.118,69.627,1.826,67.675,1.411,65.1c-3.3-20.477,1.378-41,12.2-53.565C19.807,4.351,27.438.445,35.683.245a1.793,1.793,0,0,1,1.855,1.683A1.723,1.723,0,0,1,35.822,3.7c-7.2.175-13.922,3.659-19.448,10.073C6.177,25.6,1.8,45.087,4.942,64.618c.205,1,4.4,3.489,7.468,5.305,8.292,4.915,20.824,12.343,28.44,25.57,3.129,5.434,3.868,10.929,2.194,16.334-3.787,12.229-18.57,19.6-19.2,19.9a1.808,1.808,0,0,1-.812.185" transform="translate(-6490.264 -9698.096) rotate(-11)" fill="#45d3ff"/>
      </g>
    </g>
  </g>
</svg>
