<svg xmlns="http://www.w3.org/2000/svg" xmlns:xlink="http://www.w3.org/1999/xlink" width="111" height="107.243" viewBox="0 0 111 107.243">
  <defs>
    <clipPath id="clip-path">
      <rect id="Rectángulo_374083" data-name="Rectángulo 374083" width="85" height="85" transform="translate(206 1040)" fill="#fff" stroke="#707070" stroke-width="1"/>
    </clipPath>
  </defs>
  <g id="Grupo_1065651" data-name="Grupo 1065651" transform="translate(-180 -1040)">
    <path id="Trazado_771771" data-name="Trazado 771771" d="M3.029,901.384c-4.854-10.632-9.623-21.763-18.282-29.613S-37.772,860.4-47.38,867.054c-6.449,4.467-9.558,12.294-14.67,18.244-4.391,5.111-10.2,8.763-15.273,13.2s-9.639,10.174-10.116,16.9c-.78,11,9.328,19.569,19.151,24.571a108.718,108.718,0,0,0,54.973,11.61c9.6-.525,35.933-4.308,36.339-17.97.161-5.407-6.641-9.634-9.612-13.5C9.069,914.456,5.973,907.832,3.029,901.384Z" transform="translate(267.481 195.512)" fill="#025157"/>
    <g id="Grupo_1054388" data-name="Grupo 1054388" transform="translate(-1477.32 1041.764)">
      <path id="Trazado_771758" data-name="Trazado 771758" d="M1719.933,176.872c-.182.885-.264,2.007.516,2.607a2.69,2.69,0,0,0,2.063.7c1.4-.258,1.346-1.325,1.433-2.566a4.56,4.56,0,0,0-.191-1.961,1.924,1.924,0,0,0-1.413-1.263,1.886,1.886,0,0,0-1.675.738A4,4,0,0,0,1719.933,176.872Z" transform="translate(-41.887 -116.568)" fill="#f5947a"/>
      <path id="Trazado_771759" data-name="Trazado 771759" d="M1693.235,139.81a1.538,1.538,0,0,0-.07-.525,1.6,1.6,0,0,0-.221-.369l-.538-.74a2.393,2.393,0,0,0-.7-.718,1.544,1.544,0,0,0-1.292-.05,3.429,3.429,0,0,0-1.1.744,4.094,4.094,0,0,0-.978,1.26c-.875,1.919.766,4.314,2.5,5.127C1693.355,145.713,1693.253,141.144,1693.235,139.81Z" transform="translate(-16.752 -87.181)" fill="#f5947a"/>
      <path id="Trazado_771760" data-name="Trazado 771760" d="M1672.416,97.065a1.971,1.971,0,0,0-.572-.742,9.418,9.418,0,0,0-3.04-2.169,1.5,1.5,0,0,0-1.11-.061,1.646,1.646,0,0,0-.724,1.5c-.083,1.526.495,3.719,2.291,4.036C1670.473,99.846,1672.925,98.534,1672.416,97.065Z" transform="translate(0 -52.875)" fill="#f5947a"/>
      <path id="Trazado_771761" data-name="Trazado 771761" d="M1690.61,45.548c-.439-.847-1.187-1.7-2.14-1.654a3.006,3.006,0,0,0-1.638.819,4.065,4.065,0,0,0-1.377,1.552,3.483,3.483,0,0,0-.2,1.04A3.3,3.3,0,0,0,1689.113,51C1691.53,50.505,1691.491,47.247,1690.61,45.548Z" transform="translate(-14.492 -13.152)" fill="#f5947a"/>
      <path id="Trazado_771762" data-name="Trazado 771762" d="M1733.282,30.8a3.441,3.441,0,0,0,.345-.975,3.212,3.212,0,0,0-.284-1.546,1.55,1.55,0,0,0-.605-.877,1.476,1.476,0,0,0-1.341.169,16.573,16.573,0,0,0-3.626,2.832,3.287,3.287,0,0,0-.615.7,2.247,2.247,0,0,0-.273,1.073c-.042,1.475,1.267,3.1,2.861,2.587C1731.555,34.178,1732.528,32.4,1733.282,30.8Z" transform="translate(-47.492 0)" fill="#f5947a"/>
      <path id="Trazado_771763" data-name="Trazado 771763" d="M1715.629,93.454a3.01,3.01,0,0,0,.662-.8,1.455,1.455,0,0,0-.507-1.475,5.064,5.064,0,0,0-1.837-1.084,2.058,2.058,0,0,0-1.334-.134,1.556,1.556,0,0,0-.908.976,4.438,4.438,0,0,0-.2,1.36c-.041,1.118-.015,3.135,1.478,3.332C1714.38,95.807,1714.9,94.272,1715.629,93.454Z" transform="translate(-35.299 -49.611)" fill="#f5947a"/>
      <path id="Trazado_771764" data-name="Trazado 771764" d="M1755.448,78.825a2.137,2.137,0,0,0-1.456-2.078,3.529,3.529,0,0,0-1.639-.019,4.262,4.262,0,0,0-1.3.4,3.708,3.708,0,0,0-1.689,2.419,3.5,3.5,0,0,0-.075,1.651c.369,1.59,2.36,2.338,3.837,1.869C1754.783,82.537,1755.377,80.354,1755.448,78.825Z" transform="translate(-65.2 -39.108)" fill="#f5947a"/>
      <path id="Trazado_771765" data-name="Trazado 771765" d="M1781.446,121.187a4.676,4.676,0,0,0,.116-1.316,2.49,2.49,0,0,0-.423-1.681,2.413,2.413,0,0,0-1.786-.566,4.9,4.9,0,0,0-1.481.119,1.633,1.633,0,0,0-1.172,2.3,3.787,3.787,0,0,0,2.4,2.423A1.98,1.98,0,0,0,1781.446,121.187Z" transform="translate(-86.87 -71.587)" fill="#f5947a"/>
      <path id="Trazado_771766" data-name="Trazado 771766" d="M1736.9,132.044a4.137,4.137,0,0,0-1.06-1.977,4.713,4.713,0,0,0-2.732-1.967.821.821,0,0,0-1.07.6,3.628,3.628,0,0,0,.087,2.257,9.263,9.263,0,0,0,1.061,2.03c.452.7,1.244,1.868,2.237,1.608A2.547,2.547,0,0,0,1736.9,132.044Z" transform="translate(-51.468 -79.881)" fill="#f5947a"/>
      <path id="Trazado_771767" data-name="Trazado 771767" d="M1776.033,162.2a2.282,2.282,0,0,0-.793-1.823,2.673,2.673,0,0,0-1.723-.353,2.352,2.352,0,0,0-1.355.389,2.385,2.385,0,0,0-.7,1.717,5.814,5.814,0,0,0,.134,2.108c.3,1.073,1.445,2.486,2.652,1.779A4.611,4.611,0,0,0,1776.033,162.2Z" transform="translate(-82.795 -105.193)" fill="#f5947a"/>
    </g>
    <g id="Enmascarar_grupo_134" data-name="Enmascarar grupo 134" clip-path="url(#clip-path)">
      <g id="ropa" transform="translate(205.664 1039.747)">
        <path id="Trazado_775521" data-name="Trazado 775521" d="M8.6,23.091V80.035a3.422,3.422,0,0,0,3.124,3.454,3.347,3.347,0,0,0,3.569-3.339V22.087H9.6a1,1,0,0,0-1,1Z" fill="#ffea92"/>
        <path id="Trazado_775522" data-name="Trazado 775522" d="M11.947,84.165c-.09,0-.179,0-.27-.009a4.083,4.083,0,0,1-3.75-4.122V23.091A1.675,1.675,0,0,1,9.6,21.418H15.29a.669.669,0,0,1,.669.669V80.15a4.031,4.031,0,0,1-1.272,2.931,3.978,3.978,0,0,1-2.74,1.085ZM9.6,22.756a.335.335,0,0,0-.335.335V80.035a2.744,2.744,0,0,0,2.5,2.786,2.677,2.677,0,0,0,2.857-2.671V22.756Z"/>
        <path id="Trazado_775523" data-name="Trazado 775523" d="M20.208,11.323l13.347,4.985L14.416,67.546a.9.9,0,0,1-1.16.529L1.6,63.721a.9.9,0,0,1-.529-1.16Zm63.857,52.37L72.408,68.047a.9.9,0,0,1-1.16-.529L52.109,16.281,65.455,11.3,84.594,62.533a.9.9,0,0,1-.529,1.16Z" fill="#4671c6"/>
        <path id="Trazado_775524" data-name="Trazado 775524" d="M13.557,68.784a1.565,1.565,0,0,1-.548-.1L1.356,64.329a1.573,1.573,0,0,1-.921-2.022L19.577,11.087a.669.669,0,0,1,.861-.393l13.342,4.986a.669.669,0,0,1,.393.861L15.031,67.763A1.573,1.573,0,0,1,13.557,68.784Zm-.08-1.353a.234.234,0,0,0,.3-.136L32.685,16.7,20.6,12.181,1.688,62.776a.234.234,0,0,0,.137.3Zm58.637,1.353a1.573,1.573,0,0,1-1.472-1.021L51.5,16.542a.669.669,0,0,1,.393-.861l13.342-4.986a.669.669,0,0,1,.861.393L85.236,62.307a1.573,1.573,0,0,1-.921,2.022L72.662,68.684A1.567,1.567,0,0,1,72.114,68.784ZM52.986,16.7,71.894,67.293a.234.234,0,0,0,.3.136l11.653-4.355a.234.234,0,0,0,.136-.3L65.074,12.181Z"/>
        <path id="Trazado_775525" data-name="Trazado 775525" d="M61.436,8.547h-18.6V68.075a2.985,2.985,0,0,0,2.985,2.985h17.77a1.8,1.8,0,0,0,1.8-1.921L63.763,43.951l1.969-30.824a4.306,4.306,0,0,0-4.3-4.58Z" fill="#4671c6"/>
        <path id="Trazado_775526" data-name="Trazado 775526" d="M42.839,8.547h-18.6a4.306,4.306,0,0,0-4.3,4.581l1.969,30.824L20.284,69.139a1.8,1.8,0,0,0,1.8,1.92h17.77a2.985,2.985,0,0,0,2.985-2.985Z" fill="#4671c6"/>
        <path id="Trazado_775527" data-name="Trazado 775527" d="M63.593,71.729H45.823a3.659,3.659,0,0,1-3.654-3.654V8.547a.669.669,0,0,1,.669-.669h18.6A4.975,4.975,0,0,1,66.4,13.171L64.434,43.952,66.059,69.1a2.472,2.472,0,0,1-2.467,2.632ZM43.508,9.216V68.075a2.318,2.318,0,0,0,2.316,2.315h17.77a1.134,1.134,0,0,0,1.132-1.207L63.1,44a.735.735,0,0,1,0-.086l1.968-30.825a3.637,3.637,0,0,0-3.629-3.869Z"/>
        <path id="Trazado_775528" data-name="Trazado 775528" d="M39.854,71.729H22.084A2.472,2.472,0,0,1,19.617,69.1l1.625-25.145L19.276,13.171a4.976,4.976,0,0,1,4.965-5.293h18.6a.669.669,0,0,1,.669.669V68.075a3.658,3.658,0,0,1-3.654,3.654ZM24.241,9.216a3.637,3.637,0,0,0-3.63,3.869l1.97,30.824a.668.668,0,0,1,0,.086L20.953,69.183a1.134,1.134,0,0,0,1.131,1.207h17.77a2.318,2.318,0,0,0,2.315-2.315V9.216Z"/>
        <path id="Trazado_775529" data-name="Trazado 775529" d="M33.071,5.241,26.1,7.826a.541.541,0,0,0-.34.708L29.316,17.4h2.251a.55.55,0,0,1,.414.956l-2.32,2.032a.523.523,0,0,0-.1.684L42.838,41.832Zm19.537,0,6.971,2.585a.542.542,0,0,1,.34.706L56.363,17.4H54.111a.55.55,0,0,0-.414.956l2.319,2.032a.523.523,0,0,1,.1.684L42.838,41.832Z" fill="#4671c6"/>
        <path id="Trazado_775530" data-name="Trazado 775530" d="M33.071,5.241H52.606L42.838,41.832Z" fill="#a4c9ff"/>
        <path id="Trazado_775531" data-name="Trazado 775531" d="M38.967,47.119a2.156,2.156,0,1,1,2.156-2.156,2.156,2.156,0,0,1-2.156,2.156Zm0-2.972a.817.817,0,1,0,.817.817.817.817,0,0,0-.817-.817Zm0,11.246a2.156,2.156,0,1,1,2.156-2.155,2.156,2.156,0,0,1-2.156,2.155Zm0-2.972a.817.817,0,1,0,.817.817.817.817,0,0,0-.817-.817Zm3.871-9.92a.669.669,0,0,1-.564-.309L28.993,21.428a1.193,1.193,0,0,1,.227-1.548l2.072-1.815H29.316a.669.669,0,0,1-.621-.42L25.139,8.781a1.177,1.177,0,0,1,.016-.922,1.238,1.238,0,0,1,.713-.661L32.84,4.614a.669.669,0,0,1,.879.455l9.766,36.59a.669.669,0,0,1-.646.842ZM30.189,20.812,41.081,37.841,32.614,6.124,26.434,8.415l3.332,8.311h1.8a1.258,1.258,0,0,1,1.2.808,1.19,1.19,0,0,1-.34,1.322Z"/>
        <path id="Trazado_775532" data-name="Trazado 775532" d="M42.838,42.5a.669.669,0,0,1-.646-.842L51.96,5.069a.669.669,0,0,1,.879-.455L59.81,7.2a1.238,1.238,0,0,1,.711.661,1.176,1.176,0,0,1,.016.923l-3.554,8.864a.669.669,0,0,1-.621.42H54.386l2.072,1.815a1.193,1.193,0,0,1,.226,1.548L43.4,42.192a.669.669,0,0,1-.564.309ZM53.063,6.124,44.6,37.841,55.489,20.811l-2.232-1.956a1.189,1.189,0,0,1-.34-1.322,1.257,1.257,0,0,1,1.195-.808h1.8l3.333-8.311Z"/>
        <path id="Trazado_775533" data-name="Trazado 775533" d="M42.838,42.5a.669.669,0,0,1-.647-.5L32.424,5.414a.669.669,0,0,1,.647-.842H52.608a.669.669,0,0,1,.647.842L43.485,42A.669.669,0,0,1,42.838,42.5ZM33.942,5.91l8.9,33.326,8.9-33.326ZM60.191,63.04H51.853a2.013,2.013,0,0,1-2.011-2.011V59.725a1.287,1.287,0,0,1,1.285-1.286h9.789A1.287,1.287,0,0,1,62.2,59.725V61.03a2.013,2.013,0,0,1-2.011,2.011Zm-9.011-3.263V61.03a.672.672,0,0,0,.672.672h8.339a.673.673,0,0,0,.672-.672V59.778ZM33.824,63.04H25.486a2.013,2.013,0,0,1-2.011-2.011V59.725a1.287,1.287,0,0,1,1.286-1.286h9.789a1.287,1.287,0,0,1,1.286,1.286V61.03A2.013,2.013,0,0,1,33.824,63.04Zm-9.011-3.263V61.03a.673.673,0,0,0,.672.672h8.338a.673.673,0,0,0,.672-.672V59.778Z"/>
        <path id="Trazado_775534" data-name="Trazado 775534" d="M18.789,2.008H16.295a1,1,0,0,0-1,1V80a3.5,3.5,0,0,1-3.5,3.5h7a3.5,3.5,0,0,0,3.5-3.5V3.012a1,1,0,0,0-1-1Z" fill="#ffea92"/>
        <g id="Grupo_1065660" data-name="Grupo 1065660">
          <path id="Trazado_775535" data-name="Trazado 775535" d="M22.288,9.37H20.079a.669.669,0,0,1,0-1.339h2.209a.669.669,0,1,1,0,1.339Zm0,6.693H20.079a.669.669,0,0,1,0-1.339h2.209a.669.669,0,1,1,0,1.339Zm0,6.693H20.079a.669.669,0,0,1,0-1.339h2.209a.669.669,0,0,1,0,1.339Zm0,6.693H20.079a.669.669,0,0,1,0-1.339h2.209a.669.669,0,1,1,0,1.339Zm0,6.693H20.079a.669.669,0,1,1,0-1.339h2.209a.669.669,0,1,1,0,1.339Zm0,6.693H20.079a.669.669,0,0,1,0-1.339h2.209a.669.669,0,0,1,0,1.339Zm0,6.693H20.079a.669.669,0,0,1,0-1.339h2.209a.669.669,0,0,1,0,1.339Zm0,6.693H20.079a.669.669,0,0,1,0-1.339h2.209a.669.669,0,0,1,0,1.339Zm0,6.693H20.079a.669.669,0,0,1,0-1.339h2.209a.669.669,0,1,1,0,1.339Zm0,6.693H20.079a.669.669,0,0,1,0-1.339h2.209a.669.669,0,1,1,0,1.339Z"/>
        </g>
        <path id="Trazado_775536" data-name="Trazado 775536" d="M31.674,73.256l1.539-3.179L45.044,45.632a3.551,3.551,0,0,1,1.846,4.337L41.408,66.339a3.551,3.551,0,0,1-3.367,2.423H36.326l-3.112,7.179-1.427-1.713a1.452,1.452,0,0,0-.077-.9c-.012-.025-.025-.049-.037-.071Z" fill="#e0ebfc"/>
        <path id="Trazado_775537" data-name="Trazado 775537" d="M33.212,76.611a.669.669,0,0,1-.514-.241l-1.427-1.713a.669.669,0,0,1-.137-.582.787.787,0,0,0-.042-.489s-.019-.037-.02-.039a.669.669,0,0,1,0-.585l13.37-27.622a.669.669,0,0,1,.889-.313,4.223,4.223,0,0,1,2.194,5.154l-5.483,16.37a4.217,4.217,0,0,1-4,2.88H36.765l-2.939,6.776a.669.669,0,0,1-.519.4.652.652,0,0,1-.1.007Zm-.723-2.583.541.65L35.712,68.5a.669.669,0,0,1,.614-.4H38.04a2.878,2.878,0,0,0,2.733-1.966l5.483-16.37a2.885,2.885,0,0,0-.932-3.166L32.4,73.284a2.109,2.109,0,0,1,.086.744Z"/>
        <path id="Trazado_775538" data-name="Trazado 775538" d="M42.54,73.256,41,70.076,29.17,45.632a3.551,3.551,0,0,0-1.846,4.337l5.483,16.371a3.551,3.551,0,0,0,3.367,2.423h1.714L41,75.942l1.427-1.713a1.452,1.452,0,0,1,.077-.9c.01-.025.023-.049.035-.071Z" fill="#e0ebfc"/>
        <circle id="Elipse_4746" data-name="Elipse 4746" cx="1.09" cy="1.09" r="1.09" transform="translate(35.814 64.677)" fill="#4671c6"/>
        <path id="Trazado_775539" data-name="Trazado 775539" d="M41,76.611a.657.657,0,0,1-.1-.007.669.669,0,0,1-.519-.4l-2.94-6.776H36.172a4.217,4.217,0,0,1-4-2.88l-5.482-16.37a4.223,4.223,0,0,1,2.195-5.154.669.669,0,0,1,.889.313l13.37,27.622a.669.669,0,0,1,0,.581.311.311,0,0,1-.016.033.788.788,0,0,0-.047.5.669.669,0,0,1-.137.582L41.515,76.37a.669.669,0,0,1-.513.241ZM28.89,46.592a2.885,2.885,0,0,0-.932,3.166l5.483,16.369a2.878,2.878,0,0,0,2.733,1.966h1.714a.669.669,0,0,1,.614.4l2.681,6.181.541-.65a2.108,2.108,0,0,1,.086-.745Z"/>
        <path id="Trazado_775540" data-name="Trazado 775540" d="M36.9,67.526a1.759,1.759,0,1,1,1.759-1.759A1.759,1.759,0,0,1,36.9,67.526Zm0-2.179a.42.42,0,1,0,.42.42.42.42,0,0,0-.42-.42Z"/>
        <path id="Trazado_775541" data-name="Trazado 775541" d="M38.791,71.3,41.2,70.185a.482.482,0,0,1,.64.234l1.822,3.936-3.28,1.519-1.822-3.936A.482.482,0,0,1,38.791,71.3Z" fill="#f9a7a7"/>
        <path id="Trazado_775542" data-name="Trazado 775542" d="M40.379,76.543a.669.669,0,0,1-.608-.388L37.95,72.218a1.152,1.152,0,0,1,.561-1.528l2.4-1.113a1.151,1.151,0,0,1,1.528.561l1.822,3.936a.669.669,0,0,1-.326.889l-3.28,1.518a.667.667,0,0,1-.281.062Zm-1.138-4.716L40.7,74.985l2.065-.956-1.462-3.158Z"/>
        <path id="Trazado_775543" data-name="Trazado 775543" d="M48.352,76.259a5.273,5.273,0,1,0-2.933,6.857,5.273,5.273,0,0,0,2.933-6.857Zm-3.913,4.412a2.64,2.64,0,1,1,1.468-3.433,2.64,2.64,0,0,1-1.468,3.433Z" fill="#f9a7a7"/>
        <path id="Trazado_775544" data-name="Trazado 775544" d="M43.456,84.167a5.95,5.95,0,1,1,4.92-2.616A5.945,5.945,0,0,1,43.456,84.167Zm0-10.553a4.606,4.606,0,1,0,4.273,2.893,4.606,4.606,0,0,0-4.273-2.893Zm0,7.917a3.313,3.313,0,1,1,1.23-.239,3.313,3.313,0,0,1-1.23.239Zm0-5.281a1.97,1.97,0,1,0,1.938,1.6,1.97,1.97,0,0,0-1.938-1.6Z"/>
        <path id="Trazado_775545" data-name="Trazado 775545" d="M35.422,71.3l-2.4-1.113a.482.482,0,0,0-.64.234l-1.822,3.936,3.28,1.519,1.822-3.936A.482.482,0,0,0,35.422,71.3Z" fill="#f9a7a7"/>
        <path id="Trazado_775546" data-name="Trazado 775546" d="M33.833,76.543a.661.661,0,0,1-.281-.062l-3.278-1.518a.669.669,0,0,1-.326-.888l1.822-3.936a1.153,1.153,0,0,1,1.528-.561L35.7,70.691a1.153,1.153,0,0,1,.561,1.529l-1.822,3.936a.669.669,0,0,1-.609.388Zm-2.391-2.514,2.065.956,1.462-3.158-2.065-.956Z"/>
        <path id="Trazado_775547" data-name="Trazado 775547" d="M28.795,83.116a5.273,5.273,0,1,0-2.933-6.857,5.273,5.273,0,0,0,2.933,6.857Zm-.488-5.878a2.64,2.64,0,1,1,1.468,3.433A2.64,2.64,0,0,1,28.307,77.238Z" fill="#f9a7a7"/>
        <path id="Trazado_775548" data-name="Trazado 775548" d="M30.75,84.165a5.943,5.943,0,1,1,5.923-5.372,5.916,5.916,0,0,1-5.923,5.372ZM29.043,82.5a4.6,4.6,0,1,0-2.52-2.463A4.6,4.6,0,0,0,29.043,82.5Zm1.709-.964a3.308,3.308,0,1,1,3.076-2.078,3.308,3.308,0,0,1-3.076,2.078Zm.007-5.28a1.971,1.971,0,1,0,1.884,1.395,1.974,1.974,0,0,0-1.884-1.395ZM18.789,84.165h-7a.669.669,0,0,1,0-1.339A2.833,2.833,0,0,0,14.621,80V3.012a1.675,1.675,0,0,1,1.673-1.673h4.989a1.675,1.675,0,0,1,1.673,1.673V80A4.173,4.173,0,0,1,18.789,84.165Zm-3.94-1.339h3.94A2.833,2.833,0,0,0,21.619,80V3.012a.335.335,0,0,0-.335-.335h-4.99a.335.335,0,0,0-.335.335V80a4.152,4.152,0,0,1-1.11,2.829Z"/>
      </g>
    </g>
  </g>
</svg>
