<svg xmlns="http://www.w3.org/2000/svg" xmlns:xlink="http://www.w3.org/1999/xlink" width="444" height="343" viewBox="0 0 444 343">
  <defs>
    <clipPath id="clip-path">
      <rect id="Rect치ngulo_374164" data-name="Rect치ngulo 374164" width="372.492" height="278.757" fill="none"/>
    </clipPath>
  </defs>
  <g id="Grupo_1066304" data-name="Grupo 1066304" transform="translate(7265 9660)">
    <g id="Grupo_1066289" data-name="Grupo 1066289">
      <path id="Rect치ngulo_373918" data-name="Rect치ngulo 373918" d="M20,0H424a20,20,0,0,1,20,20V343a0,0,0,0,1,0,0H0a0,0,0,0,1,0,0V20A20,20,0,0,1,20,0Z" transform="translate(-7265 -9660)" fill="#fff"/>
      <g id="Grupo_1066206" data-name="Grupo 1066206" transform="translate(-7229.746 -9630.379)">
        <g id="Grupo_1066214" data-name="Grupo 1066214" clip-path="url(#clip-path)">
          <path id="Trazado_777344" data-name="Trazado 777344" d="M31.886,124.756s7.557,12.176,6.785,51.861,14.245,79.539,67.567,116.339,95.491,17.547,145.047-22.012,75.833-15.371,106.54-65.014S369.8,123.435,369.8,123.435Z" transform="translate(-17.711 -41.731)" fill="#dd6143"/>
          <path id="Trazado_777345" data-name="Trazado 777345" d="M159.63,202.1,220.9,136.576a2.98,2.98,0,1,1,4.214,4.21L159.63,202.1" transform="translate(-53.968 -45.855)"/>
          <path id="Trazado_777346" data-name="Trazado 777346" d="M369.514,125.735h0L2.975,125.366a2.979,2.979,0,0,1,0-5.957h0l366.535.369a2.979,2.979,0,0,1,0,5.957" transform="translate(0 -40.37)"/>
          <path id="Trazado_777347" data-name="Trazado 777347" d="M273.694,92.462a2.979,2.979,0,0,1-2.166-5.023l16.936-17.957c3.669-8.124,16.386-34.434,28.328-37.218a9.193,9.193,0,0,1,8.33,2.074,8.73,8.73,0,0,1,3.247,7.847c-.65,5.879-6.867,12.829-19.008,21.246-6.92,4.8-13.641,8.574-16.1,9.92-.077.174-.152.349-.226.521a2.975,2.975,0,0,1-2.173,1.747l-15,15.908a2.969,2.969,0,0,1-2.167.935m45.343-54.507a3.94,3.94,0,0,0-.892.111c-6.013,1.4-14.289,14.1-20.325,25.753,2.5-1.527,5.346-3.34,8.191-5.313,14.235-9.877,16.238-15.161,16.437-16.976a2.8,2.8,0,0,0-1.193-2.66,3.3,3.3,0,0,0-2.218-.915" transform="translate(-91.524 -10.819)"/>
          <path id="Trazado_777348" data-name="Trazado 777348" d="M233.644,97.214c-2.616,0-5.344-.056-8.141-.191-24.28-1.168-41.034-7.441-49.8-18.648-6.34-8.11-7.283-20.008-2.654-33.5a82.375,82.375,0,0,1,21.5-32.448C209.56-1.294,224.565-3.817,234.69,5.677q2.787,2.613,5.272,4.958c20.935,19.721,26.561,25.02,43.272,26.176a2.317,2.317,0,0,1-.319,4.622c-18.363-1.269-25.359-7.86-46.13-27.425q-2.487-2.343-5.264-4.952c-12.1-11.345-28.964,2.329-33.845,6.789-17.923,16.383-29.854,44.921-18.317,59.677,19.008,24.313,78.327,15.486,78.924,15.394a2.317,2.317,0,0,1,.707,4.579,182.347,182.347,0,0,1-25.345,1.718" transform="translate(-57.527 0)" fill="#275daf"/>
          <path id="Trazado_777349" data-name="Trazado 777349" d="M483.2,131.961c-8.156-7.032-19.614-15.854-26.046-16.134,0,0,1.868-7.939,13.076-6.071,6.936,1.156,15.66,8.214,20.2,16.193,2.652,4.665-3.161,9.516-7.225,6.012" transform="translate(-154.557 -37.011)" fill="#275daf"/>
          <path id="Trazado_777350" data-name="Trazado 777350" d="M485.445,133.941a6.163,6.163,0,0,1-4.077-1.588h0C469.819,122.4,460.91,116.8,456.282,116.6a1.578,1.578,0,0,1-1.466-1.937c.764-3.243,4.853-8.933,14.87-7.265,7.343,1.224,16.5,8.518,21.308,16.968a6.3,6.3,0,0,1-1.489,8.088,6.472,6.472,0,0,1-4.06,1.485m-2.019-3.975a3.054,3.054,0,0,0,4.076.055,3.12,3.12,0,0,0,.751-4.095c-4.31-7.579-12.693-14.35-19.085-15.415-4.138-.692-7.3-.041-9.4,1.929a7.2,7.2,0,0,0-1.125,1.348c5.585,1.368,13.9,6.794,24.788,16.177Z" transform="translate(-153.751 -36.209)"/>
          <path id="Trazado_777351" data-name="Trazado 777351" d="M433.112,131.961c-8.156-7.032-19.614-15.854-26.046-16.134,0,0,1.868-7.939,13.076-6.071,6.936,1.156,15.66,8.214,20.2,16.193,2.653,4.665-3.161,9.516-7.225,6.012" transform="translate(-137.622 -37.011)" fill="#275daf"/>
          <path id="Trazado_777352" data-name="Trazado 777352" d="M435.355,133.941a6.167,6.167,0,0,1-4.079-1.587C419.727,122.4,410.819,116.8,406.191,116.6a1.577,1.577,0,0,1-1.466-1.936c.763-3.243,4.857-8.93,14.869-7.265,7.344,1.223,16.5,8.518,21.308,16.968a6.294,6.294,0,0,1-1.489,8.088,6.46,6.46,0,0,1-4.058,1.485m-26.807-20.153c5.585,1.368,13.9,6.795,24.787,16.177h0a3.053,3.053,0,0,0,4.075.055,3.118,3.118,0,0,0,.751-4.094c-4.309-7.579-12.692-14.35-19.085-15.415-4.136-.692-7.3-.042-9.4,1.929a7.166,7.166,0,0,0-1.125,1.348" transform="translate(-136.816 -36.209)"/>
          <path id="Trazado_777353" data-name="Trazado 777353" d="M383.019,131.961c-8.156-7.032-19.614-15.854-26.046-16.134,0,0,1.869-7.939,13.076-6.071,6.936,1.156,15.66,8.214,20.2,16.193,2.652,4.665-3.161,9.516-7.226,6.012" transform="translate(-120.686 -37.011)" fill="#275daf"/>
          <path id="Trazado_777354" data-name="Trazado 777354" d="M385.263,133.941a6.163,6.163,0,0,1-4.077-1.588h0C369.637,122.4,360.728,116.8,356.1,116.6a1.578,1.578,0,0,1-1.466-1.937c.764-3.243,4.856-8.929,14.869-7.265,7.343,1.224,16.5,8.518,21.308,16.968a6.3,6.3,0,0,1-1.489,8.088,6.47,6.47,0,0,1-4.059,1.485m-2.02-3.975a3.054,3.054,0,0,0,4.075.055,3.12,3.12,0,0,0,.751-4.095c-4.31-7.579-12.693-14.35-19.085-15.415-6.5-1.084-9.354,1.464-10.53,3.277,5.585,1.366,13.9,6.793,24.79,16.178Z" transform="translate(-119.881 -36.209)"/>
          <path id="Trazado_777355" data-name="Trazado 777355" d="M332.929,131.961c-8.156-7.032-19.614-15.854-26.046-16.134,0,0,1.867-7.939,13.076-6.071,6.936,1.156,15.659,8.214,20.2,16.193,2.652,4.665-3.161,9.516-7.225,6.012" transform="translate(-103.752 -37.011)" fill="#275daf"/>
          <path id="Trazado_777356" data-name="Trazado 777356" d="M335.171,133.941a6.163,6.163,0,0,1-4.077-1.588h0C319.545,122.4,310.636,116.8,306.008,116.6a1.578,1.578,0,0,1-1.466-1.937c.764-3.243,4.853-8.933,14.87-7.265,7.343,1.224,16.5,8.518,21.307,16.968a6.294,6.294,0,0,1-1.488,8.087,6.469,6.469,0,0,1-4.06,1.485m-2.019-3.975a3.055,3.055,0,0,0,4.076.055,3.12,3.12,0,0,0,.75-4.095c-4.31-7.579-12.692-14.35-19.084-15.415-4.138-.692-7.3-.041-9.4,1.929a7.213,7.213,0,0,0-1.125,1.348c5.585,1.368,13.9,6.794,24.787,16.177Z" transform="translate(-102.946 -36.209)"/>
        </g>
      </g>
    </g>
  </g>
</svg>
