<svg xmlns="http://www.w3.org/2000/svg" xmlns:xlink="http://www.w3.org/1999/xlink" width="111" height="107.243" viewBox="0 0 111 107.243">
  <defs>
    <clipPath id="clip-path">
      <rect id="Rectángulo_374083" data-name="Rectángulo 374083" width="85" height="85" transform="translate(206 1040)" fill="#fff" stroke="#707070" stroke-width="1"/>
    </clipPath>
  </defs>
  <g id="Grupo_1065649" data-name="Grupo 1065649" transform="translate(-180 -1040)">
    <path id="Trazado_771771" data-name="Trazado 771771" d="M3.029,901.384c-4.854-10.632-9.623-21.763-18.282-29.613S-37.772,860.4-47.38,867.054c-6.449,4.467-9.558,12.294-14.67,18.244-4.391,5.111-10.2,8.763-15.273,13.2s-9.639,10.174-10.116,16.9c-.78,11,9.328,19.569,19.151,24.571a108.718,108.718,0,0,0,54.973,11.61c9.6-.525,35.933-4.308,36.339-17.97.161-5.407-6.641-9.634-9.612-13.5C9.069,914.456,5.973,907.832,3.029,901.384Z" transform="translate(267.481 195.512)" fill="#025157"/>
    <g id="Grupo_1054388" data-name="Grupo 1054388" transform="translate(-1477.32 1041.764)">
      <path id="Trazado_771758" data-name="Trazado 771758" d="M1719.933,176.872c-.182.885-.264,2.007.516,2.607a2.69,2.69,0,0,0,2.063.7c1.4-.258,1.346-1.325,1.433-2.566a4.56,4.56,0,0,0-.191-1.961,1.924,1.924,0,0,0-1.413-1.263,1.886,1.886,0,0,0-1.675.738A4,4,0,0,0,1719.933,176.872Z" transform="translate(-41.887 -116.568)" fill="#f5947a"/>
      <path id="Trazado_771759" data-name="Trazado 771759" d="M1693.235,139.81a1.538,1.538,0,0,0-.07-.525,1.6,1.6,0,0,0-.221-.369l-.538-.74a2.393,2.393,0,0,0-.7-.718,1.544,1.544,0,0,0-1.292-.05,3.429,3.429,0,0,0-1.1.744,4.094,4.094,0,0,0-.978,1.26c-.875,1.919.766,4.314,2.5,5.127C1693.355,145.713,1693.253,141.144,1693.235,139.81Z" transform="translate(-16.752 -87.181)" fill="#f5947a"/>
      <path id="Trazado_771760" data-name="Trazado 771760" d="M1672.416,97.065a1.971,1.971,0,0,0-.572-.742,9.418,9.418,0,0,0-3.04-2.169,1.5,1.5,0,0,0-1.11-.061,1.646,1.646,0,0,0-.724,1.5c-.083,1.526.495,3.719,2.291,4.036C1670.473,99.846,1672.925,98.534,1672.416,97.065Z" transform="translate(0 -52.875)" fill="#f5947a"/>
      <path id="Trazado_771761" data-name="Trazado 771761" d="M1690.61,45.548c-.439-.847-1.187-1.7-2.14-1.654a3.006,3.006,0,0,0-1.638.819,4.065,4.065,0,0,0-1.377,1.552,3.483,3.483,0,0,0-.2,1.04A3.3,3.3,0,0,0,1689.113,51C1691.53,50.505,1691.491,47.247,1690.61,45.548Z" transform="translate(-14.492 -13.152)" fill="#f5947a"/>
      <path id="Trazado_771762" data-name="Trazado 771762" d="M1733.282,30.8a3.441,3.441,0,0,0,.345-.975,3.212,3.212,0,0,0-.284-1.546,1.55,1.55,0,0,0-.605-.877,1.476,1.476,0,0,0-1.341.169,16.573,16.573,0,0,0-3.626,2.832,3.287,3.287,0,0,0-.615.7,2.247,2.247,0,0,0-.273,1.073c-.042,1.475,1.267,3.1,2.861,2.587C1731.555,34.178,1732.528,32.4,1733.282,30.8Z" transform="translate(-47.492 0)" fill="#f5947a"/>
      <path id="Trazado_771763" data-name="Trazado 771763" d="M1715.629,93.454a3.01,3.01,0,0,0,.662-.8,1.455,1.455,0,0,0-.507-1.475,5.064,5.064,0,0,0-1.837-1.084,2.058,2.058,0,0,0-1.334-.134,1.556,1.556,0,0,0-.908.976,4.438,4.438,0,0,0-.2,1.36c-.041,1.118-.015,3.135,1.478,3.332C1714.38,95.807,1714.9,94.272,1715.629,93.454Z" transform="translate(-35.299 -49.611)" fill="#f5947a"/>
      <path id="Trazado_771764" data-name="Trazado 771764" d="M1755.448,78.825a2.137,2.137,0,0,0-1.456-2.078,3.529,3.529,0,0,0-1.639-.019,4.262,4.262,0,0,0-1.3.4,3.708,3.708,0,0,0-1.689,2.419,3.5,3.5,0,0,0-.075,1.651c.369,1.59,2.36,2.338,3.837,1.869C1754.783,82.537,1755.377,80.354,1755.448,78.825Z" transform="translate(-65.2 -39.108)" fill="#f5947a"/>
      <path id="Trazado_771765" data-name="Trazado 771765" d="M1781.446,121.187a4.676,4.676,0,0,0,.116-1.316,2.49,2.49,0,0,0-.423-1.681,2.413,2.413,0,0,0-1.786-.566,4.9,4.9,0,0,0-1.481.119,1.633,1.633,0,0,0-1.172,2.3,3.787,3.787,0,0,0,2.4,2.423A1.98,1.98,0,0,0,1781.446,121.187Z" transform="translate(-86.87 -71.587)" fill="#f5947a"/>
      <path id="Trazado_771766" data-name="Trazado 771766" d="M1736.9,132.044a4.137,4.137,0,0,0-1.06-1.977,4.713,4.713,0,0,0-2.732-1.967.821.821,0,0,0-1.07.6,3.628,3.628,0,0,0,.087,2.257,9.263,9.263,0,0,0,1.061,2.03c.452.7,1.244,1.868,2.237,1.608A2.547,2.547,0,0,0,1736.9,132.044Z" transform="translate(-51.468 -79.881)" fill="#f5947a"/>
      <path id="Trazado_771767" data-name="Trazado 771767" d="M1776.033,162.2a2.282,2.282,0,0,0-.793-1.823,2.673,2.673,0,0,0-1.723-.353,2.352,2.352,0,0,0-1.355.389,2.385,2.385,0,0,0-.7,1.717,5.814,5.814,0,0,0,.134,2.108c.3,1.073,1.445,2.486,2.652,1.779A4.611,4.611,0,0,0,1776.033,162.2Z" transform="translate(-82.795 -105.193)" fill="#f5947a"/>
    </g>
    <g id="Enmascarar_grupo_132" data-name="Enmascarar grupo 132" clip-path="url(#clip-path)">
      <g id="carrete-de-hilo" transform="translate(206.166 1040.166)">
        <g id="Grupo_1065656" data-name="Grupo 1065656">
          <path id="Trazado_775475" data-name="Trazado 775475" d="M31.068,70.667H8.4a8.5,8.5,0,0,1,0-17h7.083a1.417,1.417,0,0,1,0,2.833H8.4a5.667,5.667,0,1,0,0,11.333H31.068a1.417,1.417,0,0,1,0,2.834Z" fill="#ffe100"/>
          <path id="Trazado_775476" data-name="Trazado 775476" d="M12.652,28.167H8.4a8.5,8.5,0,1,1,0-17h9.917a1.338,1.338,0,0,1,1.417,1.417A1.338,1.338,0,0,1,18.318,14H8.4a5.667,5.667,0,0,0,0,11.333h4.25a1.417,1.417,0,0,1,0,2.833Z" fill="#ffe100"/>
          <path id="Trazado_775477" data-name="Trazado 775477" d="M29.652,49.417H23.985a1.417,1.417,0,1,1,0-2.833h5.667a5.667,5.667,0,0,0,0-11.333H25.4a1.417,1.417,0,0,1,0-2.833h4.25a8.5,8.5,0,1,1,0,17Z" fill="#ffe100"/>
          <path id="Trazado_775478" data-name="Trazado 775478" d="M26.818,14A1.338,1.338,0,0,1,25.4,12.584a1.338,1.338,0,0,1,1.417-1.417,8.525,8.525,0,0,0,8.5-8.5,1.417,1.417,0,0,1,2.833,0A11.366,11.366,0,0,1,26.818,14Z" fill="#ffe100"/>
          <path id="Trazado_775479" data-name="Trazado 775479" d="M21.152,1.251a7.015,7.015,0,0,0-7.083,7.083l4.25,75.083L25.4,8.334c0-3.967-.283-7.083-4.25-7.083" fill="#ffe100"/>
        </g>
        <path id="Trazado_775480" data-name="Trazado 775480" d="M19.735,1.392a4.821,4.821,0,0,0-1.417-.142,7.015,7.015,0,0,0-7.083,7.083l7.083,75.083L14.068,8.334a7.126,7.126,0,0,1,5.667-6.942" fill="#fff"/>
        <path id="Trazado_775481" data-name="Trazado 775481" d="M64.643,83.417H55.718a3.241,3.241,0,0,1-3.4-3.258V72.084H67.9v8.075a3.206,3.206,0,0,1-3.258,3.258" fill="#fecc00"/>
        <path id="Trazado_775482" data-name="Trazado 775482" d="M67.9,72.084v8.075a3.206,3.206,0,0,1-3.258,3.258h4.25a3.206,3.206,0,0,0,3.258-3.258V72.084Z" fill="#ffa800"/>
        <path id="Trazado_775483" data-name="Trazado 775483" d="M67.9,12.584H52.318V4.509a3.206,3.206,0,0,1,3.258-3.258H64.5a3.241,3.241,0,0,1,3.4,3.258v8.075Z" fill="#fecc00"/>
        <path id="Trazado_775484" data-name="Trazado 775484" d="M68.893,1.251h-4.25A3.206,3.206,0,0,1,67.9,4.509v8.075h4.25V4.509a3.206,3.206,0,0,0-3.258-3.258" fill="#ffa800"/>
        <path id="Trazado_775485" data-name="Trazado 775485" d="M75.977,72.084H44.243a3.206,3.206,0,0,1-3.258-3.258V15.842a3.206,3.206,0,0,1,3.258-3.258H75.835a3.241,3.241,0,0,1,3.4,3.258V68.684a3.241,3.241,0,0,1-3.258,3.4" fill="#ffe100"/>
        <path id="Trazado_775486" data-name="Trazado 775486" d="M80.227,12.584h-4.25a3.206,3.206,0,0,1,3.258,3.258V68.684a3.206,3.206,0,0,1-3.258,3.258h4.25a3.206,3.206,0,0,0,3.258-3.258V15.842a3.206,3.206,0,0,0-3.258-3.258" fill="#ffa800"/>
        <path id="Trazado_775487" data-name="Trazado 775487" d="M80.227,73.5H44.243a4.717,4.717,0,0,1-4.675-4.675V15.842a4.717,4.717,0,0,1,4.675-4.675H80.085a4.717,4.717,0,0,1,4.675,4.675V68.684A4.546,4.546,0,0,1,80.227,73.5ZM44.243,14A1.875,1.875,0,0,0,42.4,15.842V68.684a1.875,1.875,0,0,0,1.842,1.842H80.085a1.875,1.875,0,0,0,1.842-1.842V15.842A1.673,1.673,0,0,0,80.226,14H44.243Z"/>
        <path id="Trazado_775488" data-name="Trazado 775488" d="M68.893,84.834H55.718a4.717,4.717,0,0,1-4.675-4.675V70.667H73.71v9.492A4.94,4.94,0,0,1,68.893,84.834ZM53.735,73.5v6.658A1.875,1.875,0,0,0,55.576,82H68.751a1.875,1.875,0,0,0,1.842-1.842V73.5Z"/>
        <path id="Trazado_775489" data-name="Trazado 775489" d="M73.568,14H50.9V4.509A4.717,4.717,0,0,1,55.577-.166H68.752a4.748,4.748,0,0,1,4.817,4.675ZM53.735,11.167h17V4.509a1.875,1.875,0,0,0-1.842-1.842H55.718a1.909,1.909,0,0,0-1.983,1.842Z"/>
        <rect id="Rectángulo_374085" data-name="Rectángulo 374085" width="47.604" height="2.834" transform="translate(82.775 13.81) rotate(149.617)"/>
        <rect id="Rectángulo_374086" data-name="Rectángulo 374086" width="46.889" height="2.833" transform="translate(84.096 49.293) rotate(151.131)"/>
        <rect id="Rectángulo_374087" data-name="Rectángulo 374087" width="2.833" height="43.912" transform="matrix(-0.258, 0.966, -0.966, -0.258, 83.813, 46.624)"/>
        <rect id="Rectángulo_374088" data-name="Rectángulo 374088" width="36.268" height="2.833" transform="matrix(-0.861, 0.509, -0.509, -0.861, 84.234, 22.287)"/>
        <rect id="Rectángulo_374089" data-name="Rectángulo 374089" width="24.79" height="2.833" transform="matrix(-0.857, 0.515, -0.515, -0.857, 84.277, 30.761)"/>
        <rect id="Rectángulo_374090" data-name="Rectángulo 374090" width="13.318" height="2.834" transform="translate(84.214 39.292) rotate(147.969)"/>
        <rect id="Rectángulo_374091" data-name="Rectángulo 374091" width="2.833" height="33.148" transform="translate(73.216 52.722) rotate(105.522)"/>
        <rect id="Rectángulo_374092" data-name="Rectángulo 374092" width="2.833" height="22.807" transform="translate(63.378 58.174) rotate(104.934)"/>
        <rect id="Rectángulo_374093" data-name="Rectángulo 374093" width="2.833" height="13.458" transform="matrix(-0.316, 0.949, -0.949, -0.316, 54.251, 63.685)"/>
        <rect id="Rectángulo_374094" data-name="Rectángulo 374094" width="27.907" height="2.833" transform="matrix(-0.862, 0.507, -0.507, -0.862, 84.129, 59.192)"/>
        <rect id="Rectángulo_374095" data-name="Rectángulo 374095" width="29.183" height="2.833" transform="translate(67.175 13.812) rotate(150.928)"/>
        <path id="Trazado_775490" data-name="Trazado 775490" d="M18.318,84.834A1.506,1.506,0,0,1,16.9,83.559L9.818,8.476a8.5,8.5,0,1,1,17-.142L19.735,83.559A1.506,1.506,0,0,1,18.318,84.834Zm0-82.167a5.683,5.683,0,0,0-5.667,5.667L18.318,68.4,23.985,8.192A5.656,5.656,0,0,0,18.318,2.667Z"/>
        <path id="Trazado_775491" data-name="Trazado 775491" d="M18.318,15.417A1.338,1.338,0,0,1,16.9,14V8.334a1.417,1.417,0,1,1,2.833,0V14A1.338,1.338,0,0,1,18.318,15.417Z"/>
        <path id="Trazado_775492" data-name="Trazado 775492" d="M12.652,26.751H8.4a8.5,8.5,0,1,1,0-17h9.917a1.338,1.338,0,0,1,1.417,1.417,1.338,1.338,0,0,1-1.417,1.417H8.4a5.667,5.667,0,1,0,0,11.333h4.25a1.417,1.417,0,0,1,0,2.833Z"/>
        <path id="Trazado_775493" data-name="Trazado 775493" d="M28.235,48H22.568a1.417,1.417,0,1,1,0-2.833h5.667a5.667,5.667,0,0,0,0-11.333h-4.25a1.417,1.417,0,1,1,0-2.833h4.25a8.5,8.5,0,1,1,0,17Z"/>
        <path id="Trazado_775494" data-name="Trazado 775494" d="M31.068,69.251H8.4a8.5,8.5,0,0,1,0-17h7.083a1.417,1.417,0,1,1,0,2.833H8.4a5.667,5.667,0,1,0,0,11.333H31.068a1.417,1.417,0,0,1,0,2.834Z"/>
        <path id="Trazado_775495" data-name="Trazado 775495" d="M25.4,12.584a1.338,1.338,0,0,1-1.417-1.417A1.338,1.338,0,0,1,25.4,9.751a8.525,8.525,0,0,0,8.5-8.5,1.417,1.417,0,1,1,2.833,0A11.367,11.367,0,0,1,25.4,12.584Z"/>
      </g>
    </g>
  </g>
</svg>
