<svg xmlns="http://www.w3.org/2000/svg" xmlns:xlink="http://www.w3.org/1999/xlink" width="111" height="107.243" viewBox="0 0 111 107.243">
  <defs>
    <clipPath id="clip-path">
      <rect id="Rectángulo_374083" data-name="Rectángulo 374083" width="85" height="85" transform="translate(206 1040)" fill="#fff" stroke="#707070" stroke-width="1"/>
    </clipPath>
  </defs>
  <g id="Grupo_1065650" data-name="Grupo 1065650" transform="translate(-180 -1040)">
    <path id="Trazado_771771" data-name="Trazado 771771" d="M3.029,901.384c-4.854-10.632-9.623-21.763-18.282-29.613S-37.772,860.4-47.38,867.054c-6.449,4.467-9.558,12.294-14.67,18.244-4.391,5.111-10.2,8.763-15.273,13.2s-9.639,10.174-10.116,16.9c-.78,11,9.328,19.569,19.151,24.571a108.718,108.718,0,0,0,54.973,11.61c9.6-.525,35.933-4.308,36.339-17.97.161-5.407-6.641-9.634-9.612-13.5C9.069,914.456,5.973,907.832,3.029,901.384Z" transform="translate(267.481 195.512)" fill="#025157"/>
    <g id="Grupo_1054388" data-name="Grupo 1054388" transform="translate(-1477.32 1041.764)">
      <path id="Trazado_771758" data-name="Trazado 771758" d="M1719.933,176.872c-.182.885-.264,2.007.516,2.607a2.69,2.69,0,0,0,2.063.7c1.4-.258,1.346-1.325,1.433-2.566a4.56,4.56,0,0,0-.191-1.961,1.924,1.924,0,0,0-1.413-1.263,1.886,1.886,0,0,0-1.675.738A4,4,0,0,0,1719.933,176.872Z" transform="translate(-41.887 -116.568)" fill="#f5947a"/>
      <path id="Trazado_771759" data-name="Trazado 771759" d="M1693.235,139.81a1.538,1.538,0,0,0-.07-.525,1.6,1.6,0,0,0-.221-.369l-.538-.74a2.393,2.393,0,0,0-.7-.718,1.544,1.544,0,0,0-1.292-.05,3.429,3.429,0,0,0-1.1.744,4.094,4.094,0,0,0-.978,1.26c-.875,1.919.766,4.314,2.5,5.127C1693.355,145.713,1693.253,141.144,1693.235,139.81Z" transform="translate(-16.752 -87.181)" fill="#f5947a"/>
      <path id="Trazado_771760" data-name="Trazado 771760" d="M1672.416,97.065a1.971,1.971,0,0,0-.572-.742,9.418,9.418,0,0,0-3.04-2.169,1.5,1.5,0,0,0-1.11-.061,1.646,1.646,0,0,0-.724,1.5c-.083,1.526.495,3.719,2.291,4.036C1670.473,99.846,1672.925,98.534,1672.416,97.065Z" transform="translate(0 -52.875)" fill="#f5947a"/>
      <path id="Trazado_771761" data-name="Trazado 771761" d="M1690.61,45.548c-.439-.847-1.187-1.7-2.14-1.654a3.006,3.006,0,0,0-1.638.819,4.065,4.065,0,0,0-1.377,1.552,3.483,3.483,0,0,0-.2,1.04A3.3,3.3,0,0,0,1689.113,51C1691.53,50.505,1691.491,47.247,1690.61,45.548Z" transform="translate(-14.492 -13.152)" fill="#f5947a"/>
      <path id="Trazado_771762" data-name="Trazado 771762" d="M1733.282,30.8a3.441,3.441,0,0,0,.345-.975,3.212,3.212,0,0,0-.284-1.546,1.55,1.55,0,0,0-.605-.877,1.476,1.476,0,0,0-1.341.169,16.573,16.573,0,0,0-3.626,2.832,3.287,3.287,0,0,0-.615.7,2.247,2.247,0,0,0-.273,1.073c-.042,1.475,1.267,3.1,2.861,2.587C1731.555,34.178,1732.528,32.4,1733.282,30.8Z" transform="translate(-47.492 0)" fill="#f5947a"/>
      <path id="Trazado_771763" data-name="Trazado 771763" d="M1715.629,93.454a3.01,3.01,0,0,0,.662-.8,1.455,1.455,0,0,0-.507-1.475,5.064,5.064,0,0,0-1.837-1.084,2.058,2.058,0,0,0-1.334-.134,1.556,1.556,0,0,0-.908.976,4.438,4.438,0,0,0-.2,1.36c-.041,1.118-.015,3.135,1.478,3.332C1714.38,95.807,1714.9,94.272,1715.629,93.454Z" transform="translate(-35.299 -49.611)" fill="#f5947a"/>
      <path id="Trazado_771764" data-name="Trazado 771764" d="M1755.448,78.825a2.137,2.137,0,0,0-1.456-2.078,3.529,3.529,0,0,0-1.639-.019,4.262,4.262,0,0,0-1.3.4,3.708,3.708,0,0,0-1.689,2.419,3.5,3.5,0,0,0-.075,1.651c.369,1.59,2.36,2.338,3.837,1.869C1754.783,82.537,1755.377,80.354,1755.448,78.825Z" transform="translate(-65.2 -39.108)" fill="#f5947a"/>
      <path id="Trazado_771765" data-name="Trazado 771765" d="M1781.446,121.187a4.676,4.676,0,0,0,.116-1.316,2.49,2.49,0,0,0-.423-1.681,2.413,2.413,0,0,0-1.786-.566,4.9,4.9,0,0,0-1.481.119,1.633,1.633,0,0,0-1.172,2.3,3.787,3.787,0,0,0,2.4,2.423A1.98,1.98,0,0,0,1781.446,121.187Z" transform="translate(-86.87 -71.587)" fill="#f5947a"/>
      <path id="Trazado_771766" data-name="Trazado 771766" d="M1736.9,132.044a4.137,4.137,0,0,0-1.06-1.977,4.713,4.713,0,0,0-2.732-1.967.821.821,0,0,0-1.07.6,3.628,3.628,0,0,0,.087,2.257,9.263,9.263,0,0,0,1.061,2.03c.452.7,1.244,1.868,2.237,1.608A2.547,2.547,0,0,0,1736.9,132.044Z" transform="translate(-51.468 -79.881)" fill="#f5947a"/>
      <path id="Trazado_771767" data-name="Trazado 771767" d="M1776.033,162.2a2.282,2.282,0,0,0-.793-1.823,2.673,2.673,0,0,0-1.723-.353,2.352,2.352,0,0,0-1.355.389,2.385,2.385,0,0,0-.7,1.717,5.814,5.814,0,0,0,.134,2.108c.3,1.073,1.445,2.486,2.652,1.779A4.611,4.611,0,0,0,1776.033,162.2Z" transform="translate(-82.795 -105.193)" fill="#f5947a"/>
    </g>
    <g id="Enmascarar_grupo_133" data-name="Enmascarar grupo 133" clip-path="url(#clip-path)">
      <g id="medicion" transform="translate(206 1040)">
        <path id="Trazado_775496" data-name="Trazado 775496" d="M15.886,73.107H79.76V83.752H15.886Z" fill="#ffe462"/>
        <path id="Trazado_775497" data-name="Trazado 775497" d="M79.76,83.752a5.323,5.323,0,1,1,0-10.646" fill="#ffbf5d"/>
        <path id="Trazado_775498" data-name="Trazado 775498" d="M5.24,19.878H15.886V83.752H5.24Z" fill="#ffe462"/>
        <path id="Trazado_775499" data-name="Trazado 775499" d="M69.114,6.57H79.76V59.8H26.531V6.57H37.177" fill="#d7eef6"/>
        <g id="Grupo_1065657" data-name="Grupo 1065657">
          <path id="Trazado_775500" data-name="Trazado 775500" d="M69.114,55.807H26.531V59.8H79.76V55.807Z" fill="#a7c4d9"/>
          <path id="Trazado_775501" data-name="Trazado 775501" d="M79.228,6.57h.532V59.8H77.1V6.57h.532" fill="#a7c4d9"/>
          <path id="Trazado_775502" data-name="Trazado 775502" d="M53.146,11.893,42.5,1.248H63.792Z" fill="#a7c4d9"/>
        </g>
        <path id="Trazado_775503" data-name="Trazado 775503" d="M69.114,6.57,58.469,17.216,42.5,1.248,37.177,6.57,47.823,17.216,63.792,1.248Z" fill="#d7eef6"/>
        <path id="Trazado_775504" data-name="Trazado 775504" d="M59.8,25.2H73.107v5.323H59.8Z" fill="#fff"/>
        <path id="Trazado_775505" data-name="Trazado 775505" d="M59.8,30.523v6.654l6.654,3.992,6.654-3.992V30.523Z" fill="#d7eef6"/>
        <g id="Grupo_1065658" data-name="Grupo 1065658">
          <path id="Trazado_775506" data-name="Trazado 775506" d="M67.784,18.63h2.661v2.5H67.784Z" fill="#fff"/>
        </g>
        <g id="Grupo_1065659" data-name="Grupo 1065659">
          <path id="Trazado_775507" data-name="Trazado 775507" d="M81.008,22.539V5.323H69.631L64.308,0H41.983L36.66,5.323H25.284V35.846h2.5V7.818H36.66L47.823,18.98,51.9,14.905V58.552H27.779V38.508h-2.5V61.047H81.008V25.2h-2.5V58.552H54.393V14.905l4.075,4.075L69.631,7.818h8.882V22.539ZM60.78,2.5l-7.634,7.634L45.512,2.5ZM47.823,15.452,38.941,6.57,42.5,3.012l8.882,8.882Zm10.646,0L54.91,11.893l8.882-8.882L67.35,6.57Z"/>
          <path id="Trazado_775508" data-name="Trazado 775508" d="M58.552,37.883l7.9,4.741,7.9-4.741V23.953h-15.8Zm7.9,1.831-5.406-3.244v-4.7H71.859v4.7Zm5.406-13.266v2.828H61.047V26.448Z"/>
          <path id="Trazado_775509" data-name="Trazado 775509" d="M17.133,71.859V18.63H3.992V85H81.008V71.859Zm45.411,6.57V82.5H59.716V74.354h8.151V82.5H65.039V78.43Zm-10.646,0V82.5H49.07V74.354h8.151V82.5H54.393V78.43Zm-10.646,0V82.5H38.425V74.354h8.151V82.5H43.748V78.43Zm-10.646,0V82.5H27.779V74.354H35.93V82.5H33.1V78.43Zm39.755-4.075h4.25a6.549,6.549,0,0,0,0,8.151h-4.25Zm5.323,4.075a4.082,4.082,0,0,1,2.828-3.879v7.759a4.082,4.082,0,0,1-2.828-3.879Zm-61.047-57.3v2.828H10.563v2.5h4.075v2.828H6.487V21.125Zm0,15.969v2.828H6.487V31.771h8.151V34.6H10.563v2.5Zm0,10.646v2.828H6.487V42.417h8.151v2.828H10.563v2.5Zm0,10.646v2.828H6.487V53.063h8.151V55.89H10.563v2.5Zm0,10.646v2.828H6.487V63.708h8.151v2.828H10.563v2.5ZM6.487,82.5V74.354h8.151v2.828H10.563v2.5h4.075V82.5Zm10.646-8.151h8.151V82.5H22.456V78.43h-2.5V82.5H17.133Z"/>
          <path id="Trazado_775510" data-name="Trazado 775510" d="M31.854,13.307h2.661v2.5H31.854Z"/>
          <path id="Trazado_775511" data-name="Trazado 775511" d="M62.461,18.63h2.661v2.5H62.461Z"/>
          <path id="Trazado_775512" data-name="Trazado 775512" d="M31.854,18.63h2.661v2.5H31.854Z"/>
          <path id="Trazado_775513" data-name="Trazado 775513" d="M31.854,23.953h2.661v2.5H31.854Z"/>
          <path id="Trazado_775514" data-name="Trazado 775514" d="M31.854,29.276h2.661v2.5H31.854Z"/>
          <path id="Trazado_775515" data-name="Trazado 775515" d="M31.854,34.6h2.661v2.5H31.854Z"/>
          <path id="Trazado_775516" data-name="Trazado 775516" d="M31.854,39.922h2.661v2.5H31.854Z"/>
          <path id="Trazado_775517" data-name="Trazado 775517" d="M31.854,45.245h2.661v2.5H31.854Z"/>
          <path id="Trazado_775518" data-name="Trazado 775518" d="M31.854,50.568h2.661v2.5H31.854Z"/>
          <path id="Trazado_775519" data-name="Trazado 775519" d="M37.177,50.568h2.661v2.5H37.177Z"/>
          <path id="Trazado_775520" data-name="Trazado 775520" d="M42.5,50.568h2.661v2.5H42.5Z"/>
        </g>
      </g>
    </g>
  </g>
</svg>
