<svg xmlns="http://www.w3.org/2000/svg" xmlns:xlink="http://www.w3.org/1999/xlink" width="111" height="107.243" viewBox="0 0 111 107.243">
  <defs>
    <clipPath id="clip-path">
      <rect id="Rectángulo_374083" data-name="Rectángulo 374083" width="85" height="85" transform="translate(206 1040)" fill="#fff" stroke="#707070" stroke-width="1"/>
    </clipPath>
  </defs>
  <g id="Grupo_1065654" data-name="Grupo 1065654" transform="translate(-180 -1040)">
    <path id="Trazado_771771" data-name="Trazado 771771" d="M3.029,901.384c-4.854-10.632-9.623-21.763-18.282-29.613S-37.772,860.4-47.38,867.054c-6.449,4.467-9.558,12.294-14.67,18.244-4.391,5.111-10.2,8.763-15.273,13.2s-9.639,10.174-10.116,16.9c-.78,11,9.328,19.569,19.151,24.571a108.718,108.718,0,0,0,54.973,11.61c9.6-.525,35.933-4.308,36.339-17.97.161-5.407-6.641-9.634-9.612-13.5C9.069,914.456,5.973,907.832,3.029,901.384Z" transform="translate(267.481 195.512)" fill="#025157"/>
    <g id="Grupo_1054388" data-name="Grupo 1054388" transform="translate(-1477.32 1041.764)">
      <path id="Trazado_771758" data-name="Trazado 771758" d="M1719.933,176.872c-.182.885-.264,2.007.516,2.607a2.69,2.69,0,0,0,2.063.7c1.4-.258,1.346-1.325,1.433-2.566a4.56,4.56,0,0,0-.191-1.961,1.924,1.924,0,0,0-1.413-1.263,1.886,1.886,0,0,0-1.675.738A4,4,0,0,0,1719.933,176.872Z" transform="translate(-41.887 -116.568)" fill="#f5947a"/>
      <path id="Trazado_771759" data-name="Trazado 771759" d="M1693.235,139.81a1.538,1.538,0,0,0-.07-.525,1.6,1.6,0,0,0-.221-.369l-.538-.74a2.393,2.393,0,0,0-.7-.718,1.544,1.544,0,0,0-1.292-.05,3.429,3.429,0,0,0-1.1.744,4.094,4.094,0,0,0-.978,1.26c-.875,1.919.766,4.314,2.5,5.127C1693.355,145.713,1693.253,141.144,1693.235,139.81Z" transform="translate(-16.752 -87.181)" fill="#f5947a"/>
      <path id="Trazado_771760" data-name="Trazado 771760" d="M1672.416,97.065a1.971,1.971,0,0,0-.572-.742,9.418,9.418,0,0,0-3.04-2.169,1.5,1.5,0,0,0-1.11-.061,1.646,1.646,0,0,0-.724,1.5c-.083,1.526.495,3.719,2.291,4.036C1670.473,99.846,1672.925,98.534,1672.416,97.065Z" transform="translate(0 -52.875)" fill="#f5947a"/>
      <path id="Trazado_771761" data-name="Trazado 771761" d="M1690.61,45.548c-.439-.847-1.187-1.7-2.14-1.654a3.006,3.006,0,0,0-1.638.819,4.065,4.065,0,0,0-1.377,1.552,3.483,3.483,0,0,0-.2,1.04A3.3,3.3,0,0,0,1689.113,51C1691.53,50.505,1691.491,47.247,1690.61,45.548Z" transform="translate(-14.492 -13.152)" fill="#f5947a"/>
      <path id="Trazado_771762" data-name="Trazado 771762" d="M1733.282,30.8a3.441,3.441,0,0,0,.345-.975,3.212,3.212,0,0,0-.284-1.546,1.55,1.55,0,0,0-.605-.877,1.476,1.476,0,0,0-1.341.169,16.573,16.573,0,0,0-3.626,2.832,3.287,3.287,0,0,0-.615.7,2.247,2.247,0,0,0-.273,1.073c-.042,1.475,1.267,3.1,2.861,2.587C1731.555,34.178,1732.528,32.4,1733.282,30.8Z" transform="translate(-47.492 0)" fill="#f5947a"/>
      <path id="Trazado_771763" data-name="Trazado 771763" d="M1715.629,93.454a3.01,3.01,0,0,0,.662-.8,1.455,1.455,0,0,0-.507-1.475,5.064,5.064,0,0,0-1.837-1.084,2.058,2.058,0,0,0-1.334-.134,1.556,1.556,0,0,0-.908.976,4.438,4.438,0,0,0-.2,1.36c-.041,1.118-.015,3.135,1.478,3.332C1714.38,95.807,1714.9,94.272,1715.629,93.454Z" transform="translate(-35.299 -49.611)" fill="#f5947a"/>
      <path id="Trazado_771764" data-name="Trazado 771764" d="M1755.448,78.825a2.137,2.137,0,0,0-1.456-2.078,3.529,3.529,0,0,0-1.639-.019,4.262,4.262,0,0,0-1.3.4,3.708,3.708,0,0,0-1.689,2.419,3.5,3.5,0,0,0-.075,1.651c.369,1.59,2.36,2.338,3.837,1.869C1754.783,82.537,1755.377,80.354,1755.448,78.825Z" transform="translate(-65.2 -39.108)" fill="#f5947a"/>
      <path id="Trazado_771765" data-name="Trazado 771765" d="M1781.446,121.187a4.676,4.676,0,0,0,.116-1.316,2.49,2.49,0,0,0-.423-1.681,2.413,2.413,0,0,0-1.786-.566,4.9,4.9,0,0,0-1.481.119,1.633,1.633,0,0,0-1.172,2.3,3.787,3.787,0,0,0,2.4,2.423A1.98,1.98,0,0,0,1781.446,121.187Z" transform="translate(-86.87 -71.587)" fill="#f5947a"/>
      <path id="Trazado_771766" data-name="Trazado 771766" d="M1736.9,132.044a4.137,4.137,0,0,0-1.06-1.977,4.713,4.713,0,0,0-2.732-1.967.821.821,0,0,0-1.07.6,3.628,3.628,0,0,0,.087,2.257,9.263,9.263,0,0,0,1.061,2.03c.452.7,1.244,1.868,2.237,1.608A2.547,2.547,0,0,0,1736.9,132.044Z" transform="translate(-51.468 -79.881)" fill="#f5947a"/>
      <path id="Trazado_771767" data-name="Trazado 771767" d="M1776.033,162.2a2.282,2.282,0,0,0-.793-1.823,2.673,2.673,0,0,0-1.723-.353,2.352,2.352,0,0,0-1.355.389,2.385,2.385,0,0,0-.7,1.717,5.814,5.814,0,0,0,.134,2.108c.3,1.073,1.445,2.486,2.652,1.779A4.611,4.611,0,0,0,1776.033,162.2Z" transform="translate(-82.795 -105.193)" fill="#f5947a"/>
    </g>
    <g id="Enmascarar_grupo_138" data-name="Enmascarar grupo 138" clip-path="url(#clip-path)">
      <g id="de-coser" transform="translate(206.001 1040)">
        <path id="Trazado_775634" data-name="Trazado 775634" d="M23.5,54.442l-2.352,6.474a8.966,8.966,0,0,0-4.137-3.145c-5.511-2-12.042,2.026-14.592,9.01s-.127,14.28,5.383,16.291S19.847,81.047,22.4,74.048L26.52,62.729Zm-6.432,17.68c-1.473,4.037-4.746,6.559-7.324,5.624s-3.471-4.972-2-9.024,4.76-6.559,7.324-5.624S18.544,68.07,17.071,72.122Z" fill="#9e9e9e"/>
        <path id="Trazado_775635" data-name="Trazado 775635" d="M23.5,54.442l-2.125,5.844.89,2.444L18.144,74.048a14.215,14.215,0,0,1-9.492,9.271c5.318,1.326,11.333-2.625,13.749-9.271l4.122-11.319Z" fill="#707070"/>
        <path id="Trazado_775636" data-name="Trazado 775636" d="M41.536,21.476,38.25,30.5,29.537,54.442,26.52,46.169l9.69-26.633a2.835,2.835,0,0,1,5.327,1.941Z" fill="#707070"/>
        <path id="Trazado_775637" data-name="Trazado 775637" d="M50.617,66.781c-2.21-6.063-7.423-9.888-12.367-9.492a8.806,8.806,0,0,0-2.224.482,9.038,9.038,0,0,0-4.137,3.145l-2.352-6.474L26.52,46.169,16.83,19.536a2.833,2.833,0,0,0-5.227-.227,2.8,2.8,0,0,0-.1,2.167l12,32.965,3.017,8.287,4.122,11.319c2.55,7,9.081,11.022,14.592,9.024a10.108,10.108,0,0,0,6.148-7.99,15.874,15.874,0,0,0-.765-8.3ZM43.293,77.746c-2.578.935-5.851-1.587-7.324-5.624s-.581-8.089,2-9.024,5.851,1.587,7.324,5.624S45.871,76.811,43.293,77.746Z" fill="#9e9e9e"/>
        <path id="Trazado_775638" data-name="Trazado 775638" d="M50.617,66.781c-2.21-6.063-7.423-9.888-12.367-9.492a8.026,8.026,0,0,0-1.363.237,14.209,14.209,0,0,1,9.48,9.255,15.874,15.874,0,0,1,.765,8.3,10.108,10.108,0,0,1-6.148,7.99,8.644,8.644,0,0,1-.843.246,8.867,8.867,0,0,0,5.093-.246,10.108,10.108,0,0,0,6.148-7.99,15.874,15.874,0,0,0-.765-8.3Z" fill="#707070"/>
        <path id="Trazado_775639" data-name="Trazado 775639" d="M83.582,27.979v44.27a2.842,2.842,0,0,1-2.833,2.833H51.382a15.874,15.874,0,0,0-.765-8.3c-2.21-6.063-7.423-9.888-12.367-9.492V30.5l3.287-9.024a2.816,2.816,0,0,0-3.287-3.726V4.25a2.842,2.842,0,0,1,2.833-2.833H63.834a2.833,2.833,0,0,1,2.819,2.692c.935,16.348,10.327,20.2,14.7,21.108a2.809,2.809,0,0,1,2.224,2.762Z" fill="#3f51b5"/>
        <path id="Trazado_775640" data-name="Trazado 775640" d="M83.582,27.979v44.27a2.842,2.842,0,0,1-2.833,2.833H51.382a15.874,15.874,0,0,0-.765-8.3c-2.21-6.063-7.423-9.888-12.367-9.492V30.5l3.287-9.024a2.816,2.816,0,0,0-3.287-3.726V4.25a2.842,2.842,0,0,1,2.833-2.833H63.834a2.833,2.833,0,0,1,2.819,2.692c.935,16.348,10.327,20.2,14.7,21.108a2.809,2.809,0,0,1,2.224,2.762Z" fill="#3f51b5"/>
        <path id="Trazado_775641" data-name="Trazado 775641" d="M81.358,25.216c-4.377-.907-13.77-4.76-14.7-21.108a2.833,2.833,0,0,0-2.819-2.692h-4.25A2.833,2.833,0,0,1,62.4,4.108c.935,16.348,10.327,20.2,14.7,21.108a2.809,2.809,0,0,1,2.224,2.762v44.27A2.842,2.842,0,0,1,76.5,75.083h4.25a2.842,2.842,0,0,0,2.833-2.833V27.979a2.809,2.809,0,0,0-2.224-2.762Z" fill="#283593"/>
        <path id="Trazado_775642" data-name="Trazado 775642" d="M15.562,61.766c-3.356-1.225-7.367,1.621-9.139,6.471A11.791,11.791,0,0,0,5.856,74.7a5.637,5.637,0,0,0,3.408,4.372,4.7,4.7,0,0,0,1.615.283c2.945,0,6.034-2.663,7.524-6.755a11.8,11.8,0,0,0,.567-6.466,5.634,5.634,0,0,0-3.408-4.37Zm.18,9.863c-1.285,3.53-3.924,5.351-5.508,4.78a3.078,3.078,0,0,1-1.616-2.318,9.081,9.081,0,0,1,.467-4.883c1.133-3.1,3.309-4.883,4.89-4.883a1.849,1.849,0,0,1,.619.1,3.081,3.081,0,0,1,1.615,2.319,9.079,9.079,0,0,1-.467,4.885Z"/>
        <path id="Trazado_775643" data-name="Trazado 775643" d="M37.479,61.766a5.633,5.633,0,0,0-3.413,4.368,11.8,11.8,0,0,0,.567,6.466c1.49,4.091,4.579,6.755,7.525,6.755a4.7,4.7,0,0,0,1.614-.283A5.638,5.638,0,0,0,47.186,74.7a11.792,11.792,0,0,0-.567-6.464C44.853,63.389,40.843,60.548,37.479,61.766Zm6.942,12.325a3.081,3.081,0,0,1-1.615,2.319c-1.584.567-4.224-1.249-5.509-4.78a9.079,9.079,0,0,1-.463-4.882,3.078,3.078,0,0,1,1.615-2.319,1.841,1.841,0,0,1,.618-.1c1.581,0,3.761,1.784,4.89,4.883a9.081,9.081,0,0,1,.467,4.882Z"/>
        <path id="Trazado_775644" data-name="Trazado 775644" d="M81.646,23.829c-4.7-.975-12.723-4.842-13.579-19.8A4.25,4.25,0,0,0,63.834,0H41.083a4.25,4.25,0,0,0-4.25,4.25V16.8a4.227,4.227,0,0,0-1.955,2.25L26.52,42.021,18.161,19.05a4.24,4.24,0,0,0-7.837-.34,4.166,4.166,0,0,0-.142,3.247L22,54.439l-1.39,3.825a10.2,10.2,0,0,0-3.11-1.825C11.261,54.181,3.9,58.6,1.091,66.3s0,15.832,6.233,18.108A9.916,9.916,0,0,0,10.71,85c5.315,0,10.707-4.121,13.018-10.462l2.792-7.671,2.792,7.673a16.792,16.792,0,0,0,6.769,8.6,11.8,11.8,0,0,0,6.2,1.86,10.02,10.02,0,0,0,3.44-.6,10.968,10.968,0,0,0,6.572-7.158c.081-.242.142-.493.208-.741H80.749A4.25,4.25,0,0,0,85,72.245V27.979a4.24,4.24,0,0,0-3.353-4.149Zm-44.1-3.807a1.427,1.427,0,0,1,1.809-.857,1.4,1.4,0,0,1,.81.754,1.374,1.374,0,0,1,.047,1.072L29.537,50.3,28.03,46.162Zm-.708,36.054a9.666,9.666,0,0,0-1.292.367,10.058,10.058,0,0,0-3.1,1.823l-1.393-3.825,5.784-15.9ZM21.066,73.564c-2.267,6.233-8.011,9.9-12.774,8.178s-6.8-8.234-4.533-14.475,8-9.9,12.773-8.166a7.508,7.508,0,0,1,3.486,2.656,1.417,1.417,0,0,0,2.469-.358l1.024-2.816,1.507,4.144ZM49.6,76.357a8.194,8.194,0,0,1-4.851,5.383,8.2,8.2,0,0,1-7.177-1.009,13.941,13.941,0,0,1-5.6-7.157L12.838,20.989a1.351,1.351,0,0,1,.045-1.064l.016-.034a1.357,1.357,0,0,1,.783-.72,1.408,1.408,0,0,1,1.082.05,1.4,1.4,0,0,1,.734.8L30.563,61.4a1.417,1.417,0,0,0,1.133.918,1.4,1.4,0,0,0,1.342-.567A7.473,7.473,0,0,1,36.513,59.1c4.773-1.74,10.5,1.927,12.773,8.166a13.943,13.943,0,0,1,.312,9.092Zm32.569-4.108a1.417,1.417,0,0,1-1.417,1.417H52.983A17.614,17.614,0,0,0,51.942,66.3c-2.2-6.049-7.208-10.058-12.277-10.411V30.755l3.2-8.8a4.156,4.156,0,0,0-3.2-5.617V4.25a1.417,1.417,0,0,1,1.417-1.417H63.834A1.417,1.417,0,0,1,65.24,4.189c.992,17.479,11.4,21.5,15.831,22.414a1.4,1.4,0,0,1,1.1,1.376Z"/>
        <path id="Trazado_775645" data-name="Trazado 775645" d="M62.969,18.6c.221.456.452.9.687,1.323a1.417,1.417,0,1,0,2.479-1.371c-.214-.384-.418-.779-.618-1.19a1.417,1.417,0,0,0-2.55,1.238Z"/>
        <path id="Trazado_775646" data-name="Trazado 775646" d="M65.166,68H63.749a1.417,1.417,0,1,0,0,2.833h1.417a1.417,1.417,0,0,0,0-2.833Z"/>
        <path id="Trazado_775647" data-name="Trazado 775647" d="M72.249,68H70.833a1.417,1.417,0,0,0,0,2.833h1.417a1.417,1.417,0,0,0,0-2.833Z"/>
        <path id="Trazado_775648" data-name="Trazado 775648" d="M63.644,12.308c-.116-.425-.225-.871-.33-1.323a1.417,1.417,0,0,0-2.761.636q.167.73.354,1.424a1.417,1.417,0,0,0,1.367,1.05,1.391,1.391,0,0,0,.37-.05,1.417,1.417,0,0,0,1-1.737Z"/>
        <path id="Trazado_775649" data-name="Trazado 775649" d="M70.151,23.831c-.312-.3-.622-.619-.926-.953a1.417,1.417,0,1,0-2.091,1.912q.518.567,1.047,1.077a1.417,1.417,0,1,0,1.971-2.036Z"/>
        <path id="Trazado_775650" data-name="Trazado 775650" d="M52.756,5.667H51.339a1.417,1.417,0,1,0,0,2.833h1.417a1.417,1.417,0,0,0,0-2.833Z"/>
        <path id="Trazado_775651" data-name="Trazado 775651" d="M75.561,27.647q-.577-.283-1.172-.628a1.418,1.418,0,1,0-1.417,2.456c.449.258.894.493,1.326.708a1.417,1.417,0,1,0,1.259-2.537Z"/>
        <path id="Trazado_775652" data-name="Trazado 775652" d="M61.256,7.083a1.417,1.417,0,0,0-1.417-1.417H58.423a1.417,1.417,0,1,0,0,2.833h1.417A1.417,1.417,0,0,0,61.256,7.083Z"/>
        <path id="Trazado_775653" data-name="Trazado 775653" d="M45.673,5.667H44.256a1.417,1.417,0,1,0,0,2.833h1.417a1.417,1.417,0,0,0,0-2.833Z"/>
        <path id="Trazado_775654" data-name="Trazado 775654" d="M58.083,68H56.666a1.417,1.417,0,1,0,0,2.833h1.417a1.417,1.417,0,1,0,0-2.833Z"/>
        <path id="Trazado_775655" data-name="Trazado 775655" d="M77.916,52.416A1.417,1.417,0,0,0,76.5,53.833v1.417a1.417,1.417,0,1,0,2.833,0V53.833A1.417,1.417,0,0,0,77.916,52.416Z"/>
        <path id="Trazado_775656" data-name="Trazado 775656" d="M77.916,45.333A1.417,1.417,0,0,0,76.5,46.749v1.417a1.417,1.417,0,1,0,2.833,0V46.749A1.417,1.417,0,0,0,77.916,45.333Z"/>
        <path id="Trazado_775657" data-name="Trazado 775657" d="M77.916,31.166A1.417,1.417,0,0,0,76.5,32.583V34a1.417,1.417,0,1,0,2.833,0V32.583A1.417,1.417,0,0,0,77.916,31.166Z"/>
        <path id="Trazado_775658" data-name="Trazado 775658" d="M77.916,38.25A1.417,1.417,0,0,0,76.5,39.666v1.417a1.417,1.417,0,1,0,2.833,0V39.666A1.417,1.417,0,0,0,77.916,38.25Z"/>
        <path id="Trazado_775659" data-name="Trazado 775659" d="M77.916,66.583A1.417,1.417,0,0,0,76.5,68v1.417a1.417,1.417,0,0,0,2.833,0V68A1.417,1.417,0,0,0,77.916,66.583Z"/>
        <path id="Trazado_775660" data-name="Trazado 775660" d="M77.916,59.5A1.417,1.417,0,0,0,76.5,60.916v1.417a1.417,1.417,0,1,0,2.833,0V60.916A1.417,1.417,0,0,0,77.916,59.5Z"/>
        <path id="Trazado_775661" data-name="Trazado 775661" d="M43.916,49.583A1.417,1.417,0,0,0,42.5,51v1.417a1.417,1.417,0,1,0,2.833,0V51A1.417,1.417,0,0,0,43.916,49.583Z"/>
        <path id="Trazado_775662" data-name="Trazado 775662" d="M43.916,28.333A1.417,1.417,0,0,0,42.5,29.75v1.417a1.417,1.417,0,1,0,2.833,0V29.75A1.417,1.417,0,0,0,43.916,28.333Z"/>
        <path id="Trazado_775663" data-name="Trazado 775663" d="M43.916,35.416A1.417,1.417,0,0,0,42.5,36.833V38.25a1.417,1.417,0,1,0,2.833,0V36.833A1.417,1.417,0,0,0,43.916,35.416Z"/>
        <path id="Trazado_775664" data-name="Trazado 775664" d="M43.916,42.5A1.417,1.417,0,0,0,42.5,43.916v1.417a1.417,1.417,0,1,0,2.833,0V43.916A1.417,1.417,0,0,0,43.916,42.5Z"/>
      </g>
    </g>
  </g>
</svg>
