<svg xmlns="http://www.w3.org/2000/svg" xmlns:xlink="http://www.w3.org/1999/xlink" width="111" height="107.243" viewBox="0 0 111 107.243">
  <defs>
    <clipPath id="clip-path">
      <rect id="Rect치ngulo_374083" data-name="Rect치ngulo 374083" width="85" height="85" transform="translate(206 1040)" fill="#fff" stroke="#707070" stroke-width="1"/>
    </clipPath>
  </defs>
  <g id="Grupo_1064426" data-name="Grupo 1064426" transform="translate(-180 -1040)">
    <path id="Trazado_771771" data-name="Trazado 771771" d="M3.029,901.384c-4.854-10.632-9.623-21.763-18.282-29.613S-37.772,860.4-47.38,867.054c-6.449,4.467-9.558,12.294-14.67,18.244-4.391,5.111-10.2,8.763-15.273,13.2s-9.639,10.174-10.116,16.9c-.78,11,9.328,19.569,19.151,24.571a108.718,108.718,0,0,0,54.973,11.61c9.6-.525,35.933-4.308,36.339-17.97.161-5.407-6.641-9.634-9.612-13.5C9.069,914.456,5.973,907.832,3.029,901.384Z" transform="translate(267.481 195.512)" fill="#025157"/>
    <g id="Grupo_1054388" data-name="Grupo 1054388" transform="translate(-1477.32 1041.764)">
      <path id="Trazado_771758" data-name="Trazado 771758" d="M1719.933,176.872c-.182.885-.264,2.007.516,2.607a2.69,2.69,0,0,0,2.063.7c1.4-.258,1.346-1.325,1.433-2.566a4.56,4.56,0,0,0-.191-1.961,1.924,1.924,0,0,0-1.413-1.263,1.886,1.886,0,0,0-1.675.738A4,4,0,0,0,1719.933,176.872Z" transform="translate(-41.887 -116.568)" fill="#f5947a"/>
      <path id="Trazado_771759" data-name="Trazado 771759" d="M1693.235,139.81a1.538,1.538,0,0,0-.07-.525,1.6,1.6,0,0,0-.221-.369l-.538-.74a2.393,2.393,0,0,0-.7-.718,1.544,1.544,0,0,0-1.292-.05,3.429,3.429,0,0,0-1.1.744,4.094,4.094,0,0,0-.978,1.26c-.875,1.919.766,4.314,2.5,5.127C1693.355,145.713,1693.253,141.144,1693.235,139.81Z" transform="translate(-16.752 -87.181)" fill="#f5947a"/>
      <path id="Trazado_771760" data-name="Trazado 771760" d="M1672.416,97.065a1.971,1.971,0,0,0-.572-.742,9.418,9.418,0,0,0-3.04-2.169,1.5,1.5,0,0,0-1.11-.061,1.646,1.646,0,0,0-.724,1.5c-.083,1.526.495,3.719,2.291,4.036C1670.473,99.846,1672.925,98.534,1672.416,97.065Z" transform="translate(0 -52.875)" fill="#f5947a"/>
      <path id="Trazado_771761" data-name="Trazado 771761" d="M1690.61,45.548c-.439-.847-1.187-1.7-2.14-1.654a3.006,3.006,0,0,0-1.638.819,4.065,4.065,0,0,0-1.377,1.552,3.483,3.483,0,0,0-.2,1.04A3.3,3.3,0,0,0,1689.113,51C1691.53,50.505,1691.491,47.247,1690.61,45.548Z" transform="translate(-14.492 -13.152)" fill="#f5947a"/>
      <path id="Trazado_771762" data-name="Trazado 771762" d="M1733.282,30.8a3.441,3.441,0,0,0,.345-.975,3.212,3.212,0,0,0-.284-1.546,1.55,1.55,0,0,0-.605-.877,1.476,1.476,0,0,0-1.341.169,16.573,16.573,0,0,0-3.626,2.832,3.287,3.287,0,0,0-.615.7,2.247,2.247,0,0,0-.273,1.073c-.042,1.475,1.267,3.1,2.861,2.587C1731.555,34.178,1732.528,32.4,1733.282,30.8Z" transform="translate(-47.492 0)" fill="#f5947a"/>
      <path id="Trazado_771763" data-name="Trazado 771763" d="M1715.629,93.454a3.01,3.01,0,0,0,.662-.8,1.455,1.455,0,0,0-.507-1.475,5.064,5.064,0,0,0-1.837-1.084,2.058,2.058,0,0,0-1.334-.134,1.556,1.556,0,0,0-.908.976,4.438,4.438,0,0,0-.2,1.36c-.041,1.118-.015,3.135,1.478,3.332C1714.38,95.807,1714.9,94.272,1715.629,93.454Z" transform="translate(-35.299 -49.611)" fill="#f5947a"/>
      <path id="Trazado_771764" data-name="Trazado 771764" d="M1755.448,78.825a2.137,2.137,0,0,0-1.456-2.078,3.529,3.529,0,0,0-1.639-.019,4.262,4.262,0,0,0-1.3.4,3.708,3.708,0,0,0-1.689,2.419,3.5,3.5,0,0,0-.075,1.651c.369,1.59,2.36,2.338,3.837,1.869C1754.783,82.537,1755.377,80.354,1755.448,78.825Z" transform="translate(-65.2 -39.108)" fill="#f5947a"/>
      <path id="Trazado_771765" data-name="Trazado 771765" d="M1781.446,121.187a4.676,4.676,0,0,0,.116-1.316,2.49,2.49,0,0,0-.423-1.681,2.413,2.413,0,0,0-1.786-.566,4.9,4.9,0,0,0-1.481.119,1.633,1.633,0,0,0-1.172,2.3,3.787,3.787,0,0,0,2.4,2.423A1.98,1.98,0,0,0,1781.446,121.187Z" transform="translate(-86.87 -71.587)" fill="#f5947a"/>
      <path id="Trazado_771766" data-name="Trazado 771766" d="M1736.9,132.044a4.137,4.137,0,0,0-1.06-1.977,4.713,4.713,0,0,0-2.732-1.967.821.821,0,0,0-1.07.6,3.628,3.628,0,0,0,.087,2.257,9.263,9.263,0,0,0,1.061,2.03c.452.7,1.244,1.868,2.237,1.608A2.547,2.547,0,0,0,1736.9,132.044Z" transform="translate(-51.468 -79.881)" fill="#f5947a"/>
      <path id="Trazado_771767" data-name="Trazado 771767" d="M1776.033,162.2a2.282,2.282,0,0,0-.793-1.823,2.673,2.673,0,0,0-1.723-.353,2.352,2.352,0,0,0-1.355.389,2.385,2.385,0,0,0-.7,1.717,5.814,5.814,0,0,0,.134,2.108c.3,1.073,1.445,2.486,2.652,1.779A4.611,4.611,0,0,0,1776.033,162.2Z" transform="translate(-82.795 -105.193)" fill="#f5947a"/>
    </g>
    <g id="Enmascarar_grupo_131" data-name="Enmascarar grupo 131" clip-path="url(#clip-path)">
      <g id="traje" transform="translate(203.177 1037.186)">
        <circle id="Elipse_4742" data-name="Elipse 4742" cx="2.833" cy="2.833" r="2.833" transform="translate(58.071 4.249)" fill="#ffde7e"/>
        <path id="Trazado_775461" data-name="Trazado 775461" d="M66.569,21.245l-.88-3.52a2.833,2.833,0,0,0-2.748-2.146H58.866a2.833,2.833,0,0,0-2.748,2.146l-.88,3.52v4.249H66.569Z" fill="#ffde7e"/>
        <path id="Trazado_775462" data-name="Trazado 775462" d="M80.732,66.569H86.4v5.665H77.9V69.4A2.833,2.833,0,0,1,80.732,66.569Z" transform="translate(164.298 138.803) rotate(180)" fill="#efefef"/>
        <path id="Trazado_775463" data-name="Trazado 775463" d="M35.409,66.569h8.5v5.665H38.242A2.833,2.833,0,0,1,35.409,69.4Z" fill="#efefef"/>
        <path id="Trazado_775464" data-name="Trazado 775464" d="M60.9,25.494,48.156,24.078l-9.833,5.463a5.665,5.665,0,0,0-2.914,4.952V66.569h8.5v9.915a2.833,2.833,0,0,0,2.833,2.833H60.9Z" fill="#faa"/>
        <path id="Trazado_775465" data-name="Trazado 775465" d="M60.9,79.316H75.067A2.833,2.833,0,0,0,77.9,76.483V66.569h8.5V34.493a5.665,5.665,0,0,0-2.914-4.952l-9.833-5.463L60.9,25.494Z" fill="#f2a2a2"/>
        <path id="Trazado_775466" data-name="Trazado 775466" d="M73.651,24.078,60.9,49.573,48.156,24.078,60.9,25.494Z" fill="#e2e2e2"/>
        <path id="Trazado_775467" data-name="Trazado 775467" d="M67.469,21.117,60.9,25.494l3.355,4.473a1.416,1.416,0,0,0,2.04.238l7.353-6.127-2.607-2.607a2.833,2.833,0,0,0-3.574-.354Z" fill="#efefef"/>
        <path id="Trazado_775468" data-name="Trazado 775468" d="M54.338,21.117,60.9,25.494l-3.355,4.473a1.416,1.416,0,0,1-2.04.238l-7.353-6.127,2.607-2.607a2.833,2.833,0,0,1,3.574-.354Z" fill="#efefef"/>
        <path id="Trazado_775469" data-name="Trazado 775469" d="M58.071,79.316h5.665v8.5H58.071Z" fill="#d5d5d5"/>
        <path id="Trazado_775470" data-name="Trazado 775470" d="M4.249,50.989H26.911a2.833,2.833,0,0,1,2.833,2.833v5.665a2.833,2.833,0,0,1-2.833,2.833H4.249Z" transform="translate(33.993 113.309) rotate(180)" fill="#e2e2e2"/>
        <rect id="Rect치ngulo_374084" data-name="Rect치ngulo 374084" width="38.242" height="8.498" rx="2.833" transform="translate(42.491 86.398) rotate(180)" fill="#efefef"/>
        <path id="Trazado_775471" data-name="Trazado 775471" d="M35.409,46.74a5.665,5.665,0,0,1,5.665,5.665V65.153a2.833,2.833,0,0,1-2.833,2.833H32.576a2.833,2.833,0,0,1-2.833-2.833V52.405A5.665,5.665,0,0,1,35.409,46.74Z" transform="translate(70.818 114.725) rotate(180)" fill="#efefef"/>
        <path id="Trazado_775472" data-name="Trazado 775472" d="M8.5,62.32H21.245V77.9H8.5Z" transform="translate(29.744 140.22) rotate(180)" fill="#d5d5d5"/>
        <path id="Trazado_775473" data-name="Trazado 775473" d="M84.172,28.3l-9.66-5.368-2.467-2.467a4.252,4.252,0,0,0-4.453-.974l-.528-2.115a4.245,4.245,0,0,0-4.123-3.217H62.32V11.07a4.249,4.249,0,1,0-2.833,0v3.094h-.621a4.244,4.244,0,0,0-4.123,3.219L54.215,19.5a4.252,4.252,0,0,0-4.453.974L47.3,22.936,37.636,28.3a7.084,7.084,0,0,0-3.643,6.19v6.581h2.833V34.493a4.249,4.249,0,0,1,2.185-3.713l8.54-4.745L59.487,49.907V77.9H46.74v2.833h9.915v7.082h2.833V80.733H62.32v7.082h2.833V80.733h9.915a4.254,4.254,0,0,0,4.249-4.249V73.651h4.249A4.254,4.254,0,0,0,87.814,69.4V34.493a7.085,7.085,0,0,0-3.643-6.19ZM60.9,5.665a1.416,1.416,0,1,1-1.416,1.416A1.416,1.416,0,0,1,60.9,5.665Zm0,40.74L52.451,29.5,54.6,31.294a2.848,2.848,0,0,0,1.817.656,2.586,2.586,0,0,0,.326-.019,2.839,2.839,0,0,0,1.935-1.113L60.9,27.854l2.222,2.962a2.842,2.842,0,0,0,1.936,1.113,2.586,2.586,0,0,0,.326.019,2.85,2.85,0,0,0,1.817-.656L69.355,29.5Zm9.139-23.933,1.51,1.51-6.161,5.136-2.457-3.275,5.32-3.548a1.422,1.422,0,0,1,1.788.177ZM58.866,17h4.075a1.415,1.415,0,0,1,1.374,1.072l.739,2.957L60.9,23.792l-4.151-2.767.739-2.955A1.414,1.414,0,0,1,58.866,17Zm-7.1,5.476a1.423,1.423,0,0,1,1.788-.177l5.32,3.548-2.457,3.274-6.161-5.134ZM84.982,69.4a1.418,1.418,0,0,1-1.416,1.416H79.316V67.985h5.665Zm-5.665-4.249V38.242H76.483V76.483A1.418,1.418,0,0,1,75.067,77.9H62.32V49.907L74.256,26.035l8.54,4.745a4.25,4.25,0,0,1,2.185,3.714V65.152Z"/>
        <circle id="Elipse_4743" data-name="Elipse 4743" cx="1.416" cy="1.416" r="1.416" transform="translate(53.822 55.238)"/>
        <circle id="Elipse_4744" data-name="Elipse 4744" cx="1.416" cy="1.416" r="1.416" transform="translate(53.822 62.32)"/>
        <circle id="Elipse_4745" data-name="Elipse 4745" cx="1.416" cy="1.416" r="1.416" transform="translate(53.822 69.402)"/>
        <path id="Trazado_775474" data-name="Trazado 775474" d="M7.082,87.814H39.658a4.254,4.254,0,0,0,4.249-4.249V80.732a4.254,4.254,0,0,0-4.249-4.249h-17V63.736H28.47a7.1,7.1,0,0,0,5.522,5.522v4.392h2.833V69.258a7.094,7.094,0,0,0,5.665-6.939V49.573a4.254,4.254,0,0,0-4.249-4.249H32.576a4.254,4.254,0,0,0-4.249,4.249h-8.5V43.907H17v5.665H11.331V43.907H8.5v5.665H7.082a4.254,4.254,0,0,0-4.249,4.249v5.665a4.254,4.254,0,0,0,4.249,4.249V76.483a4.254,4.254,0,0,0-4.249,4.249v2.833a4.254,4.254,0,0,0,4.249,4.249ZM32.576,48.156h5.665a1.418,1.418,0,0,1,1.416,1.416V62.32a4.249,4.249,0,1,1-8.5,0V49.573a1.418,1.418,0,0,1,1.416-1.416ZM5.665,59.487V53.822a1.418,1.418,0,0,1,1.416-1.416H28.327v8.5H7.082a1.418,1.418,0,0,1-1.416-1.416Zm4.249,4.249h9.915V76.483H9.915Zm-4.249,17a1.418,1.418,0,0,1,1.416-1.416H39.658a1.418,1.418,0,0,1,1.416,1.416v2.833a1.418,1.418,0,0,1-1.416,1.416H7.082a1.418,1.418,0,0,1-1.416-1.416Z"/>
      </g>
    </g>
  </g>
</svg>
