<svg xmlns="http://www.w3.org/2000/svg" xmlns:xlink="http://www.w3.org/1999/xlink" width="111" height="107.243" viewBox="0 0 111 107.243">
  <defs>
    <clipPath id="clip-path">
      <rect id="Rectángulo_374083" data-name="Rectángulo 374083" width="85" height="85" transform="translate(206 1040)" fill="#fff" stroke="#707070" stroke-width="1"/>
    </clipPath>
  </defs>
  <g id="Grupo_1065655" data-name="Grupo 1065655" transform="translate(-180 -1040)">
    <path id="Trazado_771771" data-name="Trazado 771771" d="M3.029,901.384c-4.854-10.632-9.623-21.763-18.282-29.613S-37.772,860.4-47.38,867.054c-6.449,4.467-9.558,12.294-14.67,18.244-4.391,5.111-10.2,8.763-15.273,13.2s-9.639,10.174-10.116,16.9c-.78,11,9.328,19.569,19.151,24.571a108.718,108.718,0,0,0,54.973,11.61c9.6-.525,35.933-4.308,36.339-17.97.161-5.407-6.641-9.634-9.612-13.5C9.069,914.456,5.973,907.832,3.029,901.384Z" transform="translate(267.481 195.512)" fill="#025157"/>
    <g id="Grupo_1054388" data-name="Grupo 1054388" transform="translate(-1477.32 1041.764)">
      <path id="Trazado_771758" data-name="Trazado 771758" d="M1719.933,176.872c-.182.885-.264,2.007.516,2.607a2.69,2.69,0,0,0,2.063.7c1.4-.258,1.346-1.325,1.433-2.566a4.56,4.56,0,0,0-.191-1.961,1.924,1.924,0,0,0-1.413-1.263,1.886,1.886,0,0,0-1.675.738A4,4,0,0,0,1719.933,176.872Z" transform="translate(-41.887 -116.568)" fill="#f5947a"/>
      <path id="Trazado_771759" data-name="Trazado 771759" d="M1693.235,139.81a1.538,1.538,0,0,0-.07-.525,1.6,1.6,0,0,0-.221-.369l-.538-.74a2.393,2.393,0,0,0-.7-.718,1.544,1.544,0,0,0-1.292-.05,3.429,3.429,0,0,0-1.1.744,4.094,4.094,0,0,0-.978,1.26c-.875,1.919.766,4.314,2.5,5.127C1693.355,145.713,1693.253,141.144,1693.235,139.81Z" transform="translate(-16.752 -87.181)" fill="#f5947a"/>
      <path id="Trazado_771760" data-name="Trazado 771760" d="M1672.416,97.065a1.971,1.971,0,0,0-.572-.742,9.418,9.418,0,0,0-3.04-2.169,1.5,1.5,0,0,0-1.11-.061,1.646,1.646,0,0,0-.724,1.5c-.083,1.526.495,3.719,2.291,4.036C1670.473,99.846,1672.925,98.534,1672.416,97.065Z" transform="translate(0 -52.875)" fill="#f5947a"/>
      <path id="Trazado_771761" data-name="Trazado 771761" d="M1690.61,45.548c-.439-.847-1.187-1.7-2.14-1.654a3.006,3.006,0,0,0-1.638.819,4.065,4.065,0,0,0-1.377,1.552,3.483,3.483,0,0,0-.2,1.04A3.3,3.3,0,0,0,1689.113,51C1691.53,50.505,1691.491,47.247,1690.61,45.548Z" transform="translate(-14.492 -13.152)" fill="#f5947a"/>
      <path id="Trazado_771762" data-name="Trazado 771762" d="M1733.282,30.8a3.441,3.441,0,0,0,.345-.975,3.212,3.212,0,0,0-.284-1.546,1.55,1.55,0,0,0-.605-.877,1.476,1.476,0,0,0-1.341.169,16.573,16.573,0,0,0-3.626,2.832,3.287,3.287,0,0,0-.615.7,2.247,2.247,0,0,0-.273,1.073c-.042,1.475,1.267,3.1,2.861,2.587C1731.555,34.178,1732.528,32.4,1733.282,30.8Z" transform="translate(-47.492 0)" fill="#f5947a"/>
      <path id="Trazado_771763" data-name="Trazado 771763" d="M1715.629,93.454a3.01,3.01,0,0,0,.662-.8,1.455,1.455,0,0,0-.507-1.475,5.064,5.064,0,0,0-1.837-1.084,2.058,2.058,0,0,0-1.334-.134,1.556,1.556,0,0,0-.908.976,4.438,4.438,0,0,0-.2,1.36c-.041,1.118-.015,3.135,1.478,3.332C1714.38,95.807,1714.9,94.272,1715.629,93.454Z" transform="translate(-35.299 -49.611)" fill="#f5947a"/>
      <path id="Trazado_771764" data-name="Trazado 771764" d="M1755.448,78.825a2.137,2.137,0,0,0-1.456-2.078,3.529,3.529,0,0,0-1.639-.019,4.262,4.262,0,0,0-1.3.4,3.708,3.708,0,0,0-1.689,2.419,3.5,3.5,0,0,0-.075,1.651c.369,1.59,2.36,2.338,3.837,1.869C1754.783,82.537,1755.377,80.354,1755.448,78.825Z" transform="translate(-65.2 -39.108)" fill="#f5947a"/>
      <path id="Trazado_771765" data-name="Trazado 771765" d="M1781.446,121.187a4.676,4.676,0,0,0,.116-1.316,2.49,2.49,0,0,0-.423-1.681,2.413,2.413,0,0,0-1.786-.566,4.9,4.9,0,0,0-1.481.119,1.633,1.633,0,0,0-1.172,2.3,3.787,3.787,0,0,0,2.4,2.423A1.98,1.98,0,0,0,1781.446,121.187Z" transform="translate(-86.87 -71.587)" fill="#f5947a"/>
      <path id="Trazado_771766" data-name="Trazado 771766" d="M1736.9,132.044a4.137,4.137,0,0,0-1.06-1.977,4.713,4.713,0,0,0-2.732-1.967.821.821,0,0,0-1.07.6,3.628,3.628,0,0,0,.087,2.257,9.263,9.263,0,0,0,1.061,2.03c.452.7,1.244,1.868,2.237,1.608A2.547,2.547,0,0,0,1736.9,132.044Z" transform="translate(-51.468 -79.881)" fill="#f5947a"/>
      <path id="Trazado_771767" data-name="Trazado 771767" d="M1776.033,162.2a2.282,2.282,0,0,0-.793-1.823,2.673,2.673,0,0,0-1.723-.353,2.352,2.352,0,0,0-1.355.389,2.385,2.385,0,0,0-.7,1.717,5.814,5.814,0,0,0,.134,2.108c.3,1.073,1.445,2.486,2.652,1.779A4.611,4.611,0,0,0,1776.033,162.2Z" transform="translate(-82.795 -105.193)" fill="#f5947a"/>
    </g>
    <g id="Enmascarar_grupo_137" data-name="Enmascarar grupo 137" clip-path="url(#clip-path)">
      <g id="cuero" transform="translate(206 1039.968)">
        <g id="Grupo_1065683" data-name="Grupo 1065683">
          <g id="Grupo_1065680" data-name="Grupo 1065680">
            <g id="Grupo_1065679" data-name="Grupo 1065679">
              <path id="Trazado_775614" data-name="Trazado 775614" d="M62.243,50.311c1.207,13.5,10.973,17.883,14.39,19.01a1.666,1.666,0,0,1,1.139,1.7c-.18,2.52-1.109,7.957-5.638,11.467a1.654,1.654,0,0,1-1.84.11C67,80.7,55.164,75,43.479,83.438a1.672,1.672,0,0,1-1.958,0C29.836,75,18,80.7,14.707,82.6a1.654,1.654,0,0,1-1.84-.11c-4.529-3.511-5.458-8.947-5.638-11.467a1.666,1.666,0,0,1,1.139-1.7c3.645-1.2,14.513-6.108,14.513-21.834,0-15.857-10.218-19.931-14.014-20.9a1.675,1.675,0,0,1-1.252-1.811A43.254,43.254,0,0,1,10.095,14.22a1.671,1.671,0,0,1,1.871-1.04c15.287,2.874,19.981-7.132,21-10a1.676,1.676,0,0,1,1.121-1.056A31.592,31.592,0,0,1,42.5,1.245a31.589,31.589,0,0,1,8.414.874,1.676,1.676,0,0,1,1.121,1.056c1.018,2.873,5.713,12.878,21,10a1.671,1.671,0,0,1,1.871,1.04,43.242,43.242,0,0,1,2.481,10.559,1.675,1.675,0,0,1-1.252,1.811c-3.587.913-12.908,4.6-13.924,18.383L61.4,47.653Z" fill="#d46a50"/>
              <path id="Trazado_775615" data-name="Trazado 775615" d="M77.772,71.025c-.181,2.52-1.109,7.957-5.638,11.468a1.658,1.658,0,0,1-1.841.11,27.26,27.26,0,0,0-3.211-1.572,16.728,16.728,0,0,0,4.046-10.006,1.666,1.666,0,0,0-1.139-1.7c-3.646-1.2-14.513-6.108-14.513-21.834,0-15.856,10.217-19.93,14.013-20.9a1.676,1.676,0,0,0,1.252-1.811,43.281,43.281,0,0,0-2.48-10.56,1.646,1.646,0,0,0-.327-.526,28.064,28.064,0,0,0,5.1-.513A1.668,1.668,0,0,1,74.9,14.219a43.262,43.262,0,0,1,2.482,10.56,1.676,1.676,0,0,1-1.252,1.811c-3.8.966-14.015,5.04-14.015,20.9,0,15.727,10.869,20.631,14.513,21.834A1.666,1.666,0,0,1,77.772,71.025Z" fill="#c2583f"/>
              <g id="Grupo_1065678" data-name="Grupo 1065678">
                <path id="Trazado_775616" data-name="Trazado 775616" d="M42.651,75.142a.316.316,0,0,1-.3,0,29.635,29.635,0,0,0-14.362-3.663,32.964,32.964,0,0,0-8.882,1.244.316.316,0,0,1-.273-.559,27.965,27.965,0,0,0,3.577-3.17c5.2-5.474,7.942-12.91,7.942-21.506,0-11-4.183-17.619-7.693-21.235a25.07,25.07,0,0,0-5.693-4.376l.188-.713h0c10.885,0,17.2-5.786,20.677-12.124a.312.312,0,0,1,.244-.162c.96-.092,2.865-.161,4.426-.161s3.466.069,4.426.161a.312.312,0,0,1,.244.162c3.479,6.34,9.8,12.13,20.693,12.124h0l.19.7a25.065,25.065,0,0,0-5.711,4.386c-3.509,3.616-7.693,10.236-7.693,21.235,0,8.6,2.746,16.033,7.942,21.506a27.964,27.964,0,0,0,3.576,3.17.316.316,0,0,1-.273.559,32.962,32.962,0,0,0-8.882-1.244A29.635,29.635,0,0,0,42.651,75.142Z" fill="#fdc83a"/>
                <path id="Trazado_775617" data-name="Trazado 775617" d="M65.895,72.723a33.225,33.225,0,0,0-7.215-1.2q-.839-.777-1.66-1.668c-5.312-5.8-8.12-13.68-8.12-22.787,0-11.654,4.277-18.668,7.866-22.5a25.683,25.683,0,0,1,4.936-4.1,26.446,26.446,0,0,0,6.161.689l.191.7a25.022,25.022,0,0,0-5.711,4.386c-3.51,3.616-7.693,10.237-7.693,21.235,0,8.6,2.746,16.034,7.942,21.507a28,28,0,0,0,3.576,3.169A.316.316,0,0,1,65.895,72.723Z" fill="#fcb72d"/>
              </g>
            </g>
          </g>
          <g id="Grupo_1065682" data-name="Grupo 1065682">
            <circle id="Elipse_4762" data-name="Elipse 4762" cx="9.385" cy="9.385" r="9.385" transform="translate(33.115 19.715)" fill="#d46a50"/>
            <path id="Trazado_775618" data-name="Trazado 775618" d="M51.885,29.1a9.389,9.389,0,0,0-11.418-9.164,9.387,9.387,0,0,1,0,18.327A9.389,9.389,0,0,0,51.885,29.1Z" fill="#c2583f"/>
            <g id="Grupo_1065681" data-name="Grupo 1065681">
              <path id="Trazado_775619" data-name="Trazado 775619" d="M41.838,33.4l-3.669-5.8a.784.784,0,0,1,.662-1.2h7.338a.784.784,0,0,1,.662,1.2l-3.669,5.8A.784.784,0,0,1,41.838,33.4Z" fill="#e9a999"/>
            </g>
          </g>
        </g>
        <g id="Grupo_1065697" data-name="Grupo 1065697">
          <g id="Grupo_1065693" data-name="Grupo 1065693">
            <g id="Grupo_1065687" data-name="Grupo 1065687">
              <g id="Grupo_1065686" data-name="Grupo 1065686">
                <g id="Grupo_1065685" data-name="Grupo 1065685">
                  <g id="Grupo_1065684" data-name="Grupo 1065684">
                    <path id="Trazado_775620" data-name="Trazado 775620" d="M42.651,75.142a.316.316,0,0,1-.3,0l-.308-.166" fill="none" stroke="#000" stroke-linecap="round" stroke-linejoin="round" stroke-width="2.49"/>
                    <path id="Trazado_775621" data-name="Trazado 775621" d="M37.305,72.954a29.686,29.686,0,0,0-9.317-1.475,32.964,32.964,0,0,0-8.882,1.244.316.316,0,0,1-.273-.559,27.965,27.965,0,0,0,3.577-3.17c5.2-5.474,7.942-12.91,7.942-21.506,0-11-4.183-17.619-7.693-21.235a24.727,24.727,0,0,0-2.976-2.61" fill="none" stroke="#000" stroke-linecap="round" stroke-linejoin="round" stroke-width="2.49" stroke-dasharray="7.764 31.054"/>
                    <path id="Trazado_775622" data-name="Trazado 775622" d="M17.539,22.209q-.288-.173-.574-.333l.188-.713q.335,0,.664-.007" fill="none" stroke="#000" stroke-linecap="round" stroke-linejoin="round" stroke-width="2.49"/>
                    <path id="Trazado_775623" data-name="Trazado 775623" d="M22.817,20.585A21.617,21.617,0,0,0,36.14,11.736" fill="none" stroke="#000" stroke-linecap="round" stroke-linejoin="round" stroke-width="2.49" stroke-dasharray="7.588 30.353"/>
                    <path id="Trazado_775624" data-name="Trazado 775624" d="M37.5,9.617q.167-.288.326-.578" fill="none" stroke="#000" stroke-linecap="round" stroke-linejoin="round" stroke-width="2.49"/>
                  </g>
                </g>
              </g>
            </g>
            <g id="Grupo_1065688" data-name="Grupo 1065688">
              <path id="Trazado_775625" data-name="Trazado 775625" d="M17.715,63.043a21.28,21.28,0,0,1-9.348,6.279,1.666,1.666,0,0,0-1.139,1.7c.18,2.52,1.109,7.957,5.638,11.467a1.654,1.654,0,0,0,1.84.11C18,80.7,29.835,75,41.521,83.438a1.672,1.672,0,0,0,1.958,0C55.164,75,67,80.7,70.293,82.6a1.654,1.654,0,0,0,1.84-.11c4.529-3.511,5.458-8.947,5.638-11.467a1.666,1.666,0,0,0-1.139-1.7c-3.4-1.123-13.1-5.474-14.373-18.842" fill="none" stroke="#000" stroke-linecap="round" stroke-linejoin="round" stroke-miterlimit="10" stroke-width="2.49"/>
              <path id="Trazado_775626" data-name="Trazado 775626" d="M58.5,11.248a15.923,15.923,0,0,1-6.466-8.073,1.676,1.676,0,0,0-1.121-1.056A31.589,31.589,0,0,0,42.5,1.245a31.589,31.589,0,0,0-8.414.874,1.677,1.677,0,0,0-1.121,1.056c-1.018,2.873-5.713,12.878-21,10a1.671,1.671,0,0,0-1.871,1.04A43.242,43.242,0,0,0,7.614,24.779,1.675,1.675,0,0,0,8.866,26.59c3.8.966,14.014,5.04,14.014,20.9a25.7,25.7,0,0,1-2.2,10.9" fill="none" stroke="#000" stroke-linecap="round" stroke-linejoin="round" stroke-miterlimit="10" stroke-width="2.49"/>
              <path id="Trazado_775627" data-name="Trazado 775627" d="M62.212,44.974C63.228,31.193,72.547,27.5,76.134,26.59a1.675,1.675,0,0,0,1.252-1.811A43.254,43.254,0,0,0,74.905,14.22a1.671,1.671,0,0,0-1.871-1.04,23.884,23.884,0,0,1-9.453.081" fill="none" stroke="#000" stroke-linecap="round" stroke-linejoin="round" stroke-miterlimit="10" stroke-width="2.49"/>
            </g>
            <g id="Grupo_1065692" data-name="Grupo 1065692">
              <g id="Grupo_1065691" data-name="Grupo 1065691">
                <g id="Grupo_1065690" data-name="Grupo 1065690">
                  <g id="Grupo_1065689" data-name="Grupo 1065689">
                    <path id="Trazado_775628" data-name="Trazado 775628" d="M42.349,75.142a.316.316,0,0,0,.3,0l.308-.166" fill="none" stroke="#000" stroke-linecap="round" stroke-linejoin="round" stroke-width="2.49"/>
                    <path id="Trazado_775629" data-name="Trazado 775629" d="M47.695,72.954a29.686,29.686,0,0,1,9.317-1.475,32.964,32.964,0,0,1,8.882,1.244.316.316,0,0,0,.273-.559,27.965,27.965,0,0,1-3.577-3.17c-5.2-5.474-7.942-12.91-7.942-21.506,0-11,4.183-17.619,7.693-21.235a24.727,24.727,0,0,1,2.976-2.61" fill="none" stroke="#000" stroke-linecap="round" stroke-linejoin="round" stroke-width="2.49" stroke-dasharray="7.764 31.054"/>
                    <path id="Trazado_775630" data-name="Trazado 775630" d="M67.461,22.209q.288-.173.574-.333l-.188-.713q-.335,0-.664-.007" fill="none" stroke="#000" stroke-linecap="round" stroke-linejoin="round" stroke-width="2.49"/>
                    <path id="Trazado_775631" data-name="Trazado 775631" d="M62.183,20.585A21.617,21.617,0,0,1,48.86,11.736" fill="none" stroke="#000" stroke-linecap="round" stroke-linejoin="round" stroke-width="2.49" stroke-dasharray="7.588 30.353"/>
                    <path id="Trazado_775632" data-name="Trazado 775632" d="M47.5,9.617q-.167-.288-.326-.578" fill="none" stroke="#000" stroke-linecap="round" stroke-linejoin="round" stroke-width="2.49"/>
                  </g>
                </g>
              </g>
            </g>
            <line id="Línea_353" data-name="Línea 353" x2="0.65" transform="translate(42.175 8.716)" fill="none" stroke="#000" stroke-linecap="round" stroke-linejoin="round" stroke-miterlimit="10" stroke-width="2.49" stroke-dasharray="8 32"/>
          </g>
          <g id="Grupo_1065695" data-name="Grupo 1065695">
            <circle id="Elipse_4763" data-name="Elipse 4763" cx="9.385" cy="9.385" r="9.385" transform="translate(33.115 19.715)" fill="none" stroke="#000" stroke-linecap="round" stroke-linejoin="round" stroke-miterlimit="10" stroke-width="2.49"/>
            <g id="Grupo_1065694" data-name="Grupo 1065694">
              <path id="Trazado_775633" data-name="Trazado 775633" d="M41.838,33.4l-3.669-5.8a.784.784,0,0,1,.662-1.2h7.338a.784.784,0,0,1,.662,1.2l-3.669,5.8A.784.784,0,0,1,41.838,33.4Z" fill="none" stroke="#000" stroke-linecap="round" stroke-linejoin="round" stroke-miterlimit="10" stroke-width="2.49"/>
            </g>
          </g>
          <g id="Grupo_1065696" data-name="Grupo 1065696">
            <line id="Línea_354" data-name="Línea 354" x2="8.824" transform="translate(38.088 57.592)" fill="none" stroke="#000" stroke-linecap="round" stroke-linejoin="round" stroke-miterlimit="10" stroke-width="2.49"/>
            <line id="Línea_355" data-name="Línea 355" x2="4.317" transform="translate(40.341 53.158)" fill="none" stroke="#000" stroke-linecap="round" stroke-linejoin="round" stroke-miterlimit="10" stroke-width="2.49"/>
            <line id="Línea_356" data-name="Línea 356" x2="4.317" transform="translate(40.341 62.025)" fill="none" stroke="#000" stroke-linecap="round" stroke-linejoin="round" stroke-miterlimit="10" stroke-width="2.49"/>
          </g>
        </g>
      </g>
    </g>
  </g>
</svg>
