<svg xmlns="http://www.w3.org/2000/svg" xmlns:xlink="http://www.w3.org/1999/xlink" width="444" height="343" viewBox="0 0 444 343">
  <defs>
    <clipPath id="clip-path">
      <rect id="Rectángulo_374168" data-name="Rectángulo 374168" width="381.333" height="212.843" fill="none"/>
    </clipPath>
  </defs>
  <g id="Grupo_1066280" data-name="Grupo 1066280" transform="translate(6215 8143)">
    <path id="Figura_26_Puntada_escapulario" data-name="Figura 26_Puntada_escapulario" d="M20,0H424a20,20,0,0,1,20,20V343a0,0,0,0,1,0,0H0a0,0,0,0,1,0,0V20A20,20,0,0,1,20,0Z" transform="translate(-6215 -8143)" fill="#fff"/>
    <g id="Grupo_1066226" data-name="Grupo 1066226" transform="translate(-6179.667 -8072.922)">
      <path id="Trazado_777408" data-name="Trazado 777408" d="M5,5,36.138,213.406l186.827.624,54.12-195.3" transform="translate(-2.739 -3.096)" fill="#da8666"/>
      <g id="Grupo_1066223" data-name="Grupo 1066223">
        <g id="Grupo_1066222" data-name="Grupo 1066222" clip-path="url(#clip-path)">
          <path id="Trazado_777409" data-name="Trazado 777409" d="M222.019,212.843,31.4,212.206.017,2.14A2,2,0,0,1,1.979.014,2.216,2.216,0,0,1,4.5,1.665l30.89,206.748,183.038.612L272.144,15.2a2.308,2.308,0,0,1,2.716-1.421,1.918,1.918,0,0,1,1.688,2.286Z" transform="translate(0 0)"/>
          <path id="Trazado_777410" data-name="Trazado 777410" d="M666.239,264.554l40.51-140.642.1-.354.3-.364a73.11,73.11,0,0,0,9.2-13.883c1.295-2.847,4.367-9.76-.839-10.6a1.534,1.534,0,0,0-.8.035c-5.143,3-4.092,21.206-3.513,26.512.2,1.684-1.269,3.187-3.271,3.34A3.5,3.5,0,0,1,704,125.839c-.214-2.893-.269-5.671-.238-8.546.225-6.378.391-21.057,8.992-23.478a9.992,9.992,0,0,1,9.866,3.141,7.942,7.942,0,0,1,1.615,5.384,21.841,21.841,0,0,1-2.775,8.775,62.47,62.47,0,0,1-4.718,7.54c-1.753,2.429-3.559,4.72-5.582,7.019l.4-.717Z" transform="translate(-364.94 -57.926)"/>
          <path id="Trazado_777411" data-name="Trazado 777411" d="M60.015,434.4q39.567-1.338,79.16-2,39.389-.658,78.788-.646,22.224.006,44.446.227c2.62.026,2.622-3.4,0-3.426q-39.6-.391-79.2-.107-39.395.284-78.778,1.238-22.214.538-44.421,1.29c-2.61.088-2.623,3.514,0,3.426" transform="translate(-31.799 -265.296)" fill="#45d3ff"/>
          <path id="Trazado_777412" data-name="Trazado 777412" d="M74.6,415.816a124.8,124.8,0,0,1,12.467,16.465q1.581,2.493,3.034,5.041a2.27,2.27,0,0,0,2.784.614,1.61,1.61,0,0,0,.73-2.344,125.5,125.5,0,0,0-11.7-17.067q-1.84-2.255-3.8-4.438a2.324,2.324,0,0,0-2.784-.615c-.838.454-1.415,1.578-.73,2.343" transform="translate(-40.699 -255.946)" fill="#45d3ff"/>
          <path id="Trazado_777413" data-name="Trazado 777413" d="M133.621,415.816a124.8,124.8,0,0,1,12.467,16.465q1.581,2.493,3.034,5.041a2.27,2.27,0,0,0,2.784.614,1.61,1.61,0,0,0,.73-2.344,125.5,125.5,0,0,0-11.7-17.067q-1.84-2.255-3.8-4.438a2.324,2.324,0,0,0-2.784-.615c-.838.454-1.415,1.578-.73,2.343" transform="translate(-73.026 -255.946)" fill="#45d3ff"/>
          <path id="Trazado_777414" data-name="Trazado 777414" d="M192.638,415.816A124.8,124.8,0,0,1,205.1,432.282q1.581,2.493,3.034,5.041a2.27,2.27,0,0,0,2.784.614,1.61,1.61,0,0,0,.73-2.344,125.5,125.5,0,0,0-11.7-17.067q-1.84-2.255-3.8-4.438a2.324,2.324,0,0,0-2.784-.615c-.838.454-1.415,1.578-.73,2.343" transform="translate(-105.353 -255.946)" fill="#45d3ff"/>
          <path id="Trazado_777415" data-name="Trazado 777415" d="M251.654,415.816a124.8,124.8,0,0,1,12.467,16.465q1.581,2.493,3.034,5.041a2.27,2.27,0,0,0,2.784.614,1.61,1.61,0,0,0,.73-2.344,125.5,125.5,0,0,0-11.7-17.067q-1.84-2.255-3.8-4.438a2.324,2.324,0,0,0-2.784-.615c-.837.454-1.415,1.578-.73,2.343" transform="translate(-137.68 -255.946)" fill="#45d3ff"/>
          <path id="Trazado_777416" data-name="Trazado 777416" d="M310.67,415.816a124.8,124.8,0,0,1,12.467,16.465q1.581,2.493,3.034,5.041a2.27,2.27,0,0,0,2.784.614,1.61,1.61,0,0,0,.73-2.344,125.494,125.494,0,0,0-11.7-17.067q-1.84-2.255-3.8-4.438a2.324,2.324,0,0,0-2.784-.615c-.838.454-1.416,1.578-.73,2.343" transform="translate(-170.007 -255.946)" fill="#45d3ff"/>
          <path id="Trazado_777417" data-name="Trazado 777417" d="M369.687,415.816a124.8,124.8,0,0,1,12.467,16.465q1.581,2.493,3.034,5.041a2.27,2.27,0,0,0,2.784.614,1.61,1.61,0,0,0,.73-2.344A125.5,125.5,0,0,0,377,418.526q-1.84-2.255-3.8-4.438a2.324,2.324,0,0,0-2.784-.615c-.838.454-1.415,1.578-.73,2.343" transform="translate(-202.334 -255.946)" fill="#45d3ff"/>
          <path id="Trazado_777418" data-name="Trazado 777418" d="M428.7,415.816a124.792,124.792,0,0,1,12.467,16.465q1.581,2.493,3.034,5.041a2.27,2.27,0,0,0,2.784.614,1.61,1.61,0,0,0,.73-2.344,125.507,125.507,0,0,0-11.7-17.067q-1.84-2.255-3.8-4.438a2.324,2.324,0,0,0-2.784-.615c-.837.454-1.416,1.578-.73,2.343" transform="translate(-234.661 -255.946)" fill="#45d3ff"/>
          <path id="Trazado_777419" data-name="Trazado 777419" d="M585.967,111.133a20.287,20.287,0,0,0-4.922,1.539,52.254,52.254,0,0,0-5.756,2.947,159.254,159.254,0,0,0-15.038,10.145c-6.159,4.579-12.1,9.359-17.952,14.217q-10.161,8.439-19.967,17.176-10.5,9.3-20.743,18.8-10.237,9.467-20.28,19.078-9.366,8.953-18.578,18.02-7.887,7.764-15.638,15.625c-3.867,3.931-7.708,7.88-11.458,11.891-2.174,2.325-4.441,4.647-6.341,7.142a7.191,7.191,0,0,0-.521.752,1.61,1.61,0,0,0,.73,2.344,2.28,2.28,0,0,0,2.784-.614,13.983,13.983,0,0,1,1.49-1.947c.992-1.175,2.03-2.321,3.073-3.463.293-.32-.186.2-.055.06l.224-.244q.278-.3.557-.6.543-.585,1.089-1.168,1.193-1.273,2.4-2.539,2.85-3,5.747-5.96,7.3-7.485,14.753-14.855,8.863-8.788,17.88-17.465,9.844-9.481,19.862-18.834,10.264-9.579,20.743-18.992,9.945-8.916,20.166-17.612c6.07-5.14,12.233-10.207,18.585-15.1q4.027-3.1,8.18-6.087,1.888-1.349,3.815-2.659.9-.613,1.819-1.215l.4-.265c.31-.2-.4.259-.09.059l.24-.155q.433-.279.868-.555c2.048-1.3,4.145-2.549,6.336-3.671.881-.452,1.778-.883,2.7-1.275.411-.175.826-.343,1.247-.5.1-.037.2-.068.3-.11-.682.291-.353.123-.166.061s.38-.126.571-.185a13.686,13.686,0,0,1,2.027-.473,1.715,1.715,0,0,0,1.421-2.107,2.155,2.155,0,0,0-2.5-1.2" transform="translate(-234.73 -68.812)" fill="#45d3ff"/>
          <path id="Trazado_777420" data-name="Trazado 777420" d="M385.26,414.117a124.8,124.8,0,0,0-12.467,16.465q-1.581,2.493-3.034,5.041a1.6,1.6,0,0,0,.73,2.344,2.289,2.289,0,0,0,2.784-.615,125.5,125.5,0,0,1,11.7-17.067q1.84-2.255,3.8-4.439a1.575,1.575,0,0,0-.73-2.343,2.332,2.332,0,0,0-2.784.614" transform="translate(-202.406 -255.976)" fill="#45d3ff"/>
          <path id="Trazado_777421" data-name="Trazado 777421" d="M326.243,414.117a124.8,124.8,0,0,0-12.467,16.465q-1.581,2.493-3.034,5.041a1.6,1.6,0,0,0,.73,2.344,2.289,2.289,0,0,0,2.784-.615,125.5,125.5,0,0,1,11.7-17.067q1.84-2.255,3.8-4.439a1.575,1.575,0,0,0-.73-2.343,2.332,2.332,0,0,0-2.784.614" transform="translate(-170.079 -255.976)" fill="#45d3ff"/>
          <path id="Trazado_777422" data-name="Trazado 777422" d="M267.227,414.117a124.8,124.8,0,0,0-12.467,16.465q-1.581,2.493-3.034,5.041a1.6,1.6,0,0,0,.73,2.344,2.289,2.289,0,0,0,2.784-.615,125.509,125.509,0,0,1,11.7-17.067q1.84-2.255,3.8-4.439a1.575,1.575,0,0,0-.73-2.343,2.332,2.332,0,0,0-2.784.614" transform="translate(-137.752 -255.976)" fill="#45d3ff"/>
          <path id="Trazado_777423" data-name="Trazado 777423" d="M208.21,414.117a124.8,124.8,0,0,0-12.467,16.465q-1.581,2.493-3.034,5.041a1.6,1.6,0,0,0,.73,2.344,2.289,2.289,0,0,0,2.784-.615,125.506,125.506,0,0,1,11.7-17.067q1.84-2.255,3.8-4.439a1.575,1.575,0,0,0-.73-2.343,2.332,2.332,0,0,0-2.784.614" transform="translate(-105.425 -255.976)" fill="#45d3ff"/>
          <path id="Trazado_777424" data-name="Trazado 777424" d="M149.194,414.117a124.8,124.8,0,0,0-12.467,16.465q-1.581,2.493-3.034,5.041a1.6,1.6,0,0,0,.73,2.344,2.289,2.289,0,0,0,2.784-.615,125.5,125.5,0,0,1,11.7-17.067q1.84-2.255,3.8-4.439a1.575,1.575,0,0,0-.73-2.343,2.332,2.332,0,0,0-2.784.614" transform="translate(-73.099 -255.976)" fill="#45d3ff"/>
          <path id="Trazado_777425" data-name="Trazado 777425" d="M90.178,414.117a124.8,124.8,0,0,0-12.467,16.465q-1.581,2.493-3.034,5.041a1.6,1.6,0,0,0,.73,2.344,2.289,2.289,0,0,0,2.784-.615,125.5,125.5,0,0,1,11.7-17.067q1.84-2.255,3.8-4.439a1.575,1.575,0,0,0-.73-2.343,2.332,2.332,0,0,0-2.784.614" transform="translate(-40.772 -255.976)" fill="#45d3ff"/>
          <path id="Trazado_777426" data-name="Trazado 777426" d="M794.945,118.013c.279.088.555.178.83.274-.356-.124-.066-.023,0,0,.161.062.323.122.483.186q.8.316,1.564.683a26.408,26.408,0,0,1,2.78,1.546c-.318-.2-.005,0,.073.05.115.076.228.154.341.233q.305.212.6.43.7.512,1.354,1.061a29.8,29.8,0,0,1,2.262,2.1q.282.29.555.586c-.049-.053-.226-.252.007.01.089.1.178.2.266.3q.53.605,1.025,1.231a25.956,25.956,0,0,1,1.882,2.679c.266.439.513.886.749,1.337.259.492-.135-.3.1.2.047.1.1.2.144.306q.194.421.37.848a21.834,21.834,0,0,1,1.013,3.086q.1.4.184.807.05.243.095.486c.013.071.088.543.036.2q.135.9.192,1.8a20.808,20.808,0,0,1-.092,3.61c-.1.895,1.007,1.752,2.035,1.713a1.947,1.947,0,0,0,2.035-1.713,22.919,22.919,0,0,0-2.915-13.663,29.556,29.556,0,0,0-4.245-5.652,28.842,28.842,0,0,0-12.645-8.031,2.115,2.115,0,0,0-2.5,1.2c-.263.972.351,1.771,1.421,2.107" transform="translate(-434.628 -70.999)" fill="#45d3ff"/>
        </g>
      </g>
    </g>
  </g>
</svg>
