<svg xmlns="http://www.w3.org/2000/svg" xmlns:xlink="http://www.w3.org/1999/xlink" width="111" height="107.243" viewBox="0 0 111 107.243">
  <defs>
    <clipPath id="clip-path">
      <rect id="Rectángulo_374083" data-name="Rectángulo 374083" width="85" height="85" transform="translate(206 1040)" fill="#fff" stroke="#707070" stroke-width="1"/>
    </clipPath>
  </defs>
  <g id="Grupo_1065653" data-name="Grupo 1065653" transform="translate(-180 -1040)">
    <path id="Trazado_771771" data-name="Trazado 771771" d="M3.029,901.384c-4.854-10.632-9.623-21.763-18.282-29.613S-37.772,860.4-47.38,867.054c-6.449,4.467-9.558,12.294-14.67,18.244-4.391,5.111-10.2,8.763-15.273,13.2s-9.639,10.174-10.116,16.9c-.78,11,9.328,19.569,19.151,24.571a108.718,108.718,0,0,0,54.973,11.61c9.6-.525,35.933-4.308,36.339-17.97.161-5.407-6.641-9.634-9.612-13.5C9.069,914.456,5.973,907.832,3.029,901.384Z" transform="translate(267.481 195.512)" fill="#025157"/>
    <g id="Grupo_1054388" data-name="Grupo 1054388" transform="translate(-1477.32 1041.764)">
      <path id="Trazado_771758" data-name="Trazado 771758" d="M1719.933,176.872c-.182.885-.264,2.007.516,2.607a2.69,2.69,0,0,0,2.063.7c1.4-.258,1.346-1.325,1.433-2.566a4.56,4.56,0,0,0-.191-1.961,1.924,1.924,0,0,0-1.413-1.263,1.886,1.886,0,0,0-1.675.738A4,4,0,0,0,1719.933,176.872Z" transform="translate(-41.887 -116.568)" fill="#f5947a"/>
      <path id="Trazado_771759" data-name="Trazado 771759" d="M1693.235,139.81a1.538,1.538,0,0,0-.07-.525,1.6,1.6,0,0,0-.221-.369l-.538-.74a2.393,2.393,0,0,0-.7-.718,1.544,1.544,0,0,0-1.292-.05,3.429,3.429,0,0,0-1.1.744,4.094,4.094,0,0,0-.978,1.26c-.875,1.919.766,4.314,2.5,5.127C1693.355,145.713,1693.253,141.144,1693.235,139.81Z" transform="translate(-16.752 -87.181)" fill="#f5947a"/>
      <path id="Trazado_771760" data-name="Trazado 771760" d="M1672.416,97.065a1.971,1.971,0,0,0-.572-.742,9.418,9.418,0,0,0-3.04-2.169,1.5,1.5,0,0,0-1.11-.061,1.646,1.646,0,0,0-.724,1.5c-.083,1.526.495,3.719,2.291,4.036C1670.473,99.846,1672.925,98.534,1672.416,97.065Z" transform="translate(0 -52.875)" fill="#f5947a"/>
      <path id="Trazado_771761" data-name="Trazado 771761" d="M1690.61,45.548c-.439-.847-1.187-1.7-2.14-1.654a3.006,3.006,0,0,0-1.638.819,4.065,4.065,0,0,0-1.377,1.552,3.483,3.483,0,0,0-.2,1.04A3.3,3.3,0,0,0,1689.113,51C1691.53,50.505,1691.491,47.247,1690.61,45.548Z" transform="translate(-14.492 -13.152)" fill="#f5947a"/>
      <path id="Trazado_771762" data-name="Trazado 771762" d="M1733.282,30.8a3.441,3.441,0,0,0,.345-.975,3.212,3.212,0,0,0-.284-1.546,1.55,1.55,0,0,0-.605-.877,1.476,1.476,0,0,0-1.341.169,16.573,16.573,0,0,0-3.626,2.832,3.287,3.287,0,0,0-.615.7,2.247,2.247,0,0,0-.273,1.073c-.042,1.475,1.267,3.1,2.861,2.587C1731.555,34.178,1732.528,32.4,1733.282,30.8Z" transform="translate(-47.492 0)" fill="#f5947a"/>
      <path id="Trazado_771763" data-name="Trazado 771763" d="M1715.629,93.454a3.01,3.01,0,0,0,.662-.8,1.455,1.455,0,0,0-.507-1.475,5.064,5.064,0,0,0-1.837-1.084,2.058,2.058,0,0,0-1.334-.134,1.556,1.556,0,0,0-.908.976,4.438,4.438,0,0,0-.2,1.36c-.041,1.118-.015,3.135,1.478,3.332C1714.38,95.807,1714.9,94.272,1715.629,93.454Z" transform="translate(-35.299 -49.611)" fill="#f5947a"/>
      <path id="Trazado_771764" data-name="Trazado 771764" d="M1755.448,78.825a2.137,2.137,0,0,0-1.456-2.078,3.529,3.529,0,0,0-1.639-.019,4.262,4.262,0,0,0-1.3.4,3.708,3.708,0,0,0-1.689,2.419,3.5,3.5,0,0,0-.075,1.651c.369,1.59,2.36,2.338,3.837,1.869C1754.783,82.537,1755.377,80.354,1755.448,78.825Z" transform="translate(-65.2 -39.108)" fill="#f5947a"/>
      <path id="Trazado_771765" data-name="Trazado 771765" d="M1781.446,121.187a4.676,4.676,0,0,0,.116-1.316,2.49,2.49,0,0,0-.423-1.681,2.413,2.413,0,0,0-1.786-.566,4.9,4.9,0,0,0-1.481.119,1.633,1.633,0,0,0-1.172,2.3,3.787,3.787,0,0,0,2.4,2.423A1.98,1.98,0,0,0,1781.446,121.187Z" transform="translate(-86.87 -71.587)" fill="#f5947a"/>
      <path id="Trazado_771766" data-name="Trazado 771766" d="M1736.9,132.044a4.137,4.137,0,0,0-1.06-1.977,4.713,4.713,0,0,0-2.732-1.967.821.821,0,0,0-1.07.6,3.628,3.628,0,0,0,.087,2.257,9.263,9.263,0,0,0,1.061,2.03c.452.7,1.244,1.868,2.237,1.608A2.547,2.547,0,0,0,1736.9,132.044Z" transform="translate(-51.468 -79.881)" fill="#f5947a"/>
      <path id="Trazado_771767" data-name="Trazado 771767" d="M1776.033,162.2a2.282,2.282,0,0,0-.793-1.823,2.673,2.673,0,0,0-1.723-.353,2.352,2.352,0,0,0-1.355.389,2.385,2.385,0,0,0-.7,1.717,5.814,5.814,0,0,0,.134,2.108c.3,1.073,1.445,2.486,2.652,1.779A4.611,4.611,0,0,0,1776.033,162.2Z" transform="translate(-82.795 -105.193)" fill="#f5947a"/>
    </g>
    <g id="Enmascarar_grupo_136" data-name="Enmascarar grupo 136" clip-path="url(#clip-path)">
      <g id="batik" transform="translate(206 1040)">
        <rect id="Rectángulo_374096" data-name="Rectángulo 374096" width="7.735" height="72.196" transform="translate(68.284 6.402)" fill="#d38a54"/>
        <path id="Trazado_775555" data-name="Trazado 775555" d="M73.441,76.019V8.98A2.578,2.578,0,0,1,76.019,6.4h0A2.578,2.578,0,0,1,78.6,8.98V83.755H11.559V78.6h59.3A2.578,2.578,0,0,0,73.441,76.019Z" fill="#af6a3a"/>
        <g id="Grupo_1065662" data-name="Grupo 1065662">
          <g id="Grupo_1065661" data-name="Grupo 1065661">
            <path id="Trazado_775556" data-name="Trazado 775556" d="M78.6,76.019V8.98a2.527,2.527,0,0,0-.088-.671,2.579,2.579,0,0,0-5.069.671V76.019A2.578,2.578,0,0,1,70.863,78.6H76.02A2.578,2.578,0,0,0,78.6,76.019Z" fill="#8c5835"/>
            <rect id="Rectángulo_374097" data-name="Rectángulo 374097" width="4.98" height="5.157" transform="translate(11.559 78.598)" fill="#8c5835"/>
          </g>
        </g>
        <path id="Trazado_775557" data-name="Trazado 775557" d="M70.863,78.6H8.981A2.578,2.578,0,0,1,6.4,76.019V1.245H68.284V76.019A2.578,2.578,0,0,0,70.863,78.6Z" fill="#ffb272"/>
        <path id="Trazado_775558" data-name="Trazado 775558" d="M11.383,76.019V1.245H6.4V76.019A2.578,2.578,0,0,0,8.98,78.6h4.98A2.578,2.578,0,0,1,11.383,76.019Z" fill="#d38a54"/>
        <path id="Trazado_775559" data-name="Trazado 775559" d="M16.716,27.029h0A10.314,10.314,0,0,1,6.4,16.716h0A10.314,10.314,0,0,1,16.716,27.029Z" fill="#af6a3a"/>
        <path id="Trazado_775560" data-name="Trazado 775560" d="M16.716,27.029h0A10.314,10.314,0,0,0,27.03,16.716h0A10.314,10.314,0,0,0,16.716,27.029Z" fill="#af6a3a"/>
        <path id="Trazado_775561" data-name="Trazado 775561" d="M16.716,27.029h0A10.314,10.314,0,0,0,6.4,37.343h0A10.314,10.314,0,0,0,16.716,27.029Z" fill="#af6a3a"/>
        <path id="Trazado_775562" data-name="Trazado 775562" d="M16.716,27.029h0A10.314,10.314,0,0,1,27.03,37.343h0A10.314,10.314,0,0,1,16.716,27.029Z" fill="#af6a3a"/>
        <path id="Trazado_775563" data-name="Trazado 775563" d="M37.343,27.029h0A10.314,10.314,0,0,1,27.03,16.716h0A10.314,10.314,0,0,1,37.343,27.029Z" fill="#af6a3a"/>
        <path id="Trazado_775564" data-name="Trazado 775564" d="M37.343,27.029h0A10.314,10.314,0,0,0,47.657,16.716h0A10.314,10.314,0,0,0,37.343,27.029Z" fill="#af6a3a"/>
        <path id="Trazado_775565" data-name="Trazado 775565" d="M37.343,27.029h0A10.314,10.314,0,0,0,27.03,37.343h0A10.314,10.314,0,0,0,37.343,27.029Z" fill="#af6a3a"/>
        <path id="Trazado_775566" data-name="Trazado 775566" d="M37.343,27.029h0A10.314,10.314,0,0,1,47.657,37.343h0A10.314,10.314,0,0,1,37.343,27.029Z" fill="#af6a3a"/>
        <path id="Trazado_775567" data-name="Trazado 775567" d="M57.971,27.029h0A10.314,10.314,0,0,1,47.657,16.716h0A10.314,10.314,0,0,1,57.971,27.029Z" fill="#af6a3a"/>
        <path id="Trazado_775568" data-name="Trazado 775568" d="M57.971,27.029h0A10.314,10.314,0,0,0,68.284,16.716h0A10.314,10.314,0,0,0,57.971,27.029Z" fill="#af6a3a"/>
        <path id="Trazado_775569" data-name="Trazado 775569" d="M57.971,27.029h0A10.314,10.314,0,0,0,47.657,37.343h0A10.314,10.314,0,0,0,57.971,27.029Z" fill="#af6a3a"/>
        <path id="Trazado_775570" data-name="Trazado 775570" d="M57.971,27.029h0A10.314,10.314,0,0,1,68.284,37.343h0A10.314,10.314,0,0,1,57.971,27.029Z" fill="#af6a3a"/>
        <path id="Trazado_775571" data-name="Trazado 775571" d="M16.716,57.97h0A10.314,10.314,0,0,1,6.4,47.657h0A10.314,10.314,0,0,1,16.716,57.97Z" fill="#af6a3a"/>
        <path id="Trazado_775572" data-name="Trazado 775572" d="M16.716,57.97h0A10.314,10.314,0,0,0,27.03,47.657h0A10.314,10.314,0,0,0,16.716,57.97Z" fill="#af6a3a"/>
        <path id="Trazado_775573" data-name="Trazado 775573" d="M16.716,57.97h0A10.314,10.314,0,0,0,6.4,68.284h0A10.314,10.314,0,0,0,16.716,57.97Z" fill="#af6a3a"/>
        <path id="Trazado_775574" data-name="Trazado 775574" d="M11.383,25.545V18a10.267,10.267,0,0,0-4.98-1.28h0A10.308,10.308,0,0,0,11.383,25.545Z" fill="#8c5835"/>
        <path id="Trazado_775575" data-name="Trazado 775575" d="M6.4,37.343h0a10.267,10.267,0,0,0,4.98-1.28V28.514A10.308,10.308,0,0,0,6.4,37.343Z" fill="#8c5835"/>
        <path id="Trazado_775576" data-name="Trazado 775576" d="M6.4,47.657h0a10.308,10.308,0,0,0,4.98,8.83V48.937a10.266,10.266,0,0,0-4.98-1.28Z" fill="#8c5835"/>
        <path id="Trazado_775577" data-name="Trazado 775577" d="M6.4,68.284h0A10.267,10.267,0,0,0,11.383,67V59.455A10.308,10.308,0,0,0,6.4,68.284Z" fill="#8c5835"/>
        <path id="Trazado_775578" data-name="Trazado 775578" d="M16.716,57.97h0A10.314,10.314,0,0,1,27.03,68.284h0A10.314,10.314,0,0,1,16.716,57.97Z" fill="#af6a3a"/>
        <path id="Trazado_775579" data-name="Trazado 775579" d="M37.343,57.97h0A10.314,10.314,0,0,1,27.03,47.657h0A10.314,10.314,0,0,1,37.343,57.97Z" fill="#af6a3a"/>
        <path id="Trazado_775580" data-name="Trazado 775580" d="M37.343,57.97h0A10.314,10.314,0,0,0,47.657,47.657h0A10.314,10.314,0,0,0,37.343,57.97Z" fill="#af6a3a"/>
        <path id="Trazado_775581" data-name="Trazado 775581" d="M37.343,57.97h0A10.314,10.314,0,0,0,27.03,68.284h0A10.314,10.314,0,0,0,37.343,57.97Z" fill="#af6a3a"/>
        <path id="Trazado_775582" data-name="Trazado 775582" d="M37.343,57.97h0A10.314,10.314,0,0,1,47.657,68.284h0A10.314,10.314,0,0,1,37.343,57.97Z" fill="#af6a3a"/>
        <path id="Trazado_775583" data-name="Trazado 775583" d="M57.971,57.97h0A10.314,10.314,0,0,1,47.657,47.657h0A10.314,10.314,0,0,1,57.971,57.97Z" fill="#af6a3a"/>
        <path id="Trazado_775584" data-name="Trazado 775584" d="M57.971,57.97h0A10.314,10.314,0,0,0,68.284,47.657h0A10.314,10.314,0,0,0,57.971,57.97Z" fill="#af6a3a"/>
        <path id="Trazado_775585" data-name="Trazado 775585" d="M57.971,57.97h0A10.314,10.314,0,0,0,47.657,68.284h0A10.314,10.314,0,0,0,57.971,57.97Z" fill="#af6a3a"/>
        <path id="Trazado_775586" data-name="Trazado 775586" d="M57.971,57.97h0A10.314,10.314,0,0,1,68.284,68.284h0A10.314,10.314,0,0,1,57.971,57.97Z" fill="#af6a3a"/>
        <path id="Trazado_775587" data-name="Trazado 775587" d="M16.716,27.029h0A10.314,10.314,0,0,1,6.4,16.716h0A10.314,10.314,0,0,1,16.716,27.029Z" fill="none" stroke="#000" stroke-linecap="round" stroke-linejoin="round" stroke-miterlimit="10" stroke-width="2.49"/>
        <path id="Trazado_775588" data-name="Trazado 775588" d="M16.716,27.029h0A10.314,10.314,0,0,0,27.03,16.716h0A10.314,10.314,0,0,0,16.716,27.029Z" fill="none" stroke="#000" stroke-linecap="round" stroke-linejoin="round" stroke-miterlimit="10" stroke-width="2.49"/>
        <path id="Trazado_775589" data-name="Trazado 775589" d="M16.716,27.029h0A10.314,10.314,0,0,0,6.4,37.343h0A10.314,10.314,0,0,0,16.716,27.029Z" fill="none" stroke="#000" stroke-linecap="round" stroke-linejoin="round" stroke-miterlimit="10" stroke-width="2.49"/>
        <path id="Trazado_775590" data-name="Trazado 775590" d="M16.716,27.029h0A10.314,10.314,0,0,1,27.03,37.343h0A10.314,10.314,0,0,1,16.716,27.029Z" fill="none" stroke="#000" stroke-linecap="round" stroke-linejoin="round" stroke-miterlimit="10" stroke-width="2.49"/>
        <path id="Trazado_775591" data-name="Trazado 775591" d="M37.343,27.029h0A10.314,10.314,0,0,1,27.03,16.716h0A10.314,10.314,0,0,1,37.343,27.029Z" fill="none" stroke="#000" stroke-linecap="round" stroke-linejoin="round" stroke-miterlimit="10" stroke-width="2.49"/>
        <path id="Trazado_775592" data-name="Trazado 775592" d="M37.343,27.029h0A10.314,10.314,0,0,0,47.657,16.716h0A10.314,10.314,0,0,0,37.343,27.029Z" fill="none" stroke="#000" stroke-linecap="round" stroke-linejoin="round" stroke-miterlimit="10" stroke-width="2.49"/>
        <path id="Trazado_775593" data-name="Trazado 775593" d="M37.343,27.029h0A10.314,10.314,0,0,0,27.03,37.343h0A10.314,10.314,0,0,0,37.343,27.029Z" fill="none" stroke="#000" stroke-linecap="round" stroke-linejoin="round" stroke-miterlimit="10" stroke-width="2.49"/>
        <path id="Trazado_775594" data-name="Trazado 775594" d="M37.343,27.029h0A10.314,10.314,0,0,1,47.657,37.343h0A10.314,10.314,0,0,1,37.343,27.029Z" fill="none" stroke="#000" stroke-linecap="round" stroke-linejoin="round" stroke-miterlimit="10" stroke-width="2.49"/>
        <path id="Trazado_775595" data-name="Trazado 775595" d="M57.971,27.029h0A10.314,10.314,0,0,1,47.657,16.716h0A10.314,10.314,0,0,1,57.971,27.029Z" fill="none" stroke="#000" stroke-linecap="round" stroke-linejoin="round" stroke-miterlimit="10" stroke-width="2.49"/>
        <path id="Trazado_775596" data-name="Trazado 775596" d="M57.971,27.029h0A10.314,10.314,0,0,0,68.284,16.716h0A10.314,10.314,0,0,0,57.971,27.029Z" fill="none" stroke="#000" stroke-linecap="round" stroke-linejoin="round" stroke-miterlimit="10" stroke-width="2.49"/>
        <path id="Trazado_775597" data-name="Trazado 775597" d="M57.971,27.029h0A10.314,10.314,0,0,0,47.657,37.343h0A10.314,10.314,0,0,0,57.971,27.029Z" fill="none" stroke="#000" stroke-linecap="round" stroke-linejoin="round" stroke-miterlimit="10" stroke-width="2.49"/>
        <path id="Trazado_775598" data-name="Trazado 775598" d="M57.971,27.029h0A10.314,10.314,0,0,1,68.284,37.343h0A10.314,10.314,0,0,1,57.971,27.029Z" fill="none" stroke="#000" stroke-linecap="round" stroke-linejoin="round" stroke-miterlimit="10" stroke-width="2.49"/>
        <path id="Trazado_775599" data-name="Trazado 775599" d="M16.716,57.97h0A10.314,10.314,0,0,1,6.4,47.657h0A10.314,10.314,0,0,1,16.716,57.97Z" fill="none" stroke="#000" stroke-linecap="round" stroke-linejoin="round" stroke-miterlimit="10" stroke-width="2.49"/>
        <path id="Trazado_775600" data-name="Trazado 775600" d="M16.716,57.97h0A10.314,10.314,0,0,0,27.03,47.657h0A10.314,10.314,0,0,0,16.716,57.97Z" fill="none" stroke="#000" stroke-linecap="round" stroke-linejoin="round" stroke-miterlimit="10" stroke-width="2.49"/>
        <path id="Trazado_775601" data-name="Trazado 775601" d="M16.716,57.97h0A10.314,10.314,0,0,0,6.4,68.284h0A10.314,10.314,0,0,0,16.716,57.97Z" fill="none" stroke="#000" stroke-linecap="round" stroke-linejoin="round" stroke-miterlimit="10" stroke-width="2.49"/>
        <path id="Trazado_775602" data-name="Trazado 775602" d="M16.716,57.97h0A10.314,10.314,0,0,1,27.03,68.284h0A10.314,10.314,0,0,1,16.716,57.97Z" fill="none" stroke="#000" stroke-linecap="round" stroke-linejoin="round" stroke-miterlimit="10" stroke-width="2.49"/>
        <path id="Trazado_775603" data-name="Trazado 775603" d="M37.343,57.97h0A10.314,10.314,0,0,1,27.03,47.657h0A10.314,10.314,0,0,1,37.343,57.97Z" fill="none" stroke="#000" stroke-linecap="round" stroke-linejoin="round" stroke-miterlimit="10" stroke-width="2.49"/>
        <path id="Trazado_775604" data-name="Trazado 775604" d="M37.343,57.97h0A10.314,10.314,0,0,0,47.657,47.657h0A10.314,10.314,0,0,0,37.343,57.97Z" fill="none" stroke="#000" stroke-linecap="round" stroke-linejoin="round" stroke-miterlimit="10" stroke-width="2.49"/>
        <path id="Trazado_775605" data-name="Trazado 775605" d="M37.343,57.97h0A10.314,10.314,0,0,0,27.03,68.284h0A10.314,10.314,0,0,0,37.343,57.97Z" fill="none" stroke="#000" stroke-linecap="round" stroke-linejoin="round" stroke-miterlimit="10" stroke-width="2.49"/>
        <path id="Trazado_775606" data-name="Trazado 775606" d="M37.343,57.97h0A10.314,10.314,0,0,1,47.657,68.284h0A10.314,10.314,0,0,1,37.343,57.97Z" fill="none" stroke="#000" stroke-linecap="round" stroke-linejoin="round" stroke-miterlimit="10" stroke-width="2.49"/>
        <path id="Trazado_775607" data-name="Trazado 775607" d="M57.971,57.97h0A10.314,10.314,0,0,1,47.657,47.657h0A10.314,10.314,0,0,1,57.971,57.97Z" fill="none" stroke="#000" stroke-linecap="round" stroke-linejoin="round" stroke-miterlimit="10" stroke-width="2.49"/>
        <path id="Trazado_775608" data-name="Trazado 775608" d="M57.971,57.97h0A10.314,10.314,0,0,0,68.284,47.657h0A10.314,10.314,0,0,0,57.971,57.97Z" fill="none" stroke="#000" stroke-linecap="round" stroke-linejoin="round" stroke-miterlimit="10" stroke-width="2.49"/>
        <path id="Trazado_775609" data-name="Trazado 775609" d="M57.971,57.97h0A10.314,10.314,0,0,0,47.657,68.284h0A10.314,10.314,0,0,0,57.971,57.97Z" fill="none" stroke="#000" stroke-linecap="round" stroke-linejoin="round" stroke-miterlimit="10" stroke-width="2.49"/>
        <path id="Trazado_775610" data-name="Trazado 775610" d="M57.971,57.97h0A10.314,10.314,0,0,1,68.284,68.284h0A10.314,10.314,0,0,1,57.971,57.97Z" fill="none" stroke="#000" stroke-linecap="round" stroke-linejoin="round" stroke-miterlimit="10" stroke-width="2.49"/>
        <path id="Trazado_775611" data-name="Trazado 775611" d="M70.863,78.6H8.981A2.578,2.578,0,0,1,6.4,76.019V1.245H68.284V76.019A2.578,2.578,0,0,0,70.863,78.6Z" fill="none" stroke="#000" stroke-linecap="round" stroke-linejoin="round" stroke-miterlimit="10" stroke-width="2.49"/>
        <path id="Trazado_775612" data-name="Trazado 775612" d="M73.44,44.98v-36a2.579,2.579,0,1,1,5.158,0V83.755H50.592" fill="none" stroke="#000" stroke-linecap="round" stroke-linejoin="round" stroke-miterlimit="10" stroke-width="2.49"/>
        <path id="Trazado_775613" data-name="Trazado 775613" d="M73.44,50.405V76.019a2.579,2.579,0,0,1-2.578,2.58H11.56v5.156H45.165" fill="none" stroke="#000" stroke-linecap="round" stroke-linejoin="round" stroke-miterlimit="10" stroke-width="2.49"/>
        <line id="Línea_316" data-name="Línea 316" x1="7.735" transform="translate(68.284 6.402)" fill="none" stroke="#000" stroke-linecap="round" stroke-linejoin="round" stroke-miterlimit="10" stroke-width="2.49"/>
        <line id="Línea_317" data-name="Línea 317" x1="33.384" transform="translate(34.9 6.401)" fill="none" stroke="#000" stroke-linecap="round" stroke-linejoin="round" stroke-miterlimit="10" stroke-width="2.49"/>
        <line id="Línea_318" data-name="Línea 318" x1="23.071" transform="translate(6.401 6.401)" fill="none" stroke="#000" stroke-linecap="round" stroke-linejoin="round" stroke-miterlimit="10" stroke-width="2.49"/>
        <line id="Línea_319" data-name="Línea 319" x2="61.882" transform="translate(6.402 68.284)" fill="none" stroke="#000" stroke-linecap="round" stroke-linejoin="round" stroke-miterlimit="10" stroke-width="2.49"/>
        <line id="Línea_320" data-name="Línea 320" x2="61.882" transform="translate(6.402 47.657)" fill="none" stroke="#000" stroke-linecap="round" stroke-linejoin="round" stroke-miterlimit="10" stroke-width="2.49"/>
        <line id="Línea_321" data-name="Línea 321" x2="61.882" transform="translate(6.402 37.343)" fill="none" stroke="#000" stroke-linecap="round" stroke-linejoin="round" stroke-miterlimit="10" stroke-width="2.49"/>
        <line id="Línea_322" data-name="Línea 322" x2="61.882" transform="translate(6.402 16.716)" fill="none" stroke="#000" stroke-linecap="round" stroke-linejoin="round" stroke-miterlimit="10" stroke-width="2.49"/>
        <g id="Grupo_1065663" data-name="Grupo 1065663">
          <line id="Línea_323" data-name="Línea 323" x2="2.578" transform="translate(15.427 11.559)" fill="none" stroke="#000" stroke-linecap="round" stroke-linejoin="round" stroke-miterlimit="10" stroke-width="2.49"/>
          <line id="Línea_324" data-name="Línea 324" y1="2.578" transform="translate(16.716 10.27)" fill="none" stroke="#000" stroke-linecap="round" stroke-linejoin="round" stroke-miterlimit="10" stroke-width="2.49"/>
        </g>
        <g id="Grupo_1065664" data-name="Grupo 1065664">
          <line id="Línea_325" data-name="Línea 325" x2="2.578" transform="translate(25.74 11.559)" fill="none" stroke="#000" stroke-linecap="round" stroke-linejoin="round" stroke-miterlimit="10" stroke-width="2.49"/>
          <line id="Línea_326" data-name="Línea 326" y1="2.578" transform="translate(27.03 10.27)" fill="none" stroke="#000" stroke-linecap="round" stroke-linejoin="round" stroke-miterlimit="10" stroke-width="2.49"/>
        </g>
        <g id="Grupo_1065665" data-name="Grupo 1065665">
          <line id="Línea_327" data-name="Línea 327" x2="2.578" transform="translate(36.054 11.559)" fill="none" stroke="#000" stroke-linecap="round" stroke-linejoin="round" stroke-miterlimit="10" stroke-width="2.49"/>
          <line id="Línea_328" data-name="Línea 328" y1="2.578" transform="translate(37.343 10.27)" fill="none" stroke="#000" stroke-linecap="round" stroke-linejoin="round" stroke-miterlimit="10" stroke-width="2.49"/>
        </g>
        <g id="Grupo_1065666" data-name="Grupo 1065666">
          <line id="Línea_329" data-name="Línea 329" x2="2.578" transform="translate(46.368 11.559)" fill="none" stroke="#000" stroke-linecap="round" stroke-linejoin="round" stroke-miterlimit="10" stroke-width="2.49"/>
          <line id="Línea_330" data-name="Línea 330" y1="2.578" transform="translate(47.657 10.27)" fill="none" stroke="#000" stroke-linecap="round" stroke-linejoin="round" stroke-miterlimit="10" stroke-width="2.49"/>
        </g>
        <g id="Grupo_1065667" data-name="Grupo 1065667">
          <line id="Línea_331" data-name="Línea 331" x2="2.578" transform="translate(56.681 11.559)" fill="none" stroke="#000" stroke-linecap="round" stroke-linejoin="round" stroke-miterlimit="10" stroke-width="2.49"/>
          <line id="Línea_332" data-name="Línea 332" y1="2.578" transform="translate(57.971 10.27)" fill="none" stroke="#000" stroke-linecap="round" stroke-linejoin="round" stroke-miterlimit="10" stroke-width="2.49"/>
        </g>
        <g id="Grupo_1065668" data-name="Grupo 1065668">
          <line id="Línea_333" data-name="Línea 333" x2="2.578" transform="translate(15.427 42.5)" fill="none" stroke="#000" stroke-linecap="round" stroke-linejoin="round" stroke-miterlimit="10" stroke-width="2.49"/>
          <line id="Línea_334" data-name="Línea 334" y1="2.579" transform="translate(16.716 41.211)" fill="none" stroke="#000" stroke-linecap="round" stroke-linejoin="round" stroke-miterlimit="10" stroke-width="2.49"/>
        </g>
        <g id="Grupo_1065669" data-name="Grupo 1065669">
          <line id="Línea_335" data-name="Línea 335" x2="2.578" transform="translate(25.74 42.5)" fill="none" stroke="#000" stroke-linecap="round" stroke-linejoin="round" stroke-miterlimit="10" stroke-width="2.49"/>
          <line id="Línea_336" data-name="Línea 336" y1="2.579" transform="translate(27.03 41.211)" fill="none" stroke="#000" stroke-linecap="round" stroke-linejoin="round" stroke-miterlimit="10" stroke-width="2.49"/>
        </g>
        <g id="Grupo_1065670" data-name="Grupo 1065670">
          <line id="Línea_337" data-name="Línea 337" x2="2.578" transform="translate(36.054 42.5)" fill="none" stroke="#000" stroke-linecap="round" stroke-linejoin="round" stroke-miterlimit="10" stroke-width="2.49"/>
          <line id="Línea_338" data-name="Línea 338" y1="2.579" transform="translate(37.343 41.211)" fill="none" stroke="#000" stroke-linecap="round" stroke-linejoin="round" stroke-miterlimit="10" stroke-width="2.49"/>
        </g>
        <g id="Grupo_1065671" data-name="Grupo 1065671">
          <line id="Línea_339" data-name="Línea 339" x2="2.578" transform="translate(46.368 42.5)" fill="none" stroke="#000" stroke-linecap="round" stroke-linejoin="round" stroke-miterlimit="10" stroke-width="2.49"/>
          <line id="Línea_340" data-name="Línea 340" y1="2.579" transform="translate(47.657 41.211)" fill="none" stroke="#000" stroke-linecap="round" stroke-linejoin="round" stroke-miterlimit="10" stroke-width="2.49"/>
        </g>
        <g id="Grupo_1065672" data-name="Grupo 1065672">
          <line id="Línea_341" data-name="Línea 341" x2="2.578" transform="translate(56.681 42.5)" fill="none" stroke="#000" stroke-linecap="round" stroke-linejoin="round" stroke-miterlimit="10" stroke-width="2.49"/>
          <line id="Línea_342" data-name="Línea 342" y1="2.579" transform="translate(57.971 41.211)" fill="none" stroke="#000" stroke-linecap="round" stroke-linejoin="round" stroke-miterlimit="10" stroke-width="2.49"/>
        </g>
        <g id="Grupo_1065673" data-name="Grupo 1065673">
          <line id="Línea_343" data-name="Línea 343" x2="2.578" transform="translate(15.427 73.441)" fill="none" stroke="#000" stroke-linecap="round" stroke-linejoin="round" stroke-miterlimit="10" stroke-width="2.49"/>
          <line id="Línea_344" data-name="Línea 344" y1="2.578" transform="translate(16.716 72.152)" fill="none" stroke="#000" stroke-linecap="round" stroke-linejoin="round" stroke-miterlimit="10" stroke-width="2.49"/>
        </g>
        <g id="Grupo_1065674" data-name="Grupo 1065674">
          <line id="Línea_345" data-name="Línea 345" x2="2.578" transform="translate(25.74 73.441)" fill="none" stroke="#000" stroke-linecap="round" stroke-linejoin="round" stroke-miterlimit="10" stroke-width="2.49"/>
          <line id="Línea_346" data-name="Línea 346" y1="2.578" transform="translate(27.03 72.152)" fill="none" stroke="#000" stroke-linecap="round" stroke-linejoin="round" stroke-miterlimit="10" stroke-width="2.49"/>
        </g>
        <g id="Grupo_1065675" data-name="Grupo 1065675">
          <line id="Línea_347" data-name="Línea 347" x2="2.578" transform="translate(36.054 73.441)" fill="none" stroke="#000" stroke-linecap="round" stroke-linejoin="round" stroke-miterlimit="10" stroke-width="2.49"/>
          <line id="Línea_348" data-name="Línea 348" y1="2.578" transform="translate(37.343 72.152)" fill="none" stroke="#000" stroke-linecap="round" stroke-linejoin="round" stroke-miterlimit="10" stroke-width="2.49"/>
        </g>
        <g id="Grupo_1065676" data-name="Grupo 1065676">
          <line id="Línea_349" data-name="Línea 349" x2="2.578" transform="translate(46.368 73.441)" fill="none" stroke="#000" stroke-linecap="round" stroke-linejoin="round" stroke-miterlimit="10" stroke-width="2.49"/>
          <line id="Línea_350" data-name="Línea 350" y1="2.578" transform="translate(47.657 72.152)" fill="none" stroke="#000" stroke-linecap="round" stroke-linejoin="round" stroke-miterlimit="10" stroke-width="2.49"/>
        </g>
        <g id="Grupo_1065677" data-name="Grupo 1065677">
          <line id="Línea_351" data-name="Línea 351" x2="2.578" transform="translate(56.681 73.441)" fill="none" stroke="#000" stroke-linecap="round" stroke-linejoin="round" stroke-miterlimit="10" stroke-width="2.49"/>
          <line id="Línea_352" data-name="Línea 352" y1="2.578" transform="translate(57.971 72.152)" fill="none" stroke="#000" stroke-linecap="round" stroke-linejoin="round" stroke-miterlimit="10" stroke-width="2.49"/>
        </g>
      </g>
    </g>
  </g>
</svg>
